<?xml version="1.0" encoding="UTF-8" standalone="no"?>
<!DOCTYPE svg PUBLIC "-//W3C//DTD SVG 1.1//EN" "http://www.w3.org/Graphics/SVG/1.1/DTD/svg11.dtd">
<svg width="100%" height="100%" viewBox="0 0 5906 5906" version="1.1" xmlns="http://www.w3.org/2000/svg" xmlns:xlink="http://www.w3.org/1999/xlink" xml:space="preserve" xmlns:serif="http://www.serif.com/" style="fill-rule:evenodd;clip-rule:evenodd;stroke-linejoin:round;stroke-miterlimit:2;">
    <g id="Wrist">
        <g id="_1" serif:id="1">
            <path d="M2333.65,5881.58C2333.65,5895.38 2322.45,5906.58 2308.65,5906.58C2294.85,5906.58 2283.65,5895.38 2283.65,5881.58C2283.65,3926.29 2297.01,1971.56 2283.82,16.914C2283.73,3.117 2294.86,-8.161 2308.65,-8.254C2322.45,-8.347 2333.73,2.78 2333.82,16.577C2347.01,1971.34 2333.65,3926.18 2333.65,5881.58Z" style="fill:#fff;"/>
            <path d="M3572.86,5891.37C3572.86,5905.17 3561.66,5916.37 3547.86,5916.37C3534.06,5916.37 3522.86,5905.17 3522.86,5891.37C3522.86,4500.25 3517.45,3108.9 3517.8,1717.62C3517.96,1104.07 3537.74,488.959 3528.22,-124.349C3528,-138.145 3539.03,-149.52 3552.83,-149.734C3566.62,-149.948 3578,-138.921 3578.21,-125.125C3587.73,488.446 3567.96,1103.82 3567.8,1717.63C3567.45,3108.91 3572.86,4500.26 3572.86,5891.37Z" style="fill:#fff;"/>
        </g>
        <g id="Layer5">
        </g>
    </g>
</svg>
