<?xml version="1.0" encoding="UTF-8" standalone="no"?>
<!DOCTYPE svg PUBLIC "-//W3C//DTD SVG 1.1//EN" "http://www.w3.org/Graphics/SVG/1.1/DTD/svg11.dtd">
<svg width="100%" height="100%" viewBox="0 0 5906 5906" version="1.1" xmlns="http://www.w3.org/2000/svg" xmlns:xlink="http://www.w3.org/1999/xlink" xml:space="preserve" xmlns:serif="http://www.serif.com/" style="fill-rule:evenodd;clip-rule:evenodd;stroke-linejoin:round;stroke-miterlimit:2;">
    <g id="Wrist">
        <g id="_2" serif:id="2">
            <path d="M2336.63,5923.97C2336.63,5937.77 2325.43,5948.97 2311.63,5948.97C2297.83,5948.97 2286.63,5937.77 2286.63,5923.97C2286.63,5125.84 2312.98,4328.28 2305.75,3530.02C2293.93,2223.77 2245.97,918.685 2260.37,-387.854C2260.52,-401.651 2271.85,-412.729 2285.64,-412.577C2299.44,-412.425 2310.52,-401.1 2310.37,-387.303C2295.98,918.902 2343.93,2223.65 2355.75,3529.57C2362.98,4327.98 2336.63,5125.69 2336.63,5923.97Z" style="fill:#fff;"/>
            <path d="M3573.59,5885.9C3573.59,5899.69 3562.38,5910.9 3548.59,5910.9C3534.79,5910.9 3523.59,5899.69 3523.59,5885.9C3523.59,3782.24 3418.64,1683.35 3490.33,-420.628C3490.8,-434.418 3502.38,-445.232 3516.16,-444.762C3529.95,-444.292 3540.77,-432.715 3540.3,-418.925C3468.63,1684.49 3573.59,3782.81 3573.59,5885.9Z" style="fill:#fff;"/>
        </g>
        <g id="Layer5">
        </g>
    </g>
</svg>
