<?xml version="1.0" encoding="UTF-8" standalone="no"?>
<!DOCTYPE svg PUBLIC "-//W3C//DTD SVG 1.1//EN" "http://www.w3.org/Graphics/SVG/1.1/DTD/svg11.dtd">
<svg width="100%" height="100%" viewBox="0 0 5906 5906" version="1.1" xmlns="http://www.w3.org/2000/svg" xmlns:xlink="http://www.w3.org/1999/xlink" xml:space="preserve" xmlns:serif="http://www.serif.com/" style="fill-rule:evenodd;clip-rule:evenodd;stroke-linejoin:round;stroke-miterlimit:2;">
    <g id="Wrist">
        <g id="_3" serif:id="3">
            <path d="M2338.37,5910.27C2338.37,5924.06 2327.17,5935.27 2313.37,5935.27C2299.57,5935.27 2288.37,5924.06 2288.37,5910.27C2288.37,5372.8 2292.12,4835.09 2272.9,4297.87C2255.12,3800.72 2212.22,3303 2207.36,2805.56C2203.61,2420.86 2233.91,2035.61 2243.62,1651.08C2260.11,997.503 2260.42,343.48 2273.28,-310.198C2273.55,-323.993 2284.98,-334.973 2298.77,-334.701C2312.57,-334.43 2323.55,-323.01 2323.27,-309.214C2310.41,344.557 2310.09,998.672 2293.6,1652.35C2283.91,2036.29 2253.61,2420.95 2257.36,2805.08C2262.21,3302.08 2305.11,3799.37 2322.87,4296.08C2342.11,4833.9 2338.37,5372.2 2338.37,5910.27Z" style="fill:#fff;"/>
            <path d="M3572.46,5909.01C3572.46,5922.81 3561.26,5934.01 3547.46,5934.01C3533.66,5934.01 3522.46,5922.81 3522.46,5909.01C3522.46,5228.43 3442.89,4549.05 3437.41,3868.45C3425.84,2430.77 3481.14,988.463 3521.4,-448.607C3521.78,-462.4 3533.3,-473.284 3547.09,-472.897C3560.88,-472.511 3571.76,-461 3571.38,-447.207C3531.14,989.263 3475.85,2430.97 3487.41,3868.05C3492.89,4548.78 3572.46,5228.3 3572.46,5909.01Z" style="fill:#fff;"/>
        </g>
        <g id="Layer5">
        </g>
    </g>
</svg>
