<?xml version="1.0" encoding="UTF-8" standalone="no"?>
<!DOCTYPE svg PUBLIC "-//W3C//DTD SVG 1.1//EN" "http://www.w3.org/Graphics/SVG/1.1/DTD/svg11.dtd">
<svg width="100%" height="100%" viewBox="0 0 5906 5906" version="1.1" xmlns="http://www.w3.org/2000/svg" xmlns:xlink="http://www.w3.org/1999/xlink" xml:space="preserve" xmlns:serif="http://www.serif.com/" style="fill-rule:evenodd;clip-rule:evenodd;stroke-linejoin:round;stroke-miterlimit:2;">
    <g id="Open">
        <g id="_1" serif:id="1">
            <path d="M3519.07,5339.85C3519.9,5344.29 3516.97,5348.57 3512.53,5349.41C3508.09,5350.24 3503.8,5347.31 3502.97,5342.87C3492.89,5333.85 3485.98,5332.95 3479.53,5321.45C3475.34,5313.96 3476.16,5304.73 3474.83,5296.47C3457.7,5190.63 3457.49,5100.24 3466.59,5020.43C3474.13,4954.37 3489.33,4895.13 3513.96,4839.81C3573.35,4706.43 3685.15,4595.43 3854.76,4464.48C3909.35,4422.19 3966.46,4382.2 4018.38,4336.68C4051.98,4307.21 4083.2,4275.27 4110.49,4239.39C4145.49,4192.9 4172.81,4142.69 4196.34,4090.56C4215.41,4048.3 4231.63,4004.65 4246.92,3960.4C4309.91,3778.09 4352.65,3584.33 4461.99,3424.64C4513.96,3346.58 4582.69,3274.93 4659.62,3212.23C4735.15,3150.67 4818.52,3097.84 4899.41,3053.62C4954.94,3023.85 5010.09,2995.22 5066.38,2966.83C5072.95,2963.51 5079.42,2962.94 5086.33,2960.18C5094.15,2953.51 5105.91,2954.44 5112.58,2962.26C5119.25,2970.07 5118.32,2981.83 5110.5,2988.5C5106.67,2995.21 5103.91,3001.09 5098.75,3006.72C5087.93,3018.53 5073.09,3025.67 5059.52,3033.93C5017.04,3059.77 4970.38,3078.53 4926.86,3103.24C4833.98,3154.99 4738.51,3219.52 4654.97,3293.91C4599.2,3343.58 4548.54,3397.5 4508.56,3456.05C4394.12,3628.38 4363.69,3841.5 4289.39,4032.91C4255.89,4119.23 4212.87,4200.62 4153.72,4273.25C4123.22,4311.05 4088.37,4344.19 4051.59,4375.26C3998.12,4420.43 3940.41,4461.09 3884.72,4503.49C3722.28,4627.62 3613.64,4731.78 3556.6,4858.87C3533.74,4909.79 3518.78,4964.32 3512.86,5025.32C3505.47,5101.42 3514.07,5186.83 3530.03,5287.64C3531.3,5295.65 3534.95,5303.81 3533.58,5312.02C3531.43,5324.87 3525.12,5327.93 3519.07,5339.85Z" style="fill:#fff;"/>
            <path d="M5099.89,2860.85C5103.58,2863.47 5104.45,2868.58 5101.83,2872.27C5099.22,2875.96 5094.1,2876.83 5090.41,2874.21C5059.49,2857.82 5029.18,2847.87 4999.21,2837.46C4978.84,2830.38 4959.08,2822.81 4938.49,2817.72C4888.41,2805.35 4835.84,2801.58 4778.12,2803.37C4739.29,2804.41 4700.81,2813.27 4663.92,2826.93C4626.33,2840.85 4590.45,2859.9 4557.53,2881.14C4474.62,2934.39 4417.03,2996.17 4371.72,3061.35C4244.53,3244.3 4207.46,3452.01 4012.83,3589.74C3846.44,3706.41 3641.44,3776.89 3473.68,3888.87C3377.12,3953.32 3301.7,4036.44 3238.64,4144.69C3232.01,4156.09 3223.89,4166.17 3216.89,4177.85C3211.47,4191.48 3196.01,4198.14 3182.39,4192.72C3168.76,4187.3 3162.1,4171.84 3167.52,4158.21C3170.23,4144.97 3172.46,4132.38 3176.87,4120C3179.81,4111.76 3184.16,4104.17 3188.06,4096.5C3229.31,4015.31 3285.37,3950.4 3350.06,3895.49C3529.18,3743.47 3778.82,3671.76 3974.92,3535.43C4164.36,3404.99 4199.13,3202.62 4324.26,3027.86C4374.38,2957.86 4437.91,2891.86 4528.67,2835.46C4565.19,2812.86 4604.94,2792.81 4646.42,2778.31C4688.8,2763.49 4732.92,2754.36 4777.24,2753.98C4852.75,2753.7 4919.9,2762.03 4983.48,2785.05C4996.63,2789.81 5010.02,2794.43 5022.51,2801.26C5050.22,2816.41 5074.62,2837.09 5099.89,2860.85Z" style="fill:#fff;"/>
            <path d="M3972.63,3532.16C3967.32,3534.87 3961.51,3538.07 3955.16,3541.8C3957.32,3545.78 3955.84,3550.75 3951.86,3552.91C3947.89,3555.06 3942.91,3553.58 3940.76,3549.61C3934.17,3552.88 3928.32,3556 3923.16,3558.96C3922.9,3558.89 3922.64,3558.81 3922.37,3558.73C3920.25,3558.12 3920.08,3554.97 3918.94,3553.08C3907.34,3533.83 3896.12,3514.89 3885.71,3495.87C3814.87,3366.41 3766.87,3244.61 3735.61,3126.06C3712.12,3037.01 3698.72,2949.38 3693.94,2860.93C3681.9,2638.39 3723.76,2410.63 3792.32,2133.79C3818.82,2033.09 3837.78,1930.13 3868.03,1830.43C3870.07,1823.69 3870.82,1816.33 3874.62,1810.39C3878.1,1804.95 3881.85,1803.49 3886.58,1799.1C3888.39,1792.45 3895.26,1788.52 3901.91,1790.34C3908.56,1792.15 3912.49,1799.02 3910.67,1805.67C3912.49,1811.77 3915.11,1814.82 3915.44,1821.18C3915.8,1828.06 3912.99,1834.7 3911.61,1841.45C3890.86,1943.35 3873.92,2046.16 3853.14,2147.99C3793.84,2418.43 3762.33,2640.17 3775.77,2856.1C3783.44,2979.32 3805.85,3100.6 3847.89,3228.97C3872.85,3305.19 3904.46,3383.71 3942.92,3466.98C3951.79,3486.2 3960.64,3505.76 3970.09,3525.56C3971.02,3527.5 3973.5,3529.33 3972.86,3531.4C3972.79,3531.65 3972.71,3531.91 3972.63,3532.16ZM3975.65,3596.71C3951.63,3615.54 3833.14,3610.62 3923.16,3558.96C3941.17,3564.2 3954.17,3569.15 3963.13,3573.73C3964.2,3563.72 3967.17,3550.12 3972.63,3532.16C4064.91,3485.07 4004.59,3586.61 3975.65,3596.71Z" style="fill:#fff;"/>
            <path d="M3960,1625.32C3958.9,1629.7 3954.45,1632.36 3950.06,1631.26C3945.68,1630.16 3943.01,1625.71 3944.11,1621.33C3938.39,1611.81 3933.81,1612.05 3932.21,1601.13C3930.33,1588.2 3938.48,1575.87 3941.92,1563.46C3987.92,1397.62 4052.08,1254.02 4080.45,1091.98C4093,1020.28 4098.71,945.013 4093.37,862.7C4090.27,817.078 4067.23,802.503 4037.05,806.719C3985.46,813.926 3921.19,861.302 3893.35,899.634C3871.12,930.372 3849.78,962.788 3830.5,996.365C3811.36,1029.69 3794.26,1064.17 3780.35,1099.28C3676.59,1365.7 3682,1836.68 3563.28,2176.76C3545.59,2227.44 3525.73,2275.58 3501.38,2319.24C3461.02,2391.63 3410.28,2452.71 3347.8,2498.08C3337.07,2505.87 3326.22,2513.59 3314.47,2519.89C3297.01,2529.24 3278.61,2536.16 3259.34,2542.47C3251.14,2546.27 3241.41,2542.7 3237.61,2534.5C3233.81,2526.3 3237.39,2516.57 3245.59,2512.77C3261.35,2503.09 3275.27,2491.89 3289.73,2481.06C3299.3,2473.9 3308.98,2467.03 3318.2,2459.55C3372.63,2415.35 3415.08,2357.75 3450.8,2291.51C3473.15,2250.07 3493.41,2205.53 3510.66,2158.01C3633.59,1819.61 3634.58,1348.89 3741.75,1083.95C3756.44,1047.04 3774.48,1010.78 3794.68,975.754C3814.75,940.954 3836.93,907.357 3860.05,875.508C3893.05,829.856 3969.93,774.296 4031.24,765.566C4084.55,757.976 4129.49,779.2 4135.2,859.796C4143.9,976.065 4131.2,1079.03 4108.56,1177.69C4077.4,1313.52 4029.29,1441.66 3988.27,1584.52C3985.29,1594.88 3986.01,1607.32 3979.04,1615.73C3972.19,1624 3969.61,1620.38 3960,1625.32Z" style="fill:#fff;"/>
            <path d="M3265.82,2514.83C3267.37,2519.28 3265.02,2524.15 3260.57,2525.7C3256.12,2527.25 3251.25,2524.9 3249.69,2520.45C3237.11,2499.67 3224.14,2480.85 3214.25,2458.78C3207.88,2444.55 3203.81,2429.46 3199.32,2414.57C3154.59,2266.12 3135.19,2111.69 3124.69,1956.34C3105.27,1669 3125.51,1375.78 3126.48,1092.69C3127.67,996.541 3137.04,898.862 3135.81,802.266C3135.32,764.283 3132.69,726.591 3128.26,688.94C3125.31,663.942 3122.32,639.058 3116.74,614.153C3114.45,606.597 3118.73,598.609 3126.29,596.326C3133.85,594.044 3141.83,598.324 3144.12,605.88C3153.78,631.072 3161.96,656.338 3167.64,682.332C3176.15,721.25 3179.67,760.992 3181.6,800.862C3186.31,897.806 3177.6,996.18 3178.44,1092.78C3178.38,1374.66 3160.81,1666.57 3179.29,1952.73C3189.1,2104.59 3211.66,2254.12 3248.04,2401.21C3251.67,2415.9 3256.07,2430.4 3258.58,2445.35C3262.53,2468.78 3262.81,2491.16 3265.82,2514.83Z" style="fill:#fff;"/>
            <path d="M2499.44,1962.05C2499.14,1957.54 2502.55,1953.63 2507.06,1953.33C2511.57,1953.02 2515.48,1956.43 2515.78,1960.94C2518.42,1967.87 2525.98,1978.42 2532.13,1997.06C2533.09,1999.97 2533.44,2003.17 2534.04,2006.44C2551.64,2102.72 2591.36,2309.34 2650.5,2417.06C2667.77,2448.51 2684.23,2471.85 2704.82,2474.63C2723.11,2477.1 2740.12,2461.14 2761.7,2427.16C2776.7,2402.1 2786.31,2373.72 2792.59,2344.18C2802.37,2298.21 2804.09,2249.48 2804.52,2205.3C2807.66,1882.9 2745.28,1561.76 2723.11,1240.15C2713.48,1100.42 2711.37,960.604 2725.18,820.562C2738.99,680.484 2795.38,517.993 2890.94,463.601C2953.16,428.186 3040.57,424.63 3127.41,516.166C3131.72,520.71 3136,525.276 3139.02,531.133C3140.56,534.13 3140.85,536.335 3141.88,539.621C3148.14,545.621 3148.36,555.579 3142.36,561.845C3136.35,568.11 3126.4,568.325 3120.13,562.325C3116.97,561.481 3114.81,561.569 3111.86,560.308C3106.3,557.927 3101.61,554.741 3096.91,551.423C3017.89,495.642 2963.88,480.422 2916.38,507.921C2832.25,556.634 2787.02,701.728 2774.22,825.513C2760.04,962.791 2761.54,1099.92 2770.37,1237C2791.16,1559.81 2852.21,1882.33 2847.64,2205.81C2846.98,2252.69 2844.69,2304.35 2834.16,2353.09C2826.79,2387.24 2815.4,2419.98 2797.97,2448.93C2765.03,2507.01 2729.39,2525.17 2698.98,2521.73C2667.24,2518.14 2635.45,2488 2609.38,2439.37C2549.22,2327.18 2506.04,2113.27 2493.55,2012.65C2493.13,2009.26 2492.49,2006.01 2492.58,2002.87C2493.13,1982.39 2497.7,1969.6 2499.44,1962.05Z" style="fill:#fff;"/>
            <path d="M2470,1775.84C2470.95,1780.26 2468.14,1784.62 2463.72,1785.57C2459.3,1786.53 2454.94,1783.71 2453.99,1779.29C2438.52,1729.54 2421.84,1673.76 2407.27,1612.34C2401.72,1588.94 2396.86,1564.8 2392.12,1540.1C2358.03,1362.06 2322.94,1158.64 2253.91,990.611C2231.42,935.878 2205.59,884.989 2175.86,839.594C2147.18,795.812 2113.17,759.296 2077.52,725.82C2073.34,721.889 2069.86,717.58 2065.77,713.565C2057.77,707.917 2055.86,696.833 2061.5,688.828C2067.15,680.823 2078.23,678.909 2086.24,684.557C2092.23,687.525 2098.09,690.286 2103.74,693.896C2151.68,724.557 2190.09,770.387 2224.67,820.972C2275.43,895.222 2314.05,985.46 2344.98,1081.93C2395.25,1238.72 2429.82,1412.18 2449.25,1565.96C2458.95,1642.74 2461.94,1714.09 2470,1775.84Z" style="fill:#fff;"/>
            <path d="M2028.6,673.235C2030.35,669.068 2035.15,667.105 2039.32,668.855C2043.48,670.605 2045.45,675.41 2043.7,679.577C2026.49,729.485 2014.93,780.876 2004.84,833.039C1998.21,867.37 1992.26,901.883 1987.61,936.677C1975.93,1024 1971.32,1112.6 1973.72,1199.32C1976.53,1310.38 1984.81,1423.29 2000.9,1534.96C2016.93,1646.22 2040.72,1756.27 2074.91,1861.99C2115.16,1986.66 2171.56,2111.54 2209.84,2239.66C2236.14,2327.71 2253.93,2417.27 2252.96,2509.23C2251.64,2633.76 2207.23,2691.9 2151.63,2706.57C2073.03,2727.32 1956.91,2656.1 1875.39,2538.45C1837.59,2483.89 1807.51,2426.84 1782.73,2367.45C1763.06,2320.29 1743.6,2272.55 1731.54,2222.15C1728.53,2209.54 1727.27,2196.93 1725.21,2184.05C1722.65,2175.8 1727.29,2167.01 1735.55,2164.46C1743.81,2161.91 1752.59,2166.54 1755.14,2174.8C1757.72,2178.93 1760.45,2182.4 1762.65,2186.74C1767.45,2196.25 1770.77,2206.33 1774.43,2216.28C1795.33,2273.05 1814.53,2329.57 1839.91,2383.66C1860.68,2427.88 1884.34,2470.95 1913.06,2512.33C1981.64,2611.13 2073.81,2679.49 2139.84,2662.01C2181.74,2650.91 2205.78,2602.62 2206.69,2508.76C2207.55,2421.48 2190.29,2336.53 2165.3,2252.97C2127.07,2125.19 2070.85,2000.62 2030.71,1876.25C1995.84,1768.01 1971.49,1655.38 1955.31,1541.48C1939.2,1427.99 1931.2,1313.24 1928.68,1200.39C1926.58,1093.33 1930.52,982.727 1954.54,876.842C1970.65,805.821 1996.65,737.977 2028.6,673.235Z" style="fill:#fff;"/>
            <path d="M1601.87,1850.42C1603.65,1854.58 1601.72,1859.39 1597.56,1861.17C1593.41,1862.95 1588.59,1861.02 1586.81,1856.87C1575.66,1851.1 1569.4,1853.01 1560.42,1843.79C1516.12,1798.32 1499.2,1725.67 1458.17,1672.39C1427.98,1633.19 1394.6,1597.55 1356.19,1571.58C1332.06,1554.58 1314.28,1546.1 1299.93,1549.27C1283.29,1552.95 1277.25,1571.83 1272.42,1593.83C1256.89,1664.61 1275.79,1777.28 1282.54,1827.23C1296.85,1959.06 1325.38,2095.04 1367.14,2226.48C1404.5,2344.04 1456.45,2455.72 1515.29,2561.08C1521.99,2573.08 1527.73,2585.35 1534.32,2597.35C1540.8,2606.78 1538.4,2619.68 1528.98,2626.16C1519.55,2632.63 1506.65,2630.23 1500.17,2620.81C1491,2609.95 1481.73,2599.37 1473.37,2587.81C1399.95,2486.29 1348.51,2367.33 1307.6,2245.98C1262.14,2111.11 1234.92,1970.05 1220.11,1834.02C1214.62,1767.61 1199.61,1601.28 1242.87,1537.3C1253.53,1521.54 1267.07,1510.85 1283.65,1505.38C1307.65,1497.47 1340.5,1500.84 1384.84,1527.76C1439.25,1562.45 1487.41,1612.51 1526.65,1669.61C1560.74,1719.2 1607.36,1769.54 1609.91,1825.71C1610.44,1837.49 1605.61,1839.5 1601.87,1850.42Z" style="fill:#fff;"/>
            <path d="M1560.37,2664.71C1558.36,2660.66 1560.02,2655.74 1564.07,2653.74C1568.12,2651.73 1573.04,2653.39 1575.04,2657.44C1586.58,2674.8 1599.15,2690.94 1610.2,2708.75C1707.19,2865.21 1804.81,3027.03 1891.86,3191C1934.26,3270.86 1971.91,3352.5 2000.73,3437.24C2023.33,3503.7 2036.22,3571.68 2044.43,3640.43C2062.97,3795.7 2056.99,3954.87 2090.77,4108.16C2099.62,4149.7 2113.39,4189.32 2129.22,4228.13C2168.16,4323.6 2219.47,4414.33 2249.03,4513.71C2262.09,4557.99 2271.74,4602.58 2279.37,4647.42C2296.81,4750.02 2303.64,4853.86 2318.38,4957.66C2330.94,5038.99 2353.71,5118.63 2365.92,5200.03C2371.29,5235.84 2373.15,5271.79 2374.61,5307.98C2375.99,5320.31 2367.1,5331.45 2354.76,5332.83C2342.43,5334.21 2331.29,5325.31 2329.91,5312.98C2323.56,5278.53 2314.19,5245.05 2306.82,5210.81C2289.37,5129.71 2274.14,5047.97 2262.76,4965.81C2249.4,4877.23 2241.81,4788.59 2228.43,4700.76C2219.74,4643.71 2208.57,4587 2191.54,4530.91C2162.23,4433.47 2111.03,4344.84 2072.78,4251.17C2055.56,4209.02 2040.92,4165.88 2031.42,4120.73C1999.74,3964.91 2007.82,3803.84 1991.81,3646.24C1985.17,3580.86 1974.36,3516.08 1954.12,3452.6C1927.68,3369.69 1892.46,3289.69 1852.82,3211.22C1769.22,3045.75 1656.48,2891.76 1581.82,2723.76C1573.22,2704.42 1567.27,2684.6 1560.37,2664.71Z" style="fill:#fff;"/>
            <path d="M3195.59,3476.25C3192.3,3472.16 3195.45,3474.89 3195.59,3476.25ZM3165.99,3467.88C3165.36,3468.63 3166.24,3469.58 3172.84,3470.01C3174.06,3465.66 3178.59,3463.12 3182.94,3464.34C3187.29,3465.56 3189.83,3470.09 3188.61,3474.44C3194.36,3477.44 3195.68,3477.17 3195.59,3476.25C3196.24,3477.06 3197.16,3478.15 3198.4,3479.58C3200.18,3481.62 3200.41,3483.1 3200.61,3485.8C3201.33,3496.09 3196.64,3505.96 3194.1,3515.96C3166.24,3626.03 3123.74,3731.99 3098.09,3842.71C3094.06,3858.96 3077.59,3868.89 3061.33,3864.86C3045.08,3860.83 3035.15,3844.36 3039.18,3828.1C3068.49,3717.23 3108.15,3609.6 3146.08,3501.49C3149.41,3491.98 3150.81,3481.45 3156.71,3473.28C3158.27,3471.12 3159.27,3470.06 3161.81,3469.26C3163.64,3468.69 3165,3468.24 3165.99,3467.88ZM3165.99,3467.88C3166.88,3466.82 3170.81,3466.16 3165.99,3467.88Z" style="fill:#fff;"/>
            <path d="M2697.81,3500.67C2693.55,3502.19 2688.87,3499.96 2687.35,3495.71C2685.83,3491.45 2688.05,3486.76 2692.3,3485.24C2727.15,3470.57 2761.49,3455.58 2795.17,3438.84C2829.18,3421.95 2861.87,3403.58 2895.55,3385.76C2908.32,3380.46 2922.99,3386.52 2928.29,3399.29C2933.59,3412.06 2927.53,3426.73 2914.76,3432.03L2697.81,3500.67Z" style="fill:#fff;"/>
        </g>
    </g>
</svg>
