<?xml version="1.0" encoding="UTF-8" standalone="no"?>
<!DOCTYPE svg PUBLIC "-//W3C//DTD SVG 1.1//EN" "http://www.w3.org/Graphics/SVG/1.1/DTD/svg11.dtd">
<svg width="100%" height="100%" viewBox="0 0 5906 5906" version="1.1" xmlns="http://www.w3.org/2000/svg" xmlns:xlink="http://www.w3.org/1999/xlink" xml:space="preserve" xmlns:serif="http://www.serif.com/" style="fill-rule:evenodd;clip-rule:evenodd;stroke-linejoin:round;stroke-miterlimit:2;">
    <g id="Open">
        <g id="_2" serif:id="2">
            <path d="M3529.24,5331.96C3530.22,5336.37 3527.43,5340.75 3523.02,5341.73C3518.61,5342.72 3514.23,5339.93 3513.25,5335.52C3501.38,5311.71 3489.52,5290.53 3481.76,5265.64C3479.88,5259.61 3479.01,5253.37 3477.97,5247.18C3456.29,5118.11 3467.78,4990.8 3502.82,4872.24C3546.19,4725.51 3631.25,4591.4 3759.46,4479.38C3836.8,4411.92 3918.25,4352.58 3991.41,4284.05C4038.06,4240.34 4081.28,4192.81 4117.49,4136.53C4148.32,4088.75 4174.36,4038.53 4197.78,3987.01C4253.91,3863.55 4295.12,3732.66 4348.55,3608.43C4405.36,3476.4 4493.71,3349.51 4600.12,3239.91C4684.39,3153.11 4778.21,3074.07 4879.99,3018.03C4906.61,3003.38 4934.11,2991.47 4961.5,2980.06C4977.6,2972.19 4997.07,2978.87 5004.94,2994.97C5012.81,3011.07 5006.13,3030.54 4990.03,3038.41C4965.77,3052.14 4942.45,3067.83 4918.29,3083.03C4825.4,3141.47 4733.12,3209.99 4653.18,3291.64C4552.66,3394.32 4468.78,3513.14 4414.79,3637.11C4360.58,3761.5 4318.56,3892.62 4261.62,4016.23C4236.52,4070.72 4208.57,4123.77 4175.63,4174.26C4135.8,4235.11 4088.6,4286.55 4037.52,4333.66C3963.25,4402.18 3880.76,4461.44 3802.28,4528.85C3682.72,4631.37 3603.23,4754.74 3561.36,4889.95C3527.17,5000.36 3521.22,5118.23 3532.62,5240.04C3533.18,5245.96 3533.95,5251.87 3533.91,5257.85C3533.77,5283.1 3529.86,5306.19 3529.24,5331.96Z" style="fill:#fff;"/>
            <path d="M5128.57,2862.2C5132.39,2864.61 5133.54,2869.67 5131.13,2873.5C5128.72,2877.32 5123.65,2878.47 5119.83,2876.06C5086.16,2860.16 5051.76,2850.51 5017.48,2839.87C4965.97,2823.89 4914.68,2810.37 4862.09,2808.38C4775.71,2805.12 4688.54,2825.08 4607.6,2870.19C4525.6,2917.04 4466.27,2971.5 4418.86,3030.12C4289.84,3189.68 4245.11,3378.29 4085.21,3532.06C4043.24,3571.91 3994.78,3601.03 3943.16,3624.46C3869.78,3657.77 3789.93,3679.35 3714.89,3706.33C3597.98,3748.1 3488.93,3816.88 3393.17,3901.38C3316.62,3968.93 3248.77,4046.71 3192.11,4129.17C3189.23,4133.36 3186.7,4137.8 3183.51,4141.75C3170.13,4158.27 3155.01,4171.68 3141.21,4187.52C3135.99,4196.41 3124.53,4199.39 3115.63,4194.17C3106.74,4188.95 3103.76,4177.48 3108.98,4168.59C3116.38,4148.04 3122.43,4127.86 3132.73,4108.29C3135.21,4103.57 3138.52,4099.33 3141.48,4094.89C3199.85,4007.4 3271.08,3925.37 3351.35,3854.13C3452.93,3763.97 3569.38,3691.44 3693.73,3647.08C3767.36,3620.98 3845.7,3600.26 3917.78,3568.09C3963.36,3547.73 4006.46,3522.78 4043.69,3487.99C4204.38,3339.69 4251.46,3154.2 4381.67,2999.44C4433.53,2937.8 4497.86,2880.68 4586.38,2832.25C4674.52,2782.79 4769.58,2760.46 4863.79,2764.14C4921.07,2766.37 4979.35,2775.1 5032.88,2799.3C5067.37,2814.9 5098.11,2837.39 5128.57,2862.2Z" style="fill:#fff;"/>
            <path d="M3967.57,3547.42C3970.04,3551.2 3968.98,3556.28 3965.2,3558.76C3961.42,3561.23 3956.34,3560.17 3953.86,3556.39C3936.29,3561.45 3955.58,3566.97 3938.34,3560.88C3932.37,3558.77 3931.04,3550.53 3927.44,3545.32C3886.15,3485.53 3845.27,3426.13 3809.78,3364.06C3769.38,3293.39 3736.58,3218.99 3717.81,3136.81C3696.91,3044.5 3695.64,2951.76 3704.97,2859.25C3718.55,2724.56 3754.69,2590.4 3782.5,2458.9C3826.5,2252.57 3871.38,2042.58 3911.68,1834.04C3916.17,1810.85 3921,1787.8 3925.71,1764.72C3928.86,1749.28 3930.2,1733.4 3935.33,1718.53C3939.09,1707.61 3944.92,1699.32 3950,1688.97C3951.09,1681.74 3957.83,1676.75 3965.06,1677.84C3972.29,1678.92 3977.27,1685.67 3976.19,1692.89C3978.03,1704.36 3981.13,1714.09 3981.32,1725.72C3981.99,1767.91 3971.3,1809.58 3964.6,1851.45C3931.37,2059.24 3881.27,2266.22 3838.3,2470.71C3810.85,2600.24 3775.16,2732.35 3761.55,2865.01C3752.68,2951.47 3753.2,3038.17 3772.47,3124.52C3782.63,3170.19 3797.83,3213.14 3815.92,3254.55C3855.19,3344.41 3909.67,3426.37 3962.84,3510.58C3967.59,3518.11 3972.4,3525.61 3976.87,3533.33C3977.21,3533.91 3977.9,3534.43 3977.84,3535.1C3976.04,3553.38 3979.35,3533.32 3967.57,3547.42Z" style="fill:#fff;"/>
            <path d="M3990.7,1532.98C3989.84,1537.42 3985.53,1540.32 3981.1,1539.45C3976.66,1538.59 3973.76,1534.29 3974.62,1529.85C3971.63,1520.13 3966.4,1512.37 3965.11,1496.64C3964.6,1490.35 3966.25,1483.64 3967.45,1476.43C3984.41,1374.76 4031.7,1181.12 4047.64,1034.12C4053.95,975.939 4057.41,925.598 4050.12,892.521C4047.25,879.457 4046.62,868.26 4037.07,868.857C3929.46,877.007 3857.28,952.996 3805.58,1057.75C3731.98,1206.89 3702.02,1414.05 3678.01,1587.62C3665.18,1680.36 3653.51,1763.68 3641.32,1824.7C3638.6,1839.32 3624.52,1848.99 3609.89,1846.27C3595.26,1843.55 3585.6,1829.47 3588.32,1814.84C3598.75,1754.22 3606.28,1671.37 3618.26,1579.59C3641.7,1399.97 3679.64,1187 3757.3,1033.61C3819.16,911.432 3907.22,826.535 4033.47,818.141C4059.33,816.209 4078.76,828.818 4091.66,855.201C4108.57,889.8 4112.9,958.075 4105.18,1039.95C4091.09,1189.35 4047.41,1387.27 4019.06,1487.97C4017.1,1494.93 4015.74,1501.63 4012.67,1507.08C4005.05,1520.6 3997.02,1525.23 3990.7,1532.98Z" style="fill:#fff;"/>
            <path d="M3387.07,2413.66C3413.77,2393.11 3434.73,2355.61 3453.38,2311.89C3485.24,2237.2 3506.46,2143.53 3523.37,2066.74C3525,2059.33 3525.99,2051.9 3528.41,2045.08C3532.9,2032.39 3539.87,2022.9 3544.61,2011.78C3552.96,1992.16 3558.24,1974.9 3563.75,1960.54C3564.61,1956.1 3568.9,1953.19 3573.34,1954.04C3577.78,1954.9 3580.69,1959.2 3579.83,1963.63C3580.15,1989.1 3585.02,2022 3581.72,2061.76C3576.09,2129.73 3553.1,2210.65 3528.91,2283.51C3499.04,2373.44 3455.71,2448.99 3401.63,2477C3387.42,2484.35 3367.64,2483.32 3347.49,2468.64C3320.2,2448.75 3286.05,2397.74 3279.56,2388.31C3253.6,2351.09 3233.11,2310.67 3216.86,2268.54C3200.85,2227.03 3189.07,2183.83 3180.31,2140.38C3169.16,2084.94 3163.82,2029.25 3161.9,1973.41C3157.57,1847.55 3170.1,1721.05 3161.1,1595.22C3145.65,1351.07 3090.23,1109.94 3082.94,865.109C3082.44,848.283 3084.2,831.701 3084.08,814.861C3083.8,775.965 3079.94,737.098 3081.14,698.125C3081.26,694.39 3080.14,690.293 3081.87,686.982C3084.95,681.113 3086.12,683.529 3091.31,679.407C3091.21,673.194 3096.17,668.065 3102.38,667.961C3108.6,667.857 3113.72,672.817 3113.83,679.031C3119.38,682.778 3119.97,679.674 3123.41,685.427C3126.03,689.832 3124.5,695.582 3124.93,700.691C3130.42,766.268 3137.24,831.362 3144.87,896.532C3164.78,1066.68 3190.89,1236.09 3211.82,1405.98C3219.37,1467.3 3225.81,1528.72 3230.52,1590.31C3239.39,1717.1 3227.64,1844.5 3230.89,1971.34C3232.22,2023.6 3235.91,2075.79 3245.49,2127.82C3252.84,2167.82 3262.9,2207.65 3276.93,2245.97C3290.71,2283.62 3308.21,2319.84 3330.7,2353.28C3335.63,2360.51 3382.89,2391.99 3387.07,2413.66Z" style="fill:#fff;"/>
            <path d="M2712.98,2372.06C2731.87,2272.71 2744.95,2062.29 2743.41,2024.4C2732.73,1751.25 2635.87,1310.79 2670.84,957.59C2688.2,782.326 2738.03,628.245 2842.56,523.487C2886.36,480.006 2933.65,452.111 2985.7,444.633C3000.3,442.534 3015.4,440.773 3030.5,443.361C3051.57,446.974 3070.55,455.891 3091.37,467.71C3095.71,468.97 3098.21,473.518 3096.95,477.858C3095.69,482.199 3091.14,484.699 3086.8,483.439C3064.81,482.366 3046.39,486.757 3026.92,488.941C3008.16,491.044 2990.09,492.405 2972.79,498.102C2939.27,509.141 2908.53,530.223 2879.76,560.116C2784.73,657.935 2743.1,801.329 2728.92,963.012C2698.12,1314.05 2798.26,1750.35 2811.3,2021.44C2813,2058.01 2802.69,2248.55 2785.99,2359.38C2779.94,2399.52 2772.12,2430.26 2764.78,2443.5C2756.92,2457.69 2746.45,2463.77 2738.34,2466.1C2730.14,2468.42 2710.72,2468.9 2693.53,2449.96C2674.06,2428.49 2636.92,2364.25 2632.59,2356.42C2607.37,2310.21 2584.51,2260.49 2565.76,2209.23C2546.98,2157.9 2532.18,2105.14 2523.01,2052.97C2520.03,2037.6 2530.08,2022.7 2545.45,2019.72C2560.82,2016.75 2575.71,2026.8 2578.69,2042.17C2588.97,2090.64 2604.6,2139.47 2623.81,2186.85C2643.1,2234.41 2666.15,2280.42 2691.33,2323.05C2693.28,2326.39 2702.25,2350.81 2712.98,2372.06ZM2728.44,2397.07C2734.34,2403.98 2740.05,2406.93 2744.82,2402.41C2751.99,2395.61 2738.75,2395.83 2728.44,2397.07ZM2707.42,2402.63C2702.62,2404.73 2699.1,2407.31 2703.23,2409.58C2705.52,2410.83 2706.6,2407.51 2707.42,2402.63Z" style="fill:#fff;"/>
            <path d="M2451.6,1726.78C2452.17,1731.26 2448.99,1735.36 2444.5,1735.93C2440.02,1736.5 2435.92,1733.32 2435.35,1728.84C2422.74,1677.27 2409.83,1626.58 2401.87,1573.95C2390.25,1497.17 2386.32,1419.41 2371.5,1343.28C2359.78,1279.47 2314.96,1100.92 2254.07,953.824C2222.94,878.619 2186.17,813.544 2150.28,774.834C2141.43,765.289 2133.31,757.523 2125.14,750.817C2123.52,749.49 2122.82,748.049 2121.87,746.249C2119,740.819 2122.44,743.423 2121.08,737.532C2113.69,735.46 2109.38,727.778 2111.45,720.389C2113.52,713 2121.2,708.683 2128.59,710.756C2133.75,705.582 2130.16,706.713 2137.15,704.173C2140.37,703.005 2143.51,704.757 2146.96,705.526C2164.44,709.431 2181.23,721.49 2197.79,736.824C2228.7,765.462 2255.72,812.441 2281.62,865.881C2358.96,1025.42 2415.72,1257.25 2429.18,1332.86C2442.22,1411.07 2452.11,1490.07 2453.92,1569.44C2455.12,1622.28 2450.95,1674.06 2451.6,1726.78Z" style="fill:#fff;"/>
            <path d="M2113.78,693.869C2118.26,693.3 2122.36,696.478 2122.93,700.962C2123.5,705.446 2120.32,709.548 2115.84,710.117C2095.84,717.889 2082.72,730.811 2067.24,742.885C2034.23,768.623 2007.28,802.821 1989.46,846.741C1949.97,944.115 1944.88,1071.7 1949.49,1146.22C1955.78,1258.21 1979.32,1378.83 2009.39,1500.73C2054.02,1681.63 2113.85,1865.2 2162.95,2025.91C2188.05,2111.02 2217.76,2197.78 2237.99,2286.02C2251.84,2346.39 2261.19,2407.38 2262.88,2468.7C2266.23,2576.51 2223.18,2663.79 2161.61,2695.81C2101.86,2726.89 2019.55,2711.48 1935.45,2602.2C1897.1,2552.69 1867.91,2501.16 1844.3,2447.58C1816.06,2383.52 1793.24,2317.45 1774.23,2248.3C1769.65,2231.65 1766.35,2214.71 1762.19,2197.69C1758.07,2184.93 1765.07,2171.23 1777.83,2167.1C1790.58,2162.97 1804.29,2169.98 1808.42,2182.73C1815.08,2199.11 1822.11,2215.06 1827.9,2231.5C1851.08,2297.34 1868.62,2363.01 1894.84,2425.9C1915.84,2476.26 1940.59,2525.51 1974.72,2572.85C2036.86,2658.47 2096.22,2682.25 2141.98,2658.24C2191.36,2632.33 2217.95,2557.65 2212.2,2471.17C2208.15,2413.44 2196.25,2356.49 2181.33,2300C2158.5,2213.55 2127.93,2128.37 2101.19,2044.9C2051.11,1883.25 1988.66,1698.96 1944.56,1516.57C1914.05,1390.41 1892.61,1265.13 1887.63,1149.28C1884.63,1068.33 1893.38,929.787 1939.68,825.59C1963.64,771.684 1994.93,721.617 2042.97,701.451C2064.96,692.216 2087.89,690.798 2113.78,693.869Z" style="fill:#fff;"/>
            <path d="M1323.22,1585.58C1313.23,1609.32 1308.88,1635.16 1308.1,1661.23C1307.21,1691.31 1311.28,1721.74 1317.86,1750.11C1330.57,1805.25 1348.69,1857.92 1368.86,1909.64C1417.57,2034.53 1480.48,2153.22 1529.87,2278.63C1546.46,2322.26 1559.58,2365.95 1571.05,2409.91C1586.28,2468.29 1602.69,2526.16 1613.88,2586.37C1614.87,2591.71 1616.94,2597.06 1615.8,2602.39C1615.19,2605.23 1614.2,2604.94 1612.7,2607.43C1615.54,2617.28 1609.85,2627.58 1599.99,2630.42C1590.14,2633.26 1579.84,2627.57 1577,2617.72C1574.31,2615.6 1572.5,2615.28 1570.49,2612.52C1565.09,2605.14 1563.84,2595.61 1560.99,2586.98C1529.62,2491.76 1510.81,2395.91 1471.06,2302.23C1427.19,2195.48 1372.1,2094.4 1326.96,1988.95C1296.1,1916.87 1270.17,1842.72 1253.21,1764.56C1245.94,1730.72 1241.86,1694.48 1243.52,1658.77C1245.27,1621.38 1253.12,1584.58 1269.59,1551.4C1279.02,1532.42 1296.57,1520.54 1322.2,1520.81C1350.11,1521.1 1394.89,1540.15 1442.36,1588.03C1490.47,1636.57 1562.89,1709.78 1588.48,1829.78C1590.6,1839.73 1588.84,1848.62 1589.76,1859.13C1590.99,1873.1 1593.74,1886.33 1595.42,1901C1596.85,1905.28 1594.53,1909.92 1590.24,1911.35C1585.95,1912.78 1581.31,1910.46 1579.88,1906.17C1572.33,1893.34 1565.86,1881.36 1557.53,1869.96C1551.36,1861.51 1543.89,1856.43 1538.51,1847.91C1535.43,1843.04 1533.88,1837.45 1531.59,1832.32C1499.45,1760.43 1464.62,1704.93 1430.84,1664.35C1396.37,1622.95 1363.99,1597.56 1338.51,1587.21C1333.37,1585.12 1326.69,1586.55 1323.22,1585.58Z" style="fill:#fff;"/>
            <path d="M1595.88,2661.49C1594.36,2657.23 1596.58,2652.54 1600.84,2651.02C1605.1,2649.5 1609.78,2651.73 1611.3,2655.98C1620.7,2668.61 1630.6,2678.34 1638.78,2691.74C1656.3,2720.44 1668.4,2751.79 1683.07,2781.92C1732.37,2883.15 1783.54,2983.2 1831.91,3084.84C1878.55,3182.85 1920.19,3283.37 1949.67,3390.08C1985.72,3520.68 1977.49,3657.93 1998.52,3789.62C2003.49,3820.72 2010.17,3851.5 2019.77,3881.76C2034.47,3928.12 2053.74,3972.67 2075.28,4016.28C2127.36,4121.75 2192.42,4221.87 2241.65,4327.7C2306.32,4468.16 2339.43,4595.54 2353.09,4721.24C2372.07,4895.9 2359.63,5067.87 2332.52,5266.24C2330.38,5281.95 2330.08,5298.31 2324.59,5313.58C2322.96,5318.1 2320.4,5320.77 2317.98,5324.95C2316.74,5337.74 2305.34,5347.11 2292.56,5345.86C2279.77,5344.62 2270.4,5333.23 2271.64,5320.44C2270.07,5315.86 2268.09,5312.73 2267.37,5307.96C2264.94,5291.89 2267.89,5275.75 2268.89,5259.89C2281.17,5065.33 2303.46,4898.98 2283.66,4729.06C2269.84,4610.42 2238.33,4490.21 2176.65,4357.8C2128.01,4252.32 2063.53,4152.5 2012.05,4047.38C1989.1,4000.5 1968.66,3952.6 1953.04,3902.8C1942.5,3869.18 1935.1,3835.01 1929.73,3800.46C1909.65,3671.07 1919.3,3536.26 1884.62,3407.85C1829.18,3198.45 1718.02,3016.23 1637.8,2819.61C1623.42,2784.37 1607.36,2749.44 1599.76,2712.03C1596.26,2694.81 1596.93,2679.08 1595.88,2661.49Z" style="fill:#fff;"/>
            <path d="M3159.24,3477.19C3160.37,3472.81 3164.84,3470.17 3169.22,3471.3C3173.59,3472.43 3176.23,3476.9 3175.1,3481.28C3183.89,3492.12 3187.57,3487.14 3190.64,3500.75C3192.28,3508.05 3187.26,3515.32 3185.4,3522.56C3157.77,3629.91 3120.51,3734.39 3091.33,3841.37C3086.82,3857.6 3069.97,3867.1 3053.74,3862.59C3037.52,3858.07 3028.01,3841.23 3032.53,3825C3062.81,3718.36 3098.59,3613.57 3129.88,3507.26C3131.94,3500.25 3131.29,3491.69 3136.22,3486.3C3145.58,3476.06 3146.38,3482.39 3159.24,3477.19Z" style="fill:#fff;"/>
            <path d="M2668.14,3535.61C2663.92,3537.23 2659.18,3535.12 2657.56,3530.9C2655.94,3526.68 2658.04,3521.94 2662.26,3520.32C2665.58,3506.94 2660.42,3508.9 2667.87,3497.32C2669.65,3494.56 2672.41,3493.12 2675.25,3491.47C2733.64,3457.5 2799.63,3439.38 2861.12,3411.36C2877.7,3404.05 2897.09,3411.56 2904.41,3428.13C2911.72,3444.71 2904.2,3464.1 2887.63,3471.41C2824.65,3498.32 2764.21,3533.28 2697.38,3548.09C2694.13,3548.81 2691.09,3549.67 2687.87,3548.82C2674.52,3545.29 2679.6,3543.34 2668.14,3535.61Z" style="fill:#fff;"/>
        </g>
    </g>
</svg>
