<?xml version="1.0" encoding="UTF-8" standalone="no"?>
<!DOCTYPE svg PUBLIC "-//W3C//DTD SVG 1.1//EN" "http://www.w3.org/Graphics/SVG/1.1/DTD/svg11.dtd">
<svg width="100%" height="100%" viewBox="0 0 5906 5906" version="1.1" xmlns="http://www.w3.org/2000/svg" xmlns:xlink="http://www.w3.org/1999/xlink" xml:space="preserve" xmlns:serif="http://www.serif.com/" style="fill-rule:evenodd;clip-rule:evenodd;stroke-linejoin:round;stroke-miterlimit:2;">
    <g id="Open">
        <g id="_3" serif:id="3">
            <path d="M3550,5320.89C3551.87,5326 3549.24,5331.68 3544.13,5333.55C3539.01,5335.43 3533.34,5332.8 3531.46,5327.69C3515.61,5300.78 3501.03,5275.53 3491.74,5247.14C3485.51,5228.12 3483.12,5208.24 3480.26,5188.66C3469.8,5116.98 3471.13,5044.3 3476.05,4968.35C3485.52,4831.53 3526.68,4731.26 3585.76,4650.02C3661.71,4545.56 3768.07,4473.04 3875.95,4394.38C3970.86,4325.17 4067.05,4250.93 4141.52,4141.41C4171.29,4097.83 4189.97,4052.85 4204.03,4006.76C4226.65,3932.62 4237.77,3855.68 4260.81,3776.77C4315.52,3589.72 4418.05,3423.8 4551.29,3286.31C4657.32,3176.9 4782.19,3084.4 4918.51,3015.57C4942.36,3003.53 4965.92,2990.54 4991.19,2982.03C5002.35,2978.26 5013.5,2976.48 5024.97,2973.89C5034.67,2969.77 5045.89,2974.3 5050.01,2984C5054.12,2993.7 5049.59,3004.92 5039.89,3009.03C5030.34,3015.3 5021.86,3022.22 5011.96,3027.95C4989.7,3040.83 4965.93,3050.93 4943.21,3063.09C4813.81,3132.29 4693.42,3219.95 4592.16,3325.68C4466.2,3457.19 4369.04,3615.16 4317.85,3793.31C4295.03,3872.56 4284.12,3949.78 4261.7,4024.25C4246.1,4076.07 4225.09,4126.57 4191.83,4175.65C4113.06,4291.32 4012.04,4370.43 3911.6,4443.37C3808.72,4518.08 3706.49,4585.91 3633.68,4685.04C3579.89,4758.26 3542.53,4848.81 3533.16,4972.49C3528.42,5032.45 3526.54,5090.22 3530.62,5147.29C3532.67,5175.89 3538.46,5203.96 3541.68,5232.77C3544.95,5262.01 3544.75,5290.53 3550,5320.89Z" style="fill:#fff;"/>
            <path d="M5120.26,2840.51C5122.86,2844.2 5121.98,2849.31 5118.3,2851.92C5114.6,2854.53 5109.49,2853.65 5106.88,2849.96C5095.05,2843.82 5085.73,2843.35 5075.26,2836.58C5071.73,2834.3 5069.12,2830.95 5066.15,2828.14C5022.82,2787.09 4973.17,2768.22 4919.46,2766.54C4816.41,2763.32 4703.49,2816.76 4616.98,2875.89C4565.71,2911.66 4521.58,2951.57 4482.11,2994.02C4307.43,3181.9 4219.71,3417.13 4016.72,3573.19C3964.02,3613.39 3909.2,3640.68 3852.3,3661.3C3769.82,3691.2 3683.02,3706.88 3592.78,3731.45C3485.3,3760.26 3391.3,3819.11 3313.88,3895.54C3259.01,3949.71 3213.85,4013.48 3175.29,4080.38C3165.27,4097.77 3156.09,4115.5 3145.9,4132.7C3138.84,4144.62 3130.84,4155.18 3123.65,4166.96C3120.05,4176.12 3109.69,4180.64 3100.53,4177.04C3091.37,4173.45 3086.85,4163.09 3090.44,4153.92C3093.32,4139.74 3095.72,4126.03 3100.11,4112.18C3106.54,4091.93 3115.74,4072.65 3125.24,4053.54C3162.16,3979.27 3212.82,3911.65 3270.98,3852.67C3354.93,3767.52 3457.99,3702.31 3575.79,3669.38C3664.22,3645.02 3749.21,3629.15 3830.19,3600.04C3881.25,3581.69 3930.76,3558.06 3978.31,3522.4C4180.59,3371.89 4269.64,3140.87 4444.26,2958.33C4486.73,2913.92 4533.99,2872.19 4588.82,2834.96C4683.43,2769.38 4807.84,2711.19 4921.06,2714.61C4987.69,2716.62 5052.25,2737.83 5102.53,2792.19C5105.9,2795.83 5109.92,2799.18 5112.17,2803.75C5118.2,2816.02 5118.23,2826.04 5120.26,2840.51Z" style="fill:#fff;"/>
            <path d="M3939.79,3546.78C3941.66,3550.9 3939.84,3555.76 3935.73,3557.63C3931.61,3559.5 3926.75,3557.68 3924.88,3553.57C3919,3551.68 3917.81,3553.67 3913.03,3549.76C3912.1,3548.99 3911.86,3547.66 3911.28,3546.61C3903.47,3532.61 3895.29,3518.93 3888.04,3504.53C3806.98,3343.58 3743.05,3168.89 3710.73,2991.98C3686.28,2858.13 3683.45,2721.64 3712.48,2584.46C3723.31,2534.68 3736.73,2485.67 3751.57,2437.08C3785.45,2326.11 3826.33,2217.24 3855.52,2104.89C3893.58,1967.28 3908.33,1824.62 3938.09,1685.18C3940.11,1675.71 3940.93,1665.82 3945.04,1657.05C3948.42,1649.83 3952.95,1646.14 3957.68,1639.73C3959.11,1631.83 3966.68,1626.57 3974.58,1627.99C3982.49,1629.41 3987.75,1636.98 3986.32,1644.89C3988.5,1652.47 3991.56,1657.41 3992.3,1665.27C3993.9,1682.4 3989.52,1699.45 3987.54,1716.56C3982.94,1756.42 3976.68,1796.08 3971.16,1835.85C3957.85,1931.78 3943.12,2027.49 3919.99,2121.57C3890.79,2234.92 3850.28,2344.93 3815.97,2456.79C3801.6,2503.65 3788.24,2550.81 3777.56,2598.78C3748.2,2727.3 3750.13,2855.5 3770.13,2981.85C3797.56,3155.14 3864.6,3322.87 3927.73,3486.95C3933.48,3501.9 3938.19,3517 3943.53,3532C3943.93,3533.13 3944.77,3534.18 3944.73,3535.38C3944.53,3541.55 3942.23,3541.12 3939.79,3546.78Z" style="fill:#fff;"/>
            <path d="M3971.06,1573.69C3969.45,1577.91 3964.71,1580.03 3960.49,1578.42C3956.27,1576.82 3954.14,1572.08 3955.75,1567.86C3953.44,1559.45 3949.88,1556.22 3950.17,1547.45C3950.46,1538.95 3955.7,1531.34 3958.59,1523.25C3999.81,1407.68 4045.55,1285.16 4074.12,1161.11C4095.09,1070.02 4107.33,978.275 4101.13,888.085C4100.76,860.69 4095.69,840.956 4083.07,829.305C4068.44,815.793 4046.87,813.979 4023.72,816.975C3952.7,826.164 3864.87,885.278 3832.81,938.253C3786.04,1015.53 3759.17,1102.12 3741.27,1191.96C3713.83,1329.61 3707.26,1474.83 3685.53,1607.59C3677.26,1658 3666.25,1707.45 3653.28,1756.41C3644.27,1790.39 3635.45,1824.46 3624.22,1857.88C3619.42,1872.18 3613.61,1885.96 3608.29,1900.11C3605.19,1911.15 3593.72,1917.59 3582.68,1914.5C3571.64,1911.4 3565.2,1899.92 3568.3,1888.88C3570.92,1875 3573,1861.18 3576.17,1847.45C3588.68,1793.18 3604.92,1740.11 3617.02,1685.86C3623.41,1657.2 3629.35,1628.39 3634.11,1599.19C3655.82,1465.84 3662.45,1320.02 3689.83,1181.74C3708.83,1085.81 3737.74,993.479 3787.52,910.9C3826.01,847.054 3931.35,775.274 4016.82,764.057C4056.79,758.812 4092.13,767.022 4118.46,789.154C4140.89,808.01 4157.44,837.969 4162.34,884.459C4167.11,980.52 4153.31,1078.09 4128.45,1174.38C4096.08,1299.77 4046.32,1423.28 3998.72,1538.68C3995.46,1546.6 3994.26,1555.74 3988.81,1562.24C3983.18,1568.95 3978.36,1568.96 3971.06,1573.69Z" style="fill:#fff;"/>
            <path d="M3559.96,2018.58C3561.42,2014.3 3566.09,2012.02 3570.36,2013.49C3574.64,2014.95 3576.92,2019.62 3575.45,2023.89C3574.57,2038.32 3575.7,2055.03 3572.71,2076.28C3572.13,2080.38 3570.98,2084.46 3569.81,2088.68C3551.18,2155.8 3518.41,2247.45 3484.03,2329.26C3446.78,2417.93 3402.78,2493.54 3362.93,2518.17C3346.94,2528.06 3324.97,2528.47 3301.63,2520C3267.08,2507.48 3228.27,2475.73 3214.8,2461.58C3179.5,2424.49 3156.52,2380.07 3141.71,2332.25C3120.68,2264.34 3116.36,2189.43 3115.49,2120.32C3114.61,2059.83 3118.73,1999.54 3124.91,1939.33C3139.02,1801.87 3165.32,1664.86 3176.35,1527.71C3180.61,1474.97 3181.97,1421.92 3182.48,1368.74C3183.67,1243.37 3178.05,1117.19 3176.8,992.561C3176.59,913.776 3179.63,832.767 3175.37,752.847C3172.61,701.066 3167.27,649.708 3153.74,599.721C3149.61,586.004 3157.39,571.516 3171.11,567.387C3184.82,563.258 3199.31,571.042 3203.44,584.759C3221.04,637.822 3231.08,692.727 3236.12,748.48C3243.45,829.407 3240.43,911.822 3242.1,991.796C3243.71,1098.96 3249.78,1207.26 3249.77,1315.23C3249.77,1388.3 3246.72,1461.19 3239.46,1533.44C3225.54,1670.8 3195.41,1807.59 3179.32,1945.3C3172.55,2003.27 3168.51,2061.41 3168.94,2119.74C3169.53,2183.93 3172.72,2253.6 3192.1,2316.71C3204.41,2356.82 3223.34,2394.25 3252.89,2425.37C3260.72,2433.63 3279.52,2449.46 3299.73,2461.17C3307.88,2465.89 3316.23,2469.97 3324.16,2472.27C3328.54,2473.53 3332.51,2475.57 3335.59,2473.69C3362.52,2457.23 3388.98,2411.51 3415.65,2356.3C3457.07,2270.58 3494.14,2161.03 3522.07,2083.95C3524.7,2076.71 3526.75,2069.54 3530,2063.26C3540.12,2043.68 3551.62,2030.78 3559.96,2018.58Z" style="fill:#fff;"/>
            <path d="M2733.14,2382.06C2734.06,2379.63 2734.84,2377.11 2735.24,2374.6C2741.57,2334.73 2744.26,2270.35 2745.41,2205.48C2747.11,2110.15 2745.19,2013.75 2744.19,1990.03C2738.4,1834.89 2638.7,1127 2730.12,728.922C2769.69,556.658 2846.91,439.096 2974.67,435.058C2991.77,434.518 3010.14,434.846 3028.66,440.317C3043.81,444.795 3057.55,452.848 3073.37,461.083C3092.64,471.111 3113.14,481.613 3134.43,496.001C3138.46,498.057 3140.06,502.994 3138,507.019C3135.94,511.044 3131.01,512.643 3126.98,510.587C3104.17,502.258 3083.29,495.71 3063.01,492.483C3047.61,490.033 3033.74,491.726 3019.95,490.995C3004.76,490.191 2990.69,488.932 2977.24,489.772C2870.94,496.413 2813.61,596.961 2780.76,740.53C2690.66,1134.24 2800.39,1834.02 2807.51,1987.38C2808.96,2023.3 2812.5,2222.39 2802.18,2339.07C2798.54,2380.2 2792.36,2412.09 2785.18,2426.72C2780.19,2436.9 2773.77,2443.03 2768.03,2446.48C2760.45,2451.02 2748.13,2453.8 2733.3,2449.84C2717.05,2445.5 2692.89,2431.27 2686.03,2427.25C2620.1,2388.51 2575.17,2330.87 2543.63,2264.32C2499.48,2171.16 2481.92,2060.36 2465.62,1964.93C2462.86,1949.11 2473.46,1934.02 2489.28,1931.26C2505.11,1928.5 2520.2,1939.1 2522.96,1954.92C2539.06,2045.23 2555.69,2150.28 2598.14,2238.26C2624.82,2293.56 2661.94,2341.97 2717.14,2373.91C2719.3,2375.16 2726.26,2378.66 2733.14,2382.06Z" style="fill:#fff;"/>
            <path d="M2435.19,1680.05C2435.81,1684.68 2432.55,1688.95 2427.92,1689.57C2423.28,1690.19 2419.02,1686.93 2418.4,1682.3C2408.49,1676.01 2406.13,1679.69 2399.34,1670.12C2398.62,1669.12 2398.73,1667.75 2398.49,1666.55C2395.78,1652.62 2394.16,1638.52 2392.19,1624.48C2367.16,1445.34 2350.86,1265.23 2305.43,1091.74C2284.33,1011.13 2257.54,931.766 2219.91,854.762C2200.95,815.327 2182.24,784.003 2164.88,759.173C2124.53,701.487 2092.95,681.182 2062.35,701.073C1991.77,746.937 1956.25,924.089 1958.85,1087.29C1960.82,1203.99 1974.32,1322.96 1994.58,1441.71C2024.97,1619.88 2070.5,1797.54 2114.6,1966.56C2159.08,2134.91 2198.17,2256.16 2218.88,2388.8C2231.35,2468.72 2239.55,2552.83 2233.4,2653.36C2233.1,2658.21 2233.3,2663.2 2232.13,2667.99C2230.84,2673.24 2228.41,2677.24 2226.28,2682.31C2225.28,2697.34 2212.26,2708.74 2197.23,2707.74C2182.19,2706.74 2170.79,2693.73 2171.79,2678.69C2170.4,2673.55 2168.33,2669.47 2167.73,2664.26C2165.51,2644.95 2168.82,2626.08 2169.22,2607.87C2171.49,2502.14 2164.84,2414.89 2148.17,2328.02C2127.87,2222.18 2095.39,2117.07 2060.51,1980.55C2016.74,1809.89 1971.79,1630.45 1941.7,1450.65C1921.37,1329.14 1907.78,1207.46 1906.03,1088.12C1903.17,904.872 1954.68,710.599 2032.82,657.437C2060.15,638.844 2090.18,634.775 2123.53,646.279C2151.8,656.03 2184.6,677.832 2217.88,720.393C2238.53,746.811 2258.62,782.014 2280.08,825.425C2332.72,933.816 2366.59,1046.21 2389.18,1161.14C2419.18,1313.77 2430.62,1470.4 2446.96,1626.46C2448.21,1638.44 2454.27,1650.91 2450.63,1662.39C2447.07,1673.66 2442.94,1671.13 2435.19,1680.05Z" style="fill:#fff;"/>
            <path d="M2173.93,2685.18C2177.6,2687.81 2178.46,2692.93 2175.83,2696.61C2173.21,2700.28 2168.09,2701.14 2164.41,2698.51C2132.12,2683.58 2100.6,2670.12 2071.01,2649.85C2042.25,2630.15 2017.42,2605.1 1992.72,2580.37C1918.09,2505.63 1856.52,2418.11 1811.28,2323.45C1775.69,2247.33 1749.76,2167.16 1715.32,2090.53C1713.47,2086.41 1711.06,2082.5 1709.9,2078.13C1708.96,2074.63 1708.51,2071.61 1708.95,2068.01C1709.32,2064.99 1710.11,2065.13 1711.15,2062.27C1706.01,2052.46 1709.8,2040.33 1719.61,2035.19C1729.42,2030.05 1741.56,2033.84 1746.69,2043.65C1750.1,2044.64 1750.73,2043.97 1753.74,2045.85C1757.43,2048.16 1759.61,2051.69 1762.1,2055.25C1769.84,2066.31 1774.72,2079.08 1780.42,2091.29C1811.91,2158.65 1834.66,2229.89 1866.98,2296.91C1895.22,2356.02 1931.12,2411.39 1971.73,2463.24C2008.37,2510.03 2050.49,2552.25 2092.63,2594.11C2101.2,2602.62 2109.41,2611.22 2117.45,2620.2C2137.03,2642.08 2153.95,2663.97 2173.93,2685.18Z" style="fill:#fff;"/>
            <path d="M1609.52,1841.44C1612.22,1845.07 1611.46,1850.2 1607.83,1852.89C1604.2,1855.59 1599.06,1854.83 1596.37,1851.2C1586.26,1851.79 1588.92,1856.39 1579.09,1851.7C1572.71,1848.66 1570.37,1839.94 1565.82,1833.34C1523.99,1772.59 1469.15,1674.09 1412.51,1599.88C1383.44,1561.81 1354.71,1529.92 1326.46,1515.88L1300.05,1532.53C1241.79,1576.58 1231.28,1664.47 1239.29,1759.44C1251.33,1902.14 1309.74,2061.85 1352.08,2137.62C1411.67,2244.45 1464.23,2356.67 1521.83,2465.36C1546.23,2511.4 1571.36,2556.91 1598.77,2600.89C1673.24,2720.52 1764.22,2830.29 1832.4,2952.6C1862.39,3006.38 1888.27,3062.46 1906.29,3123.01C1924.08,3182.11 1935.8,3241.36 1943.9,3300.52C1976.77,3540.51 1946.3,3779.28 2014.72,4000.74C2061.32,4154.47 2179.47,4279.75 2247.37,4424.23C2265.64,4463.09 2280.37,4503.29 2289.78,4545.5C2293.41,4561.5 2283.36,4577.44 2267.36,4581.07C2251.36,4584.7 2235.42,4574.65 2231.79,4558.65C2223.06,4520.78 2209.33,4484.85 2192.81,4449.98C2123.22,4303.12 2004.69,4174.63 1957.38,4018.09C1890.59,3792.72 1923.65,3550.99 1892.59,3307.3C1885.38,3250.69 1874.5,3193.99 1857.9,3137.39C1835.19,3061.22 1799.62,2992.33 1758.09,2926.78C1694,2825.63 1616.26,2732.21 1551.18,2630.97C1522.45,2586.18 1495.71,2539.97 1470.37,2492.84C1412.27,2384.8 1360.72,2272.45 1301.4,2165.85C1256.65,2085.3 1194.7,1915.67 1182.47,1764.12C1173.05,1647.39 1194.7,1541.79 1266.55,1488C1278.73,1478.89 1297.28,1466.01 1314.99,1462.24C1327.57,1459.57 1339.97,1460.6 1351.38,1466.37C1393.93,1488.16 1439.78,1541.88 1481.88,1605.15C1529.13,1676.16 1572.79,1758.62 1606.87,1811.59C1609.79,1816.12 1614.72,1819.63 1615.38,1824.5C1616.79,1834.93 1612.41,1832.16 1609.52,1841.44Z" style="fill:#fff;"/>
            <path d="M2269.51,4546.45C2270.28,4547.47 2270.82,4548.69 2271.04,4550.05C2276.15,4559.84 2281.99,4567.52 2285.52,4578.03C2286.31,4580.4 2286.38,4582.94 2286.79,4585.41C2305.16,4695.08 2319.77,4807.58 2327.5,4920.37C2333.62,5009.69 2335.14,5099.22 2330.31,5187.79L2330.36,5200.99C2329.7,5216.69 2329.87,5232.45 2328.36,5248.1C2327.33,5258.66 2325.19,5268.86 2323.61,5279.34C2323.24,5281.9 2322.19,5288.15 2321.56,5291.86C2321.37,5293.52 2321.18,5295.18 2320.98,5296.84C2318.62,5328.07 2281.35,5309.81 2279.97,5308.16C2279.54,5307.66 2277.83,5304.88 2276.64,5299.77C2276.08,5298.62 2275.79,5297.09 2275.83,5295.1C2275.79,5294.76 2275.75,5294.42 2275.72,5294.07C2275.44,5291.33 2274.96,5281.7 2274.64,5277.77C2273.73,5267.16 2272.29,5256.81 2271.99,5246.18C2271.54,5230.46 2272.81,5214.75 2273.22,5199.03L2272.12,5044.14C2268.34,4958.69 2263.93,4874.24 2254.88,4790.42C2246.8,4715.62 2233.97,4641.57 2216.48,4567.25C2215.33,4562.37 2212.49,4557.55 2213.16,4552.57C2214.02,4546.23 2216.88,4545.99 2219.89,4540.34C2217.26,4530.69 2222.96,4520.73 2232.6,4518.1C2242.25,4515.47 2252.21,4521.16 2254.84,4530.81C2260.41,4534.21 2262.9,4533.22 2266.89,4538.37C2268.63,4540.61 2268.95,4543.6 2269.51,4546.45Z" style="fill:#fff;"/>
            <path d="M3170.55,3500.63C3172.58,3496.59 3177.5,3494.95 3181.54,3496.97C3185.58,3498.99 3187.22,3503.92 3185.2,3507.96C3185.14,3521.69 3187.63,3531.34 3185.37,3544.91C3184.15,3552.23 3180.91,3558.93 3178.12,3565.82C3128.81,3687.78 3077.72,3810.71 3029.61,3933.77C3017.45,3964.88 3003.89,3995.21 2991.23,4025.88C2986.68,4038.57 2972.69,4045.19 2959.99,4040.64C2947.29,4036.1 2940.68,4022.1 2945.22,4009.4C2956.79,3972.33 2967.73,3934.95 2980.49,3897.97C3010.17,3811.97 3044.01,3726.84 3080.91,3643.66C3096.86,3607.73 3111.49,3571.06 3131.66,3537.58C3135.23,3531.64 3138.71,3525.87 3143.55,3520.93C3152.39,3511.89 3160.4,3508.13 3170.55,3500.63Z" style="fill:#fff;"/>
            <path d="M2703.01,3539.11C2698.59,3540.06 2694.23,3537.25 2693.27,3532.83C2692.32,3528.41 2695.13,3524.05 2699.55,3523.1C2707.87,3508.77 2703.26,3504.17 2716.55,3494.27C2720.59,3491.26 2726.31,3491.79 2731.22,3490.66C2838.47,3466.14 2947.68,3448.43 3048.99,3404.27C3067.36,3396.45 3088.62,3405 3096.45,3423.36C3104.27,3441.73 3095.72,3462.99 3077.36,3470.82C2982.55,3510.59 2882.16,3531.46 2781.41,3549.79C2764.28,3552.91 2746.92,3562.53 2729.96,3558.63C2713.89,3554.93 2716.41,3548.68 2703.01,3539.11Z" style="fill:#fff;"/>
        </g>
    </g>
</svg>
