<?xml version="1.0" encoding="UTF-8" standalone="no"?>
<!DOCTYPE svg PUBLIC "-//W3C//DTD SVG 1.1//EN" "http://www.w3.org/Graphics/SVG/1.1/DTD/svg11.dtd">
<svg width="100%" height="100%" viewBox="0 0 4430 591" version="1.1" xmlns="http://www.w3.org/2000/svg" xmlns:xlink="http://www.w3.org/1999/xlink" xml:space="preserve" xmlns:serif="http://www.serif.com/" style="fill-rule:evenodd;clip-rule:evenodd;stroke-linejoin:round;stroke-miterlimit:2;">
    <g id="Layer1">
        <path d="M419.209,166.488C418.509,165.195 416.828,164.926 414.677,165.15C415.098,165.455 415.533,165.791 415.962,166.125C415.102,165.933 414.256,165.666 413.435,165.322C408.644,166.129 402.229,168.634 398.734,168.094L369.511,157.063C353.788,152.147 336.821,149.899 319.577,148.783C292.322,147.019 264.344,148.237 238.78,150.735C233.54,150.757 207.215,153.299 196.671,152.804C195.224,152.736 195.417,149.619 195.164,150.538C194.052,154.588 193.241,151.65 193.507,148.249C192.109,149.761 190.12,150.721 187.901,150.756C183.597,150.822 180.049,147.382 179.982,143.079C175.59,139.8 178.659,140.146 185.432,128.529C186.63,126.474 189.358,125.537 192.436,123.896C204.756,117.328 228.674,113.41 233.753,112.194C256.756,108.332 281.638,104.793 306.538,104.3C332.737,103.781 358.809,106.789 382.667,113.837L407.248,123.397C413.123,124.968 424.428,122.31 427.441,124.648C430.713,127.188 433.921,125.827 434.689,128.953C436.389,135.878 445.459,135.978 442.332,142.122C440.225,146.261 447.716,159.889 429.942,162.068C426.981,165.029 423.093,166.502 419.209,166.488ZM419.209,166.488C419.318,166.691 419.404,166.919 419.464,167.174C419.962,169.305 418.031,167.734 415.962,166.125C417.03,166.363 418.119,166.484 419.209,166.488ZM408.275,161.746C407.119,160.52 406.207,159.147 405.539,157.689C405.735,159.745 406.182,161.365 408.275,161.746ZM404.18,150.804C404.322,147.137 405.791,143.512 408.588,140.715C408.732,139.682 407.601,138.892 407.139,138.475C406.24,138.901 404.271,139.672 404.518,140.402C405.188,142.387 402.167,143.069 403.061,144.446C404.252,146.279 401.457,147.859 402.855,149.137C403.414,149.648 403.845,150.21 404.18,150.804Z" style="fill:#fff;"/>
        <path d="M265.741,406.906C267.905,403.704 268.867,399.359 269.786,395.02C272.265,383.309 273.193,371.054 274.646,361.903L297.049,203.542L301.533,158.86C302.869,151.046 300.067,142.596 302.161,139.36C304.812,135.262 303.968,131.129 308.491,131.788C312.23,129.655 316.997,130.959 319.13,134.697C320.755,137.546 320.385,140.992 318.463,143.415C320.355,142.603 322.429,142.354 321.019,140.396C320.601,139.815 324.108,139.384 323.296,140.101C319.818,143.171 328.929,149.107 331.082,154.551C332.633,159.857 333.761,165.237 334.413,170.892C335.793,182.856 334.692,195.247 334.238,206.848L329.407,367.987C328.445,382.92 328.643,404.593 323.832,422.435C320.511,434.756 314.335,445.224 306.411,453.566C301.542,458.658 295.587,462.21 289.133,465.009C278.149,469.773 263.324,468.676 252.614,472.441C207.767,487.368 170.911,488.496 140.538,476.467C109.141,464.034 83.139,437.688 63.372,393.288C55.659,373.694 45.062,353.22 47.939,332.9C49.472,322.063 52.181,311.892 60.039,302.293C64.922,291.549 77.61,286.791 88.354,291.674C99.098,296.558 103.856,309.246 98.973,319.99C98.469,323.799 101.482,326.402 101.872,329.799C102.466,334.973 104.215,339.734 106.23,344.617C109.522,352.597 114.11,360.201 118.224,367.821C130.724,393.668 144.738,410.291 163.402,417.334C182.296,424.464 204.825,421.469 232.539,412.217C242.38,409.115 269.764,417.355 266.028,407.135C265.959,406.946 265.861,406.882 265.741,406.906ZM265.741,406.906C265.173,407.747 264.521,408.51 263.765,409.172C264.391,408.62 265.247,407.005 265.741,406.906Z" style="fill:#fff;"/>
        <path d="M526.271,134.135C526.918,133.406 527.631,132.717 528.407,132.078C545.097,115.343 568.188,104.968 593.745,101.419C608.821,99.326 624.688,100.74 640.193,103.418C681.901,110.621 720.875,132.673 741.548,163.23C755.232,183.557 763.268,205.931 767.165,229.137C772.661,261.874 769.51,296.375 762.254,328.759C752.645,371.034 735.339,407.375 709.105,433.14C681.642,460.113 644.438,476.268 594.728,475.286C561.591,474.477 521.78,463.991 491.373,442.908C468.78,427.243 451.194,406.116 443.292,380.169C439.309,367.112 437.45,353.51 437.402,339.731C437.34,321.686 440.036,303.407 442.649,286.187C446.641,260.08 454.167,234.813 465.724,211.478C477.249,188.208 492.322,166.742 511.075,148.132C515.676,143.541 520.772,138.779 526.271,134.135ZM558.596,158.055C551.887,163.842 545.834,170.031 540.676,175.906C526.42,192.229 515.474,210.731 507.289,230.396C499.141,249.974 494.172,270.839 492.195,292.256C490.808,307.11 489.385,322.859 490.172,338.296C490.61,346.898 491.881,355.377 494.674,363.44C500.848,381.344 516.416,393.533 533.723,402.393C553.476,412.505 576.293,417.85 595.917,418.214C627.67,418.91 651.738,409.556 669.394,392.441C688.672,373.754 700.615,346.897 707.968,316.108C713.135,294.751 716.311,272.219 714.924,250.198C713.649,229.961 708.659,210.117 697.246,192.451C684.194,172.149 658.085,158.828 630.954,153.3C617.166,150.49 603.093,149.962 589.76,151.261C578.666,152.341 567.923,153.745 558.596,158.055Z" style="fill:#fff;"/>
        <path d="M1017.26,219.769C1016.36,218.683 1015.95,216.832 1016.24,213.992C1017.25,203.942 1025.72,180.196 1026.03,177.782C1026.5,174.982 1025.4,164.256 1026.98,154.649C1028.38,146.144 1030.45,139.503 1032.78,136.12C1036.4,130.841 1035.73,129.135 1037.22,128.947C1044.52,128.026 1047.84,120.092 1048.96,127.848C1049.11,128.893 1050.53,128.544 1050.82,130.413C1050.93,131.124 1051.72,132.162 1052.24,133.952C1052.51,134.888 1052.61,135.835 1052.54,136.753C1053.57,136.405 1054.9,136.228 1053.96,136.792C1050.82,138.667 1058.96,145.15 1061.14,152.503C1064.55,163.962 1064.68,177.218 1064.72,180.703C1064.66,183.554 1062.74,213.212 1058.28,224.175C1043.29,261.048 1008.65,236.205 1016.15,222.344C1016.49,221.706 1016.68,220.918 1017.26,219.769ZM1052.6,214.604C1052.97,216.403 1053.04,218.295 1052.77,220.216C1053.96,222.76 1054.99,223.923 1055.66,223.533C1059.25,221.429 1055.81,217.543 1054.83,216.735C1054.05,216.086 1053.3,215.364 1052.6,214.604Z" style="fill:#fff;"/>
        <path d="M1031.27,178.53C1031.3,178.921 1031.26,179.34 1031.1,179.792C1030.57,181.373 1030.92,180.146 1031.27,178.53ZM1052.86,318.838C1052.84,318.76 1052.83,318.683 1052.81,318.606C1052.83,318.676 1052.84,318.754 1052.86,318.838ZM1053,319.799C1052.94,319.48 1052.9,319.126 1052.86,318.838C1052.91,319.154 1052.96,319.474 1053,319.799ZM1050.14,168.024C1050.09,167.205 1049.34,166.177 1048.23,166.093C1044.94,165.846 1042.78,166.855 1041.36,168.523C1041.44,168.543 1041.52,168.565 1041.59,168.588C1041.45,168.655 1041.31,168.712 1041.17,168.761C1036.18,175.194 1041.33,190.369 1037.11,183.527C1033.99,182.59 1031.89,179.867 1031.59,176.811C1031.51,177.363 1031.38,177.97 1031.27,178.53C1030.97,175.562 1025.72,174.187 1023.8,172.235L1012.36,160.13C1006.75,154.709 999.536,151.44 992.218,148.479C984.355,145.298 975.991,143.284 967.852,142.298C945.602,139.644 922.899,146.447 904.249,158.837C886.496,170.63 872.928,188.381 867.96,209.474L875.002,225.785C881.165,239.912 890.256,246.314 901.149,249.047C917.203,253.075 935.851,251.205 955.3,250.214L1027.77,256.128C1045.02,258.102 1070.84,261.368 1086.97,273.279C1098.11,281.508 1106.44,292.605 1109.02,308.198C1113.06,330.16 1100.42,368.561 1080.26,403.589C1060.99,437.068 1035.63,467.01 1018.15,477.052C997.595,488.874 955.705,491.687 916.753,480C898.095,474.402 879.992,466.436 866.742,456.082C852.418,444.89 842.414,433.585 838.401,422.049C832.131,412.018 835.185,398.783 845.217,392.514C855.249,386.244 868.483,389.298 874.753,399.33C878.518,403 885.506,402.098 892.575,404.998C908.045,411.343 927.812,417.151 947.042,420.662C963.986,423.756 980.004,428.019 989.089,423.401C1001.13,417.264 1017.78,396.719 1031.23,374.59C1043.5,354.404 1054.6,333.122 1053,319.799C1053.09,320.397 1053.22,320.869 1053.44,320.536C1059.25,312.007 1031.02,316.268 1022.11,315.59L957.76,311.731C924.696,312.621 893.342,312.976 868.613,300.657C849.415,291.094 832.772,275.325 822.16,247.313C818.78,238.225 815.071,230.414 813.648,222.004C812.254,213.763 811.999,205.095 814.985,195.211C825.171,161.655 848.272,133.831 878.191,116.671C907.143,100.066 941.705,92.712 974.528,98.908C988.916,101.595 1003.93,106.125 1016.7,114.181C1025.74,119.882 1033.83,126.82 1040.19,135.273C1044.02,141.247 1048.09,147.34 1049.29,154.489C1050.07,159.185 1050.7,163.434 1050.14,168.024ZM1031.61,175.081C1031.66,174.659 1031.75,174.236 1031.88,173.815C1032.12,173.006 1032.49,172.266 1032.94,171.608C1031.34,172.415 1030.18,173.047 1031.58,175.021C1031.59,175.039 1031.6,175.059 1031.61,175.081ZM1036.46,168.813C1036.89,168.644 1037.33,168.511 1037.78,168.418C1037.22,168.162 1036.85,168.023 1036.61,168.543C1036.56,168.636 1036.51,168.726 1036.46,168.813ZM1050.14,168.024C1050.14,168.188 1050.13,168.343 1050.08,168.481C1050.1,168.328 1050.12,168.176 1050.14,168.024Z" style="fill:#fff;"/>
        <path d="M843.038,363.88C843.017,364.231 842.983,364.567 842.932,364.884C839.67,384.909 838.459,412.652 837.711,421.224L834.774,454.993C833.867,458.457 832.2,467.054 831.6,469.461C827.734,484.98 817.036,489.53 815.704,489.879C806.383,492.319 796.832,493.462 789.429,484.301C788.011,482.546 782.599,478.901 782.354,470.033C782.336,469.386 781.951,468.019 782.195,465.775C782.195,464.757 782.257,463.753 782.377,462.766C779.869,462.531 782.283,450.963 782.425,447.237L790.149,413.482C792.273,404.644 795.443,375.429 804.486,355.584C811.419,340.371 819.819,329.887 827.908,327.534C837.453,328.196 842.902,323.236 845.015,330.337C845.656,332.489 847.927,333.101 848.12,336.072C848.535,342.472 848.284,355.597 847.104,358.407C846.643,360.851 845.086,362.813 843.038,363.88Z" style="fill:#fff;"/>
        <path d="M1200.54,131.779C1209.51,130.134 1218.65,129.933 1227.81,129.299C1236.18,128.718 1244.52,128.743 1252.46,126.731C1257.13,125.761 1263.69,120.131 1269.14,121.456C1274.2,122.689 1276.39,121.494 1278.92,125.542C1285.51,127.19 1289.53,133.879 1287.88,140.47C1286.29,146.838 1279.99,150.8 1273.62,149.575C1274.84,150.545 1275.52,154.964 1274.57,153.591C1271.75,149.525 1265.02,158.562 1261.21,159.787C1248.13,163.177 1234.25,164.879 1220.41,163.575C1212.82,162.859 1205.38,161.746 1198.19,159.435C1192.91,157.734 1189.18,155.249 1184.21,153.174C1163.44,151.577 1168.52,142.183 1175.78,136.711C1178,135.038 1183.78,132.256 1188.77,128.595C1192.24,126.046 1197.12,126.792 1199.67,130.26C1200.03,130.742 1200.32,131.252 1200.54,131.779Z" style="fill:#fff;"/>
        <path d="M1328.29,154C1327.09,154.059 1325.96,154.085 1324.9,154.087C1324.91,153.997 1324.93,153.874 1324.94,153.731C1324.91,153.803 1324.9,153.889 1324.89,153.989C1324.89,154.026 1324.89,154.059 1324.89,154.087C1319.1,154.094 1315.49,153.369 1313.48,153.418C1310.86,153.483 1310.72,151.591 1309.06,151.52C1307.45,151.451 1308.02,149.517 1306.75,149.126C1300.77,147.297 1306.25,142.856 1305.36,136.792C1304.93,133.809 1309.69,128.929 1320.75,122.475C1325.62,119.631 1333.27,118.02 1342.14,115.816C1369.55,109.006 1410.8,100.977 1437.27,104.195C1453.24,106.137 1464.44,111.61 1469.54,116.515C1479.39,123.086 1482.06,136.424 1475.49,146.281C1468.92,156.138 1455.58,158.806 1445.72,152.234C1445.05,151.956 1444.87,154.262 1443.59,154.245C1440.03,154.197 1435.91,155.297 1431.09,155.208C1401.28,154.657 1354.68,153.722 1332.58,154.703C1331.14,154.767 1329.61,154.372 1328.29,154ZM1324.9,154.087C1324.88,154.275 1324.88,154.318 1324.89,154.087C1324.89,154.087 1324.9,154.087 1324.9,154.087Z" style="fill:#fff;"/>
        <path d="M1275.32,449.978C1275.5,450.017 1275.71,450.017 1275.94,449.966C1276.63,449.813 1276.02,453.277 1275.93,452.277C1275.86,451.433 1275.65,450.668 1275.32,449.978ZM1268.74,445.438C1271.93,446.317 1274.26,447.765 1275.32,449.978C1274.01,449.696 1273.81,447.355 1272.55,447.264C1270.85,447.142 1269.66,446.438 1268.74,445.438ZM1176.13,413.238C1175.16,413.836 1174.31,414.163 1174.09,413.389C1173.32,410.653 1174.41,411.375 1176.13,413.238ZM1175.02,418.72C1176.53,417.886 1178.3,417.568 1180.04,417.848C1178.71,416.267 1177.28,414.493 1176.13,413.238C1177.2,412.574 1178.42,411.574 1179.09,411.371L1205.81,406.157C1215.9,405.089 1263.08,389.76 1281.54,395.071C1300.02,400.388 1308.26,407.895 1308.34,415.146C1314.46,427.39 1309.49,442.3 1297.25,448.422C1286.31,453.888 1273.26,450.511 1266.23,441.009C1266.94,442.581 1267.64,444.226 1268.74,445.438C1252.49,440.962 1213.87,451.28 1206.58,450.761L1179.09,445.547C1173.42,443.628 1160.37,440.154 1159.85,436.994C1158.92,431.341 1152.53,429.241 1156.96,425.534C1158.15,424.54 1156.47,422.731 1158.12,421.961C1159.9,421.133 1158.51,417.809 1161.59,417.618C1166.03,417.077 1168.36,411.328 1173.31,414.97C1174.4,415.777 1176.74,415.926 1176.03,417.086C1175.63,417.72 1175.31,418.255 1175.02,418.72Z" style="fill:#fff;"/>
        <path d="M1357.47,443.845C1357.33,443.728 1357.18,443.595 1357.01,443.446C1357.28,443.484 1357.41,443.63 1357.47,443.845ZM1458.92,451.299C1459.1,451.241 1459.24,451.285 1459.33,451.485C1459.9,452.774 1459.61,452.28 1458.92,451.299ZM1446.46,439.108C1446.82,441.685 1446.55,444.476 1450.04,444.178C1451.23,444.078 1450.78,446.155 1452.06,445.883C1453.57,445.561 1453.33,448.632 1455.05,447.902C1456.15,447.436 1457.94,449.879 1458.92,451.299C1458.24,451.52 1456.98,453.218 1455.61,453.402C1444.57,454.881 1428,454.471 1424.87,454.539C1416.06,454.507 1391.51,452.61 1372.69,450.146C1366.7,449.361 1362.01,448.07 1358.43,447.201C1356.7,446.782 1357.73,444.731 1357.47,443.845C1359.6,445.592 1358.58,443.739 1358.12,442C1357.38,443.027 1356.57,443.734 1355.81,443.889C1352.03,445.85 1347.38,444.413 1345.36,440.686C1345.36,440.695 1345.35,440.703 1345.35,440.712C1344.6,442.457 1342.95,439.188 1341.76,439.164C1338.86,439.106 1342.66,437.474 1340.43,437.662C1328.92,438.637 1345.98,434.502 1339.68,430.606C1334.18,427.206 1345.41,431.518 1341.89,426.255C1339.76,423.075 1345.46,428.074 1344.13,424.134C1344.09,420.861 1344.89,422.413 1347.31,418.825C1350.45,414.17 1360.24,412.758 1370.99,410.408C1388.52,406.577 1412.02,406.632 1420.2,405.044C1423.49,404.492 1440.61,398.974 1452.5,399.195C1457.61,399.29 1462.13,399.262 1464.63,401.077C1468.57,403.948 1470.54,402.026 1471.79,404.84C1474.57,411.078 1481.21,407.496 1481.04,411.898C1480.94,414.408 1484.51,413.849 1483.92,416.071C1482.13,422.807 1492.11,425.623 1486.46,430.094C1485.02,431.235 1487.27,433.093 1485.5,434.037C1481.9,435.952 1485.82,443.149 1478.98,443.143C1470.87,451.248 1457.71,451.248 1449.61,443.143C1448.37,441.904 1447.32,440.547 1446.46,439.108ZM1359.38,439.807C1359.61,439.842 1359.86,439.904 1360.16,439.997C1362.69,440.8 1360.57,439.21 1360.07,438.082C1359.87,438.676 1359.63,439.257 1359.38,439.807ZM1360.34,437.212C1360.56,437.125 1360.89,437.081 1361.37,437.095C1364.16,437.172 1362.06,436.483 1360.73,435.498C1360.63,436.065 1360.5,436.641 1360.34,437.212ZM1360.89,433.203C1361.09,433.109 1361.31,433.015 1361.56,432.921C1363.02,432.386 1361.67,432.323 1360.76,432.034C1360.83,432.401 1360.88,432.793 1360.89,433.203ZM1360.4,430.976C1360.51,430.879 1360.65,430.775 1360.83,430.662C1361.82,430.02 1360.83,430.262 1359.97,430.302C1360.14,430.503 1360.28,430.728 1360.4,430.976ZM1359.09,429.612C1359.17,429.474 1359.28,429.31 1359.45,429.115C1360.2,428.252 1355.93,429.217 1357.68,429.28C1358.23,429.299 1358.7,429.416 1359.09,429.612ZM1444.85,435.77C1444.1,433.754 1443.66,431.644 1443.56,429.521C1442.42,432.064 1441.17,434.1 1444.23,435.424C1444.46,435.524 1444.67,435.64 1444.85,435.77ZM1444.17,423.307C1444.51,421.988 1444.98,420.695 1445.58,419.45C1444.41,420.455 1442.89,421.046 1443.74,422.463C1443.91,422.747 1444.06,423.028 1444.17,423.307ZM1446.73,417.376C1447.16,416.682 1447.65,416.009 1448.17,415.361C1447.33,415.62 1446.45,415.726 1446.65,416.597C1446.71,416.878 1446.73,417.137 1446.73,417.376Z" style="fill:#fff;"/>
        <path d="M1241.3,398.72C1241.61,398.989 1241.76,399.393 1241.62,400.022L1241.3,398.72ZM1207.06,150.933C1207.22,150.628 1207.43,150.253 1207.65,149.867C1208.7,152.948 1214.95,157.978 1216.14,160.041L1225.51,206.848L1230.19,353.438L1241.3,398.72C1240.34,397.891 1237.86,398.347 1237.86,397.423C1237.83,392.385 1231.71,394.109 1230.68,391.418C1230.23,390.258 1229.42,389.87 1228.5,389.718C1232.23,392.601 1234.95,396.82 1235.86,401.822C1238.3,403.951 1239.78,412.375 1242.71,417.812C1245,422.072 1239.93,424.032 1240.39,426.997C1241,430.859 1236.06,430.796 1235.62,433.825C1235.17,436.91 1231.18,435.663 1230.09,438.231C1227.41,444.538 1220.43,438.351 1214.71,442.164C1212.75,443.475 1211.25,440.358 1208.84,441.303C1205.88,442.464 1204.96,437.68 1200.93,437.953C1197.68,438.174 1198.35,432.699 1192.88,431.055C1190.49,430.336 1191.42,426.704 1186.76,424.022C1183.15,415.276 1180.19,405.897 1178.41,396.167C1176.01,383.041 1175.21,369.489 1175.08,356.882C1175.06,346.165 1175.42,335.542 1176.42,324.906C1180.05,285.988 1189.53,247.865 1190.43,208.499L1190.03,164.682C1190.48,162.076 1190.68,155.027 1191.3,151.891C1193.99,138.377 1202.97,138.924 1204.47,142.556C1207.04,144.609 1207.97,147.964 1207.06,150.933ZM1201.46,392.423C1201.14,392.454 1200.82,392.468 1200.49,392.461C1196.08,392.372 1197.99,399.264 1192.49,401.935C1190.59,402.859 1192.99,405.885 1190.71,407.811C1189.88,408.511 1190.04,409.935 1191.17,410.935C1193.14,412.679 1196.41,409.891 1196.95,408.896C1195.84,402.775 1197.68,396.795 1201.46,392.423ZM1206.8,151.651C1206.53,152.306 1206.16,152.935 1205.7,153.517C1204.71,154.749 1203.43,155.604 1202.03,156.06C1205.77,156.582 1207.33,155.973 1206.8,151.651ZM1207.65,149.867C1207.38,149.077 1207.45,148.416 1208.03,147.965C1209.21,147.052 1208.4,148.524 1207.65,149.867Z" style="fill:#fff;"/>
        <path d="M1334.03,411.203C1334.16,411.26 1334.32,411.316 1334.51,411.368C1338.15,412.381 1340.83,409.943 1342.81,405.539C1342.65,405.657 1342.51,405.804 1342.38,405.987C1341.7,406.916 1337.39,408.21 1335.02,409.368C1337.08,406.017 1340.26,403.356 1344.14,401.97C1349.39,385.122 1348.06,351.954 1348.25,350.786C1352.35,328.589 1355.4,306.328 1357.89,283.954C1360.4,261.379 1362.46,238.84 1363.65,216.114L1368.27,166.804C1370.04,161.127 1371,157.16 1371.83,154.36C1375.02,143.505 1381.34,142.06 1382.33,142.719C1386.54,143.415 1389.41,147.376 1388.77,151.586C1389.44,153.28 1391.48,153.811 1393.1,157.204C1394.29,159.697 1394.35,163.026 1395.06,166.804L1399.68,216.114C1400.91,239.705 1401.54,263.2 1401.08,286.773C1400.62,310.485 1398.91,334.108 1396.42,357.757C1396.17,359.696 1390.74,412.254 1382.02,430.151C1378.97,436.424 1376.34,441.442 1373.1,442.944C1369.26,444.726 1368.47,448.282 1365.27,447.933C1357.32,447.068 1352.16,454.428 1347.38,449.042C1345.36,446.771 1341.55,448.497 1340.16,445.288C1338.35,441.108 1327.37,437.071 1332.71,422.168C1331.94,418.319 1332.49,414.51 1334.03,411.203ZM1334.03,411.203C1332.86,410.712 1333.59,410.064 1335.02,409.368C1334.65,409.96 1334.32,410.572 1334.03,411.203ZM1362.13,405.609C1364.81,408.066 1366.77,411.367 1367.53,415.204C1368.27,416.03 1369.53,415.644 1370.39,415.301C1369.89,414.057 1369.85,410.07 1368.49,409.812C1365.38,409.223 1365.33,405.138 1362.79,405.533C1362.57,405.567 1362.35,405.593 1362.13,405.609Z" style="fill:#fff;"/>
        <path d="M1200,288.048C1199.41,286.689 1202.98,286.707 1203.38,286.584C1221.68,280.551 1241.19,274.986 1261.56,271.062C1282.64,267.001 1303.69,265.531 1323.64,265.799L1369.96,271.015C1371.08,271.459 1373.21,271.769 1374.74,272.968C1378.68,276.052 1373.79,282.404 1376.62,280.525C1380.08,278.227 1374.96,285.534 1373.39,284.028C1371.6,282.322 1372.51,286.707 1370.89,285.618C1369.26,284.516 1370.53,287.88 1368.97,287.165C1363.89,284.836 1367.25,289.697 1366.63,292.595C1366.87,292.115 1367.14,291.645 1367.44,291.187C1371.37,285.299 1379.33,283.706 1385.22,287.631C1390.23,284.775 1387.43,290.743 1390.37,290.234C1392.95,289.785 1390.1,292.734 1392.21,292.808C1393.95,292.869 1391.57,294.557 1393.11,294.838C1399.5,296.003 1389.36,299.091 1393.61,302.64C1398.12,306.413 1387.73,303.683 1389.99,309.939C1391.15,313.151 1385.99,308.99 1386.11,313.341C1386.16,315.163 1384.26,312.587 1383.8,314.74C1382.74,319.64 1380.8,319.712 1367.43,325.49C1363.75,327.078 1359.4,324.934 1356.94,324.692L1317.96,311.25C1304.32,307.986 1289.9,305.84 1274.92,304.555C1251.56,302.549 1228.2,301.903 1206.34,302.904L1196.44,302.196C1192.91,299.738 1192.04,294.874 1194.5,291.34C1195.82,289.43 1197.86,288.298 1200,288.048ZM1366.2,293.546C1365.84,294.006 1365.27,294.342 1364.36,294.479C1362.27,294.795 1365.85,296.557 1363.84,297.27C1360.61,298.416 1364.82,299.297 1365.65,301.292C1365.04,298.761 1365.2,296.052 1366.2,293.546ZM1365.78,301.785C1365.84,302.379 1365.59,303.063 1364.81,303.865C1362.82,305.914 1368.97,304.104 1367.27,307.601C1366.79,308.585 1367.98,307.833 1369.14,307.464C1367.51,305.869 1366.37,303.899 1365.78,301.785Z" style="fill:#fff;"/>
        <path d="M1987.57,325.973C1983.48,332.159 1976.46,336.243 1968.5,336.243C1965.34,338.612 1963.29,334.578 1961,335.362C1958.64,336.171 1958.08,332.987 1956.05,333.191C1948.56,333.946 1951.25,324.653 1946.06,321.305C1941.99,318.677 1947.48,314.187 1944.86,309C1943.81,306.922 1947.26,305.868 1946.66,302.999C1946.03,299.981 1952.21,299.614 1955,290.864C1955.93,287.952 1957.06,286.392 1960.22,282.577C1965.68,275.981 1977.88,272.202 1986.27,268.662C1997.55,264.168 2009.24,262.501 2021.11,262.186C2035.12,261.815 2049.27,264.682 2063.06,266.696C2083.62,270.47 2097.45,274.884 2108.94,272.172C2117.51,270.151 2122.05,261.949 2130.01,247.842C2133.72,241.252 2136.42,234.959 2137.45,228.303C2138.49,221.557 2138.28,214.584 2136.72,206.993C2132.07,183.974 2121.56,169.867 2106.21,162.116C2076.03,146.868 2034.71,149.202 1996.15,149.714C1991.03,149.391 1942.39,161.109 1924.97,157.57C1919.05,156.369 1919.06,153.676 1919.83,151.275C1919.75,151.298 1919.66,151.319 1919.58,151.34L1912.73,152.011C1909.9,151.626 1908.65,149.798 1907.49,149.456C1900.45,147.386 1908.5,145.731 1905.37,139.111C1903.83,135.874 1902.57,135.408 1913.68,123.157C1927.76,107.634 1988.16,98.556 1994.15,97.712C2041.96,94.668 2092.88,92.308 2131.25,109.415C2162.16,123.192 2186.17,148.421 2197.42,193.25C2201.24,208.597 2202.03,222.816 2200.49,236.664C2198.93,250.73 2194.48,264.396 2187.26,278.564C2167.76,316.8 2148.15,331.368 2125.66,337.567C2107.42,342.596 2084.77,340.197 2051.64,335.23L2004.93,329.71C1999.88,330.699 1993.67,333.599 1988.88,334.244C1986.32,334.589 1984.3,331.96 1984.3,331.96C1984.3,331.96 1984.29,329.905 1985.01,329.819C1987.33,329.545 1987.24,327.477 1987.57,325.973ZM1988.45,324.532C1988.46,324.526 1988.47,324.52 1988.49,324.514C1990.47,323.645 1990.35,321.991 1990.26,320.38C1989.79,321.832 1989.18,323.222 1988.45,324.532ZM1991.05,317.087C1991.77,316.355 1991.56,315.545 1991.3,314.722C1991.26,315.522 1991.17,316.311 1991.05,317.087ZM1991.31,312.15C1993.37,309.098 1991.84,307.133 1989.74,304.981C1990.63,307.219 1991.17,309.63 1991.31,312.15ZM1984.87,297.477C1984.86,297.404 1984.85,297.331 1984.84,297.257C1984.66,295.753 1983.45,295.431 1982.09,295.045C1983.08,295.78 1984.01,296.594 1984.87,297.477ZM1978.76,292.99C1978.69,292.889 1978.64,292.783 1978.58,292.67C1978.04,291.575 1977.06,291.575 1975.78,291.746C1976.81,292.091 1977.8,292.508 1978.76,292.99Z" style="fill:#fff;"/>
        <path d="M1965,144.89C1967.45,143.984 1969.16,145.882 1971.22,150.065C1977.42,162.643 1979.25,188.18 1979.88,193.572C1980.68,204.702 1981.09,215.711 1980.86,226.883C1980.04,267.966 1973.29,308.87 1976.03,349.765C1976.05,352.19 1981.36,364.806 1981.66,378.375C1982.07,396.187 1978.62,412.359 1974.56,420.693C1966.72,436.816 1960.42,443.012 1950.74,440.996C1948.1,440.447 1944.95,440.353 1941.65,438.626C1933,434.3 1929.26,424.033 1932.91,415.234C1933.07,415.342 1933.43,415.352 1934.04,415.237C1935.52,414.955 1935.73,413.993 1935.12,412.535C1934.46,413.098 1933.86,413.626 1933.45,414.068C1933.45,414.061 1933.45,414.054 1933.46,414.047C1933.85,413.26 1934.29,412.515 1934.78,411.812C1932.22,406.95 1922.95,397.826 1920.06,389.531C1914.02,372.221 1913.07,354.057 1912.99,350.782C1913.39,333.806 1914.71,316.91 1917.27,300.096C1922.77,264.056 1932.38,228.734 1935.8,192.456C1936.52,187.908 1935.46,168.106 1938.43,154.899C1939.58,149.739 1940.28,145.801 1942.42,143.342C1954.1,129.921 1954.19,128.647 1958.49,132.936C1959.66,134.106 1962.62,133.535 1963.73,136.425C1965.86,138.813 1966.26,142.155 1965,144.89ZM1932.91,415.234C1932.66,415.06 1932.91,414.636 1933.45,414.068C1933.25,414.453 1933.08,414.842 1932.91,415.234ZM1944.01,404.876C1944.9,404.579 1945.81,404.348 1946.73,404.188C1945.75,404.305 1944.85,404.529 1944.01,404.876ZM1955.66,149.085C1955.18,148.942 1954.72,148.754 1954.28,148.52C1954.73,148.924 1955.12,149.187 1955.61,149.095C1955.62,149.092 1955.64,149.088 1955.66,149.085Z" style="fill:#fff;"/>
        <path d="M1893.86,425.197C1893.55,423.819 1894.24,422.323 1897.35,420.019C1904.04,415.055 1918.28,410.882 1930.91,406.349C1942.79,402.081 1953.65,400.018 1957.66,399.433C1975.69,397.475 1993.35,399.717 2010.92,403.423C2024.07,406.196 2037.45,408.311 2049.98,412.627C2057.87,415.344 2063.54,420.761 2071.56,423.007C2082.91,423.007 2092.12,432.218 2092.12,443.563C2092.12,454.908 2082.91,464.119 2071.56,464.119C2057.78,467.327 2044.52,468.834 2030.46,466.571C2005.99,462.63 1984.16,446.936 1958.9,445.935C1951.48,444.869 1915.27,449.57 1901.29,445.766C1878.95,439.685 1882.2,425.558 1889.44,426.362C1890.82,425.509 1892.36,425.136 1893.86,425.197ZM1900.33,436.857C1899.7,437.95 1898.81,438.908 1897.66,439.617C1899.03,438.773 1899.84,437.803 1900.33,436.857Z" style="fill:#fff;"/>
        <path d="M2414.72,127.844C2434.2,131.913 2453.58,140.138 2472.92,151.82C2487.69,161.1 2504.4,171.863 2518.96,184.389C2529.99,193.884 2539.62,204.55 2546.86,216.171C2572.05,256.631 2572.79,306.079 2556.35,349.162C2539.67,392.877 2504.43,429.107 2460.2,444.154C2445.47,448.95 2431,451.581 2416.53,451.83C2396.4,452.176 2376.48,448.379 2355.97,443.449C2289.49,427.371 2258.6,397.115 2248.67,357.016C2240.23,322.926 2247.56,279.468 2266.67,228.248C2275.86,203.458 2289.75,169.073 2310.41,143.373C2326.33,123.564 2345.98,108.667 2369.39,104.472C2376.94,104.669 2383.38,105.133 2389.17,108.998C2396.81,114.106 2401.36,123.5 2409.01,125.251C2411.28,125.279 2413.32,126.276 2414.72,127.844ZM2338.8,166.068C2321.97,189.305 2311.06,219.494 2303.81,241.296C2290.03,283.077 2282.51,318.179 2290.99,345.14C2298.9,370.3 2323.27,383.753 2366.44,390.369C2380.28,392.481 2393.71,393.554 2407.07,393.567C2418.83,393.578 2430.58,392.602 2442.58,388.776C2471.67,380.148 2494.62,356.746 2506.78,328.893C2519.08,300.731 2521.35,267.885 2506.06,240.046C2501.66,232.019 2495.51,224.641 2488.49,217.898C2476.27,206.156 2461.96,195.998 2449.39,187.118C2429.39,172.451 2409.04,162.8 2387.7,160.312C2371.78,158.455 2355.49,160.161 2338.8,166.068Z" style="fill:#fff;"/>
        <path d="M2785.76,148.593C2780.19,147.424 2769.28,149.409 2767.08,149.351C2752.11,148.205 2736.9,148.351 2721.55,149.217C2691.85,150.894 2661.99,157.104 2632.48,158.094C2624.48,158.362 2616.96,157.495 2609.11,156.985C2608.83,156.887 2608.67,156.74 2608.59,156.566C2604.8,156.075 2600.44,155.32 2598.64,154.803C2596.47,154.179 2596.23,152.224 2595.05,151.416C2590.49,148.301 2594.34,144.686 2596.39,138.633C2596.91,137.067 2599.83,136.764 2606.06,132.627C2612.29,130.5 2617.96,127.838 2624.4,126.029C2649.16,119.066 2675.25,114.972 2700.99,110.622C2723.72,106.781 2746.44,104.467 2768.84,104.505C2772.62,104.507 2783.85,104 2793.86,106.71C2802.53,109.055 2810.33,112.894 2814.92,117.64C2823.6,126.613 2829.25,136.011 2824.11,147.52C2821.16,158.194 2810.1,164.466 2799.43,161.517C2792.77,159.678 2787.82,154.682 2785.76,148.593ZM2786.88,148.899C2787.62,150.836 2788.27,153.928 2788.84,152.356C2789.47,150.57 2788.6,149.501 2786.88,148.899Z" style="fill:#fff;"/>
        <path d="M2849.06,331.189C2848.55,330.942 2848.31,330.83 2848.9,330.99C2849.05,331.032 2849.09,331.099 2849.06,331.189ZM2647.33,411.625C2647.39,410.373 2648.13,408.612 2648.57,407.344C2648.53,406.513 2648.49,405.667 2648.47,404.806C2648.37,400.815 2647.4,394.839 2647.65,388.028C2648.26,371.596 2652.08,351.653 2652.54,348.224L2670.07,220.989L2679.91,156.545C2680.77,153.038 2681.7,131.107 2686.82,130.459C2686.83,129.82 2686.91,129.171 2687.08,128.525C2687.51,126.866 2687.98,125.926 2688.22,125.516C2690.89,120.817 2694.84,121.275 2696.7,121.669C2698.52,122.056 2700.82,123.051 2702.21,126.112C2702.44,126.605 2702.84,128.452 2702.91,131.393C2702.94,132.623 2703.02,134.432 2703.13,136.546C2709.84,142.437 2707.18,150.266 2704.09,152.056C2704.29,154.91 2704.47,157.217 2704.58,158.307L2702.85,224.266L2698.43,348.75C2738.53,324.027 2796.15,376.007 2738.1,395.586L2843.01,398.263C2843.19,391.295 2848.95,379.479 2849.04,365.146C2848.97,362.676 2846.65,343.29 2847.45,333.292C2847.52,332.338 2848.94,331.565 2849.06,331.189C2849.73,331.51 2850.85,332.062 2851.17,332.539C2848.83,328.508 2848.29,323.476 2850.15,318.814C2849.44,315.727 2852.52,315.144 2852.68,313.351C2853.16,308.211 2858.85,310.317 2861.03,307.687C2864.48,303.526 2867.98,309.629 2873.83,309.022C2876.08,308.79 2875.98,312.151 2878.9,312.93C2881.29,313.569 2881.45,316.442 2884.76,321.085C2890.22,328.739 2892.47,358.674 2893,361.949C2897.85,393.645 2896.63,413.338 2892.49,426.233C2889.12,436.743 2881.72,442.799 2872.8,449.665C2865.39,453.621 2851.43,456.871 2833.85,456.071C2802.56,454.648 2754.89,441.629 2734.64,442.117L2684.88,442.386C2683.97,442.349 2681.63,442.761 2678.94,443.176C2677.38,444.085 2675.74,444.729 2674.07,445.085C2665.38,451.615 2656.58,448.199 2651.69,438.325C2650.35,437.143 2649.7,436.138 2649.56,435.988C2645.26,431.636 2644.37,426.582 2644.3,421.904C2644.25,418.919 2644.91,415.26 2647.33,411.625ZM2851.22,332.618C2851.25,332.683 2851.27,332.747 2851.26,332.808C2851.15,334.215 2852.11,334.716 2853.08,335.153C2852.37,334.369 2851.75,333.519 2851.22,332.618ZM2855.08,337.011C2855.29,337.373 2855.62,337.558 2856,337.677C2855.68,337.465 2855.38,337.243 2855.08,337.011ZM2858.53,339.046C2860.1,341.561 2862.03,341.207 2864.37,340.315C2862.54,340.276 2860.69,339.913 2858.89,339.194C2858.77,339.146 2858.65,339.097 2858.53,339.046ZM2872.35,338.329C2872.51,338.342 2872.67,338.36 2872.83,338.383C2873.85,338.525 2874.24,337.834 2874.69,336.735C2873.95,337.337 2873.17,337.87 2872.35,338.329ZM2701.48,135.269C2701.68,134.381 2701.91,133.452 2702.17,132.481C2701.93,133.397 2701.53,134.233 2701.02,134.967C2701.18,135.067 2701.33,135.168 2701.48,135.269Z" style="fill:#fff;"/>
        <path d="M2620.93,414.108C2623.92,413.166 2627.21,412.17 2630.17,411.957C2649.43,410.57 2673.59,411.118 2677.61,411.206C2688.16,412.124 2695.98,421.436 2695.06,431.989C2694.14,442.542 2684.83,450.365 2674.28,449.448C2670.37,448.851 2646.43,448.238 2627.85,444.164C2618.58,442.132 2610.93,439.71 2606.55,437.066C2595.21,430.236 2593.86,424.064 2595.98,420.83C2597.03,419.231 2601.12,413.13 2614.36,412.313C2616.8,411.854 2619.19,412.589 2620.93,414.108Z" style="fill:#fff;"/>
        <path d="M2962.22,137.723C2962.66,136.731 2965.56,136.431 2969.35,134.528C2980.7,133.922 3073.94,123.039 3111.98,121.81C3129.23,121.253 3139.73,126.474 3140.6,127.292C3145.43,133.406 3148.84,138.682 3147.41,144.84C3145.64,152.476 3136.14,162.669 3132.95,164.858C3126.82,170.991 3116.86,170.991 3110.72,164.858C3109.2,163.333 3108.06,161.572 3107.29,159.691C3066.45,159.315 2980.21,157.767 2969.35,157.188C2963.13,154.413 2961.36,154.073 2960.34,153.699C2954.84,151.679 2953.44,150.635 2953.13,145.93C2952.84,141.636 2956.09,137.916 2960.39,137.63C2961.01,137.588 2961.63,137.622 2962.22,137.723ZM3109.87,143.557C3110.14,143.24 3110.43,142.931 3110.72,142.632C3111.24,141.866 3115.9,138.731 3113.78,137.638C3110.4,135.893 3109.32,139.266 3109.87,143.557ZM3119.96,159.08C3122.51,161.372 3125.22,163.126 3125.17,159.685C3125.15,158.458 3122.97,158.682 3119.96,159.08Z" style="fill:#fff;"/>
        <path d="M2977.22,429.337C2977.41,428.801 2977.7,428.215 2978.22,427.989C2985.32,424.933 2999.6,421.6 3004.43,420.358L3082.96,409.145C3087.82,408.698 3168.6,404.798 3215.59,403.853C3217.47,403.815 3219.41,403.898 3221.35,404.048C3221.08,396.878 3221.54,389.432 3221.57,383.393C3221.59,380.772 3227.92,357.803 3226.75,346.055C3226.09,345.791 3225.45,345.473 3224.82,345.097C3218.46,341.282 3216.4,333.022 3220.21,326.663C3220.93,318.998 3226.4,317.8 3228.77,315.557C3235.98,308.723 3248.81,312.927 3256.1,330.899C3261.36,343.857 3259.57,378.399 3259.78,382.613L3261.77,406.64C3262.98,407.976 3264.55,409.718 3265.2,410.466C3276.48,423.366 3264.3,437.509 3263.75,438.155C3261.64,440.531 3243.55,448.064 3216.99,449.195C3170.27,451.186 3089.86,445.094 3085,445.199L3007.89,449.76C3003.33,449.757 2990.76,452.231 2982.64,450.612C2978.26,449.739 2975.71,448.883 2973.84,447.497C2969.11,443.988 2966.49,443.239 2966.34,440.385C2966.22,438.168 2965.36,434.711 2969.2,431.043C2971.4,428.935 2974.53,428.376 2977.22,429.337ZM3226.26,343.266C3225.53,340.548 3224.1,338.958 3221.64,339.224C3217.8,339.639 3222.2,341.56 3226.26,343.266ZM3239.35,344.651C3239.89,344.566 3240.45,344.524 3241.05,344.553C3242.19,344.606 3242.36,342.728 3243.79,342.378C3244.22,342.275 3243.03,341.411 3243.05,340.817C3242.06,342.376 3240.79,343.662 3239.35,344.651ZM3237.02,405.819C3240.31,406.014 3242.36,405.634 3242.16,403.857C3241.81,400.794 3239.16,403.358 3237.02,405.819ZM2982.36,437.256C2982.23,439.114 2981.43,440.929 2979.98,442.316C2981.83,440.548 2982.45,438.79 2982.36,437.256ZM2976.96,430.172C2976.55,429.697 2976.37,429.548 2976.7,430.251C2976.81,430.484 2976.88,430.406 2976.96,430.172Z" style="fill:#fff;"/>
        <path d="M3024.83,374.804C3023.52,376.45 3022.31,378.549 3021.36,381.234L3023.1,332.3L3034.76,199.872C3035.07,195.158 3035.66,160.067 3036.69,145.862C3036.77,144.722 3036.7,143.436 3036.87,142.683C3036.93,140.807 3037.02,139.125 3037.14,137.846C3038.22,126.218 3051.02,128.534 3053.17,129.124C3054.18,129.379 3059.33,134.009 3061.44,144.206C3064.42,158.694 3065.66,195.261 3065.9,200.163L3061.78,334.851C3061.34,344.854 3063.49,359.417 3063.4,372.215C3063.34,380.376 3062.32,387.97 3060.37,394.236C3056.25,407.468 3046.24,408.602 3044.61,408.749C3035.79,409.545 3022.47,410.429 3021.2,395.846C3021.08,394.399 3018.26,391.29 3020.08,386.578C3020.87,384.543 3022.75,379.368 3024.83,374.804Z" style="fill:#fff;"/>
        <path d="M3619.91,402.637C3620.9,403.019 3620.72,406.147 3620.97,407.338C3620.64,405.742 3620.28,404.175 3619.91,402.637ZM3472.69,139.388C3471.52,139.817 3471.3,140.566 3471.71,141.524L3470.69,143.736C3470.97,143.262 3471.44,142.595 3471.9,141.922C3473.72,145.152 3481.49,150.373 3484.99,154.073C3493.97,163.559 3502.86,172.697 3506.93,178.866C3510.85,184.83 3513.96,191.044 3516.69,197.385C3521.87,209.396 3525.13,222.041 3530.07,234.395C3535.68,248.773 3543.16,264.012 3551.21,278.942C3559.42,294.143 3568.28,309.009 3576.9,322.126C3587.97,339.187 3598.5,352.517 3606.62,367.793C3612.15,378.198 3616.73,389.377 3619.91,402.637C3619.75,402.574 3619.56,402.586 3619.33,402.692C3608.98,407.424 3625.43,426.432 3620.18,430.932C3615.53,434.918 3616.11,443.055 3608.37,441.66C3603.39,440.763 3598.99,448.939 3593.22,443.426C3590.87,441.179 3586.97,442.268 3584.42,438.015C3583.3,436.148 3580.42,434.626 3581.94,433.706C3582.6,433.305 3583.14,432.965 3583.57,432.84C3579.55,431.972 3576.14,429.73 3573.75,426.694C3573.95,427.547 3574.08,428.118 3574.08,428.118C3574.08,428.118 3573.55,426.993 3572.88,425.474C3571.6,423.514 3570.71,421.29 3570.32,418.932C3570.29,418.82 3570.26,418.713 3570.24,418.611C3567.88,408.637 3564.28,400.568 3560.11,393.052C3552.39,379.125 3542.59,366.959 3532.28,351.335C3522.89,336.927 3513.14,320.665 3504.33,303.914C3495.38,286.874 3487.38,269.351 3481.31,252.926L3464.48,205.394C3458.35,194.616 3438.15,174.947 3431.05,157.493C3427.12,158.023 3423.16,158.353 3419.14,158.45C3405.12,158.789 3390.9,157.175 3377.21,157.447C3375.66,157.408 3364.83,154.321 3358.02,154.162C3356.08,158.884 3350.72,161.245 3345.91,159.441C3336.24,157.23 3336.84,149.708 3337,146.773C3337.14,144.139 3339.81,140.197 3346.06,137.259C3352.9,134.045 3371.7,130.692 3374.41,130.062C3385.99,127.926 3398.17,127.22 3410.14,125.316C3416.76,124.262 3423.11,122.51 3429.22,120.032L3443.27,107.204C3450.66,100.521 3461.73,99.969 3469.74,105.885C3477.76,111.801 3480.49,122.545 3476.28,131.571L3472.69,139.388ZM3472.69,139.388C3472.7,139.382 3472.72,139.376 3472.74,139.371C3473.89,138.963 3472.91,140.456 3471.9,141.922C3471.83,141.785 3471.76,141.653 3471.71,141.524L3472.69,139.388ZM3355.18,154.324C3353.34,154.641 3352.25,155.435 3352.5,156.967C3352.89,159.424 3354.16,156.927 3355.18,154.324ZM3579.63,400.795C3582.73,399.262 3586.33,398.652 3590,399.264C3591.42,398.531 3595.35,395.774 3598.3,395.465C3597.54,394.891 3596.83,394.542 3596.4,394.864C3592.26,398 3587.7,393.498 3585.99,396.909C3584.46,399.956 3580.55,398.494 3579.63,400.795Z" style="fill:#fff;"/>
        <path d="M3436.08,425.272C3435.82,427.11 3435.4,428.855 3435.88,430.051C3419.85,423.012 3368.33,435.584 3345.95,435.757C3344.46,435.594 3321.65,426.622 3315.35,429.361C3315.19,429.521 3315.01,429.673 3314.83,429.817C3314.89,429.718 3314.94,429.626 3314.99,429.541C3314.64,429.747 3314.35,430.001 3314.14,430.31C3311.77,431.812 3308.66,431.979 3306.06,430.48C3299.17,430.944 3301.93,424.301 3300.86,421.516C3299.99,419.232 3302.66,416.314 3309.3,412.202C3316.39,407.809 3341.82,404.334 3343.63,403.864C3373.03,399.795 3425.7,389.382 3447.32,392.732C3451.21,393.334 3454.86,393.696 3456.97,395.512C3467.74,404.809 3474.42,407.754 3470.92,415.393C3470.17,417.041 3472.11,418.302 3470.98,419.81C3470.98,429.677 3462.97,437.687 3453.11,437.687C3445.14,437.687 3438.39,432.47 3436.08,425.272ZM3314.83,429.817C3314.26,430.856 3313.67,432.5 3313.77,431.414C3313.8,430.987 3313.93,430.621 3314.14,430.31C3314.38,430.159 3314.61,429.994 3314.83,429.817ZM3315.69,429.016C3319.09,428.194 3319.21,427.157 3317.74,424.27C3317.66,425.416 3317.33,426.561 3316.72,427.622C3316.42,428.134 3316.08,428.599 3315.69,429.016ZM3439.18,432.307C3439.93,433.157 3440.43,434.15 3440.63,435.302C3439.37,434.99 3439.58,433.306 3439.18,432.307ZM3438.44,431.598C3438.82,431.692 3439.03,431.958 3439.18,432.307C3438.95,432.059 3438.71,431.822 3438.44,431.598ZM3435.88,430.051C3436.88,430.488 3437.74,431.002 3438.44,431.598C3438.4,431.587 3438.36,431.579 3438.31,431.573C3436.91,431.391 3436.2,430.84 3435.88,430.051ZM3440.63,435.302C3440.74,435.328 3440.85,435.344 3440.97,435.35C3441.44,435.372 3440.65,437.92 3440.71,437.147C3440.76,436.491 3440.73,435.877 3440.63,435.302Z" style="fill:#fff;"/>
        <path d="M3492.77,423.128C3493.79,422.268 3494.95,421.39 3496.27,420.504C3505.09,414.57 3534.43,408.838 3538.2,408.218C3554.66,406.07 3570.43,405.927 3586.32,407.041C3601.77,408.123 3616.97,410.875 3632.71,413.839C3632.81,413.868 3632.91,413.906 3633.01,413.952C3631.93,414.273 3630.76,414.676 3629.56,415.118C3633.55,415.612 3637.34,417.663 3639.94,421.131C3641.97,421.698 3643.65,420.822 3646.28,421.34C3651.2,422.309 3650.19,427.174 3653.15,429.053C3656.02,430.884 3653.14,433.988 3655.04,436.243C3659.55,441.585 3650.74,444.253 3650.83,451.579C3650.87,454.691 3646.43,453.765 3645.22,457.429C3642.94,462.904 3637.55,460.494 3632.28,462.46C3628.46,463.885 3617.34,464.405 3618.92,459.934C3603.12,454.584 3587.81,449.921 3571.94,446.67C3561.32,444.493 3550.7,442.559 3539.43,441.919C3536.22,441.629 3511.59,442.986 3502.64,443.175C3500.69,443.216 3498.81,443.014 3497.03,442.62C3494.92,442.622 3493.59,442.234 3492.86,442.265C3489.47,442.408 3488.65,440.597 3488.11,438.709C3478.13,431.779 3476.02,419.591 3492.77,423.128ZM3620.39,460.435C3620.44,460.458 3620.49,460.476 3620.54,460.486C3620.49,460.469 3620.44,460.452 3620.39,460.435ZM3612.84,426.49C3608.26,428.992 3614.55,434.857 3611.53,440.375C3610.33,442.551 3614.79,443.188 3614.37,446.271C3614.23,447.235 3615.41,447.712 3616.6,447.644C3619.95,447.452 3615.39,442.242 3615.42,439.523C3612.51,435.65 3611.72,430.844 3612.84,426.49ZM3633.01,413.952C3636.89,412.793 3639.5,412.705 3637.77,415.711C3636.91,417.221 3634.6,414.667 3633.01,413.952Z" style="fill:#fff;"/>
        <path d="M3446.92,188.751C3446.91,188.741 3446.91,188.732 3446.9,188.722C3445.27,185.596 3448.09,183.404 3451.58,175.382C3453.18,171.694 3457.99,169.843 3460.56,167.981C3467.92,162.648 3475.38,165.428 3478.79,166.048C3488.15,167.752 3494.17,175.119 3491.98,192.328C3490.87,196.117 3484.7,208.248 3474.94,223.539C3453.5,257.1 3414.97,310.535 3407.02,322.665C3396.51,338.158 3381.58,354.595 3369.79,371.513C3367.78,374.406 3365.74,377.208 3363.88,380.042C3365.56,381.88 3366.33,384.491 3365.72,387.097C3365.71,391.887 3354.52,400.391 3347.82,402.33C3338.63,404.992 3335.31,400.532 3333.53,384.659C3334.84,374.794 3338.08,365.124 3342.73,355.604C3351.86,336.931 3366.83,319.894 3376.15,303.472L3446.92,188.751ZM3358.3,390.402C3358.25,390.538 3358.2,390.675 3358.14,390.812C3358.21,390.673 3358.26,390.536 3358.3,390.402ZM3352.66,379.755C3350.94,378.978 3349.12,379.127 3348.04,380.939C3347.64,381.614 3347.68,383.466 3348.76,383.286C3349.77,383.116 3350.62,381.479 3351.21,381.707C3351.6,380.975 3352.09,380.319 3352.66,379.755ZM3467.41,206.044C3471.88,207.699 3479.88,209.621 3478.81,204.215C3478.55,202.894 3474.88,201.655 3474.08,202.154C3473.96,200.802 3473.85,198.587 3474.73,198.234C3476.76,197.418 3473.77,195.507 3475.15,194.436C3478.51,191.819 3476.18,190.756 3473.64,189.005C3474.33,190.608 3474.72,192.376 3474.72,194.233C3474.72,199.4 3471.74,203.878 3467.41,206.044ZM3469.89,184.035C3469.86,183.821 3469.85,183.599 3469.84,183.37C3469.82,181.942 3468.67,182.334 3467.4,182.416C3468.29,182.862 3469.13,183.406 3469.89,184.035ZM3464.98,181.495C3464.87,181.355 3464.78,181.196 3464.69,181.014C3464.39,180.376 3463.88,180.803 3463.28,181.154C3463.86,181.231 3464.43,181.346 3464.98,181.495ZM3474.08,202.154C3474.18,203.181 3474.28,203.71 3473.95,202.543C3473.9,202.362 3473.95,202.235 3474.08,202.154Z" style="fill:#fff;"/>
        <path d="M3521.49,350.333C3521.87,350.66 3522.14,351.046 3522.27,351.499C3522.53,352.423 3522.07,351.173 3521.49,350.333ZM3520.55,349.74C3520.84,349.548 3521.18,349.881 3521.49,350.333C3521.23,350.109 3520.91,349.912 3520.55,349.74ZM3518.27,349.059C3519.15,349.219 3519.92,349.441 3520.55,349.74C3520.55,349.741 3520.55,349.741 3520.55,349.742C3519.39,350.54 3518.79,349.875 3518.27,349.059ZM3513.61,345.204C3514.32,346.283 3514.46,348.263 3516.36,347.517C3517.27,347.16 3517.72,348.194 3518.27,349.059C3511.66,347.854 3499.16,350.184 3497.12,350.102C3494.17,349.9 3431.44,356.373 3412.1,352.555C3410.04,352.147 3409.24,351.152 3408.92,350.165C3408.25,350.322 3407.54,350.392 3406.82,350.363C3392.44,349.902 3397.16,338.538 3399.09,335.482C3400.02,333.998 3400.48,332.016 3406.77,327.569C3424.05,315.359 3492.19,305.951 3495.33,305.481C3498.78,305.066 3521.21,299.144 3527.55,302.534C3536.59,307.365 3539.34,305.411 3539.74,309.13C3539.94,310.99 3542.43,309.785 3542.35,311.414C3542.13,316.49 3549.13,315.151 3547.34,318.899C3544.59,324.682 3554.18,327.626 3548.74,331.114C3547.61,331.836 3549.39,333.154 3548.13,333.761C3546.86,334.372 3548.56,336.003 3547.12,336.475C3544.43,337.363 3547.3,341.623 3543.71,341.797C3540.59,341.949 3541.81,349.46 3535.61,347.155C3528.26,350.83 3519.78,349.798 3513.61,345.204ZM3512.82,344.591C3512.02,343.932 3511.26,343.209 3510.55,342.425C3510.88,343.428 3510.81,344.793 3512.31,344.575C3512.5,344.548 3512.67,344.555 3512.82,344.591ZM3509.76,341.489C3509.31,340.929 3508.89,340.341 3508.49,339.727C3508.67,340.399 3508.39,341.371 3509.39,341.423C3509.53,341.431 3509.65,341.453 3509.76,341.489ZM3508.2,339.265C3507.9,338.772 3507.62,338.262 3507.36,337.736C3507.3,337.62 3507.24,337.504 3507.19,337.387C3507.3,338.042 3506.89,338.947 3507.83,339.117C3507.99,339.145 3508.11,339.196 3508.2,339.265ZM3507,336.977C3506.15,335.102 3505.6,333.162 3505.33,331.213C3504.34,333.67 3503.28,335.735 3506.63,336.767C3506.79,336.817 3506.91,336.889 3507,336.977ZM3505.39,325.057C3505.62,323.624 3505.99,322.218 3506.5,320.864C3505.13,322.081 3503.63,322.943 3505.03,324.59C3505.16,324.745 3505.28,324.901 3505.39,325.057ZM3508.15,317.452C3509.25,315.621 3510.64,313.944 3512.28,312.498C3511.04,312.801 3509.74,312.7 3509.93,313.978C3510.19,315.741 3507.49,315.155 3507.97,316.624C3508.06,316.916 3508.12,317.192 3508.15,317.452ZM3514.17,311.021C3514.65,310.693 3515.14,310.382 3515.64,310.089C3515.04,310.015 3514.42,309.781 3514.34,310.363C3514.3,310.61 3514.25,310.828 3514.17,311.021Z" style="fill:#fff;"/>
        <path d="M3918.99,312.561C3929.55,323.335 3950.93,351.912 3965.24,380.595C3976.95,404.077 3983.9,426.866 3984.77,434.438C3987.45,447.804 3978.76,460.825 3965.4,463.498C3952.03,466.171 3939.01,457.49 3936.34,444.125C3935,439.888 3926.96,430.812 3919.87,418.184C3908.94,398.734 3897.63,373.968 3888.62,359.151C3886.5,355.664 3881.91,352.424 3882.91,350.817C3880.07,349.257 3876.99,347.918 3873.78,346.805C3864.56,343.606 3854.73,341.453 3846.09,339.504C3826.76,335.195 3807.66,330.662 3788.27,327.667C3779.59,326.326 3770.86,325.273 3762.06,324.651L3750.85,325.138C3747.64,325.018 3743.74,324.456 3740.02,322.547C3735.9,320.43 3731.56,316.757 3731.56,316.757C3723.46,309.635 3722.05,297.546 3728.29,288.752C3734.11,280.552 3744.83,277.686 3753.87,281.626C3755.69,281.6 3757.51,281.592 3759.33,281.602L3799.41,276.839L3892.31,274.698C3899.89,273.037 3905.89,261.624 3911,250.686C3915.91,240.174 3921.31,228.889 3917.07,222.007C3910.56,211.378 3894.09,197.547 3876.76,185.002C3858.71,171.933 3839.62,160.213 3827.63,156.449L3762.9,144.961C3753.76,143.845 3744.48,143.204 3735.2,143.569C3726.09,143.926 3717.04,144.917 3708.24,147.194C3706.36,147.48 3693.95,151.892 3688.14,152.429C3687.58,152.481 3687.18,152.38 3686.9,152.177C3686.18,152.573 3685.4,152.863 3684.55,153.022C3671.31,158.692 3672.35,144.361 3673.36,140.81C3673.91,138.868 3680.69,131.214 3688.77,125.547C3693.42,122.287 3698.43,120.776 3699.6,120.323C3710.08,116.272 3721.02,113.685 3732.14,111.962C3743.11,110.264 3754.2,109.751 3765.19,109.846C3779.39,109.991 3794.14,109.899 3808.68,111.301C3819.14,112.308 3829.4,114.278 3839.29,116.935C3854.28,121.079 3878.86,133.958 3901.69,149.466C3925.05,165.336 3946.22,184.216 3955.16,198.027C3965.87,214.686 3964.43,243.845 3952.84,269.802C3944.74,287.922 3931.99,303.471 3918.99,312.561Z" style="fill:#fff;"/>
        <path d="M3744.02,149.281C3744.34,149.232 3744.77,149.155 3745.2,148.883C3746.63,147.974 3747.65,150.678 3748.65,152.936C3751.95,160.35 3752.64,172.249 3752.64,172.286L3758.66,232.435L3764.05,411.418C3757.67,417.952 3761.77,423.547 3753.91,426.814C3750.21,428.353 3750.97,432.512 3746.42,432.901C3739.96,439.363 3729.47,439.363 3723.01,432.901C3716.55,426.44 3716.55,415.949 3723.01,409.488L3711.24,411.418L3721.53,233.549L3721.67,174.422C3721.67,174.387 3719.56,163.266 3721.47,155.579C3725.05,141.121 3733.88,136.863 3735.2,137.677C3739.02,139.807 3743.87,139.904 3743.72,143.016C3743.65,144.6 3746.05,146.243 3744.24,148.402C3744.18,148.703 3744.11,148.996 3744.02,149.281ZM3743.62,150.282C3742.59,152.454 3740.6,154.014 3738.29,154.536C3740.96,154.197 3743.91,153.835 3743.62,150.282ZM3737.02,154.714C3736.39,154.75 3735.75,154.709 3735.11,154.584C3733.59,154.292 3732.26,153.578 3731.22,152.588C3732.25,154.424 3733.3,156.323 3735.2,155.26C3735.69,154.99 3736.32,154.832 3737.02,154.714ZM3729.51,150.219C3729.28,149.727 3729.1,149.21 3728.98,148.675C3728.9,149.31 3728.91,149.799 3729.4,150.137C3729.44,150.163 3729.47,150.19 3729.51,150.219Z" style="fill:#fff;"/>
        <path d="M3683.41,413.264L3776.29,377.345C3781.01,376.227 3805.62,373.401 3820.86,377.635C3830.51,380.317 3839.39,384.193 3842.41,390.314C3847.12,399.845 3855.67,404.039 3851.56,412.931C3850.51,415.199 3853,417.323 3851.39,419.391C3848.67,422.879 3852.3,426.978 3847.99,429.897C3844.11,432.519 3845.49,438.572 3839.08,440.554C3829.77,452.194 3813,454.383 3801.04,445.756C3801.33,445.657 3801.55,445.354 3801.69,444.783C3802.37,442.095 3799.44,441.183 3795.92,440.991C3787.84,431.308 3787.19,417.078 3794.89,406.629C3793.87,407.126 3792.08,406.851 3792.26,407.828C3792.85,410.969 3787.52,410.919 3788.74,413.25C3790.32,416.279 3785.51,418.725 3787.48,421.067C3792.43,426.946 3786.34,435.218 3793.72,439.005C3794.3,439.304 3795.04,440.071 3795.83,440.986C3791.76,440.779 3786.95,441.517 3786.02,441.58C3763.83,442.657 3739,452.34 3714.89,454.744C3700.89,456.138 3687.83,456.212 3675.32,452.739C3663.77,445.263 3656.11,444.708 3658.18,437.173C3659.23,433.371 3655.52,428.418 3660.03,425.052C3663.79,422.249 3667.66,418.085 3668.76,417.812C3676.57,415.377 3679.88,413.069 3683.41,413.264ZM3801.04,445.756C3799.88,446.158 3797.7,443.155 3795.83,440.986C3795.86,440.987 3795.89,440.989 3795.92,440.991C3797.1,442.401 3798.43,443.714 3799.92,444.906C3800.29,445.2 3800.66,445.483 3801.04,445.756ZM3692.72,434.636C3691.89,434.516 3691.07,434.26 3690.28,433.855C3689.06,433.543 3687.64,433.829 3686.66,433.856C3687.33,434.622 3688.22,435.58 3689.21,436.017C3689.89,436.319 3689.48,437.331 3689.21,438.261C3689.3,437.998 3692.18,440.009 3692.05,438.828C3691.86,437.245 3692.24,435.865 3692.72,434.636ZM3678.91,415.006C3678.85,415.026 3678.8,415.047 3678.74,415.07L3678.91,415.006Z" style="fill:#fff;"/>
        <path d="M4043.45,484.246C4041.64,486.838 4039.85,490.09 4039.65,487.744C4039.45,485.344 4040.99,484.38 4043.45,484.246ZM4030.36,126.243C4031.57,125.605 4032.94,124.996 4034.5,124.426C4041.37,122.333 4047.72,120.209 4054.85,119.207C4061.67,118.247 4068.6,118.797 4075.5,118.88C4096.23,119.13 4116.85,121.439 4137.14,125.232C4189.26,135.646 4247.85,158.572 4285.91,197.311C4314.44,226.34 4331.24,264.108 4329.4,310.268C4327.35,354.692 4310.72,388.819 4285.59,415.123C4250.41,451.945 4196.98,472.796 4142.01,483.271C4129.51,485.645 4116.8,487.167 4104.05,488.104C4091.74,489.009 4079.37,489.351 4067.12,489.394C4062.92,489.338 4049.97,483.891 4043.45,484.246C4044.21,483.167 4044.96,482.203 4045.61,481.804C4048.55,482.972 4042.34,479.269 4043.77,479.789C4048.1,481.357 4042.61,475.594 4045.55,476.174C4048.63,476.784 4044.17,473.181 4046.83,473.349C4053.68,473.781 4042.92,468.16 4048.46,466.921C4050.53,466.46 4046.67,465.333 4048.62,464.698C4053.05,463.254 4044.26,462.094 4048.22,459.795C4052.6,457.25 4042.62,458.247 4046.51,454.499C4048.28,452.795 4043.53,454.153 4045.2,452.108C4046.92,450.006 4041.68,452.3 4043.31,449.631C4043.79,448.841 4042.53,449.731 4041.5,450.208C4048.83,458.533 4048.52,471.254 4040.57,479.208C4032.29,487.484 4018.85,487.484 4010.58,479.208C4001.83,483.112 4008.81,474.583 4004.86,475.196C3997.07,476.407 4008.7,469.2 4001.91,467.994C3999.61,467.585 4003.74,466.174 4001.51,465.528C3996.86,464.188 4005.93,462.697 4001.5,460.264C3996.88,457.73 4007.35,458.568 4002.86,454.363C4000.56,452.205 4006.63,453.917 4004.31,450.976C4002.58,448.787 4007.7,451.104 4005.92,447.968C4004.62,445.68 4009.03,448.944 4006.51,442.71C4010.49,436.279 4018.26,432.911 4027.51,429.756C4039.47,425.679 4058.79,429.365 4067.12,429.254L4131.07,424.622C4166.78,418.092 4202.08,406.942 4228.98,386.992C4253.2,369.038 4270.03,343.538 4272.17,307.256C4274.71,269.765 4256.28,241.45 4230.48,219.582C4201.04,194.627 4162.68,176.902 4127.14,166.727C4115.4,163.237 4103.51,160.247 4091.4,158.118C4080.51,156.203 4069.47,155.646 4058.52,154.125C4050.86,153.06 4043.85,150.973 4036.2,149.935C4010.24,144.169 4022.95,125.682 4028.59,126.089C4029.01,126.119 4029.61,126.168 4030.36,126.243Z" style="fill:#fff;"/>
        <path d="M4085.37,136.871C4085.52,136.798 4085.58,136.832 4085.44,137.037C4086.02,138.415 4086.2,139.952 4085.93,141.46C4088.54,145.765 4095.32,151.688 4097.53,157.948C4102,170.634 4105.59,183.388 4107.97,196.685C4110.34,209.889 4111.03,223.257 4111.51,236.597C4111.77,251.449 4111.32,266.298 4110.45,281.232C4107.78,326.761 4103.15,372.511 4099.71,417.695C4098.89,428.542 4097.26,439.236 4096.72,450.036C4096.72,464.75 4084.77,476.695 4070.06,476.695C4055.34,476.695 4043.4,464.75 4043.4,450.036C4042.93,434.931 4042.75,419.744 4044.2,404.584C4049.62,347.882 4067.06,291.89 4071.62,235.254L4072.88,163.341C4072.32,156.35 4068.01,149.623 4067.72,146.091C4067,137.11 4067.7,134.955 4070.19,133.819C4071.75,133.106 4075.4,129.407 4081.75,133.085C4083.42,133.923 4084.66,135.284 4085.37,136.871Z" style="fill:#fff;"/>
    </g>
</svg>
