<?xml version="1.0" encoding="UTF-8" standalone="no"?>
<!DOCTYPE svg PUBLIC "-//W3C//DTD SVG 1.1//EN" "http://www.w3.org/Graphics/SVG/1.1/DTD/svg11.dtd">
<svg width="100%" height="100%" viewBox="0 0 4430 591" version="1.1" xmlns="http://www.w3.org/2000/svg" xmlns:xlink="http://www.w3.org/1999/xlink" xml:space="preserve" xmlns:serif="http://www.serif.com/" style="fill-rule:evenodd;clip-rule:evenodd;stroke-linejoin:round;stroke-miterlimit:2;">
    <g id="Layer2">
        <path d="M181.8,153.528C181.388,153.502 180.937,153.287 180.417,152.807C180.894,153.045 181.354,153.286 181.8,153.528ZM410.393,172.382C410.96,172.679 411.242,173.138 411.027,173.842C410.686,174.959 410.587,173.87 410.393,172.382ZM408.708,157.819C408.13,160.992 404.475,164.211 408.239,165.613C409.463,166.069 407.744,167.927 409.052,168.449C409.873,168.778 410.187,170.804 410.393,172.382C408.663,171.473 404.28,172.072 403.278,171.834C385.814,165.95 366.563,163.395 346.844,162.409C314.407,160.788 280.9,163.009 251.144,163.04C232.031,162.455 212.586,164.878 194.284,159.855C189.214,158.463 186.196,155.92 181.8,153.528C182.805,153.593 183.58,152.535 184.567,151.468C182.314,152.95 179.352,153.223 176.771,151.926C173.164,152.963 171.777,144.179 168.425,137.653C167.467,135.788 169.878,135.327 169.588,133.769C168.276,126.715 176.222,131.108 180.417,127.236C185.678,124.614 188.904,121.779 194.589,120.313C212.465,115.703 231.351,118.589 249.882,117.004C280.432,115.36 314.718,111.273 348.11,111.258C372.882,111.246 397.125,113.671 419.367,119.991C424.385,122.293 443.392,128.365 446.161,137.312C447.228,140.761 450.024,140.916 449.24,143.957C447.097,152.27 456.496,156.226 450.159,160.975C447.676,162.835 450.384,166.175 447.141,167.356C442.134,177.372 429.936,181.437 419.92,176.43C412.674,172.806 408.542,165.42 408.708,157.819ZM186.179,150.053C186.839,149.634 187.611,149.353 188.552,149.357C190.704,149.367 188.288,145.73 191.141,143.963C193.792,142.322 188.888,140.94 185.859,139.514C188.114,141.83 188.773,145.41 187.241,148.459C186.947,149.045 186.589,149.578 186.179,150.053ZM408.764,156.683C408.888,155.1 409.201,153.515 409.712,151.961C408.531,152.949 407.073,153.668 408.08,154.984C408.501,155.533 408.707,156.103 408.764,156.683Z" style="fill:#fff;"/>
        <path d="M310.963,156.883C311.165,156.697 311.367,156.515 311.559,156.343C311.831,157.815 315.14,160.794 316.256,164.935C321.843,185.684 324.668,229.843 325.731,244.561C327.944,280.716 335.357,331.24 329.545,374.592C326.439,397.759 319.095,418.767 307.161,436.051C296.377,451.643 268.735,469.02 241.034,477.829C218.331,485.049 195.748,484.582 180.477,478.524C165.793,472.001 152.56,459.76 142.347,444.266C130.576,426.408 122.63,404.37 118.392,387.936C115.824,375.834 99.841,361.551 98.257,351.24C97.221,344.498 95.212,341.393 97.199,337.183C99.881,332.674 96.414,330.678 98.082,329.125C100.95,326.454 97.601,322.84 100.643,321.517C103.023,320.481 100.849,315.881 107.168,315.35C115.41,307.108 128.792,307.108 137.034,315.35C145.276,323.592 145.276,336.975 137.034,345.217C136.934,346.418 136.209,347.207 136.209,347.207C136.209,347.207 138.821,346.275 138.763,345.008C138.549,340.342 145.772,340.009 143.282,335.735C142.369,334.167 148.001,332.123 144.647,329.275C143.528,328.123 149.003,323.536 147.436,325.292C144.303,328.803 155.204,333.401 159.561,338.781C167.921,349.102 174.574,361.333 177.646,371.59C180.424,381.006 185.222,392.996 191.508,403.849C195.65,410.999 199.843,418.291 206.274,421.196C212.702,424.444 223.258,421.798 233.419,418.743C246.155,414.914 259.069,410.128 264.55,403.586C276.146,389.746 281.816,370.69 284.753,350.218C289.931,314.131 287.579,274.502 288.392,245.183C288.704,233.994 286.267,205.551 287.219,183.606C287.793,170.387 288.438,159.414 290.677,155.527C311.33,119.688 312.583,122.693 309.87,152.148C309.785,153.067 310.347,154.591 310.963,156.883ZM311.559,156.343C311.498,156.016 311.587,155.763 311.883,155.589C313.42,154.681 312.669,155.344 311.559,156.343Z" style="fill:#fff;"/>
        <path d="M487.133,199.221C487.79,195.841 489.07,192.177 490.177,187.786C491.048,184.333 493.914,181.614 496.343,178.266C498.862,174.793 502.086,171.271 505.912,167.762C518.683,150.557 535.573,131.345 554.775,118.353C563.755,112.277 573.03,106.763 582.991,104.554C594.046,102.103 605.14,102.352 616.194,105.965C624.414,112.935 628.936,113.537 628.596,117.453C628.539,118.111 628.621,118.843 628.738,119.622C639.046,118.64 648.99,118.296 658.123,118.554C680.389,119.182 698.925,124.779 711.323,133.328C741.313,154.028 757.904,198.203 759.67,248.782C761.849,311.202 743.274,381.855 723.382,411.555C714.08,425.207 702.13,436.584 688.577,446.187C671.962,457.96 652.979,467.127 635.646,476.103C616.45,485.437 596.337,493.254 575.54,495.412C560.249,497 544.682,496.319 528.995,491.414C496.826,481.144 474.287,446.29 466.831,397.446C456.928,332.584 468.329,244.823 487.133,199.221ZM612.965,131.965C613.48,134.365 613.91,134.801 613.553,131.631C613.521,131.34 613.301,131.607 612.965,131.965ZM517.971,225.812C509.787,253.807 505.262,294.675 506.903,333.985C508.115,363.013 513.523,391.008 522.663,412.257C527.772,424.137 533.902,433.512 543.694,435.559C553.813,437.754 563.487,436.172 572.849,433.613C584.184,430.516 594.866,424.907 605.222,418.905C619.797,410.944 635.913,403.031 649.834,392.718C656.79,387.565 663.108,381.719 667.811,374.508C680.431,355.479 690.059,313.707 692.101,272.914C693.851,237.929 693.442,202.098 673.273,187.949C662.495,180.314 640.49,183.711 617.832,187.564C602.626,190.149 587.343,194.746 573.21,198.949C562.902,202.014 553.138,203.956 545.116,207.476C539.365,210 528.625,210.857 531.15,214.159C532.611,216.069 526.994,213.01 526.279,210.916C526.022,217.11 522.788,222.54 517.971,225.812Z" style="fill:#fff;"/>
        <path d="M1026.26,217.037C1028.28,209.17 1025.86,190.063 1027.59,175.536C1028.99,163.677 1029.83,152.37 1032.09,145.452C1033.15,142.224 1035.07,140.841 1037.2,140.477C1037,140.122 1036.83,139.746 1036.69,139.353C1035.21,135.309 1037.3,130.829 1041.34,129.355C1044.7,127.824 1047.01,129.853 1050.98,132.243C1053.25,133.61 1055.63,134.659 1059.6,143.055C1066.43,157.531 1064.19,196.626 1061.15,216.194C1059.88,224.374 1057.83,229.879 1056.63,231.337C1051.78,237.248 1010.1,248.172 1027.54,218.954C1027.54,217.139 1027.94,215.416 1028.64,213.865C1027.98,214.23 1027.43,214.748 1027.32,215.751C1027.26,216.287 1026.77,216.64 1026.26,217.037ZM1050.76,213.318C1051.63,215.007 1052.13,216.923 1052.13,218.954C1052.27,219.197 1052.42,219.419 1052.58,219.621C1052.09,216.873 1051.92,213.468 1050.83,213.327C1050.81,213.324 1050.78,213.321 1050.76,213.318ZM1026.26,217.037C1025.69,219.24 1024.78,220.561 1023.33,220.653C1022.22,220.724 1025.03,219.852 1024.97,219.431C1024.81,218.185 1025.56,217.571 1026.26,217.037Z" style="fill:#fff;"/>
        <path d="M1037.13,178.118C1035.88,182.235 1031.52,184.557 1027.4,183.301C1023.28,182.045 1020.96,177.683 1022.22,173.566L954.938,152.707C931.85,147.581 911.538,149.834 896.627,160.659C882.399,170.988 874.175,189.011 871.819,213.244C871.345,218.48 872.983,223.671 874.835,228.773C877.474,236.041 881.238,242.994 884.626,249.435C906.315,288.051 938.482,288.83 967.833,289.976C989.719,290.831 1010.84,291.598 1029.24,297.593C1050.06,304.378 1067.47,317.585 1080.73,340.588C1096.7,368.734 1094.94,391.794 1086.83,411.294C1077.17,434.5 1052.48,452.556 1033.05,469.229C1013.5,485.696 992.915,501.969 970.542,507.256C951.213,511.824 930.361,510.455 907.866,496.876C896.207,489.123 885.973,480.304 876.496,470.59C868.904,462.808 860.888,455.706 853.575,447.598C850.498,444.187 849.982,440.041 846.816,436.525C835.32,430.777 830.653,416.777 836.401,405.28C842.149,393.784 856.149,389.118 867.645,394.866C875.565,395.798 881.849,397.555 888.931,400.658C908.645,409.296 922.091,427.469 942.076,437.008C947.706,440.087 952.587,439.307 957.111,437.31C967.985,432.509 977.765,423.485 987.715,415.176C998.636,406.204 1013.17,397.97 1021.61,386.536C1024.19,383.029 1024.35,378.77 1021.32,372.994C1013.26,356.966 997.955,355.168 981.947,352.768C954.18,348.607 923.961,345.962 897.291,331.653C876.022,320.243 855.908,302.805 841.616,270.94C836.727,260.636 831.442,249.229 828.484,237.57C826.008,227.811 824.866,217.909 826.148,208.17C831.072,168.792 847.747,141.107 871.373,124.89C895.644,108.23 927.844,102.904 964.511,112.022C978.529,116.067 1012.39,123.167 1027.95,139.284C1040.85,152.658 1046.36,166.074 1037.13,178.118Z" style="fill:#fff;"/>
        <path d="M843.095,367.002C844.05,367.73 844.59,369.122 845.103,368.356C846.213,366.701 850.827,367.501 851.232,365.667C852.186,372.284 852.973,378.653 852.987,385.461C853.031,405.991 851.157,426.736 848.332,446.723C847.655,451.511 845.728,455.772 844.882,460.463C844.882,470.553 836.69,478.745 826.6,478.745C816.51,478.745 808.318,470.553 808.318,460.463C807.248,455.006 806.079,449.768 806.159,444.132C806.233,438.911 807.682,433.786 808.741,428.602C811.921,413.027 815.434,397.326 819.715,381.93C821.521,375.433 824.034,369.594 825.69,363.154C828.218,357.775 828.473,352.927 832.258,351.885C837.312,350.495 841.552,345.292 846.454,351.849C850.542,353.195 852.769,357.607 851.422,361.696C850.242,365.28 846.705,367.433 843.095,367.002ZM851.232,365.667C851.179,365.3 851.126,364.933 851.072,364.564C851.254,365.013 851.297,365.374 851.232,365.667Z" style="fill:#fff;"/>
        <path d="M1232.36,396.293C1233.17,396.961 1233.58,397.44 1232.5,397.348C1232.14,397.317 1232.21,396.875 1232.36,396.293ZM1230.17,152.232L1230.07,151.214C1230.1,151.445 1230.17,151.86 1230.17,152.232ZM1214.73,139.015C1214.97,138.547 1215.27,138.098 1215.62,137.674C1241.07,101.578 1234.84,115.719 1228.98,146.081C1228.74,147.336 1227.03,152.888 1229.69,152.999C1230.07,153.015 1230.17,152.651 1230.17,152.232L1234.39,197.748L1229.43,345.01C1229.49,347.987 1231.6,380.05 1232.65,394.51C1232.69,395.079 1232.5,395.748 1232.36,396.293C1231.94,395.947 1231.41,395.551 1230.93,395.157C1231.54,397.399 1231.65,399.812 1231.17,402.244C1235.63,415.896 1223.85,418.461 1222.44,420.572C1217.58,427.828 1211.89,419.952 1202.69,418.905C1199.75,418.571 1199.64,414.588 1195.57,410.215C1194.08,408.625 1193.09,404.965 1191.96,399.993C1188.54,384.844 1190.64,348.318 1190.71,345.01L1204.6,197.748L1206.56,151.214C1206.78,148.928 1206.8,144.563 1209.54,141.932C1211.67,139.887 1213.77,138.311 1214.73,139.015ZM1205.5,387.751C1203.48,387.818 1203.39,391.057 1200.56,392.044C1199.76,392.324 1200,395.248 1199.74,396.662C1200.11,396.594 1200.5,396.459 1200.75,396.16C1201.42,392.794 1203.14,389.901 1205.5,387.751Z" style="fill:#fff;"/>
        <path d="M1402.58,409.519C1404.02,410.88 1405.67,412.442 1403.75,412.324C1402.82,412.267 1402.57,410.978 1402.58,409.519ZM1381.96,155.217C1381,154.789 1380.11,154.161 1379.37,153.335C1376.47,150.146 1376.72,145.21 1379.91,142.319C1381.85,137.621 1385.91,139.713 1389,139.181C1391.41,138.764 1392.96,141.587 1398.45,145.693C1403.12,152.043 1406.49,159.214 1409.2,166.969C1412.91,177.615 1414.28,189.084 1415.74,199.598C1417.28,215.283 1417.1,230.957 1415.95,246.674C1413.45,280.77 1406.08,314.765 1404.19,348.685L1403.09,405.297C1403.09,405.332 1402.6,407.576 1402.58,409.519C1402.05,409.007 1401.54,408.524 1401.26,408.169C1402.63,410.979 1403.39,414.132 1403.39,417.462C1407.2,424.634 1401.07,427.906 1401.03,429.361C1400.95,432.401 1397.51,432.66 1396.77,434.73C1394.27,441.8 1386.62,437.846 1381.16,440.501C1376.53,442.75 1373.88,436.326 1365.99,433.688C1364.09,433.052 1364.15,430.086 1361.4,426.721C1359.73,424.674 1356.37,407.428 1356.34,407.244L1361.13,344.869C1365.29,310.729 1374.51,276.806 1379.73,242.593C1381.82,228.876 1383.45,215.178 1383.35,201.302L1379.83,155.556L1381.96,155.217ZM1401.05,407.745C1400.94,402.828 1397.75,401.282 1394.66,400.258C1397.33,402.216 1399.53,404.78 1401.05,407.745ZM1388.74,397.206C1386.39,395.094 1384.03,395.216 1381.42,396.15C1381.64,396.143 1381.85,396.14 1382.07,396.14C1384.4,396.14 1386.64,396.514 1388.74,397.206ZM1368.53,400.996C1367.8,401.25 1367.31,401.807 1366.87,402.517C1367.39,401.982 1367.95,401.474 1368.53,400.996ZM1363.18,407.572C1363.1,407.627 1363.02,407.682 1362.93,407.736C1362.67,407.902 1362.61,408.241 1362.61,408.754C1362.78,408.353 1362.98,407.959 1363.18,407.572Z" style="fill:#fff;"/>
        <path d="M1228.78,265.85C1231.64,265.259 1235.1,264.616 1238.61,264.517C1268.88,263.666 1320.24,262.534 1323.26,262.01C1334.2,260.068 1344.74,257.553 1355.64,257.529C1360.36,257.519 1364.94,258.437 1369.7,259.072L1369.76,261.26C1370.13,261.239 1370.5,261.229 1370.88,261.229L1370.32,281.393L1370.88,301.556C1370.5,301.556 1370.13,301.546 1369.76,301.526L1369.7,303.714L1327.79,305.488C1324.44,305.608 1268.3,302.633 1235.92,296.139C1221.83,293.312 1211.7,289.959 1209.28,287.519C1204.86,283.075 1199.29,260.285 1224.12,265.164C1225.77,264.897 1227.38,265.169 1228.78,265.85ZM1222.58,282.747C1222.09,283.077 1221.68,283.364 1221.32,283.557C1221.97,283.626 1222.6,283.616 1222.57,283.208C1222.55,283.039 1222.56,282.886 1222.58,282.747ZM1222.52,266.874C1222.12,265.959 1221.87,265.281 1221.79,266.245C1221.75,266.631 1222.02,266.821 1222.52,266.874Z" style="fill:#fff;"/>
        <path d="M1275.77,117.749C1302.61,109.016 1318.11,120.843 1308.84,133.701C1315.61,145.701 1301.32,158.31 1276.74,150.815C1276.08,150.984 1275.41,151.15 1274.74,151.314C1270,152.456 1257.31,152.549 1249.33,152.914C1245.98,152.785 1219.76,153.136 1199.05,151.867C1190.11,151.319 1182.42,151.06 1178.06,149.68C1177.54,149.513 1177.11,149.332 1176.77,149.134C1176.11,149.207 1175.43,149.196 1174.74,149.091C1160.68,146.946 1166.05,136.42 1168.23,133.633C1169.13,132.477 1170.41,131.361 1175.01,128.6C1179.3,126.026 1187.73,124.549 1197.38,122.831C1218.27,119.113 1245.14,117.986 1248.56,117.705C1256.12,117.722 1268.08,116.821 1272.66,117.348C1273.72,117.47 1274.76,117.604 1275.77,117.749Z" style="fill:#fff;"/>
        <path d="M1362.54,149.814C1359.89,150.784 1356.79,150.272 1354.57,148.225C1343.6,141.07 1350.04,133.9 1352.48,130.676C1354.58,127.895 1362.24,126.692 1372.52,122.954C1389.7,123.622 1406.86,119.679 1424.04,121.052C1428.75,121.429 1432.86,123.112 1437.44,124.214C1446.16,124.214 1453.25,131.297 1453.25,140.022C1453.25,148.746 1446.16,155.829 1437.44,155.829C1432.9,156.92 1428.85,158.548 1424.2,159.077C1417.48,159.842 1410.64,159.154 1403.88,158.673C1392.16,157.838 1380.71,155.932 1369.24,153.555C1366.98,152.003 1364.39,150.907 1362.54,149.814Z" style="fill:#fff;"/>
        <path d="M1192.62,434.893C1192.41,435.095 1192.19,435.289 1191.96,435.471C1188.69,439.575 1175.73,434.608 1170,431.348C1162.4,427.026 1169.22,425.432 1169.76,416.145C1169.9,413.709 1173.34,413.963 1176.08,410.641C1188.8,404.066 1208.57,394.926 1228.12,392.545C1245.01,390.487 1261,394.376 1271.98,401.269C1281.24,406.826 1284.25,418.858 1278.69,428.121C1273.13,437.383 1261.1,440.391 1251.84,434.834C1244.96,430.673 1234.29,432.245 1223.55,432.823C1212.61,433.412 1201.63,433.809 1192.62,434.893ZM1187.85,435.567C1186.92,435.722 1186.02,435.887 1185.16,436.065C1186.57,436.466 1187.38,436.198 1187.85,435.567ZM1187.14,421.524C1186.67,421.334 1186.24,421.036 1186.06,420.456C1185.67,419.157 1183.75,421.988 1182.69,422.931C1184.04,421.986 1185.6,421.526 1187.14,421.524Z" style="fill:#fff;"/>
        <path d="M1350.85,440.101C1350.74,440.294 1350.62,440.485 1350.49,440.671C1348.01,444.193 1343.14,445.044 1339.62,442.569C1335.87,439.931 1334.64,437.106 1333.79,435.237C1331.83,430.944 1334.15,428.234 1337.86,423.473C1339.97,420.769 1344.14,418.332 1351.3,415.552C1357.13,413.289 1365,412.342 1373.45,411.425C1390.38,409.588 1410.04,411.249 1414.78,408.659C1423.54,404.278 1434.21,407.834 1438.59,416.595C1442.97,425.355 1439.41,436.023 1430.65,440.403C1425.8,442.638 1411.61,444.687 1395.11,443.933C1380.88,443.283 1364.7,442.576 1354.09,441.283C1352.98,441.147 1351.86,440.652 1350.85,440.101ZM1347.54,438.283C1347.28,438.246 1347.14,438.368 1347.14,438.729C1347.16,439.672 1347.31,439.193 1347.54,438.283Z" style="fill:#fff;"/>
        <path d="M1978.72,313.029C1977.01,311.191 1975.12,309.144 1971.79,309.963C1970.9,310.181 1968.43,308.992 1968.43,308.992C1968.43,308.992 1969,307.229 1970.13,306.716C1983.69,300.578 2017.31,291.951 2032.53,289.094C2065.82,283.016 2095.67,277.034 2112.94,261.71C2127.61,248.69 2128.18,228.456 2114.45,195.075C2107.54,178.127 2095.08,167.595 2080.28,160.832C2054.01,148.828 2021.16,147.28 1992.99,148.278L1948.39,150.489C1947.69,150.462 1940.24,148.484 1934.36,148.131C1932.94,151.104 1929.72,152.962 1926.28,152.499C1913.36,153.212 1912.23,143.806 1911.7,141.633C1911.05,138.903 1913.28,135.844 1919.32,130.808C1925.19,125.913 1943.31,121.764 1944.75,121.338L1990.75,114.256C2024.43,111.013 2064.05,111.005 2096.16,124.089C2120.7,134.092 2140.82,151.622 2152.7,178.966C2170.82,220.967 2169.43,250.783 2158.36,272.375C2141.3,305.64 2095.75,321.74 2040.64,332.353C2025.83,335.127 1994.4,349.247 1979.92,349.592C1963.86,349.975 1955.94,345.348 1954.64,342.144C1947.24,334.739 1947.24,322.715 1954.64,315.31C1961.18,308.765 1971.34,308.005 1978.72,313.029ZM1927.43,149.704C1927.25,150.023 1927.17,150.397 1927.19,150.832C1927.23,151.542 1927.27,150.566 1927.43,149.704Z" style="fill:#fff;"/>
        <path d="M1975.44,433.573C1975.64,434.155 1975.78,434.807 1975.84,435.545C1975.7,434.89 1975.57,434.232 1975.44,433.573ZM1946.4,138.053C1946.28,137.428 1946.24,136.778 1946.29,136.115C1945.77,119.957 1951.73,113.411 1956.99,120.175C1960.25,120.988 1962.83,125.777 1962.27,133.69C1962.62,135.31 1962.94,137.058 1963.22,138.938C1965.45,153.668 1971.14,197.841 1971.53,199.923C1974.45,228.788 1976.46,257.438 1977.2,286.162C1977.94,315.023 1977.3,343.866 1975.57,372.929C1974.78,385.844 1973.5,399.323 1973.59,412.677C1973.63,419.737 1974.16,426.743 1975.44,433.573C1974.3,430.165 1971.18,429.207 1970.8,427.967C1969.69,424.422 1966.06,427.24 1965.36,424.432C1965.09,423.306 1964.17,423.625 1963.32,423.748C1964.81,425.523 1966.15,428.75 1969.7,428.415C1971.94,428.202 1970.23,431.638 1972.72,432.04C1975.67,432.517 1971.73,436.426 1975.32,438.579C1977.44,439.854 1971.86,442.044 1975.17,447.075C1977.45,450.545 1969.99,451.929 1970.08,458.786C1970.13,462.435 1965.57,459.798 1964.6,462.95C1962.64,469.293 1957.19,460.935 1952.08,465.137C1949.95,466.892 1949.29,462.46 1946.53,463.732C1942.79,465.461 1944.18,458.683 1938.49,458.614C1936.43,458.589 1937.27,456.535 1935.13,454.916C1933.24,453.488 1932.15,449.523 1931.24,443.761C1929.59,433.3 1929.17,422.599 1929.64,411.841C1930.28,397.517 1932.29,383.124 1933.83,369.316C1936.99,341.46 1938.88,313.752 1939.88,285.97C1940.88,258.069 1941.08,230.17 1940.19,201.995C1940.3,199.843 1945.27,154.777 1946.27,139.647C1946.31,139.104 1946.35,138.572 1946.4,138.053ZM1961.58,422.632C1959.8,419.429 1957.32,422.449 1954.41,423.62C1955.26,423.499 1956.14,423.437 1957.02,423.437C1957.86,422.489 1958.56,424.381 1959.47,423.595C1960.32,422.864 1961,422.593 1961.58,422.632ZM1952.33,424.037C1951.64,424.013 1950.94,423.808 1950.22,423.334C1948.59,422.264 1948.48,425.661 1946.61,424.898C1943.04,423.438 1945.1,430.433 1940.65,430.656C1937.99,430.79 1939.76,433.772 1939.65,435.483C1941.75,429.884 1946.48,425.565 1952.33,424.037ZM1939.38,436.253C1939.29,436.361 1939.17,436.45 1939.02,436.518C1936.12,437.801 1937.83,439.841 1938.49,441.388C1938.55,439.601 1938.86,437.878 1939.38,436.253ZM1938.5,442.857C1938.49,442.871 1938.48,442.885 1938.46,442.898C1936.88,444.441 1938.09,445.47 1939.05,446.526C1938.75,445.344 1938.56,444.116 1938.5,442.857ZM1939.78,448.783C1939.77,448.79 1939.77,448.796 1939.77,448.803C1939.17,449.981 1939.99,450.435 1940.79,450.931C1940.41,450.241 1940.07,449.524 1939.78,448.783ZM1941.88,452.663C1941.88,452.67 1941.87,452.677 1941.87,452.684C1941.68,453.478 1942.25,453.667 1942.81,453.88C1942.49,453.488 1942.17,453.082 1941.88,452.663ZM1943.77,454.939C1943.77,454.946 1943.77,454.953 1943.77,454.96C1943.57,457.822 1945.31,457.84 1947.4,457.823C1946.07,457.015 1944.86,456.044 1943.77,454.939ZM1952.98,460.071C1952.98,460.072 1952.98,460.073 1952.98,460.073C1953.44,460.906 1954.06,460.668 1954.75,460.376C1954.15,460.303 1953.56,460.201 1952.98,460.071Z" style="fill:#fff;"/>
        <path d="M1906.38,428.837C1906,430.897 1904.79,432.799 1902.88,434.008C1899.25,436.312 1894.43,435.23 1892.12,431.594C1889.24,429.714 1890.09,426.742 1889,424.232C1886.45,418.339 1890.08,413.218 1899.84,404.097C1903.14,401.01 1908.5,399.389 1914.46,397.148C1947.36,384.787 2010.77,378.928 2027.09,379.156C2036.49,379.436 2045.45,381.351 2053.93,384.794C2061.59,387.903 2068,393.504 2076.05,395.694C2090.05,398.24 2099.35,411.677 2096.81,425.682C2094.26,439.687 2080.82,448.989 2066.82,446.443L2021.69,432.781C2010.58,430.808 1973.56,430.151 1943.54,430.912C1930.4,431.245 1919.18,431.971 1911.65,432.453C1908.93,432.626 1907.32,430.906 1906.38,428.837Z" style="fill:#fff;"/>
        <path d="M2407.23,130.587C2428.04,134.146 2448.7,140.003 2467.78,148.487C2498.83,162.293 2525.21,183.538 2542.96,212.6C2580.94,276.302 2568.36,350.143 2525.18,402.728C2483.53,453.468 2414.37,482.561 2348.79,469.863C2295.07,461.004 2262.39,420.343 2248.78,367.596C2231.46,300.512 2245.12,214.821 2277.1,168.369C2287.11,154.132 2307.57,126.977 2331.03,110.831C2350.18,97.65 2370.83,91.405 2388.4,99.112C2391.99,100.782 2395.09,102.857 2397.54,105.786C2400.91,109.81 2402.89,115.201 2406.67,118.798C2410.05,121.455 2410.65,126.362 2407.99,129.748C2407.75,130.05 2407.5,130.33 2407.23,130.587ZM2394.18,128.654L2381.69,118.123C2372.77,115.699 2364.18,119.918 2355.65,126.288C2368.2,126.258 2381.16,127.02 2394.18,128.654ZM2323.57,158.042C2315.04,168.585 2308.03,178.889 2303.67,185.926C2281.99,220.106 2272.68,277.572 2280.16,328.706C2287.16,376.608 2308.88,420.103 2355.1,425.705C2403.34,430.182 2447.84,401.54 2477.39,364.202C2505.85,328.227 2521.46,281.675 2498.59,237.202C2484.84,209.717 2459.82,190.947 2431.2,179.062C2399.71,165.987 2364.37,160.513 2333.55,160.78C2329.88,160.951 2326.43,159.923 2323.57,158.042Z" style="fill:#fff;"/>
        <path d="M2880.27,400.818C2878.53,382.544 2879.52,360.228 2876.84,349.957C2876.13,347.258 2875.6,344.41 2876.86,343.95C2876.97,343.912 2877.07,343.875 2877.18,343.841C2874.13,340.706 2872.25,336.429 2872.25,331.717C2872.25,322.109 2880.05,314.309 2889.66,314.309C2892.69,313.377 2903.62,317.2 2914.54,332.06C2921.39,341.372 2928.28,358.596 2935.06,375.787C2942.27,394.098 2946.97,413.136 2948.57,425.785C2950.18,438.512 2946.37,447.859 2943.2,453.816C2937.57,465.201 2907.62,481.682 2907.73,467.722C2904.89,467.952 2901.79,468.024 2898.44,467.86C2893.72,467.629 2887.06,467.673 2879.84,466.696C2864.93,464.679 2847.68,459.091 2844.28,459.15C2812.43,459.508 2781.19,463.217 2749.58,463.91C2735.08,464.229 2720.58,464.08 2705.92,462.686C2695.39,461.71 2684.97,460.114 2674.7,457.681C2653.71,452.714 2633.5,445.198 2612.46,442.245C2609.25,444.412 2604.85,443.904 2602.23,440.917C2600.31,438.719 2599.84,435.742 2600.75,433.168C2599.81,434.155 2598.96,434.799 2598.96,434.799C2598.96,434.799 2596.3,431.134 2595.03,429.38C2591.23,424.131 2597.44,421.28 2599.32,415.389C2600.53,411.607 2604.59,413.993 2613.29,408.155C2620.31,407.599 2627.19,407.39 2634.26,407.779C2658.78,409.127 2683.09,415.827 2707.93,415.593C2720.73,415.468 2733.28,414.22 2745.8,412.642C2777.48,408.647 2808.5,401.759 2840.47,398.112C2844.37,397.69 2862.51,398.306 2880.27,400.818ZM2612.43,442.241C2612.09,442.193 2611.74,442.147 2611.4,442.101C2611.88,442.508 2612.2,442.493 2612.43,442.241ZM2618.23,435.421C2620.5,432.773 2619.01,425.461 2619.01,425.461C2619.01,425.461 2619.44,430.84 2618.23,435.421ZM2925.99,463.318C2927.08,463.057 2928.02,462.601 2928.74,461.857C2928.64,461.959 2927.7,462.546 2925.99,463.318ZM2904.7,406.257C2905.96,406.637 2907.13,406.988 2908.21,407.286C2908.45,407.354 2908.7,407.432 2908.94,407.518C2910.51,407.014 2912.04,406.588 2913.47,406.273C2913.33,402.621 2909.29,403.764 2904.7,406.257Z" style="fill:#fff;"/>
        <path d="M2658.94,147.316C2667.55,146.87 2676.51,146.326 2685.4,145.507C2704.64,143.734 2723.35,140.992 2737.19,136.988C2741.28,135.804 2744.62,134.279 2747.5,133.171C2748.73,132.698 2749.33,135.47 2750.26,134.924L2751.82,141.391C2751.82,134.271 2757.6,128.489 2764.72,128.489C2771.85,128.489 2777.63,134.271 2777.63,141.391L2776.85,154.865C2775.05,160.02 2771.09,164.008 2765.44,168.292C2756.15,175.346 2739.28,178.319 2720.7,179.836C2690.46,182.306 2652.87,179.904 2626.95,175.695C2617.28,174.125 2609.72,171.853 2604.21,170.544C2593.05,166.949 2591.61,162.219 2592.14,159.128C2592.45,157.329 2592.86,155.072 2594.79,152.962C2597.8,149.667 2608.36,144.932 2612.59,143.785L2649.86,142.668C2653.66,141.735 2657.51,143.781 2658.94,147.316Z" style="fill:#fff;"/>
        <path d="M2687.49,161.216C2684.07,171.742 2704.46,217.174 2706.25,231.303L2703.09,372.048C2704.36,380.887 2698.2,389.089 2689.36,390.352C2680.53,391.615 2672.32,385.464 2671.06,376.624C2668.68,366.58 2666.71,356.476 2666.28,346.063C2664.71,308.389 2675.28,269.796 2674.91,232.464C2675.43,218.294 2668.97,183.679 2670.92,165.304C2672.92,146.399 2681.73,139.136 2691.92,146.469C2695.79,148.351 2697.41,153.021 2695.53,156.892C2694.02,159.988 2690.73,161.641 2687.49,161.216ZM2687.66,160.773C2690.47,160.644 2693.27,159.442 2690.94,159.08C2689.29,158.824 2688.24,159.449 2687.66,160.773Z" style="fill:#fff;"/>
        <path d="M2961.78,128.253C2963.08,126.958 2964.77,126.25 2966.42,126.5C2967.72,126.152 2969.17,125.863 2970.77,125.645C2974.23,125.175 2978.63,123.668 2985.03,123.339C2993.64,122.897 3004.59,124.288 3016.35,123.95C3025.68,123.909 3087.87,115.348 3124.58,116.808C3137.97,117.34 3148.14,119.761 3152.87,121.361C3160.75,124.021 3164.77,127.902 3166.15,130.679C3171.09,138.922 3168.42,149.629 3160.18,154.575C3155.31,157.493 3149.59,157.757 3144.7,155.79C3143.99,159.171 3133.74,157.001 3124.26,157.226C3087.32,158.103 3024.54,156.065 3015.19,155.329C3002.45,154.016 2990.4,153.111 2981.48,150.209C2975.21,148.173 2971.29,145.394 2968.03,143.889C2967.04,143.428 2966.14,142.942 2965.35,142.436C2964.47,142.406 2963.6,142.229 2962.74,141.889C2955.98,141.145 2952.97,132.869 2961.78,128.253Z" style="fill:#fff;"/>
        <path d="M2978,462.48C2977.37,463.45 2976.98,463.901 2977.12,462.761C2977.17,462.405 2977.53,462.388 2978,462.48ZM3235,416.997C3234.78,411.871 3234.4,406.746 3233.84,401.623C3232.35,387.952 3229.93,374.422 3226.85,361.113C3225.87,355.396 3220.79,345.16 3221.21,339.882C3222.11,328.622 3225.07,320.096 3237.03,323.266C3240.48,324.18 3244.51,324.147 3246.82,327.991C3249.12,331.814 3248.95,342.312 3251.08,345.167C3251.91,345.894 3252.56,346.76 3253,347.701C3254.61,349.543 3256.04,351.259 3256.56,352.529C3261.48,366.638 3265.61,381.086 3268.93,395.757C3272.35,410.851 3274.58,426.096 3275.5,441.475C3275.89,447.699 3276.94,459.182 3275.34,464.555C3271.42,477.697 3261.97,482.756 3246.98,479.923C3238.9,478.409 3216.63,470.42 3220.58,461.853C3211.27,460.625 3196.79,461.883 3180.31,462.911C3138.08,465.545 3084.74,472.144 3062.63,475.081C3053.13,476.084 3005,464.088 2979.9,462.889C2979.32,462.862 2978.58,462.592 2978,462.48C2979.03,460.911 2980.72,457.98 2981.93,458.226C2983.06,458.456 2982.04,456.281 2983.07,456.662C2984.07,457.036 2983.1,454.896 2984.09,455.175C2989.73,456.773 2982.69,447.459 2987.94,446.586C2990.21,446.208 2986.22,443.458 2988.41,442.626C2992.1,441.231 2983.19,438.83 2986.56,435.606C2987.75,434.473 2984.6,435.171 2983.02,434.797C2986.13,442.809 2982.68,452.038 2974.84,455.958C2966.53,460.116 2956.4,456.74 2952.24,448.425C2943.83,447.17 2950.27,441.768 2945.4,438.507C2943.01,436.909 2946.65,435.665 2944.74,433.799C2942.88,431.983 2946.5,431.45 2945.02,429.421C2940.72,423.529 2951.06,425.327 2949.73,417.779C2949.28,415.245 2952.16,416.864 2952.49,414.141C2953.13,408.935 2958.37,409.797 2964.44,405.758C2971.18,401.274 2986.33,403.338 3002.36,405.476C3023.66,408.319 3050.15,416.691 3056.48,416.042C3076.54,414.438 3121.22,410.148 3161.41,410.026C3191.89,409.934 3219.82,412.335 3235,416.997ZM3224.18,462.522C3224.18,462.522 3224.18,462.523 3224.18,462.523C3224.18,462.523 3224.18,462.522 3224.18,462.522ZM3247.05,339.88C3247.95,338.251 3249.25,336.215 3247.88,336.871C3246.62,337.472 3246.51,338.546 3247.05,339.88ZM3235.22,444.599C3229.89,448.425 3227.8,452.492 3234.71,453.016C3237.52,453.229 3236.06,448.325 3235.22,444.599Z" style="fill:#fff;"/>
        <path d="M3066.14,146.796C3066.27,151.27 3067.24,155.995 3067.86,160.953C3069.59,174.705 3072.83,188.977 3074.65,200.068L3086.13,348.355C3087.43,370.691 3091.64,398.148 3091.86,410.704C3091.88,412.357 3090.55,414.187 3091.47,414.728C3096.81,417.85 3085.59,416.002 3086.41,415.289C3088.58,413.399 3084.43,413.609 3085.38,412.496C3087.62,409.839 3084.77,409.939 3083.34,409.335C3085.32,412.367 3086.47,415.987 3086.47,419.874C3089.66,421.522 3085.52,422.447 3086.55,423.214C3089.89,425.684 3083.94,425.731 3085.41,427.441C3087.49,429.851 3082.51,428.764 3083.68,430.801C3084.9,432.933 3081.06,431.33 3081.8,433.263C3082.36,434.754 3079.94,433.335 3080.31,434.746C3081.85,440.6 3074.54,433.627 3073.92,438.599C3073.31,443.528 3069.55,435.502 3067.41,439.807C3066.51,441.613 3065.79,437.954 3064.62,439.65C3063.19,441.722 3063.04,437 3061.16,438.888C3057.86,442.201 3060.25,433.071 3054.82,435.51C3052.13,436.718 3055.4,431.438 3051.51,432.157C3049.33,432.56 3052.71,429.048 3049.51,429.033C3047.55,429.023 3052.47,425.857 3047.79,424.732C3046.28,424.368 3048.1,426.69 3042.06,420.205C3041.22,419.302 3041.14,417.597 3040.8,415.722C3038.45,402.756 3037.98,373.579 3037.64,350.108L3036.29,202.982C3036.46,188.873 3033.77,169.573 3037.42,152.981C3039.4,143.955 3042.36,136.013 3047.44,129.495C3057.65,122.306 3060.16,120.816 3064.7,124.323C3068.53,127.278 3073.39,133.867 3072.42,140.294C3071.91,143.663 3069.31,146.202 3066.14,146.796ZM3082.63,408.325C3082.65,408.227 3082.69,408.122 3082.74,408.007C3083.71,405.93 3082.01,406.305 3080.77,406.18C3081.44,406.848 3082.07,407.565 3082.63,408.325ZM3079.67,405.165C3079.68,405.078 3079.69,404.983 3079.71,404.88C3080.01,403.524 3078.99,403.96 3078.19,404.022C3078.7,404.38 3079.2,404.761 3079.67,405.165ZM3077.36,403.47C3077.35,403.392 3077.35,403.303 3077.35,403.204C3077.65,398.942 3075.55,400.49 3073.25,401.538C3074.71,402.022 3076.08,402.674 3077.36,403.47ZM3068.81,400.621C3068.78,400.554 3068.74,400.485 3068.72,400.413C3068.22,399.218 3067.66,400.009 3067.06,400.55C3067.09,400.55 3067.12,400.55 3067.14,400.55C3067.7,400.55 3068.26,400.574 3068.81,400.621ZM3065.77,400.599C3065.72,400.543 3065.68,400.479 3065.63,400.406C3064.57,398.68 3063.99,399.862 3063.25,400.943C3064.07,400.775 3064.91,400.659 3065.77,400.599ZM3060.66,401.668C3060.6,401.619 3060.53,401.565 3060.47,401.507C3058.81,399.959 3058.58,401.298 3058.15,402.77C3058.95,402.346 3059.79,401.977 3060.66,401.668ZM3054.92,404.915C3054.83,404.882 3054.74,404.846 3054.65,404.806C3053.6,404.353 3053.76,405.246 3053.7,405.998C3054.09,405.621 3054.49,405.259 3054.92,404.915ZM3052.85,406.878C3052.75,406.868 3052.65,406.848 3052.53,406.817C3051.12,406.44 3051.4,407.393 3051.57,408.44C3051.97,407.897 3052.39,407.376 3052.85,406.878ZM3050.18,410.621C3050.07,410.627 3049.95,410.629 3049.83,410.626C3048.93,410.605 3049.41,411.288 3049.55,411.875C3049.74,411.449 3049.95,411.03 3050.18,410.621ZM3049.24,412.607C3049.14,412.645 3049.01,412.672 3048.86,412.686C3047.89,412.774 3048.28,413.332 3048.72,414.039C3048.87,413.553 3049.05,413.076 3049.24,412.607ZM3048.07,416.764C3047.96,416.807 3047.85,416.85 3047.72,416.89C3047.33,417.017 3047.59,417.243 3047.96,417.548C3047.99,417.285 3048.03,417.024 3048.07,416.764Z" style="fill:#fff;"/>
        <path d="M3345.51,134.88C3345.79,134.782 3346.08,134.694 3346.37,134.615C3352.83,132.878 3384.25,123.604 3386.84,122.669L3438.89,107.405C3440.17,105.341 3441.71,103.713 3443.34,102.545C3446.9,100.012 3453.72,96.4 3459.88,95.878C3465.12,95.433 3470.01,95.978 3473.8,98.144C3484.55,104.297 3487.74,112.642 3482.04,122.858C3481.08,124.582 3479.19,126.761 3476.98,128.797C3490.2,152.346 3520.82,190.651 3527.21,205.569C3532.94,218.987 3537.69,232.768 3542,246.758C3551.46,277.454 3558.31,309.093 3567.58,339.683L3577.41,381.947C3578.73,382.694 3579.85,383.375 3580.13,383.957C3582.53,388.912 3586.32,390.705 3585.95,393.91C3584.8,404.003 3591.21,411.087 3585.34,415.863C3580.73,419.605 3581.62,428.071 3574.21,428.711C3572.18,428.886 3571.29,431.615 3568.83,431.319C3566,430.979 3562.97,435.366 3558.14,432.863C3562.35,435.048 3565.67,429.095 3572.65,428.524C3574.75,428.353 3574.79,424.745 3577.88,423.532C3578.57,423.261 3578.41,421.988 3577.93,420.964C3576.63,418.197 3570.78,418.268 3571.41,420.24C3572.67,424.207 3570.21,421.127 3569.24,418.31C3567.77,426.332 3560.74,432.42 3552.3,432.42C3546.68,432.42 3541.69,429.725 3538.55,425.558C3539.74,422.718 3537.99,419.938 3535.2,417.251C3535.12,416.579 3535.08,415.896 3535.08,415.203C3530.72,413.233 3537.09,416.332 3531.63,403.55C3531.01,402.114 3532.24,400.789 3532.24,398.991C3532.24,395.431 3533.78,392.809 3535.03,390.498C3531.11,394.589 3527.8,397.879 3530.35,403.281C3531.53,405.773 3529,408.681 3531.09,411.071C3531.91,412.004 3532.07,413.297 3532.22,414.655C3527.71,411.012 3522.42,407.568 3521.5,404.409L3512.5,354.109C3505.58,322.898 3501.09,290.844 3494.06,259.497C3491.22,246.822 3488.08,234.279 3483.97,222.001C3478.74,206.273 3449.89,163.881 3439.72,139.912L3393.15,148.437C3390.25,148.829 3355.55,151.996 3348.45,151.836C3347.86,151.823 3347.27,151.784 3346.68,151.722C3337.33,154.702 3334.14,151.516 3334.72,147.079C3329.04,142.593 3329.12,136.346 3345.51,134.88ZM3538.55,425.558C3538.5,425.674 3538.44,425.791 3538.38,425.907C3536.91,428.815 3536.19,420.896 3534.93,420.157C3532.66,418.817 3532.45,416.664 3532.22,414.655C3533.28,415.51 3534.3,416.376 3535.2,417.251C3535.57,420.345 3536.76,423.189 3538.55,425.558ZM3551.19,377.42C3553.74,377.405 3556.23,377.512 3558.14,376.525C3555.38,377.955 3553,375.819 3551.61,377.066C3551.47,377.19 3551.33,377.308 3551.19,377.42ZM3577.22,381.838C3576.22,378.161 3574.79,374.223 3572.64,376.41C3570.77,378.322 3574.37,380.23 3577.22,381.838ZM3473.51,122.062C3474.7,119.856 3474.77,118.34 3472.16,119.068C3471.63,119.215 3472.66,120.124 3472.94,120.764C3473.12,121.187 3473.31,121.62 3473.51,122.062Z" style="fill:#fff;"/>
        <path d="M3372.36,344.414C3372.04,344.394 3371.69,344.315 3371.31,344.15C3371.65,344.233 3372,344.321 3372.36,344.414ZM3366.09,322.774C3366.01,320.169 3367.31,318.903 3371.16,320.519C3371.21,320.497 3371.26,320.474 3371.31,320.452C3374.73,319.448 3378.74,317.43 3384.64,316.105C3393.47,314.12 3404.78,313.106 3417.03,312.169C3441.93,310.264 3470.31,310.771 3489.98,314.219C3517.14,318.979 3530.03,335.001 3530.01,348.648C3530.01,360.189 3520.64,369.56 3509.1,369.56C3501.28,369.56 3494.47,365.266 3490.88,358.912C3491.12,358.842 3491.38,358.538 3491.64,357.935C3492.84,355.179 3491.52,353.44 3488.52,352.37C3488.53,352.422 3488.53,352.474 3488.54,352.526C3488.53,352.474 3488.52,352.421 3488.51,352.368C3478.99,348.979 3452.54,352.339 3435.8,351.432C3419.66,350.558 3403.72,350.118 3391.21,348.468C3383.04,347.391 3376.9,345.582 3372.36,344.414C3373.82,344.501 3374.7,343.332 3374.7,343.332C3374.7,343.332 3374.56,343.105 3374.33,342.697C3372.85,343.105 3371.55,343.455 3370.64,343.742C3294.43,367.889 3295.56,354.465 3366.09,322.774ZM3490.88,358.912C3489.87,359.19 3489.01,355.673 3488.54,352.526C3488.97,354.806 3489.77,356.957 3490.88,358.912Z" style="fill:#fff;"/>
        <path d="M3336.65,417.837C3336.84,416.905 3337.16,415.912 3337.61,414.855C3339.18,411.228 3340.62,405.937 3343.35,400.383C3349.34,388.154 3358.54,374.609 3361.29,369.439C3371.99,349.696 3381.11,328.583 3389.46,307.004C3402.22,274.071 3413.12,240.041 3423.9,207.604C3424.34,206.498 3434.45,167.421 3439.5,151.751C3440.32,149.204 3441.14,146.683 3441.96,144.189C3450.28,-56.734 3466.6,-35.239 3463.37,84.007C3504.98,-23.626 3530.26,-35.081 3460.28,147.295C3460.09,150.064 3459.89,152.861 3459.68,155.684C3458.41,173.036 3452.13,215.237 3451.84,216.463C3441.8,249.69 3431.87,284.608 3419.63,318.319C3411.25,341.424 3401.72,363.929 3390.68,385.07C3387.8,390.483 3380.22,405.896 3371.9,417.477C3368.13,422.725 3364,426.685 3361.28,429.794C3348.03,444.972 3332.26,427.26 3333.31,424.299C3333.81,421.78 3335,419.574 3336.65,417.837Z" style="fill:#fff;"/>
        <path d="M3424.84,442.455C3424.84,442.516 3424.84,442.523 3424.84,442.455ZM3424.77,441.602C3424.8,441.821 3424.82,442.047 3424.83,442.28C3424.84,442.362 3424.84,442.419 3424.84,442.455C3424.83,442.333 3424.81,441.993 3424.77,441.602ZM3424.26,439.96C3424.26,439.96 3424.27,439.96 3424.27,439.959C3424.53,439.917 3424.69,440.853 3424.77,441.602C3424.68,441.007 3424.51,440.461 3424.26,439.96ZM3418.8,436.179C3421.47,436.94 3423.37,438.151 3424.26,439.96C3422.14,440.295 3422.28,437.334 3420.7,437.632C3419.57,437.846 3419.2,436.985 3418.8,436.179ZM3412.61,429.018C3412.89,432.099 3413.21,434.937 3417.38,434.932C3418.14,434.932 3418.48,435.538 3418.8,436.179C3404.18,432.016 3366.41,441.353 3343.87,440.107C3327.4,439.197 3314.67,436.834 3309.91,436.14C3309.09,437.154 3308,437.974 3306.7,438.482C3294.32,447.109 3290.25,435.769 3288.81,429.142C3287.63,423.725 3292.81,416.489 3303.61,410.805C3305.94,409.831 3320.14,403.878 3340.01,398.972C3370,391.569 3410.79,384.339 3427.7,386.956C3434.96,388.08 3440.1,389.179 3442.12,391.548C3445.02,394.965 3448.55,393.314 3449.13,396.315C3450.77,404.78 3460.4,404.379 3457.67,410.151C3454.98,415.854 3462.84,421.413 3456.66,425.075C3455.17,425.958 3456.56,428.18 3454.74,428.875C3452.14,429.872 3453.52,434.461 3449.65,434.587C3446.18,434.701 3445.09,440.713 3437,437.544C3427.77,441.236 3417.39,437.428 3412.61,429.018ZM3410.33,422.714C3409.85,419.992 3409.96,417.252 3410.59,414.657C3409.53,417.83 3407.13,420.423 3410.13,422.565C3410.2,422.613 3410.27,422.663 3410.33,422.714ZM3410.88,413.601C3412.5,408.263 3416.36,403.655 3421.83,401.271C3421.19,400.708 3420.56,397.899 3420.39,398.653C3419.93,400.765 3417.04,398.692 3416.97,400.221C3416.82,403.311 3412.51,402.61 3412.88,404.869C3413.3,407.427 3409.67,407.87 3410.55,409.923C3411.1,411.225 3411.12,412.449 3410.88,413.601Z" style="fill:#fff;"/>
        <path d="M3494.96,412.668C3496.87,412.163 3499.09,411.826 3501.66,411.696C3508.51,411.932 3515.09,411.475 3521.98,411.773C3549.78,412.972 3578.04,413.062 3605.28,418.344C3614.4,420.112 3622.98,423.389 3631.66,426.469C3643.16,429.345 3650.16,441.02 3647.29,452.524C3644.41,464.028 3632.74,471.033 3621.23,468.157C3615.45,467.676 3609.8,468.225 3604.03,467.386C3580.6,463.986 3557.42,457.964 3534.17,452.423C3520.92,449.265 3508.25,445.302 3495.51,440.895C3487.91,437.213 3484.41,435.949 3483.65,435.067C3475.8,426.028 3475.37,420.741 3479.05,417.751C3480.56,416.524 3482.41,409.827 3489.75,411.401C3490.75,411.616 3492.64,412.074 3494.96,412.668Z" style="fill:#fff;"/>
        <path d="M4010.56,421.676C4012.15,421.328 4013.8,420.856 4013.45,422.086C4013.13,423.216 4012.05,422.804 4010.56,421.676ZM3684.18,130.679C3684.12,130.623 3684.09,130.595 3684.09,130.595C3684.09,130.595 3687.14,129.227 3690.32,128.454C3704.68,124.962 3736.86,121.241 3761.24,120.552C3794.72,120.007 3837.38,126.213 3871.62,144.037C3897.59,157.561 3918.18,178.151 3929.22,205.476C3940.78,235.245 3932.84,257.622 3915.65,274.315C3907.87,281.867 3897.2,287.872 3885.35,292.704C3887.6,294.025 3889.75,295.404 3891.82,296.836C3918.04,314.939 3928.95,345.077 3963.03,384.886C3967.11,389.707 3986.16,403.763 4001.57,414.111C4004.68,416.197 4008.15,419.863 4010.56,421.676C4009.63,421.878 4008.72,422.039 4008.23,421.802C4006.08,420.771 4006.04,424.731 4004.45,423.348C4003.35,422.401 4003.26,425.251 4002.14,424.467C4001.04,423.693 4001.19,426.306 4000.06,425.669C3999.01,425.077 3999.34,427.366 3998.27,426.882C3993.19,424.569 3997.02,434.204 3991.58,434.096C3987.54,434.016 3993.16,439.88 3988.89,441.274C3987.13,441.849 3990.58,443.867 3988.76,444.819C3987.19,445.636 3989.8,446.421 3991.23,447.621C3990.78,437.108 3998.23,427.655 4008.87,425.881C4020.38,423.963 4031.28,431.748 4033.2,443.255C4035.37,444.407 4033.31,445.762 4035.01,446.969C4040.43,450.797 4032.9,453.211 4035.68,457.343C4036.87,459.1 4033.84,459.169 4034.73,460.959C4035.57,462.66 4032.8,462.354 4033.41,464.08C4033.94,465.605 4031.59,465.065 4031.95,466.608C4033.47,472.912 4024.83,468.389 4023.7,474.973C4022.72,480.691 4018.7,475.447 4013.4,479.89C4010.48,482.336 4005.4,480.409 3999.93,479.79C3979.92,477.53 3925.63,433.73 3916.89,423.335C3887.83,387.523 3880.05,360.226 3857.94,342.98C3846.79,334.286 3831.53,328.572 3805.62,325.544L3763.88,320.132L3747.88,317.957C3747.02,317.938 3745.91,317.314 3744.69,316.223C3738.72,314.023 3736.22,308.783 3735.8,302.646C3730.67,290.537 3729.81,275.154 3747.55,271.955C3747.59,271.946 3747.63,271.939 3747.67,271.933C3748.55,271.778 3749.47,271.653 3750.44,271.56C3761.19,270.519 3786.92,267.593 3794.75,265.953C3810.33,262.547 3839.35,257.921 3862.46,248.08C3874.59,242.912 3887.05,237.263 3881.8,223.262C3874.41,201.85 3856.18,187.885 3835.51,178.148C3811.06,166.627 3783.24,160.41 3760.21,158.727C3738.19,156.912 3709.18,159.175 3694.81,158.887C3688.72,159.747 3681.84,158.761 3680.58,155.373C3673.22,151.159 3670.6,144.603 3670.66,144.31C3677.41,133.274 3677.45,127.156 3683.88,130.553C3683.98,130.606 3684.08,130.647 3684.18,130.679Z" style="fill:#fff;"/>
        <path d="M3715.96,152.901C3715.2,154.121 3715.4,154.918 3715.98,155.53C3715.62,152.785 3716.74,149.934 3719.14,148.195C3719.2,148.151 3719.26,148.108 3719.32,148.066C3718.56,148.373 3717.83,148.62 3717.83,148.62C3717.83,148.62 3718.87,144.78 3719.35,142.723C3720.2,139.028 3724.05,140.164 3725.41,138.521C3729.41,133.701 3730.96,141.246 3737.05,141.584C3739.73,141.733 3737.22,145.475 3741.22,148.631C3742.75,150.35 3743.97,151.022 3745.03,153.082C3751.75,166.259 3751.32,182.225 3753.28,197.371C3758.24,235.549 3758.52,275.182 3759.19,312.13C3759.22,317.658 3764.86,367.029 3756.34,382.955C3754.47,386.45 3752.58,389.553 3750.69,392.295C3754.6,401.511 3745.03,411.77 3733.11,408.603C3717.74,415.499 3707,401.711 3714.19,390.783C3712.45,387.551 3710.78,383.823 3709.23,379.547C3703.33,363.219 3714.23,316.915 3714.38,311.603C3716.59,265.695 3716.64,215.754 3714.01,168.955C3713.77,164.717 3712.59,160.433 3713.68,156.383C3714.16,154.579 3714.98,154.437 3715.96,152.901ZM3720.94,147.216C3722.61,146.583 3724.41,146.552 3726.07,147.072C3724.34,145.605 3722.83,144.693 3720.96,147.194C3720.96,147.201 3720.95,147.208 3720.94,147.216ZM3720.16,160.655C3720.66,161.431 3721.52,161.528 3722.62,161.399C3721.72,161.167 3720.89,160.913 3720.16,160.655ZM3715.96,152.901C3715.98,152.879 3715.99,152.856 3716.01,152.834C3715.99,152.856 3715.98,152.879 3715.96,152.901Z" style="fill:#fff;"/>
        <path d="M3661.04,436.319C3660.44,437.595 3659.9,438.913 3660.08,437.62C3660.16,437.001 3660.5,436.582 3661.04,436.319ZM3785.96,443.83C3785.71,441.532 3784.17,439.78 3781.62,438.465C3777.45,430.985 3778.39,421.408 3784.47,414.885C3783.61,415.131 3782.05,414.427 3782.14,415.2C3782.51,418.386 3777.14,418.07 3778.44,420.274C3779.66,422.368 3775.88,423.8 3777.35,425.51C3780.64,429.327 3775.54,435.407 3780.55,437.767C3780.73,437.851 3780.91,438.003 3781.09,438.207C3764.49,430.427 3710.03,439.121 3683.73,438.652C3674.31,438.484 3664.18,434.797 3661.04,436.319C3661.45,435.46 3661.88,434.621 3662.15,434.609C3662.2,434.619 3662.25,434.627 3662.29,434.634C3660.92,434.197 3659.65,433.376 3658.66,432.185C3657.21,431.362 3655.08,434.569 3653.06,435.218C3647.7,436.946 3646.54,433.127 3644.14,433.119C3642.34,433.113 3643.27,430.834 3641.76,430.492C3635.24,429.011 3642.98,424.051 3640.2,417.59C3639,414.776 3644.36,415.997 3645.62,409.809C3647.29,408.128 3660,402.254 3679.74,397.569C3716.97,388.732 3780.02,383.547 3802.42,390.534C3805.99,391.649 3809.48,392.451 3811.39,394.569C3814.59,398.095 3817.86,398.3 3818.64,401.929C3820.87,412.327 3831.41,416.002 3826.15,423.263C3824.65,425.346 3827.08,427.355 3824.99,429.132C3820.57,432.897 3823.24,441.494 3813.53,442.907C3805.97,450.466 3793.89,450.774 3785.96,443.83ZM3785.96,443.83C3786.03,444.4 3786.01,445.003 3785.91,445.642C3785.28,449.731 3783.16,440.535 3781.09,438.207C3781.27,438.291 3781.45,438.377 3781.62,438.465C3782.51,440.057 3783.62,441.555 3784.98,442.907C3785.3,443.228 3785.63,443.536 3785.96,443.83ZM3666.34,418.989C3666.38,418.898 3666.42,418.807 3666.47,418.716C3667.81,416.033 3662.57,416.905 3662.21,412.938C3662.15,412.217 3660.39,412.41 3659.11,412.535C3659.46,413.414 3659.7,415.083 3660.82,415.916C3662.57,417.22 3664.58,418.119 3666.34,418.989Z" style="fill:#fff;"/>
        <path d="M4067.91,140.752C4065.93,142.115 4063.34,142.547 4060.9,141.69L4059.55,141.95C4058.73,142.397 4058.26,142.998 4058.32,143.798C4058.38,144.645 4057.86,142.97 4057.95,142.26L4046.13,144.544C4040.85,146.89 4042.18,139.778 4038.96,138.373C4035.1,136.691 4040.63,133.873 4039.04,128.101C4038.5,126.144 4040.81,125.731 4044.01,120.458C4048.05,113.811 4067.41,105.091 4069.49,104.282C4081.29,101.802 4093.31,100.328 4105.42,99.452C4117.29,98.593 4129.19,98.51 4140.97,98.742C4184.38,99.75 4238.08,107.685 4278.44,131.847C4309.44,150.407 4332.32,178.504 4340.91,217.548C4357.42,301.986 4338.84,363.102 4298.29,400.853C4258.43,437.969 4195.3,453.596 4117.38,443.125C4109.48,441.785 4101.45,439.709 4093.78,436.264C4085.74,432.656 4077.74,428.844 4070.47,424.383C4065.72,421.469 4063.87,416.876 4059.06,414.894C4051.49,414.894 4045.35,408.754 4045.35,401.191C4045.35,393.629 4051.49,387.489 4059.06,387.489C4067.27,384.242 4074.78,383.613 4084.27,384.331C4097.45,385.33 4110.42,392.714 4123.33,393.119C4182.51,399.26 4230.5,389.307 4260.12,360.642C4288.52,333.149 4297.42,288.853 4285.13,228.704C4279.84,198.838 4259.04,180.222 4234.01,167.639C4204.05,152.58 4168.4,145.103 4138.27,142.005L4075.47,141.136C4074.91,141.108 4071.53,140.764 4067.91,140.752ZM4058.4,126.285C4058.44,124.144 4054.97,126.049 4053.29,123.059C4053.84,124.029 4051.73,124.975 4052.76,125.47C4054.46,126.291 4056.41,126.345 4058.4,126.285Z" style="fill:#fff;"/>
        <path d="M4090.51,125.187C4091.68,125.275 4092.81,125.448 4093.41,124.325C4093.62,123.921 4095.63,125.426 4094.85,125.34C4080.32,123.754 4097,178.79 4097.29,185.9C4098.79,243.363 4101.43,300.764 4097.51,358.041C4095.83,382.674 4091.91,407.057 4088.37,431.532C4087.41,440.621 4079.25,447.224 4070.16,446.267C4061.08,445.31 4054.47,437.154 4055.43,428.065C4056.04,411.853 4055.57,395.725 4056.57,379.554C4060.62,314.803 4068.11,250.497 4071.03,185.623C4071.41,179.056 4069.36,146.166 4073.63,128.333C4076.89,114.736 4084.54,108.407 4089.74,109.694C4094.03,109.93 4097.33,113.611 4097.1,117.908C4096.89,121.649 4094.08,124.632 4090.51,125.187Z" style="fill:#fff;"/>
    </g>
</svg>
