<?xml version="1.0" encoding="UTF-8" standalone="no"?>
<!DOCTYPE svg PUBLIC "-//W3C//DTD SVG 1.1//EN" "http://www.w3.org/Graphics/SVG/1.1/DTD/svg11.dtd">
<svg width="100%" height="100%" viewBox="0 0 4430 591" version="1.1" xmlns="http://www.w3.org/2000/svg" xmlns:xlink="http://www.w3.org/1999/xlink" xml:space="preserve" xmlns:serif="http://www.serif.com/" style="fill-rule:evenodd;clip-rule:evenodd;stroke-linejoin:round;stroke-miterlimit:2;">
    <g id="Layer3">
        <path d="M176.89,141.031C176.696,141.147 176.556,141.134 176.471,140.914C176.064,139.854 176.344,140.25 176.89,141.031ZM180.673,144.074C180.419,143.771 180.058,143.594 179.475,143.682C178.805,143.784 177.614,142.068 176.89,141.031C177.451,140.699 178.464,139.302 179.907,138.781C198.93,139.262 241.833,138.808 286.471,138.626C324.943,138.469 364.524,134.651 390.905,135.65C400.365,136.008 406.585,139.611 412.023,139.379C419.129,136.714 427.062,140.32 429.727,147.426C432.392,154.533 428.786,162.466 421.68,165.131C415.13,170.099 405.693,176.017 391.083,179.778C378.65,182.979 363.041,182.382 346.49,182.648C284.907,183.64 205.702,176.787 177.691,174.23C169.078,168.903 165.06,169.022 164.267,167.158C162.774,163.647 159.183,164.302 159.65,161.866C160.87,155.497 153.53,150.977 159.822,148.483C161.124,147.967 160.308,145.886 162.008,145.676C164.078,145.42 164.874,141.383 169.735,142.843C171.586,143.399 173.099,143.756 176.038,144.025C177.486,144.157 179.063,144.157 180.673,144.074ZM184.44,159.679C182.761,160.154 181.15,160.756 179.783,161.526C178.801,162.079 178.454,163.375 178.143,164.246C179.519,164.291 181.45,164.492 181.484,163.884C181.626,161.33 184.799,161.338 184.44,159.679Z" style="fill:#fff;"/>
        <path d="M307.316,152.186C310.558,149.355 315.489,149.688 318.32,152.93C321.151,156.172 320.818,161.103 317.575,163.934C316.325,166.461 320.536,168.618 321.208,173.61C322.32,181.857 323.726,192.796 325.588,205.948C330.35,239.58 335.637,284.868 334.168,326.13C333.093,356.311 327.16,384.395 314.428,406.21C301.135,428.904 269.353,454.113 236.131,467.462C209.769,478.054 182.568,479.97 161.498,472.085C154.256,469.381 147.456,465.147 140.968,460.097C132.043,453.15 124.22,443.615 115.384,437.82C108.261,432.693 92.559,429.811 84.988,421.731C80.08,416.492 77.258,413.541 75.98,408.108C67.563,399.691 67.563,386.024 75.98,377.608C84.397,369.191 98.063,369.191 106.48,377.608C109.116,378.539 111.539,374.375 115.264,375.287C126.973,378.152 139.472,385.532 146.994,390.405L182.497,420.754C195.203,426.404 212.772,421.655 229.118,414.436C248.149,406.032 266.101,393.708 274.421,381.206C296.44,348.201 293.357,293.165 291.722,247.08C290.791,220.807 289.662,197.118 291.532,180.468C291.995,176.352 292.15,172.542 293.439,169.417C297.542,159.473 301.476,154.069 307.316,152.186Z" style="fill:#fff;"/>
        <path d="M623.016,104.788C638.535,99.399 652.053,98.491 664.288,101.273C679.974,104.839 694.693,114.719 709.103,132.254C720.008,145.525 730.297,164.403 742.086,188.357C771.98,251.125 780.55,305.591 765.95,347.989C750.179,393.786 708.571,428.539 633.846,443.87C605.917,449.615 575.475,454.876 545.999,453.228C524.597,452.032 503.666,447.539 484.354,437.429C429.078,409.179 422.183,318.148 450.532,233.508C477.366,153.391 532.919,82.512 587.107,80.973C593.817,81.416 603.384,85.064 612.161,93.339C615.789,96.759 619.47,100.744 623.016,104.788ZM597.251,116.842L588.371,111.312C543.731,113.765 504.798,177.733 484.406,244.362C464.481,309.465 459.678,380.548 502.382,400.998C516.638,407.653 531.932,409.951 547.402,410.093C573.07,410.329 599.233,404.109 623.25,397.958C674.504,384.803 704.296,362.937 714.509,330.928C724.759,298.803 715.873,258.65 693.55,211.374C684.284,191.079 675.788,175.374 667.619,163.572C661.857,155.247 657.682,148.387 650.959,145.878C633.379,139.318 611.929,150.553 576.953,171.875C569.409,177.184 558.975,175.369 553.666,167.825C548.357,160.281 550.172,149.846 557.716,144.537C572.127,132.909 585.232,123.758 597.251,116.842Z" style="fill:#fff;"/>
        <path d="M1032.24,176.234C1028.17,176.105 1026.56,163.485 1025.64,162.432C1021.37,155.932 1013.02,152.727 1003.95,148.799C984.927,140.561 959.301,135.802 934.615,140.388C904.213,146.035 875.801,164.682 868.439,202.92C865.575,218.503 877.174,230.879 891.507,241.841C917.647,261.832 955.425,275.291 975.613,283.294C999.697,292.713 1045.93,287.308 1072.46,304.649C1087.71,314.621 1098.4,330.138 1100.13,355.3C1104.21,413.597 1075.04,438.873 1036.03,449.343C988.97,461.969 920.776,446.062 888.396,445.309C874.596,443.833 859.565,447.809 846.004,445.556C836.42,443.964 827.184,441.294 819.15,434.628C809.235,428.148 806.446,414.836 812.927,404.92C819.408,395.005 832.72,392.216 842.635,398.697L890.715,393.118C920.21,395.055 981.613,414.087 1025.02,404.439C1044.98,400.001 1058.91,386.878 1058.16,357.299C1057.81,344.196 1051.19,337.401 1041.93,333.687C1016.54,323.505 981.044,325.556 961.632,317.081C935.791,305.966 884.474,284.674 856.909,255.8C840.467,238.576 831.691,218.744 835.855,196.81C845.763,142.518 885.195,115.05 928.217,106.7C960.694,100.397 995.919,104.053 1019.59,117.691C1034.41,126.236 1044.77,137.915 1049.34,150.58C1049.85,153.022 1049.47,170.302 1047.94,177.486C1047.07,181.6 1045.63,184.147 1044.29,185.183C1040.88,187.811 1035.98,187.177 1033.35,183.768C1031.63,181.544 1031.31,178.683 1032.24,176.234Z" style="fill:#fff;"/>
        <path d="M1041.52,126.832C1039.24,123.18 1040.36,118.366 1044.01,116.087C1047.66,113.808 1052.47,114.922 1054.75,118.573C1056.41,119.591 1058.32,122.393 1060.48,128.698C1062.61,134.924 1062.01,145.497 1062.28,157.359C1063,189.55 1060.2,232.523 1056.69,242.744C1053.2,251.466 1043.29,255.715 1034.57,252.226C1025.85,248.737 1021.6,238.824 1025.09,230.102C1030.21,218.933 1035.55,159.275 1037.62,134.336C1037.82,131.888 1038.02,129.861 1038.46,128.236C1038.98,126.327 1041.52,127.516 1041.52,126.832Z" style="fill:#fff;"/>
        <path d="M838.976,371.566C839.917,371.456 840.763,371.441 839.857,370.85C837.894,369.569 845.988,368.251 843.991,370.508C840.785,374.132 851.745,379.269 852.027,379.619C856.35,387.223 858.518,395.35 859.799,403.9C861.378,414.439 859.844,425.384 858.967,435.901C858.48,440.118 858.681,448.743 856.097,454.716C854.01,459.541 851.927,462.23 850.284,463.813C843.846,470.017 843.899,474.936 841.631,475.134C830.27,476.121 823.836,484.193 819.265,476.381C818.328,474.779 815.877,475.347 815.146,473.343C814.517,471.619 804.553,467.569 809.159,456.622C809.159,453.81 809.74,451.132 810.788,448.703C810.347,449.166 809.81,449.659 809.421,450.065C808.7,449.096 806.979,447.394 806.911,445.396C806.728,439.964 809.146,433.246 809.619,429.732L813.159,394.194C813.132,393.52 809.355,382.529 812.453,375.949C818.982,362.082 816.603,360.814 823.671,360.272C825.206,360.154 826.467,358.827 828.204,358.729C829.272,358.668 830.464,358.58 831.766,358.914C836.971,359.932 840.37,364.985 839.351,370.19C839.259,370.664 839.132,371.123 838.976,371.566ZM811.583,447.068C812.742,444.939 814.275,443.043 816.094,441.469C813.826,442.305 811.73,443.639 811.583,447.068ZM822.841,437.618C824.585,437.035 826.435,436.685 828.354,436.606C826.396,436.045 824.587,436.124 822.841,437.618ZM842.682,441.817C842.92,442.034 843.153,442.257 843.381,442.486C843.173,442.22 842.944,441.994 842.682,441.817ZM848.041,449.827C848.24,450.378 848.415,450.939 848.566,451.511C848.619,450.822 848.64,450.351 848.361,450.111C848.251,450.017 848.145,449.923 848.041,449.827ZM837.299,374.502C835.689,376.427 833.359,377.677 830.814,377.915C833.93,377.797 836.614,376.69 837.299,374.502ZM809.421,450.065C809.767,450.53 809.883,450.827 809.474,450.907C808.591,451.079 808.842,450.669 809.421,450.065Z" style="fill:#fff;"/>
        <path d="M1271.45,120.417C1270.15,121.199 1268.67,123.275 1265.95,123.331C1263.99,123.372 1264.09,126.127 1263.66,127.885C1267.04,123.089 1272.63,119.954 1278.94,119.954C1281.98,118.289 1283.95,121.354 1286.06,121.068C1293.06,120.121 1292.78,128.067 1296.89,131.246C1300.85,134.304 1296.38,139.113 1297.24,146.319C1297.5,148.491 1294.34,149.472 1293.56,152.89C1292.08,159.419 1281.56,161.422 1278.27,163.883C1266.18,164.693 1206.06,162.436 1181.04,153.448C1174.08,150.95 1170.42,148.424 1168.6,146.666C1168.53,146.597 1168.46,146.529 1168.39,146.463C1087.88,175.169 1104.89,127.808 1184.97,120.349C1207.88,118.216 1258.19,121.896 1271.45,120.417ZM1262.76,129.289C1258.12,131.978 1258.96,135.784 1260.26,139.502C1260.25,139.22 1260.24,138.937 1260.24,138.652C1260.24,135.241 1261.16,132.043 1262.76,129.289ZM1262.02,146.603C1261.87,148.806 1263.12,149.949 1264.92,151.021C1263.76,149.701 1262.77,148.215 1262.02,146.603ZM1272.36,156.156C1272.41,156.215 1272.46,156.275 1272.51,156.335C1273.05,156.974 1273.82,156.965 1274.74,156.875C1273.92,156.687 1273.13,156.446 1272.36,156.156ZM1271.45,120.417C1271.91,120.139 1272.35,120.024 1272.81,120.222C1272.41,120.295 1271.96,120.36 1271.45,120.417Z" style="fill:#fff;"/>
        <path d="M1296.1,141.537C1293.88,134.818 1296.09,128.726 1305.97,129.63C1307.86,128.418 1309.9,127.484 1312.04,126.955C1314.67,126.302 1318.54,125.885 1323.48,125.502C1345.99,123.757 1388.33,122.259 1414.86,122.771C1420.14,122.873 1424.9,122.656 1428.48,123.721C1434.01,125.369 1435.74,128.026 1437.08,128.731C1446.31,128.731 1453.8,136.224 1453.8,145.453C1453.8,154.682 1446.31,162.175 1437.08,162.175C1435.64,162.935 1433.45,165.342 1427.41,166.822C1423.76,167.718 1418.97,167.242 1413.64,167.053C1387.08,166.11 1344.83,162.068 1322.44,158.924C1317.52,158.232 1313.66,157.576 1311.07,156.751C1308.94,156.073 1306.92,154.987 1305.08,153.63C1295.63,153.822 1293.74,147.9 1296.1,141.537Z" style="fill:#fff;"/>
        <path d="M1154.66,422.251C1155.86,421.722 1157.16,421.289 1158.55,420.976C1176.86,416.85 1217.42,408.288 1244.74,407.76C1257.33,407.516 1267.57,409.846 1273.61,412.262C1285.89,416.357 1292.54,429.652 1288.44,441.935C1284.35,454.218 1271.05,460.865 1258.77,456.771C1255.78,455.967 1250.87,457.293 1244.88,457.213C1217.97,456.849 1177.03,458.791 1159.03,454.586C1147.16,451.811 1141.23,448.485 1140.28,445.719C1137.9,438.759 1131.83,434.527 1138.85,429.39C1140.56,428.137 1144.63,424.251 1154.66,422.251Z" style="fill:#fff;"/>
        <path d="M1361.05,423.57C1361.9,423.386 1362.74,423.219 1363.34,422.589C1366.96,418.844 1361.67,420.586 1365.21,416.757C1368.67,413.023 1373.7,412.437 1378.61,411.004C1394.83,406.269 1411.95,405.633 1428.57,405.713C1437.43,405.755 1446.5,405.791 1454.92,408.657C1463.69,411.643 1471.2,416.426 1478.75,422.592C1488.14,427.29 1491.96,438.734 1487.26,448.131C1482.56,457.528 1471.12,461.343 1461.72,456.644C1453.64,454.102 1445.7,455.063 1437.75,454.042C1416.47,451.31 1394.19,455.892 1373.33,449.714C1367.37,447.95 1366.3,445.254 1361.22,441.757C1354.38,440.59 1351.28,438.095 1350.69,436.039C1349.62,432.299 1349,429.298 1350.91,427.352C1352.32,425.925 1356.02,420.932 1361.05,423.57ZM1361.15,423.622C1361.78,423.963 1362.43,424.423 1363.09,425.024C1363.66,425.339 1364.17,425.713 1364.62,426.136C1364,424.728 1362.99,423.508 1361.15,423.622Z" style="fill:#fff;"/>
        <path d="M1217.05,173.967C1218.29,174.249 1219.72,174.873 1218.62,174.793C1215.62,174.577 1218.78,182.274 1220.1,189.205C1221.83,221.422 1226.07,253.585 1227.66,285.881C1228.76,308.148 1228.45,330.446 1226.41,352.726C1226.33,353.497 1220.37,368.057 1218.33,378.922C1220.34,381.653 1221.3,385.112 1220.85,388.6C1219.95,387.382 1218.51,385.898 1217.64,384.893C1217.61,388.082 1218.38,390.294 1220.42,390.659C1220.38,390.824 1220.32,390.989 1220.27,391.154C1219.59,404.854 1210.3,407.056 1208.93,407.924C1203.01,411.659 1198.52,407.055 1192,402.194C1190.44,401.035 1188.9,397.061 1187.89,390.174C1186.52,380.872 1191.96,350.959 1192.04,349.671C1193.34,334.115 1193.37,318.567 1193.23,303.019C1192.89,265.375 1190.2,227.701 1189.85,190.121C1192.82,173.77 1196.43,164.961 1200.32,161.919C1210.66,153.831 1217.18,155.92 1218.4,160.773C1218.93,162.868 1222.32,165.97 1219.19,170.141C1218.84,171.651 1218.08,172.957 1217.05,173.967ZM1220.85,388.6C1221.86,389.951 1222.21,390.976 1220.43,390.659C1220.42,390.659 1220.42,390.659 1220.42,390.659C1220.62,389.975 1220.76,389.287 1220.85,388.6Z" style="fill:#fff;"/>
        <path d="M1347.09,403.028C1347.12,403.664 1347.01,404.095 1346.6,403.998C1345.72,403.794 1346.25,403.44 1347.09,403.028ZM1348.37,402.428C1347.94,402.634 1347.49,402.837 1347.09,403.028C1347.05,401.921 1346.59,400.191 1346.63,399.522L1361.22,325.505C1363.16,315.723 1366.52,286.432 1369.34,254.481C1372.08,223.534 1374.18,190.17 1372.42,169.43C1372.13,166.089 1372.98,161.411 1372.43,159.312C1370.74,158.945 1369.18,158.349 1368.13,157.65C1364.01,156.408 1361.67,152.053 1362.91,147.932C1363.81,144.981 1366.29,142.945 1369.14,142.483C1367.83,140.173 1373.57,138.372 1375.73,136.329C1378.69,133.543 1381.14,136.804 1385.63,136.118C1390.83,137.39 1395.67,142.822 1399.98,152.13C1404.63,162.175 1406.66,179.843 1407.68,200.179C1410.17,249.397 1403.36,316.362 1400.7,332.683L1382.99,408.298C1380.59,413.276 1373.95,425.042 1371.01,426.195C1357.06,431.663 1349.25,433.458 1347.33,424.052C1346.84,421.69 1341.01,419.104 1344.02,413.262C1344.02,409.062 1345.67,405.245 1348.37,402.428ZM1349.83,401.074C1351.23,399.943 1352.82,399.046 1354.55,398.443C1352.7,398.526 1350.9,398.944 1349.83,401.074ZM1360.03,397.576C1361.76,397.61 1363.42,397.925 1364.97,398.477C1363.43,397.354 1361.92,396.773 1360.03,397.576ZM1372.26,403.855C1372.69,404.427 1373.08,405.03 1373.43,405.66C1373.28,404.791 1373.02,404.192 1372.36,403.898C1372.33,403.884 1372.3,403.869 1372.26,403.855Z" style="fill:#fff;"/>
        <path d="M1210.3,276.921C1209.88,277.125 1209.61,277.162 1209.53,276.837C1209.29,275.76 1209.69,276.141 1210.3,276.921ZM1210.94,277.77C1210.71,277.469 1210.49,277.174 1210.3,276.921C1211.05,276.552 1212.27,275.635 1213.62,275.316L1299.48,270.301L1392.13,261.557C1407.3,267.353 1413.06,266.922 1414.65,271.003C1416.33,275.305 1424.77,279.112 1420.5,289.135C1420.5,301.104 1410.79,310.821 1398.82,310.821C1398.27,310.821 1397.72,310.8 1397.18,310.76C1397.21,310.619 1397.16,310.39 1397.01,310.05C1396.78,309.544 1396.23,309.897 1395.49,310.424C1395.64,310.498 1395.78,310.566 1395.91,310.628C1395.72,310.602 1395.53,310.573 1395.33,310.541C1394.82,310.913 1394.23,311.342 1393.6,311.612L1300.91,314.77C1279.96,314.472 1259.12,314.447 1238.36,312.213C1229.35,311.244 1220.59,309.627 1211.63,308.054C1204.09,304.77 1200.23,304.3 1199.02,302.751C1191.19,292.661 1187.27,289.252 1192.46,285.158C1194.45,283.582 1195.12,277.336 1202.45,277.633C1204.55,277.718 1207.65,277.709 1210.94,277.77ZM1397.18,310.76C1397.11,311.075 1396.61,310.947 1395.91,310.628C1396.33,310.684 1396.76,310.728 1397.18,310.76ZM1381.74,302.489C1381.08,301.657 1380.49,300.775 1379.96,299.851C1380.3,301.083 1380.78,301.967 1381.74,302.489Z" style="fill:#fff;"/>
        <path d="M1904,126.647C1903.88,126.717 1903.88,126.956 1904.02,127.43C1904.25,128.204 1904.99,128.247 1905.95,127.957C1905.35,127.429 1904.81,126.968 1904.44,126.753C1905.03,126.936 1905.64,127.287 1906.3,127.837C1908.08,127.188 1910.41,125.638 1911.58,125.415L1950.84,118.345C1983.19,111.771 2014.22,105.977 2045.59,105.906C2067.54,105.856 2089.55,108.841 2112.24,115.821C2122.58,119.057 2131.52,123.941 2139.68,129.792C2150.6,137.609 2159.85,147.55 2169.13,158.068C2204.84,199.118 2203.1,234.864 2186.38,262.247C2163.83,299.189 2103.94,321.98 2054.88,322.214C2037.56,322.227 2001.75,329.634 1974.33,324.953C1955.03,321.657 1939.52,314.175 1931.44,303.156C1923.65,295.369 1923.65,282.725 1931.44,274.938C1939.23,267.15 1951.87,267.15 1959.66,274.938L2054.88,272.077C2082.56,272.191 2115.8,263.476 2135.81,246.373C2151.48,232.986 2154.06,213.366 2133.37,188.41C2127.72,181.51 2122.17,174.84 2115.8,169.16C2110.6,164.527 2104.98,160.373 2097.94,157.771C2079.88,151.001 2062.15,147.646 2044.35,146.52C2015.5,144.694 1986.62,148.071 1956.45,152.007L1917.36,154.397C1916.36,157.69 1913.25,160.042 1909.64,159.927C1905.59,159.797 1902.36,156.592 1902.11,152.625C1897.11,151.471 1892.58,149.918 1892.04,147.901C1890.78,143.203 1884.38,138.176 1891.51,134.069C1898.37,130.116 1900.95,126.122 1904,126.647ZM1904,126.647C1904.09,126.595 1904.24,126.639 1904.44,126.753C1904.29,126.707 1904.15,126.672 1904,126.647ZM1912.22,136.899C1912.68,132.987 1913.19,130.964 1909.37,130.488C1909.11,130.455 1908.76,130.268 1908.36,129.994C1909.46,131.473 1910.85,134.026 1912.22,136.899Z" style="fill:#fff;"/>
        <path d="M1967.21,146.542L1975.03,210.499C1977.38,231.995 1978.49,253.264 1978.88,274.508C1979.47,305.854 1978.48,337.112 1978.05,368.913C1977.91,378.189 1975.6,416.205 1974.47,431.789C1974.35,433.51 1974.7,435.105 1974.14,436.088C1970.9,441.869 1970.78,442.143 1970.2,442.358C1966.6,443.68 1969.71,446.847 1967.83,446.888C1962.04,447.012 1964.79,453.791 1961.59,452.232C1957.85,450.409 1957.35,456.793 1954.98,454.086C1950.68,449.197 1943.64,458.421 1943.48,450.846C1943.44,449.25 1940.87,450.638 1941.15,448.837C1941.55,446.237 1935.78,447.483 1937.77,443.852C1938.58,442.371 1933.67,441.799 1936.42,439.06C1936.94,438.54 1934.8,437.755 1936.54,436.439C1936.54,433.591 1937.24,430.905 1938.47,428.542C1937.81,429.155 1936.1,429.426 1937.15,430.993C1937.39,431.345 1936.36,432.861 1935.8,433.755C1935.23,433.713 1934.18,433.603 1933.76,432.344C1933.43,431.368 1934,429.996 1934.15,428.428C1935.56,413.434 1938.64,376.848 1938.96,367.911C1940.15,336.508 1941.79,305.654 1942.08,274.677C1942.28,254.474 1941.94,234.225 1940.36,213.724C1939.63,202.472 1932.7,175.906 1935.6,155.528C1937.54,141.931 1942.39,130.996 1950.4,125.447C1957.5,122.327 1961.4,119.719 1964.59,123.645C1965.88,125.237 1969.11,125.873 1969.41,129.345C1969.72,132.879 1968.58,142.774 1967.21,146.542ZM1938.72,428.086C1939.05,427.497 1939.41,426.929 1939.81,426.385C1939.23,426.702 1938.24,426.748 1938.66,427.781C1938.7,427.892 1938.72,427.994 1938.72,428.086ZM1940.19,425.884C1941.11,424.713 1942.18,423.665 1943.37,422.768C1941.55,422.961 1939.46,422.748 1940.16,425.637C1940.19,425.729 1940.19,425.811 1940.19,425.884ZM1945.65,421.314C1946.08,421.089 1946.51,420.881 1946.96,420.691C1946.41,420.607 1945.82,420.386 1945.68,421.179C1945.67,421.226 1945.66,421.271 1945.65,421.314ZM1947.85,420.34C1948.28,420.188 1948.7,420.052 1949.14,419.933C1948.64,419.782 1948.12,419.516 1947.9,420.226C1947.88,420.267 1947.87,420.305 1947.85,420.34ZM1950.06,419.709C1951.22,419.462 1952.42,419.332 1953.65,419.332C1953.89,419.332 1954.13,419.337 1954.37,419.347C1952.71,418.01 1951.41,416.867 1950.11,419.61C1950.1,419.646 1950.08,419.679 1950.06,419.709ZM1960.19,420.628C1961.04,420.983 1961.86,421.405 1962.64,421.888C1962.16,420.671 1961.76,419.699 1960.31,420.56C1960.27,420.583 1960.23,420.606 1960.19,420.628ZM1966.07,424.683C1966.55,425.19 1967,425.727 1967.42,426.29C1967.42,425.31 1967.43,424.53 1966.3,424.662C1966.22,424.671 1966.14,424.678 1966.07,424.683ZM1969.25,429.418C1969.44,429.845 1969.62,430.283 1969.78,430.729C1970.02,430.102 1970.18,429.636 1969.55,429.494C1969.44,429.471 1969.34,429.445 1969.25,429.418ZM1970.59,434.081C1970.63,434.324 1970.66,434.569 1970.68,434.815C1970.91,434.564 1971.1,434.375 1970.89,434.26C1970.79,434.201 1970.69,434.142 1970.59,434.081ZM1935.8,433.755C1936.12,433.779 1936.28,433.781 1936.09,433.955C1935.23,434.749 1935.38,434.428 1935.8,433.755Z" style="fill:#fff;"/>
        <path d="M2037.33,444.091C2038.32,443.95 2039.3,443.81 2040.29,443.673C2039.24,444.032 2038.25,444.141 2037.33,444.091ZM1907.78,418.228C1908.3,416.608 1909.25,415.146 1909.43,416.723C1910.3,424.141 1933.07,415.982 1935.82,415.692C1948.65,415.384 1960.61,413.25 1972.46,410.691C1991.9,406.49 2010.63,400.436 2030.59,395.192C2034.92,394.223 2038.74,393.642 2041.49,394.652C2046.14,396.359 2049.9,395.869 2051.83,398.881C2056.85,406.712 2066.22,409.056 2063.49,416.247C2061.05,422.676 2068.22,432.664 2058.74,434.3C2055.15,434.92 2057.76,438.838 2053.41,437.767C2048.58,436.577 2049.89,442.37 2043.9,438.777C2036.35,442.551 2027.16,439.487 2023.39,431.939C2019.66,424.488 2022.6,415.436 2029.93,411.574C2029.52,411.056 2028.83,409.054 2028.84,409.917C2028.85,412.997 2024.04,406.991 2024.63,409.277C2025.73,413.526 2018.53,410.21 2019.62,413.369C2021.31,418.295 2015.29,422.108 2017.91,425.402C2022.44,431.096 2020.42,440.625 2029.81,441.671C2031.76,441.887 2034.17,443.922 2037.33,444.091C2017.29,446.978 1998.26,450.713 1978.73,452.393C1964.2,453.644 1949.58,454.036 1934.23,452.327C1930.38,451.579 1907.16,447.489 1898.38,441.572C1896.8,440.504 1894.7,440.158 1894.27,438.725C1890.93,427.702 1888.64,433.672 1892.6,426.503C1893.11,425.579 1892.6,424.362 1892.94,423.271C1893.48,421.552 1894.42,419.476 1896.69,417.604C1899.88,414.715 1904.82,414.959 1907.71,418.15C1907.73,418.176 1907.75,418.202 1907.78,418.228Z" style="fill:#fff;"/>
        <path d="M2380.17,113.367C2492.11,71.825 2546.36,128.387 2556.79,203.405C2564.36,257.843 2545.18,326.654 2507.2,378.47C2468.66,431.044 2411.14,466.493 2343.03,456.795C2278.77,447.773 2248.27,388.706 2247.34,317.815C2246.1,222.807 2297.91,112.276 2359.62,107.29C2365.79,107.065 2370.64,107.228 2374.1,109.102C2376.55,110.432 2378.52,111.804 2380.17,113.367ZM2335.01,147.333C2307.27,172.195 2289.45,226.973 2285.06,280.1C2279.88,342.789 2292.77,407.582 2348.2,412.844C2433.16,421.102 2487.29,333.874 2499.92,257.544C2512.1,183.867 2476.72,119.6 2366.05,167.288C2355.03,172.312 2342.01,167.444 2336.99,156.425C2335.64,153.474 2335.01,150.38 2335.01,147.333Z" style="fill:#fff;"/>
        <path d="M2878.09,398.883C2875.44,381.932 2871.29,362.962 2868.54,352.649C2867.8,349.908 2866.08,347.377 2866.84,346.867C2865.19,343.846 2864.62,340.222 2865.53,336.623C2867.43,329.019 2875.14,324.39 2882.75,326.29C2883.61,326.466 2891.01,330.374 2895.53,341.543C2900.34,353.414 2910.05,379.622 2915.59,400.645C2919.4,415.09 2920.36,427.654 2919.37,433.91C2918.44,439.857 2915.45,443.76 2912.91,446.56C2908.77,451.115 2901.91,453.977 2892.47,451.762C2888.68,450.873 2880.13,444.741 2879.18,444.03L2873.29,440.21L2824.69,455.787C2806.77,458.911 2787.84,460.078 2768.48,459.721C2727.82,458.969 2685.24,452.147 2646.66,452.569C2641.57,452.381 2625.95,452.019 2615.34,449.014C2612.36,448.17 2610.8,446.485 2608.9,445.67C2608.45,445.477 2608.41,445.1 2608.49,444.723C2603.5,444.265 2600.82,443.26 2599.39,442.956C2596.21,442.283 2596.16,439.54 2594.87,438.612C2590.81,435.698 2594.68,431.943 2594.83,427.75C2594.9,425.585 2599.18,423.771 2607.93,419.25C2610.26,418.046 2612.72,416.856 2616.57,416.069C2626.47,414.044 2640.82,415.923 2645.47,415.45C2684.39,413.363 2727.67,417.556 2768.77,417.355C2785.49,417.273 2801.83,416.613 2817.29,413.852C2828.53,411.94 2840.1,405.142 2851.78,401.714C2859.73,399.381 2867.7,398.104 2875.6,398.654C2876.45,398.714 2877.28,398.79 2878.09,398.883Z" style="fill:#fff;"/>
        <path d="M2605.09,161.759C2583.59,163.796 2588.3,146.564 2595.75,142.16C2602.88,137.95 2626.3,129.436 2636.01,127.178C2658.11,124.81 2680.08,124.039 2702.04,124.102C2717.06,124.145 2732.1,123.428 2747.01,124.827C2753.47,125.432 2759.53,127.101 2765.92,128.116C2774.74,128.116 2781.89,135.271 2781.89,144.085C2781.89,152.898 2774.74,160.053 2765.92,160.053C2757.13,161.069 2748.52,162.484 2739.66,162.639C2706,163.229 2672.45,157.866 2638.31,159.372C2632.2,159.147 2619.23,161.141 2610.22,161.47C2608.45,161.534 2606.47,161.845 2605.09,161.759Z" style="fill:#fff;"/>
        <path d="M2701.79,149.482C2702.35,149.417 2702.88,149.65 2703.54,150.871C2704.41,152.46 2704.6,155.19 2705.05,158.578C2708.22,182.288 2712.04,237.731 2712.1,240.922C2711.16,281.058 2701.27,330.087 2698.66,375.543C2697.58,394.227 2697.2,412.267 2700.74,428.845C2702.69,436.67 2697.93,444.612 2690.1,446.568C2682.28,448.525 2674.34,443.76 2672.38,435.934C2666.92,416.934 2664.79,395.932 2665.41,374.115C2666.7,328.712 2679.03,280.016 2680.45,239.991C2680.7,236.875 2677.13,182.085 2681.44,159.06C2682.67,152.48 2684.93,149.097 2685.43,147.586C2688.32,138.776 2695.3,140.137 2697.14,141.136C2697.89,141.538 2700.42,142.737 2701.35,146.741C2701.47,147.258 2701.62,148.157 2701.79,149.482Z" style="fill:#fff;"/>
        <path d="M2958.81,421.198C2958.7,421.814 2959.56,421.847 2960.41,421.749C2960.39,421.656 2960.36,421.565 2960.33,421.477C2960.6,421.53 2960.86,421.585 2961.11,421.643C2961.56,421.564 2961.9,421.484 2961.96,421.493C3027.71,439.167 3117.16,407.672 3188.54,410.02C3199.26,410.372 3209.6,411.507 3219.46,413.479L3217.12,355.306C3217.13,354.346 3217.95,352.01 3218.58,349.68C3216.22,346.078 3215.48,341.473 3216.94,337.076C3217.01,327.755 3222.83,325.322 3224.31,323.485C3231.25,314.873 3238.62,319.944 3248.08,328.386C3251.14,331.122 3254.24,344.941 3255.76,349.124C3258.93,363.924 3261.69,379.065 3263.61,394.378C3265.54,409.777 3266.47,425.268 3266.92,440.488C3266.95,443.606 3266.61,449.772 3265.74,452.424C3263.62,458.939 3259.43,462.869 3255.32,465.371C3249.59,468.857 3242.12,470.806 3232.53,466.142C3218.96,459.055 3203.09,455.877 3185.89,454.384C3113.07,448.06 3019.58,471.017 2953.76,448.146C2953.03,447.771 2943.29,443.864 2941.85,440.142C2940.03,435.456 2936.68,433.605 2938.61,430.77C2941.13,427.052 2938.18,420.782 2943.98,420.817C2945.17,420.824 2945.59,418.832 2947.22,419.338C2948.29,419.667 2949.97,418.199 2953.07,419.87C2954.21,420.485 2956.52,420.806 2958.81,421.198ZM2958.81,421.198C2958.81,421.183 2958.82,421.166 2958.82,421.15C2959.31,419.154 2959.83,419.801 2960.33,421.477C2959.84,421.378 2959.32,421.286 2958.81,421.198ZM3219.24,346.58C3219.44,344.908 3219.19,343.677 3217.93,343.664C3215.75,343.643 3217.27,345.049 3219.24,346.58ZM3251.42,423.666C3252.06,423.956 3252.69,424.252 3253.32,424.552C3252.68,424.223 3252.05,423.928 3251.42,423.666ZM2957.25,438.709C2956.68,438.78 2956.12,438.862 2955.57,438.958C2953.24,439.36 2951.26,441.48 2951.26,441.48C2951.26,441.48 2953.8,442.436 2954.14,442.003C2955.2,440.692 2956.25,439.618 2957.25,438.709Z" style="fill:#fff;"/>
        <path d="M3141.28,143.625C3140.58,150.226 3120.22,150.81 3117.54,151.578C3102.27,153.931 3087.14,154.917 3072.01,154.857C3050.42,154.771 3028.91,152.804 3007.05,151.716L2955.89,148.262C2955.84,148.257 2955.77,148.244 2955.7,148.226C2953.87,150.716 2950.64,151.977 2947.46,151.155C2938.29,151.326 2937.7,144.392 2936.89,141.618C2935.48,136.832 2946.97,127.66 2953.34,125.33C2960.56,123.549 2967.86,122.076 2975.46,121.305C2986.21,120.215 2997.1,120.582 3007.47,120.257C3028.87,119.763 3049.97,119.933 3071.05,118.726C3084.3,117.969 3097.51,116.637 3110.78,113.915C3113.97,113.663 3129.89,110.31 3139.54,110.887C3148.31,111.413 3154.79,113.894 3157.74,117.506C3163.92,123.683 3163.92,133.712 3157.74,139.889C3153.3,144.337 3146.85,145.582 3141.28,143.625ZM2953.86,147.542C2953.28,147.343 2952.85,147.282 2952.97,147.702C2953.32,148.872 2953.61,148.531 2953.86,147.542Z" style="fill:#fff;"/>
        <path d="M3032.74,140.625C3032.87,137.531 3034.55,135.737 3036.96,135.118C3043,130.079 3050.61,132.979 3052.74,139.489C3053.13,140.666 3053.93,142.595 3054.58,145.837C3055.28,147.217 3055.85,148.715 3056.25,150.328C3060.14,165.842 3067.38,208.812 3068.09,220.704C3070.22,287.702 3074.75,355.338 3071.42,422.21C3071.04,429.742 3069.77,437.059 3068.95,444.537C3068.95,453.558 3061.63,460.881 3052.61,460.881C3043.59,460.881 3036.26,453.558 3036.26,444.537C3035.44,437.043 3034.19,429.708 3033.83,422.16C3030.7,355.512 3035.97,288.133 3035.51,221.336C3035.75,209.755 3027.48,167.634 3029.46,152.21C3030.08,147.377 3031.24,143.559 3032.74,140.625Z" style="fill:#fff;"/>
        <path d="M3358.01,137.854C3381.05,130.224 3423.58,116.639 3440.32,111.307C3443.74,108.331 3448.11,106.01 3453.49,104.438C3454.99,104.003 3466.11,101.797 3470.96,103.567C3479.99,106.86 3486.41,112.73 3485.81,123.839C3485.29,133.477 3481.46,140.188 3473.71,143.904C3472.52,144.474 3470.98,144.871 3469.27,145.171C3475.06,160.125 3506.68,189.31 3509.71,193.557C3520.34,208.901 3529.71,224.491 3538.49,240.303C3551.2,263.207 3562.67,286.566 3575.62,310.038C3589.3,335.258 3607.48,353.482 3616.93,377.463C3621.56,389.204 3623.93,401.636 3624.49,415.843C3626.47,425.748 3620.04,435.397 3610.13,437.378C3600.23,439.359 3590.58,432.926 3588.6,423.021L3533.81,332.844L3471.76,219.329C3467.63,212.934 3441.68,178.61 3433.25,153.03C3410.68,158.894 3377.13,166.646 3358.84,166.16C3347.84,165.868 3341.76,163.242 3339.64,161.449C3334.72,157.281 3330.19,152.67 3337.73,144.777C3339.28,143.148 3342.54,140.607 3348.2,137.455C3351.39,135.678 3355.17,135.956 3358.01,137.854ZM3468.45,142.219C3472,140.054 3475.99,136.009 3472.76,136.563C3469.21,137.17 3468.01,139.225 3468.45,142.219Z" style="fill:#fff;"/>
        <path d="M3527.03,423.52C3525.2,424.952 3522.75,425.556 3520.33,424.949C3512.33,424.862 3510.59,419.689 3509.45,417.831C3507.6,414.816 3509.55,411.901 3511.36,408.03C3513.1,404.318 3522.03,400.743 3527.99,398.92C3542.67,396.754 3556.99,395.06 3571.89,394.447C3595.01,393.495 3618.09,392.946 3641.28,394.264C3650.84,394.806 3660.16,396.779 3669.71,397.551C3681.79,397.551 3691.59,407.355 3691.59,419.432C3691.59,431.509 3681.79,441.314 3669.71,441.314C3659.78,442.196 3649.94,443.466 3640,442.962C3613.22,441.606 3587.15,435.337 3560.91,430.455C3549.73,428.374 3539.17,425.572 3527.99,423.748C3527.72,423.663 3527.39,423.592 3527.03,423.52Z" style="fill:#fff;"/>
        <path d="M3334.94,415.554C3347.18,415.996 3363.43,416.605 3380.56,418.052C3401.01,419.78 3422.32,423.737 3439.58,426.55C3449.06,427.814 3455.73,436.537 3454.46,446.018C3453.2,455.498 3444.47,462.169 3434.99,460.905C3417.85,459.125 3396.49,458.608 3376.43,455.927C3351.63,452.611 3328.5,448.399 3316.84,443.336C3292.77,432.893 3295.65,418.012 3306.85,415.065C3309.78,414.294 3316.28,412.699 3328.23,413.063C3330.83,412.746 3333.29,413.752 3334.94,415.554ZM3318.54,415.983C3318.16,415.048 3317.89,414.527 3317.86,415.537C3317.85,415.927 3318.12,416.028 3318.54,415.983Z" style="fill:#fff;"/>
        <path d="M3439.07,177.581C3452.32,152.277 3476.15,139.939 3482.91,151.989C3505.83,147.125 3495.72,178.766 3469.52,204.644C3468.45,206.642 3467.33,208.698 3466.13,210.813C3447.76,232.222 3432.91,257.47 3418.67,283.515C3396.5,324.093 3376.48,366.916 3356.11,405.592C3353.98,408.58 3348.76,412.26 3346.52,415.095C3347.64,416.132 3348.47,417.507 3348.82,419.106C3349.76,423.307 3347.11,427.479 3342.91,428.416C3328.81,436.845 3325.7,425.844 3323.72,417.71C3322.42,412.38 3326.79,401.855 3328.95,392.78C3346.03,352.011 3360.91,306.418 3381.16,264.268C3395.45,234.513 3412.7,206.785 3432.74,182.636C3434.91,180.866 3437.02,179.182 3439.07,177.581ZM3345.74,418.135C3345.87,418.301 3346.04,418.454 3346.26,418.594C3346.74,418.905 3346.3,418.606 3345.74,418.135Z" style="fill:#fff;"/>
        <path d="M3402.26,360.702C3406.54,360.908 3409.86,364.541 3409.67,368.828C3409.49,373.129 3405.85,376.469 3401.55,376.283C3397.74,376.795 3394.25,375.227 3390.64,373.68C3385.71,371.571 3382.26,367.286 3379.26,363.245C3370.67,351.14 3380.01,335.516 3405.44,326.781C3438.13,315.548 3503.7,318.137 3520.75,316.35C3531.6,315.481 3541.12,323.589 3541.99,334.445C3542.86,345.3 3534.75,354.818 3523.89,355.687C3510.66,356.525 3468.36,356.467 3434.78,357.917C3421.21,358.503 3409.47,358.523 3402.26,360.702Z" style="fill:#fff;"/>
        <path d="M3921.17,280.903C3921.4,281.13 3921.63,281.36 3921.86,281.591C3926.8,286.601 3930.25,293.071 3932.42,300.93L3934.88,340.222C3940.04,350.33 3949.64,360.38 3960.57,369.865C3969.34,377.485 3979.13,384.387 3988.19,391.309C3998.95,399.524 4008.34,407.719 4016.85,413.733C4027.6,419.388 4031.73,432.701 4026.07,443.445C4020.42,454.189 4007.11,458.321 3996.36,452.666C3985.49,448.652 3972.45,443.839 3959.14,436.835C3947.23,430.574 3935.7,422.299 3924.77,414.031C3906.58,400.28 3891.43,384.475 3882.35,369.067C3877.89,361.433 3875.58,353.016 3874.58,344.202C3873.86,337.823 3874.73,331.048 3874.7,324.585C3854.1,320.106 3833.28,320.221 3812.47,315.366C3805.01,313.626 3797.52,311.511 3790.07,308.504C3789.3,308.195 3766.08,311.111 3757.78,307.065C3755.75,307.077 3753.93,307.078 3752.32,307.071C3746.25,307.204 3741.14,305.476 3736.65,302.81C3732.69,300.458 3729.21,296.9 3726.36,291.497C3719.66,278.79 3720.58,255.588 3751.15,252.604C3759.43,251.795 3776.41,253.576 3789.76,255.352C3817.59,253.793 3853.4,250.018 3881.74,240.867C3900.76,234.722 3919.54,229.22 3911.45,211.631C3901.49,188.386 3883.33,174.268 3862,165.216C3824.19,149.175 3777.48,147.118 3739.49,147.447L3675.82,147.957C3673.34,147.838 3668.83,147.716 3664.91,147.877C3664.06,148.573 3663.05,149.101 3661.92,149.394C3661.21,149.736 3660.53,150.04 3659.86,150.307C3659.96,149.787 3660.02,149.107 3660.03,148.328C3658.3,148.64 3657.31,149.118 3657.72,149.834C3657.97,150.268 3658.2,150.603 3658.4,150.849C3649,154.045 3644.12,149.966 3643.24,149.221C3640.48,146.886 3639.46,141.694 3644.81,134.877C3647.72,131.161 3663.27,122.061 3671.7,119.157C3678.28,117.379 3684.82,115.658 3691.66,114.494C3706.88,111.903 3722.55,111.311 3737.61,109.948C3781.11,105.968 3835.03,104.222 3879.57,119.892C3913.75,131.921 3942.09,154.275 3959.23,189.916C3978.12,231.822 3960.37,261.131 3922.83,280.082C3922.28,280.358 3921.73,280.632 3921.17,280.903ZM3659.86,150.307C3659.64,151.415 3659.18,151.795 3658.4,150.849C3658.87,150.687 3659.36,150.507 3659.86,150.307ZM3873.82,315.919C3873.8,315.812 3873.77,315.706 3873.74,315.599C3873.77,315.707 3873.79,315.813 3873.82,315.919ZM3885.64,327.457C3885.75,327.492 3885.86,327.527 3885.97,327.561C3885.86,327.526 3885.75,327.492 3885.64,327.457Z" style="fill:#fff;"/>
        <path d="M3712.99,160.989C3713.4,161.766 3714.4,162.072 3715.62,162.164C3713.38,160.636 3711.38,158.878 3710.07,157.178C3707.11,153.308 3709.75,151.124 3711.74,142.388C3715.04,136.203 3720.88,138.105 3727.07,139.815C3730.55,140.778 3734.58,146.882 3736.71,150.205C3746.46,170.09 3752.21,193.683 3755.21,218.377C3759.41,253.018 3757.95,289.683 3757,320.066L3747.98,411.165C3752.42,420.513 3749.45,431.965 3740.58,437.874C3725.46,447.385 3716.13,440.905 3711.01,435.24C3708.48,432.446 3705.94,428.71 3705.12,423.529C3704.44,419.311 3706.12,410.111 3706.54,407.234L3720.1,317.957C3722.5,289.093 3725.2,254.317 3723.49,221.112C3722.39,199.658 3719.83,178.87 3712.99,160.989ZM3731.44,399.216C3727.53,398.115 3722.78,398.582 3717.08,402.61C3721.47,399.679 3726.57,398.61 3731.44,399.216ZM3712.99,160.989C3712.93,160.882 3712.89,160.766 3712.85,160.641C3712.9,160.757 3712.94,160.873 3712.99,160.989Z" style="fill:#fff;"/>
        <path d="M3691.8,406.59C3692.97,404.894 3695.67,403.903 3698.92,402.44C3726.29,403.985 3753.59,401.389 3780.92,403.304C3793.24,404.168 3805.35,406.636 3817.46,408.996C3830.37,410.983 3839.24,423.078 3837.26,435.989C3835.27,448.9 3823.18,457.769 3810.26,455.783C3801.28,454.986 3792.28,455.15 3783.29,454.31C3769.35,453.008 3755.58,450.656 3741.71,448.593C3725.62,446.199 3709.81,443.271 3693.95,439.664C3691.29,438.357 3688.42,438.33 3686.49,436.335C3678.35,427.935 3674.66,423.587 3674.96,418.84C3675.34,412.955 3672.97,410.369 3675.88,408.208C3677.6,406.939 3681.7,402.232 3690.17,405.863C3690.75,406.047 3691.3,406.292 3691.8,406.59Z" style="fill:#fff;"/>
        <path d="M4043.06,146.444C4042.74,148.262 4041.81,149.983 4040.28,151.259C4036.86,154.125 4031.75,153.673 4028.89,150.251C4026,146.479 4025.78,142.85 4024.35,140.571C4022.98,138.402 4024.09,138.049 4022.6,136.314C4016.5,129.168 4021.82,128.952 4029.23,118.356C4031.25,115.469 4036.02,115.022 4040.87,113.652C4066.15,106.509 4126.07,115.017 4133.07,115.701C4168.66,120.886 4226.94,153.732 4269.33,194.197C4303.02,226.364 4325.13,263.976 4326.35,293.749C4328.09,338.591 4300.96,373.546 4257.29,398.098C4195.85,432.638 4099.72,449.865 4041.11,449.079C4032.76,448.967 4024.04,451.132 4018.83,447.055C4013.63,442.982 4018.54,446.729 4016.33,440.773C4004.55,440.773 3994.98,431.21 3994.98,419.432C3994.98,407.654 4004.55,398.091 4016.33,398.091C4018.46,391.428 4012.68,396.545 4018.18,391.843C4022.09,388.499 4028.73,389.539 4035.05,388.826C4078.27,383.945 4147.75,379.406 4201.91,358.587C4237.84,344.778 4269.24,327.605 4268.34,295.683C4267.74,272.102 4241.73,244.488 4213.61,219.501C4183.33,192.585 4148.63,169.166 4124.72,164.37C4120.29,163.383 4091.82,157.397 4067.61,153.504C4059.23,152.157 4051.67,151.071 4045.86,150.195C4044.26,149.954 4043.45,147.968 4043.06,146.444ZM4041.37,139.967C4041.46,139.873 4041.55,139.788 4041.66,139.712C4042.05,139.44 4041.24,139.023 4040.51,138.678C4040.73,139.041 4040.95,139.501 4041.29,139.867C4041.32,139.9 4041.35,139.933 4041.37,139.967Z" style="fill:#fff;"/>
        <path d="M4097.24,152.129C4097.82,166.513 4102.03,188.191 4102.22,189.765C4103.59,212.35 4101.52,337.32 4097.06,388.697C4096.61,393.849 4094.46,399.154 4093.65,402.438C4093.14,401.769 4092.64,401.149 4092.4,400.751C4092.81,401.613 4093.16,402.491 4093.45,403.378C4093.23,404.646 4093.34,405.469 4094.05,405.655C4095.84,414.554 4091.55,423.907 4083.05,428.16C4072.87,433.25 4060.47,429.118 4055.38,418.937C4053.99,416.882 4050.25,405.309 4050.07,386.868C4049.55,335.826 4068,213.122 4068.1,190.726C4068.29,187.893 4073.28,140.922 4077.56,132.343C4078.91,129.628 4079.75,127.658 4080.93,126.838C4086.18,123.2 4090.21,121.051 4094.2,123.788C4095.89,124.947 4099.65,125.599 4100.55,129.849C4100.97,131.83 4102,136.114 4100.31,144.926C4100.67,147.801 4099.41,150.506 4097.24,152.129ZM4093.65,402.438C4094.84,403.984 4096.1,405.787 4094.3,405.693C4094.21,405.688 4094.12,405.675 4094.05,405.655C4093.89,404.892 4093.7,404.131 4093.45,403.378C4093.5,403.087 4093.57,402.773 4093.65,402.438ZM4084.39,145.891C4082.69,142.122 4081.6,138.596 4080.29,139.435C4073.65,143.68 4078.2,145.674 4084.39,145.891ZM4097.59,143.202C4097.84,142.985 4098.04,142.755 4098.17,142.513C4098.58,141.779 4102.16,139.715 4100.4,139.464C4098.94,139.254 4098.06,140.693 4097.59,143.202Z" style="fill:#fff;"/>
    </g>
</svg>
