<?xml version="1.0" encoding="UTF-8" standalone="no"?>
<!DOCTYPE svg PUBLIC "-//W3C//DTD SVG 1.1//EN" "http://www.w3.org/Graphics/SVG/1.1/DTD/svg11.dtd">
<svg width="100%" height="100%" viewBox="0 0 5906 5906" version="1.1" xmlns="http://www.w3.org/2000/svg" xmlns:xlink="http://www.w3.org/1999/xlink" xml:space="preserve" xmlns:serif="http://www.serif.com/" style="fill-rule:evenodd;clip-rule:evenodd;stroke-linejoin:round;stroke-miterlimit:2;">
    <g id="Rock">
        <g id="Layer1">
            <path d="M3530.45,5335.26C3531.22,5335.82 3531.89,5336.53 3532.45,5337.36C3534.92,5341.15 3533.86,5346.23 3530.08,5348.7C3529.87,5353.39 3526.75,5346.84 3522.59,5349.56C3521.07,5350.56 3523.71,5346.43 3517.18,5344.95C3514.96,5344.44 3516,5344.52 3509.86,5340.89C3507.2,5339.32 3505.42,5338.66 3502.95,5334.77C3487.58,5310.53 3478.85,5237.59 3477.31,5230.96C3462.06,5139.74 3440.59,5041.62 3438.18,4945.43C3436.5,4878.43 3443.88,4812.34 3468.41,4749.87C3523.52,4606.09 3564.37,4466.93 3589.83,4325.1C3615.23,4183.56 3625.27,4039.38 3619.3,3885.38C3617.17,3828.56 3615.49,3769.59 3610.31,3711.54C3606.93,3673.67 3602.61,3636.13 3593.13,3599.94C3589.83,3588.76 3596.22,3577.01 3607.4,3573.71C3618.57,3570.41 3630.33,3576.8 3633.63,3587.97C3646.21,3626.13 3654.77,3665.87 3659.6,3706.41C3666.64,3765.39 3666.29,3825.7 3668.28,3883.62C3673.48,4041.24 3662.2,4188.7 3635.52,4333.41C3608.88,4477.87 3566.91,4619.62 3510.19,4765.97C3488.64,4822.97 3482.91,4883.11 3485.32,4943.9C3489.03,5037.78 3512.03,5133.18 3528.38,5222C3529.17,5228.65 3547.95,5298.63 3542.3,5326.31C3540.42,5335.51 3531.7,5336.16 3534.45,5337.85C3536.76,5339.26 3531.64,5337.09 3531.82,5336.36C3532.11,5335.16 3531.19,5335.32 3530.45,5335.26ZM3529.62,5334.72C3529.62,5334.7 3529.61,5334.68 3529.61,5334.65C3529.23,5331.2 3528.12,5332.37 3526.33,5333.7C3527.48,5333.8 3528.61,5334.15 3529.62,5334.72Z" style="fill:#fff;"/>
            <path d="M3631.83,3404.13C3631.15,3402.01 3630.8,3398.67 3630.3,3394.78C3629.7,3390.08 3629.53,3384.73 3629.65,3378.64C3630.1,3356.9 3633.08,3328.89 3630.76,3319.86C3626.75,3304.22 3620.69,3289.25 3614.45,3274.25C3605.16,3251.91 3594.4,3229.99 3580.64,3209.91C3557.57,3176.26 3528.07,3146.96 3494.52,3125.01C3477.83,3114.04 3460.06,3104.91 3441.82,3096.55C3396.39,3075.75 3348.2,3059.49 3304.91,3034.61C3144.73,2942.61 3053.26,2876.01 2936.87,2850.07C2864.11,2833.86 2781.64,2833.87 2666.24,2852.85C2649.07,2855.97 2624.33,2856.57 2601.96,2860.76C2590.02,2863 2578.8,2866.14 2571.14,2872.48C2567.8,2875.25 2568.45,2880.1 2568.6,2884.65C2568.87,2893.33 2571.54,2902.25 2573.83,2908.72C2598.15,2978.02 2674.76,3024.2 2765.04,3068.3C2886.18,3127.47 3033.33,3179.46 3132.94,3257.87C3185.03,3298.88 3224.09,3347.33 3243,3405.08C3249.61,3425.45 3252.81,3448.45 3251.65,3471.17C3250.47,3494.42 3245.01,3517.35 3234.66,3536.96C3228.78,3548.14 3221.68,3557.98 3213.74,3566.95C3187.6,3596.46 3150.4,3614.38 3128.03,3648.91C3052.48,3767.82 2963.62,3920.57 2905.72,4075.49C2874.84,4158.11 2854.2,4241.4 2846.95,4320.51C2845.01,4341.62 2843.23,4362.31 2843.36,4382.81C2843.97,4393.81 2835.53,4403.24 2824.53,4403.86C2813.52,4404.47 2804.09,4396.03 2803.48,4385.02C2801.16,4362.96 2799.88,4340.46 2800.74,4317.53C2803.86,4233.8 2827.52,4145.67 2859.76,4058.41C2918.3,3899.98 3010.39,3744.54 3087.91,3623.34C3108.62,3590.43 3141.2,3570.51 3167.56,3544.38C3176.35,3535.66 3184.16,3525.97 3189.93,3514.22C3196.53,3500.74 3199.44,3485.05 3199.77,3469.3C3200.12,3453.08 3197.39,3436.75 3192.25,3422.37C3166.31,3347.4 3097.21,3295.11 3015.92,3248.95C2897.17,3181.5 2751.12,3129.24 2651.16,3061.09C2593.28,3021.63 2550.58,2976.45 2533.64,2922.11C2529.85,2910.01 2526.08,2892.39 2527.82,2876.8C2529.42,2862.52 2534.98,2849.73 2546.09,2841.16C2556.05,2833.47 2569.02,2828.17 2583.55,2824.93C2609.01,2819.23 2639.68,2819.56 2660.09,2816.4C2781.5,2795.37 2868.37,2795.39 2945.22,2811.64C3065.29,2837.03 3160.89,2903.05 3326.99,2995.55C3369.44,3019.17 3416.63,3034.09 3461.08,3053.73C3481.64,3062.82 3501.64,3072.89 3520.49,3084.94C3559.46,3109.96 3593.86,3143.46 3620.85,3182.09C3637.02,3205.24 3651.28,3229.96 3660.71,3256.38C3667.08,3274.23 3671.06,3292.72 3673.68,3311.37C3675.43,3323.76 3673.45,3364.37 3664.34,3390.24C3651.31,3427.29 3624.24,3432.01 3631.77,3405.39C3631.76,3404.97 3631.78,3404.54 3631.83,3404.13Z" style="fill:#fff;"/>
            <path d="M3485.28,3017.59C3483.93,3016.86 3479.56,3015.45 3477.73,3016.53C3476.45,3017.28 3475.48,3018.74 3477.04,3020.12C3481.55,3019.82 3485.46,3023.24 3485.76,3027.75C3486.06,3032.26 3482.64,3036.16 3478.13,3036.46C3473.05,3042.23 3470.66,3037.97 3465.57,3038.57C3459,3039.33 3459.09,3032.34 3451.37,3025.05C3447.17,3015.9 3443.33,3006.94 3440.49,2996.86C3434.5,2975.56 3432.48,2952.45 3431.69,2928.78C3429.24,2855.27 3444.82,2775.76 3451.63,2710.95C3458.77,2643.44 3469.68,2577.6 3482.34,2512.31C3501.16,2415.2 3523.87,2319.32 3543.31,2220.84L3584.15,1933.64C3592.16,1888.98 3602.31,1844.87 3613.85,1801.13C3621.75,1771.21 3628.19,1740.88 3638.16,1711.58C3642.53,1698.75 3648.64,1687.31 3653.68,1674.71C3656.3,1661.59 3669.08,1653.07 3682.2,1655.7C3695.32,1658.32 3703.84,1671.1 3701.22,1684.22C3701.47,1695.65 3702.53,1706.31 3701.43,1717.69C3700.73,1724.91 3698.68,1731.92 3697.13,1739.01C3682.08,1808.04 3662.04,1875.88 3649.69,1945.66L3606.39,2233.59C3586.03,2331.84 3562.5,2427.46 3542.72,2524.33C3529.75,2587.81 3518.37,2651.82 3510.71,2717.51C3505.38,2763.32 3496.73,2816.57 3491.92,2869.77C3490.12,2889.7 3489.42,2909.63 3488.56,2929.12C3487.67,2949.14 3487.51,2968.52 3487.55,2987.33C3487.56,2997.47 3486.43,3006.86 3486.87,3016.56C3486.67,3017.12 3485.87,3017.41 3485.28,3017.59ZM3485.28,3017.59C3485.88,3017.92 3485.89,3018.12 3484.81,3017.9C3484.41,3017.82 3484.76,3017.75 3485.28,3017.59Z" style="fill:#fff;"/>
            <path d="M3820.31,1134.64C3821.79,1139.07 3819.4,1143.87 3814.97,1145.35C3810.54,1146.83 3805.74,1144.44 3804.26,1140.01C3799.81,1137.26 3798.78,1135.47 3795.35,1129.81C3791.69,1123.78 3791.26,1115.73 3791.24,1105.87C3791.16,1070.27 3812.49,1014.26 3821.97,956.264C3827.08,924.993 3830.03,893.244 3825.89,864.22C3819.31,818.036 3792.21,780.677 3723.37,767.796C3663.72,756.56 3622.87,810.96 3589.4,878.521C3536.76,984.774 3508.4,1129.56 3494.14,1191.32C3450.05,1382.82 3428.6,1577.31 3388.6,1768.63C3371.3,1851.35 3350.87,1933.57 3323.13,2014.63C3312.05,2048.76 3294.38,2081.33 3273.38,2112.92C3228.99,2179.68 3168.93,2241.72 3130.72,2306.47C3095.57,2364.97 3074.77,2428.46 3060.41,2493.82C3042.66,2574.65 3037.95,2658.87 3026.79,2740.67C3024.18,2759.8 3024.16,2779.66 3016.67,2797.21C3015.58,2799.79 3014.07,2800.9 3012.43,2803.17C3011.1,2815.12 3000.32,2823.74 2988.37,2822.41C2976.42,2821.09 2967.8,2810.31 2969.13,2798.36C2968.05,2795.82 2966.78,2794.45 2966.27,2791.74C2962.77,2773.21 2966.53,2754.05 2967.59,2735C2972.31,2650.11 2982.19,2563.77 3000.78,2480.61C3016.81,2408.92 3041.6,2339.84 3081.05,2276.16C3121.74,2211.63 3184.11,2150.2 3231.34,2083.97C3250.72,2056.79 3267.58,2028.88 3278.41,1999.21C3305.88,1920.17 3326.72,1840.07 3343.47,1759.24C3383.2,1567.52 3401.84,1372.27 3444.39,1180.08C3460.93,1105.15 3497.16,913.761 3569.5,803.051C3611.86,738.235 3666.93,700.554 3733.54,712.521C3835.04,730.865 3874.16,788.264 3882.73,856.438C3892.36,933.06 3858.78,1026.04 3840.67,1087.38C3837.9,1096.78 3836.12,1105.48 3833.57,1112.8C3831.31,1119.31 3828.49,1123.72 3826.39,1128.18C3824.54,1132.1 3821.56,1131.45 3820.31,1134.64Z" style="fill:#fff;"/>
            <path d="M3053.32,2276.19C3055.35,2271.89 3058.05,2266.28 3054.68,2272.76C3052.9,2276.18 3055.78,2267.95 3054.2,2270.72C3052.86,2273.07 3052.66,2267.57 3051.83,2269.5C3050.56,2272.46 3049.03,2266.61 3048.57,2269.24C3047.64,2274.58 3042.66,2266.2 3043.27,2270.84C3044.17,2277.67 3032.55,2272 3036.55,2278.5C3037.92,2280.73 3031.96,2283.43 3035.26,2286.12C3036.08,2286.78 3031.7,2290.04 3032.77,2288.49C3036.07,2283.76 3023.41,2278.74 3020.68,2275.31L2999.43,2230.3L2984.48,2208.76C2970.95,2191.4 2939.31,2164.96 2905.34,2140.65C2893.21,2131.97 2880.97,2123.3 2868.59,2116.11C2854.98,2108.2 2841.7,2101.38 2828.93,2098.43C2819.89,2096.34 2811.33,2094.66 2804.68,2099.62C2769.3,2126.78 2747.05,2195.01 2727.85,2276.99C2693.65,2423 2681.99,2613.03 2651.56,2728.3C2646.52,2747.39 2639.86,2763.77 2633.85,2778.33C2630.89,2788.68 2620.09,2794.68 2609.74,2791.73C2599.39,2788.77 2593.39,2777.97 2596.35,2767.62C2598.76,2753.13 2599.46,2736.7 2601.9,2718.45C2617.81,2599.85 2637.79,2411.25 2668.31,2263.85C2689.22,2162.86 2720.54,2081.31 2762.89,2046.8C2797.44,2017.91 2851.38,2023.39 2904.48,2052.2C2919.94,2060.58 2935.5,2070.61 2949.78,2082.08C2988.79,2113.43 3020.3,2152.07 3033.99,2174.62L3050,2205.87L3067.26,2257.71C3066.87,2265.59 3071.23,2282.12 3068.71,2285.35C3066.82,2287.78 3069.06,2290.65 3066.65,2291.33C3065.08,2291.76 3066.61,2293.83 3065.07,2293.61C3058.76,2292.73 3064.45,2301.94 3059.42,2297.81C3056.84,2295.68 3057.89,2301.86 3055.68,2298.91C3054.35,2297.13 3054.21,2301.24 3053.07,2299.04C3051.89,2296.77 3050.51,2301.49 3049.99,2298.45C3047.85,2286 3042.36,2311.46 3047.31,2291.43C3043.14,2289.68 3041.17,2284.88 3042.91,2280.71C3044.61,2276.64 3049.22,2274.67 3053.32,2276.19Z" style="fill:#fff;"/>
            <path d="M2625.67,3028.64C2629.65,3029.49 2634.11,3031.93 2630.24,3031.77C2626.71,3031.63 2630.34,3039.93 2630.41,3045.55C2630.73,3071.18 2635.86,3109.18 2636.49,3114.45C2638.49,3142.76 2643.83,3166.52 2650.35,3186.05C2658.02,3209.01 2667.14,3225.45 2681.28,3231.56C2695.06,3237.5 2710.87,3231.63 2729.15,3218.34C2739.26,3210.98 2749.41,3201.18 2760.99,3189.97C2767.98,3183.2 2775.82,3177.08 2783.55,3169.14C2789,3161.12 2799.94,3159.04 2807.96,3164.49C2815.97,3169.95 2818.06,3180.89 2812.61,3188.91C2807.53,3200.21 2802.81,3210.33 2796.89,3219.47C2785.92,3236.43 2772.85,3248.86 2760.83,3258.92C2724.88,3288.99 2689.1,3293.15 2660.32,3281.33C2634.31,3270.65 2610.74,3244.68 2598.44,3202.24C2591.6,3178.66 2588.46,3149.62 2588.94,3115.79C2589.34,3109.41 2588.79,3058.18 2597.98,3032.68C2600.36,3026.06 2602.05,3020.2 2605.78,3017.71C2614.01,3012.21 2615.22,3010.44 2621.83,3012.29C2623.18,3012.67 2624.68,3012.28 2626.21,3012.68C2630.58,3013.83 2633.19,3018.31 2632.04,3022.68C2631.21,3025.82 2628.66,3028.06 2625.67,3028.64Z" style="fill:#fff;"/>
            <path d="M2635.88,2303.28C2636.8,2308.78 2633.08,2313.99 2627.58,2314.9C2622.08,2315.81 2616.88,2312.09 2615.96,2306.59C2612.37,2303.4 2610,2303.63 2606.83,2299.86C2602.56,2294.78 2599.3,2289.45 2595.8,2283.38C2573.27,2244.39 2536.47,2204.01 2490.93,2173.4C2461.99,2153.96 2431.1,2137.17 2399.87,2128.56C2343.4,2113 2287.25,2122.56 2258.58,2183.17C2232.97,2237.03 2221.85,2300.03 2217.55,2365.38C2210.95,2465.88 2220.37,2571.75 2221.84,2660.89L2238.59,2907.45C2241.03,2979.41 2228.83,3097.2 2233.69,3195.09C2235.88,3239.08 2241.75,3278.68 2253.97,3306.9L2265.08,3318.96C2282.15,3313.69 2297.35,3299.64 2312.53,3280.78C2341.94,3244.22 2368.53,3189.5 2393.22,3125.93C2441.7,3001.16 2479.67,2842.75 2516.84,2716.99C2530.68,2670.18 2543.3,2627.44 2558.27,2593.41C2567.15,2573.23 2577.23,2557.24 2585.99,2543.16C2588.58,2536.89 2595.76,2533.89 2602.03,2536.47C2608.3,2539.05 2611.3,2546.24 2608.72,2552.51C2605.18,2567.95 2603.59,2585.89 2599.33,2606.51C2591.95,2642.31 2581.03,2684.56 2569.72,2731.21C2538.38,2860.47 2496.45,3020.23 2447.9,3147.02C2420.96,3217.4 2391.03,3277.76 2358.12,3317.83C2334.17,3347.01 2308.14,3366.04 2281.35,3373.7C2265.53,3378.12 2250.31,3375.7 2237.08,3368.01C2221.75,3359.11 2209.09,3343.14 2203.14,3327.64C2190.32,3294.26 2185.16,3248.09 2184,3196.89C2181.79,3098.7 2194.01,2980.86 2192.45,2908.73L2172.45,2662.13C2169.39,2571.69 2158.2,2464.4 2163.08,2362.29C2166.57,2289.42 2178.37,2219.17 2205.8,2158.66C2247.65,2066.77 2330.38,2047.12 2415.74,2069.41C2453.74,2079.34 2492.87,2097.14 2526.93,2122.16C2580.07,2161.18 2623.9,2214.34 2638.96,2266.3C2640.33,2271.01 2642.22,2275.57 2642.02,2280.32C2641.62,2289.79 2639.22,2294.87 2635.88,2303.28Z" style="fill:#fff;"/>
            <path d="M2153.38,2459.68C2155.87,2464.49 2153.98,2470.42 2149.17,2472.91C2144.36,2475.39 2138.43,2473.51 2135.95,2468.7C2132.07,2466.97 2129.85,2470.86 2124.42,2469.41C2119.58,2468.12 2114.72,2466.73 2109.53,2464.32C2097.62,2458.79 2087.2,2450.44 2080.68,2444.05C2065.65,2428.63 2052.11,2411.37 2039.67,2393.02C2021.92,2366.82 2006.99,2338.43 1992.6,2311.5C1956.09,2237.46 1931.18,2161.62 1912.17,2084.43C1884.33,1971.37 1869.14,1855.49 1844.67,1738.93C1840.26,1717.39 1832.87,1694.95 1826.9,1671.69C1820.68,1647.42 1815.55,1622.6 1812.3,1598.13C1810.16,1582.08 1807.55,1566.32 1809.07,1550.93C1809.5,1546.51 1809.21,1542.18 1811.41,1538.4C1814.43,1533.19 1815.32,1534.02 1819.81,1530.11C1819.81,1521.74 1826.6,1514.95 1834.97,1514.95C1843.33,1514.95 1850.12,1521.74 1850.12,1530.11C1854.19,1533.32 1855.01,1531.4 1858.07,1535.63C1860.82,1539.45 1861.86,1543.68 1863.15,1548.3C1872.29,1581 1883.31,1615.43 1894.81,1649.57C1903.34,1674.88 1909.95,1700.36 1915.01,1724.28C1938.96,1840.17 1954.22,1955.23 1980.94,2067.8C1998.18,2140.41 2020.07,2212.06 2053.4,2282.03C2064.85,2308.24 2077.14,2335.6 2091.26,2361.66C2100.31,2378.36 2109.66,2394.66 2120.88,2409.31C2124.22,2413.81 2131.06,2418.21 2136.72,2423.97C2142.27,2429.63 2147.72,2434.71 2150.12,2441.21C2153.28,2449.78 2154.72,2452.93 2153.38,2459.68Z" style="fill:#fff;"/>
            <path d="M1820.95,1454.97C1821.01,1455.82 1820.95,1456.7 1820.73,1457.58C1820.14,1460.73 1818.86,1462.73 1818.73,1464.21C1818.47,1467.16 1816.71,1467.03 1816.43,1468.69C1816.18,1470.22 1814.43,1469.29 1813.85,1470.45C1811.46,1475.27 1809.05,1468.93 1802.86,1469.18C1800.54,1469.27 1801.32,1466.49 1797.49,1464.02C1793.76,1461.62 1789.61,1457.12 1785.2,1446.42C1773.96,1419.1 1776.17,1359.47 1774.45,1349.69C1770.27,1313.02 1740.89,1202.63 1698.19,1130.55C1672.47,1087.13 1643.37,1054.32 1606.95,1088.11C1582.03,1112.22 1569.9,1157.31 1564.57,1216.52C1556.34,1307.75 1566.54,1430.73 1586.39,1567.99C1637.7,1922.71 1755.25,2371.2 1792.46,2622.03C1797.91,2658.81 1803.33,2691.41 1803.02,2719.01C1802.92,2728.04 1801.59,2736.2 1800.58,2744.08C1800.88,2756.12 1791.36,2766.14 1779.32,2766.44C1767.28,2766.74 1757.26,2757.21 1756.96,2745.17C1755.64,2737.04 1753.25,2728.7 1751.87,2719.29C1747.51,2689.71 1744.34,2653.8 1737.82,2613.26C1689.91,2315.77 1549.59,1765.11 1521.81,1403.61C1508.92,1235.87 1523.29,1107.3 1576.24,1056.3C1625.57,1006.82 1673.06,1022 1714.7,1068.31C1738.26,1094.51 1760.19,1132.18 1777.53,1172.4C1806.66,1240.01 1823.69,1313.9 1827.11,1343.43C1827.74,1353.48 1832.02,1412.58 1827.05,1442.12C1825.97,1448.53 1818.39,1453.17 1821.58,1454.37C1822.61,1454.76 1821.98,1454.95 1820.95,1454.97Z" style="fill:#fff;"/>
            <path d="M1793.61,2808.42C1794.93,2808.28 1796.31,2808.33 1796.81,2806.96C1797.01,2806.41 1799.85,2807.34 1798.9,2807.39C1794.82,2807.6 1801.01,2816.84 1802.2,2823.35C1805.63,2841.97 1810.13,2864.71 1810.58,2867.57L1819.47,2956.8C1823.94,2997.94 1829.03,3038.82 1834.89,3079.62C1840.73,3120.27 1847.37,3160.77 1855.2,3201.24C1863.21,3243.68 1870.11,3286.34 1875.78,3329.19C1881.39,3371.63 1885.76,3414.22 1890.85,3456.67C1909.17,3615.75 1933.67,3780.25 1974.4,3939.41C2001.49,4045.26 2036.07,4148.61 2079,4246.74C2109.46,4315.5 2153.3,4375.39 2188.83,4440.64C2204.87,4470.1 2219.26,4500.61 2230.43,4533.23C2249.56,4590.01 2262.47,4648.34 2271,4707.59C2290.29,4841.66 2288.59,4979.95 2303.49,5112.64C2309.68,5170.8 2326.78,5227.27 2335.48,5285.03C2338.63,5306.02 2342.87,5327.23 2340.99,5348.53C2340.49,5354.15 2339.03,5359.18 2337.71,5364.69C2337.71,5375.88 2328.63,5384.96 2317.44,5384.96C2306.26,5384.96 2297.18,5375.88 2297.18,5364.69C2296,5359.78 2294.11,5355.49 2293.25,5350.55C2289.93,5331.55 2288.86,5312.42 2285.26,5293.62C2274.09,5235.3 2255.98,5178.24 2248.06,5119.31C2231.12,4987.46 2229.2,4850 2209.36,4716.6C2201.09,4661 2190.03,4606.02 2172.41,4552.57C2162.84,4523.07 2150.25,4495.45 2136.25,4468.72C2101.08,4401.57 2057.61,4339.62 2027.69,4268.98C1973.44,4143.06 1933.84,4008.6 1902.71,3872.02C1871.76,3736.22 1849.16,3598.25 1832.07,3463.77L1800.63,3210.65C1794.32,3169.03 1789.14,3127.44 1784.94,3085.72C1780.76,3044.15 1777.52,3002.51 1774.83,2960.66L1769.61,2870.4C1769.73,2866.68 1765.8,2830.35 1771.03,2810.96C1775.12,2795.76 1782.41,2788.14 1788.53,2789.01C1794.01,2788.07 1799.22,2791.75 1800.16,2797.22C1801.01,2802.12 1798.15,2806.82 1793.61,2808.42Z" style="fill:#fff;"/>
            <path d="M2271.9,3190.29C2272.43,3192.92 2273.55,3195.28 2275.25,3196.12C2281.32,3199.12 2278.99,3198.41 2285.29,3188.78C2283.09,3184.83 2284.51,3179.84 2288.46,3177.64C2292.41,3175.45 2297.4,3176.87 2299.6,3180.82C2313.85,3180.41 2306.51,3181.67 2314.56,3184.7C2317.23,3185.7 2315.36,3188.12 2317.09,3189.89C2318.3,3191.14 2317.24,3192.46 2317.78,3194.03C2319.95,3200.36 2317.54,3208.97 2308.72,3215.11C2306.41,3216.72 2304.19,3217.17 2300,3217.96C2291.6,3224.96 2279.1,3223.83 2272.1,3215.43C2265.94,3208.04 2266.08,3197.49 2271.9,3190.29ZM2271.9,3190.29C2270.81,3184.97 2272.12,3178.57 2275.75,3181.65C2277.04,3182.74 2275.79,3184.96 2274.63,3187.52C2273.61,3188.37 2272.7,3189.3 2271.9,3190.29Z" style="fill:#fff;"/>
            <path d="M2692.9,3184.24C2691.59,3186.55 2690.31,3188.88 2689.84,3186.53C2689.6,3185.34 2690.93,3184.71 2692.9,3184.24ZM2704.47,3169.85C2704.54,3172.16 2704.66,3174.29 2707.77,3173.94C2708.39,3173.87 2709.5,3177.41 2708.78,3176.2C2707.5,3174.08 2706.41,3180.15 2702.8,3181.89C2700.12,3183.18 2695.82,3183.53 2692.9,3184.24C2693.76,3182.74 2694.63,3181.25 2695.32,3181.06C2696.93,3180.6 2695.58,3178.64 2696.99,3178.21C2700.61,3177.1 2699.44,3174.93 2698.31,3172.27C2697.96,3176.04 2696.34,3179.72 2693.45,3182.6C2686.88,3189.18 2676.2,3189.18 2669.63,3182.6C2665.86,3182.57 2668.15,3178.1 2665.49,3176.98C2658.72,3174.14 2667.98,3169.59 2665.4,3162.58C2664.31,3159.62 2668.57,3160.3 2669.64,3156.17C2670.21,3153.96 2673.22,3152.8 2677.09,3150.93C2682.18,3148.49 2694.75,3147.4 2703.05,3150.6C2719.11,3156.79 2722.8,3164.64 2720.69,3167.1C2720.42,3171.75 2716.41,3175.31 2711.76,3175.03C2708.43,3174.83 2705.67,3172.73 2704.47,3169.85ZM2697.74,3166.05C2697.79,3165.93 2697.85,3165.81 2697.92,3165.69C2698.7,3164.29 2697.74,3163.7 2696.52,3162.97C2697.03,3163.96 2697.43,3164.99 2697.74,3166.05Z" style="fill:#fff;"/>
            <path d="M2877.57,2836.13C2884.44,2835.49 2892.65,2834.26 2898.6,2833.99C2908.1,2833.56 2915.25,2835.77 2918.61,2837.72C2926.22,2842.13 2929.5,2848.57 2930.21,2855.67C2930.4,2857.64 2930.45,2860.11 2929.87,2862.9C2931.68,2865.99 2932.45,2869.71 2931.82,2873.52C2930.38,2882.16 2922.19,2888.01 2913.55,2886.57C2894.14,2884.84 2874.8,2884.39 2855.41,2882.57C2845.45,2881.64 2835.53,2880.36 2825.63,2878.94C2813.11,2878.62 2800.04,2878.02 2788.13,2876.47C2772.54,2874.43 2758.67,2870.67 2748.81,2864.93C2744.46,2862.4 2741.73,2859.7 2740,2857.36C2736.78,2856.95 2733.69,2856.63 2730.75,2856.39C2723.43,2855.8 2717.57,2855.54 2713.12,2855.8C2709.06,2856.03 2708.56,2846.91 2707.64,2850.32C2708.57,2854.79 2705.7,2859.17 2701.24,2860.11C2696.78,2861.04 2692.39,2858.18 2691.46,2853.71C2682.44,2842.24 2689.38,2833.22 2704.53,2823.82C2711.32,2819.61 2722.7,2819.23 2735.64,2818.91C2774.93,2817.94 2837.27,2829.84 2876.11,2835.93C2876.59,2836 2877.08,2836.07 2877.57,2836.13Z" style="fill:#fff;"/>
        </g>
    </g>
</svg>
