<?xml version="1.0" encoding="UTF-8" standalone="no"?>
<!DOCTYPE svg PUBLIC "-//W3C//DTD SVG 1.1//EN" "http://www.w3.org/Graphics/SVG/1.1/DTD/svg11.dtd">
<svg width="100%" height="100%" viewBox="0 0 5906 5906" version="1.1" xmlns="http://www.w3.org/2000/svg" xmlns:xlink="http://www.w3.org/1999/xlink" xml:space="preserve" xmlns:serif="http://www.serif.com/" style="fill-rule:evenodd;clip-rule:evenodd;stroke-linejoin:round;stroke-miterlimit:2;">
    <g id="Rock">
        <g id="Layer2">
            <path d="M3547.6,5344.5C3551.58,5344.54 3555.04,5347.48 3555.62,5351.53C3556.25,5356.01 3553.14,5360.16 3548.66,5360.8C3546.04,5367.18 3545.45,5360.61 3539.14,5362.63C3537.03,5363.31 3536.68,5360.56 3534.18,5359.97C3531.18,5359.27 3530.57,5356.81 3527.58,5353.76C3525.36,5351.49 3524.83,5347.59 3523.24,5343.53C3520.35,5336.1 3517.68,5326.7 3516.39,5316.52C3514.3,5300.05 3516.22,5283.23 3516.06,5280.27C3514.42,5250.44 3514.88,5219.2 3511.21,5188.91C3509.01,5170.78 3505.08,5153.09 3497.9,5136.4C3485.58,5107.53 3468.49,5089.09 3453.67,5070.87C3439.18,5053.07 3426.5,5035.4 3418.04,5013.23C3410.38,4993.17 3406.39,4969.36 3408.44,4938.26C3411.93,4892.81 3420.35,4849.32 3431.49,4806.81C3456.55,4711.28 3495.66,4620.89 3518.62,4522.63C3534.22,4456.48 3546.21,4383.23 3554.64,4309.51C3563.09,4235.68 3567.99,4161.37 3568.95,4093.18C3569.91,4024.23 3559.97,3955.65 3557.42,3886.71C3556.75,3868.65 3556.56,3850.57 3557.15,3832.45L3581.47,3575.8C3580.02,3567.12 3585.89,3558.89 3594.58,3557.45C3603.26,3556 3611.49,3561.88 3612.94,3570.56C3618.66,3583.94 3624.1,3596.32 3626.87,3610.67C3629.47,3624.11 3628.61,3638.04 3628.66,3651.86C3628.89,3712.64 3619.49,3774.71 3619.13,3834.27C3618.69,3850.95 3618.97,3867.6 3619.69,3884.22C3622.7,3954.23 3633.09,4023.84 3632.53,4093.88C3631.97,4164.11 3627.54,4240.67 3619.19,4316.75C3610.8,4393.14 3598.44,4469.03 3582.49,4537.58C3559.3,4636.43 3520.15,4727.42 3494.67,4823.48C3484.39,4862.26 3476.35,4901.89 3472.96,4943.37C3470.35,4971.17 3474.96,4990.05 3483.57,5006.14C3501.97,5040.54 3531.83,5065.86 3550.17,5115.71C3558.13,5137.7 3562.09,5160.69 3563.51,5184.15C3565.43,5215.77 3563.12,5248.11 3562.96,5279.11C3562.95,5282.01 3562.85,5297.75 3561.14,5313.88C3559.95,5325.16 3550.61,5341.74 3557,5342.16C3561.44,5342.45 3550.38,5344.79 3549.36,5342.32C3548.72,5340.78 3548.32,5343.37 3547.6,5344.5Z" style="fill:#fff;"/>
            <path d="M3675,3333.11C3676.29,3337.44 3673.82,3342 3669.49,3343.29C3665.16,3344.58 3660.6,3342.12 3659.3,3337.78C3654.79,3335.37 3653.61,3336.01 3649.99,3332.54C3646.95,3329.63 3645.64,3325.93 3643.96,3322.2C3631.07,3293.48 3627.95,3265.24 3622.86,3239.19C3617.76,3213.06 3613.69,3188.39 3604.07,3163.76C3592.84,3135.04 3574.29,3106.39 3539.72,3074.81C3514.12,3050.91 3483.52,3033.51 3450.6,3019.35C3368.55,2984.08 3272.82,2968.16 3195.88,2933.76C3158.01,2916.82 3124,2890.23 3087.19,2870.48C3073.45,2863.1 3059.28,2856.77 3044.14,2852.8C2991.51,2839.03 2848.23,2818.92 2726.91,2823.54C2672.05,2825.64 2621.8,2832.51 2587.84,2848.35C2572.48,2855.52 2560.63,2863.89 2556.7,2876.48C2552.66,2889.62 2552.98,2902.93 2555.61,2915.98C2560.38,2939.73 2572.36,2962.55 2582.41,2983.81C2621.95,3070.4 2685.27,3101.02 2753.93,3117.85C2838.55,3138.61 2931.03,3141.02 3006.73,3177.1C3070.19,3207.36 3123.52,3259.45 3152.25,3362.11C3166.85,3415.4 3160.43,3463.97 3142.14,3509.92C3105.16,3602.81 3015.38,3683.85 2975.86,3772.6C2932.94,3872.59 2900.44,3972.08 2884.37,4073.74C2871.55,4154.84 2872.54,4236.95 2880.58,4322.5C2882.13,4338.99 2886.64,4355.6 2884.73,4372.42C2884.1,4377.99 2881.62,4380.83 2879.82,4386.17C2881.66,4395.4 2875.67,4404.4 2866.44,4406.24C2857.21,4408.09 2848.22,4402.09 2846.37,4392.86C2842.25,4387.66 2838.58,4384.72 2835.65,4378.82C2830.06,4367.56 2828.82,4354.84 2826.6,4342.67C2813.51,4270.82 2816.39,4199.89 2823.43,4130.74C2836.54,4002.16 2875.79,3877.86 2931.15,3753.09C2964.13,3676.72 3034.57,3605.89 3076.08,3528.16C3100.89,3481.72 3114.22,3432.58 3097.39,3377.96C3073.26,3296.97 3031.64,3255.37 2980.99,3232.13C2908.19,3198.72 2819.26,3200.16 2738.53,3179.93C2653.09,3158.51 2576.05,3116.35 2529.26,3007.35C2518.7,2981.78 2507.17,2953.96 2502.38,2925.86C2498.67,2904.11 2498.57,2882.18 2505.45,2860.47C2520.07,2813.78 2583.43,2783.96 2668.45,2774.2C2804.11,2758.62 2994.12,2783.64 3057.84,2800.15C3077.18,2805.15 3095.36,2813.01 3112.92,2822.38C3148.62,2841.42 3181.48,2867.34 3218.21,2883.65C3295.02,2917.77 3390.55,2933.33 3472.47,2968.31C3511.42,2984.94 3547.43,3005.78 3577.76,3033.95C3619.51,3073.55 3641.47,3109.4 3654.23,3145.09C3662.47,3168.15 3667.45,3191.05 3670.25,3215.06C3673.76,3245.2 3677.8,3276.35 3680.53,3312.97C3680.81,3316.77 3681.22,3320.32 3680.21,3324.11C3678.94,3328.82 3677.39,3328.74 3675,3333.11Z" style="fill:#fff;"/>
            <path d="M3475.97,2949.4C3480.47,2949.74 3483.86,2953.67 3483.53,2958.18C3483.19,2962.69 3479.26,2966.07 3474.75,2965.74C3472.78,2965.77 3471.1,2964.5 3469.18,2964.44C3463.6,2964.25 3462.87,2963.56 3456.69,2959.95C3453.44,2958.05 3452.16,2953.61 3450.09,2949.09C3441.07,2929.43 3441.27,2890.14 3439.76,2878.26C3438.2,2853.09 3434.76,2823.97 3433.28,2793.03C3431.24,2750.07 3432.14,2703.87 3438.99,2660.68C3443.13,2634.6 3448.64,2609.12 3459.35,2586.88C3471.16,2562.36 3487.66,2541.96 3508.43,2525.71C3513.75,2520.39 3522.39,2520.39 3527.7,2525.71C3533.02,2531.03 3533.02,2539.67 3527.7,2544.99C3514.41,2561.99 3507.55,2582.05 3500.89,2603.3C3494.55,2623.52 3489.36,2644.93 3486.54,2667.42C3481.47,2707.97 3482.62,2751 3483.68,2791.17C3484.5,2822.2 3484.93,2851.55 3484.96,2876.82C3484.4,2885.57 3481.18,2909.46 3480.82,2928.94C3480.69,2935.72 3480.36,2941.4 3481,2945.52C3481.5,2948.69 3473.99,2947.78 3475.97,2949.4Z" style="fill:#fff;"/>
            <path d="M3548.34,2276.79C3552.64,2275.42 3557.25,2277.8 3558.62,2282.11C3559.99,2286.42 3557.6,2291.03 3553.3,2292.4C3546.19,2302.67 3540.78,2295.12 3533.34,2292.65C3527.44,2290.68 3526.2,2282.43 3522.02,2275.39C3518.91,2265.39 3515.58,2255.68 3513.55,2245.19C3505.96,2205.95 3506.59,2163.97 3506.75,2121.94C3507.05,2044.13 3514.83,1964.84 3524.13,1893.56C3529.93,1853.45 3537.08,1813.37 3546.7,1773.89C3556.39,1734.12 3568.59,1695 3583.07,1656.77C3617.83,1565.94 3786.42,1239.29 3823.56,1007.86C3841.43,896.508 3832.57,807.312 3742.04,796.201C3681.86,788.913 3632.25,844.867 3589.79,914.787C3524.55,1022.22 3480.98,1167.78 3466.7,1231.15C3421.88,1430.07 3390.05,1629.16 3341.79,1825.37C3321.01,1909.83 3297.22,1993.76 3268.09,2076.91C3251.04,2125.56 3232.31,2160.27 3212.41,2189.79C3179.61,2238.46 3143.31,2272.18 3106,2334.42C3072.1,2390.88 3054.31,2449.22 3044.27,2508.94C3030.14,2593.01 3036.5,2680.28 3025.67,2768.1C3024.45,2777.97 3022.03,2787.45 3020.03,2797.24C3019.33,2806.39 3011.33,2813.24 3002.19,2812.54C2993.04,2811.83 2986.19,2803.84 2986.89,2794.7C2986.42,2784.93 2985.22,2775.45 2985.17,2765.72C2984.7,2675.74 2988.9,2587.66 3002.78,2502.08C3013.31,2437.19 3032.48,2373.82 3068.93,2312.31C3106.43,2249.12 3142.89,2214.72 3175.89,2165.29C3193.88,2138.34 3210.72,2106.64 3226.03,2062.29C3263.82,1952.84 3292.21,1842.07 3316.64,1730.52C3353.64,1561.68 3381.6,1391.08 3419.12,1220.56C3436.07,1143.51 3494.04,951.136 3580.6,838.122C3628.51,775.58 3685.94,737.585 3748.13,744.783C3868.2,758.485 3899.31,868.378 3877.24,1016.17C3842.08,1251.75 3676.8,1586.37 3642.72,1679.14C3629.36,1715.12 3618.61,1752.04 3609.3,1789.33C3599.93,1826.91 3592.02,1864.89 3585.83,1903.02C3575.72,1960.47 3566.42,2023.39 3561.45,2086.58C3557.56,2136.19 3558.67,2185.79 3559.44,2233.16C3559.64,2245.67 3558.72,2257.72 3558.96,2269.9C3558.66,2271.7 3555.74,2274.52 3557.37,2274.69C3560.23,2275 3552.28,2275.55 3551.2,2273.41C3550.63,2272.26 3548.12,2274.3 3548.12,2274.3C3548.12,2274.3 3547.16,2276.36 3548.34,2276.79Z" style="fill:#fff;"/>
            <path d="M3073.01,2314.66C3071.61,2318.95 3066.98,2321.3 3062.68,2319.89C3058.39,2318.48 3056.04,2313.85 3057.45,2309.56C3056.61,2300.74 3049.71,2296.22 3044.22,2286.87C3040.29,2280.18 3035.41,2273.6 3030.14,2265.82C3009.76,2235.78 2976.03,2201.85 2937.53,2173.82C2905.77,2150.7 2871.83,2130.64 2840.46,2122.3C2820.58,2117.01 2802.32,2115.19 2789.26,2124.85C2784.68,2128.23 2781.19,2132.66 2778.23,2137.43C2774.25,2143.85 2771.23,2150.91 2768.63,2157.92C2757.97,2186.59 2750.97,2215.91 2745.61,2245.53C2732.16,2319.78 2728.77,2395.91 2711.25,2469.71C2700.18,2515.71 2679.18,2564.12 2657.81,2612.74C2644.94,2642.02 2631.82,2671.27 2622.21,2700.75C2614.01,2725.92 2610.82,2751.26 2606.62,2776.14C2605.46,2783.04 2602.55,2788.58 2601.22,2795.45C2602.23,2805.12 2595.21,2813.8 2585.53,2814.82C2575.86,2815.84 2567.18,2808.82 2566.16,2799.14C2562.88,2791.42 2559.96,2784.61 2558.49,2776.35C2553.25,2746.86 2560.79,2716 2568.39,2685.52C2588.07,2606.67 2633.05,2528.08 2648.88,2455.1C2665.71,2382.28 2668.22,2307.18 2681.26,2233.97C2687.21,2200.53 2695.31,2167.49 2707.33,2135.14C2712.34,2121.67 2718.63,2108.23 2727.01,2096.41C2733.49,2087.26 2741.2,2079.06 2750.37,2072.27C2772.48,2055.91 2800.93,2050.05 2832.97,2054.23C2877.49,2060.04 2931.18,2085.34 2977.1,2121.74C3021.53,2156.96 3061.01,2200.49 3077.38,2240.49C3082.59,2253.22 3086.73,2265.14 3086.2,2276.5C3085.43,2293.15 3082.07,2304.49 3073.01,2314.66Z" style="fill:#fff;"/>
            <path d="M2578.87,3083.66C2577.11,3079.37 2579.17,3074.45 2583.47,3072.7C2587.77,3070.94 2592.68,3073.01 2594.44,3077.3C2598.19,3077.98 2597.34,3076.72 2600.33,3079.21C2604.06,3082.29 2603.81,3088.37 2604.94,3093.5C2609.08,3112.38 2606.53,3135.85 2611.49,3153.13C2620.09,3183.12 2638.33,3197.14 2660.33,3202.35C2686.46,3208.53 2716.77,3200.56 2745.69,3193.74C2759.6,3190.45 2773.17,3188.87 2785.54,3185.46C2795.18,3181.33 2806.35,3185.8 2810.48,3195.44C2814.61,3205.08 2810.14,3216.25 2800.51,3220.38C2788.15,3227.81 2774.99,3235.93 2759.89,3241.4C2723.49,3254.57 2681.61,3256.75 2648.25,3246.26C2613.67,3235.38 2585.45,3210.45 2576.67,3161.2C2572.96,3140.39 2577.37,3112.71 2575.11,3091.19C2574.95,3089.74 2574.64,3088.32 2575.09,3086.98C2576.31,3083.37 2576.37,3086.48 2578.87,3083.66Z" style="fill:#fff;"/>
            <path d="M2647.77,2364.76C2647.65,2369.28 2643.88,2372.85 2639.36,2372.73C2634.84,2372.61 2631.27,2368.84 2631.4,2364.32C2629.3,2361.52 2627.49,2361.27 2625.87,2358.02C2622.26,2350.75 2620.37,2342.67 2617.41,2333.92C2605.67,2299.2 2585.07,2258.37 2556.49,2218.8C2507.77,2151.33 2440.12,2086.23 2371.44,2068.62C2303.09,2051.1 2239.61,2086.67 2200.49,2212.61C2178.35,2284 2176.19,2539.69 2188.85,2793.78C2201.66,3051.06 2228.57,3306.83 2261.49,3364.48L2278.01,3385.9C2286.44,3383.69 2294.06,3378.36 2301.49,3372.47C2317.12,3360.06 2331.18,3344.22 2343.92,3332.12C2410.68,3270.52 2442.64,3195.5 2461.17,3115.15C2490.91,2986.17 2487.25,2843.65 2518.28,2714.36C2527.87,2674.38 2542.07,2635.95 2557.96,2598.12C2571.78,2565.21 2586.09,2532.47 2600.4,2499.83C2606.07,2486.92 2611.39,2473.98 2617.49,2461.29C2621.67,2452.59 2626.53,2444.79 2630.83,2436.15C2632.63,2429.84 2639.22,2426.18 2645.53,2427.98C2651.85,2429.78 2655.51,2436.37 2653.7,2442.68C2650.55,2463.01 2647.34,2482.91 2641.58,2502.68C2619.71,2577.79 2581.75,2648.01 2566.42,2725.06C2534.8,2879.07 2552.66,3050.11 2504.69,3197.37C2482.75,3264.73 2447.3,3327.03 2390.2,3381.43C2373.27,3397.12 2353.95,3418.14 2332.57,3432.45C2320.4,3440.6 2307.6,3446.85 2294.3,3450.11C2274.06,3454.98 2256.19,3450.4 2240.96,3439.62C2225.77,3428.88 2213.36,3411.06 2205.16,3395.93C2171.8,3334.75 2146.58,3066.27 2135.97,2796.13C2125.69,2534.11 2127.85,2270.71 2150.77,2197.16C2202.35,2031.41 2294.49,1995.05 2384.39,2018.35C2463.4,2038.83 2545.93,2109.9 2598.25,2190.14C2628.36,2236.32 2650.79,2284.8 2654.61,2326.02C2655.65,2337.23 2657.06,2348 2653.24,2357.13C2651.68,2360.88 2650.28,2361.76 2647.77,2364.76Z" style="fill:#fff;"/>
            <path d="M2288.66,3187.9C2287.15,3185.36 2280.81,3179.34 2285.51,3179.14C2287.89,3179.04 2288.34,3182.95 2288.66,3187.9ZM2320.73,3199.16C2321.14,3198.46 2321.01,3196.43 2322.54,3197.6C2325.51,3199.85 2322.39,3192.72 2326.48,3194.68C2327.94,3195.38 2326.21,3192.58 2327.91,3193.22C2330.63,3194.25 2326.37,3189.16 2330.25,3189.89C2332.37,3190.29 2328.06,3186.76 2331.24,3186.85C2332.29,3186.88 2330.23,3186.04 2329.23,3185.31C2325.22,3195.59 2313.79,3201.03 2303.21,3197.51C2292.3,3193.87 2286.39,3182.05 2290.03,3171.13C2282.82,3164.39 2292.39,3165.94 2290.49,3162.87C2287.61,3158.22 2295.06,3162.05 2293.78,3158.49C2292.14,3153.9 2298.37,3159.11 2297.85,3155.24C2297.58,3153.27 2299.93,3155.97 2299.85,3154.12C2299.57,3147.28 2305.46,3157.52 2306.99,3151.83C2307.76,3148.99 2309.3,3154.16 2310.42,3151.54C2311.94,3147.96 2312.87,3155.09 2315,3151.9C2318.45,3146.71 2317.03,3158.43 2322.17,3154.29C2323.91,3152.89 2322.55,3156.92 2324.51,3155.66C2327.7,3153.63 2324,3158.41 2328.22,3158.63C2330.77,3158.76 2334.92,3165.49 2336.36,3176.92C2336.71,3179.74 2335.74,3185.27 2334.62,3190.86C2334.14,3193.28 2330,3196.12 2331.95,3196.98C2339.02,3200.09 2323.92,3202.51 2320.73,3199.16ZM2319.09,3198.43C2319.6,3197.75 2319.99,3197.34 2320.2,3198.23C2320.29,3198.58 2320.47,3198.89 2320.73,3199.16C2320.55,3199.46 2320.28,3199.52 2319.75,3198.99C2319.52,3198.76 2319.3,3198.58 2319.09,3198.43ZM2288.66,3187.9C2288.88,3188.27 2289,3188.57 2288.97,3188.76C2288.25,3192.88 2293.19,3189.31 2291.67,3192.39C2290.71,3194.34 2294.11,3192.29 2293.41,3194.17C2290.59,3201.72 2300.74,3192.11 2300.73,3198.92C2300.72,3202.49 2304.12,3196.81 2304.7,3200.22C2305.59,3205.5 2308.79,3195.95 2311.03,3200.87C2311.92,3202.82 2312.49,3198.78 2313.6,3200.67C2316.03,3204.8 2315.73,3196.11 2319.09,3198.43C2318.74,3198.89 2318.35,3199.46 2317.9,3199.84C2321.69,3200.02 2324.97,3202.83 2325.6,3206.73C2326.31,3211.19 2323.27,3215.39 2318.81,3216.11C2317.51,3218.17 2316.17,3215.99 2314.53,3217.38C2312.66,3218.98 2312.41,3216.06 2310.25,3217.2C2303.2,3220.92 2307.91,3214.94 2297.38,3211.49C2294.38,3210.51 2294.52,3208.12 2292.16,3204.99C2289.23,3201.08 2289.04,3193.76 2288.66,3187.9Z" style="fill:#fff;"/>
            <path d="M2692.04,3171.39C2693.49,3172.06 2694.65,3172.7 2695.34,3173.5C2699.46,3175.36 2701.29,3180.22 2699.42,3184.34C2697.56,3188.45 2692.7,3190.28 2688.58,3188.42C2685.76,3188.54 2680.93,3191.98 2675.28,3193.97C2667.72,3196.64 2664.26,3192.72 2659.07,3190.15C2651.89,3186.6 2650.84,3177.09 2653.62,3165.96C2657.06,3155.63 2668.24,3150.04 2678.57,3153.49C2686.56,3156.15 2691.71,3163.44 2692.04,3171.39ZM2691.09,3170.96C2690.38,3168.68 2689.2,3166.66 2688.49,3164.54C2687.98,3162.99 2684.52,3163.11 2682.77,3162.99C2682.64,3164.12 2682.2,3166.03 2683.22,3166.76C2686,3168.75 2688.81,3169.94 2691.09,3170.96Z" style="fill:#fff;"/>
            <path d="M2721.18,2825.51C2721.27,2824.32 2721.41,2823.17 2722.68,2822.31C2726.05,2820.04 2732.09,2812.17 2749.88,2815.2C2752.14,2814.65 2754.42,2815.1 2756.24,2816.26C2758.86,2815.86 2761.75,2815.49 2764.4,2815.66C2790.61,2817.41 2833.32,2819.55 2871.16,2821.16L2890.22,2821.23L2929.51,2820.7C2936.22,2820.89 2952.76,2822.12 2957.13,2823.02C2985.14,2828.83 2976.48,2856.68 2972.56,2861.79C2971.38,2863.32 2967,2870.37 2954.14,2871.57C2953.06,2871.67 2950.65,2871.75 2947.15,2871.8C2947.33,2871.48 2947.47,2871.06 2947.58,2870.53C2947.87,2869.03 2944.33,2868.75 2940.11,2868.85C2941.21,2870.01 2942.4,2871.11 2943.49,2871.84C2926.85,2871.97 2893.95,2871.58 2859,2870.09L2816.14,2869.96L2777.2,2870.64C2776.35,2870.62 2764.64,2870.49 2753.71,2870.35C2747.23,2871.48 2739.28,2873.88 2734.87,2873.25C2728.05,2872.26 2722.8,2869.34 2718.89,2865.41C2714.42,2860.91 2710.86,2854.79 2710.89,2845.71C2710.89,2844.41 2711.91,2832.18 2721.18,2825.51ZM2947.15,2871.8C2946.4,2873.15 2945.03,2872.87 2943.49,2871.84C2944.82,2871.83 2946.04,2871.82 2947.15,2871.8Z" style="fill:#fff;"/>
            <path d="M2092.44,2429.05C2097.85,2429.62 2101.77,2434.47 2101.2,2439.87C2100.62,2445.28 2095.77,2449.2 2090.37,2448.63C2088.31,2448.62 2086.29,2448.15 2084.3,2448.41C2073.48,2449.81 2066.74,2452.93 2056.61,2452.3C2044.74,2451.56 2034.69,2445.33 2024.69,2439.4C1998.19,2423.69 1979.64,2395.77 1962.76,2366.88C1951.55,2345.47 1941.99,2323.06 1933.89,2300.12C1925.83,2277.29 1919.45,2253.9 1914.34,2230.45C1909.62,2208.03 1905.89,2185.48 1903.25,2162.78C1893.22,2076.76 1895.69,1989.26 1881.66,1903.52C1871.84,1843.52 1821.25,1611.05 1767.7,1410.05C1740.36,1307.46 1712.39,1213.09 1688.39,1154.78C1679.2,1132.45 1673.01,1116.01 1665.94,1110.61C1647.76,1096.69 1618.19,1087.57 1590.71,1088.06C1569.04,1088.45 1547.44,1094.28 1539.77,1115.42C1524.74,1156.83 1545.85,1279.11 1561.25,1401.19C1570.52,1474.63 1578.25,1547.94 1580.46,1605.21C1580.69,1611.22 1581.44,1617.07 1580.93,1622.7C1579.48,1638.78 1575.18,1651.74 1571.55,1664.14C1571.09,1674.14 1562.61,1681.89 1552.61,1681.44C1542.61,1680.98 1534.86,1672.5 1535.31,1662.5C1533.11,1649.56 1527.91,1636.25 1525.05,1619.73C1515.73,1565.89 1508.37,1494.09 1497.15,1421.53C1486.11,1350.18 1476.27,1277.59 1471.05,1218.7C1465.99,1161.6 1467.08,1115.96 1475.48,1092.32C1490.07,1051.33 1523.42,1029.07 1563.35,1021.7C1613.11,1012.52 1673.35,1028.91 1708.1,1055.15C1718.66,1063.12 1732.45,1082.06 1745.85,1111.22C1766.06,1155.22 1789.88,1226.46 1813.88,1308.93C1877.08,1526.12 1942.64,1822.24 1954.23,1891.51C1967.03,1968.05 1968.21,2045.88 1974.22,2123.06C1976.66,2154.43 1979.69,2185.71 1985.35,2216.72C1988.86,2237.56 1993.55,2258.37 1999.6,2278.8C2005.61,2299.11 2012.74,2319.06 2021.44,2338.21C2029.04,2357.13 2037.88,2375 2049.9,2389.67C2056.84,2398.14 2064.05,2405.41 2072.83,2412.19C2079.96,2417.71 2083.77,2424.2 2092.44,2429.05Z" style="fill:#fff;"/>
            <path d="M1581.95,2017.28C1581.91,2058.41 1591.97,2100.02 1605.44,2142.23C1640.34,2251.59 1703.65,2363.1 1734.49,2461.31C1760.69,2549.1 1777.95,2637.82 1787.67,2727.4C1797.35,2816.59 1799.55,2906.61 1797.03,2997.23C1792.25,3177.97 1794.87,3432.81 1833.19,3665.91C1859.33,3824.93 1902.15,3973.63 1969.2,4080.49C2038.81,4194.72 2140.89,4287.47 2209.72,4400.43C2240.5,4450.94 2264.84,4505.32 2277.74,4566.71C2295.75,4655 2295.6,4753.34 2296.16,4853.8C2296.42,4900.88 2298.62,4948.36 2299.13,4995.48C2299.65,5042.98 2299.64,5090.05 2302.08,5135.79C2306.07,5210.62 2319.69,5280.47 2336.75,5345.37C2338.8,5353.17 2339.71,5360.87 2341.58,5368.62C2344.64,5375.98 2341.16,5384.43 2333.81,5387.49C2326.46,5390.55 2318.01,5387.07 2314.94,5379.72C2309.38,5369.95 2303.81,5360.32 2299.4,5349.79C2282.81,5310.21 2274.79,5265.97 2268.12,5220.43C2258.97,5158.01 2255.59,5091.65 2255.18,5024.07C2254.79,4959.66 2258.56,4894.16 2257.7,4829.8C2256.5,4741.16 2248.95,4654.97 2229.92,4577.45C2216.74,4522.27 2193.06,4473.91 2164.2,4428.89C2092.67,4317.28 1989.23,4225.88 1917.4,4112.71C1847.66,3999.58 1803.89,3842.74 1776.53,3675.19C1737.83,3438.23 1731.9,3179.51 1735.69,2995.79C1737.38,2907.95 1734.08,2820.78 1724.4,2734.37C1714.79,2648.58 1698.88,2563.49 1673.91,2479.34C1646.04,2380.32 1582.68,2267.98 1554.57,2156.77C1541.25,2104.1 1536.07,2051.86 1543.16,2001.98L1550.94,1981.47C1561.12,1975.77 1563.62,1969.83 1570.17,1973.19C1574.57,1975.44 1582.01,1978.3 1586.45,1987.58C1589.16,1993.25 1590.18,2002.04 1594.87,2002.98C1599.38,2003.13 1602.93,2006.91 1602.78,2011.43C1602.63,2015.95 1598.85,2019.5 1594.33,2019.35C1591.21,2019.76 1586.64,2018.91 1581.95,2017.28Z" style="fill:#fff;"/>
        </g>
    </g>
</svg>
