<?xml version="1.0" encoding="UTF-8" standalone="no"?>
<!DOCTYPE svg PUBLIC "-//W3C//DTD SVG 1.1//EN" "http://www.w3.org/Graphics/SVG/1.1/DTD/svg11.dtd">
<svg width="100%" height="100%" viewBox="0 0 5906 5906" version="1.1" xmlns="http://www.w3.org/2000/svg" xmlns:xlink="http://www.w3.org/1999/xlink" xml:space="preserve" xmlns:serif="http://www.serif.com/" style="fill-rule:evenodd;clip-rule:evenodd;stroke-linejoin:round;stroke-miterlimit:2;">
    <g id="Rock">
        <g id="Layer3">
            <path d="M3542.25,5360.68C3544.31,5364.7 3542.72,5369.64 3538.69,5371.7C3534.67,5373.76 3529.73,5372.17 3527.67,5368.14C3521.48,5368.25 3525.41,5369.58 3519.51,5367.7C3515.48,5366.41 3514.01,5363.82 3511.28,5360.56C3499.8,5346.87 3497.18,5327.57 3495.12,5308.23C3490.5,5264.89 3504.78,5215.45 3499.68,5175.2C3491.7,5109.84 3447.23,5059.32 3429.93,4998.11C3424.83,4980.07 3421.81,4961.26 3421.61,4941.3C3421.21,4900.59 3425.51,4859.25 3432.48,4817.71C3447.61,4727.49 3475.31,4636.32 3486.83,4548.38C3500.61,4447.69 3508.33,4347.85 3513.53,4248.15C3521.43,4096.75 3523.26,3945.65 3528.56,3792.33C3529.65,3762.88 3532.97,3733.77 3538.05,3705.01C3543.06,3676.6 3548.09,3648.51 3552.98,3620.16C3554.44,3611.68 3555.76,3603.57 3558.33,3595.3C3559.67,3591 3561.77,3588.51 3563.55,3584.35C3563.08,3575.94 3569.53,3568.73 3577.93,3568.27C3586.34,3567.8 3593.55,3574.25 3594.01,3582.65C3596.55,3587.4 3598.7,3590.7 3600.38,3595.79C3603.73,3605.99 3604.03,3616.5 3604.6,3627.16C3606.16,3656.07 3602.63,3684.87 3599.52,3713.74C3596.64,3740.43 3592.6,3767.05 3592.06,3794.13C3588.63,3947.96 3589.16,4099.54 3582.55,4251.46C3578.12,4353.18 3570.36,4455.02 3556.81,4557.78C3544.58,4646.54 3516.7,4738.59 3500.22,4829.52C3493.42,4867.08 3488.43,4904.41 3488.08,4941.3C3487.86,4962.81 3492.66,4982.47 3499.51,5001.38C3519.63,5056.97 3553.96,5107.42 3559.83,5168.62C3563.81,5211.87 3553.89,5264.52 3551,5310.74C3550.34,5321.2 3548.9,5330.7 3548.87,5340.49C3548.85,5345.55 3548.93,5349.66 3547.46,5354.42C3545.73,5360 3545.62,5355.91 3542.25,5360.68Z" style="fill:#fff;"/>
            <path d="M3620.49,3378.21C3616.82,3378.01 3611.56,3374.95 3615.38,3374.41C3616.85,3374.2 3613.48,3372.06 3613.39,3370.1C3612.53,3352.22 3607.91,3320.61 3607.31,3316.72C3604.29,3258.12 3584.75,3215.71 3555.08,3179.81C3523.9,3142.1 3481.81,3111.25 3433.64,3078.88L3422.47,3071.45C3272.98,2974.15 3199.69,2914.03 3117.77,2879.27C3037.28,2845.12 2948.43,2836.45 2768.49,2839.09C2731.28,2839.78 2681.01,2839.02 2635.6,2847.76C2608.44,2852.99 2583.02,2861.46 2564.89,2877.22C2560.93,2880.66 2561.35,2886.3 2561.43,2891.5C2561.53,2898.29 2562.85,2905.1 2564.34,2911.01C2577.54,2963.03 2610.73,3000.07 2652.93,3029.51C2760.88,3104.8 2923.98,3133.85 3016.14,3199.68C3054.34,3227.13 3088.31,3255.52 3114.73,3290.18C3133.14,3314.34 3147.9,3341.52 3158.2,3373.19C3165.54,3395.9 3170.62,3420.39 3172.28,3445.03C3173.99,3470.54 3172.14,3496.2 3165.75,3520.33C3156.22,3555.89 3140.36,3591.09 3121.63,3625.49C3095.65,3673.21 3064.2,3719.48 3038.91,3763.46C3003.57,3825.01 2968.06,3891.58 2939.22,3959.89C2920.03,4005.37 2904.01,4051.65 2891.95,4097.2C2882.98,4132.87 2878.9,4166.1 2877.79,4198.23C2876.36,4239.44 2881.47,4278.69 2885.37,4319.26C2887.34,4339.78 2889.29,4360.54 2889.91,4382C2890.53,4403.14 2889.15,4424.1 2888.22,4446.53C2889.39,4457.37 2881.54,4467.12 2870.7,4468.29C2859.86,4469.46 2850.11,4461.61 2848.94,4450.77C2842.79,4426.25 2835.41,4403.79 2830.16,4380.73C2825.17,4358.82 2821.58,4337.24 2818.95,4315.76C2817.12,4300.84 2816.54,4285.93 2815.86,4271.05C2813.08,4210.73 2816.54,4150.22 2836.2,4082.17C2852.39,4022.66 2875.8,3962.31 2902.18,3903.13C2928.22,3844.73 2957.16,3787.43 2986.68,3734.02C3010.97,3690.03 3041.36,3643.69 3066.27,3595.97C3082,3565.84 3095.47,3535.15 3103.2,3504.15C3107.6,3486.69 3108.49,3468.16 3107.06,3449.77C3105.55,3430.56 3101.38,3411.49 3095.47,3393.82C3085.35,3363.25 3069.59,3338.36 3050.16,3316.29C3029.53,3292.87 3004.85,3272.54 2977.7,3252.64C2886.94,3185.71 2724.89,3154.55 2618.6,3077.92C2565.47,3039.62 2525.11,2990.98 2509.36,2924.49C2505.69,2909.17 2503.46,2890.26 2506.74,2873.44C2509.66,2858.51 2516.46,2845.01 2528.41,2834.83C2553.56,2813.4 2587.99,2800.61 2625.41,2793.7C2674.07,2784.71 2727.81,2785.32 2767.63,2784.78C2959.11,2781.52 3053.42,2792.43 3139.22,2828.44C3223.47,2863.81 3299.49,2924.4 3453.51,3023.48L3465.47,3031.33C3531.21,3075.18 3587.33,3116.65 3621.54,3173.61C3644.81,3212.35 3658.18,3257.99 3658.6,3315.08C3658.19,3319.72 3659.47,3359.27 3649.67,3378.07C3646.81,3383.55 3645.27,3388.11 3641.35,3389.85C3632,3394.01 3631.23,3399.17 3625.3,3394.18C3620.67,3394.78 3616.43,3391.5 3615.84,3386.88C3615.36,3383.2 3617.34,3379.76 3620.49,3378.21Z" style="fill:#fff;"/>
            <path d="M3493.68,3058.33C3493.74,3062.85 3490.12,3066.57 3485.6,3066.63C3481.08,3066.69 3477.36,3063.07 3477.3,3058.55C3474.18,3050.77 3470.7,3044.87 3468.61,3036.75C3465.85,3025.99 3465.51,3014.97 3464.57,3003.9C3462.25,2976.56 3461.42,2949.16 3461.05,2921.69C3459.91,2836.61 3463.78,2751.36 3466.73,2666.36C3467.03,2657.86 3466.72,2649.31 3467.76,2640.88C3469.35,2627.81 3472.93,2615.7 3475.58,2602.82C3475.82,2593.94 3483.23,2586.93 3492.11,2587.16C3501,2587.41 3508.01,2594.81 3507.77,2603.69C3509.68,2616.08 3512.61,2627.75 3513.42,2640.27C3520.46,2748.96 3514.1,2858.61 3508.57,2967.42C3507.33,2991.87 3507.44,3016.38 3501.45,3040.07C3499.68,3047.08 3496.49,3051.68 3493.68,3058.33Z" style="fill:#fff;"/>
            <path d="M3569.6,2253.71C3570.78,2257.78 3568.64,2262.15 3564.6,2263.66C3563.01,2268.73 3561.79,2261.15 3555.84,2262.12C3553.98,2262.43 3556.38,2259.78 3552.2,2257.36C3549.83,2255.98 3548.16,2254.84 3544.28,2247.39C3541.27,2241.6 3540.64,2232.52 3539.64,2222.44C3537.18,2197.77 3539.1,2167.82 3539.15,2165.23C3541.84,2112.97 3545.54,2060.64 3552.23,2008.65C3558.99,1956.12 3568.9,1904.08 3581.98,1852.77C3635.2,1661.89 3747.03,1468.19 3800.77,1270.64C3835.6,1142.61 3845.56,1012.87 3794.47,881.085C3785.51,857.995 3775.41,835.084 3760.19,817.467C3747.37,802.633 3730.63,791.946 3707.17,789.558C3645.65,783.346 3598.41,838.775 3559.06,908.039C3497.97,1015.55 3460.42,1161.01 3444.62,1226.23C3426.48,1301.7 3407.56,1377.18 3390.97,1453.12C3379.99,1503.4 3370.03,1553.89 3362.03,1604.71C3347.06,1700.28 3339.58,1798.11 3322.49,1893.7C3314.99,1935.64 3305.66,1977.15 3293.14,2017.88C3283.55,2049.05 3270.59,2075.51 3255.7,2099.6C3221.64,2154.73 3176.77,2196.54 3142.04,2258.17C3105.99,2322.16 3080.81,2395.13 3062.84,2471.13C3041.45,2561.57 3032.96,2656.54 3024.04,2745.78C3021.66,2769.5 3018.23,2792.57 3015.78,2815.33C3015.32,2825.52 3006.67,2833.42 2996.47,2832.96C2986.28,2832.49 2978.38,2823.84 2978.84,2813.65C2978.47,2790.46 2977.61,2766.82 2978.49,2742.68C2981.83,2650.62 2995.64,2553.39 3017.37,2460.43C3036.17,2379.99 3063,2302.85 3101.04,2235.11C3136.01,2172.84 3181.12,2130.47 3215.44,2074.76C3228.3,2053.88 3239.52,2030.98 3247.78,2003.97C3259.67,1965.06 3268.49,1925.4 3275.59,1885.35C3292.47,1790.07 3299.73,1692.57 3314.48,1597.31C3322.45,1545.52 3332.41,1494.07 3343.41,1442.82C3359.8,1366.49 3378.53,1290.61 3396.48,1214.75C3415.06,1135.6 3464.32,944.128 3546.36,831.222C3591.89,768.555 3648.09,730.035 3712.36,735.977C3743.45,738.831 3767.59,750.506 3787.1,767.357C3814.18,790.739 3831.87,825.184 3846.08,860.771C3889.11,968.465 3895.15,1075.27 3879.97,1181.19C3846.4,1415.37 3705.61,1645.09 3645.13,1870.07C3633.77,1908.82 3624.73,1948.15 3616.93,1987.77C3605.11,2047.87 3596.28,2108.55 3589.6,2169.35C3589.24,2171.82 3587.46,2200.61 3583.25,2224.13C3581.58,2233.49 3580.29,2241.8 3577.46,2247.23C3575.15,2251.67 3572.33,2253.41 3569.6,2253.71Z" style="fill:#fff;"/>
            <path d="M3058.88,2290.84C3055.45,2293.79 3050.28,2293.41 3047.33,2289.99C3044.37,2286.56 3044.76,2281.39 3048.18,2278.44C3047.43,2275.03 3042.73,2276.04 3045.46,2274.69C3047.43,2273.71 3042.7,2271.59 3043.72,2273.45C3045.58,2276.83 3036.28,2270.31 3038.29,2273.04C3039.65,2274.88 3033.91,2273.49 3034.95,2275.43C3035.86,2277.12 3032.99,2279.35 3034.22,2281.05C3034.61,2281.6 3031.84,2282.76 3032.39,2282.16C3036.27,2277.89 3022.67,2274.3 3018.47,2270.64C2986.05,2236.31 2925.62,2170.45 2862.73,2136.55C2827.02,2117.31 2790.48,2107.42 2760.08,2132.24C2755.96,2135.6 2752.97,2144.19 2748.45,2155.51C2734.88,2189.49 2720.63,2244.29 2706.28,2307.57C2679.07,2427.6 2653.11,2577.72 2634.77,2678.36C2632.34,2691.72 2630.39,2704.27 2627.67,2715.59C2621.95,2739.38 2615.4,2757.72 2611.49,2770.71C2609.9,2779.92 2601.13,2786.11 2591.92,2784.52C2582.71,2782.93 2576.53,2774.17 2578.11,2764.96C2578.78,2751.48 2578.36,2732.11 2580.52,2707.88C2582.68,2683.6 2587.54,2654.94 2592.32,2623.29C2607.16,2525.13 2629.15,2399.27 2651.49,2295.49C2665.92,2228.41 2681.04,2170.45 2695.17,2134.43C2704.52,2110.61 2715.01,2094.9 2723.62,2087.8C2762.38,2055.83 2807.35,2053.22 2853.14,2068.92C2934.15,2096.69 3018.3,2187.6 3059.67,2232.04C3063.06,2236.11 3067.94,2240.21 3071.02,2245.12C3078.98,2257.83 3087.25,2271.64 3080.15,2280.07C3078.02,2282.6 3080.09,2284.02 3076.91,2285.22C3074.64,2286.07 3076.33,2288.19 3073.82,2288.49C3063.87,2289.69 3071.01,2295.93 3058.88,2290.84Z" style="fill:#fff;"/>
            <path d="M2562.83,3046.49C2562.96,3047.77 2563.31,3049.45 2563.22,3051C2561.76,3071.9 2562.16,3094.54 2564.63,3116.9C2567.05,3138.73 2571.59,3160.23 2579.04,3179.36C2583.78,3191.48 2589.79,3203.59 2597.29,3214.58C2604.24,3224.76 2612.65,3233.83 2622.78,3240.79C2643.32,3254.94 2665.37,3249.61 2687.09,3239.28C2716.8,3225.14 2744.98,3199.2 2770.1,3180.71C2778.3,3174.68 2786.38,3170.15 2793.61,3165.87C2800.54,3160.32 2810.67,3161.45 2816.21,3168.38C2821.76,3175.31 2820.63,3185.44 2813.7,3190.98C2808.2,3196.82 2802.91,3203.89 2796.07,3210.8C2771.67,3235.42 2738.61,3262.72 2705.49,3278.24C2669.66,3295.04 2632.58,3297.35 2599.81,3272.66C2588.84,3264.38 2579.39,3254.38 2571.49,3243.15C2560.37,3227.34 2552.03,3209.34 2545.98,3191.38C2538.49,3169.23 2534.12,3144.56 2532.68,3119.59C2531.28,3095.26 2532.47,3070.73 2535.41,3048.22C2538.77,3035.86 2541.53,3029.64 2544.87,3029.56C2548.79,3029.47 2553.73,3023.58 2557.84,3033.47C2562.03,3035.14 2564.08,3039.91 2562.4,3044.11C2560.73,3048.31 2555.96,3050.35 2551.76,3048.67C2550.81,3049.1 2550.33,3049.93 2550.33,3049.93C2550.33,3049.93 2551.1,3052.35 2551.69,3051.74C2553.71,3049.66 2555.91,3053.26 2556.87,3051.21C2557.47,3049.93 2560.66,3047.98 2562.83,3046.49ZM2562.83,3046.49C2562.71,3045.37 2562.76,3044.57 2563.45,3044.48C2565.93,3044.18 2564.8,3045.14 2562.83,3046.49Z" style="fill:#fff;"/>
            <path d="M2650.97,2313.43C2653.55,2317.13 2652.65,2322.24 2648.94,2324.83C2645.23,2327.42 2640.12,2326.51 2637.54,2322.8C2629.34,2323.77 2634.08,2326.18 2625.72,2324.35C2621.63,2323.45 2618.87,2321.05 2615.45,2318.19C2612.68,2315.89 2610.57,2312.83 2608.07,2309.98C2593.38,2293.25 2576.12,2274.78 2557.57,2255.31C2519.56,2215.43 2475.01,2173.2 2430.1,2143.23C2397.89,2121.72 2366.41,2105.37 2336.82,2105.36C2321.52,2105.35 2307.53,2109.03 2294.74,2115.44C2280.64,2122.51 2267.87,2132.54 2256.23,2144.21C2210.57,2190.4 2194.75,2243.61 2193.11,2299.64C2190.39,2393.03 2223.23,2493.05 2227.67,2586.13C2229.37,2647.75 2227.97,2709.83 2224.02,2771.77C2220.1,2833.37 2213.7,2894.82 2206.05,2955.58C2201.46,2996.12 2188.23,3104.41 2193.6,3197.49C2195.53,3231.06 2199.98,3262.52 2208.29,3287.46C2213.88,3304.19 2220.39,3317.83 2231.46,3323.97C2238.9,3328.09 2247.72,3326.24 2256.3,3323.99C2269.87,3320.43 2283.02,3313.6 2293.53,3307.82C2309.72,3298.92 2322.29,3288.84 2333.15,3277.63C2351.64,3258.53 2365.28,3236.19 2381.89,3210.79C2421.04,3151.16 2441.17,3096.8 2454.04,3042.92C2475.47,2953.24 2476.87,2864.27 2499.38,2755.16C2512.73,2694.9 2528.91,2634.61 2549.2,2575.76C2562.65,2536.74 2578.27,2498.86 2593.1,2460.8C2596.12,2451.24 2606.33,2445.93 2615.9,2448.95C2625.46,2451.97 2630.77,2462.18 2627.75,2471.74C2621.47,2499.58 2616.08,2527.5 2609.16,2555.44C2598.97,2596.59 2586.86,2637.37 2577.3,2678.67C2570.5,2708.03 2564.42,2737.47 2559.32,2766.97C2538.57,2877.53 2540.05,2967.68 2518.58,3058.28C2504.21,3118.94 2479.79,3179.58 2434.79,3246.06C2415.3,3274.76 2398.85,3299.71 2377.34,3321.17C2362.23,3336.24 2344.8,3349.75 2322.46,3361.53C2304.8,3370.84 2281.56,3381.42 2258.84,3384.73C2238.89,3387.64 2219.29,3385.44 2202.24,3375.59C2169.22,3356.52 2148.11,3306.91 2140.47,3243.62C2127.9,3139.58 2144.29,2997.78 2149.87,2949.19C2155.93,2889.43 2160.54,2829.01 2163.15,2768.52C2165.74,2708.38 2166.32,2648.16 2163.67,2588.43C2161.38,2494.18 2132.62,2392.27 2135.91,2297.82C2138.35,2227.64 2157.1,2161.12 2213.58,2102.57C2229.54,2085.87 2247.32,2071.7 2266.86,2061.35C2287.78,2050.26 2310.81,2043.74 2336.12,2043.16C2387.28,2042.2 2446.62,2070.74 2500.95,2115.02C2541.65,2148.19 2580.3,2189.24 2611.01,2228.74C2625.95,2247.96 2640.44,2265.87 2649.45,2284.01C2652.82,2290.79 2657.11,2296.71 2656.47,2303.51C2655.65,2312.43 2655.26,2305.89 2650.97,2313.43Z" style="fill:#fff;"/>
            <path d="M2138.7,2448.37C2143.04,2447.11 2147.59,2449.61 2148.85,2453.95C2150.11,2458.3 2147.61,2462.84 2143.26,2464.1C2139.49,2472.05 2137.23,2469.97 2129.38,2474.32C2127.11,2475.58 2125.17,2474.74 2122.43,2474.67C2097.55,2474.03 2064.78,2433.53 2036.38,2381.53C1983.14,2284.06 1941.7,2131.37 1933.55,2110.15C1912.95,2055.52 1888.31,2002.39 1866.29,1948.29C1856.55,1924.38 1847.32,1900.29 1839.1,1875.82L1829.66,1845.25C1815.65,1791.77 1804.69,1737.93 1806.77,1683.6C1807.03,1676.64 1810.09,1672.21 1811.51,1665.36C1808.98,1655.28 1815.12,1645.04 1825.21,1642.52C1835.3,1640 1845.53,1646.14 1848.05,1656.23C1852.99,1662.17 1857.37,1665.87 1860.59,1672.86C1882.63,1720.66 1873.28,1777.19 1889.04,1828.34L1897.72,1855.96L1992.47,2087.79C1999.4,2106.24 2034.94,2223.33 2074.98,2318.69C2081.82,2334.99 2089.21,2350.43 2095.59,2365.07C2107.22,2391.76 2116.05,2414.98 2127.39,2428.5C2130.24,2431.9 2132.82,2434.41 2135.12,2436.66C2139.43,2440.9 2133.73,2445.96 2138.7,2448.37Z" style="fill:#fff;"/>
            <path d="M1834.59,1525.54C1836.07,1529.81 1833.81,1534.48 1829.54,1535.97C1825.27,1537.45 1820.6,1535.19 1819.12,1530.92C1813.4,1527.99 1812.25,1527.2 1807.73,1521.83C1805.2,1518.82 1804.63,1515.09 1803.47,1511.06C1799.57,1497.64 1800.24,1481.99 1796.86,1470.24C1784.76,1407.74 1765,1301.09 1742.57,1214.02C1732.33,1174.3 1722.44,1138.65 1709.76,1115.02C1704.21,1104.67 1696.82,1094.35 1688.27,1085.12C1680.02,1076.22 1670.74,1068.28 1660.89,1062.55C1650.1,1056.22 1636.94,1052.5 1624.35,1053.28C1614.49,1053.89 1604.8,1057.2 1598.33,1065.66C1575.13,1096.01 1566.77,1183.17 1561.54,1279.5C1553.95,1419.39 1558.48,1578.26 1560.27,1633.61C1565.15,1769.99 1576.26,1908.89 1596.13,2046.53C1615.95,2183.82 1644.48,2319.8 1682.34,2450.97C1707.11,2536.63 1773.56,2612.87 1808.04,2697.66C1819.68,2726.29 1831.03,2755.72 1830.57,2786.47C1830.36,2800.23 1827.19,2812.7 1823.25,2826.34C1822.9,2836.16 1814.64,2843.85 1804.82,2843.5C1795,2843.14 1787.31,2834.89 1787.66,2825.07C1785.19,2813.49 1780.13,2804 1777.24,2792.89C1770.8,2768.1 1765.05,2743.58 1754.85,2719.95C1717.72,2633.95 1653.05,2554.31 1628.08,2466.54C1589.96,2332.85 1561.97,2194.2 1541.6,2054.43C1521.26,1914.86 1508.53,1774.14 1502.77,1635.84C1499.86,1571.53 1491.64,1369.63 1502.83,1216.18C1509.22,1128.48 1524.14,1055.88 1546.11,1026.31C1560.95,1006.32 1581.32,994.612 1603.61,989.613C1633.64,982.878 1667.57,989.371 1694.36,1004.63C1709.74,1013.44 1724.45,1025.47 1737.4,1039.22C1750.04,1052.65 1760.94,1067.74 1769.19,1082.85C1787.95,1117.59 1805.12,1174 1817.07,1235.82C1832.69,1316.74 1840.55,1406.61 1847.44,1462.15C1847.94,1475.91 1846.42,1493.06 1843.89,1508.6C1843.42,1511.53 1842.62,1513.88 1841.58,1516.46C1839.5,1521.58 1836.68,1520.94 1834.59,1525.54Z" style="fill:#fff;"/>
            <path d="M1796.46,2816.08C1800.12,2813.43 1805.25,2814.24 1807.9,2817.9C1810.55,2821.56 1809.73,2826.69 1806.07,2829.34C1806.49,2834.65 1811,2831.39 1809.91,2837.22C1808.33,2845.68 1802.92,2856.53 1800.69,2872.74C1794.28,2919.38 1795.81,2993.63 1801.3,3074.3C1811.84,3229.22 1835.48,3406.77 1842.28,3457.78C1860.03,3599.76 1880.3,3749.56 1920.59,3892.06C1947.13,3985.94 1982.26,4076.71 2031.93,4159.71C2058.95,4204.46 2095.11,4252.56 2133.46,4301.37C2170.37,4348.33 2209.39,4395.77 2241.72,4443.94C2273.6,4491.4 2299.28,4539.33 2313.41,4586.23C2328.76,4639.45 2336.46,4693.28 2339.26,4747.5C2348.88,4933.64 2299.13,5124.38 2321.72,5309.35C2322.93,5319.26 2325.29,5329.04 2326,5339.03C2326.74,5349.37 2325.47,5359.23 2325.73,5369.65C2328.67,5383.18 2320.07,5396.56 2306.54,5399.5C2293.01,5402.44 2279.63,5393.84 2276.69,5380.31C2272.23,5369.87 2267.5,5360.15 2264.61,5349.24C2261.8,5338.65 2261.29,5327.6 2260.01,5316.75C2238.02,5130.15 2288.55,4938.08 2280.26,4750.33C2278.07,4700.49 2271.66,4650.95 2258.03,4601.93C2246.75,4559.45 2224.58,4516.02 2197.58,4472.41C2167.75,4424.25 2132.7,4375.59 2097.53,4329.06C2059,4278.09 2020.64,4229.45 1992.7,4183.47C1939.98,4097.44 1901.9,4003.29 1873.51,3905.55C1831.49,3760.91 1810.62,3608.51 1792.01,3464.17C1784.96,3405.26 1755.41,3179.57 1753.54,3011.68C1752.64,2930.74 1758.69,2862.73 1773.81,2831.19C1776.87,2824.79 1778.83,2817.41 1783.94,2815.58C1791.68,2812.79 1789.68,2813.45 1796.46,2816.08Z" style="fill:#fff;"/>
            <path d="M2247.05,3248.27C2243.74,3248.24 2240.55,3246.45 2238.9,3243.32C2236.5,3238.79 2238.23,3233.16 2242.76,3230.76C2242.46,3229.45 2229.95,3240.75 2244.18,3219.74C2246.38,3216.49 2253.88,3216.88 2258.86,3216.31C2269.83,3215.79 2279.17,3224.28 2279.69,3235.25C2280.21,3246.23 2271.73,3255.56 2260.75,3256.09C2258.83,3256.05 2256.39,3257.21 2255.01,3256.62C2242.21,3251.14 2243.9,3249.17 2247.05,3248.27ZM2250.73,3247.54C2251.27,3247.43 2251.58,3247.33 2251.46,3247.19C2251.22,3247.32 2250.97,3247.43 2250.73,3247.54Z" style="fill:#fff;"/>
            <path d="M2657.62,3200.02C2657.37,3200.8 2656.69,3201.08 2655.41,3200.66C2656.17,3200.49 2656.9,3200.28 2657.62,3200.02ZM2657.62,3200.02C2658.17,3198.31 2656.63,3194.19 2655,3190.01C2654.85,3194.01 2651.78,3197.41 2647.68,3197.85C2645.48,3200.99 2643.87,3198.46 2642.4,3199.88C2640.64,3201.58 2641.16,3198.52 2639.7,3199.85C2633.25,3205.73 2639.38,3194.59 2632.92,3195.59C2628.66,3196.26 2635.03,3192.35 2630.74,3191.57C2625.87,3190.7 2634.64,3188.84 2629.78,3185.72C2627.05,3183.95 2632.41,3184.82 2629.88,3181.95C2626.8,3178.45 2631.11,3180.53 2631.51,3173.64C2631.59,3172.2 2633.07,3171.33 2634.27,3170.21C2638.18,3166.55 2643.97,3164.77 2647.42,3164.7C2657.34,3162.49 2667.19,3168.76 2669.39,3178.68C2671.43,3187.85 2666.24,3196.95 2657.62,3200.02ZM2652.73,3184.05C2652.18,3182.41 2651.79,3181 2651.75,3180C2651.64,3176.99 2648.8,3183.28 2647.76,3179.3C2647.58,3178.61 2647.49,3180.68 2646.95,3181.51C2649.19,3181.55 2651.26,3182.5 2652.73,3184.05Z" style="fill:#fff;"/>
            <path d="M2774.68,2877.11C2774.6,2878.98 2773.88,2880.82 2772.51,2882.29C2769.44,2885.61 2764.25,2885.8 2760.94,2882.73C2759.23,2881.15 2758.1,2879.24 2756.49,2878.22C2743.5,2869.95 2744.28,2864.12 2742.2,2856.95C2739.47,2847.53 2746.69,2842.59 2759.43,2832.89C2764.25,2829.22 2772.2,2828.18 2781.24,2827.03C2818.45,2822.26 2889.26,2831.39 2933,2843.06C2949.87,2847.56 2961.37,2853.96 2967.29,2855.86C2977.4,2857.05 2984.65,2866.22 2983.46,2876.34C2982.27,2886.45 2973.09,2893.69 2962.98,2892.5C2956.47,2893 2942.87,2894.93 2924.58,2893.67C2882.73,2890.8 2818.79,2878.58 2784.03,2877.95C2780.37,2877.89 2777.31,2877.37 2774.68,2877.11ZM2773.21,2872.02C2774.9,2870.59 2771.44,2866.16 2773.21,2863.69C2773.91,2862.71 2772.25,2861.76 2770.79,2861.41C2769.16,2861.01 2767.74,2863.73 2768.6,2866.11C2769.17,2867.69 2770.62,2869.07 2772.07,2870.72C2772.51,2871.12 2772.89,2871.56 2773.21,2872.02Z" style="fill:#fff;"/>
        </g>
    </g>
</svg>
