<?xml version="1.0" encoding="UTF-8" standalone="no"?>
<!DOCTYPE svg PUBLIC "-//W3C//DTD SVG 1.1//EN" "http://www.w3.org/Graphics/SVG/1.1/DTD/svg11.dtd">
<svg width="100%" height="100%" viewBox="0 0 5906 5906" version="1.1" xmlns="http://www.w3.org/2000/svg" xmlns:xlink="http://www.w3.org/1999/xlink" xml:space="preserve" xmlns:serif="http://www.serif.com/" style="fill-rule:evenodd;clip-rule:evenodd;stroke-linejoin:round;stroke-miterlimit:2;">
    <g id="Okay">
        <g id="_1" serif:id="1">
            <path d="M3552.59,5354.15C3551.94,5356.4 3550.54,5358.26 3547.75,5358.48C3541.87,5362.47 3539.19,5358.83 3537.99,5355.26C3534.77,5353.39 3530.88,5350.61 3526.19,5346.67C3521.57,5342.79 3521.27,5332.31 3520.21,5327.97C3518.26,5316.57 3515.95,5305.65 3515.25,5293.91C3514.8,5286.41 3515.49,5278.85 3515.82,5271.27C3518.94,5198.44 3530.82,5122.6 3549.87,5048.53C3564.02,4993.49 3581.32,4939.04 3603.68,4888.4C3612.93,4867.44 3622.74,4847.02 3634.34,4827.98C3642.41,4814.73 3651.47,4802.91 3660.45,4790.73C3666.93,4778.47 3682.15,4773.78 3694.41,4780.26C3706.67,4786.74 3711.36,4801.96 3704.88,4814.22C3700.11,4827.81 3696.53,4841.5 3691.51,4855.39C3684.34,4875.22 3676.37,4895.03 3668.55,4915.26C3649.61,4964.2 3630.95,5014.78 3616.06,5066.56C3596.06,5136.1 3581.11,5206.94 3573.95,5275.54C3573.21,5282.64 3572.93,5289.75 3571.81,5296.73C3570.05,5307.7 3566.9,5317.77 3564.81,5328.49C3564.03,5331.36 3564.41,5337.9 3562.23,5341.27C3558.49,5347.04 3555.3,5351.22 3552.59,5354.15Z" style="fill:#fff;"/>
            <path d="M3742.32,4566.83C3741.95,4566.07 3741.54,4565.17 3741.67,4564.78C3743.28,4559.82 3735.83,4559.6 3734.64,4555.02C3734.06,4552.8 3733.38,4555.21 3730.66,4556.03C3728.14,4556.78 3727.03,4558.7 3730.02,4560.58C3730.68,4561 3731.72,4560.71 3732.77,4560.62C3737.18,4559.92 3741.33,4562.89 3742.11,4567.26C3742.09,4567.38 3742.11,4567.5 3742.17,4567.62C3742.76,4572.01 3739.73,4576.1 3735.33,4576.8C3733.3,4577.27 3731.3,4576.77 3729.95,4577.55C3717.03,4585.04 3720.63,4579.58 3712.41,4578.16C3709.44,4577.65 3709.79,4573.73 3707.99,4571.16C3706.05,4568.36 3707.05,4564.41 3707.03,4559.72C3707,4553.8 3710.34,4544.48 3717.88,4532.4C3732.84,4508.43 3770.55,4472.72 3810.98,4429.5C3849.35,4390.98 3937.7,4326.6 3998.71,4265.19C4025.3,4238.44 4046.99,4213.09 4053.16,4190.64C4058.41,4170.33 4062.11,4149.48 4064.63,4128.26C4075.17,4039.61 4068.92,3945.44 4087.35,3857.97C4114.52,3744.07 4163.72,3637.54 4226.35,3537.66C4299.09,3421.65 4387.73,3313.16 4477.18,3211.38C4499.84,3185.6 4523.18,3160.97 4545.7,3136.04C4554.39,3125.43 4570.05,3123.86 4580.66,3132.54C4591.28,3141.23 4592.84,3156.89 4584.16,3167.5C4564.14,3194.57 4544.24,3222.13 4523.21,3249.34C4442.16,3354.16 4356.42,3460.64 4286.78,3575.01C4229.41,3669.23 4181.47,3767.83 4155.86,3874.38C4133.28,3958.43 4133.75,4050.2 4119.87,4136.01C4116.08,4159.44 4111.55,4182.49 4105.07,4204.86C4097.13,4233.97 4071.52,4268.65 4037.03,4303.3C3975.91,4364.71 3887.08,4428.63 3848.52,4467.04C3806.03,4506.78 3770.28,4542.12 3751.24,4561.03C3748.56,4563.69 3743.42,4565.41 3742.32,4566.83ZM3742.32,4566.83C3742.74,4567.73 3743.12,4568.46 3742.5,4567.99C3742.34,4567.87 3742.23,4567.74 3742.17,4567.62C3742.16,4567.55 3742.15,4567.49 3742.14,4567.43C3742.13,4567.37 3742.12,4567.31 3742.11,4567.26C3742.13,4567.12 3742.2,4566.98 3742.32,4566.83Z" style="fill:#fff;"/>
            <path d="M4004.47,3080.72C4004.05,3082.24 4003.59,3083.73 4003.12,3085.2C4003.43,3084.24 4003.38,3080.82 4004.47,3080.72ZM4004.47,3080.72C4019.38,3027.87 4005.3,2947.19 3989,2857.01C3967.05,2735.57 3939.2,2598.4 3951.64,2484.13C3962.65,2382.92 4004.18,2298.75 4103.34,2253.41C4165.12,2224.7 4204.78,2223.09 4231.12,2233.35C4253.11,2241.91 4268.26,2258.93 4279.39,2282.71C4293.4,2312.63 4300.02,2355.55 4312.76,2399.4C4326.22,2447.68 4338.87,2496.93 4355.02,2544.73C4365.31,2575.16 4376.87,2605.06 4392.16,2633.34C4401.42,2650.48 4412.03,2668.27 4423.84,2685.15C4434.88,2700.95 4446.89,2716.03 4460.62,2728.27C4484.24,2749.39 4519.07,2763.65 4548.65,2780.87C4577.07,2797.42 4601.66,2816.33 4614.67,2841.18C4628.32,2867.27 4632.25,2899.85 4613.55,2942.63C4604.38,2960.35 4592.29,2985.86 4573.37,3000.75C4565.47,3006.97 4558.31,3014.46 4549.21,3013.93C4543.24,3013.59 4544.77,3013.36 4539.66,3010.53C4535.6,3012.51 4530.69,3010.83 4528.71,3006.77C4526.72,3002.71 4528.41,2997.8 4532.47,2995.82C4534.14,2990.91 4531.31,2989.6 4533.58,2984.7C4537.08,2977.12 4540.79,2969.74 4544.74,2961.25C4551.08,2947.64 4556.75,2933.28 4560.19,2921.75C4570.73,2892.02 4564.03,2873.37 4548.7,2859.31C4514.13,2827.6 4453.21,2810.76 4416.18,2779.13C4401.63,2766.71 4388.17,2752.12 4376,2736.27C4358.9,2714 4344.36,2689.26 4331.78,2665.79C4314.71,2633.83 4301.16,2600.31 4290.35,2565.78C4274.85,2516.3 4264.64,2464.97 4252.78,2414.85C4241.62,2365.39 4241.64,2316.85 4222.05,2290.77C4207.08,2270.83 4180.43,2275.17 4125.09,2300.38C4045.08,2337.92 4013.68,2407.56 4005.7,2489.7C3995.05,2599.26 4024.96,2730.1 4047.21,2846.17C4067.24,2950.66 4080.17,3044.17 4061.38,3103.81C4058.11,3114.02 4020.64,3154.17 3963.74,3203.66C3836.07,3314.73 3612.39,3493.63 3582.44,3520.1C3542.78,3554.99 3504.57,3590.4 3468.38,3627.69C3443.16,3653.68 3420.1,3681.58 3395.87,3708.89C3385.52,3720.57 3374.43,3731.37 3363.99,3743.18C3356.68,3753.23 3342.59,3755.45 3332.54,3748.15C3322.49,3740.84 3320.27,3726.75 3327.58,3716.7C3336.56,3701.54 3345.2,3686.53 3355.43,3672.41C3370.79,3651.23 3388.6,3632.15 3406.02,3612.89C3449.15,3565.21 3495.58,3520.78 3544.14,3477.06C3570.55,3453.38 3748.16,3308.45 3877.02,3198.03C3922.97,3158.66 3962.69,3123.82 3986.62,3100.5C3995.73,3091.63 4009.16,3083.64 4005.02,3080.89C4004.81,3080.76 4004.63,3080.7 4004.47,3080.72Z" style="fill:#fff;"/>
            <path d="M3940.09,2782.67C3941.11,2783.89 3942.01,2787.45 3943.42,2783.8C3944.08,2782.08 3947.95,2788.32 3945.28,2786.17C3942.68,2784.09 3936,2792.03 3934.77,2792.73C3902.56,2800.5 3864.67,2792.6 3828.78,2774.77C3781.38,2751.23 3738.36,2710.02 3715.89,2678.9C3665.15,2605.79 3658.34,2528.33 3649.24,2468.61C3645.07,2441.18 3642.67,2418.13 3627.81,2406.03C3611.51,2392.77 3583.93,2396.99 3533.07,2412.85C3511.98,2419.45 3484.99,2427.97 3462.54,2441.35C3450.71,2448.4 3440.09,2456.69 3433.97,2467.69C3428.2,2478.05 3426.34,2490.69 3425.47,2503.76C3423.77,2529.17 3426.69,2556.19 3426.79,2578.22C3427.1,2644.31 3445.82,2706.2 3475.48,2763.6C3521,2851.71 3592.27,2929.22 3665.45,2995.1C3690.54,3017.75 3725.39,3040.24 3752.19,3066.63C3766.63,3080.85 3778.91,3096.2 3787.55,3112.78C3807.8,3153.05 3812.77,3197.85 3807.16,3243.17C3799.71,3303.43 3774.18,3364.34 3752.89,3413.91C3737.66,3445.93 3722.61,3478.1 3703.91,3508.23C3699.12,3515.94 3693.44,3522.06 3688.29,3529.52C3687.46,3530.32 3686.23,3529.4 3686.4,3529.65C3688.63,3532.93 3684.14,3527.19 3685.89,3526.22C3687.89,3525.12 3683.96,3525.03 3685.32,3523.91C3686.68,3522.79 3683.59,3523.25 3684.6,3522.12C3688.79,3517.47 3684.27,3519.45 3680.97,3519.04C3683.49,3521.74 3683.94,3525.91 3681.82,3529.13C3685.72,3541.01 3668.98,3538.33 3667.31,3539.49C3662.81,3542.58 3668.22,3533.92 3662.09,3535.28C3658.56,3536.07 3664.87,3531.59 3659.89,3530.78C3657.87,3530.45 3662.01,3529.01 3659.34,3527.95C3657.21,3527.11 3661.06,3528.54 3658.51,3523.18C3658.11,3522.35 3658.98,3520.9 3659.26,3518.55C3660.38,3509.05 3660.97,3500.27 3663.32,3490.99C3671.9,3457.09 3688.43,3425.78 3699.25,3392.53C3716.1,3346.83 3736.1,3290.83 3740.79,3236.22C3743.54,3204.19 3740.9,3172.61 3726.02,3144.58C3718.7,3130.31 3706.68,3117.86 3693.47,3106.06C3669.16,3084.35 3640.76,3065.08 3619.52,3045.68C3541.11,2973.85 3465.38,2889.05 3417.07,2793.45C3383.34,2726.69 3362.78,2654.72 3363.14,2578.22C3363.26,2550.51 3359.77,2515.46 3364.29,2484.42C3366.79,2467.2 3371.56,2451.04 3379.51,2437.06C3390.91,2417.02 3409.28,2400.7 3431.04,2387.98C3457.88,2372.3 3489.86,2361.93 3515,2354.29C3596.13,2329.52 3640.34,2337.93 3666.16,2359.19C3690.46,2379.21 3701.23,2414.28 3708.53,2459.29C3716.93,2511.06 3723.4,2578.66 3769.04,2641.01C3780.41,2656.45 3799.09,2673.86 3819.8,2690.54C3832.15,2700.49 3844.95,2710.55 3858.56,2718.49C3880.63,2731.38 3903.31,2741.29 3924.22,2738.22C3925.87,2738.44 3935.51,2737.44 3938.72,2739.7C3944.57,2743.82 3943.04,2739.28 3944.08,2742.2C3945.37,2745.84 3947.2,2740.45 3947.64,2742.98C3948.32,2746.93 3951.42,2741.32 3951.36,2744.31C3951.22,2750.99 3958.51,2743.21 3956.82,2747.9C3955.93,2750.37 3959.93,2747.83 3958.79,2749.98C3956.38,2754.53 3964.99,2751.28 3961.71,2754.7C3958.9,2757.64 3966.43,2756.85 3963.06,2759.06C3960.47,2760.75 3966.35,2761.34 3963.42,2762.59C3957.8,2764.99 3969.4,2769.72 3962.1,2769.94C3960.31,2769.99 3963.19,2772.03 3961.24,2771.88C3957.22,2779.91 3948.51,2784.06 3940.09,2782.67ZM3678.3,3517.14C3678.19,3516.77 3678.13,3516.34 3678.15,3515.84C3678.25,3511.6 3674.83,3519 3673.16,3514.72C3672.44,3512.88 3671.89,3516.76 3670.72,3514.91C3668.91,3512.03 3670.29,3519.68 3666.17,3516.76C3665.35,3516.18 3664.66,3517.75 3664.26,3518.99C3664.79,3518.79 3666.22,3520.38 3668.14,3520.12C3670.37,3516.73 3674.7,3515.54 3678.3,3517.14ZM3939.1,2782.48C3938.27,2782.3 3937.45,2782.06 3936.63,2781.77C3937.15,2783 3937.43,2784.86 3938.9,2782.72C3938.97,2782.62 3939.04,2782.54 3939.1,2782.48ZM3935.18,2781.19C3934.92,2781.07 3934.66,2780.95 3934.41,2780.82C3934.06,2780.65 3933.72,2780.47 3933.39,2780.28C3933.61,2781.34 3933.61,2782.67 3935.04,2781.31C3935.08,2781.27 3935.13,2781.22 3935.18,2781.19ZM3932.1,2779.47C3931.02,2778.74 3930.02,2777.91 3929.13,2777C3928.91,2779.5 3928.16,2782.08 3931.98,2779.55C3932.02,2779.52 3932.06,2779.49 3932.1,2779.47ZM3926.49,2773.68C3926.22,2773.26 3925.97,2772.83 3925.74,2772.4C3925.42,2773.17 3924.99,2773.95 3926.39,2773.7C3926.42,2773.69 3926.45,2773.68 3926.49,2773.68ZM3925.1,2771.09C3924.77,2770.36 3924.49,2769.61 3924.25,2768.84C3923.39,2770.08 3922.46,2771.18 3925,2771.1C3925.03,2771.09 3925.07,2771.09 3925.1,2771.09ZM3923.56,2765.76C3923.5,2765.39 3923.46,2765.02 3923.43,2764.64C3922.98,2765.08 3922.47,2765.49 3923.48,2765.75C3923.51,2765.75 3923.53,2765.76 3923.56,2765.76ZM3923.36,2763.48C3923.35,2763.02 3923.35,2762.57 3923.37,2762.12C3922.73,2762.58 3922.1,2763 3923.3,2763.45C3923.32,2763.46 3923.34,2763.47 3923.36,2763.48ZM3923.5,2760.51C3923.57,2759.92 3923.67,2759.33 3923.8,2758.74C3922.76,2759.22 3921.87,2759.61 3923.46,2760.49C3923.47,2760.5 3923.48,2760.51 3923.5,2760.51ZM3924.58,2756.03C3924.69,2755.73 3924.81,2755.43 3924.94,2755.13C3924.4,2755.28 3923.9,2755.41 3924.57,2756.02C3924.57,2756.02 3924.58,2756.03 3924.58,2756.03Z" style="fill:#fff;"/>
            <path d="M3004.66,2229.24C3007.57,2227.56 3010.06,2226.13 3011.12,2225.03C3037.34,2197.71 3061.74,2166.76 3083.23,2133.87C3104.83,2100.84 3123.53,2065.91 3138.58,2031.03C3167.44,1961.71 3181.75,1865.96 3227.47,1804.31C3251.2,1772.3 3282.67,1748.63 3326.57,1739.02C3410.22,1720.88 3480.94,1726.64 3545.83,1747.66C3641.45,1778.63 3723.91,1843.47 3819.49,1909.53C3862.24,1939.24 3908.41,1968.82 3950.09,2003.04C3978.92,2026.71 4005.43,2052.61 4028.49,2080.69C4029.8,2082.61 4051.14,2113.17 4058.17,2133.04C4059.62,2137.15 4061.21,2140.4 4060.86,2143.34C4059.11,2158.01 4059.26,2161.36 4054.04,2160.72C4050.48,2163.5 4045.33,2162.87 4042.55,2159.3C4041.15,2157.52 4040.61,2155.33 4040.88,2153.25C4038.66,2155.72 4036.43,2157.2 4038.68,2154.15C4039.37,2153.21 4036.32,2155.36 4034.72,2154.05C4031.33,2151.26 4026.98,2147.25 4022.13,2142.23C4009.46,2129.11 3994.74,2112.64 3993.52,2111.51C3970.61,2087.25 3944.07,2066.04 3916.73,2045.42C3874.64,2013.66 3830,1984.22 3787.83,1955.72C3696.7,1893.8 3618.24,1833.01 3527.69,1803.23C3471.52,1784.76 3410.52,1778.32 3337.75,1792.81C3296.91,1800.86 3271.72,1827.62 3253.31,1861.24C3221.95,1918.5 3208.43,1993.91 3184.01,2050.33C3168.29,2087.92 3148.54,2125.54 3125.9,2161.32C3103.17,2197.24 3077.46,2231.26 3049.63,2261.33C3043.36,2268.12 3025.96,2287.87 3011.4,2294.05C3000.54,2298.67 2990.03,2298.38 2980.8,2294.47C2975.76,2292.34 2970.66,2288.33 2966.49,2282.73C2962.26,2277.07 2959.11,2268.99 2957.96,2265.3C2945.37,2225 2938.23,2181.15 2933.65,2136.37C2927.13,2072.65 2925.95,2007.01 2920.7,1947.7C2911.99,1832.1 2897.28,1714.01 2891.37,1596.62C2889.82,1566.02 2887.41,1535.42 2888.92,1505.01C2889.96,1484.28 2893.41,1464.25 2896.31,1443.82C2896.56,1432.01 2906.35,1422.64 2918.15,1422.89C2929.95,1423.14 2939.33,1432.92 2939.08,1444.73L2981.65,1942.95C2985.64,2002.15 2985.47,2067.56 2990.57,2131.18C2993.26,2164.82 2997.39,2197.94 3004.66,2229.24Z" style="fill:#fff;"/>
            <path d="M3333.47,2456.2C3331.88,2456.01 3328.72,2453.93 3329.82,2455.36C3332.34,2458.63 3321.93,2460.59 3326.22,2462.84C3326.79,2463.14 3324.45,2465.4 3324.88,2464.6C3328.04,2458.82 3309.55,2458.86 3301.74,2455.12C3292.39,2450.63 3285.64,2445.3 3284.02,2444.25C3275.38,2440.75 3271.21,2430.89 3274.71,2422.25C3278.21,2413.61 3288.07,2409.44 3296.71,2412.94C3298.62,2413.32 3307.48,2413.21 3317.41,2416.55C3329.41,2420.6 3342.45,2428.19 3348.65,2435.57C3352.28,2439.9 3356.29,2443.2 3355.85,2447.11C3354.69,2457.4 3360.83,2461.71 3351.72,2463.67C3348.26,2464.42 3350.45,2467.14 3346.29,2466.32C3343.22,2469.63 3338.03,2469.83 3334.72,2466.76C3331.72,2463.98 3331.27,2459.49 3333.47,2456.2Z" style="fill:#fff;"/>
            <path d="M3428.1,2366.17C3427.83,2365.2 3426.8,2364.12 3425.68,2364.45C3422.23,2365.46 3429.63,2370.78 3429.24,2373.58C3428.62,2377.95 3432.75,2377.42 3430.18,2379.61C3426.75,2382.52 3433.39,2381.76 3429.59,2383.18C3424.47,2385.09 3433.2,2387.11 3428.04,2387.38C3424.28,2387.57 3429.96,2390.72 3426.17,2390C3418.46,2388.54 3426.74,2401.13 3418.83,2392.68C3414.79,2394.71 3409.87,2393.08 3407.84,2389.04C3405.98,2385.34 3407.19,2380.9 3410.51,2378.62C3409.53,2377.77 3408.27,2376.12 3408.96,2377.58C3410.49,2380.86 3404.29,2376.39 3406.37,2378.77C3408.36,2381.07 3402.24,2378.85 3404.6,2380.56C3408.34,2383.28 3398.59,2381.74 3402.75,2384.04C3405.74,2385.69 3400.44,2399.58 3401.46,2393.24C3402.27,2388.21 3393.47,2387.35 3390.39,2384.85C3387.61,2381.75 3384.76,2379.34 3382.39,2375.92C3373.66,2363.28 3367.1,2349.19 3361.19,2335.01C3353.67,2316.99 3349.35,2298.35 3343.34,2279.77C3339.08,2270.9 3342.82,2260.24 3351.68,2255.98C3360.55,2251.72 3371.21,2255.46 3375.47,2264.32C3386.23,2280.62 3398.07,2295.65 3407.44,2312.78C3414.81,2326.24 3421.71,2340.12 3426.16,2354.8C3427.32,2358.63 3427.46,2362.24 3428.1,2366.17ZM3428.1,2366.17C3428.14,2366.31 3428.17,2366.45 3428.17,2366.59C3428.15,2366.45 3428.12,2366.31 3428.1,2366.17Z" style="fill:#fff;"/>
            <path d="M3481.98,2343.81C3481.49,2344.11 3480.75,2344.49 3479.77,2345.32C3478.41,2346.48 3477.27,2345.15 3475.35,2342.76C3473.7,2340.73 3472.04,2338.74 3470.47,2335.15C3464.82,2322.24 3457.94,2301.4 3451.46,2278.06C3446.41,2259.88 3442.06,2240.32 3439.56,2222.58C3435.61,2194.57 3436.14,2171.71 3435.74,2164.91C3433.7,2155.3 3439.85,2145.84 3449.46,2143.8C3459.07,2141.77 3468.52,2147.91 3470.56,2157.52C3472.95,2163.88 3483.24,2184.26 3491.28,2211.3C3496.45,2228.67 3500.56,2248.54 3503.11,2267.45C3506.49,2292.44 3507.71,2315.42 3506.34,2330.03C3506.01,2333.56 3505.88,2336.29 3504.73,2338.65C3499.16,2350.09 3498.44,2352.11 3495.77,2352.56C3493.08,2356.19 3487.94,2356.94 3484.31,2354.25C3481.02,2351.79 3480.09,2347.33 3481.98,2343.81Z" style="fill:#fff;"/>
            <path d="M3646,2346.15C3649.43,2348.78 3650.9,2353.45 3649.3,2357.71C3647.33,2362.92 3641.51,2365.56 3636.29,2363.6C3630.94,2364.78 3626.35,2360.28 3618.91,2346.51C3617.66,2344.21 3617.62,2341.19 3617.01,2337.94C3613.77,2320.6 3611.28,2292.45 3612.63,2261.45C3613.64,2238.45 3616.51,2214.02 3621.08,2192.37C3627.84,2160.39 3637.91,2135.03 3642.22,2124.33C3644.36,2115.64 3653.14,2110.32 3661.82,2112.46C3670.51,2114.59 3675.83,2123.37 3673.7,2132.06C3672.62,2142.9 3674.51,2168.52 3672.64,2199.34C3671.35,2220.78 3668.51,2244.39 3665.22,2266.49C3661.03,2294.73 3655.44,2319.9 3653.68,2336.03C3653.37,2338.83 3652.97,2341.12 3652.44,2343.15C3651.8,2345.53 3650.54,2346.99 3648.97,2346.69C3647.74,2346.45 3646.78,2346.32 3646,2346.15Z" style="fill:#fff;"/>
            <path d="M3702.93,2415.36C3702.97,2413.58 3703.65,2409.89 3702.98,2412.15C3701.92,2415.69 3701.78,2406.8 3700.25,2409.8C3699.2,2411.89 3695.26,2410.14 3694.48,2412.47C3694.22,2413.25 3690.61,2413.06 3691.75,2413.01C3698.45,2412.7 3691.98,2398.48 3693.3,2392.96C3697.35,2382.7 3701.37,2372.8 3707.37,2364.06C3716.09,2351.35 3727.65,2341.27 3739.29,2330.29C3746.02,2322.55 3757.76,2321.72 3765.5,2328.44C3773.24,2335.16 3774.07,2346.91 3767.35,2354.65L3730.21,2411.12C3723.63,2418.76 3718.89,2437.41 3711.03,2436.53C3709.15,2436.32 3708.55,2438.39 3707.22,2436.94C3701.62,2430.87 3702.49,2441.64 3701.04,2431.61C3696.58,2430.88 3693.56,2426.66 3694.3,2422.2C3694.99,2418 3698.77,2415.07 3702.93,2415.36Z" style="fill:#fff;"/>
            <path d="M2546.26,2268.33L2546.56,2224.01C2542.1,2028.48 2540.42,1831.91 2530.69,1636.04C2524.24,1506.15 2514.38,1376.57 2496.97,1247.83C2479.29,1110.57 2421.05,894.744 2391.03,711.409C2375.71,617.848 2367.66,532.391 2375.28,468.55C2377.39,449.139 2382.03,432.47 2389.67,417.545C2397.73,401.786 2409.34,387.962 2425.91,375.311C2443.91,361.567 2464.79,357.641 2486.37,359.832C2509.35,362.165 2533.36,372.762 2552.5,382.222C2604.11,407.621 2649.61,443.426 2689.69,484.952C2728.73,525.392 2762.38,571.458 2791.25,618.739C2814.04,656.444 2846.48,731.089 2873.69,816.089C2894.85,882.144 2912.18,954.489 2926.23,1017.65C2930.63,1037.4 2935.03,1056.16 2937.92,1073.83C2943.73,1109.49 2947.17,1139.77 2946.32,1161.56C2945.82,1174.33 2945.89,1184.56 2942.14,1190.79C2938.99,1196.04 2938.47,1198.01 2934.94,1200.11C2933.24,1201.13 2933.69,1202.89 2932.04,1203.17C2924.2,1204.49 2928.38,1208.78 2923.13,1205.58C2919.29,1207.96 2914.24,1206.78 2911.86,1202.94C2909.82,1199.66 2910.38,1195.5 2912.99,1192.87C2908.22,1194.13 2894.47,1189.76 2902.17,1186.43C2910.52,1182.82 2896.34,1163.96 2890.95,1145.67C2885.97,1128.78 2879.73,1108.92 2873.03,1086.43C2852.68,1018.09 2823.91,929.493 2795.93,848.04C2768.5,768.172 2743.67,694.921 2722.99,658.915C2698.39,615.537 2669.6,573.009 2635.63,535.518C2602.43,498.888 2564.55,466.871 2521.03,443.773C2510.32,438.109 2497.57,431.224 2484.53,428.082C2478.05,426.52 2471.35,424.774 2465.86,428.786C2457.89,434.609 2451.97,440.782 2447.99,448.163C2443.61,456.308 2441.22,465.561 2439.84,476.245C2432.81,535.277 2440.69,614.299 2455.25,700.745C2486.22,884.75 2547.21,1100.91 2566.15,1238.62C2583.3,1369.39 2593.24,1500.99 2598.83,1632.9C2607.15,1829.48 2606.13,2026.73 2608.53,2222.92L2607.41,2303.57C2605.18,2339.22 2599.85,2361.29 2594.24,2373.04C2585.68,2390.96 2573.09,2396.87 2562.16,2398.6C2551.3,2400.32 2538.09,2397.1 2525.03,2384.69C2503.49,2364.21 2471.92,2292.59 2447.05,2219.22C2420.95,2142.2 2400.82,2064.21 2398.52,2056.24C2390.74,2028.85 2384.62,1999.88 2379.87,1969.96C2366.18,1883.61 2359.72,1790 2341,1707C2337.22,1690.26 2331.66,1674.38 2329.12,1658.03C2328.37,1653.19 2329.39,1649.29 2329.2,1644.43C2323.81,1632.3 2329.28,1618.08 2341.41,1612.69C2353.53,1607.31 2367.75,1612.77 2373.14,1624.9C2377.66,1629.77 2381.8,1633.68 2385.41,1639.34C2398,1659.09 2403.8,1682.95 2410.37,1706.55C2439.69,1811.92 2439.47,1936.11 2468.61,2036.48C2470.78,2044.35 2491.21,2120.91 2514.51,2197.54C2521.9,2221.82 2534.61,2246.39 2546.26,2268.33Z" style="fill:#fff;"/>
            <path d="M2305.98,1429.05C2306.46,1429.33 2306.93,1429.66 2307.36,1430.05C2310.72,1433.07 2311,1438.25 2307.99,1441.62C2305.84,1444.01 2303.58,1445.07 2301.58,1445.49C2300.64,1445.68 2299.66,1445.37 2298.79,1445.67C2293.18,1447.66 2293.85,1445.73 2283.74,1440.13C2278.66,1437.32 2274.76,1430.24 2270.21,1419.65C2256.06,1386.71 2253.65,1319.21 2252.39,1313.06C2244.12,1256.39 2233.46,1200.5 2220.85,1144.96C2212.55,1108.44 2203.71,1071.99 2192.3,1036.01C2170.56,966.784 2097.04,824.983 2008.36,735.182C1979.9,706.365 1949.97,683.12 1919.61,670.193C1889.27,657.278 1858.54,654.832 1828.77,672.504C1819.35,677.955 1807.81,685.072 1796.84,693.571C1787,701.192 1778.54,710.586 1770.63,718.881C1767.04,722.648 1762.25,723.741 1759.47,727.553C1755.98,738.039 1744.63,743.714 1734.14,740.219C1723.66,736.724 1717.98,725.373 1721.48,714.887C1721.26,707.457 1722.54,701.016 1725.37,693.448C1727.59,687.52 1732.26,682.558 1736.42,677.239C1753.57,655.289 1779.13,635.901 1797.81,623.216C1863.6,580.151 1936.22,595.579 2004.57,645.108C2124.05,731.701 2229.3,927.302 2257.66,1015.21C2272.86,1062.8 2285.42,1110.82 2294.12,1159.61C2302.74,1207.89 2307.61,1256.76 2311.99,1305.89C2312.22,1311.53 2311.79,1365.84 2311.75,1402.48C2311.74,1411.26 2311.98,1418.54 2311.08,1423.92C2310.37,1428.12 2308.25,1429.07 2305.98,1429.05Z" style="fill:#fff;"/>
            <path d="M1833.97,854.595C1833.16,852.588 1834.84,851.406 1834.77,851.168C1834.14,849.076 1836.83,849.16 1837.02,847.893C1837.73,843.275 1841.93,847.402 1845.72,845.877C1846.59,845.526 1846.65,846.745 1848.19,848.62C1850.58,849.241 1852.12,850.821 1852.03,852.796C1852.11,852.964 1852.24,853.146 1852.44,853.337C1853.96,854.79 1858.34,856.256 1863.15,865.627C1870.11,879.176 1872.84,905.203 1877.49,929.799C1882.69,957.312 1885.99,984.109 1887.84,993.05L1953.61,1292.99C2011.12,1534.73 2075.01,1779.24 2127.34,2023.41C2139.2,2078.77 2157.78,2133.29 2160.41,2189.48C2160.73,2196.32 2159.22,2202.24 2158.56,2209.05C2161.07,2221.64 2152.9,2233.9 2140.31,2236.42C2127.72,2238.94 2115.45,2230.76 2112.93,2218.17C2109.72,2212.17 2106.07,2207.33 2103.68,2200.96C2094.93,2177.64 2092.15,2152.48 2086.7,2128.1C2025.71,1855.13 1959.25,1578.59 1895.23,1306.8C1881.07,1246.3 1867.12,1185.85 1855.52,1124.9C1847.78,1084.22 1841.35,1043.33 1835.09,1002.33C1833.73,992.91 1829.97,965.008 1828.26,935.87C1826.8,910.891 1823.24,884.983 1826.71,870.161C1828.38,863.058 1831.02,858.024 1833.97,854.595Z" style="fill:#fff;"/>
            <path d="M2149.29,2267.76C2149.64,2268.29 2150.42,2269.06 2150.63,2269.7C2153.38,2279.34 2157.71,2290.85 2161.63,2304.55C2184.83,2385.71 2219.71,2528.82 2224.05,2639.84C2227.16,2719.42 2209.97,2783.59 2166.82,2810.88C2151.37,2820.8 2132.14,2822.21 2109.89,2814.3C2088.91,2806.84 2063.56,2789.04 2036.42,2763.77C1981.37,2712.51 1914.13,2630.66 1861.83,2554.78C1816.75,2489.37 1783.55,2428.88 1766.75,2406.97C1757.18,2395.64 1758.6,2378.67 1769.93,2369.09C1781.26,2359.51 1798.24,2360.94 1807.81,2372.27C1828.28,2394.47 1876.73,2456.16 1929.02,2527.34C1966.67,2578.62 2005.22,2635.62 2043.19,2680.71C2071.07,2713.82 2097.11,2741.26 2119.79,2755.3C2127.35,2759.99 2132.48,2766.24 2137.52,2763.27C2168.27,2744.87 2173.52,2697.39 2172.12,2641.51C2169.41,2533.89 2128.17,2396.74 2112.18,2316.53C2109.25,2301.83 2107.86,2288.97 2106.62,2278.51C2106.1,2271.45 2104.75,2264.57 2107.26,2260.41C2112.31,2252.02 2112.75,2246.01 2118.99,2245.8C2122.16,2245.69 2123.2,2241.68 2126.04,2243.01C2132.51,2246.04 2145.65,2238.84 2144.1,2258.44C2147.13,2261.79 2146.87,2266.97 2143.52,2270C2140.17,2273.04 2134.99,2272.78 2131.96,2269.43C2128.65,2269.73 2126.75,2269.19 2127.27,2271.57C2127.52,2272.73 2125.54,2273.71 2126.46,2273.51C2128.02,2273.16 2127.87,2276.25 2128.96,2275.77C2130.71,2275 2131.93,2277.75 2133.15,2276.66C2137.06,2273.17 2143.96,2277.57 2144.48,2271.94C2144.59,2270.69 2147.79,2268.79 2149.29,2267.76ZM2149.29,2267.76C2149.09,2267.45 2149.04,2267.22 2149.34,2267.15C2150.46,2266.88 2150.15,2267.18 2149.29,2267.76Z" style="fill:#fff;"/>
            <path d="M1617.72,2163.29C1618.42,2163.66 1619.08,2164.15 1619.67,2164.74C1622.86,2167.95 1622.84,2173.14 1619.64,2176.32C1619.61,2177.3 1615.56,2180.81 1594.24,2176.04C1589.6,2175.01 1585.32,2172.88 1579.45,2169.45C1569.3,2163.53 1558.4,2154.69 1547.47,2145.37C1525.69,2126.8 1506.81,2106.16 1504.81,2104.19C1493.89,2092.94 1473.61,2075.36 1448.02,2053.04C1386.06,1999.02 1291.64,1920.34 1199.64,1863.81C1152.12,1834.62 1105.66,1811.07 1065.71,1800.39C1038.89,1793.22 1016.05,1789.46 1001.84,1803.54C1000.06,1805.3 1000.55,1808.17 1000.38,1811.21C999.971,1818.65 1001.16,1827.13 1003.27,1836.48C1012.17,1875.89 1037.12,1926.41 1067.6,1979.16C1103.04,2040.51 1147.5,2103.54 1184.18,2157.46C1221.51,2212.34 1251.15,2257.47 1264.4,2276.02C1275.13,2289.59 1272.82,2309.31 1259.25,2320.04C1245.68,2330.76 1225.96,2328.46 1215.24,2314.89C1201.19,2299.02 1168.8,2264.14 1132.54,2217.02C1077.58,2145.6 1013.64,2047.37 970.878,1963.07C945.541,1913.12 928.43,1866.94 924.401,1831.5C920.27,1795.16 929.269,1767.14 947.853,1748.83C968.705,1728.29 996.425,1718.02 1029.85,1718.17C1071.18,1718.37 1123.53,1735.93 1179.2,1765.05C1286.66,1821.24 1410.48,1918.67 1487.24,1989.5C1519.16,2018.95 1542.75,2044.07 1555.14,2058.61C1556.88,2060.77 1575.52,2081.06 1592.19,2103.82C1600.58,2115.26 1608.47,2126.61 1613.76,2136.94C1616.95,2143.15 1618.68,2147.67 1619.57,2152.31C1620.56,2157.56 1619.22,2158.31 1619.3,2161.25C1619.35,2162.93 1618.21,2163.34 1618.21,2163.34C1618.21,2163.34 1618.01,2163.33 1617.72,2163.29ZM1615.27,2162.45C1615.26,2162.43 1615.25,2162.42 1615.25,2162.41C1613.53,2159.94 1612.38,2161.36 1611.04,2162.82C1612.4,2162.33 1613.86,2162.2 1615.27,2162.45Z" style="fill:#fff;"/>
            <path d="M1368.52,2505.6C1368.9,2506.1 1368.68,2508.27 1369.01,2507.72C1369.77,2506.43 1371.87,2508.26 1372.06,2507.03C1372.63,2503.36 1380.01,2503.41 1377.1,2500.13C1376.49,2499.45 1378.81,2497.04 1378.14,2497.98C1377.32,2499.15 1380.51,2495.69 1382.38,2496.9C1384.86,2498.51 1387.86,2500.47 1391.38,2503.39C1400.76,2511.16 1413.63,2521.53 1428.57,2533.34C1488.88,2581.02 1579.72,2648.24 1588.15,2655.09C1671.26,2725.66 1750.64,2802.2 1817.99,2887.36C1886.94,2974.52 1943.06,3070.75 1979.15,3177.8C2038.28,3358.84 2084.28,3541.24 2121.77,3725.13C2177.81,4000 2215.34,4278.01 2255.26,4558.61C2276.86,4724.12 2309.35,4893.57 2321.96,5062.82C2325.25,5106.98 2328.6,5151.11 2327.15,5195.11C2326.76,5207 2326.01,5218.74 2324.39,5230.51C2321.89,5248.59 2317.72,5265.43 2313.72,5283.22C2313.44,5291.4 2306.56,5297.82 2298.37,5297.53C2290.18,5297.24 2283.77,5290.36 2284.05,5282.18C2281.72,5267.52 2278.52,5253.85 2276.38,5239.15C2274.31,5224.9 2272.68,5210.82 2271.43,5196.46C2265.67,5130.32 2260.84,5063.84 2251.59,4997.53C2231.54,4853.72 2201.89,4710.32 2179.37,4569.69C2137.68,4290.93 2097.37,4014.94 2040.76,3741.78C2003.31,3561.03 1958.93,3381.43 1900.9,3203.32C1869.69,3104.34 1819.23,3015.37 1757.82,2933.8C1695.33,2850.79 1621.67,2775.3 1544.07,2705.55C1536.14,2698.12 1447.62,2627.3 1393.41,2572.71C1378.54,2557.73 1365.9,2544.24 1358.45,2532.98C1354.48,2526.99 1350.76,2522.27 1350.13,2517.67C1347.32,2497.36 1347.74,2490.31 1356.53,2489.78C1360.41,2489.55 1363.02,2484.6 1368.43,2489.22C1372.95,2489.32 1376.55,2493.06 1376.45,2497.58C1376.36,2501.96 1372.84,2505.47 1368.52,2505.6Z" style="fill:#fff;"/>
            <path d="M2506.84,3353.87C2507.15,3353.49 2507.47,3353.11 2507.81,3352.71C2508.85,3351.53 2510.99,3350.26 2512.44,3347.22C2515.05,3341.72 2510.72,3339.48 2515.17,3332.17C2538.55,3293.77 2635.4,3239.35 2661.08,3224.04C2736.94,3184 2816.54,3140.44 2899.48,3108.65C2922.2,3099.94 2944.98,3091.29 2968.43,3085.72C3004.71,3077.1 3041.36,3073.99 3078.13,3073.01C3096.33,3070.85 3112.85,3083.88 3115.01,3102.07C3117.16,3120.27 3104.14,3136.79 3085.94,3138.95C3052.49,3145.91 3020.68,3158.11 2987.79,3169.04C2955.13,3179.9 2921.93,3190.07 2889.48,3202.76C2822.32,3229.02 2756.62,3259.99 2693.84,3289.56C2667.46,3300.4 2583.57,3365.27 2541.12,3371.43C2532.59,3372.67 2532.22,3367.87 2526.11,3368.07C2522.55,3368.19 2520.45,3369.82 2518.85,3370.27C2518.37,3370.4 2517.9,3370.52 2517.45,3370.63C2515.51,3372.27 2512.17,3372.39 2509.2,3371.22C2498.57,3369.65 2499.72,3357.35 2505.66,3354.73C2506.04,3354.41 2506.43,3354.12 2506.84,3353.87Z" style="fill:#fff;"/>
            <path d="M3185.06,3908.93C3188.88,3911.34 3190.04,3916.4 3187.63,3920.23C3185.23,3924.05 3180.17,3925.21 3176.34,3922.8C3171.85,3922.73 3169.93,3924.26 3166.81,3924.98C3165.75,3925.22 3165.52,3927.77 3165.14,3926.91C3164.36,3925.18 3166.09,3931.64 3167.2,3930.54C3169.99,3927.8 3182.57,3931.8 3177.79,3931.12C3174.36,3930.63 3177.89,3938.75 3177.47,3943.62C3176.7,3952.52 3176.56,3962.82 3174.2,3972.93C3172.44,3980.51 3169.41,3987.33 3166.26,3994.34C3163.19,4008.49 3149.2,4017.49 3135.04,4014.41C3120.89,4011.33 3111.89,3997.34 3114.97,3983.19C3115.52,3974.25 3113.82,3965.26 3114.58,3956.41C3116.46,3934.44 3121.26,3913.8 3130.21,3904.43C3133.25,3901.24 3134.71,3897.87 3138.41,3896.69C3150.28,3892.91 3156.58,3884.07 3167.73,3892.47C3173.39,3896.74 3179.6,3897.87 3185.06,3908.93Z" style="fill:#fff;"/>
            <path d="M2487.91,3482.24C2486.51,3484.58 2490.92,3491.28 2490.62,3492.59C2490.74,3492.52 2490.89,3492.45 2491.07,3492.36C2491.39,3489.28 2491.78,3486.39 2491.67,3484.36C2491.31,3483.75 2490.96,3483.15 2490.61,3482.55C2490.86,3482.58 2491.11,3482.61 2491.37,3482.64C2491.09,3481.88 2490.61,3481.45 2489.84,3481.43C2489.74,3481.43 2489.65,3481.43 2489.56,3481.43C2488.88,3481.23 2488.19,3481.4 2488.19,3479.44C2488.19,3478.35 2489.42,3477.07 2490,3475.69C2513.56,3430.65 2552.26,3472.12 2553.2,3477.38C2553.53,3479.22 2555.47,3484.15 2553.62,3490.98C2553.49,3491.46 2552.59,3492.31 2551.79,3493.18C2551.71,3494.09 2551.57,3495.06 2551.37,3496.08C2552.99,3496.82 2552.62,3496.78 2551.34,3496.22C2550.96,3498.02 2550.39,3500 2549.58,3502.17C2547.9,3505.77 2546.9,3510.49 2544.4,3511.93C2541.47,3513.62 2542.17,3512.7 2540.33,3512.6C2539.66,3512.57 2538.98,3512.53 2538.3,3512.49C2629.39,3662.89 2567.13,3598.4 2515.4,3521.85C2515,3521.51 2514.43,3521.45 2513.44,3522.25C2507.85,3526.75 2512.41,3517.43 2505.89,3520.12C2503.4,3521.15 2505.64,3517.85 2503,3518.55C2497.02,3520.13 2503.24,3514.04 2496.66,3513.77C2493.93,3513.66 2496.22,3512 2493.78,3510.49C2492.84,3509.9 2492.65,3508.85 2492.47,3507.7C2402.22,3494.54 2319.38,3462.91 2487.91,3482.24ZM2487.91,3482.24C2488.2,3481.77 2488.72,3481.47 2489.56,3481.43C2489.83,3481.52 2490.1,3481.66 2490.32,3482.04C2490.42,3482.21 2490.51,3482.38 2490.61,3482.55C2489.71,3482.44 2488.81,3482.34 2487.91,3482.24Z" style="fill:#fff;"/>
        </g>
    </g>
</svg>
