<?xml version="1.0" encoding="UTF-8" standalone="no"?>
<!DOCTYPE svg PUBLIC "-//W3C//DTD SVG 1.1//EN" "http://www.w3.org/Graphics/SVG/1.1/DTD/svg11.dtd">
<svg width="100%" height="100%" viewBox="0 0 5906 5906" version="1.1" xmlns="http://www.w3.org/2000/svg" xmlns:xlink="http://www.w3.org/1999/xlink" xml:space="preserve" xmlns:serif="http://www.serif.com/" style="fill-rule:evenodd;clip-rule:evenodd;stroke-linejoin:round;stroke-miterlimit:2;">
    <g id="Okay">
        <g id="_2" serif:id="2">
            <path d="M3733.93,4808.89C3734.73,4808.61 3735.95,4808.38 3736.97,4808.13C3736.51,4810.29 3736.39,4814.18 3735.02,4816.77C3716.83,4851.2 3672.78,4926.29 3672.68,4926.57C3655.61,4974.13 3641.3,5022.75 3628.46,5071.7C3615.68,5120.43 3604.28,5169.49 3597.18,5219.34C3595.37,5227.67 3592.74,5270.14 3586.84,5299.41C3585.1,5308.02 3584.3,5315.48 3580.76,5320.03C3576.59,5325.41 3575.8,5320.34 3572.85,5324.55C3572.47,5325.1 3572.09,5325.63 3571.72,5326.15C3571.87,5326.98 3571.92,5327.83 3571.86,5328.7C3574.52,5350.91 3565.07,5349.72 3557.81,5341.71C3551,5346.57 3548.5,5341.85 3551.13,5330.1C3551.11,5330.04 3551.09,5329.98 3551.08,5329.93C3550.79,5328.96 3551.38,5326.56 3549.55,5324.04C3546.62,5320.01 3545.73,5323.82 3541.61,5318.67C3539.41,5315.92 3538.62,5312.48 3537.62,5308.03C3530.59,5277.05 3531.29,5221.58 3531.52,5211.41C3535.51,5168.89 3541.35,5126.56 3550.45,5084.83C3564.01,5022.62 3584,4961.85 3606.15,4902.24C3606.27,4901.92 3649.86,4811.97 3678.72,4778.41C3684.41,4771.8 3689.42,4767.35 3693.41,4764.65C3705.05,4756.8 3712.69,4752.41 3717.73,4753.24C3730.23,4755.3 3745.45,4755.11 3746.29,4768.75C3746.62,4773.98 3758.17,4784.93 3740.01,4798.63C3738.99,4802.72 3736.82,4806.23 3733.93,4808.89ZM3700.85,4802.23C3698.96,4798.08 3698.4,4793.29 3699.59,4788.53C3697.85,4784.78 3693.56,4785.21 3693.56,4785.21C3693.56,4785.21 3691.8,4788.31 3692.92,4789.29C3696.24,4792.2 3692.83,4796.01 3695.39,4797.8C3697.38,4799.19 3699.18,4800.7 3700.85,4802.23ZM3736.97,4808.13C3737.25,4806.88 3737.63,4806.2 3738.44,4806.67C3739.6,4807.34 3738.49,4807.76 3736.97,4808.13Z" style="fill:#fff;"/>
            <path d="M3713.04,4573.22C3717.11,4571.24 3722.01,4572.94 3723.99,4577.01C3725.96,4581.07 3724.26,4585.98 3720.2,4587.95C3718.94,4597.57 3714.94,4592.76 3713.08,4595.56C3710.95,4598.75 3710.25,4593.94 3707.72,4595.14C3701.09,4598.3 3702.63,4588.88 3697.87,4583.33C3696.03,4581.19 3699.34,4578.15 3699.51,4571.34C3699.61,4567.48 3700.58,4562.9 3704.18,4555.14C3710.31,4541.93 3726.74,4526.36 3733.01,4517.61C3770.59,4472.84 3808.08,4428.11 3847.27,4384.72C3905.31,4320.46 3965.61,4258.29 4020.76,4191.5C4034.93,4174.38 4042.4,4157.98 4046.15,4141.23C4057.24,4091.68 4043.89,4040.19 4058,3972.1C4072.94,3900.04 4092.7,3829.7 4117.82,3761.31C4142.96,3692.88 4173.43,3626.4 4209.62,3562.08C4240.06,3507.95 4273.2,3456.21 4309.04,3406.42C4344.82,3356.71 4383.28,3308.92 4424.44,3262.64C4435.14,3250.6 4462.62,3227.87 4488.27,3204.02C4502.2,3191.06 4515.59,3177.83 4524.11,3165.91C4526.46,3162.61 4527.97,3159.47 4529.64,3157.05C4530.63,3155.62 4532.44,3158.96 4533.47,3157.79L4538.33,3163.85C4533.22,3153.63 4537.37,3141.18 4547.59,3136.07C4557.81,3130.96 4570.26,3135.11 4575.37,3145.33L4582.65,3161.07C4584.86,3165.49 4584.13,3169 4583.97,3174.69C4583.69,3184.75 4575.22,3195.54 4566.59,3207.14C4540.49,3242.22 4485.73,3284.52 4469.9,3302.71C4430.54,3347.75 4393.8,3394.22 4359.66,3442.53C4325.61,3490.72 4294.17,3540.78 4265.35,3593.1C4231.41,3654.7 4203.01,3718.32 4179.59,3783.71C4156.13,3849.24 4137.73,3916.57 4123.98,3985.51C4110.28,4054.23 4124.02,4106.01 4113.17,4156.01C4107.45,4182.36 4096.17,4208.34 4074.06,4235.36C4018.16,4303.49 3959.69,4369.44 3898.19,4432.52C3857.59,4474.16 3815.2,4513.83 3774.39,4555.26C3766.16,4562.43 3749.94,4578.16 3737.15,4585.57C3735.26,4586.66 3733.75,4586.49 3732.03,4587.12C3729.85,4587.94 3727.13,4587.9 3727.13,4587.9C3727.13,4587.9 3726.53,4583.89 3727.25,4582.96C3728.28,4581.61 3726.54,4580.29 3727.03,4579.02C3728.71,4574.64 3722.21,4574.08 3721.26,4569.95C3720.65,4567.27 3717.38,4571.03 3716.05,4567.91C3715.15,4565.8 3711.16,4568.97 3711.16,4568.97C3711.16,4568.97 3709.72,4571.23 3713.04,4573.22Z" style="fill:#fff;"/>
            <path d="M4570.61,2928.9C4570.58,2927.77 4572.24,2924.81 4571.58,2925.53C4570.15,2927.06 4568.58,2923.64 4567.94,2925.13C4565.96,2929.72 4558.85,2925.54 4560.32,2929.94C4561.33,2932.97 4553.82,2933.18 4556.88,2936.68C4557.5,2937.38 4552.1,2939.03 4553.4,2937.81C4558.78,2932.75 4540.41,2924.2 4533.33,2915.8C4527.72,2909.13 4523.21,2902.25 4520.04,2897.75C4495.08,2861.76 4476.45,2822.3 4454,2784.98C4445.28,2770.48 4435.94,2756.36 4425.15,2743.03C4402.78,2714.92 4372.27,2693.7 4347.95,2667.24C4340.7,2659.36 4334.02,2651 4327.95,2642.16C4299.03,2599.7 4284.32,2554.04 4276.65,2506.68C4268.21,2454.48 4265.42,2400.49 4263.68,2347.02C4263.26,2334.22 4264.26,2321.74 4263.77,2309C4261.4,2294.78 4271.02,2281.3 4285.24,2278.93C4299.47,2276.56 4312.94,2286.18 4315.31,2300.41C4319.72,2315.99 4323.93,2331.42 4326.42,2347.5C4335.62,2406.83 4332.91,2468.05 4347.79,2525.33C4354.93,2552.8 4365.56,2579.46 4382.85,2604.54L4475,2704.64C4486.88,2720.87 4497.21,2737.84 4506.46,2755.4C4526.31,2793.03 4541.57,2832.89 4563.64,2869.53C4569.03,2879.98 4583.22,2899.63 4587.21,2914.26C4590.05,2924.66 4591.95,2932.02 4589.45,2935.66C4587.18,2938.95 4589.97,2941.11 4587.11,2942.21C4581.39,2944.42 4584.37,2951.88 4578.88,2949.86C4576.87,2949.12 4576.37,2952.28 4574.41,2950.78C4571.45,2948.53 4567.23,2952.75 4564.6,2944.88C4560.28,2943 4558.29,2937.97 4560.16,2933.64C4561.93,2929.57 4566.48,2927.57 4570.61,2928.9Z" style="fill:#fff;"/>
            <path d="M4277.29,2313.74C4281.11,2311.34 4286.17,2312.49 4288.58,2316.31C4290.99,2320.14 4289.84,2325.2 4286.01,2327.61L4285.98,2328.8C4283.7,2340.58 4277.36,2333.41 4268.39,2335.63C4265.58,2336.32 4264.32,2333.94 4261.23,2332.67C4254.03,2329.71 4249.01,2313.68 4241.17,2309.84C4219.44,2295.59 4196.36,2293.36 4174.03,2297.88C4150,2302.74 4126.88,2315.73 4106.4,2332.07C4035.36,2388.75 4002.21,2457.36 3990.31,2529.67C3968.08,2664.8 4019.73,2812.46 4050.26,2926.21C4064.14,2977.95 4073.46,3023.44 4073.4,3058.4C4073.36,3089.32 4065.91,3113.8 4051.4,3131.24C4034.83,3151.16 4013.56,3167.87 3989.79,3182.55C3944.62,3210.42 3889.64,3230.59 3850.11,3259.58C3772.62,3317.27 3617.27,3444.6 3488.19,3568.63C3419.27,3634.87 3361.09,3702.36 3320.95,3753.48C3306.73,3771.61 3293.14,3785.57 3285.5,3800.08C3281.64,3810.95 3269.69,3816.64 3258.82,3812.79C3247.95,3808.93 3242.25,3796.97 3246.11,3786.1C3248.62,3770.56 3252.86,3753.32 3261.96,3734.66C3284.8,3687.85 3332.48,3635.72 3385.78,3579.59C3522.91,3435.21 3720.47,3275.15 3811.29,3207.46C3851.62,3176.96 3907.82,3154.97 3953.96,3125.49C3971.06,3114.57 3986.58,3102.52 3998.38,3087.86C4004.91,3079.74 4004.62,3067.43 4003.79,3052.6C4002.47,3029.03 3995.93,3000.77 3987.88,2968.89C3962.61,2868.8 3919.23,2737.18 3919.66,2609.48C3920.07,2491.08 3956.92,2375.94 4073.64,2289.45C4107.68,2264.26 4147.16,2246.58 4186.41,2246.21C4214.05,2245.94 4241.66,2253.48 4267.21,2272.45C4275.04,2279.91 4274.27,2310.18 4285.47,2306.6C4288.79,2305.54 4280.04,2309.53 4278.17,2308.05C4276.74,2306.9 4277.36,2312.05 4275.53,2310.96C4274.37,2310.27 4277.63,2313.9 4276.2,2313.25L4277.29,2313.74Z" style="fill:#fff;"/>
            <path d="M3861.18,3265.09C3861.39,3264.79 3861.56,3264.34 3861.7,3263.71C3861.91,3262.79 3865.57,3266.68 3864.07,3265.75C3863.19,3265.21 3862.22,3265.01 3861.18,3265.09ZM3859.53,3265.43C3860.1,3265.25 3860.65,3265.13 3861.18,3265.09C3860.73,3265.74 3860.15,3265.72 3859.53,3265.43ZM3844.12,3260.16C3845.79,3262.52 3845.81,3267.18 3849.01,3263.48C3850.14,3262.18 3850.6,3265.52 3851.62,3263.95C3852.9,3261.98 3854.37,3266.7 3855.42,3264.08C3856.15,3262.25 3857.98,3264.7 3859.53,3265.43C3848.57,3268.97 3831.48,3297.47 3830.03,3299.23C3805.7,3327.33 3781.97,3356.41 3759.2,3386.22C3736.53,3415.9 3714.8,3446.28 3694.91,3477.54C3694.23,3478.45 3674.82,3512.37 3663.55,3529.51C3661.58,3532.5 3659.39,3535.33 3657.56,3534.47C3656.66,3534.05 3655.93,3533.63 3655.31,3533.21C3655.83,3534.01 3656.22,3534.91 3656.45,3535.9C3657.45,3540.31 3654.68,3544.7 3650.27,3545.7C3642.34,3555.02 3640.5,3546.08 3633.51,3536.08C3631.15,3532.7 3631.04,3527.11 3631.7,3518.64C3633.52,3495.28 3655.98,3455.07 3656.56,3453.91C3676.24,3420.92 3697.67,3388.65 3720.45,3357.33C3743.13,3326.15 3767.16,3295.95 3791.66,3266.61C3793.76,3264.2 3820.41,3230.4 3834.17,3226.85C3843.69,3224.39 3845.38,3222.16 3847.97,3224.32C3849.91,3225.93 3850.2,3222.38 3851.36,3224.12C3854.04,3228.17 3856.61,3221.26 3857.65,3224.96C3859,3229.77 3864.19,3223.45 3863.87,3227.9C3863.73,3229.76 3866.37,3227.81 3865.99,3229.62C3864.67,3235.78 3875.85,3232.27 3871.19,3237.73C3869.75,3239.42 3873.88,3239.53 3871.95,3241.11C3869.81,3242.87 3875.06,3244.18 3871.89,3245.72C3868.94,3247.16 3874.89,3250.99 3868.97,3251.78C3865.44,3260.61 3855.4,3264.91 3846.58,3261.38C3845.71,3261.03 3844.89,3260.62 3844.12,3260.16ZM3652.54,3530.61C3651.73,3529.58 3651.08,3528.58 3649.89,3527.63C3649.17,3527.05 3647.89,3528.47 3647.04,3527.69C3646.08,3526.81 3646.68,3528.71 3646.93,3529.67C3648.92,3529.28 3650.89,3529.67 3652.54,3530.61ZM3842.38,3258.97C3836.85,3254.66 3834.38,3247.26 3836.51,3240.34C3835.63,3240.62 3834.42,3240.66 3835.12,3241.26C3837.55,3243.33 3832.24,3244.17 3834.32,3245.24C3836.66,3246.44 3832.47,3248.17 3834.6,3248.78C3838.78,3249.99 3832.93,3254.42 3836.65,3254.3C3841.13,3254.15 3836.7,3260.75 3840.7,3259.21C3841.35,3258.96 3841.9,3258.9 3842.38,3258.97Z" style="fill:#fff;"/>
            <path d="M3743.06,3249.77C3744.21,3251.25 3740.51,3249.97 3743.06,3249.77ZM3425.43,2486.64C3429.24,2497.51 3435.95,2508.41 3443.64,2519.44C3468.1,2554.55 3501.91,2589.58 3520.6,2620.79C3542.01,2656.87 3664.78,2871.26 3729.11,3038.13C3744.01,3076.78 3755.89,3112.89 3762.05,3143.82C3769.06,3178.97 3770.7,3207.47 3765.24,3225.81C3763.56,3231.43 3762.99,3236.87 3759.6,3240.29C3754.72,3245.22 3753.48,3250.68 3747.52,3250.01C3745.23,3249.75 3743.85,3249.71 3743.06,3249.77C3742.64,3249.23 3741.58,3248.32 3739.32,3246.85C3736.03,3249.95 3730.84,3249.8 3727.74,3246.51C3725.2,3243.82 3724.85,3239.85 3726.61,3236.8C3722.19,3236.87 3709.85,3225.31 3717.27,3223.51C3726.69,3221.22 3712.43,3201.17 3706.76,3184.05C3696.42,3152.76 3678.66,3112.74 3658.04,3067.78C3641.04,3030.7 3623.07,2990.18 3603.52,2950.15C3539.46,2818.99 3466.94,2689.56 3450.72,2662.72C3432.8,2632.9 3400.1,2599.7 3376.67,2566.16C3363.03,2546.64 3352.19,2526.87 3346.32,2507.64C3340.2,2485.92 3345.19,2455.93 3367.17,2424.86C3400.82,2377.32 3475.12,2319.81 3549.43,2288.03C3632.52,2252.51 3714.25,2253.07 3753.85,2309.49C3793.56,2366.06 3795.1,2448.63 3790.27,2532.58C3786.3,2601.67 3778.46,2671.27 3799.19,2721.35C3808.71,2744.33 3825.62,2760.79 3854.14,2772.59C3871.29,2779.7 3890.12,2787.92 3915.2,2792.13C3925.75,2792.13 3934.31,2800.7 3934.31,2811.24C3934.31,2821.79 3925.75,2830.36 3915.2,2830.36C3884.31,2835.54 3858.69,2836.35 3836.24,2831.96C3783.73,2821.68 3753.83,2788.12 3735.91,2748.9C3709.61,2691.32 3715.95,2609.47 3720.1,2528.76C3723.53,2462 3727.28,2395.54 3695.44,2350.76C3685.34,2336.57 3668.46,2333.58 3649.72,2334.7C3627.66,2336.02 3603.12,2343.45 3578.62,2354.49C3527.07,2377.72 3475.97,2416.74 3445.6,2452.6C3434.65,2465.52 3414.74,2485.83 3424.88,2487.46C3425.39,2487.54 3425.5,2487.18 3425.43,2486.64ZM3425.43,2486.64C3425.1,2485.71 3424.8,2484.78 3424.51,2483.85C3424.73,2484.51 3425.31,2485.79 3425.43,2486.64Z" style="fill:#fff;"/>
            <path d="M3997.95,2107.79C4002.41,2108.49 4005.47,2112.69 4004.76,2117.15C4004.06,2121.62 3999.87,2124.67 3995.4,2123.97C3985.48,2128.98 3980.69,2131.83 3968.86,2132.56C3951.32,2133.64 3933.95,2124.32 3916.17,2115.42C3896.36,2105.51 3877.8,2090.86 3859.65,2076.53C3832.59,2055.14 3808.1,2031.89 3786.64,2017.45C3603.15,1893.89 3497.24,1847.97 3399.04,1884.49C3327.57,1911.07 3264.06,1980.62 3175.74,2083.69C3148.72,2115.22 3118.66,2148.89 3086.61,2186.44C3079.05,2196.19 3065,2197.96 3055.25,2190.4C3045.51,2182.84 3043.73,2168.79 3051.29,2159.04C3079.95,2118.33 3105.65,2080.74 3131.13,2047.52C3222.43,1928.48 3298.35,1856.67 3376.95,1826.26C3488.3,1783.18 3613.28,1822.95 3823.91,1961.44C3852.42,1980.51 3887.65,2012.25 3923.28,2040.84C3935.58,2050.7 3948.21,2059.65 3959.93,2068.58C3968.27,2074.92 3975.74,2080.66 3982.7,2087.24C3990.51,2094.64 3990.68,2100.89 3997.95,2107.79Z" style="fill:#fff;"/>
            <path d="M3706.88,2276.06C3711.39,2275.4 3715.59,2278.52 3716.25,2283.03C3716.92,2287.55 3713.79,2291.75 3709.28,2292.41C3701.91,2299.4 3696.62,2294.96 3686.1,2291.03C3679.43,2288.54 3675.14,2281.41 3669.35,2272.09C3665.91,2266.54 3663.74,2259.43 3661.61,2251.47C3650.63,2210.41 3649.32,2143.08 3647.07,2099.34C3646.59,2090.11 3645.57,2082.07 3646.28,2075.71C3646.77,2071.38 3650.46,2070.3 3650.8,2067.51C3646.73,2057.76 3651.35,2046.54 3661.11,2042.48C3670.86,2038.41 3682.08,2043.03 3686.14,2052.79C3690.13,2055.47 3692.33,2057.92 3695.88,2064.07C3701.01,2072.98 3701.14,2088.08 3702.64,2104.67C3705.82,2139.85 3706.51,2186.73 3709.03,2223.41C3709.72,2233.51 3710.41,2242.66 3710.83,2250.67C3711.28,2258.96 3708.73,2264.77 3710.09,2269.27C3711.14,2272.75 3703.94,2274.58 3706.88,2276.06Z" style="fill:#fff;"/>
            <path d="M3591.91,2266.71C3596.41,2267.22 3599.64,2271.27 3599.14,2275.76C3598.63,2280.26 3594.58,2283.49 3590.09,2282.99C3584.27,2288.42 3583.48,2286.44 3575.15,2288.13C3571.87,2288.79 3569.82,2286.48 3566.24,2285.88C3561.33,2285.07 3558.19,2283.07 3553.3,2280.17C3542.99,2274.08 3535.35,2261.25 3527.36,2247.44C3516.46,2228.59 3506.6,2205.01 3501.35,2182.12C3495.03,2154.52 3496.03,2129.28 3493.69,2117.04C3489.69,2106.23 3495.21,2094.22 3506.01,2090.21C3516.82,2086.21 3528.84,2091.74 3532.84,2102.54C3539.67,2114.97 3553.76,2141.63 3565.23,2172.28C3572.21,2190.93 3577.23,2210.94 3583.68,2227.23C3586.56,2234.48 3588.82,2240.84 3591.07,2246.49C3593.36,2252.25 3588.96,2256.04 3591.26,2260.27C3593.04,2263.54 3590.11,2263.56 3591.91,2266.71Z" style="fill:#fff;"/>
            <path d="M3475.98,2326.83C3480.49,2326.54 3484.39,2329.96 3484.68,2334.47C3484.98,2338.98 3481.55,2342.88 3477.04,2343.18C3474.24,2348.67 3475.93,2346.64 3468.82,2350.04C3458.84,2354.82 3441.11,2347.04 3421.26,2338.37C3402.48,2330.17 3381.95,2317.7 3365.78,2304.74C3352.77,2294.31 3344.85,2282.41 3338.53,2277.76C3326,2271.26 3321.11,2255.81 3327.62,2243.28C3334.12,2230.76 3349.57,2225.87 3362.09,2232.38C3370.33,2235.04 3383.79,2240.65 3398.93,2249.95C3405.41,2253.93 3412,2258.85 3418.38,2264.26C3434.73,2278.14 3450.42,2293.74 3463.03,2305.44C3468.66,2310.66 3471.92,2315.11 3474.93,2318.76C3478.45,2323.02 3473.41,2323.56 3475.98,2326.83Z" style="fill:#fff;"/>
            <path d="M3322.38,2394.26C3326.08,2391.66 3331.19,2392.56 3333.78,2396.26C3336.38,2399.96 3335.48,2405.07 3331.78,2407.67C3331.85,2415.24 3330.87,2412.61 3325.22,2421.14C3322.44,2425.33 3318.27,2426.5 3312.27,2428.8C3298.48,2434.07 3277.71,2433.86 3261.74,2431.49C3254.8,2430.45 3250.56,2425.88 3246.51,2425.43C3234.67,2427.61 3223.29,2419.77 3221.11,2407.93C3218.93,2396.09 3226.77,2384.71 3238.61,2382.53C3243.98,2379.53 3251.22,2376.56 3261.46,2375.55C3273.86,2374.34 3289.36,2377.06 3302.11,2379.78C3308.09,2381.05 3311.86,2383.77 3315.89,2385.62C3322.38,2388.59 3317.51,2392.62 3322.38,2394.26Z" style="fill:#fff;"/>
            <path d="M3021.62,2224.8C3025.03,2225.87 3027.46,2229.11 3027.34,2232.86C3030.72,2238.46 3027.12,2241.11 3027.39,2243.45C3027.66,2245.81 3025.07,2244.79 3024.98,2246.72C3024.63,2253.92 3019.3,2245.74 3012.71,2249.75C3009.93,2251.44 3010.28,2247.92 3005.4,2247.27C2998.01,2246.29 2988.7,2231.28 2986.29,2228.61C2970.69,2194.19 2959.42,2158.07 2951.62,2120.71C2944.06,2084.55 2940.46,2047.65 2936.11,2011.65C2929.39,1921.5 2911.66,1762.21 2928.18,1631.98C2934.52,1582.03 2943.67,1535.12 2963.39,1500.18C2969.77,1488.88 2977.21,1479.88 2985.28,1471.22C2990.93,1461.65 3003.28,1458.48 3012.85,1464.13C3022.41,1469.78 3025.58,1482.13 3019.93,1491.69C3017.75,1499.22 3017.66,1506.73 3015.61,1514.92C3012.91,1525.7 3009.25,1536.71 3006.7,1548.67C3003.01,1565.97 3000.99,1584.59 2998.76,1604.14C2995.67,1631.37 2993.09,1660.3 2992.08,1690.06C2988.16,1804.74 3000.73,1930.31 3007.12,2005.98C3008.52,2047.67 3010.6,2090.29 3015.1,2132.48C3018.03,2160.01 3021.17,2187.16 3028.13,2213.72C3028.16,2215.14 3024.2,2225.02 3028.15,2224.76C3029.97,2224.64 3025.16,2227.18 3025.1,2225.97C3024.94,2223.29 3023.36,2223.99 3021.62,2224.8ZM3017.28,2224.63C3016.51,2223.99 3015.95,2224.56 3015.33,2225.36C3015.94,2225.04 3016.59,2224.79 3017.28,2224.63ZM3012.74,2227.52C3012.41,2227.56 3012.04,2227.53 3011.64,2227.4C3009.79,2226.78 3011.61,2230.48 3009.14,2230.7C3008.48,2230.75 3008.98,2232.17 3009.24,2232.9C3009.58,2232.83 3010.61,2233.01 3010.97,2232.35C3011.03,2230.52 3011.68,2228.85 3012.74,2227.52Z" style="fill:#fff;"/>
            <path d="M2344.39,1714.41C2346.95,1714.62 2349.5,1715.57 2349.1,1711.98C2348.92,1710.44 2351.61,1711.54 2351.17,1709.9C2350.54,1707.62 2355.45,1708.54 2353.95,1705.94C2352.86,1704.07 2358.76,1704.27 2356.55,1701.61C2356.05,1701.01 2359.7,1700.01 2358.68,1700.69C2357.16,1701.71 2361.8,1703.12 2362.92,1705.92C2373.68,1733.02 2391.07,1805.77 2394.84,1814.9L2505.22,2091.86C2511.61,2106.65 2530.63,2131.61 2546.68,2155.86C2560.33,2089.56 2556.09,1999.87 2544.6,1900.67C2523.18,1715.72 2469.69,1499.71 2427.24,1328.07C2401.36,1223.41 2380.02,1134.88 2369.23,1079.91C2355.03,1005.71 2325.36,749.607 2346.35,567.267C2358.95,457.786 2394.14,374.905 2453.46,355.609C2509.75,337.109 2575.3,372.464 2635.1,438.883C2736.7,551.738 2828.43,748.842 2847.85,805.623C2855.68,828.628 2861.74,853.361 2866.89,879.028C2877.85,933.684 2886.97,992.234 2898.67,1047.22C2904.09,1072.66 2909.56,1097.07 2917.47,1120.42C2918.53,1123.55 2919.64,1126.52 2920.2,1129.75C2921.84,1139.43 2920.14,1146.06 2921.29,1155.72C2923.83,1159.46 2922.86,1164.56 2919.12,1167.1C2915.38,1169.64 2910.28,1168.67 2907.74,1164.93C2897.71,1159.48 2890.34,1156.38 2882.11,1148.3C2880.42,1146.64 2879.43,1144.47 2878.13,1142.48C2863.67,1120.33 2852.12,1095.81 2843.55,1069.34C2817.9,990.164 2816.16,897.708 2791.17,824.938C2775.25,778.065 2707.49,630.186 2626.81,522.162C2597.37,482.744 2566.39,448.619 2535.38,427.851C2513.46,413.164 2492.19,404.884 2471.82,411.56C2454.01,417.456 2442.08,434.388 2432.27,456.674C2412.09,502.518 2403.56,569.877 2402.21,643.145C2399.16,808.18 2432.32,1001.99 2446.65,1063.57C2458.85,1117.5 2484.08,1203.8 2510.99,1306.77C2556.58,1481.27 2608.37,1702.39 2628.97,1891.18C2647.09,2057.29 2637.38,2199.75 2585.3,2272.93C2575.58,2286.3 2563.74,2291.77 2551.52,2292.66C2539.92,2293.5 2523.09,2290.27 2508.15,2273.32C2485.64,2247.79 2450.14,2158.51 2435.22,2120.82C2420.44,2083.42 2406.18,2045.66 2392.38,2007.68C2371.79,1950.99 2352.18,1893.89 2332.95,1837.03C2329.78,1826.61 2304.71,1745.95 2309.17,1714.12C2311.29,1699.04 2313.46,1692.03 2316.81,1690.42C2319.16,1689.3 2317.01,1686.95 2319.14,1686.84C2323.91,1686.59 2321.17,1680.37 2324.86,1681.63C2330.86,1683.69 2331.52,1673.67 2335.47,1678.61C2336.29,1679.65 2337.19,1677.61 2337.91,1678.79C2339.05,1680.65 2341.14,1677.52 2341.95,1679.84C2342.81,1682.31 2346.41,1679.17 2346.62,1682.56C2355.06,1688.19 2357.34,1699.61 2351.72,1708.05C2349.82,1710.89 2347.27,1713.03 2344.39,1714.41ZM2519.35,2225.81C2519.24,2225.97 2519.13,2226.13 2519.02,2226.29C2519.13,2226.13 2519.24,2225.97 2519.35,2225.81ZM2340.59,1715.75C2338.23,1716.3 2335.77,1716.38 2333.36,1715.97C2334.49,1717.12 2335.34,1718.35 2336.49,1716.74C2337.72,1715.01 2339.41,1718.26 2340.24,1716.38C2340.35,1716.14 2340.46,1715.93 2340.59,1715.75ZM2329.68,1714.95C2329.1,1714.72 2328.53,1714.46 2327.97,1714.17C2328.29,1714.9 2328.52,1715.63 2329.32,1715.15C2329.45,1715.07 2329.57,1715.01 2329.68,1714.95Z" style="fill:#fff;"/>
            <path d="M2257.05,1440.05C2257.94,1444.48 2255.07,1448.8 2250.64,1449.7C2246.21,1450.59 2241.89,1447.73 2240.99,1443.3C2230.26,1439.23 2232.78,1443.89 2223.92,1436.61C2217.02,1430.94 2214.55,1423.52 2210.92,1415.38C2200.23,1391.43 2195.57,1365.77 2190.56,1340.2C2176.38,1267.78 2172.5,1194.8 2162.79,1126.5C2152.71,1055.61 2140.61,989.186 2111.74,932.408C2076.43,862.963 2017.06,809.955 1915.02,777.158C1906.6,774.449 1897.83,772.169 1889.05,769.027C1876.06,764.377 1863.93,758.175 1849.94,753.108C1836.68,750.969 1827.65,738.468 1829.79,725.209C1831.93,711.949 1844.43,702.921 1857.69,705.059C1873.83,704.612 1888.62,704 1903.51,705.557C1913.91,706.644 1923.78,709.273 1933.43,711.6C2062.09,742.61 2136.16,810.293 2183.25,894.17C2218.96,957.756 2239.07,1032.62 2251.04,1113.71C2261.19,1182.46 2268.77,1255.45 2273.26,1329.64C2274.77,1354.55 2277.04,1379.16 2275.15,1404.2C2274.51,1412.74 2274.47,1420.12 2270.35,1427.64C2264.88,1437.62 2265.28,1432.2 2257.05,1440.05Z" style="fill:#fff;"/>
            <path d="M1770.2,875.866C1771.41,875.937 1773.17,875.951 1773.62,876.468C1776.52,879.847 1779.69,878.295 1783.11,876.838C1776.32,874.951 1769.33,871.964 1765.21,869.842C1761.35,867.85 1762.41,863.712 1760.83,861.706C1759.39,859.885 1761,857.834 1760.25,856.057C1756.76,847.736 1766.08,845.58 1772.36,838.089C1778.96,830.408 1788.56,833.709 1802.91,842.494C1806.31,844.576 1808.97,849.38 1812.38,854.686C1829.67,881.57 1855.49,954.617 1868.97,993.225C1908.14,1115.32 1942.49,1239.62 1973.06,1365.17C2018.57,1552.02 2056.62,1741.22 2101,1926.85C2127.88,2045.24 2167.2,2161.16 2199.03,2278.55C2213.03,2330.19 2225.55,2382.12 2235.21,2434.59C2242.91,2476.2 2254.46,2526.97 2257.55,2576.07C2259.88,2613.26 2257.44,2649.56 2246.45,2681.29C2217.51,2767.26 2136.18,2764.47 2041.57,2700.23C1966.15,2649.02 1878.69,2562.24 1819.51,2488.68C1807.73,2474.03 1796.92,2460.03 1788.27,2446.51C1767.29,2413.73 1755.38,2386.72 1751,2372.17C1745.7,2360.51 1750.86,2346.74 1762.52,2341.44C1774.18,2336.14 1787.94,2341.31 1793.24,2352.97C1799.91,2363.59 1817.43,2379.75 1838.83,2403.01C1853.08,2418.51 1868.93,2436.63 1886.25,2455.98C1930.4,2505.33 1983.01,2563.04 2035.64,2607.24C2075.38,2640.62 2113.76,2667.27 2145.79,2675.83C2154.83,2678.25 2162.9,2679.79 2169.49,2676.58C2175.12,2673.83 2178.22,2667.52 2181.07,2659.06C2188.95,2635.45 2189.68,2608.46 2187.6,2580.92C2184.1,2534.79 2172.19,2487.26 2164.37,2448.25C2154.22,2397.9 2141.16,2348.17 2126.96,2298.66C2093.12,2180.64 2052.44,2064.01 2023.89,1944.84C1974.72,1727.76 1931.48,1506.57 1881.17,1288.31C1859.66,1194.99 1837.52,1102.1 1811.67,1010.54C1802.31,974.049 1784.97,904.778 1771.21,878.739C1770.78,877.923 1770.54,876.638 1770.2,875.866ZM1799.04,860.607C1799.4,859.475 1799.82,858.347 1800.36,857.252C1801.52,854.871 1801.87,846.738 1796.66,847.507C1794.06,847.891 1794.81,860.617 1797.72,858.239C1799.01,857.193 1797.07,859.929 1795.7,860.804C1796.82,860.5 1797.95,860.444 1799.04,860.607ZM1770.2,875.866C1769.23,875.809 1768.62,875.714 1769.36,875.288C1769.73,875.073 1769.99,875.359 1770.2,875.866Z" style="fill:#fff;"/>
            <path d="M1018.66,1769.67C1016.86,1777.69 1014.68,1787.95 1014.11,1792.76C1006.9,1860.73 1026.12,1925.59 1057.86,1986.4C1081.88,2032.43 1114.27,2075.21 1146.42,2117.03C1180.91,2161.89 1215.56,2205.42 1247.56,2244.71C1258.76,2257.75 1257.26,2277.44 1244.21,2288.64C1231.16,2299.84 1211.48,2298.35 1200.28,2285.3C1165.57,2246.93 1125.95,2205.98 1090.39,2160.44C1055.25,2115.42 1024.39,2066.09 999.96,2015.48C964.814,1942.65 944.826,1865.64 955.378,1785.77C956.786,1773.88 959.193,1752.85 965.857,1737.24C971.089,1724.99 978.918,1715.44 988.321,1709.72C994.144,1706.18 1012.72,1702.53 1038.84,1713.72C1076.68,1729.94 1152.95,1774.16 1234.89,1826.33C1323.77,1882.9 1420.56,1947.39 1479.7,1997.04C1507.34,2020.25 1526.86,2040.83 1536.43,2054.5C1540.51,2060.7 1545.36,2070.2 1546.41,2081.08C1546.98,2087.06 1546.72,2092.88 1546.36,2097.85C1546.19,2100.21 1540.32,2099.52 1541.64,2099.33C1545.92,2098.73 1535.42,2098.98 1533.51,2096.16C1531.27,2092.86 1528.46,2101.02 1524.6,2098.2C1520.06,2094.88 1521.14,2109.32 1524.97,2103.32C1526.13,2101.51 1524.4,2104.66 1526.86,2105.56C1530.02,2102.32 1535.2,2102.26 1538.44,2105.41C1541.68,2108.57 1541.74,2113.76 1538.59,2116.99C1541.84,2123.94 1537.35,2118.37 1538.19,2123.95C1539.4,2132.04 1534.77,2124.45 1531.38,2129.72C1530.65,2130.85 1529.37,2129.34 1528.3,2130.08C1525.54,2132.01 1523.96,2128.3 1520.54,2128.8C1514.19,2129.74 1510.24,2122.89 1502.12,2112.04C1497.56,2105.95 1495.75,2093.52 1491.1,2089.03C1484.68,2081.61 1472.73,2072.91 1458.24,2061.18C1421.06,2031.08 1365.17,1988.02 1303.47,1945.42C1199.88,1873.92 1082.74,1800.36 1025.49,1772.76C1023.3,1771.71 1020.96,1770.66 1018.66,1769.67Z" style="fill:#fff;"/>
            <path d="M1290.33,2426.14C1289.92,2426.25 1289.5,2426.33 1289.06,2426.38C1284.57,2426.86 1280.53,2423.6 1280.05,2419.1C1275.72,2416.34 1279.52,2414.55 1278.56,2412.95C1277.47,2411.14 1280.41,2411.42 1280.05,2409.86C1278.63,2403.75 1285.24,2409.78 1289.03,2405.45C1291.14,2403.05 1290.78,2406.6 1298.06,2408.66C1302.19,2409.83 1311.77,2424.9 1317.17,2429.64L1354.23,2471.2L1468.64,2604.07C1564.26,2709.59 1666.18,2808.36 1763.18,2912.34C1787.66,2938.57 1811.73,2965.18 1835.41,2992.24C1871.53,3033.71 1912.59,3072.87 1949.07,3115.35C1975.19,3145.78 1998.9,3177.92 2017.77,3213.06C2047.52,3269.04 2069.2,3328.93 2086.11,3390.57C2110.54,3479.59 2125.01,3572.23 2141.99,3660.95C2185.93,3905.41 2220.91,4151.9 2262.93,4396.51C2265.25,4410.07 2268.58,4423.49 2269.74,4437.2C2270.95,4451.42 2269.78,4464.96 2269.88,4479.23C2272.3,4491.38 2264.41,4503.21 2252.26,4505.64C2240.11,4508.07 2228.28,4500.18 2225.85,4488.03C2219.82,4472.07 2212.94,4457.09 2208.2,4440.69C2197.42,4403.45 2192.21,4364.82 2184.78,4326.74C2142.53,4110.31 2108.27,3891.9 2064.83,3675.66C2048.34,3588.86 2034.12,3498.28 2010.64,3411.09C1995.5,3354.86 1976.57,3300.01 1949.88,3248.8C1934.08,3218.16 1913.74,3190.28 1891.74,3163.5C1856.3,3120.35 1816.65,3080.01 1781.77,3037.69C1748.21,2996.7 1713.58,2956.79 1678.54,2917.25C1595.84,2823.94 1510.8,2733.01 1430.54,2637.29L1319.51,2498.32L1289.32,2450.84C1286.45,2445.37 1286.42,2424.86 1279.63,2426.37C1278.48,2426.62 1281.5,2424.83 1281.58,2425.31C1281.97,2427.63 1284.42,2425.21 1284.91,2426.67C1286.35,2430.89 1287.9,2428.1 1290.33,2426.14ZM1293.17,2424.73C1293.68,2424.66 1294.21,2424.68 1294.77,2424.82C1296.56,2425.28 1294.95,2422.2 1297.19,2421.93C1298.36,2421.79 1296.58,2420.12 1298.02,2419.54C1298.52,2419.34 1297.1,2419.13 1296.37,2418.62C1296.26,2421.07 1295.05,2423.29 1293.17,2424.73Z" style="fill:#fff;"/>
            <path d="M2266.8,5393.14C2266.83,5393.27 2266.77,5393.39 2266.59,5393.5C2266.22,5393.74 2266.43,5393.53 2266.8,5393.14ZM2268.05,5391.37C2267.93,5391.91 2267.25,5392.66 2266.8,5393.14C2266.65,5392.5 2264.18,5391.74 2263.45,5390.66C2261.15,5387.19 2259.12,5383.11 2256.99,5379.17C2252.15,5370.21 2248.8,5360.77 2248.11,5352.01C2245.69,5318.22 2240.54,5235.98 2238.96,5146.63C2237.7,5075.63 2238.2,5000.17 2241.15,4941.16C2242.6,4912.17 2243.78,4887.02 2247.54,4868.49C2249.41,4859.25 2250.62,4851.4 2254.28,4846.22C2258.47,4840.27 2260.43,4839.95 2264.42,4837.4C2265.63,4833.04 2270.14,4830.49 2274.5,4831.7C2278.85,4832.91 2281.41,4837.42 2280.2,4841.78C2281.99,4845.59 2285.34,4845.58 2287.22,4851.98C2289.93,4861.18 2289.29,4874.71 2289.93,4891.38C2292.02,4946.52 2293.02,5034.52 2295.49,5119.85C2298.31,5217.72 2299.56,5312 2301.6,5348.66C2301.87,5356.57 2310.48,5364.62 2312.36,5372.24C2314.17,5379.61 2315.66,5385.57 2313.87,5391.07C2313.87,5403.71 2303.6,5413.98 2290.96,5413.98C2278.41,5413.98 2268.21,5403.87 2268.05,5391.37Z" style="fill:#fff;"/>
            <path d="M2578.89,3378.53C2581.74,3382.05 2581.19,3387.2 2577.68,3390.05C2574.17,3392.89 2569.01,3392.35 2566.16,3388.83C2562.4,3386.22 2557.16,3388.75 2551.62,3389.02C2544.6,3389.36 2538.83,3388.49 2533.2,3386.6C2522.24,3382.92 2518.06,3372.57 2517.26,3357.12C2516.69,3347.1 2520.85,3335.57 2529.85,3323.01C2544.76,3302.18 2579.59,3280.82 2621.46,3256.07C2649.53,3239.48 2681.16,3221.18 2715.21,3203.84C2767.59,3177.16 2823.55,3149.24 2876.58,3129.86C2954.64,3101.33 3023.84,3087.55 3051.43,3084.11C3066.98,3081.28 3081.91,3091.61 3084.74,3107.17C3087.57,3122.72 3077.23,3137.65 3061.68,3140.48C3039.86,3145.84 2992.05,3166.04 2932.81,3189.95C2914.94,3197.16 2896.1,3204.74 2876.47,3211.88C2813.95,3234.63 2745.05,3256.22 2687.61,3282.04C2637.53,3304.55 2596.27,3328.34 2573.27,3348.36C2569.59,3351.56 2566.42,3354.5 2563.82,3357.34C2561.9,3359.43 2558.72,3359.49 2558.16,3361.44C2559.08,3358.02 2554.98,3353.85 2553.08,3355.69C2545.12,3363.38 2574.92,3368.45 2578.89,3378.53Z" style="fill:#fff;"/>
            <path d="M2558.49,3439.16C2563.36,3441.59 2566.59,3444.38 2560.98,3442.68C2556.44,3441.32 2559.51,3454.92 2557.29,3463.65C2553.15,3479.91 2547.6,3497.37 2547.01,3499.75L2521.83,3592.43C2518.49,3606.66 2504.22,3615.51 2489.98,3612.17C2475.75,3608.83 2466.9,3594.56 2470.24,3580.32C2474.71,3560.56 2479.13,3540.79 2485.13,3521.46C2489.16,3508.47 2494.05,3495.78 2499.05,3483.08C2500.21,3480.52 2507.52,3460.07 2518.29,3444.37C2522.72,3437.92 2527.2,3432.75 2531.67,3428.7C2536.26,3424.55 2539.08,3420.23 2542.74,3419.62C2544.57,3419.31 2545.06,3417.85 2546.51,3418.49C2553.27,3421.48 2551.43,3415.72 2555.21,3420.32C2556.16,3421.47 2557.86,3420.44 2558.8,3421.64C2560.1,3423.26 2562.57,3423.35 2563.1,3425.99C2565.95,3429.49 2565.43,3434.65 2561.92,3437.51C2560.89,3438.35 2559.71,3438.9 2558.49,3439.16Z" style="fill:#fff;"/>
            <path d="M3134.96,4003.77C3134.89,4003.4 3134.82,4003.03 3134.72,4002.65C3131.08,3987.67 3134.68,3971.63 3139.97,3955.1C3153.14,3913.97 3190.58,3873.69 3212.77,3843C3224.6,3828.73 3232.9,3823.29 3235.97,3821.88C3246.8,3816.89 3255.51,3817.64 3261.57,3819.49C3268.89,3821.73 3298.97,3839.9 3283.5,3873.43C3274.94,3891.99 3239.22,3947.44 3233.99,3955.63L3178.21,4041.17C3170.43,4054.47 3153.32,4058.95 3140.01,4051.17C3126.71,4043.39 3122.23,4026.27 3130.01,4012.97L3134.96,4003.77ZM3217.89,3864.16C3222.24,3854.95 3223.45,3847.78 3218.23,3845.76C3217.12,3845.33 3217.57,3847.77 3217.47,3848.36C3216.43,3854.53 3216.76,3859.76 3217.89,3864.16ZM3268.44,3888C3273.53,3887.12 3277.53,3885.37 3273.83,3881.61C3272.65,3880.4 3270.92,3884.85 3268.44,3888Z" style="fill:#fff;"/>
            <path d="M3943.21,2108.14C3941.81,2112.43 3937.18,2114.78 3932.88,2113.39C3928.59,2111.99 3926.23,2107.36 3927.63,2103.06C3927.4,2098.89 3929.82,2096.6 3930.68,2093.58C3931.47,2090.79 3933.81,2090.71 3934.87,2088.18C3937.88,2080.99 3940.74,2083.3 3949.59,2079.64C3951.84,2078.71 3954.3,2080.13 3957.14,2080.44C3966.1,2081.41 3977.31,2086.81 3990.08,2095.53C4011.84,2110.39 4037.83,2137.04 4058.9,2164.72C4085.91,2200.2 4103.87,2237.35 4108.61,2246.45C4114.54,2255.43 4112.06,2267.53 4103.08,2273.46C4094.1,2279.39 4081.99,2276.91 4076.06,2267.93C4071.22,2262.28 4053.82,2245.6 4033.46,2223.52C4024.69,2214.01 4015.45,2203.58 4006.44,2192.79C3990.58,2173.81 3974.73,2154.63 3961.51,2139.64C3954.58,2131.79 3949.39,2125.08 3944.86,2120.3C3939.6,2114.76 3947.97,2103.77 3943.21,2108.14Z" style="fill:#fff;"/>
        </g>
    </g>
</svg>
