<?xml version="1.0" encoding="UTF-8" standalone="no"?>
<!DOCTYPE svg PUBLIC "-//W3C//DTD SVG 1.1//EN" "http://www.w3.org/Graphics/SVG/1.1/DTD/svg11.dtd">
<svg width="100%" height="100%" viewBox="0 0 5906 5906" version="1.1" xmlns="http://www.w3.org/2000/svg" xmlns:xlink="http://www.w3.org/1999/xlink" xml:space="preserve" xmlns:serif="http://www.serif.com/" style="fill-rule:evenodd;clip-rule:evenodd;stroke-linejoin:round;stroke-miterlimit:2;">
    <g id="Okay">
        <g id="_3" serif:id="3">
            <path d="M3539.55,5356.19C3539.3,5363.02 3533.55,5368.35 3526.72,5368.09C3519.9,5367.83 3514.57,5362.08 3514.83,5355.26C3511.43,5347.38 3507.71,5342.21 3505.81,5333.83C3499.55,5306.17 3502.55,5277.47 3503.55,5249.02C3506.45,5167 3520.79,5085.27 3537.52,5004.52C3554.27,4923.67 3575.37,4843.54 3603.89,4766.47C3613.73,4739.88 3622.51,4712.69 3636.6,4688.19C3640.33,4681.7 3644.93,4676.57 3649.38,4670.55C3654.62,4657.82 3669.21,4651.74 3681.94,4656.98C3694.66,4662.22 3700.74,4676.81 3695.5,4689.54C3694.45,4696.74 3694.34,4703.45 3692.63,4710.53C3686.23,4737.07 3675.59,4762.4 3667.11,4788.45C3642.51,4863.96 3620.08,4940.57 3602.92,5018.49C3585.74,5096.52 3575.63,5175.81 3564.16,5254.49C3560.16,5281.94 3559.05,5309.76 3550.37,5335.98C3547.71,5344.03 3543.48,5348.7 3539.55,5356.19Z" style="fill:#fff;"/>
            <path d="M3738.61,4553.07C3738.74,4553.68 3738.8,4554.31 3738.79,4554.97C3738.71,4559.48 3734.98,4563.09 3730.46,4563.01C3725.55,4563.2 3723.77,4559.86 3721.05,4557.11C3717.78,4553.82 3716.31,4550.69 3716.48,4537.86C3716.56,4532.43 3719.94,4526.07 3723.57,4518.59C3741.57,4481.48 3787.9,4423.41 3792.36,4417.2C3848.38,4344.83 3905.1,4270.04 3957.95,4193.25C3993.01,4142.31 4026.47,4090.56 4056.21,4037.59C4089.22,3978.85 4122,3915.63 4144.32,3849.82C4158.84,3807.04 4168.93,3763.17 4171.4,3718.69C4173.16,3686.87 4164.81,3653.84 4162.98,3621.36C4162.02,3604.37 4162.6,3587.53 4166.06,3570.98C4182.21,3494.04 4227.84,3409.21 4285.63,3326.7C4315.87,3283.53 4349.02,3240.64 4383.31,3200.37C4439.64,3134.2 4498.11,3074.58 4543.81,3025.72C4551.64,3016.92 4565.14,3016.12 4573.94,3023.95C4582.74,3031.78 4583.54,3045.28 4575.71,3054.08C4532.89,3104.79 4479.36,3167.91 4425.44,3235.18C4393.29,3275.28 4360.73,3316.63 4331.54,3358.7C4278.85,3434.67 4235.79,3511.88 4221.01,3582.5C4218.55,3594.23 4218.32,3606.19 4218.98,3618.24C4220.88,3652.79 4229.18,3687.99 4227.25,3721.84C4224.42,3771.34 4213.34,3820.22 4197.06,3867.79C4173.43,3936.79 4138.88,4003.06 4103.99,4064.56C4073.16,4118.87 4038.89,4172.17 4002.26,4224.12C3947.95,4301.15 3888.73,4375.36 3830.77,4447.49C3825.24,4453.76 3771.88,4527.45 3747.26,4549.61C3743.59,4552.91 3740.88,4553.53 3738.61,4553.07Z" style="fill:#fff;"/>
            <path d="M4034.93,3049.62C4036.22,3039.51 4034.24,3027.34 4031.51,3014.31C4023.18,2974.59 4005.26,2928.96 4000.64,2900.01C3983.35,2790.08 3974.5,2641.44 4003.22,2510.88C4023.55,2418.49 4062.56,2334.95 4130.91,2278.68C4138.56,2272.24 4146.26,2268.12 4153.74,2265.25C4163.19,2261.62 4172.31,2261.43 4180.38,2260.57C4177.71,2249.28 4205.92,2226.41 4230.81,2234.29C4249.02,2240.05 4263.86,2252.18 4275.99,2267.94C4297.65,2296.07 4309.57,2337.62 4319.24,2365.05C4335.78,2414.31 4351.72,2464.16 4371.09,2512.52C4383.7,2543.98 4397.76,2574.81 4414.51,2604.37C4443.11,2655 4485.9,2701.46 4517.3,2752.64C4532.15,2776.84 4544.43,2802.09 4552.61,2828.69C4556.79,2845.68 4557.32,2860.64 4554.78,2874.86C4551.49,2893.21 4545.58,2910.39 4537.77,2927.28C4533.53,2936.41 4527.99,2944.16 4524.91,2954.27C4525.62,2955.86 4525.85,2957.68 4525.46,2959.51C4524.47,2964.11 4519.94,2967.05 4515.34,2966.07C4513.27,2965.82 4510.3,2962.82 4507.71,2961.76C4503.68,2960.12 4508.41,2958.18 4504.74,2955.73C4502.09,2945.5 4500.94,2936.47 4501.55,2926.53C4502.74,2907.2 4510.93,2889.64 4511.41,2870.38C4511.62,2862 4509.72,2853.52 4505.8,2844.15C4497.88,2821.75 4485.98,2800.98 4472.85,2780.6C4439.88,2729.44 4397.53,2681.73 4368.41,2630.48C4350.5,2598.84 4335.4,2565.87 4321.94,2532.19C4302.23,2482.88 4286.03,2432.05 4269.23,2381.81C4262.66,2361.11 4255.6,2331.05 4242.2,2307.16C4238.37,2300.34 4234.17,2293.91 4229.04,2288.85C4224.3,2293.67 4218.6,2297.97 4215.47,2299.47C4204.14,2304.95 4189.59,2303.67 4173.44,2307.53C4169.08,2308.57 4164.47,2310.33 4159.85,2314C4098.9,2363.68 4064.24,2438.16 4046.62,2520.3C4019.86,2645.1 4032.18,2787.12 4050.3,2891.81C4055.15,2920.19 4073.79,2964.68 4082.02,3003.68C4086.84,3026.49 4088.1,3047.79 4084.24,3064.54C4083.51,3067.54 4080.71,3074.7 4072.9,3083.59C4062.45,3095.51 4039.05,3118.34 4006.62,3148.69C3974.31,3178.92 3932.56,3216.49 3886.55,3259.12C3731.56,3402.74 3526.05,3601.28 3418.64,3709.94C3390.99,3737.91 3369.37,3758.94 3358.95,3773.11C3352.79,3782.28 3340.33,3784.73 3331.16,3778.56C3321.98,3772.4 3319.53,3759.94 3325.7,3750.76C3336.41,3733.3 3358.58,3704.38 3390.83,3669.49C3410.99,3647.69 3435.66,3624.01 3462.33,3597.93C3567.91,3494.68 3713.64,3361.83 3831.67,3250.49C3894.55,3191.17 3949.2,3137.65 3987.23,3099.72C4010.69,3076.33 4027.41,3058.93 4034.93,3049.62ZM4034.31,3053.19C4034.31,3053.2 4034.3,3053.22 4034.3,3053.23C4034.3,3053.22 4034.31,3053.2 4034.31,3053.19Z" style="fill:#fff;"/>
            <path d="M3751.31,3399.93C3752.01,3400.97 3751.79,3402.79 3750.94,3405.18C3749.52,3409.15 3746.67,3413.88 3743.22,3419.36C3730.02,3440.34 3708.72,3469.16 3705.39,3474.61C3700.3,3482.7 3689.6,3485.14 3681.5,3480.05C3673.41,3474.96 3670.97,3464.26 3676.07,3456.17C3679.7,3450.56 3699.52,3418.39 3717.16,3399.36C3722.25,3393.87 3726.84,3389.26 3731.16,3387.03C3747.44,3378.61 3754.84,3383.13 3755.18,3387.93C3755.28,3389.2 3756.49,3390.64 3755.95,3392.73C3755.88,3395.91 3753.99,3398.63 3751.31,3399.93ZM3745.55,3400.43C3743.96,3399.99 3742.57,3399.07 3741.53,3397.85C3742.6,3399.61 3743.94,3400.43 3745.55,3400.43Z" style="fill:#fff;"/>
            <path d="M3772.5,3230.61C3773.49,3235.02 3770.72,3239.41 3766.31,3240.4C3761.9,3241.39 3757.51,3238.62 3756.52,3234.21C3751.59,3231.43 3750.74,3232.49 3746.58,3228.63C3741.62,3224.03 3739.09,3218.88 3735.97,3212.81C3732.05,3205.21 3729.81,3197.04 3726.86,3188.89C3722.2,3176.03 3717.43,3163.25 3713.3,3149.97C3703.98,3119.95 3696.16,3088.98 3687.14,3058.16C3657.2,2955.77 3622.43,2852.64 3576.62,2763.61C3560.22,2731.62 3541.38,2700.28 3520.85,2670.09C3500.19,2639.69 3477.84,2610.44 3454.57,2582.8C3419.56,2541.22 3363.08,2507.58 3341.87,2467.6C3322.83,2431.72 3321.64,2390.43 3371.01,2339.17C3390.85,2318.54 3414.07,2297.2 3439.41,2280.25C3457.75,2267.97 3477.2,2257.96 3497.29,2251.77C3521.18,2244.41 3546.3,2240.09 3570.98,2240.84C3597.46,2241.64 3623.47,2248.15 3647.35,2262.53C3728.59,2310.61 3754.77,2417.06 3767.01,2527.03C3773.27,2583.32 3776.62,2640.14 3784.9,2687.79C3790.97,2722.71 3799.01,2751.88 3815.86,2769.61C3828.49,2782.9 3846.34,2785.3 3874.11,2781.91C3885.47,2780.53 3897.57,2780.62 3911.64,2777.75C3922.43,2773.18 3934.89,2778.24 3939.45,2789.03C3944.02,2799.81 3938.97,2812.28 3928.18,2816.84C3913.82,2826.64 3901.22,2834.2 3888.28,2839.14C3834.54,2859.62 3794.87,2843.27 3767.91,2816.93C3725.97,2775.96 3716.26,2685.22 3708.59,2587.4C3700.22,2480.73 3695.52,2362.05 3616.5,2313.95C3601.74,2305.12 3585.6,2301.42 3569.25,2300.97C3551.11,2300.48 3532.7,2303.96 3515.16,2309.43C3496.76,2315.16 3479.27,2325.53 3463.01,2337.73C3445.37,2350.95 3429.23,2366.39 3415.03,2381.3C3392.58,2404.91 3387.37,2422.19 3396.18,2438.56C3415.96,2475.25 3469.84,2504.24 3502.32,2542.32C3527.16,2571.44 3551.02,2602.27 3573.11,2634.32C3595.32,2666.55 3615.73,2700.03 3633.53,2734.21C3679.37,2822.4 3717.05,2923.31 3745.75,3025.41C3756.27,3062.86 3766.49,3100.27 3773.53,3137.6C3776.64,3154.07 3778.59,3170.38 3780.59,3186.69C3781.14,3191.11 3782.09,3195.42 3782.02,3199.85C3781.9,3207.4 3781.81,3213.74 3779.14,3220.71C3777.06,3226.13 3775.72,3225.82 3772.5,3230.61Z" style="fill:#fff;"/>
            <path d="M3394.84,1732.76C3391.88,1737.92 3389.41,1743.49 3387.39,1749.38C3375.73,1783.36 3372.89,1824.19 3356.67,1856.46C3320.86,1928.87 3160.37,2191.47 3056.28,2240.73C2988.75,2272.68 2919.55,2247.91 2917.93,2070.63C2917.9,2037.83 2918.9,2004.89 2920.74,1971.99C2922.56,1939.34 2925.21,1906.74 2928.19,1874.34L2959.57,1598.87C2960.97,1582.08 2975.73,1569.58 2992.51,1570.97C3009.3,1572.37 3021.8,1587.13 3020.41,1603.91C3017.57,1659.53 3014.72,1715.06 3010.35,1770.55C3007.45,1807.33 3003.54,1844.03 3000.4,1880.79C2997.09,1918.66 2994.36,1956.82 2992.64,1994.97C2991.49,2020.22 2990.77,2045.47 2990.75,2070.63C2990.56,2109.96 2993.64,2139.14 2999.96,2159.81C3003.41,2171.05 3004.8,2179.52 3011.4,2181.3C3016.18,2182.6 3021.47,2180.54 3027.45,2177.9C3123.64,2135.34 3272.55,1896.26 3307.14,1831.08C3322.64,1801.4 3325.62,1763.54 3336.28,1731.97C3339.86,1721.35 3344.08,1711.28 3349.49,1702.07C3355.16,1692.41 3364.13,1685.46 3375.03,1680.96C3390.99,1674.36 3412.44,1674.41 3426.53,1676.57C3458.95,1681.44 3512.01,1706.95 3573.68,1745.19C3698.73,1822.73 3866.4,1947.62 3974.39,2016.97C4006.82,2037.8 4032.62,2053.24 4050.49,2060.41C4054.08,2061.85 4055.3,2065.07 4057.75,2066.09C4062.84,2068.2 4057.27,2073.07 4061.88,2074.4C4067.09,2070.63 4074.38,2071.79 4078.16,2076.99C4081.93,2082.2 4080.77,2089.5 4075.56,2093.27C4075.8,2101.64 4074.15,2098.74 4068.58,2106.22C4065.47,2110.39 4059.45,2109.76 4053.09,2111.16C4047.13,2112.46 4040.21,2111.34 4032.27,2110.06C4004.2,2105.55 3962.34,2086.12 3913.94,2057.38C3810.62,1996.04 3674.88,1889.75 3564.51,1815.17C3501.55,1772.62 3448.98,1738.49 3416.93,1732.25C3410.94,1731.1 3398.76,1738.36 3394.84,1732.76Z" style="fill:#fff;"/>
            <path d="M3657.29,2235.18C3657.95,2234.7 3660.05,2234.04 3659.17,2234.09C3656.65,2234.24 3659.82,2230.25 3658.13,2230.95C3654.91,2232.28 3656.06,2226.25 3653.88,2228.24C3650.44,2231.37 3644.19,2223.34 3643.81,2229.58C3643.72,2231.05 3642.35,2229.98 3640.19,2230.71C3637.71,2231.55 3636.47,2231.2 3635.1,2227.3C3633.6,2222.99 3630.74,2218.89 3630.44,2211.21C3629.86,2196.3 3632.47,2176.25 3636.52,2157.58C3641.73,2133.64 3651.51,2113.49 3654.8,2103.89C3656.76,2090.83 3668.95,2081.82 3682.01,2083.78C3695.07,2085.74 3704.08,2097.93 3702.12,2110.99C3702.45,2121.2 3706.44,2143.52 3704.12,2168.09C3702.17,2188.6 3697.64,2210.28 3690.4,2224.65C3686.14,2233.11 3682.74,2238.58 3677.78,2241.77C3665.75,2249.51 3667.38,2252.17 3661.86,2251.28C3658.47,2250.73 3658.41,2255.01 3656.16,2253.56C3650.03,2249.61 3643.92,2258.42 3644.19,2250.29C3644.32,2246.36 3637.92,2248.05 3642.38,2241.95C3640.63,2237.79 3642.59,2232.98 3646.76,2231.23C3650.78,2229.53 3655.4,2231.3 3657.29,2235.18Z" style="fill:#fff;"/>
            <path d="M3741.7,2328.31C3746.06,2327.11 3750.58,2329.67 3751.78,2334.02C3752.98,2338.38 3750.42,2342.89 3746.07,2344.1C3742.9,2351.38 3739.67,2345.99 3735.9,2347.99C3729.23,2351.53 3732.16,2342.27 3725.07,2339.2C3721.43,2337.63 3725.19,2335.43 3721.81,2331.22C3719.84,2328.78 3721.28,2326.61 3720.77,2322.21C3719.61,2312.2 3724.16,2295.33 3732,2284.6C3736.57,2278.33 3742.55,2276.9 3743.93,2275.86C3751.27,2264.85 3766.17,2261.87 3777.18,2269.21C3788.19,2276.55 3791.18,2291.45 3783.83,2302.47C3783.49,2304.05 3784.15,2309.1 3780.78,2315.3C3777.05,2322.18 3769.07,2328.56 3763.49,2333.87C3761.36,2335.9 3756.12,2333.88 3757.32,2335.4C3760.35,2339.22 3751.24,2332.24 3752.5,2329.56C3754.33,2325.62 3747.15,2328.91 3745.76,2324.83C3745.23,2323.26 3743.38,2323.82 3741.7,2325.28C3740.61,2326.23 3740.1,2327.01 3741.7,2328.31Z" style="fill:#fff;"/>
            <path d="M3529.13,2271.58C3530.19,2275.98 3527.47,2280.4 3523.08,2281.46C3518.68,2282.51 3514.26,2279.8 3513.21,2275.41C3503.5,2274.01 3510.63,2279.08 3502.48,2273.54C3491.07,2265.78 3489.43,2251.18 3484.69,2237.72C3480.42,2225.59 3478.09,2212.95 3475.91,2200.15C3473.03,2183.26 3471.61,2166.29 3467.28,2150.15C3465.53,2143.67 3463.52,2137.38 3461.53,2130.95C3458.35,2120.7 3458.24,2110.57 3452.57,2100.44C3444.3,2092.16 3444.3,2078.73 3452.57,2070.45C3460.85,2062.18 3474.28,2062.18 3482.56,2070.45C3498.31,2079.32 3509.84,2089.71 3519.63,2103.22C3529,2116.14 3533.3,2131.91 3537.4,2147.43C3541.36,2162.43 3544.08,2178.04 3545.17,2193.8C3545.84,2203.5 3546.37,2213.16 3545.53,2222.8C3544.23,2237.84 3545.63,2252.12 3538.54,2264.82C3533.93,2273.09 3536.59,2265.83 3529.13,2271.58Z" style="fill:#fff;"/>
            <path d="M3479.51,2326.8C3483.73,2328.44 3485.82,2333.19 3484.18,2337.4C3482.54,2341.61 3477.78,2343.7 3473.57,2342.06C3463,2343.53 3456.38,2344.59 3445.88,2343.69C3432.83,2342.59 3421.31,2339.1 3409.42,2333.81C3383.02,2322.07 3360.35,2305.13 3333.46,2294.32C3322.91,2290.08 3313.98,2283.51 3301.63,2280.9C3290.47,2281.18 3281.19,2272.35 3280.91,2261.19C3280.63,2250.04 3289.46,2240.76 3300.62,2240.48C3313.59,2236.44 3325.01,2234.49 3337.44,2234.9C3355.98,2235.51 3372.94,2242.99 3389.17,2250.64C3407.31,2259.2 3425.45,2268.77 3441.2,2281.68C3450.29,2289.13 3457.31,2297.15 3465.05,2306.11C3471.32,2313.37 3473.33,2319.32 3479.51,2326.8Z" style="fill:#fff;"/>
            <path d="M3413.1,2489.76C3416.92,2492.16 3418.08,2497.22 3415.67,2501.05C3413.27,2504.87 3408.21,2506.03 3404.38,2503.62C3401.23,2504.15 3400.69,2505.47 3397.5,2505.63C3393.26,2505.84 3389.74,2505.93 3385.45,2505.76C3377.09,2505.42 3369.26,2507.79 3360.49,2507.64C3336.69,2507.2 3311.91,2504.17 3290.79,2503.49C3280.72,2504.05 3272.09,2496.33 3271.53,2486.25C3270.97,2476.18 3278.69,2467.55 3288.76,2466.99C3304.6,2464.15 3322.08,2459.24 3340.4,2457.81C3348.51,2457.18 3356.76,2457.11 3364.66,2458.43C3372.41,2459.71 3379.78,2461.58 3386.56,2465.06C3395.77,2469.8 3404.52,2473.43 3409.87,2481.95C3411.87,2485.14 3412.04,2486.14 3413.1,2489.76Z" style="fill:#fff;"/>
            <path d="M2307.63,1645.08C2305.91,1645.27 2304.76,1645.47 2306.2,1645C2306.78,1644.81 2307.24,1644.86 2307.63,1645.08ZM2573.46,2219.4C2577.16,2198.71 2578.47,2172.32 2579.15,2141.49C2581.4,2039.56 2567.75,1896.31 2545.87,1735.85C2503.5,1425.1 2433.96,1050.88 2413.01,779.461C2402.44,642.519 2404.07,531.001 2426.31,464.48C2439.34,425.531 2459.82,400.211 2485.7,388.462C2555.45,355.739 2633.4,411.942 2700.68,513.781C2719.89,542.852 2739.24,574.998 2756.52,609.534C2836.81,770.006 2891.1,970.273 2902.06,1020.78C2905.91,1040.1 2910.41,1059.39 2914.01,1078.9C2919.55,1108.93 2923.64,1139.06 2926.53,1169.25C2927.3,1178.36 2928.85,1187.03 2929.04,1194.91C2929.34,1207.19 2929.7,1216.89 2927.37,1222.46C2924.01,1230.53 2923.93,1230.99 2921.83,1231.84C2916.87,1233.84 2922.2,1236.63 2919.37,1235.89C2915.92,1234.99 2918.73,1240.03 2916.42,1238.19C2910.87,1233.76 2904.1,1248.43 2907.06,1236.94C2903.48,1234.19 2902.8,1229.05 2905.56,1225.46C2905.85,1225.08 2906.16,1224.74 2906.5,1224.42C2903.88,1224.43 2900.74,1223.08 2904.07,1226.67C2905.09,1227.77 2901.14,1227.35 2902.99,1228.55C2904.72,1229.67 2896.42,1233.76 2899.16,1229.81C2899.78,1228.93 2897.38,1228.97 2896.41,1227.47C2893.23,1222.56 2889.09,1214.46 2884.98,1203.29C2882.14,1195.54 2880.51,1186.43 2878.24,1177.12L2839.88,1034.8C2828.54,986.258 2767.69,796.675 2693.16,640.502C2677.6,607.898 2662.37,576.322 2645.78,548.263C2620.81,506.033 2595.1,470.79 2567.35,450.837C2547.97,436.909 2528.23,430.823 2508.42,439.456C2487.2,448.726 2476.91,476.539 2469.36,515.358C2457.07,578.6 2457.65,668.832 2466.45,775.199C2488.79,1045.45 2561.68,1417.62 2612.1,1725.92C2638.98,1890.33 2660.22,2036.71 2662.36,2141.56C2664.13,2228.31 2649.53,2289.86 2625.15,2318.88C2603.26,2344.95 2577.05,2345.88 2551.05,2333.69C2526.78,2322.31 2501.78,2285.53 2495.7,2272.27C2478.76,2234.02 2464.82,2194.53 2452.86,2154.23C2425.69,2062.67 2407.5,1967.21 2384.03,1873.59C2369.08,1814 2352.65,1754.98 2327.44,1698.77C2326.16,1695.9 2317.56,1680.22 2311.37,1664.73C2308.7,1658.07 2310.37,1646.73 2307.63,1645.08C2309.69,1644.87 2312.58,1644.68 2312.8,1645.73C2314.7,1654.84 2320.87,1638.84 2322.74,1645.6C2323.93,1649.89 2325.17,1640.76 2326.78,1644.64C2328.13,1647.9 2328.5,1645.15 2329.23,1643.03C2317.78,1645.29 2306.16,1638.73 2302.37,1627.38C2298.27,1615.06 2304.93,1601.72 2317.26,1597.61C2317.28,1591.73 2321.16,1601.23 2322.49,1595.36C2323.01,1593.04 2323.99,1597.07 2324.72,1594.75C2326.14,1590.27 2327.05,1598.46 2329.32,1593.99C2331.64,1589.42 2331.12,1598.3 2334.49,1593.75C2336.2,1591.44 2334.83,1595.56 2337.35,1593.81C2338.67,1592.89 2339.08,1595.22 2340.83,1594.93C2345.54,1594.13 2347.8,1598.97 2355.09,1602.53C2362.58,1606.19 2370.51,1616.38 2378.63,1627.47C2389.65,1642.55 2397.07,1661.41 2398.68,1664.54C2427.31,1720.32 2449.12,1778.77 2466.62,1838.78C2503.72,1966 2522.7,2099.22 2573.46,2219.4ZM2909.17,1222.78C2909.65,1222.6 2910.15,1222.47 2910.66,1222.38C2909.95,1221.89 2909.28,1220.93 2909.22,1222.35C2909.21,1222.51 2909.2,1222.65 2909.17,1222.78ZM2911.8,1222.26C2912.26,1222.25 2912.72,1222.27 2913.18,1222.34C2912.72,1221.53 2912.47,1220.65 2911.97,1221.92C2911.92,1222.06 2911.86,1222.17 2911.8,1222.26ZM2915.04,1222.82C2915.31,1222.93 2915.58,1223.05 2915.83,1223.18C2915.78,1222.61 2915.77,1222.09 2915.23,1222.65C2915.16,1222.71 2915.1,1222.77 2915.04,1222.82ZM2586.17,2249.03C2588.32,2252.81 2590.7,2255.15 2592.81,2252.5C2595.15,2249.57 2591.07,2248.94 2586.17,2249.03Z" style="fill:#fff;"/>
            <path d="M1869.64,633.454C1817.67,674.297 1813.52,737.324 1825.22,804.305C1845.74,921.804 1915.1,1051.76 1931.83,1130.6C1944.87,1192.21 1956.1,1254.21 1966.16,1316.45C2005.97,1562.49 2027.8,1812.35 2076.28,2056.91C2096.98,2161.97 2121.28,2266.29 2141.33,2371.42C2150.01,2416.94 2157.89,2462.6 2164.36,2508.54C2174.28,2581.58 2186.89,2667.36 2170.41,2704.01C2154.12,2740.23 2109.7,2761.21 2024.64,2687.59C1971.17,2641.14 1920.72,2590.67 1873.2,2537.53C1835.39,2495.24 1797.87,2452.47 1765.22,2406.48C1756.98,2394.87 1749.7,2382.8 1742.09,2370.83C1735.95,2362.75 1737.52,2351.2 1745.61,2345.06C1753.69,2338.92 1765.24,2340.49 1771.38,2348.57C1780.72,2358.95 1790.44,2368.82 1799.64,2379.38C1835.88,2421.01 1870.96,2464.08 1909.23,2504.29C1956.86,2554.33 2007.22,2601.71 2060.41,2645.09C2089.06,2668.5 2120.22,2692.75 2119.64,2680C2119.57,2678.37 2117.02,2682.74 2115.85,2681.84C2112.52,2679.27 2118.61,2673.15 2119.24,2666.96C2120.59,2653.82 2119.66,2637.77 2117.96,2620.24C2114.84,2587.91 2108.59,2551.07 2103.61,2517.22C2097.1,2472.29 2089.2,2427.64 2080.54,2383.13C2060.11,2278.2 2035.42,2174.1 2014.33,2069.24C1965.28,1824.04 1942.8,1573.51 1902.52,1326.79C1892.53,1265.59 1881.45,1204.62 1868.55,1144.04C1848.65,1050.43 1757.11,885.778 1755.09,753.236C1754.01,682.443 1776.16,619.931 1837.76,576.233C1852.6,565.705 1869.32,564.089 1886.36,569.415C1906.84,575.817 1928.57,596.06 1939.27,607.569C2014.55,688.517 2067.57,786.325 2110.19,890.561C2146.72,979.924 2176.62,1073.7 2205.12,1165.7C2224.32,1227.64 2242.44,1288.85 2264.24,1346.55C2267.26,1356.65 2269.8,1366.78 2271.95,1375.46C2272.88,1379.22 2265.95,1382.01 2268.67,1384.47C2271.56,1387.07 2270.89,1390.97 2275.98,1393.04C2280.4,1392.11 2284.75,1394.93 2285.69,1399.36C2286.63,1403.78 2283.8,1408.13 2279.38,1409.07C2261.31,1425.31 2249.19,1417.76 2235.16,1408.94C2223.74,1401.77 2219.59,1383.18 2211.13,1367.89C2189.28,1316.97 2169.07,1263.57 2150.52,1208.6C2109.49,1087.01 2073.74,958.946 2018.28,843.687C1984.59,773.666 1944.11,708.235 1891.68,651.81C1887.63,647.453 1875.16,637.703 1869.64,633.454Z" style="fill:#fff;"/>
            <path d="M1012.12,1760.22C1048.59,1786.02 1050.79,1922.84 1060,1943.16C1091.59,2012.89 1130.53,2078.52 1173.62,2141.54C1239.15,2237.38 1314.31,2327.16 1388.68,2415.64C1413.33,2444.97 1436.8,2475.64 1459.66,2506.97C1511.56,2578.1 1560.28,2652.65 1612.97,2722.11C1726.54,2872.3 1845.51,3013.89 1942.78,3169.61C1988.93,3243.48 2031.87,3319.83 2064,3402.58C2077.51,3437.38 2087.94,3473.39 2097.8,3510.28C2101.37,3520.69 2095.82,3532.04 2085.42,3535.61C2075.01,3539.18 2063.66,3533.64 2060.09,3523.23C2045.72,3489.27 2029.22,3457.14 2013.36,3424.76C1975.67,3347.8 1935.07,3274.19 1889.32,3203.64C1790.36,3051.04 1674.23,2909.75 1561.34,2761.25C1508.44,2691.46 1459.5,2616.57 1407.38,2545.1C1385.41,2514.97 1362.86,2485.45 1339.16,2457.23C1263.48,2367.08 1187.02,2275.56 1120.41,2177.86C1075.31,2111.69 1034.72,2042.69 1001.74,1969.48C991.888,1947.6 946.355,1840.48 939.899,1778.29C935.443,1735.37 952.559,1708.63 976.448,1702.2C1042.41,1684.44 1124.64,1715.21 1208.8,1772.54C1295.95,1831.9 1387.86,1917.27 1464.9,1992.59C1485.79,2013.01 1505.68,2032.52 1523.59,2051.03C1542.03,2070.09 1559.59,2086.53 1573,2102.83C1579.02,2110.14 1583.96,2116.26 1587.08,2123.89C1588.67,2127.8 1587.62,2128.55 1588.29,2132.53C1591.99,2135.14 1592.87,2140.25 1590.26,2143.94C1587.65,2147.64 1582.54,2148.52 1578.85,2145.91C1574.74,2146.64 1574.28,2147.61 1569.93,2147.25C1561.14,2146.51 1553.55,2142.38 1544.6,2137.65C1525.16,2127.37 1505.97,2110.86 1484.61,2093.32C1464.49,2076.81 1443.75,2057.74 1422.04,2037.73C1345.2,1966.92 1258.06,1882 1173.41,1824.6C1115.23,1785.14 1059.83,1756.89 1012.12,1760.22Z" style="fill:#fff;"/>
            <path d="M2102.14,3643.14C2103.04,3638.71 2107.36,3635.84 2111.79,3636.74C2116.22,3637.63 2119.09,3641.96 2118.2,3646.39C2119.19,3650.81 2120.83,3653.87 2121.65,3658.38C2123.23,3667.12 2124.54,3675.48 2125.7,3684.57C2128.02,3702.76 2130.24,3721.55 2134.31,3740.51C2145.11,3790.82 2162.28,3842.04 2171.01,3886.54C2190.84,4004.03 2202.08,4123.53 2219.58,4241.7C2226.98,4291.63 2235.41,4341.35 2246.35,4390.53C2268.57,4491.17 2308.8,4590.46 2335.46,4691.47C2347.45,4736.89 2356.64,4782.66 2360.89,4828.91C2364.97,4875.03 2362.33,4922.17 2355.74,4969.61C2347.1,5031.94 2333.07,5095.11 2317.66,5156.59C2307.36,5197.69 2295.86,5237.68 2288.31,5277.2C2286.86,5287.8 2277.07,5295.23 2266.47,5293.78C2255.86,5292.33 2248.43,5282.54 2249.89,5271.94C2253.34,5230.74 2258.95,5188.35 2266.85,5145.55C2278.06,5084.75 2292.94,5023.38 2300.23,4962.44C2305.41,4919.22 2307.36,4876.36 2302.96,4834.51C2298.58,4791.49 2289.28,4749.03 2277.92,4706.8C2250.58,4605.09 2210.76,4504.78 2188.43,4403.3C2177.37,4352.65 2168.7,4301.51 2161.47,4250.08C2144.91,4132.1 2135.45,4012.74 2116.98,3895.35C2110.33,3842.87 2091.57,3780.67 2087.55,3721.89C2086.63,3708.29 2085.03,3694.74 2087.36,3681.85C2089.99,3667.37 2095.58,3655.66 2102.14,3643.14Z" style="fill:#fff;"/>
            <path d="M2541.88,3373.86C2543.09,3379.6 2539.91,3385.51 2534.23,3387.55C2511.88,3406.92 2501.57,3387.23 2496.49,3379.61C2492.89,3374.22 2494.5,3365.43 2498,3352.73C2500.63,3343.2 2509.09,3332.99 2514.48,3324.79C2534.48,3297.01 2559.44,3269.44 2589.32,3243.98C2628.55,3210.55 2675.64,3181.02 2724.64,3155.27C2756.58,3138.49 2789.35,3122.83 2822.51,3111.33C2877.93,3092.11 2932.82,3082.3 2980.51,3077.41C2994.84,3074.8 3008.59,3084.32 3011.19,3098.64C3013.8,3112.97 3004.28,3126.72 2989.95,3129.32C2947.09,3140.6 2900.26,3161.37 2850.52,3182.95C2805.76,3202.36 2759.02,3222.67 2715.58,3246.89C2686.04,3263.37 2657.91,3281.06 2631.78,3299.12C2603.31,3318.79 2576.91,3337.98 2555.81,3359.55C2551.48,3363.67 2546.46,3369.18 2541.88,3373.86Z" style="fill:#fff;"/>
            <path d="M2573.91,3457.37C2578.09,3455.64 2582.88,3457.64 2584.6,3461.81C2586.33,3465.99 2584.34,3470.78 2580.16,3472.51C2575.94,3474.3 2571.55,3475.78 2568.57,3478.87C2564.18,3483.44 2565.43,3489.42 2562.15,3494.69C2555.79,3504.91 2547.26,3513.92 2541.09,3525.28C2537,3533.01 2527.4,3535.97 2519.67,3531.87C2511.94,3527.78 2508.98,3518.18 2513.08,3510.45C2519.32,3497.73 2524.28,3484.04 2534.5,3475.64C2541.97,3469.51 2550.23,3468.8 2559.28,3464.98C2564.21,3462.9 2568.6,3459.49 2573.91,3457.37Z" style="fill:#fff;"/>
            <path d="M3152.01,3957.54C3149.32,3961.5 3146.26,3964.72 3143.76,3967.94C3141.94,3970.3 3140.53,3971.8 3138.74,3973.04C3132.91,3977.06 3128.59,3970.43 3130.28,3973.47C3130.66,3974.17 3130.39,3974.3 3129.95,3974.13C3129.97,3976.53 3128.94,3978.92 3126.94,3980.55C3120.57,3988.3 3116.97,3980.62 3112.47,3978.2C3109.03,3976.36 3114.45,3976.35 3106.89,3969.42C3104.01,3966.78 3104.42,3967.52 3102.37,3962.1C3101.51,3959.81 3102.44,3957.25 3102.54,3954.12C3102.73,3947.93 3102.61,3940.98 3104.76,3933.5C3110.47,3913.72 3124.22,3894.9 3127.08,3890.82C3142.8,3869.22 3157.7,3868.4 3163.38,3870.37C3170.44,3872.82 3179.64,3877.35 3181.39,3890.07C3182.73,3899.85 3178.59,3924.84 3166.38,3947.12C3163.76,3953.15 3158.13,3956.95 3152.01,3957.54ZM3140.9,3907.55C3141.6,3902.43 3141.26,3899.11 3139.01,3899.85C3134.51,3901.32 3136.85,3904.6 3140.9,3907.55Z" style="fill:#fff;"/>
        </g>
    </g>
</svg>
