<?xml version="1.0" encoding="UTF-8" standalone="no"?>
<!DOCTYPE svg PUBLIC "-//W3C//DTD SVG 1.1//EN" "http://www.w3.org/Graphics/SVG/1.1/DTD/svg11.dtd">
<svg width="100%" height="100%" viewBox="0 0 2363 2363" version="1.1" xmlns="http://www.w3.org/2000/svg" xmlns:xlink="http://www.w3.org/1999/xlink" xml:space="preserve" xmlns:serif="http://www.serif.com/" style="fill-rule:evenodd;clip-rule:evenodd;stroke-linejoin:round;stroke-miterlimit:2;">
    <g id="Layer1">
        <g id="_2" serif:id="2">
            <path d="M129.409,1550.54C136.141,1548.18 144.608,1547.97 149.988,1549.08C151.416,1549.36 152.8,1549.74 154.139,1550.21C154.197,1550.21 154.255,1550.21 154.313,1550.21C154.539,1550.21 154.766,1550.2 154.993,1550.2C157.519,1550.2 166.396,1550.18 169.992,1550.17L214.367,1550.08C213.788,1543.13 215.685,1536.79 216.668,1535.81C218.68,1533.78 227.07,1528.86 240.746,1529.49C258.956,1530.32 297.486,1536.13 317.893,1538.86L409.108,1540.03L447.581,1542.16C449.953,1542.85 453.739,1544.82 457.024,1546.84C480.923,1547.87 504.846,1548.74 528.765,1549.39C572.983,1550.59 617.173,1551.02 661.165,1550.24C669.99,1550.08 685.142,1548.07 702.25,1545.93C709.776,1541.49 718.272,1539.4 727.246,1538.97C733.855,1538.65 740.774,1539.71 747.491,1541.24C749.535,1541.11 751.554,1540.99 753.541,1540.9C773.506,1539.97 790.67,1541.58 799.96,1546.34C811.297,1552.15 809.205,1560.08 805.829,1565.74C805.073,1567.01 799.836,1570.91 797.273,1572.16C796.706,1572.44 796.09,1572.68 795.428,1572.87L796.205,1579.74C796.944,1581.68 797.254,1583.59 797.247,1585.31C797.244,1586.14 797.196,1586.93 797.104,1587.69L800.275,1615.74L808.129,1755.83C808.679,1776.9 809.019,1798.07 809.106,1819.27C809.533,1820.6 809.826,1821.81 809.928,1822.82L812.759,1873.85L807.561,1977.5C806.972,1990.3 805.282,2003.18 803.471,2013.96C804.616,2040.03 805.602,2062.24 805.581,2075.57L805.44,2167.74L803.94,2197.72C803.275,2202.99 798.611,2212.47 795.061,2216.54L796.503,2216.65C801.533,2216.74 811.828,2221.15 815.716,2224.03C837.099,2239.87 808.252,2261.67 804.518,2261.6C799.955,2261.53 794.24,2260.58 787.683,2258.74C785.958,2258.26 784.142,2257.7 782.249,2257.07L748.24,2255.44C727.767,2251.71 712.212,2248.04 695.327,2247.41C685.563,2247.05 675.332,2247.91 663.142,2250.42C635.679,2255.57 524.844,2253.39 434.86,2243.92C436.921,2248.13 437.603,2253.05 436.482,2257.96C433.95,2269.05 423.121,2276.17 411.931,2274.11L390.968,2269.95L302.902,2253.05C288.645,2250.83 202.359,2246.88 168.388,2239.86C163.951,2238.94 160.065,2237.65 156.693,2236.14C156.289,2238.4 155.839,2240.54 155.337,2242.56C153.082,2251.62 147.046,2253.94 143.507,2254.95C140.657,2255.77 137.508,2255.99 134.258,2255.02C125.185,2261.35 111.309,2252.16 108.56,2243.88C105.326,2234.14 103.957,2222.28 103.897,2209.58C103.784,2185.99 108.151,2159.07 109.17,2140.14C109.218,2139.25 109.306,2130.18 109.722,2121.43C107.707,2120.57 106.037,2119.36 104.607,2118.02C102.125,2115.68 100.309,2112.51 99.556,2108.41C98.886,2104.76 101.352,2097.22 101.309,2092.93L100.687,2076.51C95.038,2072.85 89.93,2066.59 86.398,2056.23C82.174,2043.81 79.709,2020.43 79.061,1993.24C77.91,1944.94 81.494,1883.62 81.596,1857.82L87.515,1761.56L95.762,1714.54C96.503,1710.2 100.352,1702.51 103.438,1699.8C103.949,1699.36 104.461,1698.93 104.975,1698.54C104.974,1691.86 104.995,1685.17 105.045,1678.55C103.774,1677.12 102.6,1675.64 101.699,1674.01C99.771,1670.5 98.27,1666.75 97.482,1662.6C95.837,1653.92 97.028,1645.06 100.619,1636.25C102.147,1632.5 104.162,1628.72 106.409,1624.95C107.234,1609.42 108.501,1595.55 110.22,1584.46C68.469,1581.73 53.889,1574.84 58.625,1567.94C53.225,1560.09 72.938,1552.23 129.409,1550.54ZM795.998,2257.73C796.19,2257.75 796.361,2257.76 796.503,2257.76L795.998,2257.73ZM201.144,2179.11C197.219,2177.3 194.01,2175.07 191.191,2172.55C189.544,2171.08 188.087,2169.43 186.712,2167.61C185.961,2171.3 185.065,2175.53 184.113,2179.72C189.428,2179.37 195.167,2179.17 201.144,2179.11ZM370.046,2152.92C370.767,2152.67 371.518,2152.43 372.3,2152.22C377.324,2150.83 391.662,2150.71 391.742,2150.7C415.744,2150.74 439.798,2150.68 463.872,2150.77C469.97,2149.61 476.483,2149.68 483.279,2150.89C493.83,2150.97 504.384,2151.1 514.937,2151.29C536.516,2151.68 558.087,2152.34 579.631,2153.25C582.439,2150.83 585.97,2149.2 589.893,2148.74L609.409,2145.67C632.437,2139.04 655.601,2128.76 679.537,2124.21C691.186,2121.99 702.997,2120.99 715.038,2122.05C719.606,2122.45 723.822,2123.07 727.705,2123.89L728.329,2116.91L729.938,2099.05L730.632,2044.84C730.617,2035.72 730.983,2018.66 731.466,2011.2C731.724,2007.22 732.87,2004.18 734.567,2001.9C733.186,1996.93 731.857,1988.79 731.865,1984.73L731.947,1953L733.225,1913.74C733.426,1851.01 735.283,1788.27 730.773,1725.74C729.933,1714.11 725.948,1667.26 725.501,1625.77C720.302,1625.5 714.754,1625.18 709.32,1624.88L599.802,1622.22C565.327,1624.44 528.653,1627.41 492.745,1627.31C466.379,1627.24 440.416,1625.53 415.927,1620.86C409.024,1622.45 398.77,1623.3 386.244,1623.31C384.065,1624.73 381.689,1625.66 379.133,1626.18C376.193,1626.77 372.22,1625.77 369.033,1625.77L342.062,1624.34C341.395,1625.16 340.637,1626.01 339.781,1626.86C336.367,1630.26 321.726,1634.68 301.317,1632.89C276.112,1630.67 238.45,1624.14 216.287,1619.93L186.488,1616.41L185.341,1616.35C185.593,1623.26 185.817,1630.85 186.051,1638.83C187.293,1642.01 187.918,1646.6 188.432,1649.7C190.903,1664.59 192.287,1679.86 193.031,1695.31C194.69,1729.78 193.115,1765.12 193.874,1798.71C194.943,1845.98 196.454,1944.18 195.976,2003.04C196.354,2005.1 196.469,2007.75 195.9,2010.68C195.835,2016.09 195.75,2021.08 195.643,2025.57C195.554,2029.3 195.444,2032.71 195.317,2035.75C199.199,2046.86 200.626,2060.14 198.001,2071.68C195.573,2082.36 191.133,2090.78 185.174,2095.99C185.731,2100.95 186.236,2105.97 186.683,2110.91C188.896,2113.22 191.155,2115.59 193.371,2118.12C203.857,2130.09 206.536,2140.6 213.733,2146.76C216.26,2148.92 219.979,2149.07 226.098,2149C238.278,2148.87 244.1,2142.32 254.068,2139.69C259.697,2138.2 266.116,2137.38 274.045,2137.82L370.046,2152.92ZM685.226,2159.9C687.127,2160.14 689.022,2160.41 690.91,2160.7C702.251,2162.44 713.33,2165.03 723.672,2169.02L724.576,2158.91C721.268,2157.91 717.146,2157.64 712.324,2157.32C703.088,2156.72 694.086,2157.87 685.226,2159.9ZM149.148,1711.6C149.146,1711.61 149.144,1711.61 149.143,1711.62C149.393,1712.12 149.651,1712.61 149.915,1713.09C149.922,1712.75 149.439,1712.08 149.148,1711.6ZM145.887,2015.22C146.029,2015.07 146.17,2014.93 146.312,2014.79C146.17,2014.22 146.044,2013.64 145.937,2013.04L145.887,2015.22Z" style="fill:#fff;"/>
            <path d="M321.985,1756.62C319.73,1752.05 319.785,1740.82 321.243,1738.51C321.927,1737.43 323.937,1735.71 328.496,1733.72C333.655,1732.12 339.096,1734.34 341.759,1738.78C344.108,1741.18 346.666,1744.64 348.479,1747.75C351.612,1751.47 353.903,1754.16 356.036,1758.65C356.613,1759.87 357.081,1761.12 357.471,1762.4C358.064,1758.71 358.68,1755.36 359.318,1752.47C362.826,1736.57 371.397,1728.48 375.941,1726.03C390.941,1717.66 420.414,1714.74 452.58,1718.02C488.645,1721.71 528.183,1732.51 548.044,1736.21L575.333,1739.21C580.655,1734.97 590.984,1730.99 598.798,1730.63C606.279,1730.29 618.576,1733.4 621.817,1750.88C622.137,1752.61 622.159,1756.53 621.581,1761.95C620.354,1773.46 614.665,1802.59 614.619,1803.82L613.429,1893.89C613.365,1907.13 620.694,1964.33 620.884,1989.07C620.967,1999.9 618.863,2007.61 617.162,2011.28C614.383,2017.27 608.532,2023.05 602.097,2026.58C595.508,2030.19 588.147,2030.78 581.53,2029.66C564.61,2026.78 548.284,2024.51 531.748,2023.52C516.306,2022.6 500.715,2023.05 484.224,2025.22C478.556,2025.96 461.973,2032.59 442.469,2038.2C415.683,2045.89 384.628,2052.8 366.962,2055C346.09,2057.6 332.788,2050.62 328.799,2046.34C324.86,2042.1 321.222,2036.78 319.879,2029.61C318.625,2022.91 321.263,2003.29 321.745,1999.83C315.834,1978.5 313.036,1957.27 312.282,1935.87C311.169,1904.31 314.137,1872.54 315.924,1839.94C317.872,1815.56 317.518,1787.88 319.908,1762.75C320.142,1760.28 321.157,1758.6 321.985,1756.62ZM554.521,1785.7C554.912,1786.84 555.272,1788.04 555.594,1789.32C556.427,1792.62 557.373,1798.03 558.243,1804.99C559.639,1806.41 561.295,1808.38 562.862,1810.92C563.309,1807.16 563.786,1803.39 564.276,1799.62C564.337,1799.15 565.787,1793.4 567.634,1786.17C563.131,1786.13 558.625,1785.95 554.521,1785.7ZM560.911,1901.56C559.944,1928.84 557.738,1954.41 554.383,1969.66C558.971,1970.41 563.559,1971.23 568.16,1972.12L560.911,1901.56ZM338.3,1929.13C338.475,1928.22 338.674,1927.29 338.887,1926.34C338.092,1927.42 337.827,1928.38 338.3,1929.13ZM338.421,1754.17C337.491,1754.81 336.451,1755.32 335.318,1755.67C336.739,1755.39 337.724,1754.84 338.421,1754.17ZM376.244,1987.76C375.943,1987.77 375.646,1987.8 375.352,1987.82C375.484,1988.35 375.599,1988.94 375.7,1989.6C375.891,1989.03 376.071,1988.41 376.244,1987.76Z" style="fill:#fff;"/>
            <path d="M128.529,107.134C128.761,106.894 128.996,106.654 129.236,106.414C136.947,98.712 164.265,91.584 201.86,90.452C267.622,88.472 369.942,95.778 419.775,98.354C431.747,96.178 446.985,94.165 462.269,92.842C481.758,91.155 501.312,90.598 514.608,91.872C522.138,92.594 529.578,94.165 536.923,96.372C539.228,97.065 541.519,97.842 543.8,98.679C545.168,98.397 546.562,98.125 547.978,97.863C600.537,88.152 692.743,87.597 722.452,91.201C726.836,91.91 747.736,92.764 763.784,96.939C767.368,66.049 774.179,57.175 780.986,64.388C787.415,57.576 793.847,65.111 797.561,91.988C802.578,93.105 806.865,95.8 809.188,98.098C814.179,102.994 820.666,128.831 821.405,165.107C822.506,219.153 819.461,301.096 817.374,346.56C817.596,347.586 817.82,348.615 818.045,349.645C826.855,389.801 831.878,431.912 833.919,474.212C834.926,495.076 835.879,516 834.784,536.701C833.672,557.726 830.526,578.329 827.542,598.62L820.594,699.366C819.25,709.565 816.863,759.264 814.317,779.803C813.057,789.974 809.403,796.161 807.657,798.082C805.638,800.304 801.496,802.802 795.241,803.998C787.956,805.391 770.536,804.301 766.415,804.498L637.923,811.819L552.526,824.046C545.904,825.133 540.436,824.363 535.514,822.923C531.548,821.763 528.961,818.303 524.049,817.488L432.684,815.948C419.367,813.696 404.522,813.11 389.422,813.452C365.643,813.989 341.262,816.831 320.661,819.724C309.303,821.319 297.293,821.829 285.018,821.704C259.886,821.449 233.525,818.437 210.057,818.382C191.436,818.338 177.335,823.193 161.31,821.268C153.717,820.356 145.773,818.306 137.124,814.246C131.729,816.453 126.102,815.644 120.283,813.193C116.424,811.567 107.289,802.99 106.862,786.062C106.329,764.917 116.093,714.286 115.236,700.19C106.671,603.033 120.814,504.297 120.762,406.086C120.749,382.23 119.878,358.406 117.566,334.646L105.543,189.288C105.517,183.033 115.658,128.559 120.396,115.631C122.342,110.319 125.722,108.02 128.529,107.134ZM138.659,237.83C136.942,215.978 134.975,194.209 133.144,180.502C133.131,180.405 133.118,180.307 133.105,180.209C132.208,184.059 131.658,186.818 131.767,187.831L138.659,237.83ZM784.174,741.612L776.99,754.347C775.91,757.556 775.509,763.124 774.725,768.21C777.138,768.45 779.744,768.717 782.126,768.965C783.009,761.354 783.659,751.585 784.174,741.612ZM740.42,797.147C740.727,797.163 741.01,797.163 741.246,797.141L740.42,797.147ZM170.314,133.99C173.533,135.964 177.154,138.164 180.738,140.298C182.586,138.755 184.143,137.635 185.051,137.374C192.619,135.201 201.246,135.237 205.829,143.32C215.479,140.622 230.424,138.007 247.508,135.692C256.701,134.446 266.585,133.262 276.504,132.149C271.702,131.996 266.924,131.858 262.191,131.74C225.73,130.832 191.96,131.019 170.314,133.99ZM764.41,304.378C762.666,302.779 760.091,297.817 758.162,292.602C758.308,310.657 758.147,325.32 758.117,331.623L764.681,375.99L764.822,374.349C765.247,370.49 766.733,354.729 768.563,332.703C767.011,323.209 765.606,313.797 764.41,304.378ZM753.931,205.053C755.119,214.874 755.986,226.051 756.616,237.631L759.095,202.275C758.029,203.006 757.061,203.57 756.25,203.996C755.554,204.362 754.779,204.715 753.931,205.053ZM753.093,163.077C753.148,163.092 753.203,163.107 753.258,163.122C753.203,163.107 753.148,163.092 753.093,163.077ZM700.484,208.189C669.163,205.622 631.312,199.514 617.99,198.459C592.3,195.493 566.438,194.332 540.473,193.758C478.193,192.382 415.402,195.178 353.12,193.429C337.869,193.348 272.513,204.357 245.259,208.385C229.222,210.756 218.6,205.951 216.164,204.498C216.118,230.097 215.25,261.419 214.782,266.127C212.324,290.846 210.891,317.932 210.637,345.049C210.384,372.039 211.301,399.059 213.563,423.79C214.517,434.22 220.953,444.68 222.561,455.126C223.309,459.989 223.424,464.844 222.735,469.685C215.02,515.962 209.675,561.744 205.986,607.819C202.924,646.056 200.966,684.439 199.741,723.415C200.221,723.301 200.702,723.188 201.185,723.078C228.417,716.864 263.21,718.59 284.024,715.171C328.275,708.884 382.151,707.458 436.103,708.946C489.515,710.419 542.854,714.973 586.739,720.857C596.614,722.736 605.985,715.529 616.35,714.655C622.644,714.125 629.039,714.123 635.561,715.373C644.962,717.175 652.241,719.331 658.806,722.085C665.825,725.029 671.912,728.535 679.802,732.827L708.467,736.352C712.913,734.347 718.53,732.942 722.154,732.165C727.032,714.379 728.571,669.524 728.858,620.107C729.287,546.085 725.356,462.285 722.647,437.048C720.457,413.444 713.288,390.462 709.231,367.138C707.188,355.394 705.886,343.573 705.83,331.623C705.758,316.214 706.465,246.929 700.484,208.189Z" style="fill:#fff;"/>
            <path d="M519.707,319.736C535.309,316.178 550.642,312.003 565.049,307.727C578.632,303.695 585.93,305.077 591.55,308.622C594.139,310.255 597.067,312.522 599.843,316.482C603.973,319.334 608.398,324.013 610.922,329.227C611.092,329.544 612.769,337.947 612.674,351.676C612.876,353.729 612.827,355.805 612.523,357.855C610.997,401.1 606.642,506.049 606.595,507.125C605.389,538.183 613.7,573.666 614.61,589.818C615.977,614.061 600.439,624.172 592.882,627.015C583.535,630.501 570.696,632.042 555.979,630.644C525.258,627.726 483.037,610.658 460.418,609.826C452.139,609.549 392.526,615.707 368.214,616.95C363.706,617.181 359.675,616.914 356.158,616.372C350.61,626.092 340.495,628.329 337.224,628.309C327.74,628.129 321.214,624.027 317.162,616.57C315.234,613.023 314.559,605.79 313.902,601.326C310.818,580.482 308.769,559.918 307.618,539.269C306.478,518.8 306.164,498.272 306.542,477.336C306.767,465.486 310.05,413.127 314.484,375.436C308.835,373.871 302.952,371.352 298.48,368.054C289.09,361.13 285.357,351.896 285.545,346.194L285.533,343.545C285.533,340.455 286.252,337.409 287.633,334.645C291.366,326.651 312.174,316.129 343.691,314.306C399.723,311.063 496.623,318.662 508.909,319.334L519.707,319.736ZM322.082,591.785C315.107,595.297 309.944,599.301 317.553,600.36C320.767,600.807 321.939,597.035 322.082,591.785ZM350.534,377.865C350.988,376.887 351.447,375.936 351.902,375.034C351.484,375.045 351.066,375.057 350.648,375.071C350.612,375.993 350.574,376.925 350.534,377.865ZM604.637,324.733L605.743,326.518C605.431,325.839 605.058,325.249 604.637,324.733ZM389.64,376.219C389.649,376.237 389.657,376.254 389.666,376.271C391.428,379.78 393.006,386.607 394.048,395.809C395.092,391.429 396.068,387.445 396.816,384.588C397.623,381.507 398.768,379.005 400.169,376.996C396.659,376.728 393.15,376.464 389.64,376.219Z" style="fill:#fff;"/>
            <path d="M1541.07,124.033C1549.01,116.241 1557.41,115.589 1563.94,116.974C1566.51,117.519 1569.33,118.571 1572.14,120.343C1591.95,118.073 1617.7,115.224 1648.94,111.841L1655.75,110.073C1687.94,105.564 1842.64,102.653 1957.18,111.985C1959.02,112.136 1960.86,112.286 1962.69,112.436C1987.29,109.877 2011.79,106.683 2036.13,102.521C2045.32,100.946 2054.57,100.246 2063.87,100.087C2094.74,99.56 2126.16,106.399 2156.81,101.873L2183.98,97.521C2184.94,94.155 2196.94,91.493 2200.37,90.637C2212.05,87.725 2220.23,92.538 2225.39,97.54C2232.76,104.672 2236.76,115.334 2229.7,128.684C2228.94,130.114 2226.69,132.573 2224.33,134.954C2223.89,137.642 2223.2,141.656 2222.43,145.599C2226.81,147.982 2230.09,150.407 2232.26,152.65C2233.32,153.749 2242.74,164.049 2240.44,181.796C2239.25,190.989 2235.45,213.383 2235.47,217.014L2228.48,317.372C2228.66,318.223 2228.84,319.072 2229.01,319.919L2247.14,356.492C2253.8,374.769 2255,400.245 2252.71,428.439C2252.31,433.443 2251.79,438.551 2251.17,443.723C2252.39,461.406 2252.78,480.445 2252.37,499.43C2251.65,532.821 2248.16,565.991 2242.33,591.506C2240.46,599.697 2248.98,640.949 2251.51,675.988C2252.83,694.331 2252.92,711.324 2251.42,723.669L2242.44,763.389C2246.19,770.471 2247.39,777.717 2247.46,782.296C2247.7,798.289 2239.78,806.668 2233.84,811.867C2226.67,818.134 2217.71,821.346 2206.95,820.953C2204.83,820.876 2202.36,820.582 2199.65,819.908C2194.72,828.009 2160.97,819.802 2158.51,819.765L2101.01,824.413C2095.99,824.694 2087.49,824.632 2076.92,824.459C2071.94,825.591 2067.9,826.434 2066.73,826.616L1942.53,840.311C1933.95,840.448 1916.58,836.608 1909.83,832.457C1901.03,827.054 1896.82,819.532 1894.62,812.926C1893.69,810.146 1893.01,807.218 1892.75,804.179C1820.38,811.59 1730.92,819.427 1664.68,819.843C1619.78,820.125 1584.2,815.857 1566.5,807.572C1556.64,802.956 1547.22,792.315 1543.5,775.251C1540.63,762.133 1542.6,739.484 1542.39,731.59L1537.97,628.299C1539.13,580.682 1528.28,304.333 1529.26,190.607C1529.31,184.144 1529.49,178.107 1529.76,172.54C1522.53,171.124 1513.03,168.762 1510.46,165.765C1507.04,161.759 1504.45,156.594 1504.47,149.406C1504.47,148.54 1510.2,128.043 1536.75,124.584C1538.09,124.411 1539.52,124.227 1541.07,124.033ZM2220.33,138.837C2218.68,140.39 2217.49,141.463 2217.49,141.463C2217.49,141.463 2219.61,139.649 2219.86,139.393C2220,139.246 2220.16,139.058 2220.33,138.837ZM2145.25,714.386C2144.08,689.371 2142.62,665.721 2143.22,641.96C2143.95,612.549 2147.67,583.204 2153.19,551.346C2157.95,523.729 2171.33,479.349 2178.98,438.052C2181.29,425.603 2183.44,413.546 2184.26,402.744C2182.57,391.878 2180.39,379.557 2178.01,366.289L2163.74,329.449L2166.77,300.349C2163.01,275.629 2159.96,250.449 2158.95,227.091C2158.42,214.893 2158.46,203.139 2159.16,192.06C2118.61,187.785 2057.91,186.411 1996.85,185.684C1901.85,184.552 1805.99,185.254 1781.03,185.064C1748.48,184.824 1712.49,180.731 1678.04,180.903C1662.06,182.611 1647.01,184.102 1632.44,184.885C1632.1,184.957 1631.76,185.029 1631.41,185.102C1618.41,185.861 1607.02,187.415 1597.89,185.139C1597.66,185.128 1597.44,185.117 1597.21,185.105C1603.85,222.14 1608.92,265.072 1611.74,273.966C1620.03,299.695 1621.76,324.535 1620.75,349.126C1619.37,382.657 1611.84,415.584 1608.73,449.948C1607.98,458.488 1608.31,467.257 1608.78,476.206C1610.94,516.928 1621.12,560.515 1621.89,600.129C1621.95,609.401 1648.68,683.416 1635.74,706.914C1708.89,719.216 1887.65,723.356 1998.26,731.061C2035.32,726.138 2079.81,716.666 2121.27,714.607C2129.39,714.204 2137.4,714.12 2145.25,714.386Z" style="fill:#fff;"/>
            <path d="M1846.23,324.925C1872.1,321.549 1905.37,317.258 1933.59,316.888C1948.88,316.688 1962.84,317.929 1974.23,319.994C1986.85,320.47 1999.05,321.833 2010.58,324.444C2012.38,324.1 2014.13,323.948 2015.78,323.961L2023.29,324.019C2037.83,324.019 2049.62,335.809 2049.62,350.353C2049.56,358.934 2047.06,365.105 2043.3,369.641C2055.08,387.995 2042.52,450.012 2046.12,463.9C2048.01,471.224 2047.2,540.871 2044.08,568.815C2042.32,584.519 2035.95,593.632 2033.9,595.717C2030.91,598.754 2025.51,602.708 2017.09,604.113C2016.55,604.203 2015.91,604.27 2015.21,604.319C2014.68,604.629 2014.14,604.92 2013.61,605.191C2005.54,609.302 1995.28,611.677 1983.66,612.289C1966.73,613.18 1945.31,609.22 1928.03,607.464C1908.87,608.449 1887.9,609.511 1867.57,610.445L1859.9,611.094L1809.46,613.121C1802.6,615.805 1791.37,619.858 1787,619.49C1779.69,618.877 1773.63,616.039 1768.63,611.632C1767.57,611.459 1766.54,611.275 1765.54,611.081C1717.14,649.904 1711.99,632.762 1738.2,589.848C1737.32,586.527 1736.72,582.656 1736.64,578.23C1736.42,565.286 1739.81,535.534 1735.07,522.797C1734.49,521.04 1733.21,517.693 1731.81,513.682C1731.01,512.398 1730.27,511.092 1729.62,509.759C1726.2,502.825 1723.78,495.601 1722.96,487.962C1722.06,479.412 1721.98,471.206 1722.82,463.176C1725.15,440.946 1736.1,421.108 1732.17,396.933C1730.59,387.325 1727.47,364.932 1728.62,351.019C1729.66,338.407 1734.2,329.369 1738.82,325.05C1742.75,321.372 1751.43,316.146 1765.1,316.019C1784.12,315.842 1825.65,322.949 1846.23,324.925ZM1787.48,409.004C1791.55,400.9 1795.72,393.759 1799,389.675C1807.79,378.746 1817.18,376.428 1825.04,377.93C1825.63,377.399 1826.22,376.906 1826.82,376.452C1813.13,377.435 1796.73,378.46 1784.47,376.894C1784.36,380.871 1784.32,384.355 1784.81,386.406C1786.64,394.136 1787.32,401.647 1787.48,409.004ZM1803.86,613.347L1803.56,613.359C1803.65,613.358 1803.75,613.354 1803.86,613.347ZM1881.02,397.385C1881.47,397.237 1881.9,397.096 1882.32,396.96C1884.73,396.19 1887.04,395.635 1889.22,395.254C1903.93,381.833 1919.63,388.059 1922.62,390.927C1923.96,392.213 1925.23,393.971 1926.27,396.152C1929.81,393.807 1933.14,392.273 1936.26,391.399C1942.65,385.483 1948.87,383.832 1954.35,384.29C1955.42,383.513 1956.36,383.008 1957.11,382.878C1963.99,381.683 1972.25,381.779 1979.95,389.938C1980.87,390.912 1981.7,391.892 1982.46,392.879C1982.62,392.945 1982.77,393.012 1982.92,393.081C1982.79,390.144 1982.68,387.262 1982.62,384.46C1980.29,381.579 1977.23,379.103 1973.26,377.159L1867.5,376.098C1874.77,382.075 1879.34,389.202 1881.02,397.385ZM1980.63,532.087L1969.91,544.873C1968.76,546.02 1967.52,547.547 1966.21,549.245C1971.39,548.907 1976.16,548.601 1980.42,548.339C1980.47,543.697 1980.54,538.092 1980.63,532.087ZM1843.42,552.04C1843.24,551.897 1843.06,551.751 1842.88,551.603C1842.5,551.766 1842.12,551.926 1841.73,552.085L1843.42,552.04Z" style="fill:#fff;"/>
            <path d="M1102.76,249.967C1104.39,253.846 1105.29,258.104 1105.29,262.569C1105.29,280.603 1090.64,295.244 1072.61,295.244C1054.99,295.799 1038.14,285.536 1034.28,257.802C1032.28,243.462 1037.09,214.747 1041.95,190.307C1021.89,189.179 997.987,188.115 980.309,187.469C976.833,187.342 973.212,188.484 970.731,187.004C950.426,174.892 953.29,170.871 959.24,163.778C960.217,162.613 960.197,161.61 960.942,161.786C963.506,161.593 963.908,159.638 963.801,157.59C963.012,159.294 961.71,160.781 959.965,161.795C957.49,164.956 954.474,163.887 952.919,164.411C945.859,166.793 945.059,159.883 942.426,154.384C941.049,151.508 944.332,146.586 950.066,140.034C950.706,138.569 953.137,139.958 954.767,137.232C960.151,128.227 948.06,126.331 971.266,112.939C974.184,111.255 978.394,112.789 982.45,112.874C1012.02,113.49 1057.88,117.617 1078.4,120.111C1098.45,122.548 1109.19,131.031 1110.35,132.237C1112.35,134.325 1124.82,150.509 1118.17,175.62C1113.74,192.344 1116.39,242.899 1102.76,249.967ZM963.418,148.854C963.114,148.134 962.626,147.461 961.913,146.886C962.478,147.452 962.979,148.099 963.4,148.822C963.406,148.833 963.412,148.843 963.418,148.854Z" style="fill:#fff;"/>
            <path d="M1351.59,102.796C1348.62,97.082 1357.19,96.664 1351.59,102.796ZM1351.59,102.796C1352.72,104.972 1355.53,107.917 1361.43,111.561C1352.8,108.344 1365.01,120.012 1357.79,120.75C1354.57,121.078 1360.94,122.993 1357.81,123.606C1350.69,124.998 1366.42,125.621 1359.92,129.828C1355.87,132.457 1368.15,135.992 1363.75,132.472C1360.09,129.545 1368.8,134.526 1368.07,129.432C1366.67,119.733 1362.9,115.415 1370.33,111.983C1374.53,110.046 1379.41,111.432 1382.01,115.046C1384.31,108.177 1385.17,119.528 1392.93,119.954C1403.23,120.52 1386.92,124.07 1395.52,128.231C1399.91,130.355 1391.36,129.567 1395.05,133.022C1399.81,137.476 1388.37,133.625 1391.11,141.239C1389.87,137.793 1398.31,145.364 1396.09,141.786C1389.93,131.881 1430.05,140.515 1413.49,145.806C1411.5,146.445 1412.4,150.34 1412.09,153.293C1406.22,208.928 1422.82,341.658 1421.96,372.866C1421.96,392.825 1405.76,409.029 1385.8,409.029C1365.84,409.029 1349.64,392.825 1349.64,372.866C1348.76,340.615 1323.73,204.448 1327.8,146.777C1328.79,132.635 1327.89,117.968 1334.99,114.157C1344.34,109.14 1349.23,105.384 1351.59,102.796ZM1380.61,127.698C1379.93,128.299 1379.16,128.813 1378.29,129.213C1379.37,128.716 1380.11,128.219 1380.61,127.698Z" style="fill:#fff;"/>
            <path d="M1186.4,299.331C1193.6,299.142 1199.86,298.922 1204.7,299.541C1215.07,300.868 1221.57,306.191 1225.65,310.922C1231.86,318.137 1236.69,331.924 1222.14,353.4C1222.06,358.023 1221.45,362.557 1220.45,366.695C1227.85,372.875 1229.6,381.73 1226.71,392.475C1225.16,398.254 1218.45,408.491 1208.71,415.569C1199.07,422.584 1187.16,428.028 1181.66,425.965C1171.09,421.998 1162.66,423.762 1162.73,414.866C1162.75,412.243 1159.11,411.772 1159.9,409.011C1160.41,407.249 1159.27,405.759 1158.62,404.19C1157.19,404.326 1155.76,404.407 1154.31,404.433L1142.4,403.16C1137.5,401.524 1128.44,396.312 1124.18,383.202C1120.2,370.987 1118.25,341.969 1125.24,322.866C1134.45,297.71 1152.72,282.465 1185.79,299.021C1185.99,299.124 1186.2,299.227 1186.4,299.331ZM1199.71,391.973C1200.25,393.259 1200.66,394.608 1200.93,396.007C1201.35,394.531 1201.88,393.261 1200.58,392.523C1200.27,392.349 1199.98,392.166 1199.71,391.973Z" style="fill:#fff;"/>
            <path d="M929.535,376.768C931.257,357.17 934.465,336.295 940.579,320.539C952.249,290.462 972.511,274.537 1002.32,282.283C1032.41,287.419 1043.61,306.619 1047.98,328.81C1053.99,359.281 1032.89,406.149 1027.61,427.312C1025.06,435.339 1020.06,465.002 1016.25,494.323C1049.22,493.578 1124.93,491.306 1184,494.19C1196.58,494.804 1208.49,495.773 1219.32,496.99C1222.56,486.197 1226.03,475.451 1229.72,464.944C1233.58,453.953 1236.53,443.95 1242.53,434.75C1244.07,432.381 1244.95,433.281 1247.04,431.419C1255.24,425.756 1248.82,421.679 1253.21,421.241C1259.31,420.631 1252.23,416.209 1256.72,417.471C1263.19,419.295 1256.71,410.946 1261.28,413.906C1265.35,416.543 1262.27,408.808 1265.3,412.045C1265.32,412.071 1265.35,412.097 1265.37,412.123C1268.49,407.335 1272.21,402.797 1276.72,398.598C1284.35,390.164 1293.46,389.797 1301.93,391.228C1307.04,392.09 1314.47,395.423 1320.35,405.357C1321.35,407.045 1322.97,411.495 1324.35,418.042C1327.04,430.763 1330.88,463.568 1331.04,466.823C1332.45,493.013 1332.17,516.176 1328.95,539.616C1326.78,555.414 1322.88,571.183 1317.77,588.032L1314.37,604.572C1313.31,616.576 1305.9,627.091 1294.95,632.119C1289.82,634.473 1284.29,635.455 1278.85,635.113C1262.08,648.494 1248.13,648.372 1238.64,645.369C1231.23,643.026 1223.71,640.453 1218.07,634.254C1217.05,633.134 1215.95,631.965 1214.85,630.715C1212.24,629.2 1209.59,627.114 1207.63,625.626L1161.03,623.945C1130.84,621.865 1016.79,622.631 961.65,621.144C953.291,620.919 947.383,618.051 942.451,618.3C932.499,621.617 921.727,616.231 918.41,606.279C915.092,596.327 920.479,585.555 930.43,582.238C933.825,579.987 937.974,577.518 943.022,575.147C942.128,573.016 941.179,569.369 940.443,564.486C938.416,563.752 936.435,562.902 934.504,561.93C925.665,557.367 910.836,541.55 910.581,511.999C910.315,481.128 920.104,422.511 929.535,376.768ZM1296.46,431.993C1296.31,431.82 1296.09,431.629 1295.79,431.419C1296.03,431.633 1296.25,431.823 1296.46,431.993ZM1298.25,564.467C1298.2,565.659 1298.15,566.848 1298.12,568.032C1298.27,567.1 1299.6,564.556 1298.25,564.467Z" style="fill:#fff;"/>
            <path d="M115.545,975.899C114.741,975.776 113.94,975.548 113.16,975.207C100.125,971.111 97.21,963.776 95.372,960.917C90.699,953.651 92.552,948.746 109.636,936.806C117.169,931.542 133.09,930.614 149.224,929.393C173.461,927.56 199.792,930.196 201.105,930.076L385.409,909.835L457.49,914.112C458.516,914.195 459.835,914.652 461.31,915.294C462.943,914.749 464.529,914.279 466.022,913.918C475.252,911.682 483.245,912.787 488.55,914.486C503.327,919.219 511.871,929.645 512.107,947.198C512.268,959.152 507.336,967.072 501.468,972.947C499.837,974.58 498.019,976.078 496.008,977.395C496.49,979.727 496.9,982.241 497.211,984.937C499.825,1007.58 500.065,1056.59 497.771,1100.92C497.473,1106.68 497.487,1112.39 496.639,1117.86C496.43,1119.21 496.212,1120.55 495.987,1121.88C496.252,1122.01 496.509,1122.13 496.757,1122.25C501.718,1123.01 506.449,1123.74 507.066,1123.87C520.774,1126.59 534.589,1128.02 548.447,1128.92C566.761,1130.11 585.149,1130.34 603.512,1130.75C606.678,1115.55 610.887,1099.59 613.206,1084.07C614.246,1077.11 614.987,1070.28 614.607,1063.73C613.178,1060.78 611.377,1056.91 610.579,1054.85C604.353,1038.8 614.59,1027.86 616.458,1025.91C626.237,1015.72 636.452,1016.27 644.786,1018.69C650.189,1020.25 655.977,1023.99 660.591,1030.98C661.956,1033.05 663.265,1036.43 664.403,1040.19C666.053,1036.22 667.545,1033.57 668.724,1032.49C669.819,1031.38 682.058,1023.23 690.432,1023.02C697.945,1022.84 704.382,1025.77 709.863,1030.93C724.146,1044.39 724.669,1056.67 723.787,1064.61C722.925,1072.36 715.199,1079.76 707.226,1085.44C706.307,1098.22 705.766,1113.96 705.352,1130.69C716.983,1130.4 728.632,1130.49 740.293,1130.87C744.91,1131.04 775.34,1137.74 780.721,1138.93C800.718,1139.76 806.159,1158.14 807.178,1172.92C810.044,1174.81 812.406,1177.01 814.232,1179.37C828.769,1198.14 830.471,1213.68 819.056,1226.97C815.889,1230.65 810.311,1242.44 794.187,1243.36C792.86,1243.43 790.099,1244.16 786.247,1243.92C786.231,1243.6 786.195,1243.26 786.14,1242.88C785.147,1236.24 777.432,1236.68 768.313,1239.11C769.529,1240.04 770.809,1240.98 772.104,1241.88C769.327,1241.43 766.457,1240.94 763.721,1240.46C752.908,1243.85 741.402,1248.76 737.202,1247.53C731.21,1246.23 719.778,1243.83 708.413,1240.55C707.816,1246.32 706.42,1251.83 704.752,1257.4C706.201,1263.15 707.551,1269.51 707.629,1273.53C707.87,1285.99 703.584,1295.84 696.675,1302.59C694.268,1304.99 691.506,1306.96 688.512,1308.44C688.503,1312.12 688.248,1315.47 687.536,1317.74C684.334,1327.94 678.021,1334.16 671.16,1337.39C660.908,1342.21 651.224,1342.14 642.13,1337.24C636.977,1334.46 630.93,1329.64 626.727,1321.76C622.216,1313.3 618.812,1298.45 618.1,1295.28C613.659,1275.49 612.484,1259.35 613.328,1245.44C614.092,1232.84 616.946,1222.54 620.209,1212.97C596.818,1214.78 574.029,1215.79 560.221,1214.4C554.813,1213.86 550.086,1212.74 545.998,1211.26L490.56,1214.12C486.436,1217.09 478.711,1222.52 474.475,1224.7C466.283,1228.91 458.645,1230.27 452.814,1229.68C447.567,1229.15 442.685,1227.81 438.389,1225.32C431.796,1224.16 423.709,1220.08 418.85,1209.03C418.152,1207.44 417.216,1203.58 416.468,1200.18C407.668,1188.95 404.559,1175.88 405.415,1162.41C406.484,1145.57 415.544,1127.46 429.841,1112.45C429.97,1109.15 430.16,1105.78 430.428,1102.36C430.517,1101.22 430.611,1100.08 430.709,1098.93C423.282,1098.35 415.888,1097.92 408.422,1098.11C395.758,1098.43 383.13,1099.57 370.487,1100.64C356.051,1105.11 341.504,1108.96 328.021,1111.63C304.938,1116.2 284.844,1117.46 272.74,1114.31C261.64,1111.42 254.204,1105.85 250.185,1098.68L242.513,1097.48C215.642,1096.52 193.292,1090.55 184.175,1081.47C177.104,1074.99 177.067,1067.86 177.027,1063.44C176.997,1059.95 181.374,1044.81 195.909,1041.06C195.634,1040.98 195.363,1040.9 195.098,1040.82L128.251,1032.97C127.847,1032.89 124.494,1031.93 121.093,1030.95C119.045,1030.93 117.322,1030.86 115.949,1030.72C105.557,1029.67 99.877,1024.93 97.16,1022.28C87.977,1013.33 88.605,1004.47 89.086,999.739C90.028,990.481 95.686,976.738 115.441,975.903C115.475,975.901 115.51,975.9 115.545,975.899ZM786.247,1243.92C786.567,1250.36 779.135,1246.76 772.104,1241.88C776.907,1242.66 781.43,1243.35 784.498,1243.75C785.104,1243.83 785.687,1243.89 786.247,1243.92ZM128.379,978.156C132.316,978.11 137.566,977.97 142.605,977.588C146.269,977.31 150.219,976.973 154.422,976.583C152.538,976.42 150.654,976.25 148.782,976.072C139.336,975.178 130.423,974.364 123.507,973.456C121.818,975.018 119.61,975.924 117.316,976.003C120.104,976.312 124.461,977.245 128.379,978.156ZM633.001,1301.6C632.002,1300.22 631.074,1298.76 630.228,1297.22C626.63,1301.3 625.217,1304.78 630.49,1304.68C632.322,1304.65 632.988,1303.41 633.001,1301.6ZM468.391,918.723C473.025,920.919 477.293,922.362 478.093,918.755C479.142,914.022 473.58,916.012 468.391,918.723Z" style="fill:#fff;"/>
            <path d="M1104.92,1114.74C1112.57,1086.43 1124.91,1041.08 1137.9,1012.43C1138.7,1010.67 1139.51,1008.97 1140.33,1007.31C1139.34,1000.94 1138.41,994.563 1137.55,988.167C1134.7,967.06 1132.75,945.765 1131.89,923.905C1129.66,924.168 1127.34,924.324 1124.91,924.359C1102.43,924.678 1067.36,918.39 1048.21,915.849C1045.25,916.915 1042.2,917.785 1039.67,918.082C1031.13,919.087 1024.67,915.314 1020.04,911.121C1008.99,901.135 1011.72,890.828 1016.57,882.131C1018,879.577 1020.79,877.256 1023.98,875.338C1023.9,874.365 1023.86,873.358 1023.86,872.318C1023.87,867.748 1025.23,861.037 1027.06,854.018C1024.49,848.401 1024.18,841.794 1027.68,834.142C1028.89,831.509 1035.69,823.964 1038.9,820.481C1040.67,815.611 1042.83,810.743 1044.8,809.22C1049.81,805.34 1055.87,803.555 1063.26,804.73C1066.54,805.253 1071.4,806.607 1076.72,811.8C1078.64,813.68 1080.16,815.689 1081.31,817.811C1082.33,817.705 1083.38,817.613 1084.47,817.535C1088.3,817.263 1103.51,817.685 1112.74,818.974C1115.2,819.32 1117.43,819.906 1119.41,820.62C1117.56,806.703 1115.85,792.528 1116.64,778.011C1117.24,766.994 1118.96,755.792 1122.9,744.411C1122.96,740.972 1123.25,732.082 1124.57,727.85C1126.23,722.505 1128.76,717.687 1132.83,713.816C1136.95,709.902 1143.92,705.578 1154.36,705.837C1165.75,706.118 1192.27,715.355 1196.97,716.507L1220.5,722.275C1232.77,725.65 1240.49,737.77 1238.36,750.317C1237.32,756.451 1234.09,761.712 1229.58,765.388L1226.11,807.28C1226.05,807.836 1226,808.483 1225.94,809.196C1229.46,810.686 1233.24,811.929 1237.05,813.081C1247.77,816.322 1259.1,817.94 1268.5,818.671C1277.39,819.362 1294.95,820.56 1312.39,820.729C1319.51,820.798 1326.65,821.089 1332.6,820.784C1331.85,817.052 1330.95,812.939 1330.04,809.681C1323.77,787.067 1318.77,762.993 1323.05,748.137C1328.27,729.979 1340.36,715.598 1369.26,715.812C1379.43,715.886 1390.46,716.583 1400.92,718.74C1409.32,720.47 1417.39,723.058 1424.66,726.756C1426.69,727.791 1440.66,737.944 1441.36,759.886C1442.05,781.708 1440.11,834.503 1437.71,846.061C1436.35,852.62 1438.11,874.021 1436.41,887.096C1434.76,899.826 1429.74,908.895 1425.24,913.329C1419.08,919.395 1411.62,922.354 1402.74,921.566C1399.54,921.281 1391.9,916.888 1386.32,913.437L1348.06,905.353C1343.85,904.619 1339.49,904.093 1335.01,903.745C1334.02,906.428 1332.63,908.933 1330.91,911.181C1332.22,912.059 1333.07,912.794 1333.49,913.148C1345.06,922.853 1346.31,933.973 1344.9,942.815C1344.22,947.079 1342.62,957.24 1333.31,964.002C1336.23,969.769 1336.53,975.928 1335.81,981.61C1335.09,987.223 1332.95,994.321 1326.39,1000.48C1325.73,1001.1 1324.86,1001.78 1323.84,1002.48C1322.42,1007.41 1319.71,1012.46 1315.04,1016.69C1309.94,1021.31 1299.73,1025.28 1298.92,1025.54C1281.75,1031.05 1260.96,1033.3 1240.17,1032.71C1229.18,1032.4 1218.2,1031.37 1207.85,1029.79C1207.85,1030.03 1207.85,1030.28 1207.85,1030.52C1208.94,1031.37 1208.64,1034.45 1207.79,1038.14C1207.7,1042.61 1207.52,1047.03 1207.27,1051.41C1210.49,1072.86 1213.65,1094.67 1216.27,1117.28C1217.29,1126.63 1216.9,1135.92 1215.54,1145.16C1213.34,1160 1207.98,1174.61 1207.73,1189.34C1207.84,1182.88 1203.5,1175.9 1203.5,1175.9C1203.5,1175.9 1210.68,1195.36 1206.6,1204.07C1204.99,1207.5 1202.38,1213.57 1192.59,1218.26C1190.56,1219.24 1187.62,1220.15 1183.93,1220.87C1183.86,1221.12 1183.81,1221.37 1183.77,1221.63C1182.83,1227.18 1176.25,1224.74 1174.06,1228.31C1172.84,1230.3 1170.29,1228.41 1168.85,1230.04C1162.25,1237.44 1156.46,1225.61 1145.65,1226.32C1142.29,1226.54 1142.07,1222.75 1138.86,1220.34C1135.9,1219.96 1132.87,1219.56 1129.79,1219.13C1130.03,1223.57 1130.17,1228 1130.21,1232.42C1130.38,1250.76 1128.81,1269.04 1124.79,1287.76C1128.15,1291.14 1130.55,1295.52 1131.5,1300.52C1133.85,1313.02 1126.3,1325.25 1114.08,1328.74L1109.57,1329.17L1109.64,1329.58C1109.64,1329.58 1107.51,1329.7 1104.51,1329.65L1082.63,1331.71C1073.22,1330.02 1063.62,1329.12 1053.9,1328.62C1029.37,1327.37 1004.36,1328.45 980.28,1328.32C975.886,1328.06 956.347,1330.57 945.78,1328.29C942.227,1327.52 939.168,1326.49 936.564,1325.3C930.081,1328.45 924.891,1323.47 925.87,1316.41C924.271,1313.65 923.861,1310.9 924.413,1308.65C919.62,1302.81 915.306,1293.75 913.364,1282.09C909.885,1261.22 912.606,1227.59 912.668,1216.76C912.71,1209.29 909.726,1173.23 908.789,1158.28C908.025,1146.08 910.962,1138.45 911.299,1137.78C914.364,1131.74 922.034,1124 933.222,1121.04C943.315,1118.37 955.264,1120.01 960.86,1122.85C973.868,1129.44 1050.07,1117.64 1081.39,1113.83C1090.9,1112.67 1098.87,1113.44 1104.92,1114.74ZM939.768,1299.96C939.793,1299.95 939.819,1299.94 939.845,1299.92C939.278,1299.48 938.831,1299.09 938.507,1298.76C938.925,1299.18 939.345,1299.58 939.768,1299.96ZM964.241,1179.34C964.991,1179.2 965.753,1179.1 966.526,1179.04L976.419,1178.33C977.013,1176.34 977.605,1174.78 978.032,1173.87C972.993,1173.96 968.211,1173.97 963.791,1173.89C963.939,1175.68 964.09,1177.5 964.241,1179.34ZM946.093,1172.79C942.077,1172.26 938.97,1171.52 937.006,1170.56C938.883,1171.48 942.726,1173.1 946.093,1172.79ZM1187.63,1182.61C1187.71,1188.24 1188.84,1192.55 1192.13,1192.38C1197.74,1192.11 1191.25,1186.16 1187.63,1182.61ZM1343.65,818.663C1343.7,818.64 1343.74,818.616 1343.79,818.591C1343.74,818.615 1343.7,818.639 1343.65,818.663ZM1175.74,839.892C1176.33,839.909 1176.86,839.925 1177.33,839.94C1177.19,839.801 1177.06,839.661 1176.92,839.522C1176.38,838.951 1175.86,838.376 1175.36,837.796C1175.49,838.495 1175.61,839.193 1175.74,839.892ZM1169.06,806.718C1169.79,800.91 1171.21,794.872 1174.88,796.26C1176.06,785.017 1175.73,773.717 1177.34,762.848C1174.92,762.624 1172.18,762.338 1169.45,761.932C1165.45,777.499 1166.55,792.322 1169.06,806.718ZM1184.17,846.113C1185.81,849.169 1187.26,853.065 1188.46,857.706C1189.11,860.177 1189.48,863.638 1189.68,867.434C1198.19,865.856 1208.49,864.421 1215.66,863.424C1214.26,862.89 1212.87,862.336 1211.5,861.762C1201.36,857.522 1191.95,852.321 1184.17,846.113ZM1386.83,874.052C1386.67,874.184 1386.52,874.321 1386.38,874.463C1384.72,876.142 1377.74,881.205 1381.46,882.143C1385.21,883.087 1386.62,879.567 1386.83,874.052ZM1101.24,822.326C1101.57,822.409 1107.73,825.237 1107.54,822.762C1107.1,817.146 1104.38,818.389 1101.24,822.326ZM966.89,1215.28L968.58,1215.09C967.975,1214.42 967.38,1213.82 966.803,1213.32C966.84,1214.05 966.869,1214.7 966.89,1215.28Z" style="fill:#fff;"/>
            <path d="M933.039,736.438C934.741,731.464 936.419,725.981 938.721,721.641C940.856,717.616 943.386,714.153 946.168,711.359C949.439,708.074 959.791,700.191 973.874,707.19C975.565,708.03 979.289,710.826 980.461,711.409C998.569,720.703 1010.5,725.664 1016.6,732.813C1024.02,741.53 1028.77,753.053 1023.04,774.697C1022.37,777.218 1021.04,789.149 1017.59,795.297C1013.54,802.536 1010.9,806.881 1008.86,807.456C1005.18,808.489 1005.2,812.35 1002.63,811.812C997.2,810.672 993.868,815.725 990.835,814.109C984.056,815.672 973.451,815.842 970.032,816.056C963.271,816.523 957.673,815.573 952.366,814.428C945.537,812.954 939.546,810.089 931.946,806.961C910.37,797.776 909.733,783.99 910.662,775.18C910.927,772.662 911.679,769.975 912.975,767.177C906.504,765.174 910.428,758.745 909.358,754.704C908.587,751.79 912.467,751.072 914.049,747.365C914.512,746.28 916.635,746.972 917.066,745.459C918.935,738.905 918.896,754.91 924.235,737.623C927.295,737.413 930.229,736.992 933.039,736.438ZM976.945,782.317C976.854,782.356 976.761,782.394 976.668,782.432C976.579,782.595 976.514,782.778 976.482,782.987C976.648,782.788 976.802,782.564 976.945,782.317ZM1008.92,781.043C1008.93,781.365 1008.93,781.689 1008.94,782.012C1009.13,782.323 1009.31,782.639 1009.48,782.962C1009.24,782.294 1009.09,781.631 1008.92,781.043ZM1010.09,784.225C1010.6,785.396 1010.99,786.631 1011.24,787.916C1011.72,786.938 1012.43,786.271 1011.95,785.995C1011.09,785.492 1010.5,784.879 1010.09,784.225ZM966.714,769.152C966.685,768.77 966.665,768.361 966.646,767.944C966.354,767.981 966.055,768.025 965.75,768.076C966.041,768.436 966.366,768.797 966.714,769.152ZM968.646,770.876C971.424,773.054 974.453,774.249 974.122,771.726C973.802,769.293 972.367,768.154 970.108,767.865C969.625,768.856 969.137,769.864 968.646,770.876Z" style="fill:#fff;"/>
            <path d="M964.817,1032.14C963.444,1032.65 961.019,1032.82 959.928,1033.11C961.554,1032.66 963.187,1032.35 964.817,1032.14ZM932.213,932.573C936.216,928.567 938.937,927.923 942.014,930.355C942.494,930.735 943.61,931.41 944.868,932.733C967.674,933.192 981.739,932.726 991.696,938.392C1001.72,944.095 1011.06,954.51 1017.45,979.314L1022.88,991.904C1026.47,1000.39 1024.81,1010.19 1018.64,1017.03C1014.12,1022.03 1007.77,1024.78 1001.24,1024.84C996.652,1027.72 991.715,1029.5 986.598,1030.72C979.974,1032.31 972.42,1031.16 964.817,1032.14C965.673,1031.82 966.12,1031.38 965.582,1030.69C958.006,1021.02 943.496,1043.1 935.881,1041.31C930.927,1040.14 925.733,1038.29 921.409,1033.51C918.473,1030.2 912.779,1023.45 913.691,1012.39C914.269,1005.39 920.467,989.679 920.215,985.042C920.2,982.992 919.759,979.665 919.262,975.76C913.745,971.293 910.215,964.465 910.215,956.82C910.215,944.172 919.875,933.763 932.213,932.573ZM963.743,978.988C963.962,980.206 963.695,982.41 963.211,985.13C966.197,985.682 969.029,986.203 971.333,986.336C970.068,983.693 968.526,981.412 968.007,979.681C966.744,979.514 965.175,979.089 963.743,978.988ZM976.822,982.655C976.817,982.622 976.811,982.588 976.806,982.554C976.683,981.823 975.784,983.526 975.156,984.105C975.692,983.614 976.246,983.129 976.822,982.655ZM960.098,1001.81C959.266,1008.07 959.501,1013.04 963.054,1012.81C968.72,1012.44 964.008,1006.07 960.098,1001.81ZM939.313,990.791C931.17,989.007 924.573,989.653 929.301,995.117C931.94,998.167 935.584,994.674 939.313,990.791Z" style="fill:#fff;"/>
            <path d="M711.331,965.591C709.316,962.891 715.001,957.021 710.772,952.082C707.774,948.581 715.926,948.307 714.539,942.183C714.014,939.866 718.096,941.176 718.177,937.897C718.233,935.615 719.587,935.313 722.234,933.519C722.516,926.868 728.646,924.254 735.662,927.954C736.318,927.956 736.936,927.977 737.496,928.005C740.481,927.116 743.155,927.166 745.238,927.959L771.265,927.141C775.669,925.119 782.173,922.816 786.681,923.077C792.449,923.41 797.588,925.49 802.02,929.825C809.104,936.728 815.742,951.157 818.328,966.817C820.263,978.542 819.647,990.682 816.742,1000.39C817.276,1005.8 815.847,1011.25 812.667,1015.73C808.999,1020.88 803.338,1024.27 797.059,1025.06L790.902,1026.24C785.979,1027.54 751.205,1031.23 737.036,1029.99C725.977,1029.02 719.404,1024.29 717.276,1021.96C714.895,1019.3 709.865,1013.16 709.584,1002.71C709.365,994.575 709.129,978.849 711.331,965.591ZM748.303,940.301C748.153,940.611 747.99,940.926 747.815,941.244C747.838,941.287 747.861,941.33 747.883,941.372C748.281,941.778 748.662,942.2 749.025,942.637C749.028,942.331 749.057,942.009 749.115,941.67C749.254,940.853 748.871,940.514 748.303,940.301ZM752.095,947.734C752.801,949.439 753.276,951.264 753.483,953.168C753.571,953.05 753.667,952.932 753.773,952.816C755.93,950.455 754.082,949.315 752.095,947.734ZM753.717,959.201C753.785,960.596 753.771,962.106 753.7,963.694C754.913,962.586 754.367,960.969 753.717,959.201ZM752.557,975.53C752.029,979.812 751.476,984.045 751.237,987.682C759.096,987.221 769.325,984.718 775.263,983.159C775.803,980.145 775.59,976.564 775.153,973.118C775.088,972.603 775.024,972.086 774.959,971.571C772.694,972.145 770.343,972.675 767.945,973.173C762.881,974.222 757.563,974.977 752.557,975.53ZM751.127,990.118C751.01,995.413 751.891,998.886 755.136,998.349C759.549,997.618 753.811,992.428 751.127,990.118ZM748.75,987.757C746.071,984.69 740.603,978.473 740.343,983.288C740.165,986.585 743.71,987.742 748.75,987.757ZM740.183,976.599C739.976,976.613 739.772,976.626 739.569,976.639C739.749,976.691 739.955,976.673 740.183,976.599Z" style="fill:#fff;"/>
            <path d="M825.861,1073.76C826.492,1071.65 827.135,1069.5 827.784,1067.35C825.787,1063.96 824.641,1060.01 824.641,1055.8C818.955,1046.22 825.363,1039.22 830.695,1029.1C835.965,1019.11 851.714,1014.81 861.263,1012.22C885.628,1005.59 898.971,1010.69 907.87,1017.07C917.29,1023.82 922.79,1038.52 931.438,1062.76C932.791,1066.71 939.141,1085.11 938.046,1093.48C937.001,1101.46 933.419,1107.56 928.885,1112.16C920.65,1120.51 910.976,1124.9 900.42,1126.64C890.223,1128.32 878.754,1126.96 867.591,1124.59C864.881,1124.01 860.982,1121.91 858.115,1121.01C854.811,1123.78 849.546,1125.23 844.894,1128.23C837.628,1132.91 828.298,1125.06 821.289,1121.81C815.582,1119.17 816.45,1111.89 813.584,1103.99C811.054,1097.03 820.269,1081.89 822.233,1077.89C823.351,1076.37 824.563,1074.99 825.861,1073.76ZM856.891,1120.69C855.432,1120.41 854.439,1120.67 854.351,1122.02C854.239,1123.73 855.407,1122.48 856.891,1120.69ZM861.179,1116.08C861.747,1115.29 861.979,1113.55 862.128,1111.56C861.855,1113.11 861.582,1114.35 861.319,1115.2C861.285,1115.5 861.238,1115.8 861.179,1116.08ZM863.346,1102.36C863.478,1101.73 863.534,1101.12 863.526,1100.54C863.468,1101.16 863.407,1101.77 863.346,1102.36ZM887.859,1069.59C889.829,1070.01 891.155,1069.78 890.983,1068.07C890.857,1066.83 889.135,1068.35 887.859,1069.59ZM877.636,1084.27C875.403,1088.98 874.943,1092.77 879.623,1091.77C882.354,1091.19 879.724,1087.19 877.636,1084.27ZM870.527,1069.28C870.309,1068.81 870.098,1068.35 869.897,1067.9C869.825,1068.06 869.825,1068.25 869.916,1068.48C870.349,1069.59 870.512,1069.75 870.527,1069.28Z" style="fill:#fff;"/>
            <path d="M243.999,1450.92C240.852,1452.94 237.872,1454.01 234.325,1452.31L243.999,1450.92ZM324.617,1329.25C332.882,1325.8 341.106,1323.21 344.432,1327.39C349.162,1322.82 356.003,1317.8 363.466,1315.82C375.767,1312.55 387.367,1316.63 396.448,1325.06C402.901,1331.04 409.915,1346.5 405.75,1367.75C404.233,1375.49 401.034,1384.8 397.32,1393.83C398.835,1397.05 399.683,1400.65 399.683,1404.45C399.683,1414.96 393.18,1423.97 383.981,1427.67C379.898,1434.19 373.673,1439.43 365.892,1442.21C354.766,1446.18 342.919,1444.25 333.844,1437.98L243.999,1450.92C248.051,1448.32 252.381,1444.15 258.557,1442.31C260.246,1441.8 261.503,1438.89 262.235,1436.66C259.344,1436.29 256.576,1435.87 253.926,1435.4C236.16,1437.98 198.404,1442.77 198.221,1436.91C198.123,1433.79 190.445,1429.37 194.597,1420.7C195.53,1412.23 196.672,1403.78 197.906,1395.34C192.697,1381.66 190.469,1363.62 191.342,1339.45C191.672,1326.83 189.161,1306.57 190.079,1289.63C190.731,1277.61 192.902,1266.8 197.066,1258.77C205.436,1241.13 223.461,1231.43 244.67,1229.4C269.782,1227 298.397,1237.51 310.96,1249.52C315.749,1254.09 320.608,1263.23 321.027,1277.02C321.363,1288.05 325.825,1312.17 324.617,1329.25ZM248.668,1279.15C250.507,1289.47 251.832,1299.9 253.078,1310.45C255.526,1331.16 256.881,1351.98 258.302,1372.77C259.776,1372.58 261.258,1372.38 262.746,1372.17C259.696,1365.88 257.794,1358.27 257.562,1349.25C257.116,1331.96 252.928,1295.51 259.768,1282.01C259.339,1281.92 258.907,1281.84 258.474,1281.76C255.274,1281.17 251.723,1279.73 248.668,1279.15ZM378.716,1377.85C378.673,1378.02 378.687,1378.08 378.834,1377.93C379.246,1377.52 379.121,1377.59 378.716,1377.85ZM379.148,1429.06C379.144,1429.06 379.14,1429.06 379.136,1429.06C379.052,1429.16 378.971,1429.25 378.894,1429.34C378.979,1429.25 379.063,1429.15 379.148,1429.06ZM363.554,1427.14C363.542,1427.14 363.53,1427.13 363.518,1427.13C361.6,1427.94 359.583,1428.7 357.48,1429.41C359.509,1428.81 361.651,1427.97 363.554,1427.14Z" style="fill:#fff;"/>
            <path d="M507.097,1381.66C506.666,1381.19 506.123,1380.76 505.442,1380.38C501.713,1378.3 508.317,1375.85 505.059,1372.18C501.128,1367.75 511.069,1368.22 508.727,1358.81C507.749,1354.88 509.406,1355.71 511.628,1350.45C517.306,1337.03 554.288,1325.14 578.175,1323.34C597.752,1321.86 613.394,1328.57 622.302,1340.2C629.357,1349.42 634.925,1363.52 629.166,1384.97C622.532,1409.12 612.447,1422.02 602.258,1429.16C590.504,1437.41 577.873,1440.13 565.029,1439.01C557.136,1438.31 542.612,1441.64 542.887,1435.15C542.931,1434.12 544.786,1434.62 545.668,1434.36C546.762,1434.09 558.62,1433.07 554.965,1428.75C544.895,1416.82 513.526,1434.03 512.855,1433.2C510.612,1430.46 504.9,1424.49 504.571,1413.84C504.347,1406.58 505.501,1393.86 507.097,1381.66ZM548.014,1366.28C548.108,1367.14 548.184,1368.04 548.245,1368.97C548.258,1369 548.27,1369.03 548.283,1369.06C548.355,1368.87 548.443,1368.68 548.549,1368.49C549.237,1367.26 548.828,1366.68 548.014,1366.28ZM549.75,1373.8C550.276,1376.6 550.253,1379.48 549.68,1382.27C550.195,1382.31 550.711,1382.35 551.23,1382.39C550.956,1381.62 550.065,1380.69 551.039,1380.15C554.967,1377.98 551.933,1376.17 549.75,1373.8ZM571.901,1372.48C571.992,1371.92 572.102,1371.34 572.236,1370.74C572.419,1369.93 573.071,1368.58 572.44,1368.57C570.106,1368.56 570.542,1370.35 571.901,1372.48ZM578.705,1380.17C580.929,1382.38 584.159,1385.43 584.174,1382.91C584.193,1379.73 582.004,1379.23 578.705,1380.17ZM548.938,1396.05C549.55,1402.54 551.08,1406.89 554.941,1405.83C560.259,1404.36 551.032,1397.49 549.679,1396.38C549.59,1396.31 549.335,1396.19 548.938,1396.05ZM516.186,1396C515.02,1395.22 513.912,1394.32 512.883,1393.29C511.98,1393.41 511.261,1393.42 510.689,1393.33C511.27,1394.05 512.138,1394.89 513.334,1395.86C514.111,1396.49 515.093,1396.47 516.186,1396Z" style="fill:#fff;"/>
            <path d="M725.147,1352.12C724.64,1348.94 726.456,1346.83 729.259,1346.23C735.418,1341.85 743.219,1347.75 743.71,1349.42C743.772,1349.63 744.302,1350.42 744.556,1351.76C752.193,1346.5 763.662,1342.6 775.754,1338.16C811.732,1324.97 861.505,1316.97 884.364,1316.9C902.212,1316.84 913.13,1324.03 917.602,1328.35C923.162,1333.73 927.794,1342.04 930.43,1352.16C933.027,1362.13 933.376,1374.92 933.48,1382.29C933.494,1385.32 934.881,1400.26 933.837,1406.58C932.233,1416.28 927.59,1422.59 923.919,1426.29C920.47,1429.78 914.039,1434.58 903.754,1437.52C891.016,1441.17 864.167,1444.5 834.73,1444.9C798.063,1445.4 757.48,1442.72 738.723,1440.25C722.625,1438.13 713.952,1432.62 712.834,1431.18C709.304,1426.69 703.971,1418.96 704.844,1407.41C705.659,1396.63 708.975,1380.16 713.804,1367.54C715.337,1363.54 715.779,1359.34 718.283,1357.38C721.729,1354.67 720.278,1358.72 723.24,1356.28C724.775,1355.02 724.985,1353.3 725.147,1352.12ZM869.413,1372.09C869.684,1369.25 869.321,1367.11 867.157,1367.61C865.065,1368.08 867.302,1370.25 869.413,1372.09ZM880.128,1376.14C881.223,1376.38 882.252,1376.7 883.097,1377.18C884.936,1376.57 885.806,1375.62 885.264,1374.15C884.344,1371.63 882.087,1373.78 880.128,1376.14ZM763.339,1400.32C763.335,1400.38 763.347,1400.45 763.378,1400.56C763.425,1400.72 763.466,1400.86 763.503,1400.99C763.454,1400.8 763.398,1400.57 763.339,1400.32Z" style="fill:#fff;"/>
            <path d="M915.984,1470.67C913.043,1464.84 917.755,1456.16 930.983,1443.39C932.633,1441.8 935.249,1441.06 937.8,1439.92C957.729,1430.99 993.433,1428.19 1011.32,1439.98C1027.11,1450.39 1040.63,1471.79 1020.55,1512.44C1016.61,1520.27 1010.66,1525.82 1003.34,1529.45C994.567,1533.79 982.752,1534.56 974.464,1534.53C967.672,1534.35 962.903,1534.25 958.454,1535.35C955.945,1535.97 953.507,1536.78 950.857,1537.93C970.749,1557.9 902.277,1543.41 904.367,1522.63C905.872,1513.16 909.027,1486.29 915.749,1471.19C915.828,1471.02 915.906,1470.84 915.984,1470.67ZM943.826,1541.54C943.802,1541.55 943.779,1541.56 943.756,1541.58C943.779,1541.56 943.802,1541.55 943.826,1541.54ZM955.475,1482.6C955.595,1482.58 955.716,1482.56 955.837,1482.55C956.099,1481.86 956.404,1481.29 956.773,1481.07C959.184,1479.59 958.808,1477.24 958.566,1474.92C958.039,1477.71 956.971,1480.31 955.475,1482.6ZM977.662,1478.96C978.09,1477.74 978.013,1477.01 977.025,1477.15C975.555,1477.35 976.29,1478.02 977.662,1478.96ZM979.374,1480.11C980.016,1480.55 980.666,1481.02 981.23,1481.5C981.284,1481.36 981.292,1481.17 981.243,1480.94C980.987,1479.75 980.284,1479.61 979.374,1480.11ZM954.29,1486.28C954.21,1486.08 954.155,1485.91 954.13,1485.84C954.135,1485.86 954.141,1485.88 954.149,1485.9C954.197,1486.07 954.244,1486.19 954.29,1486.28ZM952.654,1520.13C952.748,1521.07 952.85,1521.91 952.966,1522.63C952.879,1521.77 952.775,1520.94 952.654,1520.13Z" style="fill:#fff;"/>
            <path d="M1040.82,1547.42C1042.34,1545.24 1043.73,1544.35 1044.05,1544.21C1046.65,1543.04 1048.33,1543.61 1050.72,1545.14C1052.01,1544.82 1053.14,1544.5 1054.04,1544.18C1076.1,1537.34 1115.44,1534.92 1129.6,1549.43C1138.54,1558.59 1146.4,1573.38 1137.44,1597.64C1132.5,1610.82 1110.38,1631.1 1086.7,1640.51C1061.93,1650.36 1038.18,1647.03 1030.3,1638.17C1028.06,1635.5 1022.34,1628.8 1022.78,1617.3C1022.95,1612.76 1023.57,1606.29 1024.48,1599.16C1024.45,1599.18 1024.42,1599.2 1024.38,1599.22C1022.15,1600.62 1024.33,1596.46 1022.18,1597.5C1015.16,1600.91 1023.59,1590.49 1017.13,1591.43C1014.74,1591.78 1018.23,1589 1015.9,1589.1C1011.13,1589.3 1018.76,1584.91 1014.2,1584.17C1008.69,1583.29 1018.73,1580.2 1013.51,1577.99C1011.49,1577.14 1015.63,1576.59 1013.65,1575.52C1010,1573.55 1018.05,1573.63 1014.58,1570.83C1009.87,1567.02 1021.84,1570.13 1017.63,1564.07C1015.09,1560.41 1023.24,1564.86 1021.05,1559.61C1019.34,1555.49 1026.74,1562.03 1025.6,1555.32C1025.06,1552.14 1026.21,1556.27 1028.79,1552.1C1029.94,1550.24 1035.21,1548.74 1040.82,1547.42ZM1057.54,1549.35C1057.51,1549.24 1057.37,1549.09 1057.54,1549.35ZM1062.27,1568.78C1062.17,1570.36 1062.05,1572.01 1061.92,1573.71C1062.31,1575.33 1062.52,1577.03 1062.52,1578.77C1062.52,1581.59 1061.98,1584.27 1061,1586.74C1060.89,1588.76 1060.8,1590.75 1060.74,1592.7C1060.85,1592.7 1060.96,1592.72 1061.09,1592.74C1063.83,1593.3 1060,1589.92 1062.53,1590.15C1070.82,1590.87 1058.1,1583.73 1064.94,1582.04C1067.43,1581.43 1062.8,1580.09 1065.15,1579.23C1071.85,1576.78 1058.52,1575.8 1064.11,1571.49C1066.7,1569.48 1064.11,1569.43 1062.27,1568.78ZM1060.77,1599.92C1060.79,1600.38 1060.82,1600.82 1060.85,1601.26C1062.34,1600.85 1064.01,1600.24 1065.75,1599.49C1064.15,1599.62 1062.44,1599.74 1060.77,1599.92ZM1087.27,1584.27C1088.99,1581.83 1089.34,1579.69 1087.51,1578.33C1086.72,1577.74 1086.47,1579.88 1086.27,1580.59C1086.52,1579.72 1087.3,1578.3 1086.61,1578.24C1083.71,1577.99 1085.37,1581.4 1087.27,1584.27ZM1092.22,1590.65C1094.01,1592.76 1095.94,1594.57 1096.46,1592.61C1097.09,1590.27 1095.22,1589.95 1092.22,1590.65ZM1060.97,1602.84C1061.63,1609.97 1063.64,1614.7 1068.34,1613.86C1073.52,1612.94 1064.57,1606.04 1063.4,1605.06C1062.82,1604.58 1061.95,1603.75 1060.97,1602.84ZM1059.58,1601.58C1059.08,1601.13 1058.57,1600.69 1058.07,1600.28C1056.76,1600.5 1055.53,1600.78 1054.49,1601.15C1055.4,1602.01 1057.23,1602.08 1059.58,1601.58ZM1053.78,1601.42C1052.15,1602.13 1051.12,1603.13 1051.12,1604.59C1051.12,1607.27 1052.53,1603.79 1053.78,1601.42ZM1054.16,1600.74C1054.59,1600 1054.98,1599.5 1055.27,1599.57C1056.26,1599.83 1056.93,1599.86 1057.37,1599.72C1055.34,1598.18 1053.69,1597.48 1053.86,1599.7C1053.88,1600.1 1053.99,1600.45 1054.16,1600.74Z" style="fill:#fff;"/>
            <path d="M939.533,1906.4C939.36,1906.54 939.203,1906.69 939.082,1906.81C939.207,1906.68 939.358,1906.54 939.533,1906.4ZM940.913,1905.41C940.358,1905.77 939.893,1906.1 939.533,1906.4C940.263,1905.78 941.297,1905.09 941.297,1905.09C941.297,1905.09 941.158,1905.2 940.913,1905.41ZM1031.28,1845.31C1023.14,1826.21 1021.06,1802.34 1026.35,1782.71C1033.19,1757.3 1050.84,1739.38 1077.88,1739.2C1079.86,1739.18 1089.2,1738.34 1093.14,1738.92C1099.76,1739.88 1103.95,1743.06 1106.29,1745.37C1111.48,1750.49 1112.16,1765.93 1112.16,1765.93C1112.16,1765.93 1112.57,1763.2 1112.56,1761.96C1112.57,1763.2 1112.27,1765.8 1111.78,1769.35L1125.45,1769.35L1125.57,1786.91C1125.9,1795.07 1126.53,1802.74 1125.93,1810.41C1125.8,1812.13 1125.62,1813.85 1125.38,1815.57C1125.44,1823.6 1125.84,1831.72 1127.16,1839.53C1128.08,1844.97 1129.48,1850.24 1131.91,1855.02C1164.19,1856.15 1196.94,1856.19 1229.41,1857.17C1273.83,1846.93 1320.03,1831.8 1357.09,1831.54C1366.29,1831.47 1401.46,1835.88 1425.85,1837.9C1426.15,1831.87 1426.56,1826.21 1427.06,1824.68C1428.52,1820.18 1429.49,1815.6 1430.14,1810.97C1429.77,1798.12 1429.46,1785.11 1429.42,1772.35C1429.25,1724.11 1431.61,1679.73 1432.22,1661.5C1432.66,1633.31 1431.68,1604.03 1435.36,1575.94C1436.13,1570.08 1437.07,1564.26 1438.26,1558.49C1436.31,1557.18 1434.54,1555.95 1433.02,1554.88L1432.99,1554.87L1432.99,1554.86C1432.11,1554.23 1431.3,1553.66 1430.6,1553.16L1431.97,1554.63C1418.58,1551.16 1410.41,1537.62 1413.61,1524.16C1414.42,1520.72 1415.9,1517.61 1417.88,1514.93C1402.62,1520.09 1387.16,1525.69 1377.94,1528.3C1357.4,1534.11 1343.98,1525.04 1341.21,1522.26C1333.07,1514.11 1327.59,1500.61 1328.29,1482.92C1328.8,1469.94 1332.94,1453.14 1337.39,1437.29C1337.24,1437.25 1337.08,1437.21 1336.92,1437.17C1313.76,1439.36 1287.59,1441.83 1267.65,1441.29C1243.93,1440.65 1226.44,1433.83 1218.72,1426.11C1208.21,1415.59 1207.43,1404.29 1211.46,1393.39C1214.82,1384.31 1230.54,1373.71 1239.3,1370.11C1238.03,1368.19 1237.42,1365.82 1237.74,1363.36C1234.24,1357.05 1239.15,1352.16 1251.74,1343.86C1261.79,1337.24 1283.64,1338.52 1292.09,1337.51L1388.11,1335.2L1409.58,1334.22C1409.8,1334.19 1409.91,1334.18 1409.91,1334.18L1409.91,1334.2L1411.75,1334.12C1426.57,1334.12 1438.73,1345.87 1439.22,1360.69C1439.68,1374.23 1430.24,1385.87 1417.33,1388.53C1417.4,1390.63 1417.47,1392.89 1417.51,1395.22C1422.84,1404.98 1420.24,1413.55 1418.38,1418.48C1417.55,1420.69 1416.33,1423.24 1414.53,1425.75C1411.45,1433.59 1407.09,1439.55 1401.2,1443.25C1425.86,1441.46 1456.67,1443.19 1469.37,1442.8C1469.95,1442.78 1480.05,1443.01 1487.49,1443.18C1491.09,1441.56 1494.97,1440.23 1498.2,1440.04C1508.93,1439.42 1516.89,1443.46 1521.49,1448.35C1530.68,1458.14 1531.2,1467.45 1529.68,1474.33C1528.58,1479.3 1526.23,1485.87 1520.47,1490.85C1524.09,1493.06 1526.74,1495.24 1527.25,1495.77C1537.92,1506.98 1539.91,1517.13 1539.34,1524.44C1538.73,1532.16 1536.01,1539.62 1529.85,1545.55C1530.12,1588.67 1532.26,1668.66 1532.2,1741.87C1532.14,1813.83 1529.2,1879.54 1521.68,1902.02C1516.61,1917.18 1498.91,1930.58 1470.69,1934.52C1469.27,1940.22 1467.79,1944.58 1466.3,1947.31C1462.61,1955.07 1455.76,1959.84 1445.34,1959.88C1442.42,1959.9 1435.76,1957.39 1430.46,1955.17L1426.06,2017.23C1428.32,2035.24 1436.78,2051.73 1441.14,2069.2C1443.66,2079.29 1445.16,2089.59 1444.91,2100.27C1444.58,2114.53 1443.38,2128.48 1439.46,2141.66C1438.78,2143.97 1438.02,2146.26 1437.19,2148.53C1448.89,2147.43 1461.46,2146.04 1472.82,2144.55L1480.92,2141.95C1482.85,2141.46 1502.06,2137.74 1509.75,2136.67C1533.76,2133.32 1534,2159.82 1531.7,2169.69C1534.42,2169.81 1537.18,2170.07 1539.96,2170.51L1540.01,2157.96C1541.33,2142.52 1540.84,2118.86 1544.43,2100.53C1545.1,2097.11 1545.92,2093.83 1546.87,2090.72C1546.56,2090.59 1546.27,2090.44 1546,2090.3C1534.04,2084.98 1534.01,2076.16 1537.75,2067.05C1539.92,2061.75 1560.78,2051.86 1562.44,2051.78C1563.13,2051.75 1563.87,2051.69 1564.65,2051.6C1574,2047.43 1590.55,2045.84 1599.35,2043.52C1612.61,2040.03 1622.95,2043.77 1629.42,2049.54C1632.44,2052.22 1635.53,2057.47 1636.24,2065.3C1636.87,2072.15 1631.94,2087.86 1633.09,2092.58C1635.27,2102.23 1633.41,2153.56 1628.49,2183.39C1626.06,2198.14 1620.48,2208.52 1616.23,2213.34L1615.56,2215.5L1615.22,2228.8C1615.22,2237.98 1608.06,2245.56 1598.89,2246.09C1594.33,2246.35 1590.07,2244.82 1586.8,2242.1C1586.2,2242.15 1585.6,2242.16 1584.99,2242.15C1592.72,2325.55 1576.73,2329.14 1560.96,2289C1544.43,2331.09 1527.65,2325.1 1538.23,2229.43C1534.3,2229.83 1530.51,2230.48 1526.95,2231.54L1485.33,2245.95C1478.15,2246.68 1471.14,2246.6 1464.22,2245.54C1454.51,2244.06 1445.17,2240.31 1435.39,2239.9C1424.8,2239.46 1412.9,2239 1401.09,2239.51C1390.84,2239.95 1380.65,2240.57 1371.85,2243.54L1361.73,2246.39L1361.73,2246.39L1358.07,2247.99C1348.96,2251.03 1339.16,2247.72 1333.66,2240.29C1308.22,2244.49 1277.58,2249.76 1260.69,2251.28C1241.77,2252.99 1230.13,2245.79 1227.44,2243.22C1226.64,2242.46 1218.47,2233.54 1220,2217.88C1220.45,2213.31 1221.54,2200.49 1221.92,2195.94C1216.56,2175.86 1210.99,2147.8 1210.18,2121.27C1209.51,2099.16 1212.55,2078.1 1219.33,2062.12C1221.68,2056.81 1224,2051.56 1226.43,2046.46C1210.33,2043.84 1195.32,2040.01 1192.09,2040.38L1117.76,2038.36C1073.89,2037.89 1052.68,2041.03 1043.59,2057.21C1026.5,2087.63 1040.49,2139.75 1026.05,2208.39C1023.5,2220.54 1008.98,2236.12 990.667,2246.58C989.614,2249.81 988.46,2252.68 987.417,2253.85C979.507,2262.7 970.604,2265.56 960.582,2257.54C942.518,2260.46 926.395,2256.54 918.172,2248.16C917.073,2247.03 910.275,2233.63 912.807,2212.11C917.65,2170.96 932.791,2068.78 933.707,2059.55C935.536,2036.26 931.317,2015.48 927.746,1998.02C923.603,1977.76 919.651,1961.45 918.538,1951.29C916.548,1933.12 922.403,1922.68 931.408,1917.91C931.506,1917.46 931.613,1917.02 931.724,1916.6C932.772,1912.62 939.26,1906.84 940.913,1905.41C942.573,1904.36 945.048,1903.1 947.986,1901.8L933.099,1902.04C920.785,1902.04 910.584,1892.48 909.783,1880.19C908.981,1867.9 917.854,1857.1 930.063,1855.5L949.886,1852.35C966.588,1849.3 984.378,1845.93 1002.14,1844.79C1011.91,1844.16 1021.67,1844.26 1031.28,1845.31ZM988.01,1897.08C988.026,1897.07 988.043,1897.06 988.06,1897.06L987.984,1897.07C987.993,1897.07 988.001,1897.08 988.01,1897.08ZM971.989,1973.12C971.94,1972.4 971.922,1971.69 971.93,1970.98C971.947,1969.51 972.138,1967.96 972.515,1966.36C971.595,1966.32 970.704,1966.24 969.845,1966.12C970.562,1968.39 971.284,1970.74 971.989,1973.12ZM1363.43,2187.93C1363.44,2187.92 1363.44,2187.91 1363.44,2187.9C1361.71,2182.82 1360.29,2176.6 1359.57,2169.28C1358.5,2158.53 1357.83,2144.53 1357.2,2128.94C1354.42,2137.87 1350.81,2146.64 1346.53,2155.22C1346.36,2164.52 1346.2,2171.62 1345.32,2175.63C1345.01,2177.4 1343.59,2182.05 1341.52,2187.13C1341.3,2188.18 1341.06,2189.2 1340.81,2190.21C1349.57,2189.24 1357.4,2188.42 1363.43,2187.93ZM1289.76,2195.94C1288.27,2191.67 1287.27,2187.42 1287.23,2184.48L1286.68,2151.94C1285.13,2148.73 1283.86,2145.23 1282.92,2141.45C1279.13,2126.06 1279.87,2105.64 1279.18,2095.6C1278.26,2085.15 1279.28,2075.2 1281.58,2066.09C1278.53,2072.2 1275.98,2078.67 1273.25,2085.23C1268.02,2097.19 1267.8,2114.03 1268.64,2130.86C1269.64,2150.72 1272.61,2170.7 1275.87,2185.21C1276.24,2186.84 1276.06,2191.63 1275.66,2197.33C1280.11,2196.93 1284.85,2196.45 1289.76,2195.94ZM1627.23,2090.36C1627.26,2090.29 1627.29,2090.22 1627.31,2090.17C1627.28,2090.23 1627.25,2090.3 1627.23,2090.36ZM1252.48,1425.2C1252.47,1425.2 1252.46,1425.2 1252.46,1425.2C1252.46,1425.2 1252.47,1425.2 1252.48,1425.2ZM1448.2,1505.76L1448.68,1505.82C1451.17,1505.76 1455.58,1505.58 1460.72,1505.35C1460.72,1505.32 1460.72,1505.29 1460.72,1505.27L1451.38,1505.07C1450.36,1505.27 1449.3,1505.5 1448.2,1505.76ZM1079.97,1820.66C1077.5,1820.52 1075.78,1820.52 1075.78,1820.52L1079.57,1816.93C1079.71,1816.58 1079.84,1816.23 1079.96,1815.89C1080.01,1806.98 1080.33,1798.22 1080.39,1790.03L1080.44,1781.67C1079.23,1781.73 1078.24,1781.78 1077.88,1781.77C1068.54,1781.71 1066.35,1791.94 1065.39,1801.4C1064.17,1813.5 1066.52,1827.22 1073.39,1835.56C1075.08,1836.39 1078.06,1837.86 1080.87,1839.35C1080.26,1833.17 1080.02,1826.9 1079.97,1820.66ZM1002.5,2021.59C1000.37,2020.47 998.569,2019.18 997.129,2017.78C992.414,2029.97 988.462,2042.4 985.877,2054.22C984.706,2059.58 983.67,2073.32 982.958,2091.01C984.856,2085.87 986.765,2080.74 988.619,2075.6C989.895,2058.66 992.466,2044.28 998.709,2032.61C999.677,2030.8 1000.71,2029.03 1001.83,2027.29C1002.09,2025.39 1002.32,2023.5 1002.5,2021.59ZM1375.96,1958.61L1376.28,1951.35C1374.84,1952.11 1373.39,1952.88 1371.93,1953.64C1373.31,1955.14 1374.66,1956.8 1375.96,1958.61ZM1072.47,1946.3C1079.29,1945.61 1086.33,1945.11 1093.5,1944.76C1098.4,1943 1103.56,1941.17 1108.91,1939.3C1105.82,1939.71 1102.74,1940.15 1099.68,1940.63L1072.47,1946.3Z" style="fill:#fff;"/>
            <path d="M1216.26,1643.58C1216.36,1642.06 1216.62,1640.65 1217.03,1639.33C1214.84,1636.47 1214.33,1633.34 1214.1,1631.49C1213.59,1627.45 1214.39,1622.06 1220.12,1617.54C1221.16,1616.72 1224.05,1615.6 1227.5,1614.44C1224.03,1609.49 1224.69,1603.83 1226.1,1599.13C1226.31,1598.4 1226.99,1597.46 1227.99,1596.38C1226.99,1595.63 1226.06,1594.82 1225.2,1593.95C1219.88,1588.56 1217.12,1581.9 1220,1575.08C1211.24,1568.56 1213.25,1558.57 1215.7,1553.14C1219.83,1543.96 1243.51,1533.64 1268.95,1532.9C1292.38,1532.21 1314.22,1541.08 1322.24,1550.34C1425.01,1552.51 1401.76,1573.01 1330.55,1581.76C1330.34,1582.44 1330.08,1583.13 1329.78,1583.83C1332.63,1586.67 1334.95,1590.58 1334.87,1596.5C1334.85,1597.59 1334.23,1600.39 1332.31,1603.66C1333.83,1604.92 1334.78,1606.08 1335.14,1606.74C1339.51,1614.69 1337.37,1620.3 1335.59,1624.23C1334.85,1625.87 1333.64,1627.4 1332.11,1628.82C1336.9,1632.31 1338.57,1637.54 1337.32,1644.13C1336.66,1647.68 1332.62,1653.95 1329.5,1656.23C1326.59,1658.36 1323.39,1660.29 1319.95,1662.03C1320.52,1668.37 1318.33,1673.64 1315,1677.52C1314.68,1698.58 1312.78,1714.3 1305.75,1725.31C1295.14,1741.95 1274.44,1753.57 1230.04,1753.38C1217.19,1753.33 1204.8,1753.21 1192.51,1751.7C1184.16,1750.68 1175.93,1748.98 1167.53,1747.03C1162.57,1745.84 1144.19,1748.92 1137.12,1746.29C1130.22,1743.72 1125.48,1739.92 1123.32,1734.81C1122.2,1732.16 1120.46,1727.88 1121.5,1722.21C1122.46,1716.98 1126.7,1706.67 1128.87,1701.72C1124.38,1699.98 1129.68,1686.05 1130.69,1681.3C1130.9,1680.32 1131.15,1679.41 1131.44,1678.55L1131.06,1678.53C1129.84,1678.19 1128.22,1677.39 1127.05,1676.9C1127.03,1676.43 1126.99,1675.89 1126.94,1675.3C1126.63,1675.74 1126.29,1676.14 1125.9,1676.52C1125.59,1676.47 1125.45,1676.55 1125.56,1676.84C1124.77,1677.55 1123.85,1678.13 1122.82,1678.55C1117.04,1683.23 1112.77,1677.97 1111.34,1677.28C1107.96,1675.65 1107.79,1671.62 1109.32,1664.87C1109.91,1662.22 1119.17,1653.78 1131.06,1650.38L1172.42,1648.57C1177.72,1648.29 1195.6,1645.96 1216.26,1643.58ZM1127.05,1676.9C1127.13,1679.19 1126.77,1679.92 1125.56,1676.85C1125.56,1676.85 1125.56,1676.85 1125.56,1676.84C1125.68,1676.74 1125.79,1676.63 1125.9,1676.52C1126.17,1676.56 1126.57,1676.71 1127.05,1676.9ZM1212.24,1707.69C1211.85,1704.65 1212.43,1701.63 1213.77,1699C1213.64,1698.99 1213.51,1698.99 1213.39,1698.98C1211.89,1699.14 1210.43,1699.29 1209.03,1699.42C1204.23,1700.32 1196.89,1702.06 1196.06,1700.33C1195.55,1700.34 1195.05,1700.35 1194.59,1700.35C1185.72,1700.42 1181.96,1695.89 1180.6,1690.69L1165.08,1692.69C1165.34,1696.16 1164.63,1700.77 1163.76,1704.73C1168.44,1705.12 1172.68,1705.82 1174.37,1705.98L1212.24,1707.69Z" style="fill:#fff;"/>
            <path d="M1543.9,1353.98C1543.15,1352.14 1542.91,1350.36 1542.37,1348.94C1539.19,1340.56 1544.75,1334.07 1559.51,1328.51C1574.86,1322.74 1611.21,1330.14 1620.05,1329.4L1628.92,1329.4C1638.21,1329.4 1646.32,1335.68 1648.65,1344.67C1650.84,1353.12 1647.41,1361.95 1640.25,1366.73C1708.39,1337.62 1679.14,1387.72 1610.33,1422.26C1608.47,1423.19 1605.2,1424.03 1601.21,1424.77C1595.9,1426.72 1589.11,1427.93 1580.17,1427.79C1574.62,1427.74 1568.61,1429.43 1562.94,1429.25C1557.83,1429.08 1552.87,1428.03 1548.13,1425.67C1545.26,1424.28 1540.05,1422.4 1536.94,1419.45C1534.32,1416.98 1532.44,1413.93 1531.22,1410.42C1527.28,1399.13 1528.05,1387.57 1531.78,1376.43C1534.41,1368.57 1538.76,1360.95 1543.9,1353.98ZM1595.44,1386.18C1596.37,1386.06 1597.23,1385.92 1598,1385.74C1598.87,1385.33 1599.78,1385 1600.73,1384.74C1601.69,1384.18 1602.26,1383.47 1602.32,1382.56C1602.43,1380.89 1600.63,1384.55 1600.05,1384.51C1598.12,1384.38 1596.61,1385.12 1595.44,1386.18Z" style="fill:#fff;"/>
            <path d="M1447.56,939.93C1448.26,936.324 1450.84,932.917 1456.66,929.953C1460.28,926.474 1463.66,923.947 1466.33,923.223C1473.72,921.216 1480.41,921.621 1485.91,925.491L1515.16,926.94C1518.55,926.847 1524.47,925.053 1527.37,925.473C1532.09,926.159 1535.6,928.508 1538.38,931.25C1541.54,934.362 1543.71,938.737 1543.88,945.002C1544.04,950.753 1542.07,955.662 1538.97,960.145C1536.18,964.192 1530.8,974.787 1526.73,972.074C1525.69,974.607 1524.64,977.608 1523.55,980.869C1531.56,986.104 1533.56,993.341 1533.51,998.185C1533.51,1008.31 1525.29,1016.53 1515.16,1016.53C1513.13,1016.53 1511.18,1016.21 1509.35,1015.6C1508.43,1016.95 1507.46,1018.19 1506.45,1019.26C1498.27,1027.97 1488.13,1031.14 1476.21,1028.44C1474.67,1028.09 1473.09,1027.88 1471.49,1027.76C1467.71,1031.45 1463.78,1032.63 1462.55,1032.91C1457.52,1034.06 1437.82,1035.44 1437.72,1013.93C1436.12,1010.2 1435.11,1005.55 1435.04,999.663C1434.97,993.056 1429.39,986.437 1428.55,979.968C1427.88,974.837 1428.31,969.794 1429.96,964.858C1430.62,962.913 1438.67,950.673 1447.56,939.93ZM1438.74,1004.56C1439.09,1003.02 1439.53,1001.53 1440.05,1000.1C1437.71,1001.69 1436.61,1003.32 1438.74,1004.56Z" style="fill:#fff;"/>
            <path d="M1744.05,1028.36C1745.06,1027.6 1746.2,1026.87 1747.46,1026.18C1751,1024.22 1756.45,1022.05 1762.64,1019.88C1760.69,1018.28 1759.48,1016.85 1759.01,1015.87C1754.93,1007.32 1755.1,999.354 1761.3,992.898C1761.19,992.896 1761.09,992.893 1761,992.891C1759.24,992.848 1757.88,992.61 1757.88,992.61C1757.88,992.61 1766.19,983.164 1771.49,973.2L1765.11,972.241C1758.31,970.1 1750.8,956.05 1751.49,951.233C1752.2,946.247 1754.74,941.309 1761.28,937.898C1775.17,930.658 1802.8,927.365 1835.26,927.418C1847.26,927.438 1859.97,927.85 1872.83,928.521C1905.22,927.176 1950.17,926.237 1972.76,929.436C1979.38,930.374 1984.85,932.174 1989.24,934.323C1990.24,934.02 1991.23,933.751 1992.23,933.52C2002.49,931.137 2022.45,931.45 2029.32,935.046C2030.68,935.762 2031.91,936.547 2033.01,937.392C2081.91,941.156 2099.11,949.727 2093.47,958.298C2098.26,965.583 2086.56,972.869 2052.9,977.202C2053.71,980.948 2054.93,993.633 2044.37,1001.87C2046.7,1004.34 2048.2,1007.08 2048.99,1009.83C2049.89,1012.94 2050.92,1019.88 2047.03,1026.46C2048.82,1026.61 2050.63,1026.73 2052.44,1026.83C2085.93,1028.6 2120.89,1025.65 2154.27,1027.4C2154.42,1026.78 2154.58,1026.14 2154.76,1025.51C2155.05,1024.47 2155.77,1022.58 2157.18,1020.29C2153.7,1016.12 2151.85,1011.04 2153.01,1004.92C2149.38,1003.12 2146.37,1000.96 2144.04,998.648C2137.9,992.546 2132.92,980.399 2139.08,969.466C2136.87,959.079 2140.21,947.538 2141.42,946.346C2147.82,940.017 2156.68,935.927 2167.52,934.578C2168.07,934.166 2168.64,933.759 2169.24,933.357C2171.16,932.066 2176.49,929.392 2184.92,929.005C2194.56,928.562 2216.79,929.911 2230.95,931.203C2236.81,931.738 2241.42,932.306 2243.55,932.687C2248.48,933.566 2252.17,935.229 2254.89,937.39C2265.93,937.299 2276.38,937.572 2286.16,938.145C2356.36,940.538 2379.01,950.103 2369.25,960.041C2376.19,971.946 2344.83,984.222 2256.07,984.896C2255.66,989.579 2254.22,993.792 2252.77,996.255C2251.88,997.774 2249.73,1002.01 2243.48,1005.24C2243.37,1009.25 2242.38,1013.17 2240.94,1016.36C2241.26,1016.74 2241.55,1017.1 2241.8,1017.43C2245.71,1022.56 2255.9,1041.12 2232.97,1052.5L2230.22,1053.39C2230.33,1053.87 2230.39,1054.2 2230.39,1054.32C2230.38,1055.57 2230.27,1056.91 2230.02,1058.31C2234.54,1062.84 2235.41,1068.22 2235.73,1071.27C2236.39,1077.65 2235.27,1085.71 2225.95,1091.79C2224.84,1092.51 2221.91,1094.64 2216.22,1095.23C2215.93,1095.25 2215.32,1095.32 2214.35,1095.33L2182.07,1100.99C2182.03,1101.01 2181.98,1101.03 2181.93,1101.05C2177.29,1103.18 2170.96,1103.01 2166.63,1103.87C2156.46,1105.87 2129.62,1111.7 2097.86,1115.9C2063.23,1120.48 2022.93,1122.96 1993.22,1124.11C1972.62,1124.91 1956.55,1124.42 1949.21,1122.55C1939.78,1120.14 1935.28,1114.9 1933.48,1111.08C1933.53,1111.19 1935.09,1108.5 1937.16,1104.81L1934.84,1104.73C1932.92,1106.93 1929.06,1110.11 1921.83,1111.29C1921.33,1111.37 1920.25,1111.4 1918.47,1111.5C1903.04,1112.34 1887.63,1113.5 1872.1,1113.69C1836.37,1114.12 1800.54,1112.11 1764.83,1111.9L1754.76,1111.43C1746.6,1112.3 1735.75,1113.22 1723.35,1114.14C1723.68,1114.3 1724.01,1114.47 1724.33,1114.64C1727.9,1116.51 1730.51,1118.51 1732.36,1120.58C1751.44,1119.33 1758.09,1137.34 1758.09,1138.53C1758.09,1141.18 1756.42,1148.38 1749.38,1154.13C1750.6,1158.93 1749.33,1164.03 1745.01,1169.45C1744.98,1169.48 1744.95,1169.51 1744.93,1169.55C1744.93,1169.55 1744.93,1169.55 1744.93,1169.56C1744.93,1175.42 1742.55,1182.11 1735.93,1187.51C1738.8,1192.69 1737.75,1198.68 1735.86,1203.73C1735.51,1204.66 1734.34,1206.01 1732.66,1207.54C1735.51,1210.22 1737.07,1213.54 1737.9,1216.86C1738.85,1220.69 1740.03,1228.08 1732.2,1235.91C1730.71,1237.4 1728.18,1238.68 1725.59,1239.7C1729.98,1247.14 1728.47,1254.73 1722.68,1262.26C1721.86,1263.33 1720.58,1264.48 1719.06,1265.63C1720.44,1267.32 1721.57,1269.25 1722.39,1271.39C1724.61,1277.21 1724.07,1283.43 1721.39,1288.58C1732.07,1293.81 1735.23,1306.21 1735.21,1308.42C1735.13,1315.28 1732.65,1321.94 1725.98,1326.96C1720.55,1331.04 1701.88,1333.32 1701.31,1333.31C1700.72,1333.3 1700.15,1333.29 1699.58,1333.26L1695.55,1334.15C1687.08,1338.64 1676.33,1337.32 1669.2,1330.19C1665.29,1326.28 1663.13,1321.29 1662.71,1316.17C1654.23,1314.67 1650.4,1309.45 1648.4,1306.05C1647.94,1305.26 1647.51,1304.45 1647.13,1303.6C1643.27,1302.4 1639.79,1300.78 1636.83,1298.77C1624.3,1290.21 1625.1,1280.27 1628.19,1272.62C1629.65,1269.01 1632.51,1264.43 1638.37,1261.11C1639.95,1260.21 1642.42,1259.32 1645.15,1258.46C1644.37,1256.44 1643.95,1254.24 1643.84,1251.89C1643.7,1249.17 1643.52,1243.27 1649.17,1237.42C1649.33,1237.26 1649.54,1237.06 1649.79,1236.82C1646.26,1233.12 1644.82,1227.95 1645.54,1221.55C1645.88,1218.45 1648.14,1214.25 1651,1210.69C1647.16,1206.42 1645.83,1201.22 1645.83,1197.62C1645.84,1195.48 1646.24,1193.18 1647.08,1190.85C1645.93,1189.54 1645.05,1188.16 1644.37,1186.88C1642.47,1183.28 1638.51,1174.53 1647.46,1164.81C1642.84,1162.15 1639.87,1157.9 1638.95,1151.72C1633.93,1151.86 1629.22,1151.64 1624.97,1150.88C1605.8,1147.42 1606.3,1134.49 1609.14,1124.67C1609.41,1123.74 1610.55,1122.16 1612.14,1120.33C1594.87,1121 1580.49,1121.36 1571.99,1121.28C1568.92,1121.24 1566.17,1120.95 1563.76,1120.51C1558.59,1120.45 1554.25,1120.02 1551.52,1119.12C1539.94,1115.32 1536.72,1106.66 1536.24,1099.99C1535.91,1095.4 1536.98,1089.47 1542.8,1083.44C1544.79,1081.38 1552.91,1076.67 1566.27,1076.42C1582.11,1076.12 1613.15,1078.36 1634.71,1080.11C1649.56,1079.18 1665.34,1078.09 1680.62,1076.93L1680.62,1067.98C1679.91,1067.94 1679.2,1067.91 1678.49,1067.88L1584.6,1066.24C1582.67,1065.98 1569.25,1061.79 1558.55,1060.61C1556.88,1065.35 1551.84,1068.12 1546.88,1066.86L1533.73,1062.98C1526.06,1062.74 1528.28,1055.15 1526.98,1051.75C1526.22,1049.79 1528.87,1043.57 1539.87,1037.91C1550.28,1032.56 1580.87,1028.14 1584.6,1027.63L1679.8,1026C1700.96,1026.36 1722.42,1027.28 1744.05,1028.36ZM2056.6,1108.91C2057.29,1108.96 2058.03,1108.99 2058.82,1108.99L2056.6,1108.91ZM2106.06,1062.26C2106.17,1062.79 2106.25,1063.32 2106.32,1063.85C2105.8,1064.31 2105.38,1064.78 2105.07,1065.26L2106.44,1065.21C2106.52,1066.55 2106.47,1067.9 2106.32,1069.23C2106.58,1069.21 2106.84,1069.19 2107.1,1069.17C2107.91,1069.11 2108.72,1069.04 2109.54,1068.97C2110.39,1067.76 2111.41,1066.53 2112.64,1065.3C2112.73,1065.21 2112.82,1065.11 2112.93,1065.02L2127.89,1064.57C2124.69,1064.19 2121.47,1063.84 2118.25,1063.51C2117.22,1063.41 2116.2,1063.3 2115.17,1063.2C2118.07,1061.13 2122.71,1058.64 2129.08,1056.74C2129.96,1056.48 2130.95,1056.2 2132.04,1055.89C2120.21,1057.67 2112.43,1059.94 2108.22,1062.48C2107.5,1062.41 2106.78,1062.34 2106.06,1062.26ZM1774.22,992.9C1774.18,992.83 1774.14,992.759 1774.1,992.688L1772.25,992.745C1771.1,992.836 1769.22,992.885 1767.3,992.907C1769.68,992.913 1771.98,992.911 1774.22,992.9ZM2106.32,1063.85C2106.84,1063.39 2107.47,1062.93 2108.22,1062.48C2110.54,1062.72 2112.86,1062.96 2115.17,1063.2C2114.25,1063.86 2113.5,1064.48 2112.93,1065.02L2106.44,1065.21C2106.41,1064.76 2106.37,1064.3 2106.32,1063.85ZM2015.32,1027.86C2015.77,1028.67 2016.24,1029.48 2016.71,1030.22C2016.5,1029.49 2016.22,1028.69 2015.85,1027.88C2015.68,1027.87 2015.5,1027.86 2015.32,1027.86Z" style="fill:#fff;"/>
            <path d="M1920.12,1738.39C1919.98,1739.44 1919.87,1740.56 1919.88,1741.28C1919.86,1740.41 1919.94,1739.44 1920.12,1738.39ZM1640.22,1776.02C1637.79,1771.03 1637.69,1765.15 1640.08,1760.02C1642.9,1753.93 1648.78,1749.83 1655.47,1749.29L1670.47,1749.01C1676.15,1749.68 1681.74,1750.47 1687.28,1751.27C1690.53,1737.97 1694.32,1723.94 1697.39,1709.84C1699.98,1697.94 1701.65,1686.04 1701.89,1674.73C1702.13,1663.61 1702.97,1652.52 1705.26,1641.63C1707.92,1628.93 1713.03,1616.93 1714.92,1604.14C1716.57,1593.05 1717.64,1582.02 1717.95,1570.87C1718.57,1547.99 1717.43,1525.15 1717.75,1502.32C1709.22,1493.68 1708.62,1483.26 1714.53,1471.8C1715.6,1469.74 1717.67,1467.23 1720.12,1464.74L1722.47,1439.22L1722.44,1439.09C1720.82,1432.1 1721.83,1414.27 1723.15,1410.2C1725.62,1402.62 1730.91,1399.41 1734.78,1397.53C1731.47,1392.91 1731.61,1387.28 1732.61,1382.4C1733.07,1380.12 1737.85,1374.45 1742.75,1370.11C1743.46,1364.46 1746.48,1359.72 1750.47,1356.74C1755.99,1352.61 1762.41,1349.46 1769.35,1347.03C1780.86,1343 1794.06,1341.24 1804.64,1337.73C1806.81,1337 1809.01,1336.31 1811.19,1335.64C1811.69,1334.39 1812.27,1333.18 1812.89,1332.02C1814.61,1328.79 1817.66,1324.29 1823.67,1321.13C1823.78,1321.08 1823.88,1321.02 1824,1320.96C1822.57,1319.46 1821.44,1317.93 1820.81,1316.5C1816.22,1306.12 1818.1,1297.02 1827.92,1290.79C1830.61,1289.08 1833.37,1287.51 1836.2,1286.05C1834.64,1284.61 1833.65,1283.27 1833.2,1282.37C1832.6,1281.16 1826.73,1265.51 1841.83,1258.21C1842.79,1257.75 1844.83,1256.85 1847.68,1255.64C1851.34,1254.1 1856.54,1251.95 1862.48,1249.5C1856.13,1248.26 1849.28,1246.16 1847.75,1244.5C1842.36,1238.65 1837.85,1229.87 1848.5,1219.25C1849.81,1217.94 1852.03,1216.45 1854.89,1214.85C1845.65,1214.74 1835.32,1214.29 1832.78,1212.51C1824.75,1206.88 1817.54,1197.36 1830.97,1183.99C1831.59,1183.36 1833.66,1182.3 1836.8,1180.9C1836.42,1180.57 1836.13,1180.29 1835.93,1180.1C1830.25,1174.69 1829.28,1168.56 1831.68,1162.03C1832.24,1160.52 1833.77,1156.67 1838.23,1153.7C1837.13,1151.98 1836.39,1150 1836.1,1147.87C1835.15,1140.85 1839.4,1134.17 1846.15,1132.04L1865.88,1126.95C1885.91,1122.05 1917.45,1105.34 1928.05,1106.36C1936.93,1107.2 1943.26,1110.87 1941.81,1121.17C1946.74,1122.28 1950.97,1123.97 1954.29,1126.17C1962.92,1131.9 1963.24,1139.03 1961.91,1144.84C1961.67,1145.89 1961.31,1147.02 1960.79,1148.17C1961.08,1148.64 1961.34,1149.1 1961.56,1149.53C1964,1154.24 1966.75,1164.73 1954.95,1172.8C1952.59,1174.41 1946.53,1176.85 1938.49,1179.7C1949.85,1183.71 1953.56,1194.63 1953.56,1196.15C1953.57,1202.93 1950.28,1210.72 1941.36,1216.99C1940.08,1217.9 1938.56,1218.78 1936.84,1219.65C1941.64,1222.77 1944.29,1226.89 1945.49,1230.48C1948.4,1239.17 1946.56,1246.39 1941.37,1252.49C1949.27,1255.84 1951.34,1262.21 1951.72,1267.98C1952.01,1272.39 1942.13,1286.99 1935.32,1290.41C1929.85,1293.24 1924.08,1295.6 1918.14,1297.7C1921.41,1301.24 1924.51,1306.55 1923.95,1312.85C1925.12,1312.8 1926.25,1312.78 1927.34,1312.81C1928.41,1312.83 1932.95,1318.19 1936.28,1325.19C1956.74,1327.12 1959.54,1342.88 1958.64,1349.87C1958.3,1352.53 1956.92,1361.24 1946.16,1367.87C1947.34,1370.51 1948.14,1373.32 1948.23,1376.19C1954.16,1383.09 1952.66,1390.96 1949.83,1397.28C1948.26,1400.79 1934.4,1410.25 1927.48,1412.29L1852.42,1435.01C1850.34,1436.33 1847.88,1437.54 1845.06,1438.5C1840.25,1440.14 1831.6,1440.73 1831.6,1440.73C1831.26,1440.75 1830.92,1440.77 1830.58,1440.78C1831.94,1445.77 1831.31,1451.74 1827.04,1458.83C1832.05,1462.73 1836.71,1468.06 1837.73,1475.48C1839.24,1481.72 1840.17,1489.94 1840.19,1494.57C1840.34,1501.61 1838.63,1514.52 1835.25,1529.16C1837.47,1533.98 1837.46,1539.93 1836.08,1546.89C1835.61,1549.22 1830.74,1555.05 1826.01,1560.38C1824.96,1563.21 1823.86,1566 1822.7,1568.72C1822.21,1582.38 1821.42,1593.15 1820.5,1597.79C1815.18,1624.55 1803.83,1646.98 1798.08,1657.34C1795.8,1661.45 1793.2,1664.61 1790.39,1666.97C1795.24,1666.63 1804.32,1668.62 1806.53,1669.04L1875.76,1668.62C1907.78,1657.62 1943.49,1645.84 1976.13,1647.12C1998.26,1647.98 2018.83,1654.74 2036.8,1668.11C2039.98,1669.92 2042.53,1672.08 2044.56,1674.45C2045.82,1675.57 2047.07,1676.74 2048.3,1677.93C2056.11,1686.13 2057.61,1694.11 2057.25,1700.35C2056.8,1708.25 2054.17,1716.12 2046.55,1722.2C2046.42,1722.3 2046.28,1722.4 2046.12,1722.51C2045.5,1723.48 2044.83,1724.46 2044.13,1725.43C2043.03,1726.97 2041.69,1728.42 2040.23,1729.78C2042.82,1730.57 2045.1,1731.42 2047,1732.34C2054,1735.72 2059.14,1739.74 2062.76,1744.14C2080.2,1741.8 2095.88,1740.22 2106.82,1741.36C2110.4,1741.67 2132.97,1745.17 2139.87,1750.47C2150.1,1758.34 2154.31,1768.43 2153.56,1778.21C2152.55,1791.36 2148.05,1799.71 2141.16,1804.65C2140.28,1808.17 2138.78,1811.49 2136.75,1814.44C2136.61,1816.59 2136.44,1819.11 2136.25,1821.86C2138.77,1827.28 2140.02,1833.6 2140.2,1840.6C2140.43,1849.56 2137.7,1860.59 2139.74,1870.17L2152.68,1886.4C2157.94,1892.91 2166.14,1912.31 2165.85,1925.03C2165.61,1935.51 2157.49,1941.48 2148.51,1948.74C2137.24,1956.36 2117.96,1955.47 2102,1937.45C2100.67,1935.95 2099.37,1934.25 2098.11,1932.38C2089.19,1941.43 2078.24,1940.04 2064.43,1936.87C2055.06,1934.58 2047.34,1925.46 2041.94,1911.6C2036.35,1897.25 2038.99,1872.11 2044.95,1851.55C2045.5,1849.64 2046.1,1847.79 2046.74,1845.99C2042.01,1846.97 2035.92,1847.48 2028.86,1846.39C2012.64,1843.9 1988.18,1836.84 1974.26,1828.81C1958.14,1819.5 1952.57,1807.16 1954.31,1797.78C1947.73,1795.94 1942.17,1793.54 1937.85,1790.51C1923.73,1780.58 1923.41,1770.25 1928.37,1761.6C1922.77,1753.99 1920.94,1739.29 1920.6,1736.18C1920.78,1735.52 1920.99,1734.83 1921.23,1734.13C1894.98,1731.37 1867.32,1728.32 1844.5,1725.66C1840.63,1725.86 1822.63,1726.33 1815.81,1724.71C1815.54,1724.65 1815.28,1724.58 1815.02,1724.52C1820.57,1746.44 1830.33,1774.37 1829.71,1797.92C1829.02,1824.33 1818.2,1845.01 1796.74,1858.28C1778.29,1867.41 1766.33,1860.56 1758.57,1849.36C1754.75,1843.85 1753.38,1829.14 1753.34,1821.61C1745.72,1821.61 1737.55,1821.51 1729.35,1821.37C1721.58,1822.45 1714.29,1823.57 1708.02,1824.37C1704.87,1824.77 1681.68,1827.92 1672.89,1827.42C1670.12,1827.27 1667.64,1826.86 1665.43,1826.26C1665.35,1826.26 1665.28,1826.26 1665.2,1826.26C1656.15,1826.47 1648.34,1825.12 1642.41,1822.13C1633.72,1817.97 1630.81,1812.71 1629.28,1810.02C1623.19,1799.36 1625.35,1790.18 1630.64,1782.21C1631.81,1780.45 1635.82,1778.15 1640.22,1776.02ZM1770.02,1703.79C1768.88,1708.29 1767.6,1712.81 1766.15,1717.33C1761.86,1730.77 1756.56,1744.2 1751.53,1757.13C1758.45,1756.75 1765.46,1755.85 1772.66,1754.3L1781.07,1753.44C1778.61,1733.21 1773.96,1714.32 1770.22,1704.35C1770.15,1704.16 1770.09,1703.98 1770.02,1703.79ZM2138.63,1893.99C2141.75,1898.21 2145.09,1900.38 2148.17,1897.71C2150.33,1895.83 2143.38,1896.01 2141.82,1895.17C2140.74,1894.59 2139.68,1894.21 2138.63,1893.99ZM1797.03,1631.95C1795.71,1636.06 1795.76,1639.22 1799.15,1639.49C1802.2,1639.73 1798.64,1634.8 1797.03,1631.95ZM1654.42,1769.97C1654.42,1769.97 1654.43,1769.96 1654.43,1769.96C1654.43,1769.96 1654.38,1769.97 1654.3,1769.98C1654.34,1769.98 1654.38,1769.97 1654.42,1769.97ZM1652.06,1770.29C1651.98,1770.3 1651.91,1770.32 1651.87,1770.33C1651.93,1770.32 1651.99,1770.3 1652.06,1770.29ZM1920.6,1736.18C1920.4,1736.95 1920.24,1737.69 1920.12,1738.39C1920.31,1736.93 1920.54,1735.59 1920.54,1735.59C1920.54,1735.59 1920.56,1735.8 1920.6,1736.18Z" style="fill:#fff;"/>
            <path d="M2130.62,1646.98C2131.06,1646.79 2131.58,1646.64 2132.19,1646.54C2132.64,1646.43 2133.11,1646.33 2133.6,1646.24C2136.4,1645.71 2146.36,1644.32 2150.4,1643.65C2195.45,1635.88 2218.43,1635.03 2229.37,1635.73C2256.25,1637.47 2257.3,1658.41 2257.36,1660.03C2257.37,1660.74 2257.34,1661.51 2257.26,1662.31C2263.54,1667.58 2265.12,1674.45 2265.22,1680.64C2265.3,1685.44 2264.38,1694.41 2254.13,1701.41C2253.72,1701.69 2253.07,1702.09 2252.2,1702.55C2252.68,1710.44 2250.13,1718.2 2248.37,1721.06C2247.26,1722.85 2243.25,1729.13 2233.35,1732.44C2229.31,1733.79 2217.32,1736.55 2211.85,1738.07C2211.33,1738.17 2210.74,1738.24 2210.13,1738.29C2206.2,1743.29 2200.1,1746.49 2193.26,1746.49C2184.03,1748.79 2178.75,1744.81 2175.45,1743.81C2171.2,1742.54 2169.84,1738.61 2167.38,1736.4C2167.23,1736.27 2167.08,1736.13 2166.94,1735.99C2162.37,1736.05 2157.82,1736.06 2154.98,1735.94C2122.98,1734.61 2131.97,1695.82 2135.46,1692.35C2140.36,1687.5 2146.68,1683.19 2153.98,1679.61C2153.42,1678.07 2153.15,1676.91 2153.11,1676.41C2148.94,1676.58 2137.32,1679.05 2136.96,1676.5C2136.49,1676.52 2136.05,1676.54 2135.64,1676.55C2114.88,1678.09 2122.91,1651.83 2123.82,1650.78C2124.16,1650.38 2126.29,1648.35 2130.62,1646.98ZM2205.25,1738.6C2203.69,1738.76 2202.68,1739.1 2203.08,1739.94C2203.8,1741.45 2204.53,1740.32 2205.25,1738.6Z" style="fill:#fff;"/>
            <path d="M2039.66,1152.55C2038.71,1150.07 2038.21,1147.37 2038.2,1144.44C2038.19,1135.32 2042.32,1129.02 2049.37,1124.81C2053.38,1122.42 2061.72,1121.57 2066.88,1120.99C2070.72,1120.57 2074.56,1120.13 2078.41,1119.7C2082.85,1115.38 2089.82,1111.38 2099.19,1108.49C2127.28,1099.84 2180.84,1105.07 2191.78,1104.67L2241.1,1107.74C2247.33,1108.37 2260.65,1113.51 2262.73,1116.12C2268.12,1122.87 2272.44,1132.72 2260.97,1144.2C2259.79,1145.38 2258.07,1146.76 2255.78,1148C2254.02,1151.3 2250.86,1154.44 2245.57,1156.97C2245.05,1157.22 2244.1,1157.67 2242.71,1158.09C2242.16,1167.13 2237.57,1172.95 2230.07,1176.48L2235.99,1177.47C2237.96,1177.87 2240.22,1178.97 2242.49,1180.45L2243.49,1180.49C2261.14,1180.42 2264.83,1193.85 2265.26,1195.07C2267.31,1200.88 2269.89,1214.82 2253.37,1222.02C2252.52,1222.39 2250.63,1223.13 2247.74,1223.65C2245.63,1224.03 2240.29,1224.66 2235.17,1225.28C2224.9,1228.98 2209.41,1230.21 2201.52,1232.15C2197.02,1233.26 2182.5,1237.38 2182.34,1234.12C2182.34,1234.1 2182.34,1234.08 2182.34,1234.06L2181.44,1234.22C2177.97,1234.23 2174.58,1234.23 2171.28,1234.22C2162.35,1241.68 2152.3,1249.25 2142.29,1256.39C2146.81,1261.42 2148.38,1267.93 2145.96,1276.23C2145.37,1278.24 2143.66,1283.57 2137.13,1288.31C2135.12,1289.77 2130.49,1292.51 2124.38,1295.45C2110.83,1301.95 2089.69,1308.9 2076.78,1307.84C2064.31,1306.81 2055.8,1300.66 2051.2,1291.55C2048.59,1286.38 2047.89,1280.99 2049.06,1275.57C2042.4,1268.48 2041.01,1260.4 2045.45,1251.27C2045.86,1250.42 2046.6,1249.21 2047.73,1247.81C2045.74,1246.74 2044.24,1245.72 2043.66,1244.98C2038.7,1238.59 2034.69,1229.97 2040.98,1221.37C2032.75,1211.42 2036.11,1202.74 2040.58,1196.53C2042.08,1194.44 2044.37,1192.02 2047.8,1190.17C2046.83,1188.28 2046.41,1186.99 2046.41,1186.88C2046.43,1185.92 2046.51,1184.9 2046.68,1183.86C2028.47,1176.62 2033.92,1160.08 2039.21,1153.15C2039.34,1152.98 2039.49,1152.78 2039.66,1152.55ZM2184.14,1233.75C2184.3,1233.8 2184.4,1233.84 2184.4,1233.84C2184.4,1233.84 2184.37,1233.8 2184.3,1233.72L2184.14,1233.75ZM2239.81,1223.33C2239.8,1223.33 2239.78,1223.34 2239.77,1223.35C2240.92,1223.52 2242.16,1223.62 2243.49,1223.62L2239.81,1223.33Z" style="fill:#fff;"/>
            <path d="M2142,1368.4C2136.58,1365.45 2134.51,1361.26 2133.68,1358.4C2132.16,1353.23 2131.34,1346.81 2136.57,1340.72C2138.89,1338.02 2153.29,1330.84 2159.76,1329.71C2165.35,1328.81 2194.37,1319.82 2207.8,1322.05C2216.48,1323.49 2221.47,1326.55 2224.12,1329.82C2224.28,1329.82 2224.44,1329.82 2224.6,1329.82C2232.77,1330.02 2240.59,1331.18 2247.89,1333.62C2259.54,1337.53 2260.83,1345.97 2261.2,1349.98C2261.52,1353.44 2261.16,1357.51 2258.81,1361.37C2258.89,1367.23 2257.23,1373.12 2255.83,1376.34C2256.84,1378.91 2257.4,1381.87 2257.47,1385.24C2257.58,1390.46 2254.25,1401.29 2240.36,1407.32C2237.93,1408.37 2234.74,1409.47 2231.11,1410.56C2231.46,1415.76 2229.65,1421.08 2225.68,1425.06C2218.85,1431.89 2208.03,1432.32 2200.7,1426.37C2200.88,1426.64 2200.99,1426.94 2200.97,1427.29C2200.82,1430 2195.41,1428.59 2192.34,1429.17C2185.52,1430.46 2178.56,1431.35 2172.67,1430.99C2163.36,1430.41 2155.65,1426.99 2150.01,1421.11C2144.43,1415.29 2142.56,1409.8 2142.68,1404.87C2129.84,1403.28 2127.31,1392.65 2127.03,1391.66C2125.71,1387.01 2123.95,1375.35 2137.68,1369.64C2138.35,1369.37 2139.8,1368.81 2142,1368.4ZM2156.82,1334.88C2156.22,1334.77 2155.58,1334.67 2154.91,1334.6C2155.55,1334.7 2156.18,1334.8 2156.82,1334.88Z" style="fill:#fff;"/>
            <path d="M2142.32,2073.1C2142.4,2073.08 2142.47,2073.07 2142.55,2073.06C2142.41,2071.6 2142.52,2070.11 2142.88,2068.59C2143.4,2066.44 2144.43,2059.21 2152.85,2056.45C2154.53,2055.9 2161.15,2054.67 2163.86,2054.31C2170.57,2053.45 2205.01,2048.72 2221.92,2051.98L2233.66,2051.32C2241.3,2051.29 2245.15,2054.23 2246.61,2055.36C2253.37,2060.61 2260.27,2071.23 2250.24,2081.03C2250.74,2082.82 2250.92,2084 2250.9,2084.07C2249.58,2087.98 2246.83,2092.22 2242.15,2095.92C2242.32,2096.73 2242.44,2097.59 2242.5,2098.47C2245.24,2099.28 2247.53,2100.32 2248.67,2101.55C2251.49,2104.57 2253.71,2108.59 2253.7,2114.38C2253.69,2117.87 2251.38,2128.05 2239,2133.36C2231.54,2136.57 2213.24,2147.24 2204.85,2147.8C2200.61,2152.37 2194.08,2154.55 2187.62,2152.94C2173.84,2149.55 2171.91,2140.1 2171.65,2135.01C2171.61,2134.13 2171.62,2133.17 2171.72,2132.15C2168.86,2130.87 2166.86,2129.35 2165.68,2128.18C2162.69,2125.2 2161.01,2121.9 2160.47,2118.31C2157.74,2117.1 2155.6,2115.87 2154.88,2114.97C2153.35,2113.06 2151.93,2110.91 2150.97,2108.59C2150.78,2108.62 2150.6,2108.65 2150.44,2108.67C2149.41,2108.82 2148.39,2108.97 2147.37,2109.11C2141.3,2110.02 2135.42,2110.78 2129.75,2111.39C2067.8,2118.77 2045.27,2113.78 2050,2104.84C2044.05,2096.56 2069.16,2083.79 2142.32,2073.1ZM2159.33,2055.48C2159.27,2055.48 2159.21,2055.49 2159.15,2055.49L2159.33,2055.48Z" style="fill:#fff;"/>
            <path d="M1941.9,1995.21C1938.92,1991.25 1937.32,1985.84 1941.16,1978.29C1943.16,1974.38 1948.57,1968.8 1958.57,1965.7C1961.48,1964.8 1965.04,1963.95 1969.02,1963.14C1970.08,1959.22 1969.38,1955.96 1965.04,1954.89C1969.02,1954.99 1986.48,1957.29 1995.49,1956.02C1996.55,1954.66 1997.97,1953.61 1999.6,1952.99C1998.89,1953.89 1998.12,1955.24 1997.85,1955.4C1997.72,1955.48 1997.6,1955.56 1997.48,1955.64C1999.69,1955.08 2001.02,1954.17 2000.89,1952.76C2000.88,1952.71 2000.88,1952.66 2000.87,1952.61C2001.65,1952.43 2002.47,1952.36 2003.31,1952.39C2006.72,1951.62 2009.83,1950.99 2012.66,1950.48C2012.38,1949.64 2012.06,1948.8 2011.71,1947.97L2014.46,1947.62L2036.1,1946.15C2040.36,1946.12 2049.41,1948.13 2051.16,1949.67C2055.55,1953.53 2059.48,1959.49 2054.79,1969.06C2054.53,1969.6 2054.19,1970.15 2053.78,1970.72C2055.39,1974.47 2055.06,1978.6 2054.17,1982.28C2065.05,1989.87 2061.85,1998.98 2057.03,2005.54C2055.04,2008.23 2040.84,2013.67 2034.7,2015.73C2034.64,2015.75 2034.58,2015.77 2034.51,2015.79C2038.38,2023.69 2036.21,2035.6 2035.76,2035.82C2032.99,2037.21 2029.97,2037.61 2027.12,2037.17C2026.28,2037.45 2025.3,2037.65 2024.18,2037.75C2011.5,2038.84 1983.64,2041.27 1971.44,2040.51C1963.28,2040 1958.3,2036.75 1956.46,2034.99C1954.43,2033.06 1952.98,2030.89 1952.23,2028.46C1948.75,2028.92 1945.14,2028.97 1941.63,2028.65C1936,2028.89 1932.04,2027.83 1929.48,2025.95C1915.05,2020.43 1910.03,2007.85 1941.9,1995.21ZM1960.99,1954.47C1965.17,1908.26 2002.09,1925.47 2011.71,1947.97L1960.99,1954.47ZM1960.99,1954.47C1960.99,1954.49 1960.99,1954.51 1960.99,1954.52C1960.81,1954.53 1960.63,1954.53 1960.45,1954.54L1960.99,1954.47ZM1965.04,1954.89C1964.92,1954.89 1964.81,1954.89 1964.71,1954.89C1963.82,1954.94 1960.92,1955.24 1960.98,1954.61C1960.98,1954.58 1960.98,1954.55 1960.99,1954.52C1962.59,1954.49 1963.93,1954.62 1965.04,1954.89ZM1972.21,1983.03C1972.14,1982.71 1972.07,1982.39 1971.98,1982.09L1968.97,1982.31C1968.36,1982.43 1967.85,1982.53 1967.49,1982.6C1965.97,1982.81 1962.62,1982.9 1960.72,1982.92L1960.45,1982.94C1964.66,1983.12 1968.58,1983.15 1972.21,1983.03ZM1999.6,1952.99C2000.19,1952.23 2000.73,1951.78 2000.87,1952.61C2000.43,1952.71 2000.01,1952.84 1999.6,1952.99Z" style="fill:#fff;"/>
            <path d="M1639.85,1972.4C1640.39,1969.37 1641.98,1965.99 1645.99,1963.23C1647.03,1962.52 1652.17,1960.71 1654.34,1960.18C1661.01,1958.93 1676.83,1956.34 1687.35,1955.99L1703.03,1953.15C1707.99,1951.97 1720.18,1948.84 1723.49,1948.54C1735.44,1947.45 1739.39,1954.65 1740.15,1961.04C1746.81,1967.12 1747.08,1977.56 1746.32,1979.09C1744.89,1981.99 1740.72,1986.35 1733.9,1989.91C1733.93,1990.13 1733.96,1990.36 1733.98,1990.58C1734,1990.59 1734.02,1990.6 1734.04,1990.61C1734.02,1990.6 1735.17,2020.89 1735.17,2020.89C1735.17,2020.89 1734.11,2021.44 1733.13,2021.94C1727.5,2024.81 1713.6,2031.87 1711.88,2032.62L1671.01,2047.18C1661.99,2049.43 1652.84,2043.94 1650.58,2034.92C1649.56,2030.84 1650.13,2026.73 1651.89,2023.24C1650.64,2020.7 1650.23,2018.01 1650.37,2015.29C1650.4,2014.81 1650.44,2014.13 1650.57,2013.32C1645.45,2009.75 1644.43,2004.03 1644.25,2001.28C1642.16,2001.23 1640.54,2000.98 1639.72,2000.46C1633.91,1996.78 1628.26,1990.44 1634.11,1978.87C1635.03,1977.05 1636.88,1974.69 1639.85,1972.4Z" style="fill:#fff;"/>
            <path d="M1730.3,2126.58C1729.2,2124.34 1733.58,2117.5 1734.5,2115.16C1736.03,2111.27 1741.88,2093.06 1747.73,2083.75C1748.77,2082.09 1749.88,2080.62 1751.03,2079.31C1750.63,2078.81 1750.32,2078.37 1750.05,2078.04C1747.21,2074.54 1749.6,2071.63 1750.43,2067.43C1750.94,2064.83 1755.18,2061.31 1763.79,2058.04C1778.37,2052.51 1814.64,2053.13 1817.76,2052.85C1841.22,2051.46 1867.06,2050.28 1892.37,2051.31C1904.94,2051.82 1917.36,2052.95 1929.32,2054.82C1928.57,2055.99 1927.81,2057.74 1927.07,2059.84C1930.07,2060.01 1934,2060.07 1933.61,2058.12C1933.39,2057.02 1933.16,2056.12 1932.91,2055.41C1936.62,2056.04 1940.29,2056.75 1943.9,2057.54C1952.25,2059.35 1955.15,2064.49 1956.63,2066.75C1959.81,2071.59 1963.55,2085.04 1952.53,2093.15C1954.63,2094.25 1956.34,2095.53 1957.63,2096.88C1968.39,2108.21 1964.09,2117.18 1958.32,2123.1C1956.11,2125.38 1942.75,2129.27 1936.75,2129.12L1933.77,2128.84C1931.16,2131.14 1930.95,2135.23 1931.1,2139.84C1943.16,2142.87 1954.81,2146.36 1959.17,2147.39C1974.23,2150.99 2005.41,2145.15 2026.1,2149.7C2036.19,2151.92 2044.55,2156.05 2050.49,2162.08C2054.1,2165.75 2058.3,2172.93 2055.39,2183.33C2053.54,2189.93 2045.01,2203.61 2041.74,2209.1C2046.91,2210.87 2041.11,2226.94 2040.44,2232.27C2039.54,2239.39 2036.43,2243.81 2034.35,2245.86C2030.92,2249.29 2026.27,2251.21 2021.42,2251.21L2019.16,2251.2C1999.17,2251.05 1943.52,2251.91 1902.49,2244.78C1896.71,2245.66 1891.07,2246.24 1886.53,2246.02C1884.37,2249.85 1880.82,2252.78 1876.56,2254.13C1876.44,2254.27 1876.31,2254.39 1876.19,2254.51C1873.11,2257.4 1868.64,2259.12 1862.23,2259.55C1853.05,2260.16 1849.1,2255.35 1847.21,2253.44C1842.26,2248.4 1841.74,2242 1844.87,2234.54C1845.6,2232.8 1848.82,2230.03 1852.96,2227.37C1822.24,2219.35 1827.59,2204.22 1843.77,2194.61C1844.18,2192.12 1844.78,2189.51 1845.58,2186.82C1848.42,2177.26 1850.86,2161.57 1854.31,2148.75C1846.31,2147.4 1835.99,2145.37 1824.93,2143.39C1817.39,2142.62 1809.07,2141.47 1801.52,2139.61C1792.8,2138.41 1784.29,2137.55 1776.7,2137.36C1772.32,2137.24 1766.89,2137.8 1763.82,2138.18C1763.78,2138.29 1763.75,2138.4 1763.72,2138.49C1757.28,2158.06 1738.45,2148.91 1734.77,2145.25C1733.79,2144.27 1729.95,2140.8 1729.8,2132.44C1729.77,2130.42 1729.93,2128.47 1730.3,2126.58ZM1929.32,2054.82C1930.63,2052.79 1931.89,2052.56 1932.91,2055.41C1931.72,2055.21 1930.52,2055.01 1929.32,2054.82ZM1881.81,2185.14C1884.65,2184.95 1887.65,2184.78 1890.72,2184.62C1890.67,2183.22 1890.65,2181.89 1890.69,2180.75C1890.71,2180.09 1890.74,2179.43 1890.76,2178.77C1890.51,2178.54 1890.26,2178.3 1890.01,2178.05C1888.59,2176.61 1887.34,2175.2 1886.26,2173.81C1884.71,2177.64 1883.19,2181.45 1881.81,2185.14ZM1871.43,2254.95C1871.37,2254.95 1871.32,2254.95 1871.27,2254.95C1871.32,2254.95 1871.37,2254.95 1871.43,2254.95ZM1932.17,2178.25C1932.18,2178.74 1932.19,2179.24 1932.2,2179.73C1933.35,2179.68 1934.51,2179.65 1935.68,2179.63C1934.53,2179.17 1933.36,2178.71 1932.17,2178.25ZM2009.91,2185.68C2010.63,2186.04 2011.28,2186.39 2011.82,2186.73C2011.98,2186.44 2012.15,2186.15 2012.31,2185.85C2012.25,2185.85 2012.18,2185.84 2012.12,2185.84C2011.39,2185.78 2010.65,2185.72 2009.91,2185.68ZM1786.22,2084.7C1786.64,2086.23 1786.93,2087.89 1787.1,2089.69C1787.18,2090.58 1787.2,2091.55 1787.17,2092.6C1790.2,2091.38 1792.71,2090.51 1793.57,2090.26C1797.22,2089.2 1803.47,2088.77 1811.1,2088.72C1812.12,2087.56 1813.42,2086.46 1815.09,2085.5C1809.21,2085.37 1797.36,2085.1 1786.22,2084.7Z" style="fill:#fff;"/>
        </g>
    </g>
</svg>
