<?xml version="1.0" encoding="UTF-8" standalone="no"?>
<!DOCTYPE svg PUBLIC "-//W3C//DTD SVG 1.1//EN" "http://www.w3.org/Graphics/SVG/1.1/DTD/svg11.dtd">
<svg width="100%" height="100%" viewBox="0 0 2363 2363" version="1.1" xmlns="http://www.w3.org/2000/svg" xmlns:xlink="http://www.w3.org/1999/xlink" xml:space="preserve" xmlns:serif="http://www.serif.com/" style="fill-rule:evenodd;clip-rule:evenodd;stroke-linejoin:round;stroke-miterlimit:2;">
    <g id="Layer1">
        <g id="_3" serif:id="3">
            <path d="M171.419,112.001C171.853,111.813 172.261,111.635 172.641,111.467C185.98,105.585 215.049,103.27 249.592,104.968C288.183,106.865 334.482,112.991 369.039,116.392L417.777,100.785C452.38,95.096 587.033,92.373 687.26,97.885C752.474,101.471 803.992,112.56 814.514,123.13C818.103,126.734 822.977,134.427 825.628,147.082C829.842,167.192 831.96,209.307 832.439,262.81C832.823,305.534 832.264,355.829 831.224,407.788C834.074,461.086 832.384,517.002 826.909,569.424C824.084,659.015 821.256,733.506 821.24,756.736L821.277,762.546C821.277,767.814 819.579,772.907 816.486,777.093C814.43,781.851 806.124,799.869 796.191,804.915C773.704,816.339 692.111,822.023 591.575,822.476C473.115,823.01 326.953,821.874 227.325,815.983C188.83,813.706 157.632,809.534 137.331,808.255C133.422,808.009 129.197,807.423 125.453,805.406C121.613,803.337 117.93,800.743 115.93,798.473C114.182,796.491 109.165,789.844 108.437,777.239C107.692,764.322 107.728,737.258 108.218,702.873C108.412,689.233 108.667,674.412 108.964,658.869C108.084,648.344 107.595,636.633 107.626,623.989C107.711,588.51 109.767,544.661 112.61,501.19C114.211,438.721 115.601,388.779 115.627,381.974C115.819,329.72 105.916,264.911 107.805,205.86C108.71,177.566 112.256,150.527 120.369,126.479C121.656,122.641 124.901,102.397 129.777,96.175C134.353,90.336 140.19,88.244 146.047,88.067C163.051,87.555 170.109,96.708 171.419,112.001ZM576.996,145.948C581.92,147.645 587.209,149.2 592.772,150.638C596.82,149.024 601.745,147.527 607.231,146.148C597.119,146.024 587.001,145.959 576.996,145.948ZM750.163,153.842C756.164,158.823 761.875,164.728 767.283,171.533C771.883,177.321 776.284,183.908 780.471,191.212C780.459,191.026 780.446,190.84 780.434,190.655C779.631,178.678 777.734,165.993 776.6,159.086C771.816,157.803 764.173,155.906 757.209,154.844C754.945,154.498 752.595,154.164 750.163,153.842ZM191.499,196.685C190.288,202.002 188.981,207.533 188.739,208.972L186.035,244.65C180.316,314.822 176.191,413.92 179.074,507.266C181.04,570.948 186.351,631.89 196.077,678.75L197.2,686.173C202.443,683.109 207.518,680.942 212.018,680.242C243.55,675.338 278.398,674.103 313.946,674.615C364.594,675.344 416.556,680.083 461.604,684.2C483.964,686.23 505.688,688.445 526.858,692.588C571.276,701.282 613.224,714.766 660.132,718.089C659.86,713.373 664.587,713.272 670.594,715.297C682.211,710.072 692.86,703.313 702.314,694.671C702.451,692.815 702.64,690.394 702.827,688.432C707.468,639.942 705.154,523.249 705.477,498.179C706.017,468.263 712.49,440.566 714.369,411.35C715.011,401.37 715.127,391.178 713.802,380.55C710.42,353.672 706.437,330.025 705.155,305.204C704.269,288.053 704.516,270.39 707.006,250.951C707.128,249.998 709.378,238.654 711.693,227.074C684.558,226.563 651.703,224.521 620.736,219.383C587.938,213.941 557.43,204.621 536.514,193.685C524.798,187.554 500.87,187.513 473.029,188.164C406.063,189.732 320.163,201.46 288.398,200.912C281.335,200.792 250.227,203.954 237.099,201.605C228.553,200.076 222.688,196.579 219.352,193.336C219.166,193.402 218.981,193.467 218.796,193.531C209.259,196.836 199.946,197.909 191.499,196.685Z" style="fill:#fff;"/>
            <path d="M113.322,1565.79C114.015,1563.75 114.794,1561.8 115.672,1560.01C119.976,1551.2 124.962,1547.15 124.962,1547.15C126.303,1542.42 130.924,1539.41 135.789,1540.09C137.953,1540.39 139.871,1541.39 141.332,1542.83C142.043,1542.45 142.737,1542.1 143.414,1541.78C147.575,1539.83 151.486,1538.52 155.161,1537.75C159.587,1495.57 167.344,1478.99 175.098,1481.56C182.838,1479 190.582,1495.51 195.011,1537.53C287.35,1534.16 499.609,1527.59 635.134,1527.43C710.983,1527.35 764.152,1530.96 764.331,1531.02C762.861,1530.47 757.606,1529.83 757.606,1529.83C757.606,1529.83 783.22,1527.78 790.739,1527.56C808.033,1527.07 817.918,1534.9 820.538,1537.71C825.122,1542.63 828.959,1548.43 830.199,1555.84C831.578,1564.07 824.018,1586.95 824.018,1586.95C824.018,1586.95 825.144,1584.03 825.323,1583.55C822.328,1591.57 820.571,1599.86 819.813,1608.36C819.302,1614.09 819.237,1619.87 819.345,1625.68C821.641,1640.61 822.908,1658.45 823.042,1678.3C823.294,1715.43 820.362,1760.67 816.687,1805.32C818.063,1849.9 819.359,1894.4 819.69,1938.81C820.128,1997.44 816.655,2055.8 817.218,2113.86C817.462,2138.99 818.99,2163.99 819.785,2188.96C820.287,2204.74 816.532,2211.74 811.866,2218.35C808.837,2222.64 804.078,2227.07 795.046,2231.95C783.498,2238.19 769.375,2241.27 754.034,2241.56C733.55,2241.95 710.08,2235.82 692.21,2235.54L664.324,2238.95L585.699,2253.92C533.6,2257.89 519.727,2242.7 522.941,2227.06C502.705,2229.5 460.255,2232.94 411.257,2235.74C385.507,2242.11 356.72,2247.2 332.286,2246.32C319.576,2245.87 307.894,2243.89 297.66,2240.29C288.82,2240.47 280.138,2240.58 271.701,2240.63C242.808,2240.8 216.609,2239.89 195.961,2238.07L195.977,2244.16C195.977,2256.89 185.955,2267.36 173.238,2267.92C160.522,2268.48 149.619,2258.93 148.501,2246.25L147.617,2239.21C142.064,2239.75 131.625,2239.54 123.613,2227.45C116.131,2226.91 109.017,2223.06 104.661,2218.73C101.808,2215.89 97.892,2210.59 96.268,2201.73C94.999,2194.82 94.893,2180.43 96.123,2162.2C96.125,2162.17 96.127,2162.14 96.129,2162.11C96.077,2154.19 97.148,2144.69 98.16,2137.67C102.891,2088.1 111.923,2025.05 114.639,2012.25C114.212,1964.73 114.229,1916.22 113.818,1879.15C110.143,1876 107.024,1871.28 106.037,1864.12C105.428,1859.71 109.388,1843.95 112.716,1832.56C112.452,1827.25 112.137,1822.98 111.758,1819.94C108.338,1789.57 106.202,1759.7 105.604,1729.88C105.015,1700.55 105.698,1671.32 106.644,1641.73C99.331,1638.71 93.989,1634.82 90.957,1631.1C82.273,1620.43 78.656,1607.6 90.498,1592.42C98.83,1581.75 106.436,1572.95 113.322,1565.79ZM146.213,1675.1C147.642,1666.53 149.003,1657.73 150.176,1648.99C148.511,1648.89 146.811,1648.79 145.092,1648.67C145.44,1657.51 145.81,1666.31 146.213,1675.1ZM214.556,2190.93C213.213,2190.65 211.877,2190.38 210.551,2190.13C205.373,2189.14 200.424,2188.21 195.807,2187.76C195.806,2188.98 195.807,2190.2 195.809,2191.41C201.329,2191.44 207.623,2191.26 214.556,2190.93ZM752.099,2138.2C752.287,2131.24 752.447,2124.26 752.554,2117.28C739.188,2115.53 729.014,2104.23 728.797,2090.63L732.331,2013.45C732.667,2011.26 733.073,2004.79 733.5,1994.96C731.439,1906.88 726.781,1743.75 729.687,1667.66C730.11,1656.6 730.803,1647.1 731.659,1639.48C731.273,1634.88 730.861,1630.51 730.421,1626.4C729.917,1621.68 729.178,1616.87 728.42,1612.57C711.163,1617.75 693.984,1624.69 679.905,1627.07C638.489,1634.09 596.314,1638.93 553.881,1642.25C523.783,1644.61 493.57,1646.3 463.451,1647.89C457.765,1649.14 452.469,1650.23 447.627,1651.1C420.499,1655.94 392.997,1658.3 365.397,1658.71C347.869,1658.97 330.314,1658.51 312.813,1657.7C297.199,1659.21 281.712,1660.95 266.385,1663.02C254.044,1664.51 242.261,1663.95 230.757,1661.99C219.916,1660.14 209.454,1656.77 198.873,1654.02L200.031,1914.56C205.801,1897.18 211.376,1882.72 216.535,1871.37C228.235,1836.74 234.707,1828.28 236.462,1841.88C253.085,1835.09 251.399,1911.35 204.932,2094.61C204.797,2095.41 204.662,2096.21 204.527,2097.01C203.534,2102.87 199.664,2122.41 198.602,2128.97C198.464,2129.9 198.316,2130.83 198.16,2131.76C198.144,2131.91 198.128,2132.06 198.112,2132.21C233.157,2132.44 282.264,2148.02 305.009,2144.67L313.28,2139.95C316.087,2138.55 319.068,2137.53 322.145,2136.91C342.561,2132.56 363.486,2129.77 384.673,2128.37C404.749,2127.05 425.046,2127.04 445.275,2127.18L462.705,2129.57C478.556,2129.57 491.816,2140.66 495.147,2155.51C504.018,2155.45 513.635,2155.71 523.638,2156.27C561.048,2153.12 691.756,2145.92 747.186,2138.89C748.773,2138.69 750.448,2138.45 752.099,2138.2ZM644.842,2170.46C645.493,2170.49 646.278,2170.53 647.164,2170.58C646.693,2169.97 645.869,2170 644.842,2170.46Z" style="fill:#fff;"/>
            <path d="M290.29,1786.21L290.271,1786.16L291.304,1785.86L294.405,1784.8C294.051,1775.99 294.147,1766.18 295.961,1759.26C299.468,1745.9 304.626,1740.77 305.988,1740.62C310.199,1740.15 312.972,1736.22 315.642,1739.48C316.571,1740.61 322.472,1740.64 321.403,1746.59C321.982,1748.27 322.062,1750 321.723,1751.62C322.004,1751.26 322.18,1751.04 322.18,1751.04C322.18,1751.04 325.718,1753.71 327.227,1758.1C328.608,1762.12 329.649,1767.23 330.456,1772.53C368.079,1760.52 446.106,1745.58 507.311,1749.77C513.389,1750.18 519.312,1750.81 525.046,1751.64C534.38,1750.7 542.808,1749.88 549.927,1749.22C576.23,1746.81 592.612,1753.84 594.17,1755.37C598.169,1759.29 603.956,1769.74 605.013,1786.76C606.285,1807.24 603.52,1845.02 598.751,1884.76C598.805,1885.06 598.858,1885.37 598.91,1885.68C605.456,1924.23 599.987,1977.34 600.453,2000.13L600.95,2023.37C600.95,2027.11 600.209,2030.69 598.861,2033.97C606.246,2080 573.091,2067.52 553.935,2045.34C552.46,2046.15 551.128,2046.73 550.023,2047.1C535.511,2051.8 520.031,2054.38 503.896,2055.16C492.64,2055.7 481.034,2055.34 469.265,2054.56C461.851,2208.9 426.852,2170.1 412.842,2049.81C390.852,2048.32 369.328,2048.2 349.476,2052.7L331.444,2062.75C324.265,2068.02 314.728,2068.81 306.779,2064.79C298.829,2060.77 293.818,2052.62 293.818,2043.71L294.414,2014.65C295.229,1972.63 297.139,1930.01 297.516,1887.56C297.555,1883.24 297.578,1878.93 297.582,1874.62C297.538,1872.07 297.531,1869.54 297.57,1867.04C297.538,1859.27 297.441,1851.51 297.263,1843.77C286.318,1842.74 276.396,1835.65 272.254,1824.72C266.558,1809.69 273.863,1792.85 288.734,1786.74L290.29,1786.21ZM408.551,1999.05C408.444,1997.12 408.342,1995.18 408.246,1993.22C408.178,1991.85 408.124,1988.78 408.138,1985.52C405.364,1984.76 402.661,1983.64 400.108,1982.25C394.349,1989.35 385.608,1993.83 375.953,1993.96C368.766,1994.05 362.024,1991.71 356.598,1987.64C353.835,1989.78 351.145,1991.06 348.971,1991.94C347.019,1992.73 343.884,1993.49 340.151,1993.76C340.2,1997.5 340.254,2001.24 340.314,2004.97C361.581,1999.58 384.823,1998.68 408.551,1999.05ZM317.236,1757.87C316.704,1758.18 316.133,1758.44 315.527,1758.65C315.033,1758.82 314.534,1758.95 314.035,1759.04C315.544,1759.17 316.573,1758.67 317.236,1757.87Z" style="fill:#fff;"/>
            <path d="M318.785,329.492C318.965,329.063 319.143,328.639 319.319,328.22C318.275,313.764 321.77,308.458 326.163,312.56C335.275,293.091 337.221,297.645 338.603,327.283L358.121,325.107L383.449,322.992C404.473,320.44 430.328,317.372 455.746,314.411C532.675,-154.737 617.342,-275.589 511.802,307.992C522.1,306.839 531.363,305.822 539.016,305.008C567.436,301.988 584.974,311.08 585.432,311.54C588.691,314.819 593.392,321.136 594.768,331.21C595.769,338.53 594.35,355.328 594.098,360.521C598.341,381.493 600.816,414.971 601.822,448.937C606.017,491.71 610.581,539.475 611.777,566.968C612.908,592.961 605.044,608.997 602.356,611.683C598.777,615.451 592.399,619.455 583.041,621.335C572.335,623.486 547.054,621.098 541.144,621.251C521.383,621.773 463.579,632.034 427.471,629.405C406.455,627.875 390.628,620.766 381.791,612.705C367.889,614.956 355.395,616.386 345.297,616.368C322.771,616.329 307.512,609.822 300.947,601.836C299.204,599.703 291.986,584.488 293.396,559.351C295.501,521.814 294.394,446.217 300.566,391.746C287.313,389.44 276.802,378.548 275.42,364.665C273.827,348.655 284.921,334.151 300.79,331.498L318.785,329.492ZM544.935,586.452C544.937,586.453 544.939,586.454 544.941,586.455C544.939,586.454 544.937,586.453 544.935,586.452ZM535.817,384.616C536.178,385.743 536.496,386.966 536.751,388.29C536.626,386.98 536.505,385.705 536.389,384.467C536.2,384.518 536.01,384.568 535.817,384.616ZM537.416,395.136C537.421,395.582 537.419,396.037 537.41,396.5C537.356,399.281 536.687,404.412 535.626,411.018C536.537,412.743 537.356,414.692 538.048,416.9C543.825,435.321 539.119,463.647 541.839,486.876C542.241,490.305 542.275,493.724 543.888,496.273C544.369,487.997 544.801,479.323 545.146,470.543C542.336,442.915 539.442,415.707 537.416,395.136Z" style="fill:#fff;"/>
            <path d="M1597.52,809.918C1596.66,810.56 1594.87,810.97 1594.03,811.344C1595.12,810.838 1596.29,810.363 1597.52,809.918ZM1548.19,115.325C1546.48,109.783 1545.57,104.855 1545.85,102.578C1546.4,98.222 1549.59,96.436 1551.71,94.579C1554.61,92.035 1559.87,91.567 1568.12,97.026C1572.51,99.942 1575.9,107.691 1577.05,118.678C1577.06,118.828 1577.08,118.979 1577.09,119.13L1642.67,109.041C1652.52,107.289 1855.68,100.889 1973.78,101.335C2022.61,101.519 2057.72,103.769 2061.79,104.861C2082.36,110.596 2102.65,114.542 2123.33,117.312C2128.78,117.152 2134.31,117.139 2139.86,117.248C2150.87,115.181 2162.2,113.353 2172.67,112.462C2192.76,110.753 2210.49,112.697 2222.13,118.271C2233.91,118.694 2242.41,122.064 2247.51,126.684C2251.15,129.841 2252.99,135.293 2253.38,140.801C2253.77,146.335 2250.82,151.395 2247.64,155.049C2246.72,156.109 2245.37,157.184 2243.62,158.211C2244.91,169.188 2245.85,183.753 2246.27,201.176C2248.55,295.549 2238.54,484.19 2234.67,613.03C2239.52,619.061 2244.03,636.13 2242.02,659.416C2240.78,673.879 2238.35,692 2235.76,709.679C2236.67,725.519 2237.93,741.075 2238.54,755.293C2239.11,758.15 2239.38,761.04 2239.34,763.943L2239.1,780.883L2227.83,780.883C2227.12,782.07 2226.38,783.188 2225.61,784.237L2224.85,796C2223.24,811.41 2209.85,822.865 2194.38,822.061C2182.44,821.441 2172.49,813.691 2168.57,803.066C2164.89,803.568 2161.06,804.019 2157.1,804.407C2092.65,810.725 1984.1,814.537 1961.15,815.106C1910.83,814.731 1789.14,804.412 1694.46,803.541C1652.79,803.158 1616.88,802.926 1597.52,809.918C1597.97,809.586 1598.16,809.191 1597.85,808.707C1590.8,797.843 1573.48,822.498 1565.91,819.04C1561.05,816.819 1554.67,816.798 1551.2,810.893C1549.35,808.671 1543.98,801.514 1542.78,787.794C1541.56,773.845 1539.02,744.677 1537.84,707.502C1534.09,589.891 1534.88,390.306 1532.25,362.042C1530.29,336.097 1529.49,310.329 1529.93,284.57C1530.58,246.366 1533.67,208.307 1537.67,169.841C1538.46,162.569 1544.86,135.094 1547.11,118.239C1547.23,117.339 1547.73,116.277 1548.19,115.325ZM1570.66,199.852C1578.31,186.89 1588.12,174.956 1591.05,171.478L1571.93,168.324C1571.7,169.947 1571.56,171.283 1571.52,172.259C1571.16,181.483 1570.87,190.678 1570.66,199.852ZM2187.82,172.449L2161.96,184.732C2160.29,187.339 2159.65,191.149 2159.71,195.93C2169.64,196.178 2178.72,198.171 2178.72,198.171C2178.72,198.171 2172.1,195.775 2169.27,195.732C2175.89,195.833 2184.14,198.207 2190.58,206.479C2190.53,205.354 2190.48,204.243 2190.43,203.144C2189.93,192.243 2188.81,181.015 2187.82,172.449ZM1549.06,113.308C1549.14,112.906 1549.04,112.673 1548.61,112.703C1548.07,112.74 1548.46,112.988 1549.06,113.308ZM2131.24,698.518C2129.26,689.692 2127.85,679.641 2126.93,669.493C2125.69,655.773 2125.97,641.95 2127.22,630.693C2132.8,599.584 2139.37,563.245 2142.75,527.71C2144.91,504.893 2145.91,482.442 2143.99,462.104C2139.38,413.469 2119.82,346.776 2119.1,288.018C2118.89,271.075 2120.13,254.725 2123.37,239.419C2122.63,234.284 2121.99,229.32 2121.47,224.573C2119.65,207.705 2119.78,192.999 2121.58,181.59C2112.15,183.77 2103.92,185.606 2097.99,186.424C2056.3,192.844 2015.19,196.236 1974.1,198.157C1913.66,200.982 1853.44,200.441 1791.75,202.021C1764.38,201.273 1737.67,198.673 1711.54,193.815C1682.91,188.492 1655.29,180.961 1627.06,176.439C1627.54,177.813 1627.87,179.251 1628.05,180.735L1627.75,202.649L1626.96,263.009C1627.7,309.849 1630.24,357.867 1634.01,406.071C1639.67,478.331 1648.12,550.928 1657.09,620.532L1668.35,732.311C1682.36,731.981 1697.61,731.231 1713.64,730.338C1823.04,724.238 1964.46,702.888 2020.13,696.148C2039.36,694.019 2087.04,693.523 2131.24,698.518Z" style="fill:#fff;"/>
            <path d="M1985.15,313.853L1985.8,313.836C1989.64,311.533 1993.73,309.804 1997.84,308.863C2010.43,305.983 2023.71,308.122 2035.16,319.682C2045.02,329.637 2045.24,339.844 2043.08,348.201C2041.71,353.492 2038.22,361.843 2028.68,367.062C2032.89,380.046 2036.16,395.821 2038.33,415.009C2041.56,443.359 2053.11,485.55 2056,522.616C2057.66,543.971 2056.32,563.901 2051.16,580.184C2049.11,586.668 2043.96,594.727 2033.2,600.328C2026.74,603.688 2013.07,606.371 2002.68,607.879C1998.86,612.069 1993.94,615.986 1989.06,620.187C1979,628.854 1952.98,628.388 1944.21,629.737C1937.62,630.251 1930.98,631.824 1924.01,632.301C1905.98,633.536 1887.18,632.886 1868.74,631.738C1847.59,630.421 1827.01,627.716 1808.3,619.91C1805.7,618.843 1795.32,612.619 1786.18,607.021C1777.88,610.578 1768.52,609.042 1763.88,607.902C1758.34,606.537 1746.13,595.465 1743.9,579.166C1741.89,577.9 1740.24,576.352 1738.92,574.521C1735.94,570.363 1732.93,565.469 1733.12,558.794C1733.26,553.676 1737.78,543.497 1738.92,537.744C1741.63,523.792 1743.55,509.752 1744.64,495.623C1745.74,481.341 1746.12,467.009 1745.84,452.644C1745.56,439.923 1735.81,396.51 1735.13,364.071C1735.05,363.978 1734.98,363.885 1734.9,363.792C1727.92,355.065 1720.02,340.706 1737.94,322.937C1746.27,314.679 1758.8,309.157 1774.62,307.891C1799.83,305.875 1838.33,317.227 1856.45,315.292C1917.39,308.468 1958.13,303.535 1985.15,313.853ZM1776.07,404.51L1777.07,381.588C1777.07,381.052 1777.08,380.515 1777.1,379.977C1777.09,378.528 1777.1,377.119 1777.12,375.75L1771.33,375.846C1772.63,385.305 1774.33,395.134 1776.07,404.51ZM1991.62,491.759C1991.49,496.262 1991.44,500.686 1991.46,505.006L1989.04,542.137C1988.9,543.451 1988.67,544.737 1988.38,545.99C1988.98,545.992 1989.59,545.991 1990.19,545.989C1990.9,546 1992.9,545.136 1995.29,544.218C1996.05,534.517 1995.38,523.734 1994.26,512.67C1993.55,505.749 1992.64,498.74 1991.62,491.759Z" style="fill:#fff;"/>
            <path d="M1316.54,144.343C1311.66,137.791 1310.62,130.814 1310.63,129.714C1310.75,118.397 1316.37,107.456 1330.02,101.139C1341.7,95.732 1365.21,94.633 1372.09,94.701C1377.23,94.739 1388.81,89.919 1396.66,89.59C1406.08,89.194 1413.72,91.857 1419.02,95.865C1425.42,100.702 1428.52,105.495 1430.43,110.038C1432.57,115.143 1432.92,120.345 1432.89,127.71C1433.16,164.612 1431.36,202.075 1432.04,239.542C1432.47,263.461 1434.12,287.337 1437.34,311.061C1438.88,322.51 1448.42,341.903 1450.03,356.404C1451.16,366.676 1449.31,375.72 1445.87,383.032C1442.05,391.162 1435.62,398.028 1427.22,403.593C1413.23,412.864 1389.34,416.19 1377.13,422.344C1363.24,429.222 1348.88,427.967 1337.51,412.19C1331.81,404.282 1326.8,374.538 1326.13,372.16C1318.56,343.843 1311.72,300.154 1309.35,256.058C1307.58,223.129 1306.95,190.032 1310.44,163.564C1311.11,158.537 1311.25,153.66 1313.19,149.492C1314.27,147.187 1315.35,145.723 1316.54,144.343ZM1380.82,270.902C1376.89,275.369 1372.09,277.136 1367.06,277.14C1371.31,307.665 1376.01,336.278 1381.99,356.2C1382.07,356.5 1382.68,357.663 1383.51,359.339C1384.83,359.014 1386.46,358.748 1388.12,358.485C1381.65,349.898 1383.82,326.557 1383,317.099C1381.66,301.721 1381.06,286.319 1380.82,270.902ZM1394.58,357.203C1396.27,356.653 1397.08,355.933 1396.05,354.859C1395.39,354.172 1395,356.253 1394.58,357.203Z" style="fill:#fff;"/>
            <path d="M926.699,114.568C932.567,107.73 937.98,104.182 944.603,108.518C945.166,108.462 945.733,108.415 946.305,108.378C950.327,108.117 954.773,108.942 959.46,110.137L984.112,105.595C994.167,104.394 1037.07,97.597 1063.17,99.519C1068.47,99.91 1073.3,100.752 1077.58,101.918C1084.97,102.754 1091.73,104.608 1097.56,107.653C1103.85,110.935 1108.6,115.874 1111.37,122.599C1114.14,129.326 1113.9,139.691 1113.66,147.182C1113.75,148.009 1113.81,148.866 1113.83,149.754C1113.96,153.761 1113.96,157.71 1113.82,161.61C1115.01,182.364 1119.14,217.545 1117.51,239.863C1116.05,259.723 1107.6,272.394 1098.98,276.867C1095.26,278.801 1091.68,280.498 1088.26,281.975C1087.37,286.72 1086.36,291.074 1085.51,292.193C1080.63,298.605 1074.46,301.562 1067.49,301.797C1063.02,301.947 1056.03,301.608 1049.04,294.449C1047.45,292.822 1046.01,291.091 1044.7,289.261C1030.7,286.448 1021.96,277.466 1016.65,267.482C1013.28,261.149 1013.47,251.396 1015.03,240.57C1014.39,235.458 1014.74,229.558 1016.54,223.04C1017.58,219.302 1019.11,215.138 1020.91,210.819C1022.49,203.3 1023.8,196.265 1024.11,190.491C997.177,189.703 942.814,195.555 931.216,194.857C927.17,194.613 912.76,191.317 913.889,175.711C914.273,170.41 917.385,156.769 917.478,156.196C917.568,155.617 917.64,154.904 917.702,154.078C914.351,150.047 912.718,145.336 912.263,140.318C911.817,135.409 912.159,127.921 919.728,120.23C921.926,118.017 924.252,116.137 926.699,114.568ZM1024.18,187.432C1024.09,180.718 1022.18,176.271 1016.98,175.682C1010.69,174.969 1021.56,184.718 1023.04,186.188C1023.31,186.456 1023.71,186.901 1024.18,187.432ZM1027.24,190.62C1028.1,191.411 1028.96,192.061 1029.68,192.322C1029.98,191.754 1030.27,191.19 1030.56,190.631C1029.93,190.626 1029.08,190.737 1028.45,190.694C1028.06,190.668 1027.65,190.643 1027.24,190.62ZM1055.52,153.111C1055.52,153.106 1055.53,153.101 1055.53,153.097C1057.3,151.626 1059.1,150.472 1060.89,149.576C1060.58,148.982 1060.26,148.379 1059.94,147.764C1058.21,148.12 1056.45,148.507 1054.67,148.878C1053.38,149.149 1052.07,149.436 1050.77,149.737C1052.81,150.891 1054.39,152.082 1055.52,153.111ZM949.733,157.738C950.661,157.559 951.61,157.374 952.578,157.185C953.385,156.532 954.189,155.765 954.728,155.23C955.321,154.645 955.866,154.06 956.366,153.476C952.113,152.888 949.489,153.821 949.733,157.738ZM1066.18,146.676C1065.92,146.708 1065.67,146.743 1065.41,146.779C1065.77,147.096 1066.05,147.154 1066.18,146.676Z" style="fill:#fff;"/>
            <path d="M1130.8,315.759C1135.15,308.057 1139.61,304.204 1143.8,303.566C1149.94,302.632 1159.6,304.061 1161.1,315.08C1167.87,313.599 1175.89,311.716 1183.04,311.158C1192.17,310.445 1200.38,311.736 1206.43,314.753C1219.09,321.204 1228.86,342.458 1227.83,365.16C1226.84,386.811 1216.68,406.925 1204.13,413.032C1197.79,415.956 1190.56,417.152 1182.94,416.137C1172.68,414.771 1161.44,409.514 1154.15,406.786C1129.79,397.33 1120.61,387.283 1117.85,376.193C1116.24,369.734 1117.38,362.097 1119.86,352.272C1107.96,343.967 1109.62,324.718 1111.91,322.431C1114.34,320.002 1118.71,317.024 1125.39,316.028C1126.84,315.811 1128.72,315.74 1130.8,315.759ZM1156.44,371.49C1156.1,370.138 1155.85,368.686 1155.68,367.132C1155.51,365.428 1155.6,363.259 1156,360.781C1153.36,360.189 1150.66,359.481 1148.02,358.795C1147.75,360.781 1147.57,362.641 1147.52,364.39C1147.41,368.916 1150.37,370.014 1156.44,371.49Z" style="fill:#fff;"/>
            <path d="M1024.81,503.317C1029.52,503.232 1035.83,502.696 1041.41,503.041C1076.95,505.244 1133.83,506.256 1173.22,509.037C1194.95,510.571 1211.76,513.015 1218.62,515.158C1219.32,515.377 1220.2,515.718 1221.15,516.119C1221.54,512.083 1221.21,506.978 1221.29,501.587C1221.54,483.886 1218.98,463.55 1220.71,448.84C1218,447.901 1215.67,446.853 1214.52,445.799C1207.95,439.754 1202.99,429.833 1215.24,415.744C1226.89,402.319 1275.46,389.813 1303,405.637C1321.02,415.995 1333.52,435.94 1324.31,469.571C1324.54,475.011 1324.45,480.828 1324,486.914C1323.63,491.813 1323.09,496.889 1322.39,502.047C1323.26,511.332 1322.96,523.51 1321.08,539.093C1320.61,543.002 1317.72,558.796 1313.72,573.237L1311.36,589.665C1309.43,598.637 1302.66,605.435 1294.27,607.74C1289.1,611.354 1281.71,614.752 1271.91,616.826C1242.95,622.954 1179.9,623.129 1117.36,616.14C1097.13,613.879 1077.03,610.705 1058.07,606.902C1051.5,607.657 1044.92,608.357 1038.31,608.952C1018.91,610.694 999.333,611.491 979.312,610.684C969.086,610.287 956.334,617.538 946.929,616.549C939.316,615.749 932.361,613.216 926.692,607.177C924.842,605.295 919.819,596.842 918.778,582.727C916.694,554.465 917.588,485.083 917.68,474.399C917.769,458.169 911.018,389.788 912.187,349.419C912.939,323.424 922.292,306.517 928.817,303.27C936.227,299.397 961.884,294.409 981.455,294.452C996.634,294.485 1008.56,299.255 1013.46,303.98C1016.3,306.722 1019.35,311.663 1020.19,319.044C1021.02,326.378 1017.77,343.415 1017.86,348.148C1018.38,375.459 1027.05,400.838 1030.79,426.554C1032.74,439.969 1033.43,453.445 1031.99,467.206L1024.81,503.317ZM968.632,338.88C969.179,342.215 969.459,346.052 969.411,350.426C969.43,350.997 969.439,351.574 969.439,352.156C969.439,353.018 969.379,353.866 969.263,354.696C969.091,357.354 968.636,362.492 968.96,363.762L974.955,395.18C978.712,403.977 980.782,416.498 981.631,430.987C982.563,446.888 981.996,465.578 981.404,483.523C983.47,475.941 985.751,468.401 986.75,461.551C988.194,451.618 987.98,441.826 986.95,432.046C984.055,404.564 976.279,377.191 976.839,348.148C976.865,346.726 976.529,343.356 976.336,339.523C973.903,339.454 971.285,339.207 968.632,338.88ZM981.022,525.562C981.429,531.068 982.039,536.04 982.314,538.148C986.172,541.492 994.521,543.199 1004.75,546.177C1018.45,550.167 1035.34,553.487 1053.9,556.432C1059.61,555.341 1065.3,554.235 1070.99,553.154C1062.47,553.073 1054.35,552.898 1046.93,552.587C1015.93,551.287 994.312,543.54 990.361,539.501C986.235,535.199 983.151,530.542 981.022,525.562ZM1246.53,479.033C1250.75,468.559 1255.11,459.094 1258.88,452.185C1254.42,451.976 1249.98,452.002 1245.75,452.091C1240.83,456.062 1242.98,466.891 1246.53,479.033ZM1022.55,503.315C1020.77,501.133 1018.43,498.579 1017.7,501.012C1017.19,502.698 1019.22,503.229 1022.55,503.315Z" style="fill:#fff;"/>
            <path d="M918.144,727.369C918.342,727.535 918.565,727.709 918.8,727.888C918.755,727.575 918.713,727.264 918.672,726.954C918.774,726.877 918.878,726.801 918.982,726.726C918.893,726.483 918.761,726.299 918.576,726.185C917.905,720.592 917.952,715.637 918.717,713.631C921.797,705.552 927.365,704.536 940.64,711.464C941.382,712 942.244,713.042 943.113,714.578C961.609,709.737 989.269,710.009 1007.3,717.995C1025.49,726.049 1034.86,740.307 1031.31,758.541C1029.65,766.845 1024.55,787.79 1016.95,802.379C1011.2,813.398 1003.44,821.061 996.079,823.928C960.371,837.391 940.62,825.124 929.491,804.833C921.913,791.019 919.284,771.602 918.443,754.726C914.366,751.544 911.853,746.67 911.715,741.382C911.573,735.915 913.991,730.758 918.144,727.369ZM918.144,727.369C917.241,726.612 916.843,726.029 918.075,726.051C918.273,726.055 918.439,726.101 918.576,726.185C918.606,726.44 918.639,726.697 918.672,726.954C918.493,727.089 918.317,727.227 918.144,727.369ZM992.154,750.733C992.684,752.791 993.127,755.027 993.451,757.41L995.279,751.895C994.469,751.49 993.316,751.098 992.154,750.733ZM995.393,751.954C995.369,752.797 995.568,753.807 996.044,753.467C996.752,752.96 996.337,752.447 995.393,751.954ZM985.427,781.615C983.022,782.953 980.253,783.715 977.308,783.715C971.32,783.715 966.062,780.564 963.105,775.831C960.42,775.822 957.153,775.086 953.097,773.071C954.535,778.356 956.455,783.314 959.079,787.516C963.263,794.221 970.582,795.271 982.584,790.191L985.427,781.615Z" style="fill:#fff;"/>
            <path d="M1121.18,1108.01C1122.1,1098.1 1123.88,1089.06 1126.26,1082.91C1127.09,1080.77 1128.02,1078.81 1129.02,1077.03C1129.94,1063.84 1130.23,1047.01 1130.23,1029.37C1130.23,1013.37 1129.74,996.718 1128.73,981.266C1126.03,979.577 1123.97,977.621 1122.83,975.904C1119.09,970.244 1116.2,956.677 1118.32,938.713C1118.67,935.675 1118.85,932.16 1118.92,928.324C1115.18,927.241 1110.95,926.477 1106.41,925.945C1102.08,927.998 1097.71,928.991 1093.54,928.975C1086.64,928.947 1080.61,927.45 1075.36,924.879C1061.99,925.062 1049.4,925.612 1041.37,924.831C1025.68,923.306 1017.51,915.454 1015.09,910.411C1013.36,906.804 1011.94,902.32 1011.18,897.208C1009.71,887.294 1010.74,873.755 1009.76,865.978C1005.38,831.24 1014.61,815.302 1024.79,808.467C1034.39,802.026 1049.3,802.036 1065.85,806.249C1074.66,795.432 1085.94,791.406 1098.65,794.635C1102.14,795.522 1109.43,799.012 1114.96,808.357C1116.76,800.712 1118.65,793.463 1120.29,787.398C1121.48,773.13 1122.03,758.495 1122.08,749.647C1122.09,747.957 1122.31,746.489 1122.7,745.22C1121.89,743.629 1121.53,741.792 1121.74,739.887C1121.76,738.597 1122.92,737.353 1124.69,736.496C1126.29,731.279 1129.08,726.591 1133.12,722.391C1136.7,718.657 1142.85,715.307 1150.96,713.482C1159.92,711.467 1173.81,711.821 1180.89,710.545C1183.88,708.8 1193.65,703.317 1198.91,702.861C1205.78,702.264 1213.29,703.944 1221.16,711.504C1230.39,720.342 1235.21,738.496 1234.71,760.486C1234.33,777.79 1232.45,805.471 1231.54,818.175C1235.48,818.938 1239.72,819.334 1244.09,819.715C1268.54,821.848 1296.69,819.701 1317.46,822.764C1318.61,822.946 1320.36,823.124 1322.51,823.323C1319.66,791.971 1314.26,765.566 1319.76,747.305C1326.82,723.87 1345.54,704.917 1398.51,705.246C1403.08,704.322 1414.97,702.127 1419.6,703.274C1424.41,704.467 1428.34,706.688 1431.32,709.754C1443.32,721.365 1449.46,784.656 1443.74,839.607C1440.95,866.338 1436.1,890.814 1429.98,905.646C1424.52,918.893 1416.34,926.491 1409.58,930.131C1398.6,935.954 1386.34,938.75 1373.82,938.89C1359.98,939.045 1345.97,935.745 1334,933.462C1332.38,933.152 1330.46,932.83 1328.64,932.54C1327.81,945.458 1326.11,958.241 1323.61,970.684C1321.46,981.443 1318.65,991.932 1314.76,1002.04C1314.48,1008.8 1311.69,1018.87 1299.15,1025.91C1291.12,1030.43 1277.78,1032.89 1262.65,1031.82C1259.65,1031.6 1256.13,1030.88 1252.42,1029.94C1248.09,1031.68 1243.8,1033.08 1239.59,1034.28C1240.37,1043.49 1240.36,1053.24 1239.69,1063.32C1236.63,1109.1 1220.45,1162.66 1212.22,1194.94C1207.62,1213 1198.31,1222.73 1187.36,1228.43C1177.91,1233.35 1166.59,1234.95 1154.78,1235.04C1146.49,1235.09 1137.79,1233.31 1130.97,1235.55C1132.96,1238.37 1126.59,1243.68 1124.86,1249.33C1120.67,1263.06 1116.18,1279.72 1106.64,1295.8C1097.43,1311.34 1083.6,1325.94 1062.24,1337.64C1056.48,1340.8 1050.11,1341.76 1043.4,1341.67C1037.97,1341.59 1032.07,1340.32 1026.27,1338.5C1024.94,1338.08 1023.07,1336.67 1021.65,1335.95C1021.83,1335.89 1022,1335.84 1022.14,1335.82C1021.95,1335.85 1021.76,1335.88 1021.56,1335.91C1020.57,1335.42 1019.82,1335.31 1019.69,1336.2C1008.55,1337.87 987.77,1340.35 970.804,1339.6C958.714,1339.07 948.157,1337.02 941.586,1333.41C934.673,1329.61 930.672,1325.07 928.512,1319.83C926.598,1315.18 925.85,1309.85 926.076,1304.05C926.408,1295.5 925.273,1287.25 922.956,1279.32C915.227,1252.86 901.22,1228.63 901.21,1203.85L901.009,1189.82C901.009,1188.17 901.212,1186.53 901.612,1184.92C902.701,1180.29 905.206,1174.87 908.619,1169.42C914.019,1160.79 922.065,1151.81 926.61,1147.14C953.469,1119.83 989.355,1117.07 1026.23,1121.17C1053.7,1124.23 1081.53,1133.12 1103.64,1123.53C1110.41,1120.6 1116.24,1115.55 1121.18,1108.01ZM1021.65,1335.95C1020.78,1336.27 1019.58,1336.9 1019.69,1336.2C1020.35,1336.1 1020.97,1336 1021.56,1335.91C1021.59,1335.92 1021.62,1335.94 1021.65,1335.95ZM1173.82,1174.59C1172.42,1175.85 1170.96,1176.96 1169.47,1177.87C1168.18,1178.67 1166.82,1179.37 1165.39,1179.96C1164.25,1184.67 1163.11,1188.85 1161.99,1192.1C1161.89,1192.38 1161.79,1192.66 1161.69,1192.93C1162.8,1192.74 1163.9,1192.52 1164.97,1192.27C1168.09,1191.54 1170.13,1189.25 1171.25,1184.7C1172.02,1181.53 1172.89,1178.15 1173.82,1174.59ZM1071.79,1267.73C1061.34,1275.1 1049.82,1273.99 1040.98,1267.94C1040.86,1268.17 1040.74,1268.39 1040.63,1268.6C1032.85,1283.01 1020.42,1285.28 1014.41,1284.99C1012.87,1284.91 1010.53,1284.67 1007.88,1283.9C1007.02,1285.87 1005.93,1287.67 1004.63,1289.3L1012.64,1288.31C1022.5,1286.28 1045.19,1303.62 1045.9,1292.97C1045.94,1292.39 1045.63,1292.24 1045.12,1292.33C1056.03,1286.62 1063.78,1279.53 1069.22,1271.66C1070.12,1270.36 1070.98,1269.05 1071.79,1267.73ZM970.344,1293.56C969.149,1292.64 968.043,1291.62 967.038,1290.51C967.222,1291.64 967.39,1292.77 967.541,1293.9L970.344,1293.56ZM949.848,1183.7C951.763,1183.75 953.61,1184.08 955.355,1184.63C956.78,1179.86 958.551,1175.8 960.389,1172.52C958.84,1173.68 957.33,1174.96 955.862,1176.39L949.848,1183.7ZM996.693,1162.71C996.855,1162.82 997.017,1162.94 997.18,1163.06C997.373,1162.94 997.566,1162.83 997.76,1162.71C997.404,1162.71 997.048,1162.71 996.693,1162.71ZM1025.08,1164.18C1028.12,1166.34 1031.16,1169.62 1033.7,1174.65C1034.15,1175.54 1034.57,1176.44 1034.97,1177.37C1041.97,1170.85 1061.76,1163.77 1072.72,1172.95C1079.68,1166.88 1087.34,1166.48 1093.62,1168.43C1093.99,1167.28 1094.35,1166.12 1094.73,1164.96C1093.95,1165.08 1093.17,1165.2 1092.38,1165.31C1071.66,1168.26 1048.24,1165.94 1025.08,1164.18ZM1398.25,748.566C1400.41,749.691 1402.44,751.201 1404.31,753.089C1404.23,751.212 1404.1,749.485 1403.89,747.929C1402.21,748.282 1400.8,748.529 1400.15,748.538C1399.5,748.547 1398.87,748.556 1398.25,748.566ZM1175.88,753.351C1178.4,755.317 1180.42,757.873 1181.75,760.802C1182.67,761.316 1183.48,761.897 1184.14,762.553C1185.82,764.244 1187.38,766.212 1188.81,768.428C1188.95,767.132 1189.08,765.843 1189.21,764.563C1189.65,760.018 1190.77,755.66 1191.43,751.918C1187.89,752.502 1181.85,752.984 1175.88,753.351ZM1047.64,843.652C1047.99,842.518 1048.36,841.437 1048.76,840.41C1048.49,840.348 1048.24,840.291 1048.02,840.239C1047.86,841.267 1047.69,842.565 1047.64,843.652ZM1159.18,987.7L1159.22,987.54C1159.21,987.59 1159.2,987.643 1159.18,987.7ZM1045.12,1292.33C1043.69,1293.08 1042.21,1293.8 1040.67,1294.5C1041.84,1293.96 1043.97,1292.53 1045.12,1292.33ZM1173.6,1137.89C1173.43,1138.88 1173.26,1139.89 1173.08,1140.91C1173.22,1140.88 1173.37,1140.84 1173.51,1140.78C1175.31,1140.12 1174.92,1139.05 1173.6,1137.89ZM1095.17,868.18C1093.08,872.66 1091.06,876.394 1089.88,878.493C1090.15,879.648 1090.25,880.998 1090.48,882.205C1091.7,880.329 1093,878.243 1093.94,876.47C1094.83,874.782 1095.73,873.047 1096.63,871.284C1096.15,870.277 1095.66,869.24 1095.17,868.18ZM1170.58,964.471C1171.07,963.955 1171.57,963.535 1172.07,963.229C1172.12,963.199 1172.17,963.168 1172.23,963.138C1172.23,962.671 1172.23,962.196 1172.23,961.719C1171.67,962.667 1171.12,963.586 1170.58,964.471Z" style="fill:#fff;"/>
            <path d="M1440.79,937.545C1439.24,918.288 1457.95,905.033 1460.32,934.478C1463.03,931.817 1466.03,929.464 1469.16,927.642C1472.91,925.46 1481.84,922.087 1491.25,923.022C1499.93,922.881 1507.12,925.589 1512.94,930.029C1521.46,935.073 1524.98,941.49 1526.26,946.593C1526.42,947.255 1526.57,947.931 1526.68,948.619C1533.53,966.726 1529.55,991.659 1517.14,1004.21C1509.91,1011.38 1493.37,1018.87 1475.67,1021.39C1458.37,1023.85 1440.67,1021.99 1431.47,1016.95C1429.74,1015.89 1417.84,1007.18 1421.56,991.017C1423.85,981.089 1427.94,960.6 1433.59,948.852C1436.19,943.434 1439.25,941.207 1439.94,940.038C1440.19,939.136 1440.48,938.307 1440.79,937.545ZM1449.03,981.956C1449.01,981.948 1449,981.942 1448.98,981.936C1449,981.942 1449.01,981.949 1449.03,981.956ZM1475.93,925.893C1475.9,925.903 1475.87,925.913 1475.84,925.923C1475.87,925.913 1475.9,925.903 1475.93,925.893Z" style="fill:#fff;"/>
            <path d="M1743.12,1012.45C1737.12,996.132 1728.16,978.992 1724.1,968.895C1717.04,951.334 1723.89,938.707 1726.02,936.538C1728.2,934.307 1732.19,931.379 1738.44,930.364C1741.09,929.933 1747.38,930.332 1748.84,930.316C1803.52,930.005 1876.36,931.415 1941.91,929.565C1970.97,928.745 1998.59,927.597 2022.41,924.515C2022.89,924.454 2030.53,922.965 2033.63,922.359C2035.67,920.81 2037.53,919.611 2038.84,919.194C2047.37,916.476 2053.74,919.475 2057.85,922.513C2062.21,925.725 2066.06,930.771 2066.18,939.322C2066.24,944.351 2064.41,951.569 2057.05,957.04L2051.27,988.252C2049.42,1000.21 2047.66,1007.58 2050.45,1012.33C2051.59,1014.27 2054.23,1014.02 2057.18,1014.77C2065.06,1016.77 2075.35,1017.91 2088.35,1019.66C2104.18,1021.81 2117.31,1019.11 2126.94,1011.22C2136.73,1003.2 2142.45,990.258 2145.04,973.959C2145.67,969.935 2142.73,956.01 2147.09,952.502C2146.24,952.07 2145.49,951.637 2144.88,951.207C2136.35,945.211 2133.8,937.516 2133.92,931.306C2134.14,920.21 2139.52,915.122 2143.09,912.59C2148.68,908.621 2155.62,906.353 2164.06,909.659C2165.3,910.146 2167.57,912.178 2170.17,914.789C2174.45,915.776 2183.43,917.856 2184.71,918.256C2193.8,921.087 2217.93,924.659 2231.91,931.54C2241.18,936.103 2247.33,942.567 2250.67,948.926C2257.75,962.413 2255.05,1042.74 2243.44,1112.44C2241.5,1124.1 2239.52,1135.52 2237.38,1146.24C2246.98,1149.76 2255.09,1156.01 2255.11,1157.76C2254.02,1194.45 2246.91,1213.42 2233.64,1223.76C2233.22,1224.53 2232.79,1225.28 2232.36,1226.01C2225.48,1237.54 2216.62,1243.85 2209.17,1245.61C2193.74,1249.27 2177.31,1245.63 2161.09,1235.35C2156.67,1235.07 2152.98,1234.43 2149.5,1233.31C2148.57,1233.01 2147.64,1232.67 2146.72,1232.3C2146.98,1236.26 2147.34,1240.18 2147.55,1244C2148.45,1260.59 2147.51,1276.09 2140.32,1289.58C2133.64,1302.14 2121.57,1313.55 2098.72,1321.64C2079.8,1328.35 2067.04,1325.05 2058.86,1320.12C2049.33,1314.38 2043.32,1304.3 2041.89,1290.37C2039.46,1266.63 2059.02,1220.68 2060.8,1206.33C2061.63,1201.28 2060.78,1197.13 2059.36,1193.21C2054.5,1179.77 2047.06,1167.44 2045.12,1151.46C2044.16,1143.56 2039.08,1123.83 2041.58,1112.77C2010.49,1115.31 1955.25,1125.8 1928.68,1132.05C1932.97,1147.17 1942.02,1179.72 1942.19,1185.81C1942.83,1207.43 1939.75,1243.02 1936.07,1273.66C1933.46,1295.44 1930.59,1314.58 1929.43,1323.68C1929.41,1323.85 1929.39,1324.03 1929.36,1324.2L1936.14,1351.15L1937.6,1380.29C1934.94,1390.25 1931.14,1397.84 1926.54,1403.7C1928.56,1410.56 1925.85,1417.63 1915.89,1423.98C1909.61,1427.98 1888.67,1432.52 1879,1432.55C1871.33,1432.57 1866.22,1429.62 1862.88,1426.03C1852.16,1428.2 1841.66,1434.22 1834.85,1453.62C1830.76,1465.28 1828.53,1477.7 1827.45,1490.58C1823.08,1542.89 1834.24,1601.69 1825.42,1652.72C1840.84,1649.6 1860.1,1647.4 1880.46,1646.53C1880.82,1646.08 1881.21,1645.65 1881.61,1645.23C1889.52,1637.1 1917.48,1632.98 1948.69,1637.32C1968.18,1640.02 1988.75,1645.17 2004.99,1650.55C2008.29,1645.93 2011.53,1642.89 2014.44,1641.93C2027.23,1636.68 2035.11,1641.45 2039.09,1644.67C2045.08,1649.5 2048.52,1660.77 2041.03,1673.83C2040.91,1674.05 2040.78,1674.26 2040.64,1674.48C2044.87,1684.91 2047.62,1700.73 2046.99,1719.15C2046.69,1727.82 2045.88,1737.13 2044.69,1746.53C2062.38,1741.1 2082.54,1735.96 2100.26,1733.91C2124.4,1731.12 2144.59,1735.61 2154.92,1745.65C2159.64,1750.24 2160.12,1764.23 2160.12,1764.23C2160.12,1764.23 2160.43,1762.25 2160.45,1761.15C2160.26,1790.53 2157.59,1829.58 2150.86,1865.6C2145.95,1891.87 2138.86,1916.55 2129.36,1935.18C2131.19,1931.59 2132.04,1928.18 2130.65,1928.21C2124.84,1928.37 2135.05,1940.85 2119.34,1946.85C2115.05,1948.49 2110.56,1949.79 2105.66,1948.87C2102.05,1948.2 2098.14,1945.69 2094.49,1943.99C2094.17,1943.99 2093.85,1943.98 2093.52,1943.97C2090.62,1943.88 2087.66,1943.32 2084.98,1942.05C2076.72,1941.23 2064.73,1939.3 2057.07,1935.87C2051.33,1933.3 2047.38,1929.63 2044.99,1925.5C2042.31,1920.72 2042.46,1880.8 2047.89,1841.24C2049.32,1830.81 2051.18,1820.46 2053.24,1810.77C2044.84,1814.09 2035.48,1817.58 2026.41,1820.55C2026.4,1820.56 2026.4,1820.57 2026.39,1820.57C2026.07,1821.21 2021.73,1828.82 2010.33,1832.68C2001.64,1835.62 1981.54,1841.87 1972.51,1844.89C1972.3,1844.96 1972.08,1845.03 1971.86,1845.11C1968.75,1846.8 1965.21,1847.67 1961.26,1847.72C1957.77,1847.77 1955.35,1846.91 1953.79,1846.34C1944.33,1842.83 1941.55,1835.82 1940.71,1829.54C1940.29,1826.43 1940.31,1822.06 1942.88,1817.41C1942.84,1816.26 1942.8,1815.25 1942.8,1815.06L1942.98,1810.37C1938.83,1804.48 1937.01,1797.7 1936.76,1790.31C1936.42,1780.45 1940.37,1768.59 1944.99,1756.49L1945.97,1730.26C1929.56,1735.11 1913.47,1739.13 1898.15,1738.94C1885.21,1738.77 1872.6,1736.28 1860.27,1728.59L1858.32,1728.71L1850.41,1732.39L1830.46,1734.75C1828.19,1735.36 1824.91,1735.8 1821.33,1736.06C1821.72,1737.84 1822.12,1739.62 1822.5,1741.4C1824.36,1742.91 1826.01,1744.58 1827.47,1746.34C1833.05,1753.03 1837.65,1765.09 1831.11,1787.04C1828.82,1794.74 1830.61,1806.68 1829.38,1815.71C1828.59,1821.53 1826.89,1826.68 1824.88,1831.04C1823.85,1833.29 1818.54,1843.47 1802.97,1846.32C1798.03,1847.23 1787.46,1848.14 1774.03,1848.75C1740.61,1850.29 1688.42,1850.49 1665.08,1848.25C1650.71,1846.88 1642.14,1842.11 1639.99,1839.75C1636.6,1836.04 1632.9,1830.11 1631.03,1822.07C1628.23,1810.04 1628.14,1791.05 1626.61,1783.5C1625.72,1779.88 1620.85,1767.73 1620.71,1759.86C1620.57,1752.1 1623.41,1746.04 1627.49,1741.81C1634.99,1734.03 1644.59,1732.37 1655.73,1739.35C1667.98,1735.5 1690.88,1731.14 1697.95,1728.53C1706.01,1725.55 1715.74,1725 1726.11,1725.87C1730.94,1726.27 1735.97,1727.1 1740.96,1728.07L1758.98,1455.64L1746.84,1391.47C1745.14,1388.64 1743.97,1385.08 1744.05,1380.66C1744.06,1379.94 1744.16,1379.11 1744.33,1378.21L1738.26,1346.13L1738.28,1342.12C1738.28,1336.13 1740.66,1330.39 1744.9,1326.15C1749.38,1321.72 1758.39,1317.23 1770.85,1317.2C1786.26,1317.17 1811.37,1323.01 1817.35,1324.24C1829.77,1326.92 1846.98,1322.19 1860.99,1323.54C1861.67,1323.5 1862.34,1323.47 1862.98,1323.45C1862.74,1321.08 1862.5,1318.69 1862.28,1316.28C1856.84,1255.81 1859.5,1181.61 1857.36,1135.52C1856.9,1125.52 1853.08,1116.19 1852.42,1110.58C1846.28,1112.88 1840.16,1113.75 1834.09,1113.82C1825.32,1113.92 1816.85,1109.87 1809.22,1112.46L1787.23,1128.64C1775.33,1132.68 1759.8,1134.64 1742.83,1135.2C1746.54,1152.01 1749.13,1170.14 1749.15,1173.79C1749.08,1185.94 1749.5,1271.11 1746.72,1305.67C1745.37,1322.47 1739.59,1332.57 1737.42,1334.71C1734.17,1337.92 1728.95,1341.35 1721.34,1342.64C1712.2,1344.19 1691.07,1340.43 1686,1341.12C1643.42,1346.93 1624.89,1334.28 1617.25,1320.05C1610.97,1308.35 1610.85,1290.88 1616.37,1269.95C1621.78,1249.45 1632.23,1223.65 1632.39,1197.84C1632.48,1182.76 1624.04,1163.59 1623.44,1146.39C1623.33,1143.01 1623.42,1139.67 1623.76,1136.41L1614.45,1136.63C1603.61,1136.57 1594.61,1128.25 1593.69,1117.45C1593.45,1114.71 1593.76,1112.03 1594.53,1109.54C1577.67,1113.12 1562.69,1114.1 1551.57,1109.67C1535.71,1103.35 1522.36,1088.64 1521.9,1055.35C1518.84,1055.18 1519.11,1044.68 1519.18,1040.21C1519.28,1033.61 1521.64,1028.3 1525.47,1024.57C1527.8,1022.3 1542.22,1017.15 1565.32,1015.94C1606.18,1013.79 1683.43,1012.88 1743.12,1012.45ZM1855.27,1040.8C1855.06,1040.55 1854.84,1040.28 1854.62,1040C1854.08,1039.82 1853.56,1039.64 1853.07,1039.46C1850.84,1038.65 1847.92,1037.89 1844.81,1037.11C1844.7,1037.6 1844.57,1037.98 1844.45,1038.23C1844,1039.11 1843.53,1039.93 1843.05,1040.67C1847.22,1040.59 1851.3,1040.63 1855.27,1040.8ZM1608.02,1050.57C1629.99,1052.09 1654.62,1053.28 1677.81,1052.8C1690.88,1052.53 1703.45,1051.93 1714.68,1050.77L1608.02,1050.57ZM1651.75,1305.58C1651.98,1303.81 1652.3,1301.75 1652.71,1299.34C1650.06,1302.07 1647.71,1305.18 1651.46,1305.58C1651.56,1305.59 1651.65,1305.59 1651.75,1305.58ZM1897.79,1097.89C1898,1097.77 1898.21,1097.65 1898.43,1097.55C1898.18,1097.53 1897.93,1097.52 1897.68,1097.51C1897.72,1097.64 1897.75,1097.76 1897.79,1097.89ZM1798.62,1420.41C1801.36,1415.06 1804.32,1410.44 1807.42,1406.41C1803.36,1406.13 1799.4,1405.87 1795.6,1405.6L1798.62,1420.41ZM2103.36,1769.83C2103.86,1773.27 2104.06,1777.4 2103.93,1780.69C2104.49,1782.28 2105.05,1784.05 2105.57,1785.97C2111.34,1785.55 2116.9,1787.73 2122.1,1792.19C2122.48,1784.18 2122.7,1776.47 2122.77,1769.26C2117.76,1767.99 2110.95,1768.67 2103.36,1769.83ZM1927.85,1318.19C1927.82,1318.06 1927.8,1317.95 1927.77,1317.88L1927.85,1318.19ZM2111.93,1185.17C2111.51,1184.62 2111.09,1184.07 2110.68,1183.52C2109.71,1183.49 2108.76,1183.41 2107.81,1183.28C2107.84,1183.4 2107.88,1183.51 2107.92,1183.63C2108.62,1185.86 2109.2,1188.14 2109.67,1190.49C2110.33,1188.7 2111.08,1186.93 2111.93,1185.17ZM2105.16,1232.97C2101.12,1246.92 2095.64,1264.39 2092.11,1275.49C2098.99,1272.29 2102.61,1268.4 2103.75,1262.97C2105.71,1253.67 2105.42,1243.49 2105.16,1232.97ZM2189.39,966.42C2188.22,972.279 2186.87,977.633 2186.3,980.836C2186.07,982.123 2185.83,983.395 2185.58,984.653C2186.07,985.106 2186.56,985.579 2187.05,986.072C2191.67,990.726 2196.14,1000.24 2196.22,1013.31C2196.32,1030.83 2189.8,1059.46 2189.05,1065.94C2188.13,1074.02 2190.85,1085.81 2192.75,1097.37C2194.03,1091.3 2195.25,1085.14 2196.37,1078.96C2204.69,1033.12 2212.26,987.111 2209.76,972.714C2206.07,971.585 2197.64,968.998 2189.39,966.42ZM2013.03,968.325C2011.88,968.472 2010.73,968.617 2009.57,968.759C2010.72,969.345 2011.8,969.964 2012.8,970.598C2012.88,969.846 2012.95,969.087 2013.03,968.325ZM2025.16,1041.86C2025.13,1045.38 2024.07,1048.65 2022.55,1051.58C2021.93,1052.78 2021.17,1054.06 2020.22,1055.33C2023.73,1055.82 2027.14,1056.34 2030.41,1056.9C2041.46,1058.8 2051.27,1061.31 2059.38,1064.32C2084.45,1066.38 2106.97,1068.05 2123.13,1068.69C2127.67,1068.88 2132.41,1068.89 2135.9,1068.85C2138.11,1064.92 2139.29,1060.4 2140.11,1055.68C2140.38,1054.11 2140.61,1052.52 2140.8,1050.91C2124.88,1059.44 2105.4,1062.8 2082.67,1059.38C2054.3,1055.11 2036.16,1050.38 2025.16,1041.86ZM1771.02,975.515C1771.41,974.085 1771.8,973.098 1772.05,972.737C1771.36,972.723 1770.68,972.709 1770,972.695C1770.33,973.622 1770.67,974.563 1771.02,975.515ZM1870.74,1369.47C1867.75,1369.38 1864.64,1368.69 1861.54,1367.23L1838.98,1367.57C1836,1368.04 1832.94,1368.57 1829.86,1369.15C1844.85,1369.89 1859.78,1370.87 1871.53,1372.53C1871.26,1371.52 1871,1370.5 1870.74,1369.47ZM1773.3,1785.16C1775.66,1786.02 1777.98,1786.8 1780.16,1787.44L1781.01,1782.1C1779.75,1782.01 1778.44,1781.92 1777.12,1781.81C1775.93,1783.13 1774.65,1784.24 1773.3,1785.16ZM1843.22,1698.24C1840.44,1697.51 1837.64,1696.76 1834.87,1696.02C1829.52,1697.06 1824.93,1698.3 1821.3,1699.77C1821.35,1699.99 1821.36,1700.22 1821.34,1700.45C1828.19,1699.19 1836.12,1698.62 1843.22,1698.24ZM1984.41,1793.47C1984.24,1793.21 1984.07,1792.94 1983.91,1792.65L1983.9,1793.43C1984.07,1793.45 1984.24,1793.46 1984.41,1793.47ZM2111.12,1828.76C2111.15,1829.16 2111.18,1829.57 2111.2,1829.98C2116.95,1830.48 2120.94,1829.11 2117.25,1825.08C2115.32,1822.97 2113.2,1824.81 2111.12,1828.76ZM1819.11,1700.74C1819.06,1700.76 1819.01,1700.79 1818.97,1700.81C1819.02,1700.8 1819.06,1700.77 1819.11,1700.74ZM2160.45,1761.15C2160.45,1761.09 2160.45,1761.02 2160.45,1760.95C2160.45,1761.02 2160.45,1761.08 2160.45,1761.15Z" style="fill:#fff;"/>
            <path d="M2136.85,1394.94C2136.34,1393.66 2135.87,1392.33 2135.45,1390.96C2129.44,1371.39 2134.19,1347.55 2141.71,1340.21C2145.36,1336.66 2152.12,1332.37 2161.67,1330.7C2172.63,1328.79 2190.51,1329.32 2195.73,1329.42C2203.03,1329.56 2224.57,1326.97 2237.99,1329.03C2248.34,1330.62 2256.15,1334.64 2260.66,1339.31C2266.65,1345.52 2271.85,1372.41 2266.52,1398.79C2262.83,1417.01 2256.3,1434.47 2250.51,1441.64C2246.1,1447.11 2241.24,1450.17 2236.88,1451.55C2210.23,1459.36 2180.8,1465.4 2162.52,1458.05C2145.29,1451.11 2131.15,1436.21 2135.53,1402.74C2136.02,1400.02 2136.45,1397.42 2136.85,1394.94ZM2176.3,1377.61C2176.35,1377.47 2176.41,1377.34 2176.46,1377.2C2174.72,1377.25 2173.24,1377.46 2172.22,1377.88C2172.18,1378.98 2172.15,1380.13 2172.11,1381.32C2173.31,1381.08 2175.01,1379.13 2176.3,1377.61Z" style="fill:#fff;"/>
            <path d="M2144.76,1660.76C2145.79,1655.91 2148.24,1650.82 2152.84,1645.97C2158.66,1639.82 2174.66,1631.65 2193.7,1626.56C2211.02,1621.91 2230.74,1619.16 2243.38,1619.79C2256.62,1620.45 2265.69,1625.56 2270.39,1630.18C2276.05,1635.84 2282.11,1650.4 2277.38,1669.82C2271.12,1695.58 2247.98,1735.37 2240.21,1740.51C2234.55,1744.01 2227.89,1746.79 2220.47,1748.14C2209.57,1750.14 2196.98,1749.79 2187.71,1749.43L2153.89,1747.43C2146.85,1745.81 2134.11,1740.23 2132.94,1722.91C2132.05,1709.79 2134.49,1677.29 2143.83,1662.25C2144.14,1661.74 2144.45,1661.24 2144.76,1660.76ZM2172.9,1707.31C2172.54,1712.78 2173.51,1716.38 2177.24,1715.87C2183.8,1714.97 2178.98,1710.79 2172.9,1707.31ZM2191.53,1682.98C2191.77,1682.71 2192.02,1682.43 2192.28,1682.16C2192.75,1681.09 2193.18,1679.71 2193.54,1678.21C2192.34,1678.35 2191.29,1678.54 2190.43,1678.8C2190.69,1680.2 2191.05,1681.6 2191.53,1682.98ZM2192.26,1682.2C2192.01,1682.48 2191.77,1682.77 2191.55,1683.06C2191.59,1683.15 2191.62,1683.24 2191.66,1683.34C2191.87,1683.02 2192.07,1682.63 2192.26,1682.2Z" style="fill:#fff;"/>
            <path d="M2143.28,2087.82C2140.02,2084.33 2137.49,2080.01 2135.77,2074.86C2134.29,2070.42 2134.83,2049.26 2157.95,2041.72C2179.09,2034.83 2234.49,2024.59 2241.82,2024.61C2257.08,2024.67 2266.48,2030.76 2272.26,2038.35C2279.42,2047.74 2282,2062.69 2275.73,2079.73C2265.34,2107.97 2229.52,2143.41 2199.56,2145.62L2171.81,2144.37C2172.43,2144.27 2174.13,2144.46 2173.86,2143.7C2172.1,2138.65 2160.99,2150.31 2156.72,2151.17C2149.97,2152.53 2144.5,2151.81 2140.68,2149.59C2134.93,2146.26 2130.94,2142.06 2129.66,2136.11C2128.86,2132.43 2129.36,2126.45 2130.28,2122.45C2131.6,2117.35 2136.77,2102.89 2143.28,2087.82ZM2241.8,2070.44C2241.81,2070.44 2241.81,2070.44 2241.82,2070.44C2241.81,2070.44 2241.81,2070.44 2241.8,2070.44ZM2215.17,2118.12C2213.56,2118.26 2211.93,2118.16 2210.31,2117.82C2210.05,2118.05 2209.78,2118.3 2209.51,2118.56C2218.03,2123.49 2218.59,2122.13 2215.17,2118.12ZM2152.26,2111.36C2147.88,2109.91 2143.33,2109.03 2145.15,2112.52C2146.39,2114.9 2149.16,2113.64 2152.26,2111.36Z" style="fill:#fff;"/>
            <path d="M1941.03,1946.88C1941.15,1946.69 1941.29,1946.51 1941.42,1946.35C1945.4,1941.47 1949.62,1938.58 1955.24,1941.19C1957.3,1941.8 1958.99,1943.03 1960.18,1944.62C1962.22,1944.42 1964.01,1944.17 1965.4,1943.79C1987.97,1937.92 2025.77,1923.62 2045.99,1932.75C2059.39,1938.8 2070.94,1951.05 2070.49,1977.38C2070.28,1988.63 2070.02,1997.98 2067.96,2006.58C2066.13,2014.22 2063.26,2021.44 2058.2,2028.65C2052.52,2036.73 2044.65,2042.1 2034.75,2044.55C2016.59,2049.05 1988.38,2040.01 1973.89,2041.73C1971.62,2041.96 1952.49,2048.31 1944.58,2049.77C1933.7,2051.77 1926.91,2047.18 1925.31,2045.4C1923.64,2043.56 1918.46,2036.27 1921.21,2024.96C1923.02,2017.53 1928.01,2003.82 1931.56,1993.18C1930.4,1992.92 1929.5,1992.61 1928.94,1992.26C1921.92,1987.89 1918.84,1981.71 1918.15,1974.91C1917.69,1970.34 1917.88,1963.06 1925.38,1955.53C1928.91,1951.98 1934.05,1948.86 1940.58,1947.01C1940.73,1946.97 1940.88,1946.92 1941.03,1946.88ZM2026.25,1993.85C2023.31,1997.18 2018.24,2001.76 2012.94,2006.06L2024.64,2006.28L2026.25,1993.85ZM1953.87,2013.72C1953.25,2013.06 1952.64,2012.34 1952.07,2011.56C1951.7,2012.8 1951.35,2014.01 1951.05,2015.19C1951.99,2014.72 1952.93,2014.23 1953.87,2013.72ZM1949.72,2022.16C1949.22,2027.12 1950.18,2030.6 1953.75,2031.08C1958.94,2031.78 1951.98,2024.4 1949.72,2022.16ZM1944.58,2017.96C1940.54,2014.99 1935.52,2012.01 1936.83,2016.63C1937.58,2019.27 1940.64,2019.26 1944.58,2017.96Z" style="fill:#fff;"/>
            <path d="M1520.49,1389.6C1513.79,1383.58 1509.61,1373.85 1518.84,1359.12C1521.62,1354.58 1526.72,1349.78 1533.29,1345.04C1533.56,1344.61 1533.83,1344.2 1534.11,1343.8C1534.16,1342.8 1534.37,1341.78 1534.76,1340.8C1539.13,1328.24 1548.57,1329.65 1550.66,1330.01C1551.51,1330.15 1552.46,1331.04 1553.59,1332.75C1571.4,1323.49 1592.3,1315.69 1608.31,1312.26C1625.79,1308.52 1639.4,1311.78 1645.3,1314.96C1652.56,1318.88 1656.35,1325.02 1658.76,1331.4C1661.97,1340.19 1663.7,1349.37 1664.5,1358.72C1665.44,1369.79 1664.76,1381.13 1664.76,1392.22C1664.62,1400.05 1661.16,1415.52 1655.13,1426.34C1650.03,1435.49 1643.24,1441.95 1636.94,1444.97C1629.31,1448.62 1620.91,1449.84 1612.26,1447.87C1604.92,1446.19 1597,1441.36 1591.96,1438.98C1587.84,1437.04 1585.03,1435.72 1582.35,1436.47C1566.05,1441 1553.75,1452.75 1534.41,1451.63C1522.7,1450.89 1516.28,1446.03 1512.95,1439.68C1510.59,1435.19 1508.15,1429.43 1509.81,1422.23C1510.64,1418.61 1515.6,1411.94 1516.67,1407.91C1517.51,1404.89 1518.82,1397.96 1520.49,1389.6ZM1618.18,1393.13C1620.67,1395 1623.11,1396.46 1623.76,1394.23C1624.46,1391.79 1621.45,1392.1 1618.18,1393.13ZM1606.41,1384.42C1607.03,1384.86 1607.31,1385.09 1606.77,1384.63C1606.64,1384.52 1606.52,1384.45 1606.41,1384.42Z" style="fill:#fff;"/>
            <path d="M923.764,923.415C928.105,918.01 932.779,916.05 935.38,916.645C935.845,916.752 936.425,916.887 937.079,917.083C960.118,898.654 990.155,895.129 1010.17,904.885C1029.91,914.501 1044.05,936.157 1035.46,972.396C1031.84,987.162 1021.29,997.897 1006.16,1004.95C987.744,1013.54 960.262,1015.02 946.44,1021.87C942.865,1023.46 937.255,1028.53 933.959,1029.44C928.223,1031.04 923.209,1031.12 919.16,1029.25C914.181,1026.95 908.431,1023.84 906.407,1015.73C905.958,1013.77 906.101,1006.98 906.783,997.916C739.104,1131.42 792.718,866.45 923.764,923.415ZM961.122,947.311C961.14,947.327 961.158,947.342 961.176,947.357C961.42,947.144 961.658,946.935 961.886,946.735C961.63,946.924 961.376,947.116 961.122,947.311ZM973.136,940.794C985.363,939.787 991.968,958.951 991.475,966.651C993.361,965.72 994.78,964.439 995.31,962.359C998.875,948.796 995.654,940.222 986.865,939.166C982.514,938.643 977.807,939.21 973.136,940.794ZM943.994,1003.18C943.996,1003.18 943.999,1003.19 944.001,1003.2C943.999,1003.19 943.996,1003.18 943.994,1003.18ZM923.211,990.387C919.542,990.212 915.98,990.491 917.932,992.814C919.357,994.511 921.288,992.708 923.211,990.387ZM961.681,947.783L962.521,946.579C962.18,946.93 961.839,947.28 961.499,947.629C961.56,947.68 961.62,947.732 961.681,947.783Z" style="fill:#fff;"/>
            <path d="M853.465,1032.14C868.598,1020.09 885.254,1009.56 894.53,1006.2C904.597,1002.54 912.379,1004.43 916.648,1006.53C924.236,1010.3 934.048,1029.2 929.832,1054.43C924.851,1084.25 906.311,1121.77 896.605,1126.61C891.038,1129.33 884.937,1130.77 878.504,1131.13C870.805,1131.55 862.399,1129.69 855.366,1130.41C851.487,1130.77 835.574,1135.34 828.702,1134.86C820.917,1134.32 815.579,1131.3 812.612,1128.07C809.6,1124.79 805.188,1118.2 805.199,1107.89C805.216,1091.4 811.867,1053.9 821.817,1037.87C834.977,1016.67 849.69,1019.42 852.814,1029.78C852.997,1030.39 853.227,1031.17 853.465,1032.14ZM849.406,1065.47C849.119,1065.42 848.832,1065.35 848.546,1065.27C847.974,1065.11 847.396,1065 846.824,1064.9C846.49,1066.09 846.153,1067.3 845.816,1068.53C847.277,1069.87 850.036,1070.46 853.347,1070.71C852.196,1068.94 850.769,1066.95 849.406,1065.47ZM883.701,1078.83C884.303,1079.83 884.8,1080.89 885.184,1081.99C886.121,1080.13 887.02,1078.06 887.862,1075.87C886.495,1076.9 885.103,1077.89 883.701,1078.83ZM894.026,1042.24C893.574,1037.57 892.034,1034.59 889.041,1034.78C884.393,1035.08 889.753,1039.41 894.026,1042.24Z" style="fill:#fff;"/>
            <path d="M749.06,933.439C757.87,927.917 767.202,919.957 776.029,917.141C783.991,914.602 791.745,914.435 799.086,916.881C820.157,923.904 826.553,938.772 824.89,955.897C822.458,980.958 792.304,1013.35 779.005,1017.75C769.534,1020.82 753.645,1031.67 740.986,1033.3C733.399,1034.28 726.397,1033.38 720.485,1030.13C715.99,1027.66 709.675,1022.28 708.338,1011.59C706.858,999.753 709.258,972.31 713.991,955.738C737.452,873.59 784.976,855.686 749.06,933.439ZM785.366,954.563C785.533,954.719 785.697,954.877 785.857,955.035L786.797,953.747L785.366,954.563ZM748.248,992.994C746.977,990.794 746.13,988.318 745.818,985.68C744.268,985.25 742.705,984.758 741.18,984.239C740.352,989.383 739.753,994.181 739.814,997.889C742.129,996.928 745.093,995.104 748.248,992.994ZM739.823,998.281C739.963,1002.97 741.229,1005.79 744.551,1005.15C748.682,1004.34 743.509,1000.51 739.823,998.281ZM739.426,998.044C738.45,997.468 737.615,997.026 737.143,996.812C736.468,996.507 735.13,995.224 735.08,995.988C734.895,998.803 736.638,999.117 739.426,998.044Z" style="fill:#fff;"/>
            <path d="M119.359,931.087C123.265,930.933 126.982,930.743 129.092,930.521L236.126,919.06C256.825,917.59 277.079,918.713 297.117,921.122C333.217,925.462 368.538,934.246 404.729,937.165C406.81,936.711 408.829,936.217 410.775,935.685C416.516,934.096 438.369,925.065 447.604,923.667C463.812,921.214 472.096,931.164 475.145,936.9C476.182,938.84 477.212,940.85 478.232,942.924C479.984,942.681 481.362,942.552 482.325,942.547C483.358,942.541 488.394,942.246 490.5,942.513C497.035,943.34 501.012,946.573 503.084,948.622C510.599,956.055 511.074,964.448 508.841,971.703C506.891,978.038 501.391,983.41 495.189,986.204C498.487,996.724 501.432,1007.73 503.891,1018.87C510.763,1049.99 513.288,1082.15 509.677,1108.21C508.991,1111.89 498.395,1129.71 491.8,1144.98C495.807,1143.77 499.856,1142.46 503.034,1141.27C515.952,1136.42 528.473,1132.72 538.436,1132.91C539.855,1132.94 541.309,1133.03 542.794,1133.16C550.107,1126.74 559.462,1122.98 570.043,1121.31C588.404,1118.41 612.334,1125.48 634.773,1133.9C634.407,1130.49 633.667,1127.04 632.734,1123.58C627.697,1104.94 617.587,1086.37 612.363,1070.32C609.264,1061.22 610.181,1053.89 612.515,1047.63C615.03,1040.88 620.383,1035.46 625.442,1030.34C662.303,992.999 686.851,1003.69 700.784,1022.94C717.457,1045.97 716.309,1111.08 715.572,1139.83C718.917,1139.84 722.964,1139.76 726.14,1139.38C749.36,1136.63 776.513,1130.89 791.96,1134.27C815.332,1139.37 835.107,1155.29 811.979,1202.34C806.831,1212.83 800.29,1220.31 792.878,1225.61C793.949,1235.84 791.43,1245.55 790.04,1247.04C776.824,1260.37 758.556,1263.68 738.484,1258.16C733.516,1256.8 728.389,1254.79 723.301,1252.38C720.772,1271.98 709.901,1289.15 701.044,1307.19C697.943,1313.51 692.07,1319.42 683.319,1323.39C673.553,1327.82 656.681,1329.32 649.596,1330.79C622.524,1336.42 608.241,1328.84 600.274,1320.52C590.554,1310.37 587.788,1291.2 590.789,1268.39C590.999,1266.79 591.278,1265.14 591.58,1263.45C590.707,1262.76 589.906,1262.05 589.178,1261.32C584.491,1256.62 580.113,1249.23 581.001,1238.61C581.212,1236.08 582.449,1232.49 584.071,1228.78C583.351,1228.31 582.581,1227.86 581.758,1227.42C556.198,1213.82 477.715,1219.38 444.214,1215.98C429.321,1214.47 419.635,1209.89 415.92,1206.12C408.504,1198.6 404.611,1187.59 405.167,1174.06C405.775,1159.28 413.029,1132.05 416.772,1118.85C413.286,1117.66 409.016,1116 404.7,1115.64C384.184,1113.93 356.208,1114.04 328.915,1114.18C318.047,1120.79 307.795,1126.39 298.395,1130.99C259.884,1151.71 242.868,1153.84 242.989,1144.41C237.939,1140.31 242.225,1129.94 259.28,1113.09C249.345,1112.32 241.289,1111.11 235.935,1109.36C219.199,1103.99 212.334,1093.1 210.02,1079.49C207.639,1065.48 214.514,1045.39 214.299,1027.5C214.282,1026.06 214.387,1024.33 214.588,1022.39C202.172,1022.52 190.408,1022.04 187.74,1022.07C154.832,1020.31 134.517,1017.55 122.504,1008.4C113.846,1001.8 106.27,992.485 103.721,977.679C100.281,977.562 97.213,977.287 94.892,976.793C87.336,975.185 82.413,971.498 79.521,968.363C71.908,960.11 66.433,947.828 81.151,932.932C88.383,925.612 96.708,923.667 105.899,925.33C109.124,925.914 115.368,928.994 119.359,931.087ZM226.644,981.272C227.994,979.653 229.421,978.386 230.89,977.416C200.991,977.269 171.24,978.04 141.055,978.461C141.398,978.723 141.762,978.968 142.149,979.196C151.053,984.449 165.217,982.023 187.74,980.818C190.833,980.855 215.42,981.142 226.644,981.272ZM727.527,1184.88C733.287,1186.16 739.396,1187.49 745.561,1188.42C754.556,1189.78 764.703,1191.51 769.896,1181.3C770.114,1180.87 770.308,1180.43 770.481,1179.99C766.102,1180.25 761.131,1180.64 757,1181.24C747.212,1182.66 737.059,1184.11 727.527,1184.88ZM672.409,1105.11C672.61,1090.41 672.051,1074.73 669.604,1061.81C669.021,1058.74 667.73,1054.88 666.699,1052.05C663.786,1053.99 659.549,1057.06 655.836,1060.73C655.492,1061.07 655.15,1061.56 654.805,1062.1C659.892,1075.41 667.163,1090.15 672.409,1105.11ZM261.695,995.078C269.643,989.873 279.432,984.495 291.425,979.368C277.731,978.443 264.152,977.927 250.631,977.655C252.535,978.686 254.128,979.848 255.254,980.891C256.827,982.348 260.955,986.322 261.695,995.078Z" style="fill:#fff;"/>
            <path d="M209.078,1250.7C214.299,1251.11 218.203,1255.69 217.789,1260.91C217.376,1266.13 212.802,1270.03 207.581,1269.62L201.767,1269.51C196.497,1269.51 192.218,1265.23 192.218,1259.96C192.218,1254.69 196.497,1250.41 201.767,1250.41L209.078,1250.7Z" style="fill:#fff;"/>
            <path d="M235.169,1441.54C235.167,1441.59 235.163,1441.64 235.156,1441.69C235.04,1442.58 233.584,1441.12 232.953,1440.95C233.694,1441.15 234.432,1441.34 235.169,1441.54ZM189.364,1375.16C190.19,1372.04 191.767,1368.87 194.417,1365.79C190.769,1348.99 190.215,1331.1 192.684,1313.01C195.951,1289.08 203.404,1265.23 208.349,1243.72C210.329,1242.7 211.347,1245.23 213.029,1242.66C214.434,1240.53 213.862,1237.68 214.127,1236.75C216.2,1229.44 220.903,1227.61 222.635,1227.63C225.075,1227.68 229.719,1226.77 232.124,1231.87C232.362,1232.38 233.525,1233.68 233.767,1236.73C233.821,1236.95 233.867,1237.18 233.904,1237.4C242.854,1227.46 255.034,1220.1 263.891,1220.27C273.784,1220.45 279.66,1224.63 283.405,1229.73C291.847,1231.82 296.764,1237.62 299.628,1245.06C301.178,1249.08 300.732,1256.24 299.799,1262.26C301.897,1269.44 301.888,1278.04 299.211,1287.78C296.487,1297.69 294.485,1316.63 289.182,1326.56C294.742,1324.93 301.037,1323.47 307.855,1322.4C335.731,1318.01 372.811,1318.99 389.369,1326.36C398.159,1330.27 403.872,1336.09 407.574,1342.51C415.811,1347.84 422.077,1354.86 426.152,1363.19C430.986,1373.87 431.1,1382.81 428.214,1390.69C426.099,1396.47 418.05,1405.73 415.283,1408.81L405.943,1428.69C401.68,1441.78 388.295,1449.61 374.796,1446.91L354.563,1443.86C327.705,1439.95 302.974,1446.79 276.647,1446.87C263.158,1446.92 249.507,1445.24 235.169,1441.54C235.287,1438.49 226.088,1442.35 220.448,1442.41C216.126,1442.45 210.361,1440.57 207.142,1440.38C207.318,1440.17 207.498,1439.96 207.679,1439.75C207.245,1439.97 206.806,1440.18 206.363,1440.38C205.616,1440.41 205.083,1440.6 204.844,1441.01C197.035,1444.02 188.037,1443.86 179.97,1439.83C167.821,1440.15 168.254,1428.02 163.797,1424.68C161.691,1423.1 163.136,1420.24 161.536,1418.43C154.538,1410.49 164.98,1403.58 166.667,1391.62C167.431,1386.21 174.665,1384 185.849,1376.84C186.802,1376.23 187.987,1375.67 189.364,1375.16ZM207.142,1440.38C205.821,1441.96 204.698,1443.34 204.703,1441.58C204.703,1441.35 204.752,1441.16 204.844,1441.01C205.355,1440.81 205.862,1440.6 206.363,1440.38C206.601,1440.36 206.862,1440.37 207.142,1440.38ZM211.236,1437.64C215.308,1436.99 216.987,1434.19 218.157,1431.09C216.175,1433.66 213.831,1435.86 211.236,1437.64ZM223.044,1421.85C224.354,1420.51 225.053,1419.14 225.323,1417.7C224.934,1417.57 224.547,1417.43 224.162,1417.29C223.909,1418.82 223.538,1420.34 223.044,1421.85ZM235.839,1299.11C236.315,1297.04 236.807,1294.94 237.329,1292.89C236.939,1292.66 236.556,1292.43 236.18,1292.19C236.051,1294.49 235.936,1296.8 235.839,1299.11ZM222.876,1250.12C223.262,1249.56 223.676,1248.99 224.116,1248.42C221.151,1248.29 218.416,1246.77 216.739,1244.35C219.228,1249.44 221.154,1250.74 222.876,1250.12Z" style="fill:#fff;"/>
            <path d="M503.957,1381.99C502.737,1372.63 502.453,1362.93 504.271,1355.46C507.245,1343.24 512.93,1336.16 518.34,1335.35C521.636,1334.86 526.514,1333.78 531.009,1336.61C535.49,1335.98 541.242,1335.59 548.456,1335.76L570.307,1336.32C569.99,1330.78 587.695,1333.47 594.56,1334.96C595.532,1335.17 596.474,1335.41 597.387,1335.69C643.18,1318.02 634.7,1353.84 613.431,1374.76C613.344,1375.06 613.253,1375.36 613.16,1375.67C611.667,1384.1 614.559,1398.69 613.363,1408.4C612.085,1418.77 608.326,1426.64 603.583,1431.32C599.753,1437.75 586.106,1442.82 567.622,1442C551.667,1441.29 531.125,1432.78 526.106,1431.22C518.542,1428.86 511.08,1423.11 506.15,1416.08C501.927,1410.06 499.959,1403.01 499.823,1396.23C499.823,1390.99 501.34,1386.11 503.957,1381.99ZM543.513,1419.02C543.113,1418.75 542.744,1418.52 542.41,1418.34C542.661,1418.48 543.075,1418.76 543.513,1419.02ZM613.987,1372.7C613.983,1372.72 613.98,1372.73 613.977,1372.74C614.093,1372.47 614.197,1372.23 614.285,1372.06C614.179,1372.27 614.08,1372.48 613.987,1372.7ZM572.497,1336.38L572.504,1336.38C572.502,1336.38 572.499,1336.38 572.497,1336.38ZM577.544,1341.74C578.772,1341.71 579.93,1341.66 580.998,1341.57C579.505,1340.41 578.381,1340.62 577.544,1341.74ZM565.139,1384.99C561.781,1385.03 558.444,1385.02 555.217,1384.95C556.548,1385.36 557.675,1385.77 558.509,1386.14C558.548,1386.16 558.589,1386.18 558.632,1386.2C560.365,1386.72 562.155,1387.26 563.961,1387.81C564.281,1387.42 564.606,1387.03 564.933,1386.62C564.995,1386.08 565.063,1385.54 565.139,1384.99Z" style="fill:#fff;"/>
            <path d="M694.791,1384.6C693.358,1376.16 696.132,1367.76 701.843,1361.85C704.089,1357.31 706.832,1353.49 710.206,1350.93C716.87,1345.86 721.22,1344.11 728.487,1344.22C731.271,1344.26 734.29,1344.17 737.562,1344.63L742.346,1342.64C763.149,1335.36 821.279,1321.38 865.978,1319.6C897.996,1318.32 923.998,1325.92 935.841,1337.5C945.042,1346.49 947.53,1357.35 945.84,1368.62C944.077,1380.37 933.162,1393.78 929.998,1397.02C924.291,1402.84 916.435,1410.76 908.106,1417.24C900.407,1423.22 892.174,1427.91 884.519,1430.49C867.775,1436.09 849.587,1439.06 830.736,1440.18C812.253,1441.29 793.12,1441.38 774.384,1440.81C757.004,1440.28 740.262,1438.37 724.395,1440.68C719.148,1441.41 712.441,1442.5 707.694,1440.59C703.734,1439 699.704,1437.57 696.925,1434.13C696.78,1433.94 689.251,1426.13 690.952,1412.19C691.741,1405.73 692.701,1395.26 694.791,1384.6ZM852.947,1389.01C852.837,1389.01 852.727,1389.01 852.617,1389C852.979,1389.43 853.195,1389.66 853.016,1389.18C852.994,1389.12 852.971,1389.06 852.947,1389.01ZM733.742,1406.95C733.833,1408.04 733.93,1409.08 734.032,1410.04C734.357,1413.14 733.929,1416.67 735.037,1416.5C740.914,1415.57 737.461,1410.71 733.742,1406.95ZM835.824,1380.39C835.933,1380.38 836.041,1380.37 836.15,1380.35C835.871,1379.97 835.608,1379.58 835.359,1379.18C835.227,1379.19 835.095,1379.21 834.963,1379.22C835.225,1379.64 835.513,1380.03 835.824,1380.39Z" style="fill:#fff;"/>
            <path d="M914.452,1483.16C913.786,1477.18 915.302,1471.11 918.799,1466.11C920.897,1459.16 923.158,1453.51 925.46,1450.52C929.932,1444.7 934.258,1441.45 938.057,1440.26C949.32,1430.53 963.514,1425.33 977.422,1425.25C998.826,1425.12 1020.79,1436.66 1032.01,1464.53C1043.22,1493.32 1030.4,1516.73 1004.72,1532.34C993.046,1539.44 978.846,1545.84 965.481,1548.33C954.498,1550.38 944.793,1550.13 938.336,1550.02C922.53,1549.74 914.002,1543.52 912.964,1541.91C911.534,1539.85 906.88,1532.56 908.118,1520.88C909.058,1512.02 911.378,1497.15 914.452,1483.16Z" style="fill:#fff;"/>
            <path d="M1006.68,1620.05L1006.63,1620.04C1006.63,1620.04 1006.92,1619.07 1007.44,1617.53L1008.6,1613.69C1010.02,1607.33 1011.32,1593.92 1013.52,1580.66C1011.81,1573.66 1013.59,1566.63 1015.99,1560.86C1016.84,1559.18 1018.14,1557.08 1020.06,1554.86C1022.44,1548.75 1024.72,1543.9 1026.79,1544.89C1026.94,1544.97 1027.08,1545.05 1027.2,1545.13C1027.16,1544.4 1027.21,1543.66 1027.34,1542.91C1025.56,1529.09 1042.16,1537.66 1045.04,1539.86C1053.44,1536.56 1063.4,1533.31 1072.94,1530.98C1097.55,1524.97 1119.92,1530.37 1125.79,1536.32C1127.99,1538.55 1133.99,1545.45 1133.57,1557.44C1133.39,1562.43 1131.18,1574.46 1131.16,1576.59C1130.98,1588.76 1134.3,1610.5 1128.75,1621.9C1124.2,1631.25 1117.01,1638.19 1105.6,1640.87C1095.16,1643.15 1065.45,1629.28 1051.28,1628.73C1051.24,1628.67 1051.18,1628.62 1051.1,1628.56C1050.56,1628.16 1050.11,1628.31 1049.73,1628.73C1049.49,1628.74 1049.26,1628.75 1049.03,1628.77L1048.79,1630.64C1048.71,1630.9 1048.63,1631.15 1048.57,1631.41C1048.61,1631.38 1048.65,1631.36 1048.7,1631.34L1048.67,1631.56L1048.54,1631.52C1048.3,1632.51 1048.18,1633.34 1048.18,1633.34C1044.62,1644.47 1032.91,1650.81 1021.64,1647.72C1010.37,1644.63 1003.54,1633.21 1006.14,1621.82L1006.68,1620.05ZM1051.28,1628.73C1051.92,1629.54 1049.94,1630.65 1048.7,1631.34L1048.79,1630.64C1049.03,1629.89 1049.34,1629.16 1049.73,1628.73C1050.22,1628.71 1050.74,1628.71 1051.28,1628.73ZM1048.42,1631.49L1044.7,1630.47C1043.92,1631.3 1043.53,1632.46 1043.59,1634.01C1043.68,1636.03 1046.85,1632.4 1048.1,1631.67C1048.19,1631.62 1048.3,1631.56 1048.42,1631.49ZM1065.93,1570.63C1066.61,1560.4 1064.73,1549.91 1058.1,1556.44C1054.58,1559.9 1059.26,1564.79 1065.93,1570.63ZM1082.95,1565.73C1084.19,1560.79 1084.79,1556.06 1082.07,1556C1076.35,1555.88 1079.23,1561.07 1082.95,1565.73ZM1093.42,1592.49C1093.45,1592.48 1093.48,1592.48 1093.5,1592.47C1093.48,1592.48 1093.45,1592.48 1093.42,1592.49Z" style="fill:#fff;"/>
            <path d="M971.604,1835.81C975.527,1833.13 982.759,1827.79 986.223,1825.39C1001.07,1815.1 1015.2,1822.23 1015.7,1822.45C1020.33,1824.61 1024.91,1827.28 1029.34,1830.39C1028.9,1828.19 1028.58,1825.92 1028.36,1823.58C1028.36,1823.57 1028.35,1823.57 1028.34,1823.56C1026.53,1821.51 1020.03,1812.49 1023.72,1798.75C1024.75,1794.94 1026.79,1790.05 1029.74,1784.89L1034.39,1762.68L1034.38,1756.95C1034.38,1753.36 1035.21,1749.83 1036.82,1746.62C1043.42,1733.31 1054.43,1729.58 1067.93,1735.94C1073.05,1738.35 1079.13,1746.72 1081.53,1753.68C1083.26,1754 1085.03,1754.45 1086.82,1755.04C1087.48,1755.25 1088.12,1755.48 1088.75,1755.72C1090.52,1753.09 1091.94,1751.18 1092.86,1750.25C1100.14,1742.92 1107.53,1742.13 1113.05,1742.54C1119.71,1743.04 1126.23,1745.91 1131.32,1752.82C1134.5,1757.14 1136.03,1773.68 1136.72,1785.2C1137.26,1790.47 1137.26,1795.11 1137.24,1796.56C1137.24,1796.75 1137.24,1796.84 1137.24,1796.84L1137.23,1796.84C1137.23,1796.97 1137.23,1797.04 1137.23,1797.04C1136.4,1806.72 1129.88,1814.54 1121.24,1817.49C1122.19,1827.81 1117.69,1841.03 1106.11,1853.95C1102.01,1858.53 1096.82,1863.32 1091.12,1868.12C1090.56,1869.54 1090.05,1870.94 1089.6,1872.32C1099.1,1872.79 1108.44,1872.74 1117.25,1871.16C1168.04,1862.58 1218.48,1854.36 1269.42,1849.26C1281,1848.1 1292.59,1847.09 1304.21,1846.25C1362.5,1817.33 1403.16,1807.34 1431.5,1780.57L1430.95,1735.38C1429.64,1715.02 1428.46,1694.66 1427.95,1674.3C1427.37,1651.27 1427.61,1628.24 1429.4,1605.21L1428.62,1540.35C1423.42,1540.07 1418.56,1539.71 1416.43,1539.27L1374.1,1523.57C1370,1523.62 1355.99,1527.81 1349.93,1528.23C1340.55,1528.87 1334.77,1524.63 1332.29,1522.21C1328.05,1518.06 1323.37,1506.49 1328.14,1489.74C1325.24,1488.13 1322.95,1486.54 1321.41,1484.98C1314.73,1478.1 1309.17,1464.21 1312.18,1445.72C1313.35,1438.54 1315.65,1430.2 1318.49,1421.72C1295.55,1424.74 1268.78,1427.11 1248.94,1426.37C1226.65,1425.53 1211.24,1419.12 1207.52,1414.51C1204.42,1410.68 1200.19,1404.89 1200.54,1396.05C1201.11,1381.5 1210.95,1350.05 1222.18,1337.1C1230.24,1327.82 1237.88,1324.79 1242.89,1326.52C1245.89,1327.55 1251.28,1330.28 1254.05,1337.9L1264.74,1339.19C1273.69,1336.55 1283.21,1335.2 1293.03,1334.65C1313.75,1333.48 1336.05,1336.46 1356.06,1336.21C1360.78,1336.15 1383.7,1331.62 1393.28,1331.22C1405.65,1330.7 1412.98,1336.42 1415.46,1338.84C1423.58,1346.76 1428.49,1358.17 1430.37,1372.04C1432.2,1385.54 1430.8,1402.25 1430.16,1417.9C1429.82,1426.19 1426.46,1434.21 1430.44,1438.08C1434.58,1442.1 1447.53,1443.46 1460.11,1445.16C1465.15,1445.84 1470.27,1446.75 1474.8,1447.19C1476.58,1442.51 1479.62,1435.4 1481.63,1432.64C1491.45,1419.13 1504.38,1422.46 1510.37,1425.78C1512.29,1426.84 1516.21,1429 1518.94,1433.83C1519.26,1433.91 1519.58,1434 1519.9,1434.09C1528.82,1436.64 1535.83,1443.55 1538.53,1452.43L1541.85,1470.38L1534.31,1520.49C1540.62,1567.91 1549.16,1669.92 1547.3,1761.52C1545.87,1831.56 1537.74,1895.59 1521.02,1927.6C1508.3,1951.94 1490.76,1958.8 1472.11,1957.23C1459.38,1956.15 1445.19,1948.37 1432.05,1939.81C1431.58,1952.51 1430.79,1966.99 1429.83,1982.18L1438.69,2020.75C1440.91,2036.88 1440.66,2052.11 1439.23,2067.05C1437.25,2087.68 1432.56,2107.67 1428.82,2129.01C1428.2,2132.02 1423.23,2151.41 1421.13,2159.31C1419.69,2164.7 1417.22,2168.64 1414.13,2171.47C1446.92,2174.57 1481.24,2179.59 1509.89,2178.54C1522.07,2178.09 1533.02,2176.98 1541.61,2173.24C1540.9,2173.6 1540.31,2174.02 1540.78,2174.38C1541.74,2175.14 1542.37,2174.24 1542.85,2172.68C1542.86,2172.68 1542.87,2172.67 1542.88,2172.66C1542.87,2172.67 1542.86,2172.68 1542.85,2172.68C1543.5,2170.56 1543.89,2167.22 1544.46,2165.08C1547.44,2153.81 1549.44,2139.94 1549.67,2126.39C1549.97,2108.64 1548.72,2091.78 1546.63,2082.86C1544.56,2079.13 1541.09,2072.57 1540.79,2069.76C1540.09,2063.18 1542.76,2058.03 1546.69,2053.79C1549.59,2050.66 1553.12,2048.63 1556.86,2047.02C1562.63,2044.53 1570.32,2045.17 1576.53,2043.68C1580.76,2042.67 1601.02,2038.32 1613.42,2038.21C1624.44,2038.11 1632.18,2042.61 1635.99,2046.14C1641.12,2050.9 1645.56,2061.09 1646.19,2074.95C1647.17,2096.41 1639.67,2131.66 1637.37,2139.29C1632.04,2154.12 1636.33,2183.05 1631.55,2202.15C1628.92,2212.66 1624.55,2221.38 1618.17,2227.47C1607.72,2237.43 1591.35,2243.6 1570.93,2244.72C1541.42,2246.35 1501.53,2237.53 1470.71,2232.23C1456.68,2231.78 1442.18,2230.88 1427.77,2229.9C1417.77,2232.47 1391.08,2238.56 1374.13,2241.2C1361.38,2243.19 1351.77,2241.33 1348.97,2240.05C1342.64,2237.17 1338.15,2232.94 1335.48,2227.4C1321.67,2230.12 1294.85,2237.85 1275.85,2238.92C1264.41,2239.57 1254.69,2237.7 1247.57,2234.45C1233.7,2228.14 1219.92,2206.55 1212.63,2176.68C1202.93,2136.93 1201.29,2081.62 1203.28,2062.91C1203.99,2057.47 1206.13,2051.79 1208.55,2046.41L1137.63,2041.14C1109.89,2040.29 1075.82,2032.26 1044.61,2031.1C1033.55,2030.69 1022.92,2030.91 1013.46,2033.74C1010.89,2034.64 1011.81,2038.73 1010.68,2042.27C1008.22,2049.91 1007.07,2059 1006.28,2068.26C1004.32,2091.54 1006.2,2116.05 1007.55,2126.86C1009.12,2139.44 1016.96,2152.37 1021.79,2164.88C1028.58,2182.45 1030.92,2199.56 1026.7,2214.55C1022.31,2230.19 1011.04,2245.5 984.687,2256.35C974.765,2260.09 954.332,2259.12 954.332,2259.12C954.332,2259.12 955.963,2258.74 956.78,2258.48C959.567,2257.61 965.371,2253.31 965.371,2253.31C965.371,2253.31 926.744,2272.12 914.125,2259C913.593,2258.45 904.479,2242.17 907.023,2215.4C911.327,2170.09 922.992,2062.71 927.365,2032.26C929.897,2014.59 930.188,1996.63 928.974,1978.68C927.015,1949.73 921.607,1920.88 917.216,1893.21C916.634,1890.31 911.504,1877.44 910.91,1869.27C910.122,1858.44 914.59,1850.42 919.38,1845.31C924.836,1839.48 933.316,1835.79 944.075,1834.81C951.052,1834.16 965.981,1835.33 971.604,1835.81ZM1541.61,2173.24C1542.05,2173.02 1542.54,2172.83 1542.85,2172.68C1542.44,2172.87 1542.03,2173.06 1541.61,2173.24ZM1215.74,2031.34C1218.21,2025.64 1219.02,2021.59 1215.22,2020.62C1210.48,2019.42 1213.11,2026.01 1215.74,2031.34ZM1281.98,2184.32C1279.8,2180.32 1278.17,2175.95 1277.24,2171.69C1275.03,2170.73 1272.76,2169.48 1270.44,2167.94C1270.33,2167.87 1270.23,2167.79 1270.12,2167.71C1270.4,2169.27 1270.71,2170.79 1271.03,2172.27C1271.93,2176.34 1273.58,2181.47 1274.64,2184.59C1276.7,2184.56 1279.29,2184.49 1281.98,2184.32ZM1275.34,2002.55C1277.5,1994.68 1279.84,1987.03 1282.35,1979.75C1281.88,1979.75 1281.41,1979.75 1280.94,1979.75C1273.78,1982.37 1265.31,1984.68 1255.76,1986.48C1265.74,1990.2 1271.64,1996.31 1275.34,2002.55ZM980.728,1994.97C980.585,1994.96 980.443,1994.96 980.301,1994.95C980.306,1995.09 980.312,1995.22 980.318,1995.35C980.454,1995.22 980.591,1995.1 980.728,1994.97ZM967.758,2187.32C967.537,2190.68 967.324,2193.95 967.122,2197.09C967.919,2196.63 968.596,2196.12 969.137,2195.52C971.347,2193.06 969.604,2190.36 967.758,2187.32ZM966.862,1894.33C973.632,1895.03 983.559,1896.74 991.088,1898.15C991.056,1895.42 991.467,1892.73 992.178,1890.12C992.677,1888.29 993.87,1886.13 995.345,1883.94C994.397,1884.48 993.672,1884.87 993.266,1885.05C988.25,1887.36 976.143,1887.49 965.582,1887.07C966.005,1889.48 966.432,1891.9 966.862,1894.33ZM1586.72,2196.45C1586.79,2196.38 1586.86,2196.31 1586.93,2196.23L1586.95,2195.99C1586.87,2196.15 1586.79,2196.3 1586.72,2196.45ZM1593.73,2119.26C1597.36,2110.42 1604.47,2092.9 1606.01,2081.8C1599.88,2082.19 1591.33,2082.76 1586.95,2083.16C1589.55,2093.04 1592.05,2105.76 1593.73,2119.26ZM1606.31,2077.87C1606.29,2073.82 1604.97,2071.39 1601.57,2071.86C1598.96,2072.22 1604.05,2075.74 1605.18,2076.96C1605.44,2077.24 1605.84,2077.55 1606.31,2077.87ZM1495.35,1751.44C1490.86,1762.17 1486,1771.51 1480.76,1779.81C1480.54,1809.37 1480.33,1833.16 1480.23,1845.59C1480.27,1848.1 1480.31,1850.62 1480.33,1853.14L1478.88,1908.36C1479.16,1907.93 1479.42,1907.45 1479.67,1906.93C1493.25,1878.52 1495.89,1822.26 1495.45,1761.18C1495.43,1757.94 1495.39,1754.7 1495.35,1751.44ZM1478.85,1446.79C1478.85,1446.63 1478.85,1446.47 1478.84,1446.33C1478.84,1446.48 1478.85,1446.64 1478.85,1446.79ZM1405,1842.81C1411.39,1842.83 1417.78,1842.9 1424.19,1843.01C1426.14,1843.04 1429.6,1841.96 1432.23,1841.78L1432.06,1827.48C1423.76,1832.76 1414.77,1837.74 1405,1842.81ZM1275.27,2127.18C1270.58,2129.12 1266.19,2131.78 1270.09,2133.36C1273.31,2134.66 1274.72,2131.59 1275.27,2127.18ZM1481.04,1553.05C1481.15,1558 1481.22,1563.15 1481.26,1568.49C1481.4,1589.42 1481.44,1613.52 1481.41,1638.66C1482.81,1621.13 1483.21,1601.41 1482.64,1581.78C1482.36,1572.09 1481.83,1562.41 1481.04,1553.05Z" style="fill:#fff;"/>
            <path d="M1209.97,1623.64C1206.45,1617.84 1221.02,1607.38 1229.22,1603.46C1229.67,1603.24 1230.19,1603.06 1230.77,1602.91C1230.89,1601.87 1230.94,1600.85 1230.87,1599.88C1229.76,1584.59 1224.65,1566.78 1226.67,1555.2C1230.09,1535.59 1238.11,1529.5 1246.49,1531.23C1248.75,1531.69 1251.75,1531.66 1255.1,1533.75C1258.27,1535.59 1259.98,1538.99 1259.82,1542.41C1267,1532.47 1275.77,1526.96 1284.92,1524.99C1296.08,1522.59 1309.99,1525 1324.93,1539.58C1328.38,1542.9 1332.87,1550.16 1333.14,1561.54C1333.42,1573.7 1326.88,1602.57 1327.01,1608.65C1328.04,1659.1 1324.22,1690.23 1310.3,1709.11C1294.59,1730.42 1265.33,1741.19 1207.77,1740.21C1200.17,1739.82 1170.5,1740.82 1152.65,1738.66C1139.23,1737.04 1129.72,1732.53 1125.98,1728.51C1118.72,1720.95 1116.33,1712.56 1117.98,1703.28C1119.3,1695.92 1128.81,1686.71 1130.61,1678.59C1136.91,1650.01 1147.23,1639.32 1159.65,1633.59C1170.69,1628.49 1186.36,1630.08 1209.97,1623.64ZM1231.29,1687.57C1231.36,1684.77 1231.47,1681.73 1231.62,1678.46C1231.34,1678.42 1231.07,1678.39 1230.79,1678.37C1222.95,1677.85 1214.69,1678.49 1207.94,1679.33C1205.62,1680.48 1203.08,1681.26 1200.39,1681.57C1200.88,1681.22 1201.41,1680.73 1201.95,1680.15C1200.24,1680.27 1197.94,1679.72 1198.11,1680.7C1198.18,1681.15 1198.3,1681.48 1198.47,1681.71C1198.23,1681.71 1197.99,1681.72 1197.75,1681.72C1186.85,1684.1 1179.28,1681.95 1174.04,1678.28C1173.69,1680.39 1173.39,1682.94 1172.88,1685.96C1186.82,1686.35 1203.34,1689.74 1207.77,1689.51C1216.5,1689.12 1224.3,1688.42 1231.29,1687.57ZM1200.39,1681.57C1199.59,1682.13 1198.89,1682.29 1198.47,1681.71C1199.12,1681.69 1199.76,1681.64 1200.39,1681.57Z" style="fill:#fff;"/>
            <path d="M1637.08,1983.54C1636.14,1982.32 1635.41,1981.09 1634.84,1979.91C1631.81,1973.57 1630.35,1965.27 1639.04,1956.64C1641.14,1954.55 1645.8,1951.18 1653.38,1950.2C1661.38,1949.17 1680.68,1950.6 1684.45,1950.03C1694.66,1948.48 1700.19,1939.61 1703.92,1938.26C1712.56,1935.12 1719.74,1936.88 1726.38,1943.2C1728.99,1945.68 1732.33,1950.55 1734.32,1959.96L1742,1992.44C1744.56,2014.79 1734.66,2027.02 1720.24,2034.6C1710.33,2039.8 1696.52,2042.13 1682.99,2043.12C1676.87,2043.57 1670.74,2042.42 1666.2,2043.41C1667.13,2048.25 1648.33,2055.14 1642.57,2053.75C1639,2052.89 1635.08,2051.84 1632.01,2048.25C1631.37,2047.51 1625.44,2039.56 1627.7,2026.66C1629.47,2016.56 1633.53,1998.68 1637.08,1983.54ZM1662.83,2044.8C1662.83,2044.8 1662.83,2044.8 1662.82,2044.81C1662.83,2044.8 1662.83,2044.8 1662.83,2044.8ZM1706.53,2012.24C1707.49,2012.26 1707.08,2008.85 1707.08,2007.62C1707.08,2009.21 1706.89,2010.76 1706.53,2012.24ZM1667.89,2004.02C1668.37,2000.83 1669.44,1997.51 1671.13,1994.17C1667.75,1993.77 1665.3,1993.41 1664.59,1993.36C1663.72,1993.3 1662.68,1993.21 1661.55,1993.09C1661.57,1997.16 1661.6,2001.32 1661.64,2005.37C1663.65,2004.87 1665.75,2004.43 1667.89,2004.02Z" style="fill:#fff;"/>
            <path d="M1746.09,2056.52C1746.27,2037.73 1749.97,2030.29 1754.01,2030.48C1758.66,2022.57 1763.3,2027.19 1764.8,2054.49C1770.49,2055.1 1778.05,2056.18 1786.27,2057.51C1789,2057.02 1791.91,2056.53 1794.94,2056.11C1826.16,2051.83 1866.52,2042.64 1894.93,2042.06C1923.29,2041.48 1942.22,2052.49 1949.23,2065.82C1949.79,2067.01 1952.6,2080.55 1947.26,2097.99C1942.36,2113.95 1934.1,2138.66 1929.74,2149.55C1928.72,2152.11 1927.61,2154.34 1926.52,2156.26C1927.74,2156.24 1928.67,2156.21 1929.22,2156.16C1952.54,2154.03 2009.26,2138.08 2037.23,2147.16C2061.47,2155.04 2076.73,2173.38 2065.91,2215.79C2061.25,2234.38 2032.55,2255.65 1990.36,2261.64C1957.29,2266.33 1915.93,2263.67 1885.76,2256.71C1859.07,2250.55 1840.13,2240.62 1834.03,2232.55C1826.57,2225.32 1822.63,2204.32 1831.12,2179.72C1833.86,2171.8 1837.55,2163.41 1841.64,2155.24C1828.76,2155.33 1815.82,2155.97 1803.73,2154.15C1803.18,2154.07 1802.14,2153.77 1800.74,2153.32C1797.38,2153.48 1794.14,2153.6 1791.07,2153.66C1782.58,2153.85 1775.06,2153.48 1768.94,2152.77C1770.02,2151.01 1771.22,2148.71 1772.47,2146.1C1767.97,2145.84 1764.76,2146.72 1764.54,2149.75C1764.48,2150.65 1764.44,2151.44 1764.43,2152.14C1760.63,2151.51 1757.6,2150.73 1755.5,2149.87C1747.06,2146.42 1742.52,2141.07 1740.2,2136.25C1738.42,2132.56 1737.54,2129.01 1737.44,2125.6C1735.8,2120.72 1734.98,2113.95 1736.1,2109.68C1737.04,2106.14 1738.88,2096.93 1740.7,2087.26C1727.12,2074.94 1734.91,2063.89 1743.8,2057.9C1744.34,2057.54 1745.1,2057.04 1746.09,2056.52ZM1768.94,2152.77C1766.27,2157.11 1764.36,2158.11 1764.43,2152.14C1765.83,2152.37 1767.34,2152.58 1768.94,2152.77ZM1764.82,2128.8C1764.75,2128.87 1764.67,2128.93 1764.61,2128.99C1764.67,2128.94 1764.74,2128.87 1764.82,2128.8ZM1883.72,2198.36C1883.52,2198.78 1883.31,2199.2 1883.1,2199.6C1883.92,2199.64 1884.75,2199.67 1885.59,2199.7C1884.94,2199.29 1884.32,2198.84 1883.72,2198.36Z" style="fill:#fff;"/>
        </g>
    </g>
</svg>
