<?xml version="1.0" encoding="UTF-8" standalone="no"?>
<!DOCTYPE svg PUBLIC "-//W3C//DTD SVG 1.1//EN" "http://www.w3.org/Graphics/SVG/1.1/DTD/svg11.dtd">
<svg width="100%" height="100%" viewBox="0 0 5906 5906" version="1.1" xmlns="http://www.w3.org/2000/svg" xmlns:xlink="http://www.w3.org/1999/xlink" xml:space="preserve" xmlns:serif="http://www.serif.com/" style="fill-rule:evenodd;clip-rule:evenodd;stroke-linejoin:round;stroke-miterlimit:2;">
    <g id="Middle">
        <g id="_1" serif:id="1">
            <path d="M4131.04,3691.06C4132.41,3691.97 4129.1,3697.08 4127.67,3702.54C4119.43,3734.01 4101.44,3808.35 4092.84,3835C4077.17,3883.42 4055.33,3930.58 4029.82,3975.75C4004.62,4020.38 3975.79,4063.02 3946.1,4103.13C3923.68,4133.15 3899.77,4161.65 3874.95,4189.22C3818.15,4252.31 3756.77,4310.73 3700.18,4374.24C3642.9,4438.42 3609.88,4515.84 3590.04,4598.09C3559.25,4725.74 3560.16,4865.17 3559.24,4988.75C3558.71,5004.85 3550.17,5150.54 3563.82,5238.53C3566.8,5257.76 3570.14,5273.97 3575.79,5285.26C3578.61,5290.9 3580.51,5296.07 3584.91,5297.76C3590.91,5300.06 3598.03,5296.98 3606.66,5290.02C3610.1,5287.08 3615.27,5287.48 3618.21,5290.92C3621.15,5294.36 3620.74,5299.53 3617.31,5302.47C3603.22,5315.23 3590.62,5317.67 3579.86,5315.29C3560.39,5310.98 3542.55,5284.95 3531.43,5245.41C3506.56,5157.02 3509.93,5005.36 3509.38,4988.75C3508.44,4861.24 3505.24,4717.28 3535.77,4585.27C3556.95,4493.72 3594.38,4408.01 3657.7,4336.48C3714.23,4272.74 3775.34,4213.89 3832.29,4150.78C3856,4124.5 3879.03,4097.51 3900.54,4068.96C3929.39,4031 3957.38,3990.59 3982.09,3948.32C4006.45,3906.64 4027.7,3863.2 4043.07,3818.4C4051.98,3792.52 4071.06,3720.23 4079.54,3689.58C4081.5,3682.48 4082.97,3677.36 4083.74,3675.09C4099.93,3627.35 4132.72,3661.18 4132.72,3682.07C4132.72,3685.24 4132.12,3688.27 4131.04,3691.06ZM4124.36,3700.66C4119.97,3704.56 4114.19,3706.93 4107.85,3706.93C4106.53,3706.93 4105.23,3706.83 4103.96,3706.63C4109.76,3707.86 4117.39,3707.54 4124.36,3700.66ZM4094.48,3703.03C4087.57,3698.61 4082.99,3690.87 4082.99,3682.07C4082.99,3694.56 4089.68,3700.32 4094.48,3703.03Z" style="fill:#fff;"/>
            <path d="M3842.3,2747.43C3851.23,2752.08 3854.82,2763.06 3850.3,2772.1C3848.1,2790.78 3832.69,2788.91 3824.49,2790.5C3817.51,2791.85 3810.05,2786.45 3800.84,2774.96C3798.13,2771.57 3796.46,2766.13 3794.38,2759.87C3774.97,2701.3 3761.4,2509.13 3760.69,2501.36C3752.82,2413.12 3741.04,2121.88 3800.21,1954.76C3837.24,1850.17 3901.32,1791.98 4002.56,1831.94C4014.65,1836.66 4025.85,1846.64 4035.17,1862.01C4050.44,1887.2 4061.39,1930.59 4068.32,1981.87C4084.7,2103.12 4080.79,2270.82 4081.4,2318.59C4081.62,2344.9 4088.85,2368.93 4098.58,2392.27C4125.14,2455.94 4169.5,2514.93 4183.71,2586.14C4187.41,2605.2 4188.76,2624.19 4188.47,2643.14C4187.47,2709.34 4164.33,2774.87 4173.27,2840.82C4174.61,2850.85 4175.3,2860.97 4175.52,2871.14C4176.3,2906.24 4171.1,2942.08 4175.13,2976.87L4220.17,3265.61C4223.06,3288.22 4218.97,3331.33 4210.82,3380.53C4201.3,3438.1 4188.89,3504.85 4179.22,3554.52C4176.54,3568.25 4174.26,3580.45 4171.49,3590.83C4169.55,3598.08 4165.96,3603.07 4165.36,3608.64C4164.69,3614.82 4165.46,3619.35 4167.32,3621.15C4170.59,3624.27 4170.72,3629.45 4167.6,3632.73C4164.48,3636 4159.3,3636.13 4156.02,3633.01C4151.98,3629.41 4150.87,3620.04 4148.03,3606.55C4146.95,3601.4 4144.23,3596.93 4143.1,3590.45C4141.26,3579.95 4141.75,3567.56 4142.28,3553.76C4143.55,3520.29 4149.07,3479.1 4154.37,3437.86C4163.12,3369.86 4173.99,3302.11 4169.38,3272.87L4118.16,2983.99L4114,2849.29C4103.68,2780.55 4125.51,2711.71 4125.69,2642.58C4125.73,2627.93 4124.63,2613.26 4121.61,2598.56C4108.15,2531.45 4064.42,2476.7 4039.85,2416.5C4027.22,2385.54 4019.06,2353.38 4019.35,2318.59C4019.87,2277.59 4026.24,2146.77 4019.09,2034.67C4015.99,1985.95 4010.61,1940.87 4000.43,1909.24C3995.59,1894.21 3992.12,1882.04 3983.87,1878.66C3913.05,1849.95 3871.83,1897.55 3845.62,1970.91C3788.26,2131.48 3802.72,2411.98 3810.58,2496.82C3811.26,2504.28 3826.91,2687.86 3841.97,2745.15C3842.15,2745.85 3842.25,2746.64 3842.3,2747.43ZM3842.62,2752.1C3842.78,2752.67 3843.06,2752.95 3843.57,2752.77C3844.3,2752.51 3843.57,2752.34 3842.62,2752.1ZM3820.61,2750.85C3819.95,2751.13 3819.25,2751.38 3818.52,2751.57C3817.76,2751.77 3818.2,2753.09 3817.92,2754.32C3818.69,2753.03 3819.6,2751.87 3820.61,2750.85Z" style="fill:#fff;"/>
            <path d="M3701.62,2115.19C3701.1,2116.31 3700.99,2117.6 3701.57,2119.2C3701.98,2120.33 3698.48,2124.4 3700.02,2123.38C3703.46,2121.11 3703.81,2117.92 3702.21,2114.28C3702.39,2114.02 3702.57,2113.77 3702.75,2113.53C3702.55,2113.75 3702.36,2113.99 3702.19,2114.22C3696.38,2101.08 3665.46,2082.05 3663.34,2078.49C3632.41,2024.04 3546.82,1996.06 3464.54,1986.05C3401.34,1978.35 3339.66,1982.45 3300.53,1997.93C3289.97,2002.11 3282.14,2007.82 3274.47,2012.19C3271.03,2014.15 3267.98,2011.78 3265.24,2014.37C3259.35,2019.93 3260.17,2029.42 3262.05,2038.16C3262.95,2042.63 3260.05,2046.99 3255.58,2047.89C3251.11,2048.79 3246.75,2045.89 3245.85,2041.42C3243.45,2028.5 3249.04,2018.25 3251.64,2006.64C3252.75,2001.7 3251.11,1998.99 3252.84,1993.95C3255.46,1986.31 3263.04,1980.88 3270.46,1975.08C3300.3,1951.75 3355.32,1939.05 3416.13,1936.56C3531.27,1931.83 3667.01,1970.82 3715.39,2047.26C3717.62,2050.78 3735.39,2065.39 3745.66,2080.13C3753.47,2091.31 3759.99,2102.53 3759.25,2110.79C3757.98,2125.04 3759.44,2135.67 3748.99,2139.87C3745.99,2141.08 3745.36,2144.75 3741.82,2145.14C3735.53,2145.84 3729.58,2152.19 3719.45,2146.93C3707.93,2146.93 3698.57,2137.57 3698.57,2126.05C3698.57,2122.07 3699.69,2118.36 3701.62,2115.19ZM3701.62,2115.19C3701.78,2114.86 3701.97,2114.53 3702.19,2114.22C3702.2,2114.24 3702.2,2114.26 3702.21,2114.28C3702.01,2114.58 3701.81,2114.88 3701.62,2115.19ZM3708.15,2108.5C3711.35,2106.43 3715.14,2105.22 3719.21,2105.18C3718.89,2104.84 3719.76,2102.54 3719.28,2102.94C3717.97,2104 3716.1,2101.57 3715.35,2102.67C3713.95,2104.74 3710.49,2103.28 3709.9,2105.36C3709.56,2106.57 3708.93,2107.59 3708.15,2108.5Z" style="fill:#fff;"/>
            <path d="M3285.17,2057.17C3281.96,2085.07 3285.23,2114.29 3289.88,2144.47C3301.29,2218.53 3326.19,2297.14 3333.94,2364.66C3341.14,2429.48 3366.84,2646.88 3402.3,2808.65C3419.85,2888.7 3437.66,2954.82 3459.21,2975.93L3511.36,3010.37C3526.89,3019.5 3541.55,3015.43 3555.49,3004.51C3578.19,2986.73 3598.58,2954.29 3618.01,2914.82C3669.44,2810.33 3707.19,2656.9 3728.63,2556.24C3734.03,2530.88 3737.16,2508.66 3742.05,2492C3745.56,2480.06 3750.64,2472.64 3752.62,2466C3752.62,2457.74 3759.33,2451.04 3767.59,2451.04C3775.84,2451.04 3782.55,2457.74 3782.55,2466C3784.81,2473.58 3788.08,2483.23 3788.87,2497.41C3789.87,2515.62 3785.85,2539.05 3781.69,2565.97C3765.36,2671.89 3723.92,2831.68 3670.7,2940.65C3646.75,2989.69 3619.36,3028.62 3590.94,3050.33C3556.49,3076.66 3519.91,3081.82 3482.3,3058.8C3471.84,3052.4 3458.18,3044.33 3445.77,3035.76C3435.97,3028.99 3426.89,3021.9 3420.13,3015.02C3395.35,2989.72 3370.68,2913.48 3352.08,2819.1C3319.7,2654.81 3298.55,2434.47 3292.7,2368.78C3286.96,2301.4 3261.08,2222.83 3255.23,2148.49C3252.48,2113.51 3254.55,2079.7 3262.74,2048.55C3267.59,2038 3271.57,2033.59 3275.55,2032.37C3281.61,2030.52 3291.84,2034.05 3298.62,2047.99C3300.75,2051.98 3299.24,2056.95 3295.25,2059.07C3291.8,2060.92 3287.61,2060.03 3285.17,2057.17Z" style="fill:#fff;"/>
            <path d="M3220.52,2047.34C3223,2051.12 3221.96,2056.2 3218.18,2058.69C3214.41,2061.17 3209.32,2060.13 3206.84,2056.35C3198.41,2048.64 3188.76,2035.15 3178.97,2014.32C3169.81,1994.84 3161.77,1970.08 3154.62,1941.5C3152.09,1931.39 3150.51,1920.7 3148.53,1909.78C3138.49,1854.63 3128.68,1791.9 3121.84,1733.77C3112.74,1656.52 3108.18,1587.78 3105.12,1558.13C3103.83,1545.43 3101,1532.77 3097.55,1520.13C3088.22,1485.99 3074.56,1452.01 3066.83,1418.34L3007.18,1125.83C2993.13,1059 2978.72,887.884 2939.64,752.346C2922.34,692.36 2901.67,639.208 2869.69,608.835C2862.43,601.948 2854.65,596.594 2846.51,591.988C2837.83,587.077 2830.28,581.057 2819.94,578.952C2808.76,578.952 2799.67,569.87 2799.67,558.683C2799.67,547.495 2808.76,538.413 2819.94,538.413C2836.75,534.993 2852.39,535.785 2868,540.147C2916.37,553.669 2954.27,604.76 2982.91,668.896C3045.63,809.368 3060.71,1031.91 3077.95,1110.66L3138.63,1401.77C3146.22,1434.5 3159.79,1467.45 3168.86,1500.66C3173.41,1517.32 3176.91,1534.04 3178.56,1550.79L3220.52,2047.34Z" style="fill:#fff;"/>
            <path d="M2795.82,535.205C2797.24,539.586 2794.84,544.298 2790.46,545.721C2786.08,547.144 2781.37,544.742 2779.94,540.36C2775.47,530.731 2775.28,522.265 2772.2,515.91C2770.67,512.75 2766.9,513.954 2759.76,513.612C2745.43,511.483 2733.35,517.687 2722.01,527.963C2698.9,548.893 2680.27,587.596 2664.88,634.954C2616.82,782.83 2603.01,1010.6 2606.58,1062.65C2610.22,1120.01 2618.41,1176.63 2628.72,1232.88C2644.39,1318.33 2665.36,1402.86 2686.68,1486.99C2712.97,1593.13 2724.74,1702.47 2744.49,1810.05C2752.73,1854.91 2762.3,1899.47 2775.23,1943.32C2786.26,1980.94 2823.26,2113.26 2845.34,2215.78C2853.62,2254.24 2861.4,2288.43 2862.22,2312.19C2862.64,2324.23 2861.28,2333.24 2859.96,2339.65C2859.96,2350.11 2851.47,2358.6 2841,2358.6C2830.54,2358.6 2822.05,2350.11 2822.05,2339.65L2720.26,1959.81C2706.31,1914.12 2695.7,1867.68 2686.76,1820.86C2666.48,1714.6 2654.76,1606.44 2628.3,1501.59C2607.19,1415.97 2585.85,1330.05 2571.15,1243.02C2561.25,1184.38 2554.46,1125.24 2551.96,1065.53C2549.97,1011.18 2571.55,774.287 2626.47,621.799C2646.13,567.201 2669.95,522.713 2698.41,500.137C2719.03,483.789 2741.65,477.317 2765.8,483.418C2780.32,488.667 2787.39,493.885 2790.87,500.622C2795.48,509.55 2792.98,520.351 2795.82,535.205Z" style="fill:#fff;"/>
            <path d="M2838.06,2323.44C2834.45,2322.57 2831.39,2317.03 2829.25,2322.37C2828.49,2324.26 2826.21,2321.27 2825.68,2323.41C2825.09,2325.82 2821.64,2322.52 2821.45,2325.34C2821.24,2328.59 2815.11,2324.8 2815.93,2329.09C2816.14,2330.18 2814.43,2329.11 2814.29,2330.37C2814.07,2332.3 2809.87,2335.76 2809.79,2337.59C2809.61,2334.83 2809.06,2332.5 2808.58,2330.37C2808.17,2328.55 2806.15,2328.48 2804.09,2327.15C2794.08,2320.1 2782.04,2315.38 2769.29,2312.12C2746.62,2306.33 2722.14,2304.39 2701.03,2302.8C2669.91,2300.24 2587.89,2311.34 2523.39,2327.93C2491.24,2336.2 2463.99,2345.14 2449.89,2356.2C2443.81,2360.97 2439.08,2365.01 2443.69,2372.22C2446.88,2375.42 2446.87,2380.61 2443.67,2383.8C2440.47,2386.99 2435.28,2386.98 2432.09,2383.78C2410.88,2370.09 2412.93,2352.04 2426.17,2333.48C2435.41,2320.53 2455.14,2308.68 2479.37,2297.59C2549.21,2265.6 2664.05,2245.12 2703.89,2245.66C2728.24,2246.27 2756.45,2247.39 2782.85,2252.71C2803.43,2256.85 2822.79,2263.89 2839.32,2274.3C2852.86,2283.33 2860.8,2292.35 2865.36,2302.76C2869.56,2312.34 2871.56,2323.27 2870.7,2337.83C2869.59,2343.95 2865.54,2363.45 2858.85,2365.8C2855.45,2366.99 2857.21,2369.95 2854.51,2369.33C2849.06,2368.09 2850.72,2375.68 2847.06,2373.56C2843.3,2371.39 2842.9,2378.09 2840.2,2375.41C2838.44,2373.66 2837.36,2377.6 2835.95,2375.68C2832.08,2370.42 2826.38,2379.64 2824.96,2373.25C2823.89,2368.41 2816.66,2373.68 2817.36,2368.03C2817.55,2366.44 2814.99,2367.55 2815.39,2365.86C2815.8,2364.14 2812.81,2365.03 2813.49,2363.18C2814.59,2360.21 2808.59,2360.78 2810.93,2357.27C2813.11,2353.99 2804.6,2351.42 2812.41,2345.78C2812.41,2333.33 2822.51,2323.23 2834.95,2323.23C2836.01,2323.23 2837.04,2323.3 2838.06,2323.44ZM2838.75,2323.55C2849.25,2325.33 2857.29,2334.38 2857.5,2345.34C2858.1,2345.1 2859.87,2345.16 2859.27,2344.81C2857.25,2343.62 2861.37,2341.99 2859.89,2341.43C2858.3,2340.81 2860.77,2339.09 2859.41,2338.74C2855.99,2337.86 2859.92,2333.85 2857.22,2333.76C2854.55,2333.67 2856.91,2329.94 2854.62,2330.26C2848.09,2331.15 2850.95,2321.27 2846.2,2324.09C2843.74,2325.55 2843.62,2320.62 2841.53,2322.47C2840.57,2323.32 2839.64,2323.6 2838.75,2323.55ZM2809.79,2337.59C2809.8,2337.67 2809.8,2337.75 2809.81,2337.83C2809.79,2337.75 2809.79,2337.67 2809.79,2337.59Z" style="fill:#fff;"/>
            <path d="M2410.15,2847.86C2416.79,2852.01 2421.22,2859.39 2421.22,2867.8C2423.93,2890.48 2406.27,2892.4 2397.56,2893.74C2393.51,2894.37 2388.77,2892.55 2383.16,2889.94C2378.33,2887.69 2370.56,2878.32 2368.91,2876.41C2354.44,2854.2 2341.45,2833.43 2331.57,2811.24C2321.33,2788.22 2314.18,2763.81 2311.43,2735.32C2307.08,2690.04 2313.21,2548.6 2351.32,2459.86C2373.19,2408.93 2405.3,2375.8 2443.82,2380.34C2448.34,2380.52 2451.85,2384.34 2451.67,2388.86C2451.49,2393.37 2447.67,2396.89 2443.16,2396.71C2426,2397.76 2414.29,2409.82 2403.65,2426.49C2390.57,2446.99 2380.58,2475.41 2373.17,2507.28C2353.96,2589.89 2351.75,2693.46 2356.83,2729.98C2359.35,2748.14 2364.18,2764.06 2370.38,2779.05C2380.34,2803.08 2394.24,2824.59 2410.15,2847.86ZM2384.27,2848.54C2382.16,2849.81 2380.17,2851.65 2378.51,2854.3C2380.08,2852.06 2382.03,2850.11 2384.27,2848.54Z" style="fill:#fff;"/>
            <path d="M2875.5,2440.65C2877.19,2439.67 2881.35,2439.67 2879.58,2439.77C2878.99,2439.8 2880.82,2440.41 2880.89,2441.11C2881.3,2445.42 2883.53,2450.31 2884.94,2456.22C2892.3,2487 2905.87,2529.39 2907.1,2542.16C2913.72,2610.66 2905.61,2680.51 2908.05,2749.47C2908.62,2765.63 2909.81,2781.74 2912.01,2797.76C2928.59,2923.08 2958.35,3054.89 2973.41,3185.94C2983.83,3276.5 2986.95,3366.65 2976.86,3453.7C2974.68,3472 2970.51,3489.41 2965.18,3506.41C2954.07,3541.86 2937.79,3575.3 2929.14,3612.6C2924.67,3631.92 2916.27,3664.14 2902.83,3690.8C2891.59,3713.12 2876.62,3731.51 2859.01,3740.02C2837.15,3750.6 2813.31,3748.8 2788.6,3734.62C2760.71,3718.61 2730.5,3685.08 2701.33,3642.03C2619.05,3520.62 2540.56,3322.8 2527.2,3285.4L2482.49,3115.64C2467.37,3076.43 2441.25,3042.08 2423.14,3003.85C2418.35,2993.73 2414.24,2983.35 2410.8,2972.63C2408.21,2964.77 2402.35,2943.61 2402.23,2926.77C2402.16,2916.81 2404.01,2908.19 2408.32,2903.09C2411.19,2899.35 2416.55,2898.64 2420.29,2901.51C2424.02,2904.38 2424.73,2909.74 2421.86,2913.47C2419.22,2917.28 2420.57,2924.04 2421.85,2931.2C2424.21,2944.4 2429.82,2958.62 2432.35,2964.34L2514.36,3102.22C2522.09,3119.12 2528.25,3136.52 2533.33,3154.28C2544.47,3193.24 2550.8,3233.64 2565.04,3271.64C2576.81,3303.45 2638.22,3455.07 2708.46,3570.87C2738.68,3620.69 2770.25,3663.89 2800.22,3686.26C2813.75,3696.36 2825.99,3702.66 2837.39,3696.77C2846.52,3692.05 2852.55,3680.91 2858.15,3669.03C2869.01,3645.97 2875.18,3618.19 2878.55,3601.6C2886.43,3562.79 2902.07,3527.67 2912.56,3490.71C2916.49,3476.84 2919.57,3462.67 2920.93,3447.82C2926.79,3385.42 2924.6,3321.59 2919.06,3257.15C2906.04,3105.71 2871.85,2950.97 2853.3,2805.34C2851.11,2787.3 2850.01,2769.18 2849.69,2751.02C2848.49,2683.07 2858.12,2614.45 2852.9,2546.87C2851.95,2533.09 2830.86,2484.1 2832.27,2453.44C2833.19,2433.6 2838.9,2419.77 2848.05,2414.52C2855.45,2407.12 2867.46,2407.12 2874.85,2414.52C2882.03,2421.69 2882.24,2433.21 2875.5,2440.65Z" style="fill:#fff;"/>
            <path d="M2123.89,3428.6C2124.75,3433.04 2121.84,3437.34 2117.41,3438.2C2112.97,3439.06 2108.67,3436.16 2107.81,3431.72C2106.38,3424.34 2107.48,3418.93 2108,3414.69C2109.28,3404.23 2114.7,3399.97 2125.11,3396.91C2141.52,3392.09 2176.82,3406.15 2202.38,3419.29C2211.92,3424.19 2218.1,3431.37 2222.84,3431.96C2231.75,3431.96 2238.99,3439.2 2238.99,3448.11C2238.99,3457.03 2231.75,3464.27 2222.84,3464.27C2216.07,3465.32 2204.32,3463.87 2190.96,3458.24C2174.99,3451.51 2157.13,3437.91 2141.57,3430.22C2135.82,3427.38 2131.02,3424.91 2126.94,3423.92C2124.55,3423.34 2124.69,3417.64 2123.6,3419.66C2122.53,3421.64 2123.14,3424.73 2123.89,3428.6Z" style="fill:#fff;"/>
            <path d="M2149.62,3327.66C2150.14,3328.31 2150.77,3329.01 2151.51,3329.77C2155.01,3332.62 2155.54,3337.79 2152.68,3341.29C2149.83,3344.79 2144.66,3345.32 2141.16,3342.46C2129.88,3335.3 2127.74,3327.15 2127.87,3321.74C2128.03,3314.38 2135.05,3307.2 2148.94,3303.49C2161.18,3300.21 2180.58,3300.09 2202.06,3303.75C2245.17,3311.1 2294.57,3335.85 2314.6,3373.08C2356.71,3451.72 2336.4,3557.91 2363.45,3640.9C2372.96,3670.08 2389.71,3695.75 2421.26,3714.67C2467.49,3743.16 2504.98,3740.75 2537.86,3722.28C2584.79,3695.9 2622.48,3642.34 2661.51,3598.28C2668.06,3590.88 2673.85,3582.79 2681.44,3577.1C2687.41,3572.62 2693.3,3570.44 2699.76,3567.31C2708.56,3558.51 2722.86,3558.51 2731.66,3567.31C2740.46,3576.11 2740.46,3590.4 2731.66,3599.2C2728.82,3605.04 2727.75,3610.68 2724.17,3616.39C2719.49,3623.84 2712.87,3630.13 2707.03,3637.2C2665.05,3688.1 2620.24,3745.93 2567.51,3775.29C2517.39,3803.19 2459.88,3808.74 2390.1,3764.52C2346.13,3735.9 2322.88,3698.79 2311.26,3656.58C2288.46,3573.78 2316.5,3470.21 2279.47,3390.65C2270.62,3371.64 2250.76,3357.9 2229.65,3347.73C2207.59,3337.1 2184.01,3330.39 2166.26,3328.36C2159.59,3327.6 2153.99,3327 2149.73,3327.64C2149.69,3327.65 2149.65,3327.65 2149.62,3327.66Z" style="fill:#fff;"/>
            <path d="M2305.18,2769.99C2297.54,2773.16 2286.77,2775.15 2286.93,2766.47C2287.3,2746.45 2239.83,2767 2213.34,2772.16C2186.85,2777.32 2160.69,2785.03 2146.9,2800.78C2113.89,2837.97 2073.51,2912.24 2039.05,2988.75C2004.72,3064.98 1975.87,3143.56 1974.86,3193.73C1974.86,3204.58 1966.05,3213.39 1955.2,3213.39C1944.35,3213.39 1935.54,3204.58 1935.54,3193.73C1934.4,3148.64 1950.34,3080.62 1977.04,3011.47C2014.3,2914.95 2071.43,2816.47 2113.28,2770.52C2141.99,2740.06 2203.82,2725.3 2254.19,2728.04C2278.1,2729.34 2299.7,2732.64 2311.7,2740.17C2324.84,2748.42 2328.87,2756.4 2328.2,2763.98C2327.7,2769.73 2325.24,2777.56 2312.79,2784.51C2308.84,2786.7 2303.85,2785.29 2301.65,2781.34C2299.45,2777.39 2300.87,2772.4 2304.82,2770.2C2304.94,2770.13 2305.07,2770.06 2305.18,2769.99Z" style="fill:#fff;"/>
            <path d="M1911.93,3257.83C1908.03,3260.11 1903.01,3258.8 1900.72,3254.9C1898.44,3251 1899.75,3245.98 1903.65,3243.7C1917.55,3235.35 1925.22,3241.18 1929.79,3254.62C1936.61,3274.7 1931.81,3324.71 1931.74,3332.61C1927.61,3398.71 1924.66,3469.37 1929.72,3538.31C1933.06,3583.84 1939.93,3628.59 1952.63,3670.68C1974.83,3744.22 2000.96,3817.17 2030.04,3888.88C2059.14,3960.62 2091.21,4031.09 2126.2,4099.27C2159.83,4165.71 2207.61,4227.86 2243.87,4294.42C2260.47,4324.88 2274.57,4356.29 2284.6,4389.05C2288.78,4402.81 2291.71,4424.8 2293.45,4450.99C2297.16,4506.75 2297.81,4583.2 2302.27,4631.5C2303.14,4640.84 2303.74,4649.01 2304.97,4655.61C2305.63,4659.15 2304.47,4662.19 2305.69,4663.69C2313.39,4671.39 2313.39,4683.89 2305.69,4691.6C2297.99,4699.3 2285.48,4699.3 2277.78,4691.6C2268.66,4683.6 2259.32,4659.32 2254.51,4625.63C2244.7,4556.86 2247.79,4443.1 2235.27,4404.47C2225.9,4375.06 2212.49,4347.12 2197.52,4319.7C2160.93,4252.66 2114.21,4189.14 2080.99,4121.88C2046.81,4051.68 2015.32,3979.32 1987.53,3905.5C1959.8,3831.83 1935.73,3756.76 1915.38,3681.32C1903.23,3636.3 1897.12,3588.66 1895.14,3540.28C1892.26,3469.76 1897.9,3397.74 1904.47,3330.43C1905.25,3324.87 1911.51,3297.23 1913.33,3275.56C1913.86,3269.28 1914.7,3263.62 1913.7,3259.37C1913.44,3258.22 1913.1,3257.16 1911.93,3257.83Z" style="fill:#fff;"/>
            <path d="M2293.18,5345.94C2292.45,5346.14 2291.37,5346.37 2291.21,5346.07C2290.08,5343.82 2288.18,5344.76 2286.52,5345.11C2292.83,5346.39 2297.59,5351.97 2297.59,5358.65C2301.23,5362.82 2297.11,5365.12 2297.9,5367.85C2298.64,5370.42 2295.32,5370.41 2295.27,5372.58C2295.09,5380.69 2286.93,5374.42 2280.22,5379.01C2277.61,5380.78 2276.44,5377.22 2272.01,5377.07C2264.99,5376.84 2248.72,5360.81 2239.71,5344.13C2235.37,5336.1 2235.03,5327.39 2235.07,5321.55C2235.2,5300.98 2235.7,5280.41 2236.85,5259.86C2238.55,5229.15 2241.5,5198.52 2245.07,5167.97C2252.43,5109.67 2282.66,4985.87 2294.1,4885.36C2298.19,4849.4 2298.14,4816.86 2296.94,4791.15C2296.53,4782.52 2297.47,4775.18 2296.3,4768.13C2294.59,4763.94 2296.6,4759.16 2300.78,4757.45C2304.97,4755.74 2309.75,4757.76 2311.46,4761.94C2316.32,4768.89 2320.83,4776.47 2323.99,4786.22C2332.6,4812.75 2331.94,4848.99 2330.27,4888.19C2325.95,4989.29 2300.33,5114.44 2296,5173.06L2290.11,5321.55C2290.09,5322.93 2291.37,5324.69 2291.86,5326.84C2293.38,5333.57 2289.29,5346.5 2293.18,5345.94ZM2284.46,5344.86C2284.39,5344.81 2284.33,5344.75 2284.27,5344.68C2281.77,5341.93 2280.12,5344.04 2277.95,5346.14C2279.72,5345.31 2281.7,5344.84 2283.78,5344.84C2284.01,5344.84 2284.24,5344.85 2284.46,5344.86ZM2274.31,5348.61C2273.74,5348.79 2273.13,5348.89 2272.47,5348.88C2270.69,5348.83 2271.8,5351.72 2269.82,5352.25C2268.16,5352.69 2270.57,5355.31 2268.58,5356.67C2268.08,5357.01 2269.52,5357.38 2269.99,5357.94C2270.18,5354.27 2271.8,5350.97 2274.31,5348.61ZM2293.18,5345.94C2293.75,5345.79 2294.12,5345.65 2293.66,5345.82C2293.49,5345.88 2293.33,5345.92 2293.18,5345.94Z" style="fill:#fff;"/>
            <path d="M2931.06,4545.16C2931.65,4545.16 2932.27,4545.19 2932.93,4545.27C2933.49,4545.34 2934.8,4546.04 2937.02,4546.45C2941.76,4547.33 2950.7,4546.48 2964.03,4548.92C2973.38,4550.62 2983.95,4553.54 2995.42,4557.53C3040.56,4573.25 3096.55,4601.17 3107.69,4602.19C3121.58,4603.73 3131.6,4616.26 3130.05,4630.15C3128.51,4644.03 3115.99,4654.05 3102.1,4652.51C3088.66,4650.63 3013.58,4620.25 2966.31,4592.93C2955.93,4586.93 2947.13,4581.46 2941.04,4575.74C2936.45,4571.42 2935.76,4567.45 2932.78,4565C2927.8,4562.69 2925.38,4561.24 2924.91,4560.86C2921.87,4558.41 2921.65,4555.62 2921.92,4553.6C2916.19,4545.29 2917.67,4539.65 2931.06,4545.16Z" style="fill:#fff;"/>
            <path d="M2794.85,3496.08C2794.47,3497.47 2794.03,3498.78 2793.53,3499.93C2790.3,3507.34 2783.54,3509.44 2780.74,3510.38C2774.46,3512.49 2757.87,3513.63 2756.25,3490.38C2754.2,3458.28 2792.37,3445.84 2801,3446.61C2811.16,3447.52 2815.7,3454.36 2818.31,3459.46C2820.92,3464.56 2821.45,3471.22 2817.43,3479.27C2816.19,3481.76 2812.41,3486.91 2802.66,3492.21C2800.19,3493.52 2797.95,3495.14 2795.41,3495.94C2795.22,3496 2795.04,3496.05 2794.85,3496.08ZM2790.99,3495.53C2789.9,3495.29 2788.82,3495.17 2787.72,3495.69C2786.39,3497.02 2784.89,3498.09 2783.3,3498.91L2782.28,3499.98C2782.26,3500 2782.25,3500.02 2782.24,3500.04C2782.42,3500.1 2782.61,3500.16 2782.79,3500.22C2784.89,3500.95 2785.78,3496.96 2790.99,3495.53ZM2782.67,3453.71C2782.87,3453.61 2783.06,3453.51 2783.26,3453.41C2783.05,3453.5 2782.85,3453.6 2782.67,3453.71ZM2796.27,3488.32C2796.16,3489.31 2796.03,3490.31 2795.86,3491.3C2798.61,3492.33 2800.47,3491.99 2799.66,3488.59C2799.47,3487.78 2797.68,3487.71 2796.27,3488.32ZM2792.21,3486.15C2791.74,3486.22 2791.46,3486.42 2791.78,3486.8C2792.05,3487.12 2792.28,3487.44 2792.48,3487.75C2792.38,3487.2 2792.29,3486.66 2792.21,3486.15ZM2794.24,3486.71C2794.23,3486.67 2794.22,3486.62 2794.21,3486.58C2794.16,3486.68 2794.11,3486.78 2794.06,3486.87C2794.15,3486.81 2794.21,3486.76 2794.24,3486.71ZM2794.51,3490.37C2794.51,3490.37 2794.51,3490.38 2794.51,3490.38C2794.51,3490.38 2794.51,3490.37 2794.51,3490.37Z" style="fill:#fff;"/>
            <path d="M2470.78,3567.87C2470.62,3556.09 2479.23,3550.24 2489.26,3546C2499.54,3541.66 2511.14,3547.11 2514.84,3549.65C2523.74,3555.76 2523.33,3564.3 2520.01,3571.87C2517.58,3577.04 2514.29,3581.81 2510.46,3586.33C2506.11,3591.46 2500.93,3596.19 2495.97,3601.18C2485.36,3611.67 2476.17,3607.16 2472.38,3604.81C2468.81,3602.59 2461.67,3594.56 2464.41,3582.54C2465.41,3578.15 2466.8,3571.62 2469.68,3568.91C2470.06,3568.55 2470.43,3568.21 2470.78,3567.87ZM2499.36,3586.67C2499.9,3586.55 2500.26,3586.47 2499.78,3586.35C2499.57,3586.3 2499.44,3586.43 2499.36,3586.67ZM2496.31,3589.31C2496.18,3589.24 2496.05,3589.16 2495.93,3589.08C2495.72,3589.26 2495.5,3589.42 2495.28,3589.59C2495.64,3589.53 2495.99,3589.44 2496.31,3589.31ZM2474.85,3585.77C2474.01,3583.62 2473.44,3581.61 2472.98,3579.76C2472.6,3580.25 2472.13,3580.62 2472.43,3580.87C2474.46,3582.56 2473.05,3585.22 2474.69,3585.72C2474.74,3585.74 2474.79,3585.76 2474.85,3585.77ZM2491.18,3575.61C2491.3,3576 2491.44,3576.39 2491.57,3576.75C2491.47,3576.3 2491.35,3575.91 2491.18,3575.61Z" style="fill:#fff;"/>
            <path d="M3529.42,2853.95C3531.17,2852.03 3532.52,2849.99 3530.93,2846.96C3530.58,2846.29 3531.06,2843.13 3531,2841.51C3531.4,2841.58 3531.84,2841.69 3532.12,2841.95C3538.27,2847.4 3546.73,2859.9 3549.81,2869.49C3555.1,2885.99 3550.02,2899.51 3527.99,2904.92C3521.84,2906.43 3519.35,2902.85 3516.89,2898.18C3514.99,2897.74 3513.16,2896.95 3511.48,2895.82C3512.9,2896.11 3514.54,2896.28 3516.14,2896.71C3513.69,2891.92 3510.92,2886.47 3504.37,2884.21C3503.79,2879.38 3505.35,2874.34 3509.05,2870.64C3509.26,2869.45 3509.61,2868.55 3510.07,2867.85C3507.84,2864.88 3505.54,2862 3504.9,2860.26C3502.95,2855 3501.6,2852.05 3501.97,2850.45C3504.7,2838.81 3504.83,2831.75 3512.95,2833.3C3515.02,2833.7 3519.49,2829.93 3521.06,2833.71C3523.51,2839.61 3517.31,2827.82 3522.45,2841.02C3522.88,2842.13 3524.88,2842.57 3526.75,2843.91C3529.97,2846.23 3531.01,2850.47 3529.42,2853.95ZM3504.66,2885.87C3503.64,2884.71 3502.01,2883.52 3503.27,2883.87C3503.65,2883.97 3504.01,2884.08 3504.37,2884.21C3504.44,2884.76 3504.53,2885.32 3504.66,2885.87ZM3504.66,2885.87C3505.13,2886.4 3505.47,2886.93 3505.36,2887.3C3505.28,2887.54 3505.26,2887.75 3505.28,2887.95C3505.03,2887.27 3504.82,2886.57 3504.66,2885.87ZM3505.56,2888.65C3505.41,2888.44 3505.3,2888.21 3505.28,2887.95C3505.37,2888.18 3505.46,2888.42 3505.56,2888.65ZM3505.56,2888.65C3506.14,2889.47 3507.44,2889.98 3507.37,2891.11C3507.35,2891.36 3507.35,2891.6 3507.35,2891.83C3506.63,2890.83 3506.03,2889.76 3505.56,2888.65ZM3511.48,2895.82C3509.18,2895.36 3507.44,2894.59 3507.35,2891.83C3507.86,2892.53 3508.42,2893.19 3509.05,2893.82C3509.81,2894.58 3510.62,2895.24 3511.48,2895.82ZM3534.3,2869.21C3535.54,2870.82 3537.08,2872.41 3539.22,2873.57C3541.72,2874.93 3538.04,2884.39 3542.64,2882.89C3551.02,2880.15 3543.6,2873.15 3534.3,2869.21ZM3512.82,2871.72C3510.24,2875.29 3509.72,2879.22 3513.2,2878.44C3515.98,2877.81 3514.95,2875.02 3512.82,2871.72ZM3519.91,2898.6C3520,2898.68 3520.1,2898.76 3520.19,2898.85C3521.64,2900.2 3523.25,2897.53 3525.4,2898.57C3527,2899.34 3527.63,2896.27 3530.2,2896.59C3530.76,2896.65 3530.7,2895.75 3530.97,2894.95C3527.77,2897.55 3523.81,2898.77 3519.91,2898.6ZM3526.37,2857.47C3523.63,2859.21 3519.99,2859.22 3517.19,2857.21C3515.82,2856.22 3514.15,2855.93 3514.05,2855.06C3513.31,2848.58 3509.58,2862.01 3512.13,2858.74C3514.79,2855.3 3509.89,2862.72 3512.53,2860.94C3513.51,2860.28 3514.38,2861.88 3515.16,2861.61C3517.33,2860.86 3519.14,2862.3 3520.37,2861.24C3522.3,2859.59 3525.02,2860.31 3525.91,2858.31C3526.04,2858.02 3526.19,2857.74 3526.37,2857.47ZM3531,2841.51C3530.36,2841.4 3529.81,2841.39 3530.03,2841.09C3530.73,2840.13 3530.96,2840.55 3531,2841.51Z" style="fill:#fff;"/>
        </g>
    </g>
</svg>
