<?xml version="1.0" encoding="UTF-8" standalone="no"?>
<!DOCTYPE svg PUBLIC "-//W3C//DTD SVG 1.1//EN" "http://www.w3.org/Graphics/SVG/1.1/DTD/svg11.dtd">
<svg width="100%" height="100%" viewBox="0 0 5906 5906" version="1.1" xmlns="http://www.w3.org/2000/svg" xmlns:xlink="http://www.w3.org/1999/xlink" xml:space="preserve" xmlns:serif="http://www.serif.com/" style="fill-rule:evenodd;clip-rule:evenodd;stroke-linejoin:round;stroke-miterlimit:2;">
    <g id="Middle">
        <g id="_2" serif:id="2">
            <path d="M3576.95,5338.97C3578.01,5343.36 3575.3,5347.79 3570.91,5348.85C3566.51,5349.9 3562.09,5347.19 3561.03,5342.8C3557.15,5335.87 3553.22,5330 3550.03,5322.83C3542.91,5306.76 3538.17,5290.28 3533.69,5273.75C3502.27,5157.84 3494.46,5047.61 3495.21,4943.81C3496.05,4828.32 3513.3,4719.4 3543.38,4613.31C3605.18,4395.37 3723.3,4189.42 3876.73,3959.29C3896.83,3929.91 3918.59,3901.7 3941.27,3874.19C3977.28,3830.51 4014.56,3787.85 4049.86,3744C4060.33,3731 4069.99,3717.48 4080.94,3704.94C4085.83,3699.35 4091.22,3694.87 4096.37,3689.51C4101.64,3681.07 4112.78,3678.5 4121.23,3683.78C4129.68,3689.06 4132.25,3700.2 4126.97,3708.64C4124.4,3715.63 4122.3,3722.32 4119.04,3729.01C4111.75,3744 4102.11,3757.66 4092.7,3771.46C4040.99,3847.3 3976.83,3915.2 3927.04,3992.83C3777.5,4217.17 3663.5,4418.11 3601.52,4630.06C3571.95,4731.19 3554.59,4834.8 3550.34,4945.08C3546.47,5045.51 3557.76,5150.61 3572.91,5265.9C3575.1,5282.56 3577.4,5299.18 3577.96,5316.43C3578.22,5324.19 3577.25,5331.12 3576.95,5338.97Z" style="fill:#fff;"/>
            <path d="M4157.21,3671.72C4158.13,3671.85 4158.6,3671.91 4157.74,3671.92C4157.47,3671.92 4157.3,3671.85 4157.21,3671.72ZM4157.21,3671.72C4156.58,3671.64 4155.75,3671.51 4154.98,3671.34C4158.33,3672.93 4160.28,3676.66 4159.49,3680.44C4158.55,3684.86 4154.21,3687.69 4149.78,3686.76C4145.66,3687.35 4143.53,3683.87 4140.27,3680.68C4137.11,3677.59 4136.12,3672.03 4134.86,3669.06C4130.03,3647.56 4128.25,3624.98 4130.12,3601.39C4134.05,3551.57 4152.36,3500.32 4160.32,3455.44C4171.84,3399.21 4169.69,3352.39 4161.03,3309.57C4137.36,3192.61 4067.85,3102.87 4063.03,2951.12C4061.12,2871.64 4092.64,2791.05 4106.54,2711.34C4111.96,2680.3 4114.59,2649.41 4109.81,2618.72C4106.78,2599.2 4101.02,2580.56 4093.59,2562.44C4060.62,2482.16 3998.88,2410.79 3979.45,2324.72C3966.99,2270.14 3982.94,2128.13 3975.28,2021.21C3971.91,1974.15 3966.08,1934.21 3945.5,1917.89C3935.91,1910.37 3923.88,1909.58 3912.13,1911.3C3897.3,1913.47 3882.68,1919.93 3871.16,1927.01C3802.72,1969.27 3769.16,2033.35 3753.21,2105.62C3728.4,2218 3745.06,2349.57 3747.43,2457.41L3747.82,2474.89L3750.3,2523.61L3757.34,2613.72L3763.53,2693.86L3760.53,2780.95C3760.73,2790.78 3752.92,2798.93 3743.1,2799.14C3733.27,2799.35 3725.12,2791.54 3724.91,2781.71L3714.29,2699.01L3704.15,2618.08L3696.49,2526.98L3694.62,2476.12L3694.47,2458.22C3693.49,2346.8 3679.26,2210.76 3706.19,2094.96C3725.82,2010.56 3766.59,1936.5 3847.18,1887.76C3867.06,1875.68 3893.54,1865.49 3918.96,1864.92C3938.58,1864.49 3957.61,1869.49 3973.64,1882.18C3994.59,1898.6 4008.73,1931 4016,1973.09C4034.28,2078.88 4013.19,2252.32 4027.85,2313.38C4048.04,2396.53 4110.03,2464.24 4143.3,2541.54C4152.73,2563.47 4160.04,2586.09 4164.14,2609.81C4170.44,2646.46 4168.44,2683.51 4162.41,2720.74C4150.06,2796.89 4119.2,2873.71 4121.67,2949.47C4125.34,3097.29 4194.77,3184.6 4216.1,3298.86C4225.32,3348.24 4226.32,3402.21 4211.58,3466.56C4206.63,3487.65 4200.52,3510.34 4193.03,3533.19C4182.76,3564.53 4171.02,3596.13 4164.8,3627.4C4162.12,3640.85 4159.68,3653.76 4159.35,3666.8C4159.11,3667.93 4156.63,3670.93 4157.21,3671.72Z" style="fill:#fff;"/>
            <path d="M3264.19,1925.63C3264.72,1926.72 3265.01,1927.94 3265,1929.24C3264.96,1933.76 3261.26,1937.4 3256.74,1937.36C3250.1,1938.45 3246.13,1936.1 3243.19,1935.01C3234.16,1931.65 3232.45,1922.87 3239.57,1907.33C3249.2,1886.31 3299.2,1855.4 3304.86,1851.4C3344,1825.22 3394.75,1793.89 3446.48,1781.7C3485.55,1772.49 3525.04,1774.45 3561.18,1793.39C3616.78,1823.51 3656.11,1897.36 3678.14,1984.8C3696.56,2057.9 3704.85,2140.14 3702.75,2209.4C3702,2234.08 3700.5,2257.17 3696.57,2277.37C3694.52,2287.91 3691.55,2297.29 3688.74,2306.16C3687.14,2315.41 3678.34,2321.63 3669.08,2320.04C3659.83,2318.44 3653.61,2309.63 3655.21,2300.38C3655.5,2291.86 3654.84,2282.88 3654.99,2273.05C3655.28,2253.76 3655.98,2232.21 3655.6,2209.08C3654.52,2143.61 3647.64,2066.11 3629.78,1997.16C3611.17,1925.35 3583.1,1862.19 3537.34,1837.45C3512.16,1823.39 3484.26,1822.69 3456.4,1828.06C3409.34,1837.13 3362.23,1862.84 3325.68,1884.47C3320.49,1887.36 3280.51,1912.72 3264.19,1925.63Z" style="fill:#fff;"/>
            <path d="M3717.02,2747.7C3717.81,2748.33 3718.62,2749.08 3718.54,2749.5C3717.78,2753.55 3723.18,2751.13 3725.09,2754.3C3725.87,2755.59 3727.28,2752.92 3728.96,2754C3729.38,2754.27 3729.01,2752.99 3729.23,2752.42C3725.31,2754.19 3720.64,2752.63 3718.58,2748.78C3716.44,2744.76 3717.96,2739.76 3721.98,2737.62C3723.25,2734.37 3725.63,2735.67 3727.04,2734.28C3728.59,2732.74 3729.84,2734.96 3731.45,2734.25C3737.39,2731.68 3737.6,2736.95 3741.98,2745.81C3744.04,2749.98 3740.24,2761.15 3740.03,2768.45L3729.82,2868.42C3724.49,2917.55 3694.15,3031.27 3640.84,3091.59C3596.75,3141.5 3539.15,3159.56 3469.94,3101.81C3419.23,3058.28 3377.56,2935.21 3347.91,2782.44C3315.49,2615.35 3292.61,2412.53 3277.91,2249.1C3271.6,2178.87 3265.87,2116.1 3262.96,2066.49C3261.97,2049.61 3262.19,2034.46 3261.56,2020.89C3260.03,2010.62 3267.13,2001.04 3277.4,1999.52C3287.67,1997.99 3297.25,2005.08 3298.78,2015.35C3302.2,2028.82 3306.37,2043.75 3309.58,2060.75C3318.83,2109.83 3325.98,2172.86 3334.28,2243.24C3353.33,2404.69 3373.36,2605.81 3405,2771.45C3431.11,2908.16 3461.13,3020.67 3506.15,3059.99C3544.63,3094.56 3577.72,3085.16 3604.37,3057.77C3654.38,3006.38 3686.78,2906.88 3694.13,2863.47L3710.03,2763.74C3711.26,2759.06 3718.45,2750.92 3717.02,2747.7ZM3717.02,2747.7C3716.03,2746.89 3715.07,2746.27 3716.01,2746.71C3716.51,2746.94 3716.84,2747.28 3717.02,2747.7Z" style="fill:#fff;"/>
            <path d="M3232.44,2119.51C3235.86,2120.97 3238.06,2124.57 3237.57,2128.45C3236.97,2133.13 3232.69,2136.45 3228.01,2135.86C3227.13,2135.87 3226.3,2135.14 3225.42,2135.37C3219.36,2136.93 3222.96,2135.54 3214.73,2134.67C3211.26,2134.3 3209.77,2130.58 3206.35,2126.78C3201.43,2121.3 3198.05,2111.68 3194.39,2099.99C3187.04,2076.52 3182.88,2042.91 3179.99,2014.06C3177.31,1987.38 3177.08,1965 3176.36,1960.34C3148.25,1775.91 3100.42,1476.04 3034.31,1206.82C3013.2,1120.83 2989.96,1038.12 2965.67,962.985C2936.37,872.356 2906,792.772 2869.18,734.458C2860.6,721.77 2863.93,704.501 2876.62,695.918C2889.31,687.335 2906.58,690.668 2915.16,703.356C2965.32,773.021 3012.13,872.67 3050.7,989.084C3071.52,1051.89 3089.27,1119.75 3105.74,1189.56C3169.92,1461.67 3208.36,1765.81 3232.69,1952.38C3233.63,1961.27 3235.83,2030.72 3237.67,2078.98C3238.11,2090.37 3237.45,2100.11 3238.05,2107.78C3238.28,2110.7 3235.74,2114.82 3237.69,2114.84C3242.13,2114.87 3236.16,2119.06 3232.44,2119.51Z" style="fill:#fff;"/>
            <path d="M2841.94,602.484C2839.97,606.758 2834.89,608.625 2830.62,606.65C2826.35,604.675 2824.48,599.602 2826.45,595.328L2815.93,585.461C2812.93,574.384 2806.5,565.299 2799.1,557.19C2792.42,549.872 2783.63,544.926 2773.66,541.587C2762.63,537.851 2752.25,536.861 2742.58,536.084C2699.66,532.636 2669.5,561.186 2645.71,601.672C2596.67,685.119 2577.34,814.443 2578.53,874.277C2579.62,929.469 2587.4,984.599 2598.17,1039.49C2614.69,1123.64 2637.93,1207.22 2654.01,1289.87C2691.3,1475.37 2729.71,1661.21 2762.96,1847.73C2770.1,1887.76 2777.61,1927.73 2783.43,1967.94C2789.27,2008.27 2793.3,2048.7 2797.83,2089.16C2799.16,2097.61 2793.39,2105.55 2784.95,2106.89C2776.5,2108.23 2768.55,2102.46 2767.22,2094.01L2609.56,1298.87C2589.25,1202.55 2559.5,1105.04 2541.31,1006.8C2533.25,963.301 2527.41,919.667 2525.6,875.893C2522.86,809.538 2541.33,665.435 2594.3,571.997C2630.49,508.141 2683.18,465.286 2749.69,475.59C2764.32,477.857 2779.45,483.102 2795.19,491.36C2812.69,500.617 2827.55,512.749 2837.2,528.736C2846.43,544.041 2852.38,561.243 2853,579.911C2852.17,582.98 2852.54,586.633 2850.46,590.34C2847.06,596.373 2846.92,600.018 2841.94,602.484Z" style="fill:#fff;"/>
            <path d="M2401.3,2406.01C2403.18,2410.12 2401.36,2414.99 2397.25,2416.87C2393.14,2418.75 2388.28,2416.93 2386.4,2412.82C2379.48,2413.09 2384.27,2415.31 2378.7,2411.29C2377.45,2410.39 2377.75,2408.39 2377.32,2406.91C2372.75,2390.99 2379.63,2369.34 2398.47,2347.45C2433.96,2306.2 2515.96,2263.38 2607.48,2251.26C2673.22,2242.55 2745.8,2248.19 2808.69,2286.35C2832.91,2301.05 2854.74,2321.21 2874.94,2345.64C2882.79,2353.85 2882.5,2366.89 2874.29,2374.74C2866.08,2382.59 2853.04,2382.3 2845.19,2374.09C2825.32,2356.11 2803.77,2343.67 2782.57,2332.53C2727.55,2303.6 2668.88,2294.24 2613.12,2299.82C2532.97,2307.84 2461.92,2342.87 2426.99,2375.03C2415.84,2385.3 2409.85,2393.26 2407.11,2401.51C2405.86,2405.3 2403.12,2402.46 2401.3,2406.01Z" style="fill:#fff;"/>
            <path d="M2801.04,2089.59C2800.84,2089.54 2800.58,2089.49 2800.24,2089.44C2799.91,2089.4 2800.32,2089.49 2800.86,2089.72C2800.66,2089.89 2800.44,2090.03 2800.22,2090.17C2800.75,2090.11 2801.14,2090.03 2801.34,2089.95C2801.87,2090.23 2802.38,2090.63 2802.43,2091.14C2803.85,2105.37 2810.42,2135.16 2810.98,2137.41L2848.43,2320.96C2850.68,2329.55 2845.53,2338.36 2836.93,2340.61C2828.34,2342.86 2819.53,2337.71 2817.28,2329.12C2806.44,2292.66 2795.42,2256.01 2787.66,2218.6C2782.47,2193.62 2779.25,2168.33 2775.83,2143.17C2775.6,2140.45 2769.54,2103.91 2775.08,2088.13C2779.08,2076.71 2784.39,2070.91 2789.95,2071.97C2793.34,2072.61 2797.97,2070.92 2800.77,2076.4C2804.47,2079.14 2805.24,2084.37 2802.5,2088.06C2802.07,2088.64 2801.58,2089.15 2801.04,2089.59ZM2801.04,2089.59C2801.53,2089.71 2801.6,2089.84 2801.34,2089.95C2801.18,2089.86 2801.01,2089.79 2800.86,2089.72C2800.92,2089.68 2800.98,2089.64 2801.04,2089.59Z" style="fill:#fff;"/>
            <path d="M2354.51,2415.72C2358.84,2414.03 2363.74,2416.16 2365.44,2420.5C2367.14,2424.83 2365,2429.73 2360.67,2431.43C2355,2435.85 2355.83,2441.66 2354.5,2447.57C2352.23,2457.61 2351.87,2469.43 2350.91,2482.14C2345.36,2531.55 2347.73,2581.1 2355.4,2629.95C2363.12,2679.14 2376.46,2727.5 2392.99,2774.23C2401.93,2800.12 2414.25,2823.84 2427.52,2846.93C2461.2,2905.52 2502.5,2959.4 2530.23,3022.21C2552.11,3072.26 2576.97,3122.03 2599.1,3172.51C2608.86,3194.77 2618.09,3217.18 2626.34,3239.8C2646.41,3294.39 2674.55,3429.1 2724.4,3530.63C2755.22,3593.41 2791.9,3645.51 2845.43,3641.76C2863.79,3640.46 2887.64,3635.18 2908.95,3625.53C2926.63,3617.52 2943.08,3606.86 2949.83,3591.12C2967.99,3548.79 2968.47,3481.51 2960.78,3401.17C2944.92,3235.42 2888.3,3018 2850.68,2837.41C2839.62,2784.33 2829.2,2734.5 2824.2,2689.8C2819.88,2651.17 2820.03,2617.01 2820.62,2587.99C2819.66,2577.18 2827.65,2567.63 2838.45,2566.66C2849.26,2565.7 2858.82,2573.69 2859.78,2584.49C2865.61,2614.02 2876.66,2648.13 2886.61,2687.92C2894.66,2720.1 2901.75,2755.58 2910.03,2792.95C2943.87,2945.76 2985.96,3131.89 3009.1,3291.3C3029.16,3429.5 3032.31,3548.81 3003.2,3614.41C2992.95,3637.53 2972.96,3656.4 2948.23,3670.01C2916.73,3687.36 2877.82,3696.44 2849.13,3698.17C2789.69,3701.8 2740.28,3663.5 2701.65,3602.61C2634.93,3497.4 2598.49,3323.55 2574.65,3258.84C2566.66,3237.35 2557.72,3216.08 2548.31,3194.93C2525.9,3144.55 2500.8,3094.87 2478.66,3044.9C2451.84,2983.73 2410.56,2931.91 2378.85,2874.31C2364.31,2847.89 2351.83,2820.27 2342.73,2790.61C2327.7,2740.25 2316.13,2688.32 2310.61,2635.82C2305.05,2583 2305.37,2529.72 2314.07,2477.03C2318.13,2457.8 2318.82,2438.2 2329.68,2427.21C2336.19,2420.64 2343.22,2416.09 2354.51,2415.72Z" style="fill:#fff;"/>
            <path d="M2074.35,2779.42C2075.26,2781.94 2074.93,2784.86 2073.22,2787.18C2070.49,2790.86 2065.29,2791.64 2061.6,2788.91C2058.84,2787.6 2057.64,2785.33 2055.97,2783.99C2050.03,2779.28 2051.49,2774.72 2052.6,2767.7C2054.15,2757.97 2071.99,2749.14 2077.78,2746.24C2119.43,2730.06 2169.46,2719.99 2220.03,2718.14C2259.73,2716.68 2300.29,2717.8 2335.64,2727.93C2345.48,2730.74 2354.18,2735.03 2363.03,2739.1C2370.87,2741.24 2375.49,2749.34 2373.36,2757.18C2371.22,2765.02 2363.12,2769.64 2355.28,2767.51C2346.38,2766.6 2337.49,2766.99 2328.15,2765.96C2294.28,2762.2 2257.76,2757.31 2220.95,2757.68C2174.2,2758.15 2127.5,2762.99 2088.18,2775.6C2085.67,2776.2 2073.04,2776.4 2075.51,2780.22C2076.4,2781.6 2075.58,2780.88 2074.35,2779.42Z" style="fill:#fff;"/>
            <path d="M2118.31,3413.68C2119.93,3413.02 2122.47,3411.8 2125.01,3412.27C2132.02,3413.56 2141.13,3417.82 2149.58,3422.28C2160.15,3427.87 2168.77,3435.07 2173.25,3438.8C2179.2,3442.37 2181.13,3450.09 2177.56,3456.04C2173.99,3461.98 2166.27,3463.91 2160.32,3460.35C2155.41,3458.35 2145.27,3456.85 2135.24,3452.66C2125.93,3448.76 2116.14,3444.19 2110.88,3438.81C2098.25,3425.89 2100.02,3416.66 2102.44,3414.7C2103.78,3413.62 2106.2,3409.99 2112.51,3410.74C2114.86,3410.88 2116.92,3412 2118.31,3413.68ZM2116.66,3413.93C2116.65,3413.35 2116.67,3412.95 2116.61,3413.49C2116.58,3413.69 2116.6,3413.83 2116.66,3413.93Z" style="fill:#fff;"/>
            <path d="M2168.44,3309.45L2168.93,3316.14C2172.49,3318.93 2173.11,3324.08 2170.32,3327.64C2167.53,3331.2 2162.38,3331.82 2158.83,3329.03L2141.93,3308.22C2132.26,3293.68 2138.68,3283.8 2141.28,3279.16C2145.03,3272.47 2155.47,3269.22 2171.14,3275.06C2206,3288.06 2310.36,3406.68 2320.88,3430.17C2350.65,3501.62 2375.8,3579.54 2405.86,3640.42C2428.7,3686.68 2452.5,3723.26 2488.49,3731.68C2522.68,3739.69 2562.41,3719.4 2621.63,3671.4C2638.89,3657.41 2658.29,3642.47 2678.65,3623.84C2686.09,3615.77 2698.68,3615.26 2706.75,3622.69C2714.82,3630.12 2715.34,3642.71 2707.9,3650.78C2689.99,3673.92 2673.65,3694.19 2656.9,3710.76C2583.87,3783.05 2521.8,3798.23 2475.61,3787.89C2434.8,3778.74 2401.47,3747.15 2374.15,3700.92C2335.31,3635.19 2307.21,3537.88 2272.27,3449.93C2265.99,3432.82 2201.07,3329.78 2168.44,3309.45ZM2161.36,3306.27C2157.86,3305.46 2155.03,3306.27 2153.05,3309.06C2152.19,3310.29 2155.38,3307.71 2156.18,3307.89C2158.22,3308.37 2159.74,3306.99 2161.36,3306.27ZM2167.86,3297.25C2168.43,3295.51 2168.74,3294.2 2168.74,3294.2C2168.74,3294.2 2168.16,3295.59 2167.86,3297.25Z" style="fill:#fff;"/>
            <path d="M2026.96,2812.72C2027.09,2814.03 2026.93,2815.05 2028.17,2814.42C2031.07,2812.95 2033.81,2819.58 2035.09,2815.32C2035.35,2814.42 2038.48,2815.47 2037.23,2815.22C2035.94,2814.96 2039.61,2817.64 2038.82,2820.38C2032.89,2841.02 2007.88,2893.87 2006.77,2898.04C1991.47,2947.76 1980.17,2998.03 1972.45,3048.82C1964.75,3099.46 1960.68,3150.64 1961.03,3202.52C1961.91,3346.13 1983.86,3483.44 2023.89,3615.45C2052.09,3708.44 2090.36,3798.26 2134.68,3886.83C2147.78,3913.01 2162.3,3938.6 2175.11,3965.28C2180.65,3976.83 2184.93,3988.65 2190.12,4000.43C2196.04,4010.3 2192.83,4023.13 2182.96,4029.05C2173.09,4034.97 2160.26,4031.77 2154.34,4021.9C2146.2,4011.53 2137.85,4001.72 2130.51,3990.85C2113.47,3965.61 2099.54,3938.6 2085.62,3911.88C2038.33,3821.1 2001.72,3726.82 1973.59,3630.41C1933.62,3493.43 1912.89,3351.07 1913.81,3202.52C1914.17,3148.13 1918.74,3094.47 1927.93,3041.57C1937.09,2988.83 1950.77,2936.89 1968.19,2885.56C1969.91,2881.08 1995.99,2820.54 2012.61,2803.39C2014.62,2801.31 2016.04,2799.5 2017.94,2798.96C2026.59,2796.52 2026.7,2793.65 2029.55,2795.99C2034.04,2799.68 2039.39,2794.33 2038.64,2800.11C2038.43,2801.73 2040.99,2801.62 2039.96,2803.57C2041.59,2807.79 2039.49,2812.53 2035.27,2814.16C2032.35,2815.29 2029.18,2814.64 2026.96,2812.72Z" style="fill:#fff;"/>
            <path d="M2164.53,4121.87C2164.36,4121.92 2164.21,4121.99 2164.07,4122.07C2164.16,4122.05 2164.26,4122.03 2164.35,4122.02C2164.06,4122.24 2163.76,4122.45 2163.45,4122.63C2160.27,4126.78 2166.3,4144.89 2166.6,4148C2167.86,4165.49 2170.15,4183.14 2171.94,4201.28C2178.63,4269.27 2188.92,4341.31 2208.08,4410.98C2227.11,4480.22 2256.12,4545.63 2287.42,4605.72C2295.62,4621.46 2302.62,4637.36 2311.27,4652.32C2317.96,4661.93 2315.59,4675.16 2305.98,4681.86C2296.37,4688.55 2283.13,4686.18 2276.44,4676.57C2264.5,4662.19 2252.58,4647.56 2242.5,4631.2C2204.81,4569.98 2181.43,4496.57 2163.47,4422.51C2145.77,4349.52 2134.25,4274.36 2133.58,4203.34C2133.4,4184.49 2134.64,4166.1 2135.92,4148.02C2136.39,4143.23 2137.49,4121.54 2142.25,4113.3C2143.2,4111.66 2143.57,4109.84 2144.88,4109.19C2153.71,4104.75 2153.76,4100.71 2159.78,4106.19C2161.05,4107.34 2163.41,4107.63 2165.16,4109.81C2168.33,4113.02 2168.29,4118.21 2165.07,4121.39C2164.9,4121.56 2164.72,4121.72 2164.53,4121.87ZM2164.53,4121.87C2164.8,4121.8 2165.11,4121.77 2165.45,4121.8C2166.12,4121.85 2165.23,4121.86 2164.35,4122.02C2164.41,4121.97 2164.47,4121.92 2164.53,4121.87ZM2162.98,4122.88C2161.89,4123.43 2160.7,4123.71 2159.51,4123.74C2161.32,4124.59 2162.3,4124.81 2162.98,4122.88Z" style="fill:#fff;"/>
            <path d="M2321.45,4695.41C2299.93,4670.03 2312.49,4658.62 2334.74,4687.85C2344.67,4685.79 2349.86,4693.67 2343.01,4700C2343.95,4701.53 2344.91,4703.12 2345.87,4704.78C2347.07,4706.85 2347.88,4709.15 2348.26,4712.95C2349.31,4723.44 2346.2,4738.63 2346.2,4741.62L2343.48,4866.22C2336.85,5005.6 2345.53,5146.79 2341.72,5286.53C2341.04,5311.46 2340.83,5336.43 2338.14,5361.15C2337.44,5367.58 2337.32,5374.15 2335.16,5380.24C2333.43,5385.17 2330.8,5388.04 2328.18,5392.55C2327.13,5405.2 2316.01,5414.6 2303.37,5413.55C2290.73,5412.5 2281.32,5401.38 2282.38,5388.74C2280.55,5382.96 2278.01,5378.74 2277.16,5372.74C2275.45,5360.77 2277.44,5348.58 2277.89,5336.47C2283.68,5179.4 2279.28,5020.09 2289.39,4863.18C2291.3,4838.01 2292.31,4812.73 2295.59,4787.68C2297.8,4770.74 2301.34,4754.22 2304.63,4737.46C2305.4,4733.85 2307.5,4712.4 2314.45,4703.22C2316.82,4700.09 2319.17,4697.51 2321.45,4695.41Z" style="fill:#fff;"/>
            <path d="M2930.82,4537.04C2931.17,4536.98 2931.53,4536.95 2931.91,4536.97C2937.79,4536.6 2943.98,4536.71 2950.36,4537.42C2965.26,4539.08 2993.98,4549.23 3015.27,4558.4C3029.01,4564.33 3039.01,4571.29 3042.79,4573.81C3053.77,4579.3 3058.23,4592.67 3052.74,4603.65C3047.25,4614.63 3033.87,4619.09 3022.89,4613.6C3019.15,4612.28 3008.53,4611.02 2996.22,4606.58C2974.18,4598.63 2945.19,4587.31 2933.83,4577.29C2929.07,4573.08 2927.54,4570.29 2926.65,4568.38C2855.27,4577.47 2881.47,4540.64 2930.82,4537.04Z" style="fill:#fff;"/>
            <path d="M2496.16,3604.32C2495.35,3599.95 2497.33,3592.5 2504.5,3583.86C2514.16,3572.22 2541.27,3556.74 2558.89,3551.54C2573.9,3547.12 2585.57,3552.02 2591.53,3557.56C2600.14,3565.54 2602.3,3576.91 2594.36,3590.45C2584.84,3606.67 2535.72,3635.76 2532.1,3637.68C2515.65,3646.41 2505.4,3639.7 2501.61,3636.91C2495.28,3632.24 2490.8,3624.64 2492.6,3613.55C2492.95,3611.39 2494.13,3608.08 2496.16,3604.32ZM2555.98,3575.18C2556.05,3575.22 2556.13,3575.26 2556.21,3575.3C2559.84,3572.35 2561.21,3569.72 2558.47,3567.88C2554.21,3565.01 2554.27,3569.62 2555.98,3575.18ZM2566.63,3588.4C2566.96,3589.46 2567.23,3590.58 2567.46,3591.75C2569.13,3592.73 2570.52,3592.96 2570.62,3591.15C2570.76,3588.82 2569.22,3588.08 2566.63,3588.4ZM2541.41,3622.86C2540.06,3622.51 2538.77,3622.03 2537.55,3621.44C2536.18,3623.54 2535.52,3625.51 2536.53,3626.08C2541.03,3628.59 2542.1,3626.63 2541.41,3622.86Z" style="fill:#fff;"/>
            <path d="M2814.19,3485.9C2815.37,3482.65 2817.21,3478.88 2819.69,3474.46C2821.65,3469.27 2825.5,3464.79 2830.84,3462.11C2832.4,3460.91 2833.92,3459.97 2835.38,3459.26C2836.22,3458.66 2837.07,3458.06 2837.93,3457.46C2848.55,3450.1 2861.84,3445.7 2869.98,3443.29C2883.13,3439.4 2892.6,3444.07 2896.07,3446.42C2903.83,3451.68 2906.99,3459.61 2905.28,3470.39C2904.73,3473.81 2901.71,3481.78 2890.03,3491.33L2848.97,3524C2822.48,3541.04 2811,3517.89 2808.57,3510.29C2807.39,3506.63 2806.21,3498.83 2810.89,3489.7C2811.42,3488.67 2812.69,3487.35 2814.19,3485.9ZM2871.99,3485.79C2875.87,3488.57 2881.58,3491.98 2880.78,3487.31C2880.22,3484.08 2876.72,3484.18 2871.99,3485.79ZM2858.75,3503.19C2855.76,3507.3 2853.52,3511.12 2856.03,3512.31C2860.59,3514.49 2859.97,3508.51 2858.75,3503.19Z" style="fill:#fff;"/>
            <path d="M3475.91,2899.89C3482.25,2879.9 3499.03,2859.68 3529.14,2853.28C3530.85,2852.94 3532.58,2852.76 3534.31,2852.76L3559.25,2852.46C3581.01,2852.29 3591.67,2863.38 3596.63,2876.28C3596.67,2876.38 3596.7,2876.48 3596.74,2876.58C3608.06,2884.53 3614.88,2896.62 3614.28,2914.02C3613.81,2926.3 3607.06,2940.54 3592.6,2951.36C3575.79,2963.95 3549.4,2973.82 3530.77,2974.55C3524.08,2974.82 3518.11,2974.09 3513,2972.59C3503.93,2973.49 3494.75,2972.72 3485.8,2969.77C3462.07,2961.82 3456.67,2945.15 3461.48,2925.53C3463.48,2917.36 3469.41,2908 3475.91,2899.89Z" style="fill:#fff;"/>
        </g>
    </g>
</svg>
