<?xml version="1.0" encoding="UTF-8" standalone="no"?>
<!DOCTYPE svg PUBLIC "-//W3C//DTD SVG 1.1//EN" "http://www.w3.org/Graphics/SVG/1.1/DTD/svg11.dtd">
<svg width="100%" height="100%" viewBox="0 0 5906 5906" version="1.1" xmlns="http://www.w3.org/2000/svg" xmlns:xlink="http://www.w3.org/1999/xlink" xml:space="preserve" xmlns:serif="http://www.serif.com/" style="fill-rule:evenodd;clip-rule:evenodd;stroke-linejoin:round;stroke-miterlimit:2;">
    <g id="Middle">
        <g id="_3" serif:id="3">
            <path d="M3571.58,5284.68C3575.87,5283.25 3580.51,5285.57 3581.94,5289.86C3583.37,5294.15 3581.05,5298.79 3576.76,5300.22C3569.92,5307.26 3560.58,5303.22 3545.38,5290.29C3535.98,5282.29 3527.66,5267.63 3518.79,5249.26C3512.67,5236.57 3508.04,5221.89 3503.64,5206.77C3492.38,5168.04 3486.15,5126.46 3483.42,5104.1C3478.56,5061.76 3475.97,5019.64 3476.57,4977.57C3477.47,4914.79 3484.96,4852.32 3495.49,4789.66C3525.77,4609.53 3582.1,4454.39 3656.04,4310.92C3757.13,4114.78 3888.39,3938.51 4034.1,3752.6C4046.25,3737.1 4058.26,3721.35 4071.39,3706.34C4072.38,3705.2 4073.12,3703.73 4074.48,3703.09C4081.69,3699.67 4082.25,3702.51 4090.22,3701.91C4096.77,3693.18 4109.17,3691.41 4117.9,3697.95C4126.63,3704.5 4128.4,3716.9 4121.85,3725.63C4123.5,3733.46 4126.37,3733.22 4125.1,3741.1C4124.86,3742.59 4123.64,3743.71 4122.83,3744.98C4112.04,3761.81 4100.17,3777.73 4088.57,3793.71C3952.36,3981.32 3819.62,4151.33 3721.52,4344.43C3651.73,4481.81 3598.14,4629.95 3569.88,4802.02C3561.78,4851.34 3556.62,4900.56 3553.71,4949.86C3550.81,4998.87 3550.06,5047.98 3553.78,5097.6C3555.08,5118.23 3561.24,5156.16 3566.89,5192.75C3569.09,5207.01 3571.38,5220.83 3572.7,5233.67C3574.72,5253.37 3573.79,5268.39 3576.25,5277.86C3577.43,5282.41 3568.8,5284.15 3571.58,5284.68Z" style="fill:#fff;"/>
            <path d="M4175.07,3636.41C4178.44,3633.74 4183.36,3634.15 4186.26,3637.4C4189.26,3640.78 4188.95,3645.97 4185.57,3648.97C4185.56,3654.72 4181.51,3652.68 4179.96,3655.31C4179.19,3656.62 4178.11,3654.99 4177.19,3655.99C4172.37,3661.21 4172.85,3652.03 4164.84,3650.76C4160.25,3650.04 4163.36,3646.47 4156.82,3639.46C4152.48,3634.82 4150.5,3630.45 4148.15,3619.16C4147.69,3616.92 4148.45,3614.52 4148.62,3611.97C4149.37,3600.79 4150.44,3587.46 4152.93,3573.42C4159.04,3538.88 4170.7,3501.54 4172.78,3491.13C4183.85,3442.36 4180.24,3403.9 4170.2,3368.3C4151.99,3303.7 4115.22,3247.13 4094.16,3166.56C4079.37,3109.97 4075.89,3054.45 4078.77,2999.45C4085.12,2878.25 4123.91,2759.89 4129.63,2638.03C4130.7,2615.87 4125.43,2593.99 4117.53,2572.27C4095.55,2511.81 4055.2,2452.6 4038.39,2394.87C4025.99,2352.31 4015.64,2309.44 4006.57,2266.32C3993.14,2202.39 3982.54,2137.91 3972.25,2073.08C3966.1,2029.72 3973.85,1958.69 3967.51,1900.71C3965.2,1879.55 3961.99,1860.21 3952.12,1846.92L3947.4,1841.52C3941.11,1837 3933.2,1837.15 3925.66,1838.66C3915.11,1840.79 3904.93,1846.2 3897.37,1852.69C3804.28,1933 3773.92,2049.19 3773.1,2174.03C3772.26,2302.25 3804.46,2439.28 3835.01,2560.88C3845.28,2601.74 3856.15,2640.71 3863.86,2677.48C3867.59,2695.28 3869.73,2712.42 3872.38,2728.95C3876.22,2743.27 3867.71,2758.02 3853.38,2761.87C3839.05,2765.7 3824.3,2757.19 3820.46,2742.86C3814.54,2727.36 3807.63,2711.68 3801.75,2694.63C3789.4,2658.82 3778.49,2619.51 3767.41,2578.5C3733.21,2451.91 3704.74,2307.32 3707.09,2173.23C3709.62,2029.45 3749.26,1897.21 3857.63,1806.05C3875.82,1790.68 3901.67,1778.93 3926.99,1777.19C3946.87,1775.82 3966.39,1780.27 3982.92,1792.18L4000.56,1808.69C4017.54,1828.94 4027.66,1858.37 4033,1891.93C4042.02,1948.7 4036.24,2019.04 4043.93,2061.51C4054.38,2125.08 4065.09,2188.3 4078.62,2250.98C4087.52,2292.21 4097.64,2333.2 4109.73,2373.89C4126.43,2430.12 4166.57,2487.45 4188.34,2546.3C4199.93,2577.66 4206.79,2609.43 4205.42,2641.47C4200.06,2763.47 4161.67,2882.05 4155.62,3003.38C4153.26,3050.64 4156.09,3098.35 4168.9,3146.94C4194.23,3243.03 4241.9,3305.36 4253.64,3387.23C4258.79,3423.1 4257.68,3462.35 4246.36,3508.41C4243.52,3518.91 4232.36,3557.24 4220.47,3591.12C4216.18,3603.33 4211.25,3614.4 4207.73,3623.94C4206.91,3626.17 4206.3,3628.26 4205.23,3630.06C4202.65,3634.36 4199.7,3634.98 4197.29,3637.49C4194.75,3640.13 4191.48,3639.06 4191.48,3639.06C4191.48,3639.06 4188.64,3638.81 4189.16,3637.82C4191.83,3632.7 4182.97,3636.57 4181.71,3632.83C4180.89,3630.42 4178.59,3634.79 4176.46,3632.84C4175.49,3631.95 4175.58,3635.18 4174.01,3634.51C4173.36,3634.23 4174.89,3635.73 4175.07,3636.41Z" style="fill:#fff;"/>
            <path d="M3251.56,1923.63C3249.89,1921.49 3249.08,1912.59 3252.52,1916.4C3254.38,1918.46 3257.55,1912.82 3261.55,1911.06C3282.72,1901.77 3319.03,1889.46 3327.97,1887.27C3373.65,1876.56 3413.57,1868.31 3448.9,1864.24C3539.71,1853.77 3600.89,1867.01 3643.41,1900.21C3686.62,1933.96 3714.53,1990.96 3727.61,2079.28C3732.86,2114.73 3734.56,2155.42 3736.29,2201.83C3737.47,2214.45 3728.19,2225.65 3715.57,2226.84C3702.95,2228.02 3691.74,2218.73 3690.56,2206.11C3683.88,2161.84 3676.02,2123.48 3669.04,2089.64C3654.85,2020.79 3640.26,1973.86 3606.53,1946.92C3573.45,1920.51 3525.35,1915.22 3453.77,1919.58C3419.74,1921.65 3380.89,1925.2 3336.38,1931.66C3327.68,1932.83 3292.96,1945.67 3270.99,1947.68C3264.96,1948.23 3259.86,1949.08 3256.45,1947.3C3247.23,1942.49 3247.17,1943.87 3246.14,1939.53C3241.85,1937.76 3239.8,1932.83 3241.58,1928.54C3243.22,1924.58 3247.53,1922.54 3251.56,1923.63Z" style="fill:#fff;"/>
            <path d="M3305.31,1925.63C3307.56,1924.29 3314.98,1923.9 3309.82,1926.41C3305.52,1928.51 3310.9,1942.96 3311.04,1944.23L3312.96,2023.72L3348.01,2286.09C3359.16,2390.43 3370.14,2568.48 3407.07,2722.32C3432.01,2826.25 3467.59,2919.42 3527.26,2965.73C3554.2,2986.68 3576.13,2994.87 3595.43,2989.13C3617.3,2982.63 3633.17,2960.83 3647.39,2932.62C3668.6,2890.55 3682.7,2833.83 3694.37,2775.08C3701.81,2737.67 3708.41,2699.49 3713.63,2663.13C3718.51,2629.09 3721.96,2596.74 3725.75,2568.47C3731.82,2523.28 3737.45,2488.73 3739.92,2472.91C3740.5,2464.4 3747.87,2457.95 3756.39,2458.53C3764.9,2459.1 3771.34,2466.48 3770.77,2474.99C3771.08,2491.06 3773.82,2526.14 3773.38,2571.88C3773.1,2601.02 3770.93,2634.21 3768.12,2669.22C3765.07,2707.19 3760.83,2747.2 3754.09,2786.17C3742.8,2851.36 3724.86,2913.47 3701.34,2959.89C3678.23,3005.53 3647.96,3036.43 3612.53,3046.88C3578.56,3056.89 3537.68,3049.99 3490.39,3013.06C3436.58,2971.01 3397.14,2897.4 3369.67,2809.45C3316.52,2639.31 3305.69,2415.02 3293.66,2291.64C3288.77,2229.86 3280.52,2168.37 3275.68,2106.58C3273.57,2079.64 3272.2,2052.69 3271.77,2025.65C3271.48,2008.79 3271.38,1991.64 3272.8,1974.63C3273.75,1963.15 3275.41,1951.84 3277.39,1940.62C3277.87,1939.15 3280.43,1923.88 3285.08,1920.41C3292.67,1914.74 3288.93,1917.74 3291.39,1916.8C3299.15,1913.85 3300.99,1911.82 3304.65,1916.47C3306.78,1919.18 3306.93,1922.82 3305.31,1925.63ZM3304.68,1926.56C3304.28,1927.07 3303.81,1927.55 3303.28,1927.97C3299.72,1930.77 3294.57,1930.15 3291.78,1926.6C3295.31,1931.09 3304.23,1934.38 3304.68,1926.56Z" style="fill:#fff;"/>
            <path d="M3251.53,2088.89C3251.76,2088.94 3251.92,2089.2 3251.97,2089.83C3251.73,2089.52 3251.59,2089.21 3251.53,2088.89ZM3251.53,2088.89C3250.6,2088.72 3248.44,2092.1 3247.13,2089.34C3246.09,2087.14 3244.16,2092.2 3244.16,2092.2C3244.16,2092.2 3260.91,2104.88 3257.01,2105.36C3255.91,2108.24 3253.36,2110.14 3250.5,2110.54C3251.22,2110.71 3252.25,2111.38 3252.25,2111.38C3252.25,2111.38 3247.98,2112.77 3245.06,2117.18C3243.04,2120.23 3242.83,2114.52 3240.36,2116.48C3235.47,2117.57 3233.2,2116 3227.98,2114.57C3217.45,2111.67 3209.84,2100.04 3202.01,2087.59C3186.43,2062.82 3179.69,2024.52 3174.08,2010.36C3151.2,1945.7 3124.55,1881.21 3102.22,1815.55C3086.78,1770.18 3073.61,1724.28 3064.37,1677.68C3037.05,1523.73 3019.83,1145.14 2945.66,868.995C2922.79,783.854 2894.12,709.533 2858.4,654.038C2843.89,631.482 2827.15,613.989 2812.37,595.969C2807.37,589.873 2806.6,583.854 2802.1,577.595C2793.16,572.719 2789.86,561.503 2794.73,552.563C2799.61,543.624 2810.83,540.325 2819.77,545.201C2829.24,545.687 2836.22,545.924 2845.35,549.203C2873.48,559.305 2895.51,584.702 2917.22,611.382C2963.73,668.543 2998.06,752.224 3025.32,846.824C3105.27,1124.33 3115.37,1508.42 3142.28,1664.03C3148.93,1707.76 3159.58,1750.91 3171.8,1793.82C3190.72,1860.26 3213.27,1925.97 3232.42,1991.55C3235.65,2004.3 3240.09,2034.94 3246.56,2060.49C3248.67,2068.85 3249.69,2076.36 3252.31,2082.37C3253.37,2084.79 3251.15,2086.99 3251.53,2088.89ZM3249.92,2110.61C3249.45,2110.64 3248.99,2110.63 3248.52,2110.58C3248.96,2111.03 3249.37,2111.76 3249.85,2110.7C3249.87,2110.66 3249.89,2110.63 3249.92,2110.61ZM3247.71,2110.46C3247.28,2110.37 3246.86,2110.24 3246.44,2110.08C3245.79,2109.84 3245.19,2109.52 3244.65,2109.14C3245,2111.94 3244.54,2114.29 3247.67,2110.5C3247.69,2110.49 3247.7,2110.47 3247.71,2110.46ZM3241.46,2104.59C3241.36,2104.23 3241.29,2103.87 3241.24,2103.5C3240.62,2104.01 3240.26,2104.32 3241.43,2104.58C3241.44,2104.58 3241.45,2104.59 3241.46,2104.59Z" style="fill:#fff;"/>
            <path d="M2748.15,509.262C2748.16,509.366 2748.16,509.381 2748.15,509.262ZM2748.1,508.835C2748.12,508.922 2748.13,509.016 2748.14,509.116C2748.14,509.178 2748.15,509.226 2748.15,509.262C2748.14,509.174 2748.12,509.023 2748.1,508.835ZM2748.04,508.493C2748.06,508.615 2748.08,508.731 2748.1,508.835C2748.06,508.672 2748,508.532 2747.93,508.413C2747.73,508.274 2747.54,508.125 2747.35,507.967C2744.95,507.12 2737.84,512.155 2735.9,513.469C2714.62,524.545 2698.02,541.929 2684.44,561.572C2669.82,582.726 2659.07,606.79 2650.62,629.916C2631.91,680.842 2622.79,733.458 2618.8,786.673C2612.66,868.432 2619.44,951.706 2628.62,1033.02C2635.45,1098.33 2646.86,1162.45 2660.4,1226.04C2692.69,1377.71 2737.74,1526.25 2769.44,1678.72C2791.11,1783.65 2807.96,1889.88 2822.24,1996.53C2833.55,2081.09 2846.92,2165.49 2854.16,2250.3C2855.99,2271.69 2855.9,2292.86 2856.93,2314.28C2859.2,2329.33 2848.82,2343.4 2833.77,2345.67C2818.71,2347.95 2804.64,2337.57 2802.37,2322.51C2796.99,2301.58 2790.99,2281.11 2786.61,2259.91C2778.85,2222.26 2773.89,2184.06 2768.32,2145.95C2746.21,1994.77 2728.18,1842.65 2697.39,1693.58C2666.17,1541.11 2621.05,1392.63 2589.75,1240.84C2576.11,1174.69 2565.17,1107.9 2558.74,1039.99C2551.34,954.266 2546.01,866.47 2555.49,780.793C2561.98,722.208 2575.29,664.691 2598.43,609.416C2611.99,577.171 2629.91,543.734 2654.07,516.561C2671.15,497.362 2691.06,481.034 2714.58,470.117C2718.28,468.616 2724.07,466.139 2730.91,466.146C2744.37,466.16 2761.26,468.287 2765.85,475.191C2771.37,483.49 2778.97,486.582 2773.75,493.364C2771.95,495.713 2774.5,498.736 2771.12,500.245C2767.21,501.99 2767.89,502.166 2761.11,505.076C2759.97,505.562 2759.34,506.978 2758.24,508.058C2755.25,510.516 2751.08,510.585 2748.04,508.493ZM2744.72,503.941C2743.77,500.759 2744.74,497.172 2747.46,494.933C2748.16,493.015 2746.3,491.246 2746.14,490.469C2744.91,491.039 2742.79,492.047 2743.41,492.888C2746.35,496.855 2741.02,502.784 2744.72,503.941Z" style="fill:#fff;"/>
            <path d="M2470.3,2374.33C2469.07,2375.11 2467.62,2375.56 2466.06,2375.59C2457.41,2380.83 2452.83,2378.56 2449.01,2379.1C2441.84,2380.13 2442.73,2373.43 2438.83,2370.65C2432.85,2366.38 2435.32,2356.52 2445.98,2341.68C2453.28,2331.52 2475.22,2320.09 2494.16,2310.57C2511.48,2301.87 2527.83,2296.91 2531.97,2296.09C2573.08,2288.36 2651.92,2278.78 2718.7,2289.67C2773.76,2298.65 2819.91,2322.56 2839.92,2361.68C2855.17,2390.16 2866.01,2444.4 2874.01,2507.92C2888.29,2621.3 2894.67,2766.22 2905.27,2831.24C2915.21,2894.98 2929.07,2958.6 2942.28,3022.64C2962.27,3119.52 2982.1,3217.04 2997.67,3314.45C3009.06,3385.73 3017.56,3457.04 3020.55,3528.33C3021.75,3553.9 3021.05,3577.29 3014.8,3599.47C3010.26,3615.55 3003.07,3631.11 2991.63,3646.3L2985.3,3654.07L2978.17,3660.37C2956.95,3677.49 2934.09,3688.03 2909.87,3693.7C2886.93,3699.07 2862.7,3699.97 2837.43,3697.56C2757.01,3690.16 2708.67,3651.37 2677.53,3597.01C2646.31,3542.51 2633.7,3470.25 2624.45,3397.93C2615.97,3331.62 2610.63,3265.35 2589.39,3217.03C2560.43,3148.85 2530.29,3077.55 2498.17,3008.03C2476.8,2961.77 2454.63,2916.28 2431.06,2873.16C2408.07,2828.33 2375.35,2792.25 2351.43,2748.23C2347.01,2740.11 2341.72,2732.19 2339.34,2723.03C2338.21,2718.65 2338.3,2714.96 2337.99,2710.38C2334.1,2702.11 2337.65,2692.25 2345.92,2688.36C2354.18,2684.47 2364.05,2688.02 2367.93,2696.29C2371.03,2699.31 2374.16,2701.08 2376.92,2704.33C2380.6,2708.66 2383.3,2713.59 2386.47,2718.19C2409.32,2751.34 2436.09,2779.44 2459.62,2811.14C2467.51,2821.77 2474.72,2832.97 2481.57,2844.62C2507.03,2888.21 2531.27,2934.21 2554.44,2981.16C2588.63,3050.47 2620.46,3121.81 2651.23,3189.94C2670.54,3234.03 2679.44,3291.18 2686.53,3351.09C2695.5,3426.81 2701.17,3507.49 2733.36,3565.53C2754.39,3603.44 2787.92,3630.07 2843.49,3635.9C2861.77,3637.74 2879.31,3637.52 2895.92,3633.69C2911.38,3630.12 2925.97,3623.36 2939.51,3612.44L2940.3,3611.89L2941.87,3609.64C2949.8,3598.64 2953.87,3587.39 2955.88,3575.64C2958.24,3561.87 2957.76,3547.45 2956.72,3531.98C2951.75,3463.36 2941.29,3394.91 2928.39,3326.51C2910.25,3230.31 2885.95,3134.55 2865.98,3038.43C2852.36,2972.91 2841.28,2907.17 2832.6,2841.72C2824.33,2775.81 2824.23,2629.44 2812.97,2514.76C2807.63,2460.34 2800.33,2413.57 2787.74,2389.01C2774.74,2364.77 2742.97,2356 2708.55,2350.04C2648.75,2339.7 2578.08,2344.16 2540.97,2349.66C2538.07,2350.06 2527.15,2354.51 2514.42,2358.85C2498.31,2364.35 2480.43,2370.72 2471.06,2374.37C2470.82,2374.46 2470.55,2374.43 2470.3,2374.33ZM2470.02,2360.3C2468.52,2358.79 2465.4,2357.57 2464.87,2354.19C2464.74,2353.41 2462.97,2353.74 2461.62,2354C2462.44,2355.14 2463.34,2357.87 2465.82,2359.21C2467.35,2359.19 2468.79,2359.58 2470.02,2360.3Z" style="fill:#fff;"/>
            <path d="M2327.35,2647.6C2331.85,2647.95 2335.23,2651.89 2334.88,2656.39C2334.53,2660.9 2330.59,2664.28 2326.08,2663.93C2319.22,2669.31 2316.81,2664.17 2309.92,2660.77C2303.29,2657.5 2302.42,2646.48 2300.08,2640.22C2296.96,2627.49 2295.01,2615.27 2294.87,2602.94C2294.54,2572.73 2303.68,2544.41 2316.21,2518C2331.47,2485.83 2353.16,2455.73 2379.33,2429.87C2396.01,2413.38 2414.79,2399.38 2433.03,2385.4C2441.3,2377.93 2454.09,2378.58 2461.55,2386.86C2469.02,2395.14 2468.37,2407.92 2460.09,2415.39C2445.19,2431.18 2431.24,2448.24 2416.69,2464.95C2395.81,2488.93 2375.36,2513.1 2361.11,2540.37C2350.41,2560.86 2343.4,2582.62 2339.66,2606.21C2338.1,2616.08 2335.93,2625.83 2335.62,2636.44C2335.49,2638.57 2335.12,2641.34 2334.88,2643.95C2334.5,2647.94 2324.24,2644.91 2327.35,2647.6Z" style="fill:#fff;"/>
            <path d="M2027.82,2861.76C2028.98,2866.13 2026.38,2870.62 2022.01,2871.78C2017.64,2872.94 2013.15,2870.34 2011.99,2865.97C2009.25,2864.19 2008.57,2863.75 2006.61,2861.26C2003.37,2857.14 2003.42,2852 2002.95,2846.99C2000.55,2821.82 2019.66,2796.92 2047.93,2775.75C2066.19,2762.07 2089.84,2750.48 2115.78,2740.7C2179.27,2716.75 2258.05,2703.13 2312.58,2711.06C2326.78,2713.13 2339.77,2715.93 2349.64,2721.7C2355.71,2725.25 2360.2,2728.72 2364.31,2733.19C2373.33,2738.26 2376.54,2749.72 2371.46,2758.74C2366.38,2767.77 2354.93,2770.98 2345.91,2765.9C2342.29,2765.18 2338.83,2766.57 2334.59,2766.04C2326.4,2765.01 2317.22,2764.1 2306.89,2763.35C2258.04,2759.83 2188.86,2767.02 2131.32,2785.11C2094.17,2796.79 2061.75,2810.99 2044.77,2830.49C2039.24,2836.84 2036.12,2843.4 2033.75,2850.51C2032.29,2854.91 2028.87,2856.89 2027.82,2861.76Z" style="fill:#fff;"/>
            <path d="M2112.89,3449.7C2113.03,3450.33 2113.1,3450.99 2113.08,3451.67C2112.96,3456.19 2109.2,3459.76 2104.68,3459.64C2098.03,3462.63 2093.9,3455.89 2088.62,3451.02C2083.69,3446.46 2087.5,3441.24 2087.76,3434.77C2094.34,3417.04 2113.41,3406.27 2138.59,3403.99C2162.71,3401.8 2192.51,3410.33 2214.3,3420.41C2227.05,3426.31 2236.26,3433.3 2242.4,3437.97C2250.04,3441.64 2253.26,3450.84 2249.58,3458.48C2245.9,3466.12 2236.71,3469.34 2229.07,3465.66C2222.85,3464.14 2213.48,3463.91 2202.16,3461.69C2190.21,3459.36 2176.6,3455.98 2163.07,3453.68C2150.5,3451.54 2138.32,3450.41 2127.99,3450.63C2121.97,3450.76 2116.76,3447.13 2112.89,3449.7ZM2112.7,3449.83C2112.52,3449.96 2112.34,3450.11 2112.17,3450.27C2112.41,3450.14 2112.59,3449.99 2112.7,3449.83ZM2112.85,3449.51C2113.18,3448.17 2110.83,3446.01 2111.52,3444.06C2112.16,3442.23 2109.49,3443.43 2107.14,3443.58C2109.96,3444.38 2112.15,3446.66 2112.85,3449.51Z" style="fill:#fff;"/>
            <path d="M2142.68,3333.34C2140.35,3332.85 2138.22,3331.48 2136.81,3329.34C2125.97,3322.32 2122.61,3310.31 2121.15,3303.6C2119.92,3297.89 2125.36,3295.52 2127.55,3291.13C2130.65,3284.9 2139.25,3284.53 2165.44,3289.01C2219.24,3321.59 2252.43,3360.65 2273.83,3402.99C2301.17,3457.07 2307.79,3516.43 2318.62,3572.79C2328.05,3621.89 2339.61,3669.13 2376.75,3707.14C2409.61,3740.93 2455.75,3747.39 2501.62,3739.04C2544.54,3731.22 2586.55,3709.13 2622.02,3683.09C2636.89,3672.16 2650.31,3660.43 2663.09,3648.99C2672.78,3640.31 2682.81,3634.25 2690.84,3625.27C2696.18,3615.36 2708.56,3611.64 2718.47,3616.98C2728.38,3622.32 2732.1,3634.7 2726.76,3644.61C2722.64,3659.79 2717.21,3674.19 2708.34,3688.72C2700.43,3701.67 2689.32,3712.97 2677.67,3723.98C2645.13,3754.73 2602.65,3778.64 2558.95,3793.68C2476.76,3821.98 2388.3,3815.27 2328.81,3753.55C2282.45,3705.23 2265.68,3646.71 2254.53,3584.71C2245.3,3533.44 2239.15,3480.14 2217.05,3429.78C2202.2,3395.94 2180.66,3362.85 2142.68,3333.34ZM2137.46,3325.68C2137.47,3325.14 2137.42,3324.89 2137.12,3325.19C2136.23,3326.08 2136.57,3326.05 2137.46,3325.68ZM2152.24,3316.83C2153.11,3314.87 2154.05,3312.77 2155.41,3310.96C2156.03,3310.14 2153.58,3307.89 2153.58,3307.89C2153.58,3307.89 2152.25,3312.77 2152.24,3316.83Z" style="fill:#fff;"/>
            <path d="M2018.13,2879.82C2018.83,2884.28 2015.77,2888.47 2011.3,2889.17C2006.83,2889.87 2002.64,2886.81 2001.95,2882.34C2000.24,2881.87 2000.53,2881.28 1999.96,2882.64C1999.44,2883.86 1998.96,2884.82 1999.78,2885.06C2001.62,2885.61 2000.54,2888.26 2002.03,2888.13C2005.88,2887.79 2007.14,2893.55 2009.73,2890.74C2011.16,2889.18 2014.62,2892.51 2015.3,2889.51C2015.48,2888.73 2018.63,2889.29 2017.49,2889.29C2015.68,2889.3 2020.76,2891.03 2020.38,2894.09C2017.61,2917.01 1993.53,2979.85 1989.62,2993.34C1975.88,3035.17 1965.19,3078.12 1957.99,3121.66C1950.83,3164.88 1947.32,3208.64 1947.64,3252.4C1948.27,3349.05 1965,3447.08 1992.5,3542.88C2008.79,3599.61 2029.52,3655.27 2052.31,3709.78C2075.36,3764.91 2102.87,3817.65 2128.74,3870.15C2142.18,3897.41 2153.29,3924.91 2166.82,3951.43C2175.53,3964.76 2171.79,3982.67 2158.45,3991.39C2145.12,4000.11 2127.22,3996.36 2118.5,3983.03C2101.68,3963.09 2084.48,3943.74 2069.7,3921.7C2012.72,3836.71 1971.96,3737.95 1939.86,3638.07C1899.31,3511.84 1879.79,3379.61 1884.38,3251.46C1886.13,3204.3 1892.07,3157.34 1901.79,3111.11C1911.44,3065.21 1924.61,3020.06 1941.06,2976.25C1946.82,2962.46 1966.96,2890.79 1985.95,2875.21C1994.33,2868.34 1996.9,2866.62 2000.89,2867.31C2010.35,2868.93 2015.58,2862 2016.73,2869.57C2016.92,2870.89 2019.01,2870.66 2018.68,2872.2C2018.04,2875.15 2022.32,2875.65 2018.13,2879.82Z" style="fill:#fff;"/>
            <path d="M2123.94,4046.34C2123.75,4045.83 2123.58,4045.36 2123.43,4044.93C2122.18,4041.4 2123.57,4039.3 2123.5,4038.37C2123.04,4032.45 2128.13,4030.62 2129.27,4028.53C2133.21,4021.33 2139.13,4019.48 2147.94,4024.3C2155.41,4024.91 2161.69,4030.39 2162.2,4038.8C2162.4,4039.29 2162.63,4039.82 2162.9,4040.38C2163.91,4042.48 2165.58,4047.41 2167.49,4054.98C2169.72,4063.78 2171.88,4076.18 2173.99,4090.54C2181.19,4139.61 2187.43,4211.21 2191.63,4229.4C2207.62,4298.85 2227.31,4368.23 2253.89,4434.54C2272.19,4480.21 2296.4,4522.84 2320.25,4565.89C2330.49,4584.38 2338.87,4603.48 2349.91,4621.74C2358.67,4633.13 2356.54,4649.49 2345.15,4658.25C2333.76,4667.01 2317.4,4664.88 2308.64,4653.49C2295.2,4640.37 2281.92,4627.82 2270.77,4612.89C2245.15,4578.57 2228.12,4538.81 2211.41,4499.51C2176.38,4417.06 2153.81,4329 2136.5,4241.18C2132.74,4222.02 2125.06,4147.32 2122.57,4095.54C2121.89,4081.23 2121.48,4068.82 2121.93,4059.88C2122.18,4054.76 2122.89,4050.26 2123.94,4046.34Z" style="fill:#fff;"/>
            <path d="M2311.19,4650.06C2311.99,4650.03 2313.39,4650.44 2312.3,4648.9C2311.91,4648.35 2316.61,4646.75 2314.6,4647.66C2311.64,4649 2316.35,4658.66 2316.44,4659.27L2317.8,4796.24C2317.73,4826.88 2318.11,4857.49 2317.59,4888.2C2316.38,4959.26 2313.57,5030.42 2313.62,5101.51C2313.64,5144.85 2314.22,5188.14 2316.11,5231.34L2325.06,5348.56L2332.25,5403.71C2286.72,5436.44 2257.6,5460.64 2280.99,5427.18C2282.36,5425.22 2274.92,5428.19 2280.91,5422.24C2275.01,5410.45 2279.8,5396.08 2291.6,5390.18C2294.44,5388.76 2297.43,5387.96 2300.41,5387.73C2298.49,5387.22 2296.37,5381.77 2296.06,5386.57C2295.78,5390.84 2291.92,5383.63 2292.28,5387.85C2292.53,5390.79 2289.23,5386.16 2289.79,5389.07C2290.96,5395.19 2282.29,5386.54 2284.93,5392.54C2286.37,5395.82 2280.55,5391.77 2282.51,5395.01C2283.75,5397.07 2279.59,5394.79 2281.08,5396.83C2284.76,5401.87 2272.17,5397.63 2277.98,5402.49C2280.83,5404.87 2273.08,5403.8 2276.82,5406.11C2280.98,5408.68 2269.45,5409.27 2276.05,5411.63C2278.08,5412.35 2273.48,5413.21 2276.04,5413.89C2278.73,5414.6 2271.88,5416.7 2276.25,5417.28C2278.36,5417.55 2273.29,5424.24 2274.05,5419.89C2274.37,5418.05 2273.56,5418.05 2272.32,5417.54L2262.29,5355.41L2253.55,5233.89C2250.87,5160.43 2251.23,5086.7 2253.79,5013.02C2255.58,4961.78 2257.56,4910.53 2261.43,4859.5C2263.09,4837.6 2265.61,4815.88 2267.69,4794.06L2287.42,4656.54C2287.66,4655.87 2289.45,4646.43 2292.08,4643.72C2294.81,4640.91 2293.74,4640.12 2294.94,4640.1C2301.24,4640 2295.55,4634.8 2298.21,4636.67C2302.71,4639.83 2300.91,4631.09 2302.78,4635.04C2305.67,4641.15 2312.1,4629.33 2309.51,4637.09C2313.51,4640.24 2314.24,4646.02 2311.19,4650.06ZM2301.06,5387.68C2309.58,5387.26 2317.95,5391.43 2322.62,5399C2323.73,5398.03 2325.11,5397.11 2324.34,5397.33C2318.27,5399.1 2324.65,5392.21 2321.6,5393.71C2315.95,5396.5 2321.28,5387.89 2317.84,5390.48C2315.03,5392.6 2317.4,5386.81 2315.24,5388.88C2310.75,5393.16 2313.28,5382.72 2310.38,5386.86C2306.51,5392.39 2306.81,5380.4 2304.6,5385.79C2303.65,5388.11 2303.01,5383.43 2302.3,5385.73C2301.93,5386.9 2301.51,5387.49 2301.06,5387.68ZM2310.76,4650.59C2310.06,4651.39 2309.26,4652.04 2308.39,4652.54C2311.01,4653.53 2313.53,4655.62 2310.83,4650.75C2310.8,4650.69 2310.78,4650.64 2310.76,4650.59ZM2304.63,4653.74C2304.15,4653.79 2303.67,4653.8 2303.19,4653.77C2303.76,4654.81 2304.11,4655.79 2304.61,4653.81C2304.62,4653.78 2304.62,4653.76 2304.63,4653.74ZM2300.59,4653.25C2300.27,4653.13 2299.95,4653 2299.64,4652.85C2299.72,4653.64 2299.74,4654.28 2300.57,4653.28C2300.58,4653.27 2300.58,4653.26 2300.59,4653.25Z" style="fill:#fff;"/>
            <path d="M2977.77,4545.44C2978.07,4544.26 2978.07,4543.33 2976.15,4543.65C2974.94,4543.86 2977.07,4541.28 2975.55,4541.61C2973.92,4541.96 2977.87,4534.15 2978.47,4537.3C2978.72,4538.59 2980.64,4536.34 2982.22,4536.51C2994.22,4537.79 3012.09,4544.38 3018.87,4546.62C3033.26,4553.11 3039.67,4570.06 3033.18,4584.45C3026.7,4598.84 3009.74,4605.26 2995.35,4598.77C2989.24,4595.2 2969.72,4590.23 2961.9,4581.49C2951.96,4570.38 2949.13,4567.01 2950.38,4562.83C2952.02,4557.34 2945.11,4557.59 2948.42,4554.97C2954.54,4550.13 2944.71,4541.78 2953.34,4543.33C2955.09,4543.65 2953.94,4541.21 2956.01,4541.52C2958.48,4541.9 2964.03,4537.35 2975.1,4544.75C2976.05,4544.83 2976.95,4545.07 2977.77,4545.44ZM2975.83,4560.98C2975.15,4561.1 2974.44,4561.13 2973.72,4561.07C2971.2,4562.07 2969.65,4564.05 2968.58,4564.98C2969.7,4565.32 2970.99,4565.71 2971.1,4565.16C2971.99,4560.85 2977.23,4564.24 2975.94,4561.29C2975.89,4561.18 2975.85,4561.08 2975.83,4560.98Z" style="fill:#fff;"/>
            <path d="M2528.52,3655.84C2519.13,3661.22 2509.08,3665.15 2503.18,3667.09C2454.88,3680.8 2443.66,3651.61 2444.33,3637.16C2444.75,3628.18 2453.44,3611.69 2469.78,3595.78C2493.7,3572.49 2533.58,3547.71 2550.25,3544.45C2561.88,3542.18 2570.63,3545.55 2576.56,3549.17C2585.49,3554.61 2591.4,3563.51 2591.75,3577.33C2592.1,3590.96 2586.26,3605.8 2575.23,3619.37C2563.43,3633.89 2544.99,3647.4 2528.52,3655.84ZM2531.8,3578.24C2532.91,3576.99 2533.19,3576 2531.83,3575.53C2531.24,3575.33 2531.82,3576.75 2531.81,3577.33C2531.8,3577.64 2531.8,3577.94 2531.8,3578.24ZM2547.01,3600.59C2548.41,3601.12 2549.79,3601.7 2551.11,3602.32C2553.6,3603.48 2555.37,3604.9 2556.61,3606.55C2559.28,3607.32 2560.82,3606.66 2559.66,3603.18C2558.34,3599.23 2553.49,3598.79 2547.01,3600.59Z" style="fill:#fff;"/>
            <path d="M2825.22,3478.8C2825.24,3478.78 2825.26,3478.76 2825.28,3478.74C2840.74,3462.11 2864.84,3449.28 2895.93,3445.43C2921.38,3444.15 2926.55,3461.79 2928.1,3471.71C2929.05,3477.82 2927.45,3488.33 2917.4,3499.03C2901.27,3516.22 2829.6,3552.09 2806.16,3552.64C2781.21,3552.58 2774.68,3537.21 2772.4,3528.77C2770.34,3521.13 2769.94,3502.28 2787.1,3491.32C2798.66,3483.92 2818.44,3477.8 2824.77,3478.74C2824.92,3478.76 2825.07,3478.78 2825.22,3478.8ZM2873.28,3469.63C2878.58,3465.95 2881,3462.41 2878.39,3459.58C2874.2,3455.01 2873.33,3462.81 2873.28,3469.63ZM2892.18,3499.39C2893.35,3499.57 2894.6,3499.7 2895.93,3499.77C2894.66,3499.61 2893.41,3499.48 2892.18,3499.39ZM2831.78,3530.16C2830.4,3530.51 2829.01,3530.72 2827.6,3530.81C2825.23,3533.32 2823.4,3536.72 2824.92,3538.25C2829.71,3543.07 2831.43,3537.42 2831.78,3530.16ZM2806.75,3492.31C2806.55,3492.3 2806.36,3492.3 2806.16,3492.3C2806.35,3492.31 2806.54,3492.31 2806.75,3492.31ZM2829.89,3528.8C2830.57,3529 2831.23,3529.18 2831.81,3529.31C2831.83,3528.82 2831.84,3528.33 2831.84,3527.83C2831.26,3527.97 2830.59,3528.31 2829.89,3528.8Z" style="fill:#fff;"/>
            <path d="M3529.62,2790.11C3529.63,2789.91 3529.63,2789.72 3529.64,2789.53C3529.71,2786.47 3530.39,2783.34 3531.43,2780.09C3530.66,2773.06 3532.19,2761.99 3544.27,2749.42C3548.23,2745.34 3554.93,2740.81 3562.84,2736.72C3574.75,2727.91 3588.44,2723.66 3599.15,2723.16C3604.36,2722.99 3608.78,2723.54 3612.52,2724.53C3634.46,2726.75 3648,2739.82 3648.07,2764.4C3648.12,2784.29 3638.39,2804.31 3622.04,2820.91C3603.76,2839.48 3577.43,2853.8 3556.46,2859.59C3530.91,2866.64 3509.7,2860.47 3502.04,2849.84C3494.96,2840.02 3486.35,2823.47 3502.22,2803.21C3507.38,2792.88 3518.83,2787.74 3529.62,2790.11Z" style="fill:#fff;"/>
        </g>
    </g>
</svg>
