<?xml version="1.0" encoding="UTF-8" standalone="no"?>
<!DOCTYPE svg PUBLIC "-//W3C//DTD SVG 1.1//EN" "http://www.w3.org/Graphics/SVG/1.1/DTD/svg11.dtd">
<svg width="100%" height="100%" viewBox="0 0 5906 5906" version="1.1" xmlns="http://www.w3.org/2000/svg" xmlns:xlink="http://www.w3.org/1999/xlink" xml:space="preserve" xmlns:serif="http://www.serif.com/" style="fill-rule:evenodd;clip-rule:evenodd;stroke-linejoin:round;stroke-miterlimit:2;">
    <g id="Thumb">
        <g id="Layer1">
            <path d="M3558.48,5334.61C3556.53,5338.69 3551.64,5340.42 3547.56,5338.47C3543.48,5336.52 3541.75,5331.63 3543.7,5327.55C3543.7,5322.15 3541.44,5318.24 3541.34,5311.98C3541.23,5305.18 3542.41,5297.99 3542.71,5290.02C3543.13,5278.81 3542.59,5266.76 3543.18,5253.82C3544,5235.94 3546.44,5216.89 3549.31,5197.49C3553.87,5166.54 3561.61,5134.98 3575.52,5106.14C3594.57,5066.97 3617.33,5027.42 3642.02,4989.04C3666.54,4950.93 3693.01,4914.03 3719.52,4879.76C3724.46,4873.48 3729.74,4867.63 3735.4,4862.26C3748.61,4849.72 3762.36,4838.32 3776.03,4826.56C3781.03,4822.25 3786.96,4819.87 3791.66,4814.76C3797.26,4804.68 3809.99,4801.05 3820.07,4806.65C3830.14,4812.24 3833.78,4824.97 3828.18,4835.05C3824.34,4847.4 3818.88,4857.83 3811.37,4867.55C3797.82,4885.08 3777.7,4896.41 3763.72,4914.66C3737.51,4947.21 3711.33,4982.33 3686.92,5018.6C3662.61,5054.72 3640.01,5091.92 3621.01,5128.88C3600.17,5168.98 3596.37,5216.35 3589.41,5256.32C3587.21,5268.96 3584.19,5280.6 3581.29,5291.51C3578.63,5301.53 3577.2,5311.2 3572.73,5318.73C3568.39,5326.03 3564.03,5330.01 3558.48,5334.61Z" style="fill:#fff;"/>
            <path d="M3817.18,4657.6C3818.58,4658.57 3819.7,4659.99 3820.28,4661.74C3821.7,4666.03 3819.37,4670.67 3815.08,4672.09C3814.3,4673.44 3813.04,4672.27 3812.06,4673.18C3806.9,4677.96 3804.48,4673.91 3795.57,4662C3792.9,4658.42 3792.88,4651.9 3791.62,4643.98C3790.74,4638.48 3790,4632.53 3790,4625.82C3790.03,4596.58 3797.95,4560.45 3798.47,4557.26L3824.32,4427.46C3843.4,4347.94 3867.28,4267.9 3897.33,4190.32C3927.6,4112.2 3964.16,4036.64 4007.56,3966.29C4043.79,3907.57 4087.62,3848.38 4136.11,3793.38C4184.84,3738.09 4238.32,3687.08 4293.44,3644.86C4377.24,3581.05 4463.07,3529.12 4548.23,3482.14C4637.23,3433.04 4725.99,3390.41 4807.09,3338.44C4848.02,3312.21 4886.67,3283.29 4923.43,3251.79C4955.68,3224.15 4985.64,3193.63 5014.48,3160.63C5074.64,3091.78 5124.63,3008.61 5167.47,2903.15C5171.68,2892.79 5174.99,2881.88 5180.75,2871.88C5183.5,2867.1 5186.96,2864.01 5190.33,2859.56C5193.44,2849.21 5204.36,2843.33 5214.72,2846.43C5225.07,2849.54 5230.95,2860.46 5227.84,2870.81C5228.22,2876.59 5229.18,2881.28 5228.67,2886.97C5227.6,2899.07 5223.35,2910.37 5219.96,2921.64C5184.72,3039 5128.77,3129.63 5064.28,3203.99C5033.3,3239.71 4999.08,3270.85 4963.56,3299.81C4924.05,3332 4882.03,3360.45 4839,3388.13C4756.99,3440.89 4670.49,3489.89 4581.03,3540.72C4499.06,3587.28 4415.03,3636.14 4333.67,3697.81C4281.48,3737.13 4230.86,3784.82 4184.54,3836.45C4138.03,3888.3 4095.84,3944.1 4060.9,3999.55C4018.79,4066.34 3983.48,4138.32 3953.58,4212.54C3923.47,4287.31 3898.8,4364.35 3879.01,4441.07L3846.67,4567.62C3845.89,4570.54 3839.39,4603.81 3832.13,4630.34C3829.3,4640.69 3825.82,4649.11 3823.83,4655.29C3823.19,4657.29 3819.61,4658.16 3820.76,4658.47C3823.86,4659.31 3820.32,4658.76 3817.18,4657.6ZM3814.69,4656.43C3814.24,4656.14 3813.89,4655.84 3813.67,4655.53C3813.12,4654.72 3812.53,4655.56 3811.75,4656.16C3812.75,4656.07 3813.75,4656.16 3814.69,4656.43Z" style="fill:#fff;"/>
            <path d="M5326.5,2734.88C5329.78,2737.99 5329.91,2743.18 5326.8,2746.45C5323.69,2749.73 5318.5,2749.87 5315.22,2746.75C5309.93,2748.44 5313.38,2749.21 5307.77,2749.91C5303.92,2750.38 5301.88,2751.28 5297.95,2750.35C5288.28,2748.07 5278.64,2744.56 5268.02,2741.4C5240.55,2733.24 5210.62,2725.55 5188.4,2719.01C5052.66,2676.4 4916.17,2703.58 4797.16,2769.98C4702.26,2822.94 4621.3,2903.11 4554.78,2989.81C4541.25,3007.45 4530.49,3027.18 4514.91,3042.62C4510.1,3047.39 4505.1,3048.96 4499.58,3052.85C4492.35,3065.35 4476.32,3069.62 4463.82,3062.39C4451.32,3055.15 4447.05,3039.13 4454.29,3026.63C4454.96,3019.47 4454.45,3014.02 4456.61,3007.13C4463.77,2984.27 4479.7,2964.95 4493.6,2945.03C4562.18,2846.76 4658.8,2765.14 4764.02,2709.16C4899.87,2636.88 5054.79,2610.49 5207.01,2661.83C5232.46,2671.02 5269.86,2677.95 5298.1,2694.72C5308.29,2700.77 5318.57,2706.36 5324.06,2715.63C5326.25,2719.34 5327.51,2721.03 5327.67,2725.2C5327.93,2731.55 5327.84,2728.8 5326.5,2734.88Z" style="fill:#fff;"/>
            <path d="M3871.97,3219.84C3865.9,3221.18 3862,3221.51 3859.61,3221.7C3853.82,3222.16 3851.66,3217.98 3849.49,3216.74C3840.89,3211.85 3843.56,3203.98 3849.78,3192.53C3851.96,3188.51 3866.49,3177.27 3889.43,3167.43C3916.82,3155.68 3956.22,3148.75 3968.22,3144.71C4054.2,3119.52 4140.57,3100.12 4227.67,3084.32C4304.99,3070.29 4381.87,3052.74 4460.48,3044.79C4466.71,3044.16 4472.97,3042.72 4478.99,3044.49C4484.04,3045.97 4483.83,3047.82 4488.2,3050.75C4502.49,3047.89 4516.4,3057.17 4519.26,3071.45C4522.12,3085.74 4512.84,3099.66 4498.55,3102.51C4494.79,3107.24 4494.91,3109.99 4489.85,3113.3C4477.91,3121.1 4462.5,3121 4448.6,3124.05C4371.15,3141.09 4292.8,3151.54 4214.86,3164.3C4138.22,3176.84 4061.49,3188.96 3985.14,3207.56C3972.39,3210.15 3932.53,3219.07 3901.97,3220.79C3888.59,3221.54 3873.66,3224.79 3871.97,3219.84Z" style="fill:#fff;"/>
            <path d="M3854.07,3156.12C3856.34,3162.22 3853.22,3169.03 3847.12,3171.3C3841.01,3173.57 3834.2,3170.45 3831.93,3164.35C3827.33,3159.98 3822.7,3157.35 3818.06,3150.75C3807.52,3135.78 3800.3,3113.06 3789.67,3087.22C3769.27,3037.67 3744.98,2972.67 3717.74,2899.56C3675.09,2785.05 3625.07,2651.19 3575.14,2526.15C3539.72,2437.47 3505.54,2352.86 3471.07,2284.15C3442.26,2226.71 3414.28,2180.87 3388.19,2152.67C3375.73,2139.21 3367.55,2126.76 3355.94,2128.31C3327.41,2133.77 3297.33,2154.09 3267.59,2180.81C3207.24,2235.01 3154.45,2318.77 3107.39,2367.19C3100,2374.79 3092.24,2380.06 3085.17,2385.72C3078.93,2393.29 3067.72,2394.38 3060.14,2388.14C3052.57,2381.9 3051.48,2370.68 3057.72,2363.11C3060.25,2357.31 3061.69,2351.39 3065.16,2345.19C3069.49,2337.45 3075.75,2330.22 3081.63,2322.17C3114.82,2276.69 3157.9,2219.78 3202.32,2171.37C3248.3,2121.25 3297.55,2081.66 3343.49,2070.72C3370.93,2062.44 3403.53,2072.58 3437.29,2102.21C3487.23,2146.03 3542.28,2240.78 3596.02,2356.42C3623,2414.49 3649.59,2478.21 3674.36,2543.88C3710.51,2639.76 3743.65,2739.48 3771.75,2830.76C3798.37,2917.2 3820.71,2995.76 3836.76,3056.48C3845.04,3087.79 3852.89,3113.8 3856.11,3134.36C3856.82,3138.9 3857.21,3142.75 3856.79,3146.72C3856.33,3150.97 3855.06,3152.49 3854.07,3156.12Z" style="fill:#fff;"/>
            <path d="M3249.12,3180.03C3244.89,3178.43 3242.76,3173.7 3244.37,3169.47C3245.97,3165.24 3250.7,3163.11 3254.93,3164.72C3262.04,3159.4 3256.01,3156.53 3267.78,3153.64C3270.39,3152.99 3273.27,3154.72 3276.4,3155.31C3289.5,3157.79 3306.47,3159.31 3324.85,3162.55C3362.85,3169.25 3406.67,3179.2 3435.26,3179.96C3483.44,3182.42 3507.82,3170.98 3519.06,3144.51C3531.97,3114.13 3530.93,3071.84 3535.5,3024.13C3538.41,2981.89 3539.28,2940.77 3541.84,2899.91C3545.72,2838.2 3548.91,2777.29 3552.75,2714.59C3553.1,2708.84 3552.49,2702.87 3554.43,2697.41C3557.19,2689.65 3561.4,2687.14 3565.97,2680.22C3565.97,2669.28 3574.84,2660.41 3585.78,2660.41C3596.71,2660.41 3605.59,2669.28 3605.59,2680.22C3610.52,2688 3615.22,2691.21 3617.87,2699.96C3618.7,2702.67 3618.07,2705.61 3618.13,2708.43C3618.95,2746.57 3619.03,2784.05 3617.2,2821.36C3615.47,2856.53 3612.44,2891.54 3607.97,2926.7C3603.58,2961.2 3597.2,2995.57 3590.89,3030.85C3585.14,3065.41 3580.62,3096.93 3575.11,3124.07C3569.6,3151.18 3562.39,3174.3 3548.56,3192.33C3527.99,3219.13 3494.07,3236.18 3433.95,3236.35C3399.14,3235.36 3342.64,3226.97 3299.51,3214.3C3281.84,3209.11 3266.41,3203.71 3255.76,3197.95C3254.57,3197.31 3253.3,3196.95 3252.61,3195.91C3245.72,3185.51 3250.56,3189.39 3249.12,3180.03Z" style="fill:#fff;"/>
            <path d="M2838.91,3096.43C2839.89,3096.89 2842.08,3097.4 2843,3098.72C2853.97,3114.51 2876.31,3149.89 2879.3,3152.84L2904.54,3177.83C2940.45,3208.53 2998.42,3225.26 3053.88,3223.18C3105.43,3221.26 3155.61,3202.61 3180.82,3158.28C3200.86,3123.18 3187.49,3043.84 3166.83,2949.74C3144.92,2850 3109.56,2735.75 3079.65,2635.96C3052.77,2546.28 3030.37,2468.1 3019.5,2423.76C3010.14,2384.56 3015.17,2342.51 3010.66,2302.43C3009.14,2288.9 3006.47,2275.6 3000.5,2262.99C2965.89,2191.66 2932.56,2162.55 2894.8,2164.95C2828.17,2169.19 2762.44,2252.52 2699.36,2323.41C2665.62,2361.1 2627.77,2393.68 2597.05,2431.47C2578.22,2454.66 2561.66,2479.59 2552.32,2510.72C2551.52,2512.63 2546.74,2516.01 2548.95,2517.47C2550.92,2518.77 2546.44,2517.11 2544.58,2515.08C2546.82,2521.62 2543.92,2528.98 2537.57,2532.16C2530.63,2535.63 2522.19,2532.81 2518.73,2525.88C2513.49,2524.74 2516.1,2522.19 2513.06,2517.41C2510.16,2512.83 2514.03,2505.41 2514.4,2500.83C2522.78,2463.14 2539.21,2431.51 2560.3,2402.98C2589.79,2363.09 2628.67,2329.88 2662.32,2290.86C2734.03,2208.24 2814.26,2118.63 2890.97,2112.36C2944.23,2108 3000.33,2137.91 3051.58,2237.45C3061.12,2255.55 3066.23,2274.75 3069.37,2294.46C3075.28,2331.59 3071.86,2371.05 3082.36,2407.12C3094.71,2450.54 3122,2526.21 3149.56,2614.59C3181.17,2715.98 3213.38,2833.66 3233.64,2935.78C3256.44,3050.64 3259.89,3147.79 3234.43,3189.82C3197.13,3251.17 3127.79,3279.63 3055.15,3280.15C2985.7,3280.65 2914.26,3256.15 2870.55,3216.35L2840.94,3185.12C2837.99,3180.86 2810.79,3135.12 2808.69,3111.49C2808.05,3104.29 2807.69,3099.78 2809.56,3096.73C2811.38,3093.75 2809.72,3091.46 2811.88,3090.38C2818.56,3087.01 2817.33,3078.79 2823.11,3082.91C2824.61,3083.98 2825.7,3082.08 2827.44,3083.67C2829.1,3085.19 2832.72,3085.39 2835.53,3089.91C2837.67,3091.51 2838.84,3093.94 2838.91,3096.43ZM2828.2,3104.81C2827.22,3104.54 2826.27,3104.08 2825.4,3103.43C2825.22,3103.35 2825.02,3103.32 2824.82,3103.31C2826,3104.45 2827.47,3106.06 2827.95,3105.18C2828.03,3105.05 2828.11,3104.92 2828.2,3104.81Z" style="fill:#fff;"/>
            <path d="M2402.97,3255.17C2407.45,3271.72 2445.74,3306.14 2453.79,3313.66C2472.82,3331.84 2492.4,3350.36 2511.97,3368.24C2540.74,3394.53 2569.86,3418.77 2602.28,3431.39C2634.64,3444 2669.97,3444.35 2710.16,3423.28C2724.83,3415.63 2741.84,3404.75 2756.16,3391.45C2768.41,3380.06 2779.06,3367.08 2782.47,3352.41C2790.6,3317.41 2798.94,3273.4 2801.17,3231.1C2802.61,3203.66 2801.58,3176.98 2795.72,3154.39C2786.06,3117.13 2770.62,3080.48 2752.25,3044.32C2708.72,2958.67 2649.09,2875.82 2606.38,2795.11C2577.07,2739.67 2560.61,2639.23 2520.84,2577.27C2497.86,2541.49 2465.34,2521.61 2412.64,2542.48C2402.87,2546.35 2390.97,2555.74 2378.42,2566.97C2353.63,2589.14 2330.37,2620.97 2315.43,2641.69C2314.33,2643.22 2313.18,2644.35 2311.72,2645.28C2307.6,2647.91 2307.31,2645.6 2303.2,2647.13C2301.37,2652.62 2295.42,2655.59 2289.92,2653.76C2284.43,2651.93 2281.45,2645.98 2283.29,2640.49C2280.41,2635.81 2279.46,2636.33 2278.72,2630.16C2278.41,2627.6 2279.94,2625.14 2280.93,2622.49C2286.57,2607.32 2298.48,2590.14 2311.82,2573.19C2337.78,2540.21 2372.78,2510.25 2395.99,2500.87C2455.26,2476.92 2497.73,2488.66 2530.23,2517.61C2591.53,2572.24 2611.87,2704.86 2648.38,2772.72C2691.75,2853.39 2752.12,2936.11 2796.32,3021.75C2816.61,3061.08 2833.54,3101.03 2844.33,3141.63C2851.52,3168.69 2853.4,3200.67 2851.87,3233.62C2849.75,3279.02 2841.2,3326.32 2832.7,3363.92C2828.21,3383.76 2816.92,3402.51 2801.85,3419.01C2782.33,3440.38 2756.41,3457.97 2734.48,3469.58C2678.14,3499.24 2628.34,3498.28 2583.05,3480.29C2544.82,3465.11 2509.3,3437.53 2476.85,3404.81C2457.74,3385.53 2439.99,3364.33 2422.12,3344.15C2411.22,3331.55 2371.99,3277.66 2372.31,3255.28C2372.55,3239.08 2376.76,3230.33 2386.14,3231.25C2390.24,3231.66 2394.12,3231.31 2401.84,3236.64C2403.37,3237.7 2405.55,3238.1 2407.76,3239.14C2411.91,3241.36 2413.48,3246.54 2411.26,3250.69C2409.6,3253.8 2406.28,3255.47 2402.97,3255.17Z" style="fill:#fff;"/>
            <path d="M2238.81,2681.45C2243.03,2683.06 2245.16,2687.79 2243.55,2692.02C2241.95,2696.24 2237.21,2698.37 2232.99,2696.76C2229.45,2697.66 2229.99,2701.24 2226.95,2702.58C2224.98,2703.44 2223.59,2705.05 2221.68,2706.51C2212.03,2713.9 2204.25,2728.72 2197.43,2746.03C2186.2,2774.49 2180.15,2809.5 2179.28,2834.27C2179.13,2838.61 2179.25,2842.57 2178.91,2846.09C2178.63,2849.08 2176.4,2850.66 2176.29,2853.03C2179.22,2861.1 2175.05,2870.04 2166.98,2872.97C2158.91,2875.91 2149.97,2871.74 2147.04,2863.66C2143.99,2860.36 2142.01,2856.8 2139.95,2851.48C2138.04,2846.53 2138.05,2840.38 2137.96,2833.87C2137.52,2804.82 2147.69,2763.83 2162.55,2731.22C2173.71,2706.75 2187.81,2686.32 2203.29,2678.01C2210.69,2674.04 2218.45,2670.04 2225.58,2672.43C2231.59,2674.45 2234.89,2675.68 2238.81,2681.45Z" style="fill:#fff;"/>
            <path d="M1780.24,3268.27C1780.32,3272.79 1776.72,3276.53 1772.2,3276.6C1767.68,3276.68 1763.95,3273.08 1763.87,3268.56C1759.88,3252.55 1754.24,3238.98 1751.2,3223.98C1743.62,3186.54 1742.63,3151.03 1744.41,3114.19C1746.02,3081.02 1753,3046.58 1769.55,3007.47C1793.42,2954.85 1851.19,2876 1918.68,2833C1971.13,2799.59 2029.11,2787.82 2082.78,2816.16C2182.32,2869.03 2327.64,3125.51 2367.24,3340.97C2400.13,3519.89 2359.82,3667.31 2191.16,3666.17C2158.68,3665.22 2108.9,3666.43 2069.39,3654.9C2053.05,3650.13 2036.99,3644.89 2026.61,3634.12C2024.36,3631.79 2021.47,3629.95 2021.07,3626.79C2020.38,3621.45 2020.88,3624.9 2022.6,3619.83C2018.34,3615.57 2018.34,3608.66 2022.6,3604.4C2026.86,3600.14 2033.77,3600.14 2038.02,3604.4C2042.83,3602.87 2039.3,3601.01 2044.35,3601.48C2047.74,3601.79 2050.59,3603.83 2053.79,3605.32C2069.64,3612.7 2089.14,3616.9 2109.68,3618.33C2138.95,3620.35 2169.23,3618.13 2191.16,3617.51C2325.07,3616.6 2341.4,3492.78 2314.23,3350.92C2276.25,3152.64 2148.92,2913.16 2057.11,2864.58C2021.27,2845.51 1982.97,2856.9 1947.71,2878.97C1888.77,2915.87 1837.71,2983.62 1816.37,3029.08C1800.25,3061.23 1792.52,3089.95 1789.27,3117.88C1785.25,3152.36 1790.8,3185.52 1788.58,3221.4C1787.6,3237.09 1783.76,3251.69 1780.24,3268.27Z" style="fill:#fff;"/>
            <path d="M1752.92,3543.48C1753.53,3543.71 1754.32,3544.06 1754.32,3544.37C1754.34,3547.79 1756.73,3546.7 1759.24,3546.46C1757.52,3546.11 1755.9,3545.2 1754.67,3543.76C1751.73,3540.33 1752.13,3535.16 1755.56,3532.22C1755.9,3529.55 1758.33,3530.63 1759.26,3529.13C1762.85,3523.32 1765.02,3529.13 1771.86,3532.64C1775.94,3534.74 1778.77,3550.91 1782.55,3557.87L1811.06,3629.62C1827.28,3666.3 1846.55,3701.72 1866.03,3737.21C1885.7,3773.07 1905.66,3808.77 1925.88,3843.8C1941.66,3871.59 1959.88,3898.14 1978.38,3924.76C2022.64,3988.48 2071.56,4050.5 2113.03,4115.76C2139.83,4157.94 2163.03,4201.69 2180.39,4247.8C2191.65,4278.88 2197.75,4312.02 2202.7,4345.78C2209.66,4393.12 2214.09,4441.64 2222.16,4486.74C2231.74,4541.63 2244.73,4596.37 2258.17,4651.03C2271.71,4706.11 2285.68,4761.08 2299.56,4815.46C2301.98,4824.04 2296.98,4832.97 2288.41,4835.39C2279.83,4837.8 2270.91,4832.81 2268.49,4824.23C2248.49,4759.63 2227.13,4694.53 2209.28,4628.61C2197.28,4584.26 2187.16,4539.51 2178.59,4494.81C2168.56,4442.43 2165.86,4384.84 2152.96,4331.03C2147.7,4309.08 2139.93,4288.17 2130.49,4268.27C2111.99,4226.69 2087.44,4188.14 2061.15,4150.18C2017.32,4086.91 1966.78,4026.63 1923.07,3962.96C1903.43,3934.35 1885.65,3904.77 1869.73,3874.49C1847.07,3830.59 1823.45,3786.36 1803.45,3740.63C1789.9,3709.66 1778.27,3678.11 1767.95,3646.22C1762.97,3630.48 1758.12,3614.6 1754.59,3598.34C1752.22,3587.39 1750.42,3576.47 1748.98,3565.43C1748.73,3561.95 1748.13,3556.98 1749.17,3552.04C1749.87,3548.7 1754.04,3544.58 1752.92,3543.48ZM1761.45,3546.61C1761.86,3546.73 1762.25,3546.93 1762.61,3547.22C1763.29,3547.76 1763.51,3546.88 1764.03,3546C1763.2,3546.35 1762.33,3546.55 1761.45,3546.61ZM1752.92,3543.48C1752.36,3543.26 1751.94,3543.14 1752.42,3543.24C1752.64,3543.29 1752.81,3543.37 1752.92,3543.48Z" style="fill:#fff;"/>
            <path d="M2270.44,5275.85C2270.85,5271.35 2274.84,5268.03 2279.34,5268.44C2283.84,5268.85 2287.16,5272.84 2286.75,5277.34C2301.89,5293.98 2282.55,5297.09 2281.11,5299.69C2278.62,5304.17 2275.55,5297.02 2270.5,5299.17C2268.65,5299.96 2268.81,5296.68 2266.45,5296.99C2263.6,5297.38 2265.62,5292.46 2260.51,5290.91C2256.96,5289.84 2256.84,5289 2250.75,5281.98C2249.77,5280.85 2249.67,5279.1 2249.09,5277.39C2245.84,5267.83 2241.99,5253.32 2239.46,5239.01C2236.35,5221.51 2235.61,5204.85 2235.22,5201.61C2229.78,5151.9 2224.52,5110.97 2228.53,5070.53C2231.14,5044.23 2233.1,5016.23 2248.21,4990.76C2249.46,4988.66 2250.38,4986.76 2252.55,4985.55C2255.98,4983.65 2254.05,4985.16 2257.94,4984.52C2261.3,4974.45 2272.2,4968.99 2282.27,4972.35C2292.35,4975.71 2297.8,4986.61 2294.44,4996.69C2297.38,4999.43 2296.54,4996.36 2298.18,5000.01C2299.4,5002.73 2298.91,5005.44 2298.62,5008.34C2295.42,5039.43 2289.87,5065.97 2290.01,5094.21C2290.16,5125.29 2292.28,5157.51 2295.96,5195.3C2296.25,5198.99 2298.69,5219.89 2299.22,5240.18C2299.51,5251.1 2300.18,5261.66 2298.66,5269.06C2297.85,5273.03 2292.28,5274.86 2294.37,5275.78C2295.73,5276.38 2291.63,5276.09 2291.92,5275.26C2292.83,5272.59 2288.59,5273.57 2288.61,5271.84C2288.64,5269.67 2285.71,5271.15 2285.29,5269.45C2283.64,5262.74 2277.97,5270.97 2272.85,5267.93C2269.54,5265.96 2270.52,5272.79 2264.96,5273.21C2263.29,5273.34 2261.75,5275.21 2263.41,5278.42C2264.42,5280.39 2266.15,5279.06 2270.44,5275.85Z" style="fill:#fff;"/>
            <path d="M2708.47,4052.96C2710.82,4056.83 2709.58,4061.87 2705.71,4064.21C2701.85,4066.55 2696.81,4065.32 2694.47,4061.45C2687.86,4060.38 2689.04,4058.49 2683.88,4053.67C2681.89,4051.81 2682.22,4049.32 2681.34,4046.5C2678.5,4037.43 2681.7,4025.91 2685.97,4013.33C2696.09,3983.54 2724.61,3949.92 2731.89,3939.09C2846.37,3789.22 3021.16,3608.76 3215.23,3477.96C3292.73,3425.72 3373.43,3381.5 3453.9,3350.09C3494.87,3334.1 3535.53,3319.9 3576.35,3313.02C3594.97,3309.88 3613.2,3309.07 3631.55,3308.36C3644.8,3306.15 3657.35,3315.11 3659.55,3328.36C3661.76,3341.61 3652.8,3354.15 3639.55,3356.36C3624.35,3361.03 3609.92,3367.29 3594.42,3372.43C3560.28,3383.75 3525.02,3394.97 3489.88,3409.66C3381.09,3455.11 3271.54,3523.36 3168.24,3601.37C3014.27,3717.64 2873.82,3854.7 2777.27,3974.61C2769.29,3983.42 2741.43,4012.01 2725.84,4035.43C2722.69,4040.16 2719.32,4043.45 2717.19,4047.12C2714.61,4051.55 2709.14,4048.62 2708.47,4052.96Z" style="fill:#fff;"/>
            <path d="M2759.94,4837.62C2759.83,4834.03 2761.16,4829.67 2765,4824.58C2770.69,4817.06 2782.97,4809.4 2795.8,4800.98C2816.91,4787.12 2841.62,4776.1 2850.93,4772.54C2889.62,4758.7 2928.53,4745.55 2968.46,4736.36C2995.11,4730.22 3022.15,4726.3 3049.3,4722.51C3062.83,4719.96 3075.89,4728.87 3078.44,4742.4C3080.99,4755.94 3072.08,4768.99 3058.55,4771.55L2869.32,4825.21C2860.99,4827.85 2840.39,4839.64 2819.7,4847.59C2804.86,4853.3 2790.88,4859.3 2781.12,4858.86C2751.22,4857.52 2750.9,4843.25 2756.01,4841.48C2756.87,4839.71 2758.29,4838.39 2759.94,4837.62Z" style="fill:#fff;"/>
            <path d="M2191.63,3493.78C2191.43,3493.09 2191.74,3491.7 2191.08,3492.17C2188.32,3494.16 2179.6,3487.54 2184.24,3488.68C2185,3488.86 2182.84,3487.61 2183.13,3486.66C2184.07,3483.6 2183.66,3479.79 2185.02,3475.55C2186.66,3470.42 2188.39,3464.83 2190.97,3460.3C2198.5,3447.11 2207.2,3439.51 2208.22,3439.12C2215.69,3433.52 2226.3,3435.04 2231.9,3442.5C2236.2,3448.24 2236.3,3455.85 2232.72,3461.6C2232.44,3461.74 2232.25,3462.05 2232.13,3462.48C2231.2,3463.78 2230.08,3464.97 2228.75,3466C2229.31,3465.64 2230.69,3464.96 2231.95,3464.23C2231.91,3467.78 2232.98,3474.11 2231.13,3479.13C2227.21,3489.79 2219.27,3500.87 2211.74,3506.13C2206.68,3509.67 2203.91,3512.32 2199.87,3512.43C2197.98,3512.49 2197.09,3514.19 2195.59,3513.52C2187.63,3509.99 2183.98,3516.47 2183.55,3508.02C2179.72,3505.63 2178.54,3500.57 2180.93,3496.74C2183.2,3493.09 2187.88,3491.85 2191.63,3493.78ZM2232.72,3461.6C2232.9,3461.5 2233.12,3461.47 2233.39,3461.51C2235.58,3461.84 2233.91,3463.1 2231.95,3464.23C2231.96,3463.53 2232.01,3462.93 2232.13,3462.48C2232.34,3462.19 2232.53,3461.89 2232.72,3461.6Z" style="fill:#fff;"/>
            <path d="M2643.82,3279.87C2640.12,3279.68 2637.58,3278.95 2637.91,3276.52C2638.1,3275.14 2639.67,3278.72 2640.63,3278.59C2642.91,3278.28 2643.7,3278.88 2643.82,3279.87ZM2636.32,3297.16C2638.71,3299.31 2642.65,3303.25 2639.76,3300.12C2638.17,3298.39 2643.01,3301.86 2641.73,3300.23C2640.32,3298.47 2645.29,3299.19 2643.95,3297.92C2639.97,3294.12 2649.97,3291.77 2645.41,3290.66C2642.98,3290.07 2647.29,3287.13 2644.76,3287.13C2640.48,3287.12 2644.13,3282.3 2643.82,3279.87C2650.34,3280.21 2660.47,3278.87 2665.01,3282.07C2666.78,3283.32 2668.59,3283.53 2669.13,3285.43C2672.18,3296.11 2674.93,3288.81 2671.54,3297.65C2675.69,3301.8 2675.69,3308.54 2671.54,3312.68C2667.96,3316.26 2662.46,3316.76 2658.35,3314.16C2658.55,3318.07 2652.84,3327.63 2651.69,3321.95C2650.14,3314.33 2632.8,3321.3 2627.16,3319.19C2624.6,3318.23 2621.88,3318.05 2620.87,3316.25C2617.49,3310.26 2612.66,3313.2 2614.26,3308.33C2616.28,3302.21 2607.35,3304.34 2611.62,3300.12C2613.32,3298.45 2609.55,3297.95 2611.56,3296.56C2613.12,3295.48 2610.25,3294.61 2612.04,3293.71C2614.32,3292.57 2610.84,3290.62 2613.62,3289.87C2615.06,3289.48 2613.42,3287.84 2615.08,3287.86C2624.45,3287.99 2611.3,3281.5 2623.31,3287.21C2626.2,3283.74 2631.37,3283.25 2634.85,3286.14C2638.16,3288.88 2638.75,3293.7 2636.32,3297.16Z" style="fill:#fff;"/>
            <path d="M2644.54,3297.12C2634.5,3290.51 2630.71,3279.25 2631.09,3267.78C2631.66,3250.42 2651.47,3230.76 2687.8,3227C2707.03,3226.16 2716.32,3234.47 2720.87,3241.68C2725.71,3249.37 2727.39,3259.9 2722.4,3271.71C2716.76,3285.09 2700.18,3306.92 2683.68,3312.31C2675.43,3315 2669.79,3316.07 2664.74,3314.49C2655.07,3315.88 2646.1,3309.15 2644.72,3299.48C2644.61,3298.68 2644.55,3297.9 2644.54,3297.12ZM2677.83,3259.48C2680.42,3256.99 2681.48,3254.95 2679.1,3254.01C2676.25,3252.88 2676.61,3255.97 2677.83,3259.48ZM2688.8,3273.61C2688.99,3273.62 2689.2,3273.62 2689.41,3273.62C2689.2,3273.61 2689,3273.61 2688.8,3273.61ZM2671.06,3276.85C2671.14,3277.06 2671.31,3277.29 2671.57,3277.53C2672.13,3278.03 2671.76,3277.53 2671.06,3276.85Z" style="fill:#fff;"/>
            <path d="M2992.35,3094.84C2989.41,3092.61 2979.81,3076.87 2992.78,3085.85C2994.48,3087.02 2995.14,3082.84 2998.16,3081.33C3004.38,3078.21 3012.99,3071.53 3021.35,3071.8C3026.55,3071.97 3024.2,3076.6 3028.3,3078.3C3037.12,3073.89 3047.86,3077.47 3052.26,3086.29C3056.67,3095.1 3053.09,3105.84 3044.28,3110.25C3042.88,3116.6 3043.86,3117.2 3038.02,3122.04C3033.1,3126.11 3024.85,3124.63 3018,3124.45C3010.78,3124.27 3004.24,3124.42 2999.5,3122.63C2996.9,3121.66 2995.73,3121.34 2994.55,3119.86C2981.63,3103.59 2988.78,3113.12 2988.69,3110.79C2984.34,3109.58 2981.78,3105.07 2982.99,3100.71C2984.13,3096.6 2988.22,3094.09 2992.35,3094.84Z" style="fill:#fff;"/>
            <path d="M3355.37,3087.19C3354.49,3084.86 3355.03,3081.72 3355.97,3077.95C3356.9,3074.21 3361.14,3065.26 3371.85,3054.69C3385.06,3041.66 3407.47,3030.68 3419.58,3026.57C3437.58,3020.44 3449.22,3030.74 3452.77,3036.1C3455.82,3040.71 3461.77,3056.24 3443.39,3074.96C3433.54,3084.75 3423.68,3094.4 3412.91,3102.74C3404.95,3108.89 3396.52,3114.37 3387.36,3118.85C3375.38,3124.69 3367.16,3120.61 3362.6,3117.34C3357.04,3113.36 3350.12,3105.37 3353.35,3092.08C3353.68,3090.74 3354.37,3089.07 3355.37,3087.19ZM3408.82,3044.3C3409.47,3043.65 3410.12,3042.99 3410.77,3042.34C3411.9,3041.23 3414.07,3040.18 3413.33,3039.64C3408.91,3036.39 3408.12,3039.51 3408.82,3044.3ZM3421.84,3068.91C3427.07,3073.49 3432.77,3077.05 3431.49,3070.67C3430.76,3067.02 3427.03,3067.09 3421.84,3068.91ZM3400.62,3100.69C3400.21,3100.76 3399.81,3100.81 3399.39,3100.85C3399.35,3100.92 3399.31,3100.99 3399.27,3101.07C3399.98,3101.08 3400.58,3101.01 3400.62,3100.69Z" style="fill:#fff;"/>
        </g>
    </g>
</svg>
