<?xml version="1.0" encoding="UTF-8" standalone="no"?>
<!DOCTYPE svg PUBLIC "-//W3C//DTD SVG 1.1//EN" "http://www.w3.org/Graphics/SVG/1.1/DTD/svg11.dtd">
<svg width="100%" height="100%" viewBox="0 0 5906 5906" version="1.1" xmlns="http://www.w3.org/2000/svg" xmlns:xlink="http://www.w3.org/1999/xlink" xml:space="preserve" xmlns:serif="http://www.serif.com/" style="fill-rule:evenodd;clip-rule:evenodd;stroke-linejoin:round;stroke-miterlimit:2;">
    <g id="Thumb">
        <g id="Layer2">
            <path d="M3538.03,5367.68C3538.18,5368.14 3538.08,5368.35 3537.42,5367.87C3537.22,5367.73 3537.57,5367.76 3538.03,5367.68ZM3538.03,5367.68C3537.77,5366.93 3536.83,5365.51 3536.38,5365.22C3535.89,5364.9 3533.99,5365.27 3531.38,5365.99C3531.38,5366.17 3531.38,5366.35 3531.38,5366.54C3558.97,5385.65 3512.67,5376.61 3509.42,5375.36C3508.92,5375.16 3508.79,5374.44 3508.07,5372.66C3506.95,5372.72 3506.64,5372.37 3507.53,5371.43C3507.15,5370.59 3506.66,5369.6 3506,5368.41C3502.68,5362.44 3499.8,5346 3497.83,5330.02C3496.44,5318.82 3497.37,5308.13 3498.02,5301.34C3499.81,5286.4 3502.14,5271.6 3505.66,5256.93C3510.81,5235.49 3518.35,5214.66 3525.74,5193.97C3546.49,5136.24 3584.68,5016.28 3639.37,4935.05C3658.79,4906.21 3679.95,4881.23 3703.5,4865.91C3707.35,4863.41 3711.05,4860.74 3715.25,4859.32C3726.85,4855.43 3736.58,4853.59 3748,4854.11C3761.24,4849.98 3775.36,4857.37 3779.5,4870.61C3783.64,4883.86 3776.24,4897.97 3763,4902.11C3756.2,4906.84 3753.87,4914.8 3747.27,4921C3724.55,4942.35 3699.39,4970.49 3678.72,5006.01C3636.19,5079.14 3602.99,5169.26 3584.42,5216.12L3551.39,5311.67C3546.54,5324.53 3542.81,5357.76 3539.31,5366.75C3539.07,5367.39 3538.49,5367.59 3538.03,5367.68Z" style="fill:#fff;"/>
            <path d="M3816.07,4683.63C3820.44,4684.79 3823.05,4689.27 3821.9,4693.64C3820.75,4698.01 3816.26,4700.62 3811.89,4699.47C3805.48,4700.74 3801.3,4696.98 3795.24,4691.41C3789.44,4686.09 3786.43,4675.89 3783.6,4664.19C3776.39,4634.47 3779.48,4591.08 3779.44,4582.35C3782.56,4529.32 3789.48,4476.63 3801.15,4424.73C3827.93,4305.63 3876.75,4190.75 3936.87,4081.74C4022.34,3926.78 4133.24,3784.29 4248.81,3661.28C4318.07,3587.68 4396.19,3516.25 4483.35,3460.96C4506.94,3445.99 4530.96,3431.69 4556.14,3419.91C4581.56,3408.01 4607.29,3395.99 4634.8,3390.53C4649.21,3387.66 4662.79,3387.83 4677.52,3387.36C4686.59,3384.82 4696.01,3390.12 4698.55,3399.18C4701.08,3408.25 4695.78,3417.67 4686.72,3420.21C4676.26,3426.5 4668,3433.83 4657.26,3439.54C4653,3441.81 4648.35,3443.18 4643.91,3445.06C4620.27,3455.1 4597.7,3467.24 4575.08,3479.52C4541.18,3497.92 4507.8,3517.65 4476.16,3540.22C4409.25,3587.94 4348.26,3644.79 4293.09,3703.07C4180.26,3822.08 4071.89,3960.03 3988.05,4110.15C3929.91,4214.26 3884.74,4324.51 3855.95,4437.85C3843.51,4486.82 3833.43,4536.22 3828.01,4586.4L3816.07,4683.63Z" style="fill:#fff;"/>
            <path d="M4828.4,3287.1C4828.23,3287.34 4828.05,3287.58 4827.85,3287.81C4824.86,3291.2 4819.68,3291.53 4816.29,3288.55C4816.45,3288.53 4796.01,3263.05 4815.28,3267.23C4819.31,3268.1 4818.89,3258.78 4822.59,3253.26C4839.19,3228.44 4874.4,3191.53 4877.58,3187.55C4883.82,3180.47 4909.98,3148.82 4946.32,3105.45C4991.2,3051.87 5050.79,2979.88 5103.73,2911.05C5148.12,2853.31 5188.31,2798.37 5208.56,2757.2C5212.71,2748.75 5215.31,2740.76 5218.44,2734.15C5221.05,2728.63 5225.31,2725.78 5226.71,2721.42C5226.71,2711.92 5234.42,2704.21 5243.92,2704.21C5253.42,2704.21 5261.13,2711.92 5261.13,2721.42C5263.41,2728.32 5264.43,2735.59 5263.65,2745.09C5260.65,2781.87 5226.44,2836.67 5185.84,2896.54C5131.85,2976.14 5058.56,3064.48 5001.83,3129.35C4957.81,3179.69 4923.07,3215.35 4915.69,3222.94C4911.85,3226.5 4874.27,3263.67 4849.88,3281.3C4846.74,3283.57 4844.09,3285.43 4841.21,3286.34C4833.48,3288.78 4829.54,3290.01 4828.5,3287.35C4828.47,3287.27 4828.43,3287.18 4828.4,3287.1Z" style="fill:#fff;"/>
            <path d="M4573.95,2948.42C4573.12,2952.86 4568.84,2955.79 4564.39,2954.95C4559.95,2954.12 4557.02,2949.84 4557.86,2945.39C4556.39,2936.4 4556.27,2928.95 4557.65,2920.15C4558.94,2911.9 4562.46,2904.45 4566.4,2896.97C4582.47,2866.47 4613.1,2842.93 4635.72,2819.33C4743.1,2714.64 4906.96,2623.93 5069.75,2606.56C5149.54,2598.04 5229.68,2605.9 5301.97,2639.6C5323.34,2649.56 5345.66,2659.91 5363.43,2676.78C5371.24,2684.19 5376.55,2692.43 5382.9,2701.44C5392.34,2709.08 5393.8,2722.94 5386.16,2732.38C5378.52,2741.82 5364.66,2743.27 5355.22,2735.64C5345.53,2731.23 5336.1,2729.21 5326.77,2724.68C5313.55,2718.27 5301.42,2710.42 5288.59,2704.17C5199.66,2660.88 5099.72,2656.58 5001.71,2678.66C4875.91,2706.99 4754.39,2775.56 4669.04,2854.4C4652.43,2868.79 4632.77,2883.28 4615.78,2899.87C4608.13,2907.33 4601.87,2915.76 4595.11,2923.61C4587.65,2932.26 4579.32,2938.11 4573.95,2948.42Z" style="fill:#fff;"/>
            <path d="M3914.81,3177.68C3914.99,3178.5 3915.04,3179.37 3914.95,3180.24C3914.47,3184.74 3910.43,3188 3905.94,3187.53C3879.08,3187.55 3874.71,3172.87 3876.28,3166.46C3877.55,3161.28 3883.97,3151.96 3901.22,3142.06C3916.65,3133.2 3942.53,3127.11 3973.14,3118.77C4006.19,3109.76 4045.8,3100.12 4088.2,3091.56C4180.34,3072.97 4284.88,3056.82 4359.09,3047.05C4392.65,3042.63 4419.99,3038.35 4437.38,3038.63C4443.69,3038.73 4448.41,3039.14 4451.87,3040.47C4457.38,3042.58 4458.41,3043.52 4459.86,3044.72C4468.16,3044.72 4474.91,3051.47 4474.91,3059.77C4474.91,3068.07 4468.16,3074.81 4459.86,3074.81C4458.86,3075.68 4459.83,3077.66 4456.49,3079.9C4453.8,3081.72 4449.94,3083.15 4444.64,3084.74C4434.59,3087.76 4420.36,3090.34 4403.09,3093.51C4331.65,3106.62 4208.47,3126.55 4100.61,3144.88C4052.57,3153.04 4007.49,3159.75 3971.48,3166.48C3951,3170.31 3933.78,3174.93 3920.17,3177.03C3918.29,3177.32 3916.5,3177.53 3914.81,3177.68Z" style="fill:#fff;"/>
            <path d="M3825.17,3120.14C3823.2,3124.21 3818.3,3125.91 3814.23,3123.94C3810.17,3121.97 3808.46,3117.07 3810.43,3113C3811.83,3105.45 3804.83,3095.66 3799.41,3078.78C3792.25,3056.49 3784.5,3025.79 3771.6,2990.14C3764.93,2971.7 3757.2,2952.02 3749.46,2930.96C3723.46,2860.24 3692.38,2776.55 3658.55,2693.35C3584.92,2512.28 3504.02,2331.49 3475.96,2277.12C3462.95,2249.95 3433.45,2231.74 3417.38,2207.45C3415.09,2203.99 3412.21,2200.76 3411.06,2196.82C3409.05,2189.91 3408.51,2184.25 3409.41,2176.99C3406.65,2167.34 3412.25,2157.26 3421.9,2154.51C3431.55,2151.75 3441.63,2157.35 3444.39,2167C3447.27,2171.26 3452.03,2172.52 3455.45,2176.3C3470.9,2193.4 3490.59,2209.42 3507.13,2227.34C3514.05,2234.84 3520.03,2242.96 3524.94,2251.72C3562.57,2324.13 3695.77,2617.92 3777.7,2843.3C3788.34,2872.56 3798.41,2900.59 3806.44,2927.1C3822.25,2979.29 3833.69,3024.67 3836.78,3058.47C3837.83,3069.81 3838.18,3079.67 3836.94,3088.21C3834.61,3104.14 3830.77,3114.16 3825.17,3120.14Z" style="fill:#fff;"/>
            <path d="M3046.93,2350.05C3046.47,2349.87 3045.8,2349.64 3044.85,2349.36C3038.91,2347.62 3038.7,2340.86 3036.78,2335.24C3031.08,2318.63 3041.01,2298.12 3057.73,2278.01C3080.74,2250.34 3125.45,2223.25 3176.43,2199.09C3250.69,2163.9 3340.55,2135.96 3403.94,2129.88C3421.28,2128.22 3437.25,2126.38 3449.79,2129.99C3458.72,2132.55 3464.91,2135.83 3470.81,2140.29C3483.37,2144.05 3490.5,2157.3 3486.73,2169.86C3482.97,2182.41 3469.72,2189.55 3457.16,2185.78C3452.93,2186.05 3449.71,2189.49 3444.4,2190.03C3434.7,2191.01 3423.13,2190.47 3410.17,2191.83C3351.85,2197.96 3268.68,2220.17 3198.88,2249.41C3153.77,2268.32 3114.88,2289.99 3091.56,2310.74C3082.13,2319.13 3074.64,2325.09 3072.74,2333.35C3072.18,2335.79 3070.49,2336.95 3069.24,2339.24C3065.64,2345.88 3071.01,2337.3 3064.95,2341.95C3066.83,2346.05 3065.02,2350.92 3060.91,2352.8C3056.8,2354.68 3051.93,2352.87 3050.05,2348.76C3047.65,2349.26 3046.96,2349.72 3046.93,2350.05ZM3046.93,2350.05C3048.95,2350.82 3046.87,2350.64 3046.93,2350.05Z" style="fill:#fff;"/>
            <path d="M3287.35,3151.3C3287.84,3150.75 3288.33,3150.28 3288.66,3149.97C3288.43,3150.32 3290.44,3150.01 3291.11,3150.58C3298.2,3156.58 3310.46,3161.35 3324.35,3166.43C3343.53,3173.44 3366.14,3177.96 3385.95,3181.76C3398.33,3184.14 3408.88,3186.95 3417.65,3187.39C3420.31,3187.53 3421.56,3190.16 3423.76,3189.99C3432.29,3185.4 3442.94,3188.6 3447.53,3197.13C3452.13,3205.66 3448.93,3216.31 3440.4,3220.91C3437.52,3224.85 3434.02,3226.77 3429.06,3229.77C3418.6,3236.11 3402.64,3237.35 3385.23,3236.82C3362.3,3236.12 3336.08,3228.58 3313.37,3219.33C3285.52,3207.98 3261.24,3193.3 3253.41,3178.38C3246.83,3165.82 3243.83,3155.15 3249.58,3145.76C3256.99,3139.62 3254.95,3129.27 3262.83,3132.37C3264.18,3132.9 3265.11,3130.92 3266.47,3131.8C3268.81,3133.32 3274.04,3128.71 3276.64,3134.26C3277.19,3135.44 3279.9,3135.55 3281.05,3139.55C3281.86,3142.37 3285.16,3147.11 3287.35,3151.3ZM3268.02,3168.94C3267.56,3168.86 3267.09,3168.77 3266.62,3168.68C3267.12,3168.93 3267.58,3169.06 3268.02,3168.94ZM3288.66,3149.97C3288.68,3149.94 3288.7,3149.92 3288.74,3149.89C3288.79,3149.84 3288.85,3149.8 3288.89,3149.76C3288.83,3149.82 3288.75,3149.89 3288.66,3149.97ZM3288.89,3149.76C3289.14,3149.53 3289.2,3149.49 3288.89,3149.76Z" style="fill:#fff;"/>
            <path d="M3524.96,3224.83C3521.17,3227.29 3516.09,3226.22 3513.63,3222.43C3511.16,3218.64 3512.23,3213.57 3516.02,3211.1C3518.27,3206.45 3515.97,3202.64 3517.74,3196.33C3520.17,3187.68 3521.79,3177.77 3524.79,3165.29C3528.72,3148.99 3533.47,3129.86 3537.77,3108.01C3545.76,3067.36 3553.88,3018.61 3559.55,2966.77C3571.29,2859.52 3573.68,2740.02 3575.87,2657.12C3576.5,2633.17 3575.53,2612.27 3578.28,2595.87C3579.35,2589.49 3582.07,2585.55 3583.61,2580.48C3582.48,2569.81 3590.24,2560.23 3600.91,2559.11C3611.59,2557.98 3621.17,2565.74 3622.29,2576.41C3625.15,2582.17 3628.47,2587.27 3630.65,2595.02C3636.09,2614.39 3636.39,2640.37 3637.37,2669.84C3640.79,2772.15 3631.36,2921.41 3611.76,3039.57C3602.58,3094.88 3592.78,3144.61 3575.97,3177.9C3567.3,3195.08 3558.56,3208.85 3547.51,3216.19C3538.69,3222.04 3533.06,3224.29 3524.96,3224.83Z" style="fill:#fff;"/>
            <path d="M2915.83,3188.03C2921.48,3189.92 2926.44,3188.86 2932.72,3191.46C2938.63,3193.91 2943.6,3196.68 2948.67,3200.15C2977.75,3220.06 3002.73,3237.41 3030.33,3241.93C3066.86,3247.91 3103.35,3233.3 3140.82,3195.05C3153.9,3181.98 3167.92,3169.77 3178.66,3155.29C3184,3148.09 3188.45,3140.27 3190.86,3131.05C3207.05,3069.64 3198.1,2999.45 3177.52,2926.49C3130.16,2758.57 3020.99,2577.38 2972.36,2447.49C2960.51,2415.8 2953.05,2382.72 2946.36,2349.69C2944.5,2340.54 2941.4,2331.58 2941.24,2322.28C2941.15,2317.3 2943.07,2314.13 2943.81,2309.21C2940.06,2297.96 2946.15,2285.78 2957.39,2282.03C2968.64,2278.28 2980.82,2284.37 2984.57,2295.62C2988.38,2299.08 2991.3,2300.78 2994.13,2305.08C2997.39,2310.03 2998.29,2316.14 3000.03,2321.81C3010.59,2356.21 3015.84,2392.34 3029.07,2426.02C3079.18,2556.94 3190.58,2739.4 3239.49,2908.8C3264.03,2993.82 3272.84,3075.84 3254.32,3147.61C3249.7,3165.31 3241.59,3180.54 3231.36,3194.36C3218.74,3211.39 3202.6,3226.08 3187.23,3241.46C3130,3297.51 3072.72,3315.05 3018.61,3303.22C2981.61,3295.14 2941.73,3276.48 2912.32,3238.86C2908.01,3233.35 2904.14,3227.99 2901.66,3221.14C2898.64,3212.82 2900.91,3207.19 2897.35,3198.72C2896.12,3195.79 2893.53,3193.63 2891.64,3191C2874.79,3173.78 2891.09,3171.85 2900.74,3174.18C2902.17,3174.53 2905.36,3176.05 2907.84,3176.28C2913.23,3177.24 2916.83,3182.39 2915.88,3187.78C2915.87,3187.86 2915.85,3187.95 2915.83,3188.03Z" style="fill:#fff;"/>
            <path d="M2555.96,2508.11C2559.81,2510.49 2561,2515.54 2558.62,2519.38C2556.24,2523.23 2551.19,2524.42 2547.35,2522.04C2535.85,2518.72 2529.52,2511.07 2525.42,2501.05C2516.92,2480.26 2529.82,2445.1 2556.67,2407.78C2598.24,2349.99 2677.89,2284.22 2756.59,2241.13C2834.74,2198.34 2915.85,2178.99 2964.17,2208.75C2981.31,2219.31 2994.78,2235.18 3002.87,2257.15C3008.16,2267.72 3003.87,2280.6 2993.29,2285.89C2982.72,2291.18 2969.84,2286.89 2964.55,2276.31C2954.83,2259.92 2940.01,2253.07 2923.12,2249.9C2884.29,2242.62 2832.87,2258.68 2780.31,2285.77C2706.29,2323.92 2632.87,2384 2589.42,2433.77C2570.78,2455.11 2557.4,2473.25 2553.81,2488.59C2552,2496.29 2550.4,2502.79 2555.96,2508.11Z" style="fill:#fff;"/>
            <path d="M2373.35,2549.41C2376.09,2553.01 2375.39,2558.15 2371.8,2560.89C2368.2,2563.63 2363.06,2562.93 2360.32,2559.34C2326.33,2529.61 2345.01,2511.14 2377.53,2502.05C2416.37,2491.18 2493.98,2508.97 2505.38,2513.85C2562.57,2540.37 2601.36,2583.68 2629.6,2635C2657.14,2685.04 2676.12,2742.52 2689.07,2799.59C2692.86,2816.33 2696.9,2832.88 2698.41,2849.46C2699.1,2857.13 2698.28,2864.07 2698.31,2871.62C2701.14,2882.44 2694.64,2893.51 2683.82,2896.33C2673.01,2899.16 2661.93,2892.66 2659.11,2881.84C2655.38,2875.1 2651.36,2869.2 2648.32,2861.94C2641.87,2846.6 2637.93,2830.03 2633.42,2813.48C2619.19,2761.29 2606.96,2706.79 2582.91,2659.78C2561,2616.97 2530.9,2579.9 2484.7,2556.56C2476.72,2552.27 2426.27,2539.24 2392.58,2538.47C2386.09,2538.32 2380.4,2538.14 2375.92,2539.19C2373.91,2539.67 2372.16,2534.59 2372.16,2536.61C2372.14,2540.05 2371.41,2543.95 2373.35,2549.41Z" style="fill:#fff;"/>
            <path d="M2621.74,3406.97C2627.69,3401.64 2631.53,3396.19 2638.99,3391.28C2649.01,3384.69 2660.31,3380.47 2670.91,3374.17C2678.89,3369.44 2686.44,3364.08 2694.27,3358.86C2724.81,3338.51 2753.33,3313.45 2774.34,3283.67C2800.12,3247.14 2814.33,3204.81 2810.22,3161.29C2809.21,3150.7 2806.65,3140.24 2804.63,3129.19C2803.18,3121.26 2804.06,3113.77 2802.3,3105.44C2796.67,3094.75 2800.78,3081.51 2811.47,3075.89C2822.16,3070.26 2835.4,3074.37 2841.02,3085.06C2848.6,3093.01 2854.8,3100.33 2859.89,3109.42C2863.29,3115.49 2864.96,3122.24 2866.79,3128.75C2885.5,3195.38 2865.27,3264.05 2824.22,3319.56C2791.18,3364.23 2744.67,3402.51 2693.06,3421.96C2679.29,3427.15 2665.53,3432.9 2651.23,3432.78C2639.5,3432.69 2631.92,3429.53 2620.95,3426.19C2608.74,3428.59 2605.09,3418.65 2605.75,3414.47C2606.28,3411.08 2609.45,3405.38 2618.63,3406.06C2619.75,3406.17 2620.8,3406.48 2621.74,3406.97ZM2617.94,3422.89C2617.65,3422.89 2617.36,3422.88 2617.07,3422.86C2617.38,3422.89 2617.67,3422.9 2617.94,3422.89Z" style="fill:#fff;"/>
            <path d="M2243.97,2675.61C2250.97,2688.26 2248.75,2679.46 2248.39,2675.34C2248.33,2674.72 2254.05,2673.83 2250.84,2674.94C2248.88,2675.62 2253.28,2674.69 2252.57,2678.88C2251.57,2684.85 2238.99,2696.51 2237.53,2699.17C2222.98,2723.9 2216.87,2749.27 2216.88,2774.75C2216.88,2800.15 2223.99,2825.46 2236.1,2850.62C2268.19,2923.79 2317.85,3058.96 2380.38,3169.98C2412.63,3227.23 2448.73,3277.07 2487.11,3308.18C2494.47,3314.14 2502.08,3319 2509.05,3324.26C2512.45,3326.83 2514.28,3330.24 2517.52,3332.8C2531.18,3338.19 2537.89,3353.66 2532.5,3367.32C2527.11,3380.98 2511.64,3387.69 2497.98,3382.3C2491.24,3381.72 2485.22,3380.8 2478.59,3378.55C2465.46,3374.08 2453.8,3364.74 2441.93,3355.24C2411.14,3330.57 2382.94,3294.36 2356.73,3252.73C2280.41,3131.52 2223.02,2958.66 2187.29,2871.28C2174.98,2837.82 2169.2,2804.69 2172.57,2772.45C2175.92,2740.35 2187.19,2709.22 2209.02,2680.16C2211.35,2677.25 2224.06,2660.1 2231.34,2658.58C2241.35,2656.49 2238.32,2658.07 2239.05,2658.6C2241.63,2660.45 2240.85,2656.21 2241.84,2657.6C2243.66,2660.14 2244.46,2655.36 2245.08,2657.51C2246.06,2660.94 2249.19,2655.88 2248.78,2658.86C2248.18,2663.27 2255.46,2659.3 2252.37,2662.9C2249.91,2665.76 2261.03,2668.85 2252.82,2669.82C2251.63,2669.96 2254.44,2672.28 2251.77,2671.94C2251.03,2671.84 2252.49,2673.45 2249.68,2672.67C2248.2,2674.46 2246.12,2675.46 2243.97,2675.61Z" style="fill:#fff;"/>
            <path d="M1770.25,3210.91C1771.47,3211.15 1772.12,3211.23 1770.96,3211.2C1770.6,3211.18 1770.38,3211.08 1770.25,3210.91ZM1770.25,3210.91C1768.54,3210.58 1765.7,3209.95 1765.2,3208.96C1764.49,3207.55 1761.56,3209.4 1760.18,3210.14C1760.45,3211.14 1760.63,3213.63 1762.37,3213.68C1766.19,3211.27 1771.25,3212.42 1773.66,3216.24C1776.07,3220.06 1774.92,3225.12 1771.1,3227.53C1769.88,3228.3 1768.43,3228.53 1767.64,3229.43C1763.89,3233.72 1763.54,3233.24 1760.61,3236.12C1753.29,3243.36 1748.54,3235.52 1739.64,3229.91C1737.1,3228.3 1736.55,3224.64 1734.74,3221.21C1731.76,3215.57 1729.87,3207.4 1729.28,3196.87C1726.83,3153.13 1754.67,3066.49 1756.99,3051.7C1759.72,3034.73 1757.63,3014.61 1759.71,2996.31C1761,2985.01 1763.73,2974.31 1768.29,2964.63C1786.59,2926.96 1853.11,2857.36 1922.32,2809.02C1975.57,2771.83 2030.96,2748.76 2067.47,2754.11C2126.44,2762.81 2169.12,2801.67 2199.63,2856.6C2256.3,2958.57 2269.78,3118.6 2290.55,3197.25C2307.59,3262.78 2347.37,3323.26 2360.16,3390.18C2361.8,3398.79 2360.66,3406.26 2360.7,3414.98C2363.7,3423.54 2359.18,3432.92 2350.62,3435.92C2342.06,3438.91 2332.68,3434.4 2329.68,3425.84C2325.09,3420.56 2320.41,3417.21 2316.62,3411.29C2311.72,3403.65 2309.12,3394.76 2305.57,3386.35C2281.22,3328.8 2256.85,3270.27 2240.69,3210.58C2222.94,3144.99 2210.85,3020.72 2172.42,2924.42C2148.78,2865.18 2115.96,2815.94 2059.66,2807.9C2026.19,2803.08 1974.96,2836.17 1927.13,2873.53C1876.45,2913.12 1830.32,2960.12 1816.48,2988.2C1814.2,2992.7 1813.02,2997.79 1812.24,3003.11C1809.49,3022.09 1810.7,3043.08 1807.27,3060.65C1804.71,3073.5 1782.72,3141.94 1775.87,3186.67C1775.08,3191.83 1774.89,3196.67 1774.19,3200.9C1773.54,3204.82 1769.4,3209.68 1770.25,3210.91Z" style="fill:#fff;"/>
            <path d="M2071.49,3541.41C2069.77,3542.95 2067.51,3543.89 2065.03,3543.93C2059.55,3544.02 2055.02,3539.64 2054.93,3534.16C2054.56,3530.93 2055.23,3528.2 2054.69,3526.03C2053.35,3520.59 2054.58,3519 2054.13,3515.61C2053.77,3512.94 2056.42,3512.66 2056.77,3510.42C2057.94,3502.76 2064.67,3505.95 2071.95,3502.51C2076.24,3500.48 2081.52,3503.35 2088.91,3505.76C2096.19,3508.13 2105.06,3515.25 2114.52,3518.88C2124.03,3522.85 2133.93,3525.59 2143.78,3529.05C2182.15,3542.51 2222.81,3551.66 2260.72,3547.3C2304.81,3542.22 2344.04,3519.83 2364.61,3471.15C2369.28,3461.66 2376.13,3447.99 2376.64,3435.88C2376.72,3433.84 2380.75,3433.59 2380.28,3431.65C2373.34,3421.24 2376.16,3407.16 2386.56,3400.23C2396.96,3393.29 2411.04,3396.11 2417.98,3406.51C2423.97,3410.17 2426.2,3415.25 2429.58,3421.41C2432.19,3426.18 2431.91,3432.11 2432.32,3437.82C2433.7,3457.26 2426.32,3479.57 2420.73,3495C2396.3,3552.25 2354.55,3585.24 2305.6,3599.69C2250.82,3615.86 2185.41,3610.32 2128.53,3584.74C2115.09,3578.7 2102.58,3571.15 2090.47,3563.11C2083.55,3558.05 2076.89,3545.95 2071.49,3541.41ZM2074.78,3534.69C2075.76,3533.53 2076.93,3532.56 2078.49,3532.27C2079.35,3532.11 2078.16,3529.87 2077.53,3528.72C2077.14,3528.99 2075.05,3528.51 2074.58,3529.67C2074.12,3530.78 2074.67,3532.25 2074.81,3533.84C2074.81,3534.12 2074.8,3534.41 2074.78,3534.69Z" style="fill:#fff;"/>
            <path d="M1908.96,3355.52C1909.42,3356.08 1909.93,3356.59 1910.44,3356.98C1909.11,3355.92 1912.02,3353.11 1912.33,3354.02C1912.68,3355.08 1912.13,3351.66 1912.87,3351.06C1915.53,3348.87 1908.52,3346.56 1909.29,3344.25C1910.34,3341.07 1904.12,3342.29 1903.53,3339.16C1903.28,3337.85 1900.61,3339.04 1899.36,3339.64C1899.29,3340.2 1897.89,3342.7 1899.38,3343.31C1903.73,3342.09 1908.25,3344.63 1909.48,3348.98C1909.89,3350.45 1909.87,3351.94 1909.5,3353.31C1909.61,3351.89 1909.1,3350.78 1907.65,3350.21C1905.66,3349.44 1906.75,3352.72 1908.72,3355.22C1907.69,3357.04 1905.97,3358.47 1903.8,3359.08C1902.4,3359.48 1900.92,3359.2 1899.92,3359.84C1893.55,3363.98 1894.44,3361.24 1889.69,3363.47C1886.12,3365.14 1886.1,3360.92 1882.53,3360.4C1873.57,3359.09 1875.44,3349.61 1873.93,3337.45C1873.39,3333.13 1876.59,3329.18 1879.03,3324.69C1887.2,3309.69 1909.14,3299.8 1938.67,3316.34C1959.16,3328.99 1962,3346.67 1958.21,3363.15C1956.12,3372.23 1951.86,3382.87 1943.33,3389.1C1935.66,3394.7 1928.22,3397.48 1920.31,3398.64C1911.47,3403.95 1899.98,3401.07 1894.67,3392.23C1889.37,3383.39 1892.24,3371.9 1901.08,3366.59C1903.41,3364.24 1907.48,3359.4 1908.96,3355.52ZM1908.96,3355.52C1908.88,3355.42 1908.8,3355.33 1908.72,3355.22C1909.06,3354.62 1909.32,3353.98 1909.5,3353.31C1909.45,3353.99 1909.26,3354.74 1908.96,3355.52Z" style="fill:#fff;"/>
            <path d="M1792.61,3461.35C1795,3460.39 1798.25,3459.68 1800.11,3458.91C1802.45,3462.59 1804.77,3466.09 1806.69,3470.15C1827.35,3514.04 1838.27,3561.62 1856.69,3606.54C1873.2,3647.11 1894.5,3683.66 1916.94,3719.51C1951.54,3774.76 1990.36,3827.16 2030.55,3880.64C2137.47,4033.61 2189.4,4144.44 2216.23,4245.36C2251.53,4378.13 2245.36,4492.84 2261.81,4666.37C2266.8,4718.99 2272.68,4777.09 2283.79,4843.1C2285.61,4851.45 2280.3,4859.7 2271.95,4861.52C2263.6,4863.33 2255.35,4858.03 2253.53,4849.68C2235.91,4783.78 2222.93,4725.66 2214.26,4672.49C2186.83,4504.39 2193.02,4391.54 2153.98,4263.09C2125.39,4169.06 2073.18,4066.48 1968.22,3925.64C1928.7,3868.64 1888.74,3813.81 1857.02,3754.13C1835.37,3713.38 1817.77,3670.6 1804.43,3624.72C1790.79,3577.33 1776.05,3530.26 1768.95,3481.5C1768.13,3475.87 1768.41,3470.62 1768.08,3464.93C1770.32,3460.38 1766.89,3458.04 1769.44,3456.54C1773.24,3454.31 1768.84,3452.54 1772.26,3452.42C1777.68,3452.22 1772.87,3447.97 1777.2,3448.68C1786.44,3450.2 1795.79,3448.39 1793.69,3454.89C1794.27,3457.19 1793.81,3459.51 1792.61,3461.35ZM1789.64,3464.09C1789.36,3464.24 1789.07,3464.38 1788.77,3464.49C1789.39,3464.94 1789.82,3465.3 1789.65,3464.11C1789.64,3464.1 1789.64,3464.1 1789.64,3464.09ZM1786.14,3465.07C1784.57,3465.14 1783.03,3464.76 1781.71,3464.01C1783.26,3465.44 1784.92,3466.22 1786.14,3465.07ZM1800.11,3458.91C1799.43,3457.84 1798.76,3456.76 1798.09,3455.65C1802.51,3457.1 1802.16,3458.05 1800.11,3458.91Z" style="fill:#fff;"/>
            <path d="M2694.99,4083.71C2698.44,4086.63 2698.88,4091.8 2695.96,4095.25C2693.05,4098.7 2687.88,4099.14 2684.42,4096.22C2675.57,4096.34 2675.28,4091.28 2669.02,4082.32C2665.28,4076.97 2666.29,4069.64 2666.48,4060.02C2666.71,4048.36 2671.14,4034.41 2677.72,4018.39C2694.09,3978.57 2728.67,3929.21 2759.09,3887.53C2787.93,3848.02 2815.1,3816.74 2822.44,3808.16C2931.21,3681.8 3067.21,3542.31 3221.06,3440.56C3305.67,3384.59 3394.15,3333.26 3489.32,3314.52C3514.47,3309.57 3539.42,3309.13 3564.92,3308.81C3582.91,3305.97 3599.83,3318.27 3602.67,3336.26C3605.51,3354.25 3593.21,3371.16 3575.21,3374.01C3558.88,3379.55 3544.07,3387.01 3527.81,3392.89C3517.35,3396.67 3506.69,3399.79 3496.06,3403.19C3391.07,3436.74 3289.53,3491.09 3196.39,3560.07C3076.2,3649.07 2968.55,3757.75 2879.37,3857.97C2868.68,3869.59 2818.42,3927.86 2774.62,3984.41C2758.08,4005.77 2743.04,4027.09 2730.31,4044.87C2723.56,4054.29 2717.24,4061.86 2712.42,4068.89C2708.63,4074.41 2704.01,4076.41 2702.35,4080.06C2700.55,4084 2694.5,4080.16 2694.99,4083.71Z" style="fill:#fff;"/>
            <path d="M2819.61,4882.08C2823.96,4880.86 2828.49,4883.39 2829.72,4887.74C2830.94,4892.09 2828.41,4896.62 2824.06,4897.85C2815.53,4909.69 2808.59,4906.48 2797.63,4905.97C2794.94,4905.85 2793.19,4903.52 2790.73,4902.32C2778.31,4896.21 2771.89,4880.9 2765.51,4866.71C2757.47,4840.87 2758.41,4817.8 2764.28,4797.02C2773.57,4764.12 2799.57,4739.03 2832.73,4719.21C2884.36,4688.34 2960.17,4671.83 3029.64,4667.7C3062.95,4665.72 3094.78,4665.58 3120.74,4669.03C3136.08,4671.08 3148.69,4674.89 3159.42,4677.62C3179.56,4679.27 3194.56,4696.97 3192.91,4717.1C3191.25,4737.24 3173.56,4752.25 3153.42,4750.59C3142.17,4751.37 3128.6,4753.93 3112.41,4754.83C3094.17,4755.84 3073.31,4755.71 3051.22,4756.39C3003.26,4757.84 2949.33,4760.44 2904.35,4773.4C2870.46,4783.16 2841.59,4795.91 2829.42,4821.5C2824.55,4831.73 2819.94,4842.81 2820.61,4856.98C2820.28,4861.72 2816.87,4866.42 2818.67,4870.32C2819.47,4872.03 2814.32,4872.99 2815.7,4874.31C2818.26,4876.75 2815.58,4880.09 2819.61,4882.08Z" style="fill:#fff;"/>
            <path d="M2291.8,5000.2C2291.72,5000.05 2291.74,4999.91 2291.93,4999.79C2292.55,4999.4 2292.28,4999.69 2291.8,5000.2ZM2284.72,5011.9C2285.68,5011.5 2286.6,5011.07 2286.67,5009.76C2286.8,5007.44 2292.26,5006.5 2290.36,5002.25C2290.2,5001.89 2291.18,5000.87 2291.8,5000.2C2292.11,5000.74 2293.7,5001.52 2294.12,5002.71C2298.26,5014.7 2300.92,5042.05 2301.58,5051.48C2305.89,5135.13 2317.59,5218.67 2318.09,5302.51C2318.15,5312.03 2316.37,5321.04 2315.64,5330.53C2316.94,5344.25 2306.87,5356.44 2293.15,5357.75C2279.44,5359.05 2267.25,5348.98 2265.94,5335.27C2263.42,5326.75 2260.24,5318.88 2258.76,5310.13C2255.41,5290.48 2256.49,5270.33 2255.84,5250.39C2253.66,5184.52 2254.3,5118.56 2254.21,5052.77C2254.34,5043.97 2249.04,5018.6 2251,5006.95C2252.17,5000 2252.97,4996.54 2254.19,4995.21C2258.17,4990.87 2256.3,4986.67 2259,4986.09C2267.43,4984.28 2270.15,4975.29 2275.45,4980.52C2276.52,4981.57 2278.24,4980.18 2279.16,4981.57C2280.73,4983.97 2286.77,4982.17 2286.97,4987.68C2287.01,4989.04 2289.7,4989.6 2289.06,4992.49C2288.43,4995.33 2288.93,4998.36 2284.48,5009.62C2284.67,5010.38 2284.75,5011.15 2284.72,5011.9ZM2269.14,5015.13C2268.91,5014.65 2268.73,5014.15 2268.59,5013.61C2261.36,5007.49 2258.16,5004.1 2256.96,5006.04C2254.76,5009.61 2258.98,5011.64 2260.39,5011.82C2263.91,5012.26 2264.2,5016.21 2266.54,5015.54C2267.42,5015.29 2268.29,5015.17 2269.14,5015.13Z" style="fill:#fff;"/>
            <path d="M2272.1,3411.4C2280.58,3418.28 2280.12,3429.99 2279.83,3431.28C2279.45,3432.96 2277.45,3447.32 2262.28,3448.79C2260.8,3448.93 2257.32,3448.58 2253.8,3448.41C2254.12,3448.47 2254.45,3448.52 2254.78,3448.57C2255.2,3448.63 2256.07,3449.03 2257.55,3448.96C2251.1,3449.28 2231.62,3460.54 2218.04,3465.39C2216.78,3467.49 2215.96,3469.54 2215.75,3471.41C2215.6,3475.92 2211.82,3479.47 2207.3,3479.33C2202.78,3479.18 2199.23,3475.39 2199.38,3470.88C2199.35,3469.68 2199.47,3468.42 2199.72,3467.12C2193.6,3465.8 2188.97,3462.68 2185.72,3459.64C2170.96,3445.82 2173.28,3432.04 2181.58,3419.64C2189.92,3407.18 2225.13,3395.45 2229.64,3393.83C2254.96,3387.32 2265.77,3398.21 2267.32,3400.66C2268.64,3402.74 2270.91,3406.65 2272.1,3411.4ZM2207.99,3423.27C2208.03,3423.23 2208.07,3423.19 2208.11,3423.16C2209.12,3421.88 2210.34,3420.59 2211.69,3419.31C2208.51,3417.38 2205.69,3416.64 2205.88,3420.05C2205.98,3421.72 2206.73,3422.75 2207.99,3423.27ZM2222.67,3410.14C2228.08,3405.76 2232.12,3402.11 2229.84,3400.21C2222.68,3394.22 2221.57,3401.3 2222.67,3410.14ZM2243.69,3411.37C2247.6,3409.6 2251.1,3408.08 2253.76,3407.22C2251.44,3400.22 2247.19,3405.06 2243.69,3411.37ZM2250.72,3443C2249.95,3443.47 2249.18,3443.95 2248.4,3444.44C2249.68,3444.65 2250.53,3444.26 2250.72,3443Z" style="fill:#fff;"/>
            <path d="M2580.48,3266.43C2580.06,3266.16 2579.64,3265.9 2579.22,3265.64C2570.28,3257.33 2569.24,3248.29 2569.78,3240.82C2570.39,3232.31 2575.73,3222.66 2587.96,3215.7C2603.66,3206.76 2643.86,3202.07 2651.55,3201.9C2670.97,3201.64 2679.62,3211.18 2684.13,3219.6C2688.13,3227.06 2689.25,3236.76 2685.91,3247.12C2683.07,3255.96 2676.11,3266.01 2670.25,3271.86C2665.5,3276.6 2633.77,3297.8 2617.2,3299.83C2604.03,3301.45 2594.36,3296.66 2588.17,3289.68C2583.82,3284.77 2580.26,3277.98 2580.27,3268.12C2580.33,3267.55 2580.4,3266.99 2580.48,3266.43ZM2609.88,3233.45C2611.72,3232.9 2613.57,3232.47 2615.42,3232.16C2615.03,3231.67 2614.61,3231.19 2614.16,3230.7C2611.66,3226.7 2602.24,3222.31 2601.2,3227.68C2600.38,3231.97 2604.39,3233.15 2609.88,3233.45ZM2633.47,3233.07C2633.73,3233.13 2633.99,3233.2 2634.24,3233.26C2635.42,3232.26 2636.65,3231.07 2635.65,3230.6C2633.71,3229.68 2633.22,3230.95 2633.47,3233.07ZM2628.35,3280.33C2627.78,3280.28 2627.21,3280.23 2626.62,3280.16C2625.63,3280.16 2624.66,3280.09 2623.71,3279.97C2623.43,3280.27 2623.28,3280.6 2623.41,3280.9C2624.38,3283.24 2626.4,3282.49 2628.35,3280.33ZM2624.4,3279.41C2625.44,3280.17 2626.28,3280.42 2626.29,3279.13C2626.29,3278.64 2625.24,3278.89 2624.4,3279.41Z" style="fill:#fff;"/>
            <path d="M2991.07,3099.65C2991.89,3098.69 2992.8,3097.7 2993.81,3096.68C3002.53,3087.93 3010.73,3087.21 3016.54,3088.3C3021.09,3083.56 3026.35,3077.47 3033.94,3072.73C3044.47,3066.17 3056.21,3066.86 3060.5,3067.39C3071.74,3068.77 3076.5,3076.64 3078.95,3083.12C3080.84,3088.11 3083.04,3098.42 3071.98,3110.02C3065.63,3116.5 3034.37,3135.53 3020.45,3140.65C3008.75,3144.96 3000.18,3143.48 2994.24,3139.42C2986.84,3135.37 2981.82,3127.52 2981.82,3118.5C2981.82,3110.84 2985.45,3104.01 2991.07,3099.65ZM3038.82,3077.35C3038.91,3077.26 3038.99,3077.18 3039.07,3077.11C3038.98,3077.18 3038.9,3077.26 3038.82,3077.35ZM3046.85,3112.23C3050.48,3114.92 3054.87,3117.36 3054.73,3113.08C3054.65,3110.58 3051.05,3111.38 3046.85,3112.23ZM3003.93,3094.73C3004.41,3094.7 3004.89,3094.68 3005.38,3094.67C3004.88,3094.68 3004.4,3094.7 3003.94,3094.75C3004.03,3095.12 3004.14,3095.51 3004.3,3095.95C3004.75,3097.23 3005.67,3097.87 3006.91,3098.01C3007.4,3096.08 3008.56,3094.34 3010.21,3093.17C3006.03,3091.02 3002.93,3090.61 3003.93,3094.73ZM3005.38,3094.67C3005.47,3094.67 3005.56,3094.67 3005.65,3094.67C3005.56,3094.67 3005.47,3094.67 3005.38,3094.67Z" style="fill:#fff;"/>
            <path d="M3426.95,3035.38C3437.69,3038.9 3441.84,3046.59 3442.84,3048.21C3445.87,3053.09 3448.72,3066.23 3439.15,3076.91C3435.69,3087.14 3426.01,3094.52 3414.62,3094.52C3410.81,3094.52 3407.2,3093.7 3403.95,3092.22C3392.74,3094.87 3379.87,3097.4 3370,3098.82C3317.6,3106.34 3319.3,3054.3 3341.54,3042.17C3366.29,3028.93 3399.23,3023.62 3415.96,3029.59C3419.96,3031.02 3424.05,3032.1 3426.49,3034.86C3426.64,3035.03 3426.8,3035.2 3426.95,3035.38ZM3397.5,3088.05C3396.72,3087.36 3395.98,3086.63 3395.28,3085.85C3394.77,3085.74 3394.17,3085.7 3393.51,3085.72C3395.2,3087.41 3397.41,3090.91 3397.53,3088.81C3397.54,3088.53 3397.53,3088.28 3397.5,3088.05ZM3368.19,3094.99C3368.13,3095.02 3368.06,3095.05 3367.99,3095.08C3368.06,3095.05 3368.13,3095.02 3368.19,3094.99ZM3372.4,3047.48C3371.96,3047.1 3371.51,3046.72 3371.04,3046.35C3369.66,3045.26 3358.23,3033.82 3358.17,3041.23C3358.14,3045.29 3364.34,3047.16 3372.4,3047.48Z" style="fill:#fff;"/>
        </g>
    </g>
</svg>
