<?xml version="1.0" encoding="UTF-8" standalone="no"?>
<!DOCTYPE svg PUBLIC "-//W3C//DTD SVG 1.1//EN" "http://www.w3.org/Graphics/SVG/1.1/DTD/svg11.dtd">
<svg width="100%" height="100%" viewBox="0 0 5906 5906" version="1.1" xmlns="http://www.w3.org/2000/svg" xmlns:xlink="http://www.w3.org/1999/xlink" xml:space="preserve" xmlns:serif="http://www.serif.com/" style="fill-rule:evenodd;clip-rule:evenodd;stroke-linejoin:round;stroke-miterlimit:2;">
    <g id="Thumb">
        <g id="Layer3">
            <path d="M3543.96,5348.05C3543.21,5345.45 3539.31,5347.64 3536.99,5345.12C3536,5344.05 3534.62,5344.76 3533.41,5346.26C3524.22,5357.67 3548.61,5353.28 3546.57,5355.33C3543.87,5358.04 3552.72,5361.22 3546.12,5361.38C3544.65,5361.41 3547.11,5364.03 3544.48,5363.34C3542.95,5365.22 3540.74,5366.24 3538.49,5366.34C3540.28,5366.64 3542.3,5367.81 3539.9,5367.22C3538.87,5366.96 3540.75,5367.61 3540.13,5369.27C3537.28,5376.84 3530.24,5368.4 3525.01,5368.47C3511.46,5361.59 3503.72,5347.78 3499.49,5328.71C3497.7,5320.63 3498.62,5311.49 3499.51,5302.01C3503.99,5253.98 3530.64,5193 3537.61,5171.88C3569.47,5077.14 3611.58,4984.22 3662.5,4896.36C3698.06,4834.99 3736.35,4774.83 3781.37,4720.71C3796.97,4701.95 3812.03,4682.51 3830.88,4667.26C3836,4663.11 3841.29,4660.64 3846.89,4657.2C3854.5,4648.69 3867.59,4647.96 3876.1,4655.58C3884.61,4663.19 3885.33,4676.28 3877.72,4684.78C3875.01,4690.56 3873.41,4696.01 3870.1,4701.48C3858.01,4721.44 3842.51,4739.08 3828.42,4757.87C3787.81,4812.06 3747.44,4867.15 3712.49,4925.75C3662.39,5009.78 3620.16,5098.5 3588.05,5189.28C3582.81,5204.07 3567.59,5239.79 3556.91,5275.54C3551.86,5292.45 3548.33,5309.28 3546.88,5323.62C3546.12,5331.14 3544.12,5337.11 3545.29,5342.8C3545.72,5344.89 3543.51,5346.08 3543.96,5348.05ZM3537.34,5366.31C3536.1,5366.19 3534.88,5365.79 3533.78,5365.1C3534.47,5367.39 3534.2,5370.32 3536.66,5366.69C3536.8,5366.49 3537.04,5366.37 3537.34,5366.31ZM3531.57,5363.06C3531.19,5362.55 3530.88,5362.01 3530.63,5361.45C3530.14,5362.55 3529.31,5363.5 3531.15,5363.11C3531.3,5363.08 3531.43,5363.06 3531.57,5363.06ZM3530.02,5359.27C3529.96,5358.81 3529.93,5358.34 3529.95,5357.87C3529.17,5358.42 3528.35,5358.73 3529.61,5359.11C3529.76,5359.16 3529.9,5359.21 3530.02,5359.27ZM3530.37,5355.56C3530.45,5355.31 3530.55,5355.07 3530.66,5354.82C3530.07,5354.85 3529.62,5354.83 3530.08,5355.26C3530.19,5355.36 3530.28,5355.46 3530.37,5355.56ZM3543.96,5348.05C3543.98,5348.1 3543.99,5348.15 3544,5348.19C3543.99,5348.15 3543.97,5348.1 3543.96,5348.05Z" style="fill:#fff;"/>
            <path d="M3809.24,4612.69C3808.71,4617.18 3804.63,4620.39 3800.14,4619.85C3795.65,4619.31 3792.45,4615.23 3792.98,4610.75C3791.19,4602.18 3789,4595.03 3788.15,4586.31C3786.33,4567.59 3787.49,4549.17 3789.07,4530.39C3791.3,4504.01 3796.74,4478.01 3801.9,4451.98C3822.51,4348.11 3854.89,4246.15 3897.77,4148.85C3940.72,4051.39 3994.96,3958.95 4057.67,3873.18C4199.4,3679.33 4386.19,3517.76 4611.15,3424.93C4618.56,3421.87 4625.93,3418.64 4633.61,3416.27C4651.75,3410.66 4670.01,3407.5 4688.75,3403.77C4701.52,3399.24 4715.56,3405.92 4720.09,3418.69C4724.62,3431.46 4717.93,3445.51 4705.16,3450.04C4689.03,3458.54 4674.24,3468.18 4658.1,3476.44C4651.32,3479.91 4644.27,3482.76 4637.34,3485.86C4426.1,3580.33 4246.76,3728.68 4111.51,3912.65C4051.26,3994.61 4000.05,4083.3 3956.89,4175.68C3913.56,4268.4 3878.88,4364.99 3853.59,4463.72C3847.22,4488.58 3842.32,4513.72 3835.77,4538.48C3831.07,4556.22 3826.57,4573.53 3820.01,4590.63C3816.91,4598.69 3812.95,4604.9 3809.24,4612.69Z" style="fill:#fff;"/>
            <path d="M4794.63,3370.15C4790.92,3372.72 4785.81,3371.8 4783.24,3368.09C4780.66,3364.37 4781.58,3359.27 4785.3,3356.69C4786.3,3352.46 4784.05,3350.47 4786.97,3344.52C4791.01,3336.29 4800.66,3327.66 4811.48,3316.01C4871.21,3251.75 4997.22,3123.69 5099.74,2996.66C5134.99,2952.98 5167.53,2909.64 5195.24,2870.42C5223.51,2830.41 5245.78,2794.54 5259.1,2765.62C5263.55,2755.96 5267.9,2747.76 5269.91,2739.82C5271.21,2730.05 5280.2,2723.18 5289.97,2724.48C5299.75,2725.78 5306.62,2734.77 5305.32,2744.55C5305.14,2755.25 5303.42,2767.31 5299.56,2780.68C5289.92,2814.05 5267.64,2855.04 5238.4,2899.76C5211.37,2941.11 5177.12,2985.24 5140.45,3029.83C5035.21,3157.78 4910.32,3291.6 4841.29,3347.83C4828.14,3358.54 4817.72,3368.13 4808.26,3370.6C4801.14,3372.45 4799.42,3370.75 4794.63,3370.15Z" style="fill:#fff;"/>
            <path d="M4583.75,2967.14C4583.47,2968.08 4583.01,2968.98 4582.38,2969.81C4580.1,2978.83 4573.83,2978.54 4572.18,2979.87C4566.65,2984.33 4567.4,2976.31 4560.61,2974.73C4557.56,2974.02 4560.09,2971.13 4556.73,2966.1C4554.12,2962.2 4554.13,2955.32 4554.81,2947.49C4555.3,2941.87 4558.87,2937.49 4560.41,2934.97C4576.34,2909.88 4597.42,2881.94 4624.03,2854.37C4710.76,2764.52 4847.7,2675.45 4971.22,2644.28C5080.66,2616.67 5181.99,2635.23 5243.68,2728.72C5249.07,2736.9 5254.66,2745.48 5258.72,2755.2C5264.17,2768.26 5267.68,2782.44 5270.7,2797.97C5276.3,2814.51 5267.42,2832.48 5250.89,2838.08C5234.35,2843.68 5216.37,2834.8 5210.77,2818.26C5205.23,2807.11 5198.32,2797.93 5192.65,2788.35C5188.77,2781.8 5185.45,2775.26 5181.6,2769.32C5138.08,2702.2 5065.45,2692.43 4986.75,2709.86C4872.27,2735.21 4747.98,2817.88 4661.7,2893.81C4635.28,2917.06 4611.61,2938.62 4594.11,2959.58C4592.58,2960.85 4589.42,2963.97 4587.29,2966.63C4586.29,2967.87 4583.31,2966.66 4584.08,2967.39C4585.09,2968.34 4584.6,2967.98 4583.75,2967.14ZM4570.4,2958.53C4569.93,2958.76 4569.4,2958.85 4568.78,2958.48C4568.3,2958.19 4567.91,2959.49 4567.59,2960.49C4568.1,2960.32 4568.78,2960.14 4569.3,2959.7C4569.63,2959.26 4570,2958.87 4570.4,2958.53Z" style="fill:#fff;"/>
            <path d="M3837.28,3167.69C3836.65,3163.31 3841.78,3159.8 3846.92,3160.07C3847.26,3160.09 3847.59,3160.13 3847.92,3160.19C3847.99,3160.17 3848.06,3160.15 3848.13,3160.12C3852.26,3158.88 3852.73,3152.1 3865.19,3147.53C3886.53,3139.7 3927.47,3141.68 3963.75,3138.93C3988.49,3137.06 4011.22,3136.29 4023.46,3133.45C4107.09,3116.08 4185.82,3092.03 4262.2,3062.29C4293.01,3050.29 4323.36,3037.22 4353.71,3023.58C4398.61,3003.41 4443.47,2982.22 4487.7,2956.84C4501.59,2948.01 4520.04,2952.12 4528.87,2966.02C4537.7,2979.91 4533.59,2998.36 4519.7,3007.19C4475.77,3037.98 4431.67,3066.08 4385.65,3089.82C4354.32,3105.99 4322.13,3119.97 4289.45,3132.58C4209.05,3163.61 4125.06,3185.25 4036.71,3201.38C4021.66,3203.75 3994.04,3205.39 3964.01,3203.36C3926.81,3200.85 3884.62,3200.26 3863.47,3190.51C3851.33,3184.92 3851.4,3178.12 3847.37,3176.49C3847.31,3176.46 3847.25,3176.44 3847.19,3176.41C3846.81,3176.44 3846.43,3176.45 3846.04,3176.43C3840.79,3176.14 3835.97,3172.05 3837.28,3167.69Z" style="fill:#fff;"/>
            <path d="M3847.69,3182.05C3850.97,3185.15 3851.12,3190.34 3848.02,3193.62C3844.91,3196.91 3839.73,3197.06 3836.44,3193.95C3832.27,3193.45 3830.33,3192.98 3826.05,3190.74C3817.24,3186.11 3810.72,3175.91 3803.23,3163.54C3798.93,3156.44 3795.71,3147.9 3792.15,3138.63C3770.47,3082.25 3750.83,2991.89 3729.86,2888.98C3714.92,2815.64 3699.94,2735.74 3682.08,2657.42C3664.1,2578.58 3643.7,2501.33 3618.12,2434.03C3593.25,2368.58 3564.66,2312.36 3526.87,2275.38C3515.67,2264.42 3503.33,2255.9 3490.29,2248.74C3453.68,2228.62 3412.91,2216.98 3376.82,2194.72C3369.28,2190.08 3362.73,2183.97 3357.11,2176.65C3349.83,2167.18 3344.06,2155.53 3337.49,2145.32C3334.57,2140.79 3332.48,2135.66 3327.38,2134.57C3322.46,2133.52 3315.67,2138.1 3306.45,2143.04C3273.68,2160.6 3228.3,2197.18 3184.74,2237.38C3127.29,2290.39 3072.87,2349.59 3054.95,2380.74C3049.12,2391.04 3036.03,2394.68 3025.73,2388.86C3015.42,2383.03 3011.79,2369.94 3017.61,2359.64C3042.49,2314.75 3135.65,2214.38 3214.17,2149.23C3246.88,2122.09 3277.33,2101.1 3299.58,2091.63C3314.86,2085.12 3327.88,2083.79 3337.34,2085.62C3347.87,2087.65 3356.65,2092.51 3364.33,2099.22C3372.66,2106.51 3379.42,2116.58 3385.93,2127.09C3391.16,2135.53 3395.48,2144.99 3403.44,2149.47C3439.74,2169.81 3480.26,2179.38 3517,2197.56C3535.03,2206.49 3552.14,2217.38 3567.92,2231.52C3631.36,2288.76 3680.55,2388.61 3716.37,2504.93C3749.14,2611.37 3772.33,2731.31 3789.73,2841.04C3797.83,2892.14 3803.76,2941.06 3810.22,2985.26C3820.05,3052.43 3832.49,3107.4 3841.47,3144.3C3844.36,3156.16 3845.91,3165.33 3847.75,3173.37C3848.6,3177.07 3847.02,3178.85 3847.69,3182.05Z" style="fill:#fff;"/>
            <path d="M3617.86,2667.21C3614.33,2670.03 3609.17,2669.46 3606.35,2665.94C3603.52,2662.41 3604.09,2657.25 3607.62,2654.43C3607.09,2648.59 3609.7,2650.84 3610.94,2647.68C3614.22,2639.33 3619.69,2647.64 3625.7,2648.57C3628.46,2649 3628.97,2652.6 3631.1,2655.61C3633.17,2658.54 3633.73,2665.15 3633.32,2673.93C3632.76,2685.81 3627.49,2703.95 3627.33,2713.27C3626.29,2735.34 3626.32,2760.71 3625.37,2788.18C3622.09,2882.83 3613.78,3001.07 3579.85,3092.55C3562,3140.68 3538.3,3183.91 3501.45,3209.42C3491.22,3216.51 3480.04,3221.55 3468.11,3225.68C3458.15,3230.66 3446.02,3226.62 3441.04,3216.66C3436.06,3206.7 3440.1,3194.57 3450.06,3189.59C3455.23,3185.72 3459.08,3180.9 3463.98,3176.84C3505.77,3142.2 3533.69,3090.05 3550,3026.73C3571.04,2945.05 3575.44,2850.89 3581.54,2774.93C3583.44,2751.23 3586,2729.36 3588.44,2710.01C3590.14,2698.75 3597.62,2675.63 3601.32,2664.3C3601.6,2663.43 3603.84,2664.15 3603.33,2664.09C3601.5,2663.87 3605.24,2666.64 3605.53,2667.94C3606.64,2672.97 3612.55,2669.38 3617.11,2672.56C3618.63,2673.62 3618.43,2672.17 3619.75,2669.75C3620.51,2668.35 3620.04,2667.93 3617.86,2667.21Z" style="fill:#fff;"/>
            <path d="M3012.36,2409.2C3013.69,2408.78 3016.66,2409.4 3015.79,2407.96C3014.18,2405.3 3021.6,2395.85 3019.2,2399.35C3011.16,2411.01 3055.45,2416.95 3059.27,2418.9C3110.87,2448.09 3147.04,2497.61 3171.86,2559.65C3216.33,2670.83 3225.34,2822.97 3248.04,2951.3C3264.68,3045.35 3285.65,3127.2 3345.8,3163.04C3353.01,3167.5 3360.28,3169.9 3367.58,3171.73C3381.35,3175.2 3395.12,3175.83 3408.86,3179.67C3416.81,3181.89 3422.37,3186.2 3430.32,3189.03C3433.29,3190.09 3436.53,3190.28 3439.64,3191.12C3444.05,3192.11 3446.82,3196.5 3445.83,3200.91C3444.83,3205.32 3440.45,3208.09 3436.04,3207.1C3433.3,3206.6 3430.6,3205.83 3427.88,3205.99C3420.39,3206.41 3415.18,3210.6 3408.01,3212.2C3392.26,3215.73 3376.62,3217.07 3360.58,3215.99C3347.86,3215.13 3335.37,3210.94 3322.56,3204.44C3272.04,3177.97 3238.34,3126.9 3214.88,3061.51C3198.12,3014.81 3186.43,2960.58 3176.9,2903.66C3164.1,2827.29 3155.03,2745.98 3138.83,2672.46C3125.39,2611.44 3107.18,2556.25 3077.66,2514.26C3064.49,2495.51 3049.7,2478.92 3030.83,2466.65C3026.05,2463.35 2991.28,2447.76 2982.17,2430.88C2980.03,2426.91 2977.84,2424.01 2977.53,2420.25C2977.23,2416.64 2974.45,2413.74 2975.87,2410.8C2979.51,2403.26 2974.8,2398.39 2983.27,2396.01C2987.22,2388.12 2996.82,2384.91 3004.71,2388.86C3012.24,2392.62 3015.5,2401.54 3012.36,2409.2Z" style="fill:#fff;"/>
            <path d="M2846.42,3155.26C2847.49,3155.56 2849.14,3156.01 2849.23,3155.25C2849.67,3151.62 2860.26,3146.05 2856.23,3148.69C2855.16,3149.39 2858.5,3150.38 2859.66,3151.86C2866.61,3160.71 2879.53,3170.58 2892.49,3181.62C2915.09,3200.9 2939.28,3220.76 2944.13,3223.09C2981.51,3241.43 3015.38,3237.63 3046.62,3224.6C3083.72,3209.12 3116.65,3179.65 3147.55,3149.68C3162.13,3135.55 3176.9,3122.43 3190.16,3108.87C3199.1,3097.66 3215.46,3095.81 3226.68,3104.75C3237.89,3113.69 3239.74,3130.05 3230.8,3141.27C3219.85,3158.29 3208.64,3176.22 3195.01,3193.07C3161.56,3234.4 3119.15,3270.68 3073.06,3289.18C3024.62,3308.63 2971.15,3308.87 2915.51,3276.86C2909.65,3273.42 2878.42,3248.71 2853.99,3220.27C2839.95,3203.92 2828.14,3186.94 2822.44,3173.88C2820.2,3168.74 2817.43,3164.37 2817.61,3160.26C2818.2,3146.75 2817.76,3138 2827.03,3135.62C2832.91,3134.11 2835.32,3131.47 2845.47,3134.24C2846.83,3134.61 2848.43,3134.18 2850.12,3134.31C2854.64,3134.51 2858.14,3138.33 2857.94,3142.85C2857.74,3147.36 2853.92,3150.87 2849.4,3150.67C2847.34,3151.55 2847.08,3154.51 2846.42,3155.26Z" style="fill:#fff;"/>
            <path d="M2676.22,2904.59C2676.49,2909.1 2673.05,2912.98 2668.54,2913.25C2664.03,2913.52 2660.14,2910.07 2659.87,2905.56C2655.48,2902.88 2655.08,2906.66 2650.51,2901.94C2648.78,2900.16 2647.92,2897.57 2646.74,2894.73C2635.27,2867.26 2612.31,2817.94 2592.44,2769.16C2577,2731.23 2565.32,2693.16 2560.85,2665.66C2552.41,2612.47 2547.17,2555.24 2552.47,2499.91C2556.2,2460.99 2565.25,2423.04 2581.48,2387.78C2612.21,2321.4 2707.28,2227.76 2802.69,2192.9C2856.78,2173.15 2911.81,2170.49 2954.82,2197.74C2972.81,2209.14 2988.68,2225.52 3001.36,2247.82C3010.13,2260.59 3006.88,2278.07 2994.11,2286.83C2981.34,2295.6 2963.86,2292.35 2955.1,2279.58C2945.29,2267.61 2933.73,2260.45 2922.3,2254.58C2893.53,2239.79 2859.97,2243.16 2825.6,2255.69C2746.2,2284.63 2665.2,2359.9 2638.97,2414.81C2621.68,2450.81 2614.08,2490.54 2611.92,2530.88C2609.64,2573.33 2613.26,2616.45 2618.85,2657.06C2622.43,2684.6 2636.01,2723.27 2648.62,2762.23C2662.2,2804.2 2676.14,2845.91 2681.45,2874.36C2683.16,2883.47 2686.43,2891.67 2683.86,2897.31C2680.76,2904.12 2681.2,2901.14 2676.22,2904.59Z" style="fill:#fff;"/>
            <path d="M2477.51,2559.47C2477.9,2559.38 2478.13,2559.36 2477.98,2559.61C2477.41,2560.56 2477.36,2560.32 2477.51,2559.47ZM2477.51,2559.47C2476.95,2559.61 2476.05,2559.91 2475.52,2559.7C2463.42,2555.09 2440.94,2552.35 2438.14,2552.72L2404.79,2560.54C2368.22,2573.75 2303.95,2620.06 2264.32,2672.89C2239.7,2705.7 2223.63,2740.67 2236.55,2769.48C2267.24,2838.17 2308.57,2902 2344.7,2968.58C2360.67,2998.01 2375.16,3028.18 2388.42,3058.84C2423.92,3142.8 2452.86,3274.33 2515.36,3356.44C2531.65,3377.84 2550.08,3396.09 2572.39,3407.32C2602.05,3422.25 2637.81,3423.43 2680.64,3410C2708.48,3401.1 2729.44,3387.74 2748.26,3373.73C2757.01,3367.21 2765.8,3361.21 2773.49,3353.76C2794.87,3333.01 2809.87,3306.38 2828.44,3278.03C2833.15,3270.84 2838.7,3264.79 2843.98,3257.53C2848.78,3246.46 2861.66,3241.37 2872.72,3246.17C2883.79,3250.96 2888.89,3263.84 2884.09,3274.91C2881.68,3285.98 2879.84,3296.27 2876.48,3306.48C2860.9,3353.86 2836.8,3392.39 2803.42,3421.8C2776.41,3445.6 2741.43,3461.71 2697.18,3471.88C2636.27,3485.41 2588.09,3476.35 2547.72,3453.94C2519.47,3438.26 2494.67,3416.32 2473.26,3388.89C2407.22,3304.26 2372.34,3169.21 2333.7,3082.61C2304.43,3013.05 2265.51,2947.58 2232.33,2879.74C2217.59,2849.61 2204.32,2818.95 2192.62,2787.68C2176.4,2745.1 2195.52,2694.4 2232.63,2648.27C2279.06,2590.55 2350.81,2538.92 2391.98,2524.51L2434.49,2514.98C2438.84,2514.72 2474.59,2518.11 2491.21,2529.03C2496.2,2532.31 2500.1,2535.56 2502.16,2539.3C2504.23,2543.03 2507.33,2546.31 2506.43,2549.91C2504.66,2557.01 2506.23,2564.89 2493.83,2566.11C2490.56,2569.23 2485.38,2569.11 2482.26,2565.84C2479.14,2562.57 2479.26,2557.38 2482.53,2554.26C2482.51,2552.74 2482.55,2551.63 2481.27,2551.69C2479.99,2551.76 2478.34,2550.85 2478.55,2551.8C2478.97,2553.71 2477.83,2557.8 2477.51,2559.47Z" style="fill:#fff;"/>
            <path d="M1759.42,3213.28C1760.28,3215.83 1759.92,3218.74 1758.18,3221.06C1756.46,3224.87 1753.33,3225.42 1751.9,3226.53C1746.81,3230.5 1746.5,3225.12 1737.29,3218.56C1734.09,3216.28 1734.09,3216.77 1730.18,3210.83C1728.66,3208.53 1728.79,3205.28 1728.36,3201.46C1726.96,3188.95 1728.12,3169.95 1730.62,3148.97C1736.48,3099.64 1751.47,3040.19 1753.54,3031.82C1760.7,3003.05 1769.49,2973.44 1782.22,2945.97C1791.22,2926.57 1802.2,2908.24 1815.8,2891.85C1843.15,2858.4 1904.36,2807.89 1964.72,2783.3C2016.67,2762.12 2067.92,2761.71 2103.75,2793.16C2142.65,2827.45 2191.08,2890.69 2236.34,2969.73C2286.45,3057.24 2333.56,3163.91 2363.53,3267.85C2405.51,3413.43 2411.96,3553.87 2357.36,3634.09C2309.54,3707.38 2211.09,3730.27 2118.78,3711.8C2093.49,3706.74 2068.55,3699.06 2045.86,3687.83C1986.97,3658.68 1941.97,3610.33 1930.21,3552C1927.82,3542.26 1933.79,3532.4 1943.53,3530.01C1953.28,3527.62 1963.13,3533.59 1965.52,3543.34C1978.7,3588.79 2019.28,3621.32 2067.1,3642.42C2086.61,3651.02 2107.32,3658.07 2128.63,3662.29C2200.27,3676.45 2278.01,3663.37 2315.12,3606.52C2360.14,3534.53 2341.73,3412.82 2302.12,3286.31C2271.25,3187.68 2225.62,3086.44 2178.73,3002.27C2138.36,2929.8 2098.01,2869.7 2063.54,2837.43C2043.98,2819.05 2014.66,2824.28 1985.07,2835.36C1932.88,2854.91 1879.63,2897.12 1855.58,2925.17C1841.9,2941.35 1831.61,2960.07 1823.35,2979.76C1814.55,3000.72 1808.02,3022.75 1802.43,3044.25C1800.33,3052.33 1789.8,3110.55 1778.99,3157.41C1774.59,3176.47 1770.3,3193.38 1766.95,3204.55C1766.09,3207.44 1765.06,3209.45 1763.88,3211.18C1762.18,3213.68 1759.52,3213.24 1759.52,3213.24C1759.52,3213.24 1759.49,3213.26 1759.42,3213.28Z" style="fill:#fff;"/>
            <path d="M2037.82,3485.7C2040.01,3484.35 2042.4,3484.14 2044.2,3484.84C2048.1,3484.61 2052.74,3484.8 2058.24,3485.54C2067.35,3486.78 2079.87,3495.22 2093.2,3502.67C2104.45,3508.95 2114.79,3515.83 2120.35,3517.78L2260.3,3553.14C2276.44,3555.21 2287.85,3569.99 2285.78,3586.13C2283.71,3602.26 2268.93,3613.68 2252.8,3611.6C2221.13,3609.54 2188.06,3608.82 2156.51,3601.08C2134.05,3595.57 2112.95,3586.14 2092.94,3575.14C2086.56,3571.33 2074.46,3563.33 2063.72,3551.59C2051.67,3538.4 2038.19,3524.32 2034.68,3513.92C2032.87,3508.55 2032.05,3504.03 2031.93,3500.25C2025.02,3498.44 2024.13,3488.78 2037.82,3485.7Z" style="fill:#fff;"/>
            <path d="M1778.64,3504.74C1779.64,3506.26 1781.51,3508.25 1782.3,3510.04C1789.27,3525.84 1803.46,3548.4 1819.83,3576.72C1848.5,3626.3 1885.31,3690.41 1920.61,3750.06C1968.54,3831.04 2011.38,3905.14 2022.54,3927.95C2087.69,4064.04 2135.43,4187.92 2170.77,4311.31C2225.11,4501.01 2252.43,4687.98 2292.03,4910.44C2294.2,4920.89 2287.47,4931.13 2277.02,4933.3C2266.57,4935.46 2256.32,4928.73 2254.16,4918.28C2202.6,4700.53 2161.15,4518.53 2100.99,4332.59C2062.61,4213.96 2017.5,4093.35 1952.68,3961.9C1941.92,3939.6 1898.61,3868.3 1854.2,3788.08C1819.97,3726.25 1783.64,3659.97 1760.79,3606.24C1742.95,3564.3 1730.88,3529.92 1731.88,3511.66C1732.42,3501.86 1732.88,3495.45 1736.22,3491.23C1741.88,3486.73 1741.04,3477.16 1750.41,3478.47C1758.55,3479.6 1774.32,3485.7 1779.43,3488.38C1783.94,3488.55 1787.48,3492.35 1787.31,3496.86C1787.15,3501.38 1783.35,3504.91 1778.83,3504.75C1778.77,3504.75 1778.7,3504.74 1778.64,3504.74ZM1775.06,3504.03C1774.22,3503.93 1773.3,3503.9 1772.33,3504.06C1768.73,3504.67 1766.4,3510.3 1764.31,3512.23C1765.73,3512.64 1767.24,3512.96 1767.54,3512.21C1769.33,3507.66 1775.77,3507.94 1775.06,3504.03Z" style="fill:#fff;"/>
            <path d="M2297.71,5040.56C2298.16,5040.17 2298.49,5039.64 2298.55,5038.83C2298.71,5036.77 2304.74,5035.72 2302.67,5030.87C2302.44,5030.33 2307.23,5030.18 2305.57,5030.84C2297.01,5034.24 2311.98,5062.28 2312.13,5062.88L2314.67,5097.69C2317.99,5145.17 2323.05,5192.56 2325.39,5240.14C2326.94,5271.81 2326.53,5303.45 2327.6,5335.1C2328.93,5352.18 2316.15,5367.12 2299.08,5368.45C2282,5369.78 2267.06,5357 2265.73,5339.92C2261.83,5308.07 2257.23,5276.34 2255.02,5244.3C2251.72,5196.47 2252.2,5148.48 2251.17,5100.59L2251.01,5065.56C2251.12,5064.85 2253.44,5037.82 2258.4,5028.37C2260.63,5024.11 2260.73,5022.48 2261.93,5021.44C2266.19,5017.76 2264.16,5013.55 2266.27,5012.91C2270.45,5011.64 2270.28,5006.82 2273.36,5007.27C2280.99,5008.38 2286.64,5000.35 2290.76,5006.94C2293.46,5011.24 2301.05,5010.72 2300.62,5018.19C2300.39,5022.19 2301.17,5025.73 2300.07,5031.82C2299.43,5035.38 2296.22,5038.23 2297.66,5040.52C2297.68,5040.53 2297.69,5040.54 2297.71,5040.56Z" style="fill:#fff;"/>
            <path d="M2694.11,3993.11C2693.03,3992.26 2692,3991.52 2691.26,3993.53C2690.88,3994.6 2686.16,3991.84 2688.4,3992.26C2689.28,3992.42 2687.86,3990.9 2688.26,3989.68C2689.43,3986.14 2689.21,3982.08 2692.43,3976.49C2706.84,3951.45 2744.22,3911.72 2746.62,3908.22C2773.55,3872.01 2800.66,3835.96 2829.78,3801.36C2873.58,3749.33 2920.95,3700.39 2969.55,3653C3086.97,3539.84 3224.88,3419.09 3379.61,3337.83C3442.76,3304.66 3508.4,3276.79 3576.27,3261.21C3622.83,3250.53 3669.59,3246.78 3716.96,3246.31C3730.6,3244.69 3743,3254.45 3744.62,3268.09C3746.25,3281.74 3736.49,3294.13 3722.85,3295.76C3683,3305.16 3645.57,3320 3606.95,3334.46C3554.41,3354.12 3502.37,3376.33 3451.59,3402.91C3418.04,3420.47 3384.67,3438.91 3352.11,3458.94C3232.26,3532.68 3121.41,3623.67 3025.62,3712.33C2993.34,3741.93 2961.97,3772.57 2931.33,3803.98C2908.3,3827.59 2886.17,3852.05 2863.49,3875.99C2840.65,3900.11 2817.31,3923.49 2794.79,3947.82C2791.59,3951.07 2750.49,3992.75 2724.56,4009.85C2722.02,4011.52 2719.93,4013.06 2717.5,4013.67C2704.58,4016.91 2701.1,4017.59 2698.29,4016C2694.31,4013.74 2693.02,4018.22 2691.88,4015.71C2689.1,4009.56 2680.3,4014.1 2684.02,4008.33C2684.79,4007.12 2682.5,4006.91 2683.56,4005.53C2684.56,4004.23 2682.56,3999.99 2688.36,3997.1C2689.63,3994.89 2691.78,3993.5 2694.11,3993.11ZM2697.66,3993.3C2698.24,3993.46 2698.81,3993.69 2699.36,3993.99C2699.01,3993.23 2698.55,3992.83 2697.66,3993.3ZM2703.33,3998.96C2703.75,4000.43 2703.76,4002.02 2703.3,4003.53C2703.98,4003.01 2704.82,4002.93 2704.57,4002.74C2702.58,4001.25 2705.35,3999.14 2703.36,3998.96C2703.35,3998.96 2703.34,3998.96 2703.33,3998.96Z" style="fill:#fff;"/>
            <path d="M2777.04,4845.3C2777.11,4844.9 2775,4843.64 2775.65,4843.57C2778.91,4843.23 2773.91,4839.45 2775.76,4838.77C2776.73,4838.42 2775.76,4837.65 2775.66,4837.01C2774.85,4838.8 2773.41,4840.3 2771.48,4841.15C2763.56,4857.36 2752.89,4844.29 2748.51,4843.27C2742.52,4841.88 2749.64,4836.97 2745.59,4828.9C2743.82,4825.38 2749.31,4825.21 2749.74,4815.75C2753.01,4810.35 2755.59,4805.37 2759.69,4800.61C2794.93,4759.69 2845.98,4736.87 2895.69,4719.13C2935.12,4705.06 2976.78,4695.06 3019.11,4696.83C3037.09,4697.57 3054.71,4701.4 3072.46,4705.8C3088.72,4708.2 3099.98,4723.36 3097.58,4739.63C3095.18,4755.9 3080.02,4767.16 3063.75,4764.76C3048.44,4763.99 3033.51,4765.66 3018.44,4765.99C2983.04,4766.78 2948.01,4768.54 2914.29,4777.89C2870.37,4790.07 2831.83,4815.09 2791.7,4838.83C2786.92,4841.66 2782.05,4842.89 2777.04,4845.3ZM2775.88,4836.47C2775.89,4836.46 2775.89,4836.45 2775.91,4836.45C2777.98,4834.98 2777.42,4833.66 2776.25,4832.23C2776.51,4833.67 2776.37,4835.13 2775.88,4836.47ZM2772.94,4826.99C2772.93,4826.8 2772.94,4826.62 2772.95,4826.43C2773.29,4823.17 2768.29,4825.41 2766.29,4821.82C2765.58,4820.55 2762.27,4821.85 2762.27,4821.85C2762.27,4821.85 2761.95,4825.29 2764.89,4826.16C2767.63,4824.95 2770.67,4825.37 2772.94,4826.99ZM2777.04,4845.3C2777.03,4845.36 2776.95,4845.41 2776.79,4845.42C2776.88,4845.38 2776.96,4845.34 2777.04,4845.3Z" style="fill:#fff;"/>
            <path d="M2834.79,5033.82C2833.55,5034.86 2831.99,5035.55 2830.26,5035.7C2824.46,5040.52 2821.15,5036.58 2819.35,5036.7C2817.55,5036.82 2817.88,5034.59 2816.46,5034.27C2810.85,5032.98 2816.55,5028.53 2814.89,5021.6C2814.43,5019.65 2817.85,5020.03 2818.41,5016.08C2818.95,5012.18 2819.27,5011.71 2824.27,5003.5C2825.72,5001.1 2827.95,4999.59 2830.83,4997.44C2842.21,4988.96 2860.55,4979.74 2877.27,4973.29C2892.5,4967.41 2906.38,4965.33 2910.12,4964.33C2925.46,4959.34 2941.97,4967.73 2946.97,4983.07C2951.96,4998.41 2943.57,5014.91 2928.23,5019.91C2924.69,5021.28 2912.54,5027.66 2897.16,5032.14C2880.85,5036.89 2861.89,5040.45 2848.51,5042C2845.33,5042.36 2843.01,5042.24 2840.62,5041.73C2835.93,5040.71 2833.47,5040.39 2834.39,5037.53C2834.72,5036.49 2832.89,5035.77 2833.56,5035.82C2834.88,5035.91 2834.76,5034.76 2834.79,5033.82ZM2837.71,5027.79C2837.9,5027.29 2837.85,5026.83 2837.63,5026.36C2837.65,5026.51 2837.66,5026.66 2837.68,5026.82C2837.71,5027.14 2837.72,5027.47 2837.71,5027.79ZM2832.11,5019.78C2831.83,5019.25 2831.57,5018.68 2831.37,5018.07C2831.13,5017.35 2828.98,5017.91 2827.86,5017.97C2827.98,5018.47 2828.21,5019.08 2828.79,5019.39C2829.95,5019.29 2831.07,5019.43 2832.11,5019.78Z" style="fill:#fff;"/>
            <path d="M2168.98,3459.51C2168.36,3457.33 2168.02,3455.03 2168.02,3452.65C2168.02,3439.02 2179.09,3427.95 2192.72,3427.95C2194.47,3428.04 2196.5,3428.12 2198.68,3428.14C2206.76,3421.16 2215.05,3415.43 2222.94,3411.1C2244.31,3397.39 2256.64,3396.88 2261.41,3403.9C2268.01,3408.38 2267.97,3419.54 2256.57,3438.59C2260.95,3450.15 2256.45,3463.19 2245.86,3469.58C2245.86,3469.58 2228.4,3481.52 2218.25,3487.26C2219.61,3487.14 2218.33,3488.71 2216.22,3490.68C2215.42,3492.34 2214.07,3493.72 2212.35,3494.53C2212.38,3494.33 2212.41,3494.13 2212.44,3493.93C2211.99,3494.3 2211.54,3494.66 2211.1,3495C2211.02,3495.03 2210.93,3495.05 2210.85,3495.07C2209.6,3495.39 2208.34,3495.4 2207.16,3495.15C2206.82,3495.45 2206.49,3495.75 2206.17,3496.03C2206.14,3496.06 2206.09,3496.11 2206.04,3496.18C2206.56,3496.85 2207.03,3497.44 2207.46,3497.96C2206.03,3501.08 2210.48,3501.12 2203.62,3508.38C2201.14,3511 2197.46,3511.76 2193.67,3512.88C2180.55,3516.75 2169,3508.63 2164.98,3505.32C2158.3,3499.58 2156.98,3492.25 2156.45,3485.33C2155.73,3475.87 2166.22,3462.79 2168.98,3459.51ZM2212.35,3494.53C2211.59,3499.77 2213,3504.75 2207.46,3497.96C2207.52,3497.83 2207.59,3497.68 2207.68,3497.53C2208.41,3497.06 2209.68,3496.12 2211.1,3495C2211.53,3494.88 2211.95,3494.72 2212.35,3494.53ZM2223.23,3481.16C2222.91,3481.5 2222.59,3481.85 2222.27,3482.2C2222.6,3481.85 2222.92,3481.5 2223.23,3481.16Z" style="fill:#fff;"/>
            <path d="M2617.59,3269.24C2618.65,3260.21 2627.29,3249.52 2651.55,3244.66C2674.26,3242.62 2686.92,3245.05 2692.6,3247.17C2704.77,3251.71 2708.21,3260.82 2709.96,3267.39C2712.14,3275.57 2710.83,3286.36 2700.14,3296.29C2692.07,3303.79 2661.31,3315.11 2636.42,3321.92C2631.84,3327.06 2624.97,3331.3 2613.78,3327.05C2612.68,3327.22 2611.63,3327.36 2610.66,3327.46C2580.29,3330.85 2572.19,3303.38 2572.8,3297.56C2573.29,3292.91 2573.92,3282.56 2586.33,3275.03C2597.02,3268.53 2608.25,3267.53 2617.59,3269.24ZM2601.81,3282.1C2604.53,3280.82 2607.55,3280.05 2610.72,3279.93C2609.68,3279.49 2609.02,3277.66 2608.49,3278.18C2606.7,3279.93 2604.07,3278.78 2603.05,3280.33C2602.65,3280.95 2602.23,3281.54 2601.81,3282.1ZM2606.78,3271.4C2604.47,3270.23 2602.3,3269.65 2602.49,3272.09C2602.58,3273.11 2604.89,3271.7 2606.55,3271.43C2606.63,3271.42 2606.7,3271.41 2606.78,3271.4ZM2650.22,3267.11C2653.43,3266.5 2656.32,3265.76 2658.68,3264.86C2657.7,3263.62 2656.22,3263.05 2654.13,3263.62C2652.22,3264.15 2650.03,3265.19 2650.22,3267.11ZM2659.73,3264.42C2664.02,3262.54 2666.15,3259.99 2664.53,3256.44C2663.08,3253.27 2661.3,3261.36 2660.6,3262.64C2660.27,3263.23 2659.98,3263.83 2659.73,3264.42ZM2659.23,3265.74C2658.4,3268.22 2658.11,3270.71 2657.97,3273.07C2657.94,3273.56 2657.98,3274.23 2658.09,3275.05C2658.36,3275.18 2658.64,3275.3 2658.92,3275.42C2659.18,3275.43 2659.44,3275.45 2659.7,3275.49C2660.45,3272 2660.45,3268.14 2659.23,3265.74ZM2663.32,3292.2C2666.41,3298.97 2670.15,3303.09 2672.57,3295.38C2673.33,3292.95 2669.12,3292.46 2663.32,3292.2Z" style="fill:#fff;"/>
            <path d="M3026.72,3057.31C3038.51,3052.39 3051.14,3048.3 3058.98,3047.81C3070.67,3047.08 3078.58,3051.74 3082.99,3056.12C3093.24,3066.31 3096.82,3081.11 3081.8,3096.59C3073.34,3105.32 3048.15,3121.31 3030.16,3124.15C3020.37,3125.7 3013.75,3125.26 3010.64,3124.12C2999.28,3124.12 2990.06,3114.9 2990.06,3103.54C2990.06,3102.42 2990.14,3101.33 2990.32,3100.27C2989.95,3099.07 2989.7,3097.97 2989.5,3097.02C2989.06,3094.86 2988.82,3091.8 2989.45,3088.31C2987.24,3087.6 2985.33,3086 2984.31,3083.72C2982.39,3079.46 2984.29,3074.44 2988.55,3072.52C2988.86,3065.13 2987.78,3069.5 2990.59,3063.04C2991.64,3060.62 2993.52,3060.32 2995.63,3058.94C3005.91,3052.24 3017.43,3053.89 3026.72,3057.31ZM3052.69,3095.31C3056.77,3098.64 3061.75,3101.74 3061.56,3097.17C3061.45,3094.48 3057.64,3094.24 3052.69,3095.31Z" style="fill:#fff;"/>
            <path d="M3368.48,3046.43C3368.97,3044.95 3369.57,3043.45 3370.26,3041.93C3374.7,3032.17 3384.27,3020.32 3398.25,3012.39C3411.14,2998.84 3425.08,3001.34 3433.07,3003.24C3433.47,3003.34 3433.87,3003.44 3434.26,3003.57C3436,3003.62 3437.76,3003.73 3439.55,3003.91C3441.78,3003.91 3443.93,3004.21 3445.99,3004.76C3447.54,3004.33 3449.02,3003.96 3450.39,3003.67C3471.51,2999.19 3484.27,3010.2 3487.95,3015.09C3493.89,3022.98 3498.74,3035.05 3488.57,3050.82C3486.03,3054.77 3478.04,3063.11 3459.87,3074.23L3430.76,3091.54C3427.43,3092.9 3424.26,3093.96 3421.24,3094.77C3411.23,3098.72 3399.29,3099.51 3385.74,3095.41C3371.38,3090.92 3366.29,3081.49 3363.87,3073.97C3361.42,3066.33 3361.86,3057.38 3367.48,3047.89C3367.76,3047.42 3368.09,3046.93 3368.48,3046.43ZM3453.3,3057.88C3453.11,3058.52 3452.91,3059.16 3452.7,3059.79C3454.06,3060.28 3455.52,3060.7 3457.09,3061.03C3458.08,3061.24 3462.35,3063.72 3461.94,3061.54C3461.41,3058.72 3458.04,3057.68 3453.3,3057.88Z" style="fill:#fff;"/>
        </g>
    </g>
</svg>
