<?xml version="1.0" encoding="UTF-8" standalone="no"?>
<!DOCTYPE svg PUBLIC "-//W3C//DTD SVG 1.1//EN" "http://www.w3.org/Graphics/SVG/1.1/DTD/svg11.dtd">
<svg width="100%" height="100%" viewBox="0 0 5906 5906" version="1.1" xmlns="http://www.w3.org/2000/svg" xmlns:xlink="http://www.w3.org/1999/xlink" xml:space="preserve" xmlns:serif="http://www.serif.com/" style="fill-rule:evenodd;clip-rule:evenodd;stroke-linejoin:round;stroke-miterlimit:2;">
    <g id="Peace">
        <g id="_1" serif:id="1">
            <path d="M3545.97,5373.11C3546.03,5377.63 3542.42,5381.36 3537.9,5381.42C3533.38,5381.49 3529.66,5377.88 3529.59,5373.36C3504.18,5365.91 3523.7,5387.33 3507.04,5366.74C3503.62,5362.52 3506.21,5355.94 3505.82,5350.52C3500.81,5280.84 3494.79,5211.21 3493.62,5141.1C3492.84,5094.27 3494.26,5047.38 3497.26,5000.66C3501.79,4930.12 3511.17,4860.16 3522.65,4790.51C3529.54,4747.78 3560.98,4707.54 3576.5,4668.07C3578.28,4663.56 3580.43,4659.2 3580.9,4654.6C3581.2,4651.76 3579.74,4649.22 3579.3,4646.45C3579.38,4633.27 3570.63,4622.22 3562.91,4610.53C3550.24,4591.37 3536.12,4572.4 3528.67,4553.19C3522.65,4537.68 3520.21,4521.91 3522.73,4505.97C3530.91,4448.48 3568.72,4407.22 3592.62,4357.14C3600.03,4341.62 3605.27,4324.84 3606.42,4305.73C3620.37,4136.96 3592.93,3966.53 3603.85,3797.5C3605.54,3771.42 3606.17,3745 3612.93,3719.68C3617.73,3701.68 3625.82,3686.94 3633.51,3669.87C3634.4,3663.85 3640.01,3659.69 3646.03,3660.58C3652.04,3661.48 3656.2,3667.09 3655.31,3673.1C3657.71,3687.7 3661.9,3699.84 3663.24,3714.51C3665.08,3734.53 3663.8,3754.45 3663.74,3774.5C3663.31,3909.82 3676.22,4045.13 3678.69,4180.36C3679.49,4223.88 3678.3,4267.36 3675.03,4310.75C3673.42,4329.49 3669.12,4346.6 3663.26,4362.73C3643.62,4416.85 3599.32,4456.34 3591.79,4515.2C3590.35,4526.67 3598.7,4536.52 3605.75,4547.53C3617.7,4566.22 3631.67,4585.25 3639.02,4605.34C3644.21,4619.52 3646.95,4634.06 3645.56,4648.96C3644.23,4662.34 3640.35,4675.48 3635.35,4688.98C3622.32,4724.14 3596.64,4761.34 3593.12,4799.44C3584.92,4884.7 3583.49,4970.35 3581.83,5056.13C3581.16,5090.53 3580.63,5124.94 3579.26,5159.32C3577.18,5211.36 3573.63,5263.05 3570.73,5314.92C3569.75,5332.36 3578.3,5353.42 3567.37,5367C3549.48,5389.22 3573.39,5365.28 3545.97,5373.11Z" style="fill:#fff;"/>
            <path d="M2834.98,2747.95C2831.41,2745.18 2830.76,2740.03 2833.53,2736.45C2836.3,2732.89 2841.45,2732.24 2845.03,2735.01C2857.28,2736.67 2865.14,2735.51 2876.8,2739.66C2880.64,2741.03 2883.83,2743.55 2887.18,2745.86C2984.4,2813.1 3066.93,2899.94 3159.93,2973.05C3246.86,3042.93 3368.53,3123.18 3465.74,3209.92C3511.56,3250.8 3551.95,3293.22 3581.6,3336.33C3606.24,3372.32 3624.2,3414.29 3637.05,3458.1C3646.91,3491.76 3656.64,3526.18 3658.63,3560.16C3659.15,3569.11 3658.19,3577.59 3657.74,3586.33C3659.17,3598.02 3650.84,3608.69 3639.14,3610.12C3627.45,3611.56 3616.78,3603.22 3615.35,3591.53C3612.72,3582 3609.22,3572.89 3606.88,3563.01C3598.17,3526.17 3591.8,3487.14 3578.6,3450.79C3567.76,3420.97 3553.99,3392.65 3536.4,3367.81C3508.59,3328.34 3470.52,3289.98 3427.96,3252.57C3330.82,3167.18 3210.05,3087.6 3123.51,3018.5C3031.78,2943.62 2941.01,2867.04 2854.7,2786.09C2851.8,2783.37 2848.74,2780.83 2846.61,2777.47C2840.07,2767.15 2839.58,2759.27 2834.98,2747.95Z" style="fill:#fff;"/>
            <path d="M3234.76,918.637C3232.66,922.644 3227.71,924.2 3223.71,922.109C3219.7,920.018 3218.14,915.067 3220.23,911.06C3218.49,902.072 3215.4,898.98 3216.74,890.261C3217.61,884.578 3221.95,880.152 3224.6,875.303C3310.56,718.158 3423.2,700.034 3496.62,762.549C3558.2,814.976 3595.8,935.73 3572.29,1095.76C3553.98,1225.44 3512.48,1350.1 3485.09,1477.7C3473.61,1531.2 3465.82,1585.32 3461.21,1640.01C3453.82,1712.47 3451.29,1784.74 3450.89,1856.94C3450.33,1959.34 3453.49,2061.63 3456.78,2164.03C3458.99,2232.95 3461.49,2301.88 3460.92,2371.05C3459.99,2461.87 3460.24,2552.85 3454.7,2643.58C3450.98,2704.38 3443.96,2764.9 3436.33,2825.33C3425.32,2907.47 3410.35,2988.62 3397.78,3070.45C3396.86,3076.49 3396.18,3082.54 3394.62,3088.45C3390.75,3103.17 3384.73,3115.59 3380.05,3130.11C3379.58,3139.75 3371.37,3147.2 3361.73,3146.73C3352.09,3146.26 3344.64,3138.05 3345.11,3128.41C3341.74,3112.93 3337.8,3099.16 3336.45,3083.43C3335.91,3077.08 3336.45,3070.73 3336.75,3064.37C3340.59,2981.62 3355.56,2900.05 3362.18,2817.4L3389.32,2369.03C3392.61,2301.01 3393.87,2233.13 3393.42,2165.26C3392.73,2062.16 3388.77,1959.22 3390.79,1856.18C3392.24,1782.11 3396.42,1708.02 3405.32,1633.81C3415.9,1555.23 3436.02,1478.88 3455.26,1402.14C3467.87,1351.85 3479.56,1301.3 3490.65,1250.64C3502.37,1197.1 3512.41,1143.24 3518.79,1088.67C3534.69,954.389 3505.9,854.987 3455.28,810.174C3403.27,764.132 3332.05,789.229 3262.03,897.591C3259.25,901.888 3257.72,907.357 3253.67,910.813C3247.16,916.373 3242.88,915.034 3234.76,918.637Z" style="fill:#fff;"/>
            <path d="M2366.7,898.334C2364.75,894.255 2366.48,889.363 2370.56,887.416C2374.64,885.47 2379.53,887.201 2381.48,891.28C2393.14,905.262 2404.87,917.002 2414.7,932.072C2418.72,938.229 2421.6,945 2424.78,951.588C2468.32,1041.61 2501.01,1133.31 2526.28,1226.67C2557.73,1342.86 2574.8,1462.83 2577.43,1590.58C2579.08,1691.38 2569.02,1790.7 2573.34,1889.12C2576.1,1952.15 2584.86,2014.81 2607.11,2077.21C2633.21,2149.73 2678.89,2268.7 2740.47,2312.85C2776.19,2338.46 2814.86,2327.26 2859.77,2258.26C2885.07,2219.23 2905.64,2177.78 2921.94,2134.68C2938.31,2091.39 2950.3,2046.43 2958.45,2000.58C2973.25,1917.05 2982.74,1833.35 2996.56,1750.03C3002.58,1713.73 3009.42,1677.5 3017.82,1641.38C3046.4,1522.51 3075.59,1405.07 3114.07,1290.54C3127.02,1252 3140.29,1213.49 3156.47,1176.02C3172.61,1138.68 3191.55,1102.66 3211.23,1066.56C3216.73,1054.93 3230.64,1049.96 3242.26,1055.47C3253.89,1060.97 3258.86,1074.88 3253.36,1086.51C3238.36,1123.5 3225.89,1160.93 3212.63,1198.13C3192.63,1254.26 3172.9,1310.17 3155.72,1367C3126.99,1462 3102.26,1558.38 3078.68,1656C3070.08,1690.7 3062.98,1725.53 3056.66,1760.45C3041.6,1843.75 3030.85,1927.49 3014.79,2010.99C3005.36,2060.15 2991.77,2108.29 2973.58,2154.59C2955.32,2201.07 2932.48,2245.72 2904.55,2287.68C2833.19,2395.28 2765.91,2395.42 2710.11,2354.95C2641.88,2305.48 2587.68,2175.26 2558.81,2094.55C2534.5,2027.22 2524.6,1959.6 2521.3,1891.52C2516.51,1792.67 2525.95,1692.85 2523.75,1591.6C2521.59,1468.23 2504.13,1352.67 2475.44,1240.03C2452.2,1148.76 2419.84,1060.09 2383.8,969.635C2381.14,962.966 2378.11,956.425 2376.18,949.474C2371.43,932.329 2370.19,915.994 2366.7,898.334Z" style="fill:#fff;"/>
            <path d="M3143.53,1583.46C3139.15,1586.31 3132.38,1570.66 3143.53,1583.46ZM3150.51,1542.04C3135.79,1550.48 3147.3,1537.94 3150.51,1542.04ZM3143.53,1583.46C3145.11,1582.43 3146.38,1579 3146.39,1570.95C3141.93,1570.2 3138.92,1565.97 3139.67,1561.51C3140.42,1557.06 3144.65,1554.05 3149.11,1554.8C3151.75,1547.19 3151.67,1543.53 3150.51,1542.04C3151.62,1541.4 3152.89,1540.64 3154.32,1539.75C3156.06,1538.66 3158.4,1540.15 3160.43,1540.47C3181.29,1543.75 3202.96,1544.79 3222.58,1552.6C3228.37,1554.9 3231.86,1558.47 3237.12,1561.81C3245.67,1563.24 3251.46,1571.34 3250.03,1579.89C3248.61,1588.44 3240.51,1594.23 3231.95,1592.8C3225.91,1594.25 3221.46,1596.51 3215.25,1596.82C3194.13,1597.88 3173.24,1591.91 3152.42,1588.2C3150.39,1587.84 3147.68,1588.49 3146.38,1586.88C3145.32,1585.56 3144.38,1584.43 3143.53,1583.46Z" style="fill:#fff;"/>
            <path d="M3187.37,1712.05C3182.87,1712.45 3178.89,1709.12 3178.48,1704.62C3178.08,1700.12 3181.41,1696.13 3185.91,1695.73C3200.46,1689.74 3212.38,1682.5 3227.63,1678.61C3231.19,1677.7 3234.93,1677.76 3238.58,1677.37C3250.68,1676.59 3261.14,1685.78 3261.92,1697.88C3262.7,1709.98 3253.51,1720.44 3241.41,1721.22C3239.67,1721.62 3238.07,1722.45 3236.29,1722.46C3218.87,1722.58 3204.42,1715.61 3187.37,1712.05Z" style="fill:#fff;"/>
            <path d="M2289.96,1502.92C2285.56,1503.96 2281.14,1501.24 2280.1,1496.84C2279.06,1492.45 2281.78,1488.03 2286.18,1486.99C2287.62,1465.88 2274.52,1484.86 2287.56,1468.23C2290.3,1464.73 2295.88,1465.18 2300.2,1464.21C2319.95,1459.79 2340.01,1455.53 2360.2,1456.98C2366.25,1457.41 2370.31,1459.5 2376.2,1461.02C2384.45,1459.49 2392.39,1464.95 2393.93,1473.2C2395.46,1481.45 2390,1489.4 2381.75,1490.93C2376.29,1494.57 2372.74,1498.35 2366.78,1501.05C2346.64,1510.16 2324.85,1514.72 2303.11,1518.83C2301.89,1519.06 2300.53,1519.7 2299.43,1519.13C2280.71,1509.43 2300.7,1521.09 2289.96,1502.92Z" style="fill:#fff;"/>
            <path d="M2499.79,2350.21C2501.42,2345.99 2506.17,2343.9 2510.39,2345.53C2514.6,2347.17 2516.7,2351.91 2515.06,2356.13C2521.95,2365.17 2524.11,2358.9 2526.14,2370.04C2527.4,2376.94 2522.1,2383.42 2520.23,2390.12C2507.93,2434.05 2502.06,2478.22 2498.58,2522.89C2495.07,2567.88 2494.05,2613.35 2495.4,2659.55C2498.82,2764.44 2517.06,2859.68 2557.13,2944.62C2596.25,3027.56 2656.53,3100.09 2741.8,3163.12L2887.87,3266.66C2938.82,3308.52 2988.49,3352.67 3035.44,3399.58C3056.96,3421.08 3079.55,3441.69 3098.26,3465.57C3106.69,3476.33 3112.26,3487.74 3119.66,3499.19C3132.88,3511.85 3133.34,3532.87 3120.68,3546.1C3108.01,3559.33 3087,3559.78 3073.77,3547.12C3063.38,3541.56 3053.42,3537.7 3043.81,3530.82C3012.03,3508.09 2985.82,3478.27 2957.66,3450.98C2916.16,3410.76 2876.19,3369.04 2833.18,3331.01L2694.41,3224.91C2601.29,3150.81 2537.51,3066.59 2496.19,2972.34C2455.14,2878.73 2435.93,2775.16 2434.43,2660.95C2433.7,2595.66 2435.3,2531.54 2447.24,2468.98C2454.5,2430.92 2464.4,2393.09 2480.85,2356.83C2481.39,2355.63 2481.54,2354.1 2482.6,2353.31C2491.86,2346.44 2488.35,2352.04 2499.79,2350.21Z" style="fill:#fff;"/>
            <path d="M3176.76,3585.06C3179.67,3581.61 3184.84,3581.17 3188.3,3584.08C3191.76,3586.99 3192.2,3592.16 3189.28,3595.62C3186.43,3613.75 3188.9,3624.46 3186.42,3642.88C3185.6,3648.99 3185.12,3654.23 3183.22,3660.14C3178.76,3674.09 3172.85,3687.44 3167.71,3701.41C3160.03,3722.29 3152.65,3743.51 3146.58,3765.13C3138.19,3795 3132.04,3825.37 3126.27,3854.67C3125.22,3860.06 3125.27,3865.81 3122.82,3870.62C3121.28,3873.67 3119.27,3874.32 3117.01,3876.84C3113.73,3898.94 3093.14,3914.21 3071.04,3910.93C3048.95,3907.66 3033.67,3887.06 3036.95,3864.97C3035.44,3861.74 3033.88,3860.33 3033.32,3856.78C3031.76,3846.88 3035.64,3836.74 3037.35,3826.63C3045.76,3776.78 3059.1,3725.06 3080.19,3677.82C3086.75,3663.12 3093.53,3648.55 3102.56,3635.48C3108.89,3626.34 3114.55,3617.05 3123.28,3610.35C3141.6,3596.27 3155.28,3592.59 3176.76,3585.06Z" style="fill:#fff;"/>
            <path d="M3016.89,3516.62C3019.95,3513.29 3025.14,3513.08 3028.46,3516.14C3031.79,3519.2 3032,3524.38 3028.94,3527.71C3027.71,3545.31 3032.05,3552.01 3027.1,3568.36C3025.02,3575.23 3020.38,3580.65 3016.45,3586.49C2994.74,3618.69 2972.67,3647.95 2953.77,3678.31C2907.14,3753.19 2872.36,3828.77 2836.97,3913.26C2826.16,3939.09 2821.49,3969.35 2803.34,3993.01C2800.7,3996.45 2797.91,3997.21 2794.45,3999.89C2787.68,4017.02 2768.28,4025.44 2751.14,4018.67C2734.01,4011.9 2725.59,3992.5 2732.36,3975.37C2731.22,3971.9 2729.69,3971.03 2729.73,3967.41C2729.82,3958.72 2735.38,3951.08 2738.34,3943.09C2775.35,3843.37 2810.3,3756.16 2859.64,3673.48C2888.85,3624.53 2917.4,3571 2966.46,3530.57C2970.25,3527.45 2973.8,3525.05 2978.47,3523.33C2993.9,3517.67 3000.14,3519.14 3016.89,3516.62Z" style="fill:#fff;"/>
            <path d="M2242.13,655.694C2245.21,658.995 2245.04,664.181 2241.74,667.27C2238.44,670.358 2233.26,670.186 2230.17,666.886C2214.88,665.45 2210.92,670.475 2197.94,667.132C2196.14,666.67 2194.68,665.629 2193.16,664.693C2163.55,646.469 2140.81,648.061 2122.47,665.239C2096.03,689.992 2080.64,735.92 2075.14,783.647C2072.04,808.055 2072.22,832.941 2073.13,857.945C2074.62,898.733 2078.83,939.798 2081.03,979.574C2082.82,1023.84 2082.99,1068.01 2085.26,1112.08C2086.7,1139.92 2088.91,1167.73 2093.29,1195.48L2144.94,1444.51C2160.67,1543.94 2178.03,1641.7 2195.99,1739.1C2209.55,1812.59 2223.82,1885.65 2238.83,1959.02C2247.8,2002.88 2257.42,2046.54 2266.16,2090.8C2272,2120.31 2276.65,2149.71 2282.41,2179.47C2284.7,2187.2 2280.28,2195.34 2272.55,2197.63C2264.83,2199.92 2256.69,2195.5 2254.4,2187.78C2242.91,2159.47 2231.26,2131.81 2221.06,2103.26C2197.16,2036.37 2177.14,1968.98 2158.73,1901.1C2119.4,1756.08 2090.3,1609.17 2060.95,1459.28L2002.49,1210.62C1997.06,1179.68 1993.87,1148.64 1991.85,1117.53C1988.96,1073.1 1988.49,1028.52 1986.24,983.881C1984.79,943.304 1980.8,901.377 1980.67,859.777C1980.58,829.613 1982.39,799.65 1987.5,770.432C2004.04,682.395 2051.46,603.567 2110.99,584.375C2148.92,572.146 2209.6,565.3 2237.66,620.285C2244.41,633.509 2241.66,638.695 2242.13,655.694Z" style="fill:#fff;"/>
            <path d="M2603.34,2446.31C2603.43,2441.79 2607.18,2438.2 2611.69,2438.29C2616.21,2438.38 2619.81,2442.13 2619.72,2446.64C2628.73,2468.21 2639.82,2482.68 2650.23,2504.21C2652.33,2508.53 2654.54,2512.49 2655.81,2517.12C2660.4,2533.93 2664.7,2550.36 2668.62,2567.24C2669.86,2572.56 2667.87,2576.59 2668.56,2582.05C2676.96,2595.04 2673.22,2612.41 2660.23,2620.81C2647.24,2629.2 2629.87,2625.47 2621.47,2612.48C2615.13,2608.59 2610.7,2605.58 2605.64,2600.2C2593.61,2587.44 2587.96,2570.06 2582.81,2553.26C2580.68,2546.33 2579,2539.18 2578.53,2531.91C2578.13,2525.78 2577.95,2519.94 2579.06,2513.88C2583.8,2487.95 2592.45,2469.65 2603.34,2446.31Z" style="fill:#fff;"/>
            <path d="M2425.16,2407.12C2428.78,2409.82 2429.53,2414.96 2426.82,2418.58C2424.12,2422.2 2418.99,2422.95 2415.36,2420.25C2402.22,2420.84 2395.49,2426.79 2376.48,2420.12C2367.99,2417.14 2361.44,2408.4 2353.07,2401.33C2271.05,2332.14 2128.97,2197.73 2028.68,2134.39C2009.63,2122.35 1992.42,2112.74 1977.59,2107.37C1969.19,2104.33 1962.68,2101.15 1958.01,2103.4C1949.2,2108.11 1945.62,2117.38 1942.92,2127.7C1938.02,2146.47 1940.27,2169.8 1943.96,2194.64C1954.59,2266.31 1987.51,2348.2 2000.19,2377.41C2036.44,2465.88 2088.01,2543.28 2143.05,2618.14C2229.93,2736.34 2329.41,2845.97 2405.57,2971.07C2434.92,3019.28 2461.03,3069.6 2480.4,3123.67C2481.68,3127.26 2484.03,3130.69 2483.94,3134.51C2483.83,3139.21 2482.18,3139.75 2480.51,3144.15C2485.84,3156.9 2479.82,3171.58 2467.07,3176.91C2454.32,3182.24 2439.64,3176.22 2434.3,3163.47C2430.11,3161.85 2428.92,3163.23 2425.53,3160.29C2421.78,3157.03 2420.58,3151.76 2418.23,3147.4C2387.77,3090.75 2353.25,3038.13 2316.16,2986.93C2216.12,2848.87 2096.66,2724.2 2006.24,2578.99C1973,2525.59 1944.73,2468.92 1922.02,2408.42C1908.17,2369.8 1868.33,2251.07 1872.57,2164.6C1875.24,2110.19 1894.22,2067.56 1933.61,2051.58C1947.12,2045.42 1965.82,2044.62 1988.68,2051.57C2021.94,2061.69 2068.91,2088.86 2120.07,2125.53C2221.88,2198.49 2344,2306.25 2409.31,2362.67C2412.52,2365.45 2416.49,2367.39 2418.38,2370.74C2427.88,2387.53 2422.23,2394.8 2425.16,2407.12Z" style="fill:#fff;"/>
            <path d="M1944.5,2502.98C1943.35,2504.08 1942.31,2506.86 1941.78,2512.5C1946.16,2513.6 1948.83,2518.05 1947.74,2522.43C1946.64,2526.82 1942.19,2529.49 1937.81,2528.39C1936.74,2532.33 1935.79,2536.07 1934.94,2539.62C1934.88,2539.66 1934.82,2539.7 1934.75,2539.74C1934.2,2540.07 1933.5,2539.47 1932.88,2539.34C1926.45,2537.97 1920.2,2536.89 1914.12,2535.92C1836.06,2523.46 1788.02,2546.59 1767.67,2594.28C1746.27,2644.43 1753.89,2716.68 1784.08,2793.88C1818.4,2884.33 1960.54,3166.31 2115.38,3303.3C2186.19,3365.95 2258.83,3399.52 2324.38,3353.61C2354.87,3332.08 2371.96,3296.32 2382.71,3256.82C2397.91,3200.98 2398.85,3137.2 2397.3,3086.51C2397.12,3080.47 2394.58,3074.12 2396.96,3069C2397.89,3067.01 2398.1,3068.15 2399.81,3066.79C2398.9,3056.77 2406.3,3047.89 2416.32,3046.97C2426.35,3046.06 2435.23,3053.46 2436.14,3063.49C2438.09,3064.53 2438.07,3063.42 2439.35,3065.25C2442.76,3070.11 2441.14,3077.2 2441.79,3083.52C2447.51,3138.54 2447.05,3208.51 2431.43,3269.66C2418.22,3321.4 2393.13,3366.63 2353.35,3394.66C2269.16,3454.47 2172.65,3422.82 2080.97,3342.35C1919.15,3200.33 1770.53,2906.82 1734.66,2812.66C1691.02,2694.37 1697.01,2585.92 1753.45,2530.62C1789.45,2495.35 1846.37,2478.5 1926.25,2496.44C1931.66,2497.66 1939.48,2495.81 1942.81,2500.61C1943.42,2501.49 1943.98,2502.28 1944.5,2502.98ZM1944.5,2502.98C1948.53,2499.14 1954,2515.76 1944.5,2502.98ZM1934.94,2539.62C2106.16,2435.61 1893.14,2714.74 1934.94,2539.62Z" style="fill:#fff;"/>
            <path d="M2339.69,2806.78C2339.61,2806.27 2339.53,2805.76 2339.44,2805.25C2338.79,2801.36 2342.89,2798.26 2345.05,2794.95C2363.14,2767.21 2379.57,2738.93 2392.43,2708.3C2393.62,2705.47 2394.57,2702.57 2396.99,2700.64C2400.42,2697.91 2398.27,2700.63 2402.51,2699.52C2404.76,2687.69 2416.19,2679.91 2428.02,2682.16C2439.85,2684.4 2447.63,2695.83 2445.38,2707.66C2449.79,2710.37 2447.28,2706.32 2449.94,2710.75C2451.54,2713.43 2450.35,2716.67 2450.11,2719.77C2447.55,2752.12 2432.18,2782.16 2414.74,2809.45C2407.57,2820.67 2399.49,2831.34 2390.43,2840.99C2389.71,2841.75 2389.24,2843.05 2388.21,2843.13C2387.69,2843.17 2387.17,2843.21 2386.66,2843.25C2382.12,2839.39 2376.46,2835.07 2369.5,2830.25C2366.73,2833.82 2361.58,2834.46 2358.01,2831.69C2354.44,2828.92 2353.8,2823.77 2356.57,2820.2C2350.06,2814.48 2344.47,2810.07 2339.69,2806.78ZM2339.69,2806.78C2358.05,2919.1 2275.55,2762.54 2339.69,2806.78ZM2386.66,2843.25C2456.4,2902.62 2259.49,2853.5 2386.66,2843.25Z" style="fill:#fff;"/>
            <path d="M2127.48,3197.99C2103.37,3154.89 2077.5,3100.69 2123.77,3168.06C2131.58,3184.51 2137.6,3197.56 2142.1,3207.7C2142.19,3208.83 2142.52,3209.95 2143.09,3210.99C2143.34,3211.2 2143.59,3211.42 2143.84,3211.64C2143.98,3211.97 2144.12,3212.29 2144.26,3212.6C2145.11,3213.52 2146.13,3214.2 2147.24,3214.64C2155.82,3222.25 2166.88,3232.32 2180.84,3245.31C2181.6,3246.28 2182.35,3247.22 2183.07,3248.14C2183.04,3248.18 2183.04,3248.2 2183.12,3248.21C2228.8,3306.55 2184.75,3265.26 2151.41,3230.04C2157.41,3246.56 2148.72,3234.44 2136.73,3214.13C2123.31,3199.12 2116.28,3189.6 2127.48,3197.99ZM2183.12,3248.21C2183.1,3248.19 2183.08,3248.17 2183.07,3248.14C2183.14,3248.02 2183.39,3247.68 2182.18,3246.56C2181.73,3246.14 2181.28,3245.72 2180.84,3245.31C2174.11,3236.78 2165.62,3226.31 2155.12,3213.62C2152.77,3215.36 2149.78,3215.65 2147.24,3214.64C2146.06,3213.6 2144.93,3212.6 2143.84,3211.64C2143.29,3210.38 2142.71,3209.07 2142.1,3207.7C2141.88,3204.97 2143.04,3202.19 2145.4,3200.44C2136.89,3187.44 2129.73,3176.74 2123.77,3168.06C2123.24,3166.95 2122.71,3165.83 2122.16,3164.69C2120.79,3161.8 2120.67,3164.93 2121.29,3161.79C2121.92,3158.66 2125.07,3156.91 2127.47,3154.81C2136.01,3147.35 2146.1,3141.87 2156.13,3136.62C2179.63,3124.31 2203.77,3115.95 2228.65,3106.56C2248.51,3094.95 2274.07,3101.65 2285.68,3121.51C2297.29,3141.37 2290.6,3166.92 2270.74,3178.53C2254.5,3192.31 2240.32,3206.88 2224,3220.47C2213.66,3229.09 2203.84,3238.44 2192.24,3245.32C2189.82,3246.76 2187.39,3248.65 2184.59,3248.34C2183.64,3248.24 2183.26,3248.23 2183.12,3248.21Z" style="fill:#fff;"/>
            <path d="M1829.86,2970.37C1831.54,2966.17 1836.31,2964.13 1840.5,2965.81C1844.7,2967.49 1846.74,2972.26 1845.06,2976.45C1829.35,3033.95 1826.34,3090.12 1824.6,3146.59C1821.99,3231.12 1829.08,3315.08 1850.89,3397.59C1883.61,3521.43 1941.11,3641.41 2006.72,3750.05C2010.46,3756.25 2014.91,3762.03 2017.99,3768.55C2021.25,3775.46 2022.7,3782.45 2025.23,3789.62C2033.01,3801.84 2029.41,3818.07 2017.19,3825.85C2004.97,3833.63 1988.74,3830.03 1980.96,3817.81C1975.55,3812.58 1969.99,3808.3 1965.25,3802.4C1958.55,3794.07 1953.92,3784.23 1948.36,3775.01C1865.43,3637.55 1794.34,3482.82 1771.36,3324.14C1762.57,3263.43 1758.39,3201.77 1768.15,3141.26C1777.68,3082.11 1799.84,3025.98 1829.86,2970.37Z" style="fill:#fff;"/>
            <path d="M1877.67,3638.36C1877.21,3633.87 1880.49,3629.84 1884.98,3629.38C1889.48,3628.91 1893.5,3632.19 1893.97,3636.68C1899.46,3640.06 1900.51,3637.37 1904.05,3642.78C1909.2,3650.66 1906.71,3661.46 1908.12,3670.87C1923.4,3772.64 1949.89,3878.74 1986.39,3979.85C2013.65,4055.37 2046.26,4128.09 2083.35,4194.1C2124.89,4266.12 2175.72,4335.39 2218.37,4408.68C2248.02,4459.62 2273.29,4512.6 2291.74,4567.79C2320.19,4653.39 2333.47,4765.63 2338.95,4884.35C2341.82,4946.42 2343.12,5010.27 2342.66,5072.88C2341.93,5173.89 2337.6,5271.49 2338.58,5353.14C2339.08,5365.97 2329.07,5376.78 2316.24,5377.28C2303.41,5377.77 2292.6,5367.76 2292.11,5354.94C2286.87,5275.14 2283.9,5179.95 2281.42,5081.24C2279.14,4990.85 2277.33,4897.56 2269.62,4810.85C2262.24,4727.7 2250.36,4650.69 2229.39,4588.72C2216.49,4550.41 2199.58,4513.53 2180.62,4477.42C2167.18,4451.85 2152.35,4426.88 2137.82,4401.69C2102.88,4341.09 2067.32,4280.67 2036.48,4219.58C1991.11,4133.33 1952.93,4036.61 1924.29,3937.03C1898.73,3848.16 1880.3,3757.16 1871.2,3669.53C1870.47,3662.45 1867.12,3655.1 1869.26,3648.38C1871.18,3642.34 1873.58,3643.16 1877.67,3638.36Z" style="fill:#fff;"/>
            <path d="M2764.62,3299.45C2764.71,3299.34 2764.8,3299.22 2764.9,3299.1C2764.93,3299.06 2765.26,3298.7 2765.77,3298.14C2765.86,3298.28 2765.95,3298.43 2766.05,3298.58C2766.39,3298.35 2766.54,3298.16 2766.34,3297.92C2766.28,3297.85 2766.22,3297.78 2766.16,3297.71C2768,3295.7 2771.34,3292.06 2772.66,3290.55C2777.4,3285.13 2776.49,3292.67 2783.22,3291.72C2783.73,3291.7 2784.42,3292.47 2788.78,3303.22C2789.89,3305.95 2789.8,3310.46 2789.7,3315.83C2789.43,3330.33 2785.86,3349.96 2785.81,3350.49L2772.4,3433.37C2760.18,3482.31 2744.49,3522.23 2723.6,3558.5C2706.13,3588.81 2686.67,3618.22 2659.04,3644.78C2652.72,3650.85 2645.6,3656.03 2638.4,3661.72C2631.02,3669.1 2619.03,3669.1 2611.66,3661.72C2604.28,3654.34 2604.28,3642.36 2611.66,3634.98C2617.04,3628.14 2621.61,3621.16 2626.94,3614.8C2649.44,3587.95 2670.96,3564.52 2687.55,3537.18C2707.46,3504.36 2722.74,3468.13 2735.08,3423.55L2751.17,3345.54C2751.33,3344.88 2756.85,3312.67 2762.85,3301.39C2763.33,3300.5 2763.99,3299.89 2764.62,3299.45ZM2765.77,3298.14C2764.34,3295.87 2763.65,3294.64 2766.16,3297.71C2766.02,3297.86 2765.89,3298.01 2765.77,3298.14Z" style="fill:#fff;"/>
            <path d="M2416.77,3014.26C2416.83,3011.9 2417.5,3009.5 2418.82,3011.22C2420.09,3012.88 2422.62,3008.76 2425.39,3007.67C2445.5,2999.75 2480.55,2983.59 2504.36,2975.75C2520.6,2970.4 2532.68,2969.33 2535.18,2969.77C2544.23,2969.77 2551.59,2977.12 2551.59,2986.18C2551.59,2994.37 2545.57,3001.16 2537.72,3002.39C2537.79,3002.46 2537.86,3002.55 2537.91,3002.66C2539.42,3005.63 2530.41,3008.81 2522.87,3012.83C2500.86,3024.57 2463.47,3039.64 2439.72,3044.33C2430.68,3046.12 2422.83,3047.95 2418.51,3045.5C2416.71,3044.48 2416.18,3045.17 2415.46,3043.55C2411.03,3033.55 2415.24,3042.57 2411.22,3035.7C2410.61,3034.66 2409.18,3034.6 2408.39,3033.92C2407.78,3033.4 2407.26,3032.83 2406.8,3032.21C2405.68,3030.7 2404.97,3028.92 2404.79,3026.82C2404.61,3024.61 2405.08,3021.58 2407.25,3017.9C2409.23,3014.56 2413.22,3013.14 2416.77,3014.26Z" style="fill:#fff;"/>
        </g>
    </g>
</svg>
