<?xml version="1.0" encoding="UTF-8" standalone="no"?>
<!DOCTYPE svg PUBLIC "-//W3C//DTD SVG 1.1//EN" "http://www.w3.org/Graphics/SVG/1.1/DTD/svg11.dtd">
<svg width="100%" height="100%" viewBox="0 0 5906 5906" version="1.1" xmlns="http://www.w3.org/2000/svg" xmlns:xlink="http://www.w3.org/1999/xlink" xml:space="preserve" xmlns:serif="http://www.serif.com/" style="fill-rule:evenodd;clip-rule:evenodd;stroke-linejoin:round;stroke-miterlimit:2;">
    <g id="Peace">
        <g id="_2" serif:id="2">
            <path d="M3696.42,3710.65C3696.8,3710.43 3698.1,3711.73 3698.1,3711.73C3698.1,3711.73 3698.56,3716.45 3698.3,3719.6C3697.79,3725.97 3697.25,3733.82 3696.43,3743.07C3692.82,3783.62 3688.93,3847.68 3687.22,3912.34C3684.73,4006.51 3683.97,4101.61 3683.51,4127.18C3682.76,4169.59 3679,4218.14 3671.93,4266.18C3664.79,4314.65 3654.3,4362.58 3640.21,4403.29C3633.02,4424.09 3615.54,4450.66 3604.13,4475.08C3600.19,4483.5 3596.91,4491.47 3596.34,4498.61C3595.31,4512 3603.37,4523.19 3611.79,4534.39C3624.2,4550.9 3638.82,4566.77 3647.54,4583.4C3654.14,4595.98 3657.75,4609.03 3657.19,4622.75C3656.46,4640.68 3651.09,4657.43 3643.28,4673.58C3629.56,4701.99 3606.42,4727.96 3598.33,4758.21C3592.39,4780.45 3588.78,4803.2 3586.37,4826.2C3580.43,4882.57 3581.56,4940.34 3576.05,4996.04C3566.09,5075.49 3550.63,5159.1 3543.48,5241.26C3540.43,5276.25 3537.97,5310.74 3540,5344.99C3539.93,5347.2 3543.64,5370.78 3541.91,5380.01C3540.93,5385.23 3539.23,5388.63 3536.85,5389.86C3533.18,5392.5 3528.06,5391.68 3525.41,5388.02C3523.52,5385.4 3523.4,5382.04 3524.82,5379.37C3525.93,5379.09 3526.47,5378.28 3526.59,5377.12C3526.61,5377.09 3526.63,5377.07 3526.66,5377.05C3526.64,5377.07 3526.61,5377.09 3526.59,5377.1C3527.25,5370.12 3512.71,5350.06 3512.24,5348.36C3503.74,5301.18 3501.06,5252.44 3503.15,5203.13C3506.2,5131.58 3518.62,5059.58 3524.52,4990.71C3530.54,4934.97 3529.92,4877.09 3536.42,4820.69C3539.36,4795.13 3543.71,4769.87 3550.58,4745.19C3559.77,4712.1 3584.33,4683.28 3599.68,4652.26C3604.67,4642.17 3608.54,4631.81 3609.1,4620.57C3609.74,4607.77 3600.58,4597.02 3591.69,4585.55C3578.78,4568.91 3564.41,4552.1 3556.39,4534C3550.93,4521.67 3548.08,4508.75 3549.11,4494.98C3550.01,4482.97 3554.49,4469.24 3561.06,4455.06C3571.67,4432.1 3588.33,4407.3 3595.01,4387.75C3608.04,4349.59 3617.6,4304.65 3624.09,4259.24C3630.65,4213.33 3634.03,4166.94 3634.56,4126.43C3635.21,4088.16 3634.65,3895.16 3644.69,3780.68C3646.91,3755.45 3648.03,3733.45 3653.02,3718.35C3658.95,3700.39 3666.52,3690.23 3672.35,3686.69C3678.98,3680.07 3689.74,3680.07 3696.36,3686.69C3702.97,3693.3 3702.99,3704.02 3696.42,3710.65ZM3524.82,5379.37C3524.68,5379.4 3524.53,5379.43 3524.38,5379.45C3522.8,5379.64 3525.26,5378.06 3526.59,5377.1C3526.59,5377.11 3526.59,5377.11 3526.59,5377.12C3525.85,5377.77 3525.26,5378.54 3524.82,5379.37Z" style="fill:#fff;"/>
            <path d="M2839.19,2751.1C2834.67,2750.99 2831.09,2747.23 2831.2,2742.71C2831.31,2738.19 2835.07,2734.61 2839.59,2734.72C2841.66,2732.66 2842.66,2732.7 2850.68,2732.86C2855.73,2732.96 2862.57,2737.53 2871.26,2742.61C2925.22,2774.14 3044.19,2871.42 3059.8,2884.26C3113.08,2930.85 3167.24,2976.97 3221.97,3022.32C3258.42,3052.53 3295.1,3082.43 3332.1,3111.71C3368.48,3140.58 3407.56,3167.01 3443.28,3197C3468.47,3218.14 3492.02,3241.02 3512.16,3267.38C3542.03,3306.48 3568.89,3355.97 3590.05,3407.97C3606.43,3448.24 3621.5,3489.51 3628.85,3528.84C3630.87,3539.7 3631.52,3550.25 3632.45,3560.64C3634.83,3571.56 3627.9,3582.35 3616.99,3584.73C3606.08,3587.11 3595.29,3580.18 3592.91,3569.27C3589.17,3558.15 3584.4,3547.14 3580.43,3535.25C3566.03,3492.16 3550.78,3444.55 3530.17,3400.48C3512.7,3363.13 3492.95,3327.82 3470.86,3298.96C3453.03,3275.67 3432.08,3255.58 3409.81,3236.89C3374.44,3207.22 3335.76,3181.05 3299.76,3152.46C3253.22,3115.41 3207.06,3077.56 3161.55,3038.97C3116.07,3000.39 3071.23,2961.07 3026.89,2921.56C3012.47,2907.9 2898.25,2809.98 2851.8,2769.82C2845.38,2764.26 2840.09,2760.29 2837.7,2756.76C2835.36,2753.3 2840.22,2752.22 2839.19,2751.1Z" style="fill:#fff;"/>
            <path d="M3369.38,3097.96C3368.87,3102.45 3364.81,3105.68 3360.32,3105.17C3355.83,3104.66 3352.6,3100.59 3353.11,3096.1C3354.69,3056.32 3352.93,3016.73 3352.21,2976.67C3350.53,2883.61 3347.15,2789.76 3346.18,2696.57C3345.82,2662.66 3346.21,2628.86 3347.66,2595.22C3356.79,2439.95 3379.89,2285.86 3394.76,2131.11C3401.06,2065.49 3405.91,1999.76 3407.45,1933.74C3409.43,1818.27 3395.63,1702.7 3395.52,1587.46C3395.47,1536.69 3398.08,1485.99 3405.56,1435.4C3423.53,1321.74 3489.26,1097.15 3496.03,916.034C3499.16,832.547 3490.59,758.58 3454.99,711.913C3428.71,677.437 3398.59,685.901 3370.73,708.391C3320.16,749.198 3275.42,829.698 3255.97,860.698C3250.45,869.637 3238.72,872.416 3229.78,866.901C3220.84,861.385 3218.06,849.65 3223.58,840.711C3247.77,800.816 3310.68,687.888 3376.24,655.683C3414.12,637.069 3453.3,639.872 3489.22,685.357C3530.82,738.093 3545.29,821.889 3543.02,917.469C3538.68,1100.58 3474.76,1328.32 3457.88,1443.37C3450.35,1491.35 3447.55,1539.46 3447.12,1587.67C3446.1,1703.15 3458.55,1819.12 3455.32,1934.82C3453.85,2002.01 3449.08,2068.92 3442.69,2135.71C3427.94,2289.88 3404.66,2443.36 3395.47,2598.04C3385.27,2729.98 3397.31,2865.44 3385.28,2997.82C3382.21,3031.71 3376.05,3064.78 3369.38,3097.96Z" style="fill:#fff;"/>
            <path d="M2366.41,877.07C2369.57,877.442 2372.35,879.643 2373.31,882.879C2374.17,885.781 2373.35,888.784 2371.41,890.837C2384.75,931.431 2407.49,968.366 2423.26,1008.36C2427.71,1019.64 2431.62,1031.16 2434.72,1043.02C2445.95,1086.21 2452.69,1130.91 2456.88,1176.12C2463.03,1242.5 2463.76,1309.94 2467.15,1374.99C2473.04,1501.1 2497.05,1873.4 2589.66,2121.53C2634.98,2242.93 2694.99,2334.99 2779.45,2344.89C2790.77,2346.2 2800.57,2339.58 2810.05,2329.95C2824.52,2315.22 2836.97,2292.97 2848.49,2268.13C2879.82,2200.55 2901.57,2113.29 2911.75,2080.76C2916,2067.44 2919.05,2054.04 2921.55,2040.59C2927.87,2006.45 2930.96,1972.1 2940.03,1938.36C2961.63,1852.48 2989.95,1768.87 3012.12,1683.17C3021.41,1647.25 3029.56,1610.95 3035.71,1573.98C3053.47,1469.05 3058.96,1356.19 3084.53,1250.12C3092.45,1217.27 3101.16,1184.55 3115.1,1154.09C3119.37,1144.76 3123.3,1135.24 3129.76,1127.27C3133,1123.27 3136.32,1121.17 3140.2,1117.79C3143.18,1111.41 3150.77,1108.65 3157.15,1111.63C3163.53,1114.61 3166.29,1122.2 3163.31,1128.58C3163.02,1134.21 3163.78,1138.69 3162.87,1144.26C3161.7,1151.46 3159.16,1158.23 3156.97,1165.18C3142.48,1211.01 3130.08,1257.62 3121.2,1305.55C3104.18,1397.48 3094.72,1492.19 3078.36,1581.43C3071.37,1619.53 3062.28,1656.87 3052.12,1693.84C3028.68,1779.13 2999.4,1862.33 2976.68,1947.84C2968.49,1980.77 2966.25,2014.2 2960.74,2047.47C2958.23,2062.61 2955.07,2077.71 2950.59,2092.74C2938.68,2131.64 2911.86,2246.25 2870.23,2317.25C2843.86,2362.23 2809.99,2389.2 2774.5,2384.45C2679.02,2371.76 2607.51,2271.43 2557.01,2133.61C2464.58,1881.34 2436.22,1504.7 2429.81,1376.8C2426.93,1312.16 2426.37,1245.2 2421.11,1179.2C2417.66,1135.78 2412.28,1092.76 2402.28,1051.13C2399.74,1040.5 2396.47,1030.17 2392.72,1020.03C2376.54,976.284 2352.38,935.842 2340.23,890.994L2342.26,874.116C2346.76,870.956 2350.78,862.916 2357.37,867.965C2359.28,869.435 2361.66,870.14 2364.03,873.55C2364.97,874.903 2366.74,876.039 2366.41,877.07Z" style="fill:#fff;"/>
            <path d="M2305.89,1528.44C2304.44,1531.39 2301.29,1533.29 2297.82,1532.99C2289.29,1532.23 2287.68,1527.51 2289.7,1521.11C2289.95,1520.3 2291,1519.54 2291.02,1518.33C2291.09,1512.92 2289.3,1517.81 2289.39,1508.61C2289.4,1507.13 2290.35,1506.18 2291.3,1504.68C2294.51,1499.62 2300.66,1494.07 2307.01,1489.87C2316.46,1483.61 2326.24,1480.88 2327.28,1480.56C2335.07,1476.5 2344.7,1479.52 2348.76,1487.31C2352.83,1495.1 2349.8,1504.72 2342.01,1508.79C2341.33,1509.32 2336.84,1516.09 2329.67,1521.6C2324.63,1525.48 2318.99,1529.52 2314.15,1530.82C2309.34,1532.12 2307.03,1530.7 2305.89,1528.44ZM2304.23,1518.94C2304.15,1518.81 2304.06,1518.72 2303.95,1518.68C2304.04,1518.76 2304.14,1518.85 2304.23,1518.94Z" style="fill:#fff;"/>
            <path d="M3139.68,1572.04C3139.16,1571.94 3138.63,1571.36 3138.51,1571.25L3139.68,1572.04ZM3139.68,1572.04C3139.92,1572.09 3140.17,1572.03 3140.37,1571.75C3141.31,1570.45 3136.01,1569.58 3134.76,1567.28C3131.52,1561.33 3134.52,1566.11 3134.41,1561.41C3134.35,1558.8 3134.36,1557.45 3134.39,1556.81C3132.32,1556.2 3130.49,1554.77 3129.43,1552.7C3129.93,1552.58 3109.59,1484.65 3143.43,1533.12C3146.21,1537.1 3155.3,1532.76 3156.03,1532.75L3178.74,1541.22C3191.94,1547.28 3205.73,1552.3 3217.84,1560.3C3226.05,1565.72 3232.48,1572.63 3239.99,1579.01C3249.64,1584.46 3253.04,1596.72 3247.59,1606.37C3242.14,1616.02 3229.88,1619.42 3220.23,1613.97C3210.99,1610.86 3201.84,1608.97 3192.99,1604.88C3180.41,1599.07 3169.28,1590.57 3157.15,1583.82L3139.68,1572.04ZM3134.6,1556.87C3134.63,1557.11 3134.66,1557.35 3134.66,1557.35C3134.66,1557.35 3134.76,1557.21 3134.95,1556.96C3134.83,1556.93 3134.71,1556.9 3134.6,1556.87Z" style="fill:#fff;"/>
            <path d="M3190.08,1708.96C3189.97,1711.58 3188.61,1714.1 3186.22,1715.58C3182.38,1717.96 3177.33,1716.78 3174.94,1712.94C3166.49,1712.4 3172.87,1712.11 3175.98,1696.08C3176.43,1693.75 3178.2,1692.57 3180.98,1690.04C3186.86,1684.69 3200.3,1681.78 3212.3,1677.98C3221.69,1675.72 3231.15,1681.52 3233.41,1690.92C3235.66,1700.31 3229.87,1709.77 3220.47,1712.03C3210.28,1713.72 3200.09,1717.58 3193.58,1717.99C3191.15,1718.15 3190.24,1713.84 3190.12,1715.14C3189.97,1716.6 3189.04,1713.04 3190.15,1713.01C3194.08,1712.93 3191.82,1711.32 3190.08,1708.96Z" style="fill:#fff;"/>
            <path d="M2522.74,2350.55C2523.84,2352.68 2523.98,2355.36 2526.02,2352.28C2527.21,2350.49 2536.03,2353.12 2531.25,2352.74C2530.11,2352.65 2533.13,2353.5 2532.61,2355.33C2532.12,2357.09 2531.37,2359.13 2529.79,2361.46C2524.27,2369.56 2514.33,2379.91 2513.62,2381.32C2506.76,2395.02 2501.12,2409.24 2495.64,2423.6C2487.4,2445.14 2480.25,2467.12 2474.88,2489.45C2460.89,2543.42 2457.8,2593.88 2463.89,2643.35C2470.03,2693.31 2485.55,2742.24 2508.73,2792.73C2535.19,2850.26 2567.12,2909.27 2604.02,2964.93C2640.64,3020.17 2682.17,3072.05 2726.89,3116.62C2786.47,3173.78 2857.65,3221.32 2919.59,3277.5C2947.74,3303.03 2973.48,3330.75 2996.66,3360.33C3006.23,3373.95 3015.28,3387.67 3022.59,3402.4C3038.73,3434.94 3049.2,3469.18 3062.31,3503.3C3067.23,3512.65 3063.62,3524.24 3054.27,3529.15C3044.92,3534.07 3033.33,3530.47 3028.41,3521.11C3014.14,3500.05 3000.59,3479.18 2986.38,3458.26C2973.17,3438.8 2959.4,3420.13 2943.05,3402.83C2921.71,3376.21 2897.16,3352.28 2872.19,3328.48C2811.14,3270.29 2744.59,3215.86 2688.09,3154.68C2642.07,3106.71 2599.93,3050.9 2562.26,2992.16C2524.86,2933.83 2491.79,2872.63 2464.82,2812.72C2439.83,2757.31 2423.3,2703.61 2417.05,2648.91C2410.76,2593.81 2414.77,2537.69 2430.95,2477.83C2436.62,2457.71 2442.99,2437.63 2451.42,2418.41C2459.9,2399.07 2470.21,2380.68 2481.68,2363.02C2483.31,2360.79 2503.66,2335.49 2514.56,2333.6C2525.27,2331.75 2525.29,2330.63 2526.82,2333.12C2528.71,2336.21 2531.48,2331.86 2531.46,2334.82C2531.42,2339.83 2541.5,2338.15 2535.45,2342.42C2534.33,2343.21 2536.61,2344.21 2534.74,2344.9C2533.9,2349.34 2529.61,2352.26 2525.17,2351.42C2524.3,2351.26 2523.48,2350.96 2522.74,2350.55ZM2520.38,2348.58C2519.87,2347.96 2519.45,2347.28 2519.14,2346.54C2518.92,2347.69 2518.04,2348.81 2519.54,2348.6C2519.84,2348.55 2520.12,2348.55 2520.38,2348.58ZM2518.67,2345C2518.58,2344.55 2518.52,2344.08 2518.51,2343.61C2517.95,2344.07 2517.32,2344.38 2518,2344.64C2518.28,2344.74 2518.5,2344.86 2518.67,2345Z" style="fill:#fff;"/>
            <path d="M2624.16,2434.03L2634.13,2479.55C2638.29,2495.01 2643.52,2510.09 2648.61,2525.19C2656.25,2547.83 2664.09,2570.3 2674.74,2591.82C2679.76,2600.82 2676.53,2612.21 2667.53,2617.23C2658.52,2622.25 2647.14,2619.01 2642.12,2610.01C2632.42,2595.37 2623.22,2580.6 2615.91,2564.74C2605.03,2541.17 2597.98,2515.98 2591.53,2490.7C2588.53,2478.27 2581.67,2458.27 2582.73,2440.99C2583.39,2430.22 2585.82,2420.62 2591.01,2413.34C2596.31,2413.18 2593.71,2403.58 2600.66,2408.35C2661.2,2449.95 2654.78,2457.72 2624.16,2434.03ZM2620.79,2431.38C2618.67,2429.68 2616.46,2427.85 2614.16,2425.88C2614.06,2425.95 2613.96,2426.02 2613.86,2426.08C2615.4,2428.45 2620.75,2441.96 2617.74,2432.51C2617.09,2430.48 2620.53,2434.11 2620.5,2432.39C2620.49,2431.99 2620.6,2431.66 2620.79,2431.38ZM2613.49,2426.31C2612.78,2426.72 2612.02,2427.02 2611.24,2427.2C2612.21,2427.65 2614.18,2429.92 2613.56,2426.72C2613.53,2426.56 2613.51,2426.42 2613.49,2426.31ZM2601.35,2420.76C2600.77,2417.72 2601.95,2414.47 2604.63,2412.55C2600.7,2415.37 2600.26,2418.27 2601.35,2420.76Z" style="fill:#fff;"/>
            <path d="M2290.82,771.468C2293.06,768.337 2297.27,767.123 2300.9,768.782C2305.01,770.662 2306.82,775.526 2304.94,779.636C2311.45,785.185 2303.55,781.351 2305.84,784.609C2314.75,797.286 2300.11,781.215 2300.04,789.596C2300.02,792.173 2298.38,787.717 2297.86,790.069C2297.14,793.293 2296.32,787.227 2294.97,790.1C2292.9,794.486 2294.25,785.35 2290.74,788.945C2288.91,790.825 2290.93,786.116 2288.63,787.741C2284.55,790.627 2291.38,782.585 2284.92,784.164C2280.44,785.256 2289.25,782.607 2281.56,779.497C2279.27,778.572 2278.64,776.367 2276.46,770.617C2275.36,767.711 2276.3,763.542 2275.9,761.513C2273.27,744.615 2269.04,728.454 2263.22,712.881C2257.5,697.545 2250.04,682.887 2240.77,668.746C2221.07,637.848 2191.68,597.661 2158.88,590.201C2142.68,586.517 2127.52,595.514 2111.82,619.576C2067.9,686.847 2060.58,817.934 2068.57,970.619C2084.56,1276.24 2167.92,1666.03 2194.37,1831.3C2201.71,1878.79 2213.24,1986.41 2235.53,2080.12C2248.3,2133.78 2267.86,2180.08 2286.35,2210.86C2289,2215.29 2289.27,2219.9 2291.81,2223.79C2300.06,2230.67 2301.18,2242.95 2294.3,2251.2C2287.43,2259.46 2275.14,2260.58 2266.89,2253.7C2258.18,2249.07 2249.95,2243.11 2242.18,2234.63C2221.71,2212.28 2208.24,2175.37 2195.53,2135.15C2163.15,2032.61 2148.7,1895.63 2139.62,1839.96C2113.59,1673.53 2031.02,1280.9 2016.27,973.241C2008.3,806.987 2021.5,664.9 2069.69,591.92C2101.79,543.302 2137.56,533.674 2170.29,541.599C2213.65,552.097 2255.38,602.434 2280.58,643.992C2290.93,661.543 2299.11,679.608 2305.1,698.41C2311.02,717.003 2314.99,736.21 2317.06,756.179C2317.4,759.476 2318.58,765.799 2316.87,770.743C2316.16,772.805 2312.64,773.464 2313.78,774.522C2316.03,776.592 2309.33,773.71 2310.29,772.814C2312.56,770.69 2307.16,772.482 2308.84,770.845C2317.01,762.86 2301.47,772.79 2302.74,765.547C2303.88,759.065 2298.9,770.483 2297.18,764.305C2296.1,760.401 2295.86,768.663 2293.44,764.899C2291.96,762.579 2293.27,768.246 2291.04,766.004C2289.07,764.019 2291.77,769.906 2288.88,767.832C2286.01,765.777 2292.27,771.802 2288.17,769.745C2286.76,769.037 2289.28,770.327 2290.82,771.468Z" style="fill:#fff;"/>
            <path d="M2414.27,2417.33C2413.1,2420.61 2404.07,2430.48 2406.85,2421.14C2408.64,2415.12 2392.62,2407.74 2373.83,2389.33C2355.39,2369.25 2334.97,2351.17 2316.01,2331.55C2302.74,2317.81 2290.43,2303.21 2278.7,2288.17C2234.05,2230.88 2149.98,2146.76 2060.43,2096.74C2002.07,2064.15 1941.58,2045.23 1889.14,2063.82C1880.4,2066.93 1870.86,2070.25 1862.54,2075.18C1857.27,2078.32 1852.34,2082.01 1849.78,2087.75C1837.39,2115.47 1853.19,2163.89 1874.09,2215.32C1906.27,2294.54 1956.53,2378.77 1978.63,2413.94L2170.68,2695.88C2240.29,2805.59 2275.07,2877.85 2326.31,2925.8C2347.81,2945.93 2372.75,2960.61 2404.4,2973.33C2440.91,2988 2486.8,2996.65 2546.8,3009.54C2554.04,3011.1 2561.71,3011.84 2568.67,3015.41C2571.03,3016.62 2571.75,3018.02 2573.83,3019.74C2584.01,3020.93 2591.3,3030.17 2590.11,3040.36C2588.91,3050.54 2579.67,3057.84 2569.48,3056.64C2566.66,3057.82 2565.1,3059.02 2562.15,3059.65C2556.65,3060.83 2551.19,3060.27 2545.78,3060.01C2448.55,3055.22 2386.17,3031.55 2338.77,3003.6C2254.79,2954.07 2219.26,2871.12 2127.81,2722.73L1935.57,2441.04C1909.02,2398.89 1843.79,2289.03 1812.84,2197.34C1794.95,2144.36 1789.8,2096.47 1802.99,2066.87C1808.72,2054.01 1817.78,2043.96 1828.82,2036.03C1841.69,2026.78 1857.5,2020.63 1871.97,2015.48C1937.08,1992.31 2013.09,2011.26 2085.56,2051.78C2181.36,2105.35 2271.23,2195.51 2318.89,2256.91L2406.48,2362.25C2421.04,2384.01 2431.47,2393.74 2432.17,2399.96C2433.87,2415.13 2430.99,2409.48 2430.16,2411.94C2427.46,2420.03 2429.56,2424.89 2420.86,2422.56C2417.76,2422.15 2415.3,2420.06 2414.27,2417.33ZM2413.92,2416.11C2413.73,2415.23 2413.69,2414.31 2413.82,2413.37C2414.26,2410.07 2416.61,2407.49 2419.61,2406.59C2413.11,2407.66 2409.14,2411.76 2413.92,2416.11Z" style="fill:#fff;"/>
            <path d="M1934.01,2491.31C1937.55,2490.74 1941.19,2492.56 1942.76,2495.98C1944.64,2500.09 1942.83,2504.96 1938.72,2506.84C1938.91,2512.24 1941.28,2506.79 1933.31,2514.57C1931.08,2516.74 1926.2,2516.51 1920.16,2517.09C1906.43,2518.38 1884.11,2517.24 1859.84,2517.61C1841.51,2517.89 1822.01,2517.95 1804.85,2521.95C1790.87,2525.22 1778.27,2530.14 1771.84,2540.95C1738.63,2596.26 1771.21,2689.82 1819.8,2787.89C1890.41,2930.42 2001.61,3079.92 2045.23,3144.67C2072.14,3184.16 2103,3237.72 2139.02,3283.33C2161.6,3311.91 2186.14,3337.32 2213.35,3352.7C2225.53,3359.33 2235.21,3361.71 2243.3,3358.59C2258.33,3352.8 2263.99,3332.9 2270.45,3310.73C2290.16,3243.09 2288.71,3143.46 2284.69,3114.61C2278.33,3061.13 2257.58,3006.19 2253.88,2951.6C2253.4,2944.46 2255.19,2938.76 2255.85,2931.74C2253.1,2921.66 2259.05,2911.25 2269.12,2908.51C2279.2,2905.76 2289.61,2911.71 2292.35,2921.78C2295.61,2925.3 2298.46,2927.1 2301.01,2931.21C2305.69,2938.76 2307.67,2947.63 2310.46,2956.21C2326.25,3004.82 2336.65,3056.76 2344.69,3105.91C2348.52,3129.84 2353.43,3197.46 2345.3,3261.8C2340.29,3301.49 2329.93,3339.73 2314.51,3366.96C2299.96,3392.64 2280.68,3409.82 2257.37,3415.45C2237.37,3420.28 2213.29,3417.98 2185.46,3400.88C2153,3381.66 2123.4,3351.04 2096.8,3316.04C2060.85,3268.75 2030.06,3213.6 2003.24,3172.77C1952.54,3096.58 1812.12,2904.97 1746.89,2742.84C1710.3,2651.88 1698.88,2569.09 1730.6,2516.21C1746.74,2489.56 1779.21,2475.8 1816.19,2472C1831.12,2470.47 1846.73,2469.84 1861.59,2471.08C1887.84,2473.27 1911.68,2477.83 1925.14,2481.84C1928.56,2482.86 1930.88,2486.74 1932.08,2485.33C1936.21,2480.49 1935.78,2488.36 1934.01,2491.31Z" style="fill:#fff;"/>
            <path d="M1835.08,2951.22C1835.89,2951.06 1837.53,2951.74 1836.8,2950.62C1836.05,2949.46 1841.37,2950.27 1839.48,2951.02C1836.27,2952.28 1839.97,2960.12 1839.55,2968.54C1829.27,3006.85 1825.92,3046.56 1824.5,3086.5C1823.06,3127.28 1823.78,3168.34 1825.02,3208.44C1827.75,3296.87 1844.9,3379.19 1871.87,3457.82C1904.9,3554.09 1953.79,3644.17 2007.46,3734.29C2016.71,3749.82 2026.91,3764.89 2035.2,3781.13C2038.84,3788.26 2041.31,3795.57 2044.48,3802.95C2049.4,3810.55 2047.22,3820.71 2039.62,3825.62C2032.03,3830.54 2021.87,3828.36 2016.95,3820.76C2012.22,3815.86 2007.36,3811.57 2003.08,3806.29C1993.37,3794.33 1985.59,3781.01 1977.34,3768.13C1928.93,3692.51 1887.73,3614.51 1854.7,3534C1813.12,3432.64 1786.39,3326.1 1783.29,3209.63C1782,3160.11 1780,3109.07 1785.19,3059.05C1788.74,3024.81 1795.82,2991.2 1806.73,2958.74C1810.65,2952.07 1811.68,2946.51 1814.08,2944.45C1826.95,2933.37 1822.75,2932.43 1828.97,2936.9C1830.06,2937.69 1831.95,2937.2 1833.47,2938.47C1837.33,2940.81 1838.58,2945.85 1836.24,2949.72C1835.9,2950.27 1835.51,2950.77 1835.08,2951.22ZM1834.66,2951.61C1833.64,2952.51 1832.42,2953.13 1831.13,2953.44C1833.48,2954.06 1834.85,2954.34 1834.66,2951.73C1834.65,2951.69 1834.65,2951.65 1834.66,2951.61Z" style="fill:#fff;"/>
            <path d="M1899.59,3597.4C1899.56,3596.48 1899.54,3595.56 1899.52,3594.64C1899.88,3595.73 1899.82,3596.64 1899.59,3597.4ZM1888.53,3611.81C1893.41,3610.68 1897.99,3608.14 1898.13,3600.26C1898.15,3599.68 1899.16,3598.8 1899.59,3597.4C1900.65,3642.27 1898.62,3686.68 1899.79,3731.28C1900.28,3749.9 1901.25,3768.56 1903.54,3787.31C1911.36,3853.39 1927.95,3917.47 1948.61,3980.35C1969.54,4044.06 1994.71,4106.56 2021.21,4167.98C2069.5,4278.77 2169.86,4354.59 2240.43,4449.08C2273.62,4493.52 2300.83,4541.67 2315.14,4598.39C2331.09,4668.12 2338.34,4741.72 2338.3,4816.33C2338.26,4924.53 2324.17,5034.44 2313.43,5137.37C2310.08,5173.89 2302.87,5214.7 2299.73,5255.53C2297.65,5282.69 2299.11,5309.7 2300.58,5335.34C2301.23,5346.74 2301.02,5357.78 2302.6,5368.6C2304.71,5377.05 2299.57,5385.62 2291.12,5387.74C2282.67,5389.85 2274.1,5384.7 2271.98,5376.26C2267.73,5364.43 2263.95,5352.24 2262.06,5339.25C2260.28,5327.1 2260.66,5314.48 2260.63,5301.76C2260.48,5245.66 2269.3,5185.67 2272.63,5134.34C2277.1,5032.57 2282.09,4923.86 2278.22,4817.41C2275.67,4747.32 2269.73,4678.18 2253.86,4612.85C2243.13,4563.96 2221.12,4521.97 2193.51,4483.37C2122.61,4384.2 2020.04,4304.45 1971.32,4189.42C1938.89,4113.62 1907.62,4036.5 1885.43,3956.97C1870.44,3903.25 1859.73,3848.45 1854.44,3792.59C1851.92,3765.39 1851.53,3738.42 1852.52,3711.51C1853.95,3672.58 1857.97,3633.88 1859.08,3594.64C1865.77,3574.49 1877.16,3572.91 1879.57,3573.73C1883.97,3575.22 1894.14,3572.77 1895.13,3581.41C1895.34,3583.32 1901.31,3584.15 1898.24,3589.22C1896.03,3592.88 1892.9,3594.18 1889.14,3603.69C1888.01,3606.55 1888.66,3609.62 1888.53,3611.81ZM1872.32,3610.81C1872.3,3609.93 1872.42,3609.03 1872.69,3608.14C1872.96,3607.29 1873.44,3605.71 1872.78,3604.38C1869.41,3597.61 1862.73,3596.47 1861.22,3599.25C1858.84,3603.64 1862.36,3605.26 1863.88,3605.82C1867.54,3607.19 1870.15,3609.18 1872.32,3610.81Z" style="fill:#fff;"/>
            <path d="M2990.38,3512.84C2991.97,3509.11 2993.41,3506.26 2994.68,3504.14C2996.17,3506 2997.71,3507.91 2999.29,3509.88C2998.93,3510.54 2998.52,3511.2 2998.07,3511.84C2999.13,3511.7 3000.15,3511.84 3001.08,3512.1C3005.03,3517.01 3009.25,3522.23 3013.76,3527.79C3014.68,3528.92 3015.41,3529.46 3015.18,3534.05C3014.68,3544.15 3002.17,3565.33 2999.53,3571.93L2933.72,3691.67C2895.59,3760.8 2866.17,3835.01 2829.22,3904.99C2816.19,3929.66 2803.06,3954.25 2786.56,3976.61C2782.27,3982.43 2777.49,3987.33 2772.72,3992.74C2767.64,4001.49 2756.42,4004.47 2747.68,3999.4C2738.93,3994.33 2735.95,3983.11 2741.02,3974.36C2743.27,3967.76 2744.81,3961.35 2747.38,3954.87C2757.31,3929.84 2768.89,3905.64 2779.94,3880.97C2812.65,3807.95 2846.04,3734.72 2884.08,3664.53L2954.15,3545.99C2958.55,3540.32 2971.51,3519.39 2979.87,3513.52C2982.1,3511.95 2983,3512.26 2984.27,3512.29C2986.8,3512.36 2988.8,3512.56 2990.38,3512.84ZM3001.35,3503.85C3005.52,3509.97 3007.46,3514.02 3005.38,3514.01C3004.93,3514.01 3003.26,3512.72 3001.08,3512.1C3000.48,3511.35 2999.88,3510.61 2999.29,3509.88C3000.4,3507.81 3001.08,3505.68 3001.35,3503.85ZM3001.35,3503.85C3000.44,3502.51 2999.42,3501.08 2998.32,3499.56C3000.79,3497.69 3001.9,3500.14 3001.35,3503.85ZM2994.68,3504.14C2907.25,3395.05 2974.04,3466.27 2998.32,3499.56C2997.32,3500.32 2996.11,3501.78 2994.68,3504.14ZM2991.5,3519.05C2991.04,3519.12 2990.6,3519.11 2990.22,3519C2989.69,3521 2991.76,3523.52 2993.08,3524.89C2991.82,3523.2 2991.27,3521.1 2991.5,3519.05ZM2998.57,3528.1C3000.87,3528.58 3003.68,3528.16 3006.14,3524.96C3004.3,3527.36 3001.38,3528.46 2998.57,3528.1Z" style="fill:#fff;"/>
            <path d="M3140.9,3592.58C3141.21,3592.43 3141.52,3592.3 3141.85,3592.18C3141.95,3591.7 3141.85,3591.12 3142.21,3591.64C3142.3,3591.77 3142.38,3591.89 3142.46,3591.99C3143.04,3591.84 3143.65,3591.74 3144.27,3591.72C3144.33,3591.39 3144.36,3591.18 3144.44,3591.4C3144.48,3591.51 3144.52,3591.62 3144.56,3591.72C3144.6,3591.72 3144.63,3591.72 3144.67,3591.72C3144.65,3591.76 3144.63,3591.81 3144.62,3591.86C3146.21,3595.59 3147.56,3590.16 3147.52,3591.9C3147.43,3596.07 3151.34,3591.03 3150.28,3593.52C3148.91,3596.76 3154.15,3593.74 3152.14,3595.87C3149.29,3598.9 3156.9,3598.06 3153.15,3599.5C3148.34,3601.35 3158.6,3607.13 3151.54,3604.89C3150.74,3604.63 3150.75,3606.14 3150.74,3607.65C3154.97,3607.36 3169.94,3612.72 3158.27,3614.03C3156.92,3614.18 3157.86,3617.12 3157.35,3619.6L3142.66,3676.25C3131.99,3715.83 3126.69,3757.03 3118.1,3797.37C3114.34,3815.04 3108.2,3831.42 3104.4,3849C3103.83,3858.96 3095.28,3866.57 3085.33,3866C3075.38,3865.43 3067.76,3856.88 3068.33,3846.93C3066.54,3821.66 3064.62,3796.69 3067.33,3771.36C3071.31,3734.16 3083.23,3698.14 3093.99,3662.58C3098.44,3648.53 3102.47,3634.17 3108.58,3620.68C3111.29,3614.7 3114.51,3609.18 3117.77,3603.5C3120.75,3598.82 3121.83,3594.44 3124.46,3593.41C3136.16,3588.85 3130.53,3590.24 3135.4,3592.19C3140.56,3594.26 3138.04,3590.34 3139.82,3591.84C3140.27,3592.22 3140.63,3592.46 3140.9,3592.58ZM3149.89,3610.47C3149.4,3610.37 3148.6,3609.66 3147.33,3607.95C3147.19,3607.77 3147.03,3608.11 3146.84,3608.58C3147.8,3609.59 3149.68,3612.1 3149.89,3610.47ZM3145.89,3610.13C3145.51,3610.3 3145.05,3609.88 3144.48,3608.09C3142.75,3608.07 3141.15,3607.52 3139.84,3606.59C3135.69,3620.89 3141.72,3609.59 3142.63,3608.14C3143.16,3607.31 3144.89,3613.1 3145.89,3610.13Z" style="fill:#fff;"/>
            <path d="M2433.4,2733.08C2433.61,2733.3 2433.97,2733.88 2434.59,2735.1C2435.3,2736.47 2436.55,2736.99 2435.91,2741.35C2434.14,2753.35 2415.82,2778.18 2414.22,2780.99C2408.7,2788.56 2401.81,2803.03 2392.21,2808.41C2378.64,2816.02 2385.2,2801.39 2373.47,2805.45C2372.84,2809.97 2368.66,2813.13 2364.13,2812.5C2359.61,2811.87 2356.45,2807.68 2357.08,2803.16C2354.38,2802.3 2352.35,2801.72 2350.86,2801.38C2349.62,2800.16 2347.61,2798.44 2344.53,2796.05C2341.9,2794.01 2343.51,2793.93 2342.76,2790.46C2341.48,2784.6 2346.35,2778.44 2350.08,2772.11C2355.32,2763.21 2364.57,2755.56 2369.31,2749.18C2371.38,2746.8 2387.03,2720.59 2397.66,2715.37C2426.98,2700.98 2428.66,2710.61 2428.66,2710.63C2436.09,2715.58 2438.18,2725.57 2433.4,2733.08ZM2433.18,2733.41C2433.11,2733.52 2433.03,2733.64 2432.95,2733.75C2433.14,2733.72 2433.24,2733.7 2433.24,2733.7C2433.24,2733.7 2433.21,2733.56 2433.18,2733.41ZM2350.86,2801.38C2357.94,2808.33 2339.97,2798.85 2350.86,2801.38Z" style="fill:#fff;"/>
            <path d="M2164.04,3203.51C2163.75,3206.86 2161.4,3209.82 2157.97,3210.73C2154.72,3214.29 2152.05,3213.57 2150.37,3215.09C2147.26,3217.9 2147,3213.98 2144.69,3215.51C2142.77,3216.79 2143.28,3213.51 2141.41,3214.21C2133.84,3217.03 2141.59,3207.85 2134.44,3204.56C2130.52,3202.76 2137.74,3201.24 2133.96,3196.64C2132.08,3194.35 2136.12,3194.86 2134.47,3191.08C2132.59,3186.79 2133.91,3187.63 2135.44,3179.83C2136.13,3176.33 2139.71,3173.39 2143.21,3169.5C2152.13,3159.58 2166.7,3146.79 2182.16,3137.16C2200.4,3125.81 2219.41,3120.46 2224.54,3117.25C2233.08,3109.5 2246.3,3110.14 2254.05,3118.68C2261.8,3127.22 2261.16,3140.45 2252.62,3148.2C2248.53,3153.5 2234.98,3170.4 2216.51,3185.37C2203.49,3195.93 2188.18,3204.73 2177.7,3211.12C2175.08,3212.71 2172.78,3213.7 2170.68,3214.25C2168.21,3214.89 2166.66,3210.52 2166.62,3212.31C2166.56,3214.69 2163.09,3209.74 2164.86,3209.7C2166.19,3209.67 2163.48,3208 2164.56,3207.81C2168.15,3207.2 2165.51,3205.37 2164.04,3203.51ZM2163.79,3200.69C2163.8,3200.68 2163.81,3200.67 2163.82,3200.66C2165.95,3198.9 2164.04,3198.49 2162.25,3197.66C2162.95,3198.53 2163.49,3199.55 2163.79,3200.69ZM2160.17,3195.84C2160.03,3195.41 2160.03,3194.9 2160.23,3194.28C2160.76,3192.67 2157.82,3194.3 2157.97,3192.5C2158.17,3190.21 2154.71,3194.01 2153.94,3191.21C2153.73,3190.43 2152.34,3191.35 2151.64,3191.87C2152.23,3191.58 2151.91,3194.24 2153.8,3194.89C2156.05,3194.3 2158.33,3194.7 2160.17,3195.84ZM2151.47,3192.01C2151.2,3192.21 2151.13,3192.29 2151.47,3192.01Z" style="fill:#fff;"/>
        </g>
    </g>
</svg>
