<?xml version="1.0" encoding="UTF-8" standalone="no"?>
<!DOCTYPE svg PUBLIC "-//W3C//DTD SVG 1.1//EN" "http://www.w3.org/Graphics/SVG/1.1/DTD/svg11.dtd">
<svg width="100%" height="100%" viewBox="0 0 5906 5906" version="1.1" xmlns="http://www.w3.org/2000/svg" xmlns:xlink="http://www.w3.org/1999/xlink" xml:space="preserve" xmlns:serif="http://www.serif.com/" style="fill-rule:evenodd;clip-rule:evenodd;stroke-linejoin:round;stroke-miterlimit:2;">
    <g id="Peace">
        <g id="_3" serif:id="3">
            <path d="M3678.11,3677.04C3678.18,3678.27 3680.56,3681.06 3680.73,3683.93C3681.14,3691.11 3680.18,3701.02 3680.04,3713.11C3679.68,3742.87 3680.83,3784.91 3680.69,3830.73C3680.34,3945.88 3677.09,4083.87 3676.39,4107.53C3674.4,4168.76 3673.78,4232.58 3668.18,4295.35C3664.3,4338.73 3658.06,4381.62 3647.64,4422.91C3645.26,4432.31 3641.37,4440.82 3636.43,4448.7C3630.52,4458.13 3622.98,4466.59 3615.74,4475.05C3611.02,4480.57 3605.13,4485.32 3604.77,4492.93C3603.74,4512.11 3611.74,4530.36 3619.47,4548.89C3630.08,4574.3 3641.2,4599.86 3644.68,4625.67C3646.83,4641.6 3646.64,4657.65 3642.08,4673.93C3637.52,4690.27 3629.96,4704.96 3621.83,4719.54C3606.39,4747.23 3586.95,4773.62 3573.01,4803.5C3566.66,4817.11 3562.46,4831.81 3561.72,4848.55C3557.49,4896.85 3555.89,4946.27 3554.69,4995.91C3552.88,5070.97 3552.63,5146.57 3553,5219.78C3552.73,5238.73 3556.58,5259.94 3557.8,5281.36C3558.72,5297.5 3559.5,5313.48 3556.62,5328.54C3555.99,5331.86 3555.7,5334.89 3554.11,5337.8C3548.68,5347.74 3545.29,5350.43 3537.45,5357.76C3536.76,5362.23 3532.57,5365.3 3528.11,5364.61C3523.64,5363.92 3520.57,5359.74 3521.26,5355.27C3516.64,5347.09 3512.1,5345.91 3507.62,5337.07C3506.42,5334.71 3505.65,5332.51 3505.01,5329.89C3501.82,5316.94 3498.55,5303.66 3495.53,5289.92C3490.34,5266.32 3486.99,5242.33 3485.91,5220.99C3483.83,5159.26 3481.09,5095.85 3481.23,5032.42C3481.36,4968.29 3484.43,4904.23 3490.38,4841.98C3494.05,4815.73 3502.82,4793.21 3514.72,4772.65C3537.64,4733.07 3573.93,4702.97 3586.04,4659.91C3590.1,4641.41 3583.37,4624.23 3575.93,4606.97C3565.9,4583.66 3552.88,4560.59 3545.58,4536.84C3540.87,4521.51 3538.54,4505.88 3539.21,4490.02C3539.67,4479.06 3542.42,4469.24 3546.71,4460.15C3551.93,4449.09 3559.76,4439.21 3568.09,4429.5C3574.08,4422.52 3581.29,4416.16 3583.58,4406.9C3592.99,4368.9 3598.42,4329.43 3601.85,4289.54C3607.15,4227.99 3607.65,4165.44 3609.5,4105.41C3610.46,4079.64 3610.27,3917.74 3617.08,3798.2C3620.15,3744.37 3621.78,3698.21 3629.13,3677.64C3633.95,3664.14 3638.08,3657.86 3641,3656.05C3645.16,3654.97 3645.07,3651.26 3648.81,3651.45C3652.67,3651.64 3653.82,3649.25 3657.92,3650.53C3665.3,3647.45 3673.79,3650.95 3676.86,3658.33C3679.93,3665.7 3676.44,3674.19 3669.06,3677.26C3668.42,3678.5 3669.78,3680.17 3669.78,3680.17C3669.78,3680.17 3674.52,3682.08 3674.36,3679.88C3674.29,3679.01 3676.61,3677.81 3678.11,3677.04ZM3678.11,3677.04C3678.09,3676.73 3678.23,3676.52 3678.59,3676.43C3679.97,3676.11 3679.29,3676.44 3678.11,3677.04Z" style="fill:#fff;"/>
            <path d="M3609.16,3588.2C3612.47,3590.8 3613.29,3595.56 3610.93,3599.14C3608.44,3602.91 3603.35,3603.95 3599.58,3601.47C3589.66,3610.1 3602.29,3599.32 3589.11,3601.93C3585.51,3602.64 3588.08,3600.57 3584.54,3598.94C3577.14,3595.53 3578.29,3582.88 3575.64,3576.72C3575.84,3570.43 3576.65,3563.97 3576.24,3557.42C3575.31,3542.74 3570.3,3528.67 3568.47,3513.24C3564.99,3483.8 3563.75,3453.18 3556.57,3424.51C3549.28,3395.45 3537.84,3368.21 3516.95,3347.25C3498.88,3329.07 3478.87,3311.96 3458.11,3295.18C3408.08,3254.74 3353.32,3216.82 3305.13,3177.01C3271.33,3148.43 3238,3119.29 3205.07,3089.68C3128.78,3021.09 3054.35,2950.48 2978.12,2882.21C2941.24,2848.39 2900.64,2822.88 2864.24,2790.47C2849.47,2777.32 2829.85,2766.37 2822.32,2747.09C2821.06,2743.88 2821.76,2742.33 2821.61,2738.86C2815.48,2731.5 2816.48,2720.55 2823.83,2714.42C2831.19,2708.29 2842.14,2709.29 2848.27,2716.64C2851.63,2717.87 2854.09,2717.51 2857.08,2719.41C2877.73,2732.54 2892.39,2751.61 2911.33,2765.22C2945.63,2789.89 2981.66,2811.35 3015.51,2838.88L3351.1,3121.01C3399.43,3160.42 3454.65,3197.47 3504.49,3237.92C3527.4,3256.52 3549.12,3275.9 3568.88,3296.21C3598.72,3327.01 3616.86,3365.89 3626,3408.34C3633.24,3441.91 3637.46,3477.68 3634.67,3512.02C3633.36,3528.24 3628.18,3542.98 3626.67,3558.3C3626.02,3564.89 3626.56,3571.41 3626.5,3577.76C3626.44,3579.16 3626.82,3581.04 3626.18,3582.85C3625.69,3584.24 3621.89,3584.38 3623.18,3585.19C3625.37,3586.57 3616.66,3586.1 3617.59,3584.17C3620.74,3577.66 3608.19,3591.78 3611.31,3585.66C3612.73,3582.87 3610.47,3586.54 3609.16,3588.2Z" style="fill:#fff;"/>
            <path d="M3367.41,3090.69C3368.12,3094.56 3365.95,3098.48 3362.14,3099.86C3362.12,3105.29 3359.91,3096.33 3357.01,3100.49C3355.41,3102.79 3356.72,3097.62 3354.14,3099.49C3351.68,3101.26 3355.21,3096.37 3351.14,3097.38C3346.76,3098.47 3353.8,3098.23 3343.83,3092.67C3341.7,3091.49 3341,3089.3 3339.22,3085.4C3336.65,3079.77 3335.94,3070.95 3334.99,3061.34C3332.75,3038.68 3334.01,3011.16 3334.1,3006.47L3340.08,2827.16C3344.66,2745.37 3348.72,2663.6 3354.56,2581.88C3360.39,2500.29 3367.99,2418.83 3374.45,2337.28C3381.13,2254.41 3389.23,2171.42 3394.28,2088.34C3397.61,2033.62 3399.65,1978.86 3398.85,1924.05C3397.69,1844.92 3386.52,1766.07 3383.42,1687.09C3382.03,1651.7 3382.22,1616.28 3385.39,1580.81C3401.32,1403.61 3453.41,1212.55 3473.3,1025.54C3481.71,946.503 3484.3,868.211 3475.36,792.098C3470.73,750.809 3462.01,725.849 3445.69,715.123C3433.49,707.108 3418.38,710.135 3402.31,716.968C3363.58,733.438 3322.46,773.828 3289.38,815.922C3265.68,846.075 3245.44,876.815 3236.06,903.362C3232.76,914.352 3221.16,920.598 3210.17,917.301C3199.18,914.004 3192.94,902.404 3196.24,891.414C3205.93,853.092 3231.15,804.321 3264.73,761.507C3298.42,718.557 3340.75,682.529 3379.41,664.966C3415.27,648.673 3449.48,648.345 3477.35,665.862C3503.88,682.538 3526.82,718.732 3535.37,784.855C3545.35,865.337 3543.33,948.202 3534.98,1031.9C3516.35,1218.61 3465.58,1409.57 3450.86,1586.47C3448.13,1619.14 3448.23,1651.75 3449.67,1684.33C3453.2,1763.85 3464.67,1843.23 3466.18,1922.92C3467.25,1979.45 3465.51,2035.94 3462.23,2092.38C3457.36,2175.94 3449.15,2259.39 3442.5,2342.74C3435.87,2424.34 3429.84,2506 3422.1,2587.5C3414.37,2668.96 3404.94,2750.2 3396.73,2831.61L3380.86,3008.54C3380.54,3013.01 3380.66,3039.22 3378.97,3060.89C3378.3,3069.58 3378.58,3077.72 3376.18,3082.75C3373.56,3088.27 3370.41,3090.37 3367.41,3090.69Z" style="fill:#fff;"/>
            <path d="M3151.58,1120.68C3151.11,1121.29 3151.48,1122.51 3155.71,1124.6C3158.61,1121.13 3163.78,1120.67 3167.24,1123.57C3170.71,1126.47 3171.17,1131.64 3168.27,1135.11C3172.28,1142.32 3172.82,1133.2 3174.22,1142.53C3174.78,1146.29 3174.09,1150.44 3172.75,1155.71C3171.69,1159.89 3169.66,1164.27 3168.09,1169.24C3152.18,1219.62 3139.44,1311.92 3127.72,1384.33C3121.03,1425.64 3114.22,1460.44 3111.13,1478.18C3098.19,1547.51 3086.2,1617.82 3072.17,1687.55C3062.72,1734.55 3052.42,1781.25 3040.11,1827.15L2974.78,2034.56C2958.38,2094.19 2940.64,2186.08 2910.27,2265.43C2887.71,2324.37 2857.77,2376.39 2815.43,2406.27C2806.2,2413.05 2796.46,2414.97 2786.91,2414.89C2771.8,2414.76 2756.24,2405.52 2743.36,2397.67C2698.34,2369.84 2661.24,2333.08 2631.53,2290.29C2588.69,2228.6 2561.68,2154.65 2542.67,2081.78C2524.52,2011.29 2510.82,1940.27 2500,1868.88C2465.82,1643.46 2458.37,1414.83 2426.29,1188.72C2418.42,1133.26 2409.74,1077.85 2398.03,1022.73C2392.22,989.973 2381.16,957.059 2371.88,923.833C2367.67,908.797 2362.43,894.187 2360.94,878.943C2360.3,872.34 2361.26,867.066 2361.59,860.526C2358.53,851.352 2363.49,841.421 2372.67,838.363C2381.84,835.304 2391.78,840.27 2394.83,849.444C2398.31,853.342 2401.66,855.731 2404.61,860.107C2414.6,874.924 2420.92,891.939 2428.5,908.564C2443.28,940.978 2455.35,974.654 2464.45,1007.75C2477.93,1064.3 2489.19,1121.09 2497.83,1178.23C2531.98,1404.08 2534.8,1633.25 2567.24,1858.95C2577.19,1928.2 2589.72,1997.15 2606.69,2065.6C2620.21,2120.85 2639.57,2176.31 2666.5,2226.64C2692.97,2276.1 2726.45,2320.97 2772.64,2353.74L2788.12,2365.72C2824.71,2342.22 2851.23,2299.03 2871.25,2249.99C2902.76,2172.82 2918.31,2081.95 2934.43,2023.45C2947.75,1974.45 2965.32,1926.56 2979.98,1877.9C2986.12,1857.54 2991.53,1837 2996.26,1816.29C3006.56,1770.94 3014.96,1724.9 3022.32,1678.58C3033.45,1608.58 3042.22,1538.04 3052.14,1468.48C3054.59,1452.08 3058.12,1420.99 3064.88,1384.16C3076.22,1322.32 3095.21,1244.52 3112.74,1188.94C3118.96,1169.24 3123.67,1151.46 3131.12,1139.56C3136.49,1131 3140.5,1122.33 3147.01,1121.46C3149.27,1121.16 3150.7,1120.89 3151.58,1120.68ZM3151.58,1120.68C3152.15,1119.93 3153.97,1120.1 3151.58,1120.68Z" style="fill:#fff;"/>
            <path d="M2236.88,659.472C2239.57,663.107 2238.8,668.239 2235.16,670.925C2231.53,673.612 2226.4,672.842 2223.71,669.207C2216.1,667.563 2213.14,669.018 2206.55,664.444C2178.38,644.913 2169.77,601.379 2138.62,583.735C2118.52,571.15 2103.19,577.901 2091.25,595.457C2078.29,614.522 2068.43,642.506 2060.36,675.328C2022.76,828.095 2028.66,1080.62 2030.83,1108.35C2035.58,1168.98 2046.58,1227.29 2060.17,1284.82C2081.14,1373.52 2108.31,1460.38 2129.72,1550.53L2199.16,1851.37C2212.68,1919.43 2224.53,1988.43 2242.39,2055.67C2253.98,2099.27 2268.01,2142.16 2287.28,2183.41C2301.05,2213.25 2316.62,2246.66 2333.22,2278.64C2344.2,2299.78 2355.58,2320.32 2367.29,2338.65C2381.7,2362.25 2402.27,2377.33 2417.69,2399.32C2421.23,2404.37 2426.33,2409.07 2427.49,2415.45C2427.91,2417.76 2427.5,2418.72 2427.14,2421.09C2432.08,2429.97 2428.87,2441.2 2419.99,2446.13C2411.1,2451.07 2399.88,2447.86 2394.94,2438.98C2392.83,2437.49 2390.78,2437.34 2388.96,2435.61C2373.66,2421.1 2361.19,2406.95 2347.3,2392.99C2339.31,2384.94 2331.98,2376.1 2325.29,2366.11C2312.39,2346.83 2299.7,2325.24 2287.55,2302.92C2269.92,2270.53 2253.43,2236.6 2238.79,2206.31C2217.77,2162.26 2202.03,2116.51 2189.46,2069.82C2171.08,2001.48 2159.43,1931.18 2145.82,1861.91L2077.41,1562.9C2056.16,1472.68 2029.06,1385.77 2008.36,1296.98C1994.33,1236.79 1983.23,1175.75 1978.52,1112.35C1976.38,1083.55 1971.54,821.497 2011.2,663.125C2038.59,553.745 2092.54,495.621 2165.18,541.506C2186.12,555.604 2201.84,575.382 2214.92,597.123C2222.86,610.318 2232.35,622.946 2237.33,636.948C2239.06,641.812 2239.71,645.81 2239.52,650.82C2239.34,655.637 2238.07,654.873 2236.88,659.472Z" style="fill:#fff;"/>
            <path d="M2395.87,2433.41C2393.01,2429.92 2393.52,2424.76 2397.01,2421.89C2400.51,2419.02 2405.67,2419.53 2408.54,2423.03C2416.02,2421.31 2411.68,2425.86 2413.92,2426.67C2415.91,2427.4 2413.33,2429.19 2414.39,2430.28C2418.76,2434.79 2410.12,2434.19 2409.29,2439.34C2408.84,2442.08 2405.67,2438.39 2402.98,2441.39C2401.77,2442.75 2400.95,2439.56 2396.87,2440.9C2394.88,2441.55 2393.23,2441.42 2388.82,2440.55C2382.46,2439.29 2374.66,2432.7 2370.59,2430.27C2364.9,2426.73 2359.58,2422.81 2354.53,2418.4C2347.18,2411.98 2340.95,2404.38 2334.9,2396.75C2321.76,2380.22 2307.91,2364.04 2293.64,2348.15C2279.39,2332.29 2264.71,2316.9 2249.75,2302.04C2188.73,2238.53 2126.82,2157.24 2051.41,2103.41C2005.87,2070.9 1955.09,2048.84 1894.62,2051.28L1862.31,2054.34C1848.3,2078.05 1859.66,2117.15 1874.67,2158.51C1900.2,2228.89 1944.39,2303.39 1964.29,2337.63C1983.01,2368.72 2002.62,2399.04 2022.7,2428.97C2070.41,2500.06 2120.53,2569.08 2166.49,2641.71C2199.75,2694.17 2257.54,2792.73 2311.74,2869.7C2337.01,2905.58 2361.3,2936.7 2381.79,2955.26C2410.08,2980.98 2443.37,3003.22 2479.08,3019.29C2503.83,3030.43 2530.08,3036.87 2556.08,3042.77C2564.14,3044.6 2571.84,3046.58 2579.69,3049.05C2583.56,3050.27 2586.28,3052.17 2590.06,3053.63C2598.66,3053.63 2605.65,3060.62 2605.65,3069.22C2605.65,3077.83 2598.66,3084.81 2590.06,3084.81C2585.51,3086.57 2581.89,3088.12 2577.12,3089.14C2567.07,3091.3 2556.88,3091.01 2546.59,3090.25C2525.21,3088.68 2504.34,3081.91 2483.85,3074.69C2433.63,3057.01 2386.68,3027.76 2347.79,2992.96C2325.13,2972.61 2297.9,2938.72 2269.89,2899.31C2214.84,2821.89 2156.01,2722.72 2122.2,2669.93L1917.12,2366.34C1891.08,2325.53 1829.28,2229.09 1802.47,2147.07C1786.07,2096.93 1784.65,2051.04 1801,2020.08C1810.07,2003.15 1824.27,1992.82 1840.92,1986.81C1857.04,1980.98 1876.31,1980.42 1892.46,1979.89C1969.62,1978.33 2034.72,2005.82 2091.5,2049.05C2168.51,2107.7 2229.7,2195.4 2290.65,2264.35C2304.89,2281.24 2318.85,2298.62 2332.22,2316.52C2345.58,2334.41 2358.38,2352.61 2370.45,2371.07L2393.91,2400.6C2397.09,2404.02 2405.37,2410.37 2408.02,2415.05C2408.72,2416.29 2407.78,2417.52 2407.78,2417.52C2407.78,2417.52 2405.13,2418.88 2404.62,2418.1C2403.6,2416.55 2402.44,2419.07 2401.43,2418.22C2396.11,2413.7 2397.79,2423.23 2392.65,2424.86C2390.75,2425.46 2393.57,2427.58 2391.7,2429.16C2390.5,2430.18 2393.6,2430.93 2392.44,2433.05C2392.05,2433.76 2392.65,2434.13 2394.2,2434.83C2395.99,2435.63 2394.45,2435.68 2395.87,2433.41Z" style="fill:#fff;"/>
            <path d="M2504.12,2338.21C2502.46,2337.78 2499.6,2336.47 2500.74,2337.11C2505.41,2339.74 2497.16,2341.29 2500.15,2341.64C2506.14,2342.35 2498.29,2348.4 2502.62,2346.87C2507.91,2344.99 2503.64,2354.43 2507.41,2350.5C2511.86,2345.86 2514.43,2360.49 2515.62,2351.5C2515.85,2349.76 2517.8,2353.22 2517.74,2351.09C2517.66,2348.45 2522.69,2355.65 2521.87,2350.98C2521.69,2349.97 2525.14,2352.92 2523.64,2352.64C2519.99,2351.98 2520.07,2361.77 2519.95,2362.07L2500.66,2405.11L2468.76,2499.68C2460.81,2536.56 2462.81,2577.3 2469.72,2618.27C2480.48,2682.03 2503.4,2746.34 2524.44,2798.82C2544.1,2847.9 2566.78,2897.58 2593.61,2944.73C2620.08,2991.25 2650.57,3035.33 2686.12,3073.89C2710.1,3099.82 2735.04,3124.77 2761.11,3148.49C2801.42,3185.18 2843.93,3219.28 2882.29,3258.05C2898.65,3274.59 2914.12,3292.02 2929,3310.11C2956.23,3343.39 2977.47,3379.87 2997.06,3417.24C3006.05,3434.41 3015.19,3451.51 3023.43,3469.05C3035.33,3494.36 3045.79,3520.2 3059.18,3544.83C3061.35,3548.83 3063.97,3552.57 3065.81,3556.74C3068.76,3563.48 3069.75,3570.08 3072.27,3577.03C3080,3587.76 3077.56,3602.73 3066.83,3610.46C3056.11,3618.18 3041.13,3615.74 3033.4,3605.01C3026.43,3599.24 3019.87,3594.25 3013.9,3587.51C3005.46,3578 2999.53,3566.64 2992.8,3555.91C2979.68,3534.96 2967.21,3513.68 2955.92,3491.7C2931.45,3444.07 2910.54,3394.64 2877.02,3351.57C2850.65,3316.64 2821.46,3284.55 2790.83,3253.8C2743.02,3205.81 2692.37,3160.67 2646.95,3110.15C2608.5,3068.81 2575.42,3021.55 2546.65,2971.62C2518.31,2922.47 2494.17,2870.71 2473.28,2819.51C2450.55,2763.82 2425.76,2695.52 2414.15,2627.72C2405.87,2579.4 2404.37,2531.31 2413.78,2487.81C2416.98,2473.03 2421.25,2458.09 2427.07,2443.61C2435.21,2423.34 2445.83,2403.95 2455.36,2385.12L2485.06,2336.7C2485.55,2336.36 2495.04,2326.19 2500.05,2326.36C2506.32,2326.56 2502.82,2323.21 2505.49,2325.53C2509.39,2328.91 2508.43,2321.6 2510.21,2324.63C2511.64,2327.06 2512.37,2322.35 2513.14,2324.67C2514.46,2328.63 2517.37,2322.05 2517.36,2325.8C2517.36,2329.24 2521.54,2324.52 2520.58,2327.8C2518.55,2334.75 2534.2,2330.39 2525.02,2336.12C2523.21,2337.25 2527.48,2337.89 2524.81,2338.87C2521.7,2340.02 2528.43,2342.85 2519.75,2343.01C2518.14,2347.23 2513.4,2349.35 2509.18,2347.74C2505.3,2346.26 2503.19,2342.15 2504.12,2338.21Z" style="fill:#fff;"/>
            <path d="M2602.47,2440.96C2602.67,2441.14 2602.87,2441.34 2603.07,2441.53C2608.6,2445.76 2612.32,2445.39 2616.29,2451.1C2637.61,2481.74 2640.6,2521.82 2659.12,2554.07C2672.72,2577.76 2688.56,2600.15 2707.15,2620.4C2714.55,2628.37 2714.08,2640.83 2706.12,2648.23C2698.16,2655.62 2685.69,2655.16 2678.3,2647.2C2647.02,2613.89 2622.24,2575.35 2603.35,2533.97C2593.37,2512.09 2582.18,2490.07 2578.3,2466.28C2577.9,2463.78 2577.43,2461.37 2578.01,2458.9C2579.48,2452.55 2581.47,2451.86 2584.61,2446.15C2590.34,2427.38 2599.24,2433.93 2600.34,2437.47C2600.44,2437.77 2600.98,2438.76 2601.77,2439.82C2602.04,2440.18 2602.27,2440.57 2602.47,2440.96Z" style="fill:#fff;"/>
            <path d="M2289.8,1482.76C2289.3,1483.27 2288.95,1483.64 2288.76,1483.33C2288.32,1482.62 2288.95,1482.61 2289.8,1482.76ZM2315.1,1491.25C2311.63,1488.24 2308.59,1482.73 2301.61,1483.62C2299.49,1483.89 2296.34,1481.01 2292.18,1483.09C2291.85,1483.25 2290.7,1482.91 2289.8,1482.76C2290.18,1482.36 2290.65,1481.87 2291.18,1481.55C2306.19,1476.75 2320.45,1469.09 2335.9,1465.75C2340.28,1464.8 2344.08,1465.43 2348.54,1465.12C2360.99,1459.67 2375.51,1465.36 2380.95,1477.8C2386.39,1490.24 2380.71,1504.76 2368.27,1510.2C2362.95,1514.41 2358.43,1518.7 2352.54,1522.11C2339.63,1529.58 2324.92,1533.48 2310.97,1538.59C2232.7,1544.49 2254.91,1488.75 2282.22,1486.48C2288.84,1485.93 2305.98,1490.41 2315.1,1491.25ZM2323.04,1510.38C2317,1519.37 2305.58,1532.62 2310.41,1535.59C2312.94,1537.14 2314.71,1533.45 2315.19,1532.46C2317.76,1527.18 2322,1525.31 2322.11,1522.35C2322.28,1517.99 2322.75,1513.99 2323.04,1510.38Z" style="fill:#fff;"/>
            <path d="M3155.04,1555C3153.07,1552.97 3151.44,1550.4 3154.91,1552.72C3154.84,1551.3 3155.91,1549.31 3159.74,1546.87C3162.76,1544.94 3167.62,1543.85 3173.89,1543.95C3177.89,1544.02 3181.62,1545.57 3183.21,1545.67C3199.8,1547.76 3219.55,1544.71 3235.17,1552.14C3239.65,1554.27 3245.36,1555.35 3247.07,1560.03C3249.14,1565.71 3248.1,1560.85 3247.15,1566.87C3255,1571.57 3257.54,1581.76 3252.84,1589.6C3248.13,1597.44 3237.95,1599.99 3230.1,1595.29C3225.79,1598.54 3231.22,1598.46 3226.01,1599.77C3224.03,1600.27 3222.2,1600.7 3220.19,1600.38C3206.05,1598.11 3190.8,1597.79 3177.05,1596.16C3174.13,1595.63 3166.43,1595.15 3160.07,1591.24C3154.12,1587.57 3149.65,1584 3148.3,1580.23C3138.82,1553.6 3146.23,1571.18 3145.91,1568.4C3145.33,1563.23 3143.33,1561.05 3144.56,1558.76C3145.31,1557.39 3146.93,1554.83 3151.14,1554.49C3151.51,1554.46 3152.46,1554.39 3154.01,1554.72C3154.36,1554.79 3154.71,1554.88 3155.04,1555ZM3158.39,1568.24C3156.5,1570.31 3153.6,1571.36 3150.66,1570.75C3154.78,1571.61 3157.14,1570.32 3158.39,1568.24Z" style="fill:#fff;"/>
            <path d="M3191.75,1716.32C3190.65,1717.04 3185.99,1710.92 3191.75,1716.32ZM3203.29,1701.62C3203.24,1701.76 3203.18,1701.78 3203.29,1701.62ZM3191.75,1716.32C3191.78,1716.3 3191.8,1716.29 3191.82,1716.26C3196.21,1711.49 3184.44,1707.1 3192.28,1707.11C3193.55,1707.12 3191.9,1705.21 3193.37,1705.49C3194.97,1705.79 3193.3,1702.52 3195.46,1703.58C3196.63,1704.15 3195.73,1700.65 3198.43,1702.44C3199.1,1702.88 3199.76,1702.07 3202.12,1703.52C3204.84,1702.96 3207.53,1703.83 3209.41,1705.6C3209.06,1702.91 3209.98,1699.32 3205.93,1702.45C3204.82,1703.31 3204.81,1699.53 3203.34,1701.55C3203.32,1701.58 3203.31,1701.6 3203.29,1701.62C3203.43,1701.3 3203.61,1700.35 3201.85,1699.7C3196.67,1697.77 3197.65,1700.11 3203.76,1690.84C3204.83,1689.23 3205.76,1688.17 3208.17,1687.11C3215.13,1684.06 3226.56,1681.94 3236.04,1683.26C3248.34,1684.96 3255.02,1689.72 3258.67,1692.29C3267.18,1693.35 3273.23,1701.13 3272.17,1709.64C3271.1,1718.16 3263.33,1724.21 3254.81,1723.14C3251.76,1724.31 3249.2,1731.01 3240.58,1733.83C3231.75,1736.73 3220.52,1737.31 3213.33,1735.66C3210.01,1734.91 3208.72,1733.99 3207.13,1732.27C3199.05,1723.51 3194.35,1718.75 3191.75,1716.32ZM3211.16,1708C3211.44,1708.59 3211.65,1709.22 3211.79,1709.89C3211.82,1710.01 3211.84,1710.13 3211.86,1710.25C3212.72,1709.08 3213.58,1708.23 3211.3,1708.02C3211.25,1708.01 3211.2,1708.01 3211.16,1708ZM3211.65,1713.79C3211.45,1714.48 3211.16,1715.14 3210.79,1715.76C3211.96,1715.22 3213.3,1715.13 3211.94,1714.05C3211.83,1713.96 3211.74,1713.88 3211.65,1713.79ZM3209.47,1717.43C3208.39,1718.48 3207.01,1719.24 3205.43,1719.56C3204.98,1720.2 3205.01,1720.78 3205.09,1721.15C3206.18,1721.15 3207.94,1721.18 3207.84,1720.53C3207.52,1718.35 3210.36,1720.15 3209.76,1718.73C3209.54,1718.22 3209.45,1717.79 3209.47,1717.43Z" style="fill:#fff;"/>
            <path d="M3014.27,3532.36C3016.08,3535.08 3015.39,3525.82 3016.08,3531.16C3017.3,3540.73 3021.23,3524.62 3019.28,3532.45C3017.43,3539.93 3025.7,3528.14 3021.56,3534.36C3024.96,3537.34 3025.3,3542.52 3022.32,3545.92C3021.28,3547.09 3019.99,3547.9 3018.6,3548.34C3021.92,3551.15 3030.83,3574.72 3024.57,3553.91C3024.25,3552.84 3027.71,3554.98 3026.15,3555.15C3023.46,3555.45 3029.06,3557.37 3028.27,3562C3026.62,3571.63 3019.89,3586.1 3012.59,3599.34C3006.44,3610.47 2999.22,3618.65 2998.62,3619.62C2983.54,3642.14 2970.11,3665.72 2956.27,3689.2C2900.07,3784.51 2859.47,3890.51 2804.85,3986.56C2800.03,3995.04 2795.7,4003.64 2788.68,4010.36C2782.13,4016.64 2777.16,4017.6 2769.46,4022.35C2765.07,4031.86 2753.79,4036.01 2744.28,4031.62C2734.77,4027.23 2730.61,4015.95 2735,4006.44C2733.63,3997.57 2731.02,3993.23 2731.47,3984.24C2731.95,3974.63 2735.49,3965.8 2738.62,3956.66C2758.87,3897.47 2787.68,3840.66 2814.43,3783.38C2838.33,3732.18 2863.02,3681.31 2893.1,3634.18C2906.3,3613.51 2921,3593.99 2936.01,3574.74C2936.88,3573.69 2944.25,3562.76 2955.89,3552.91C2968.49,3542.24 2982.33,3530.39 2992.84,3528.61C3006.6,3526.29 3004.63,3526.06 3008.25,3528.92C3011.68,3531.63 3013.46,3532.47 3014.27,3532.36ZM3017.58,3548.58C3017.14,3548.66 3016.7,3548.7 3016.26,3548.7C3017.05,3550.62 3017.5,3555.19 3017.43,3550.16C3017.43,3549.43 3017.47,3548.92 3017.58,3548.58ZM3015.1,3548.64C3014.81,3548.6 3014.53,3548.55 3014.25,3548.48C3014.32,3550.24 3013.89,3552.91 3014.84,3549.42C3014.93,3549.11 3015.01,3548.85 3015.1,3548.64ZM3013,3548.08C3012.82,3548 3012.64,3547.92 3012.47,3547.83C3011.9,3549.68 3010.94,3551.59 3012.79,3548.43C3012.86,3548.3 3012.94,3548.18 3013,3548.08ZM3014.27,3532.36C3014.03,3532 3013.74,3531.43 3013.41,3530.59C3010.57,3523.49 3016.65,3532.04 3014.27,3532.36Z" style="fill:#fff;"/>
            <path d="M3142.29,3612.76C3142.49,3617.28 3138.98,3621.11 3134.47,3621.3C3129.95,3621.5 3126.13,3617.99 3125.93,3613.48C3124.3,3612.15 3122.52,3612.24 3122.52,3612.24C3122.52,3612.24 3119.98,3612.86 3120.76,3613.2C3122.12,3613.77 3119.86,3615.62 3120.93,3615.92C3125.32,3617.14 3125.02,3622.95 3128.23,3621.76C3132.08,3620.34 3137.62,3626.33 3139.71,3620.87C3140.11,3619.82 3141.48,3620.53 3143.12,3620.33C3147.49,3619.77 3147.69,3620.87 3150.99,3626.32C3150.11,3633.28 3150.42,3639.76 3149.03,3646.7C3137.55,3703.92 3127.52,3762.99 3119.97,3821.56C3118.46,3833.31 3116.93,3844.8 3112.94,3855.8C3110.69,3861.99 3107.3,3864.9 3104.13,3870.63C3104.13,3885.34 3092.2,3897.27 3077.49,3897.27C3062.79,3897.27 3050.85,3885.34 3050.85,3870.63C3047.52,3865.52 3044.93,3863.27 3042.83,3857.5C3039.28,3847.71 3039.72,3837.18 3039.44,3826.65C3038.87,3804.84 3041.67,3782.8 3045.2,3760.99C3052.28,3717.37 3062.78,3673.64 3081.31,3634.34C3086.16,3624.04 3092.06,3614.99 3098.03,3605.46C3121.42,3596.22 3121.56,3586.25 3128.96,3590.9C3134.12,3594.14 3140.88,3589.53 3142.49,3595.93C3142.99,3597.94 3146.14,3598.22 3145.57,3600.84C3144.71,3604.76 3148.58,3606.63 3142.29,3612.76Z" style="fill:#fff;"/>
            <path d="M1965.37,2460.21C1969.06,2457.59 1974.17,2458.46 1976.79,2462.15C1979.4,2465.84 1978.53,2470.95 1974.85,2473.57C1974.96,2482.2 1973.11,2478.97 1965.66,2487.02C1962.09,2490.87 1956.86,2490.62 1950.35,2491.66C1937.47,2493.7 1920.88,2487.8 1913.45,2488.45C1875.35,2487.86 1836.92,2500.9 1805.71,2522.99C1775.84,2544.13 1752.45,2574.14 1745.07,2611.74C1742.34,2625.62 1743.09,2638.72 1745.91,2651.46C1749.12,2666.01 1754.88,2680.13 1761.62,2694.37C1787.46,2749.25 1819,2801.73 1852.64,2853.14C1903.9,2931.48 1960.39,3007.13 2013.92,3081.91C2029.36,3103.13 2056.88,3148.46 2092.16,3195.7C2118.46,3230.94 2149.37,3267.07 2180.58,3295.93C2202.96,3316.62 2225.67,3333.06 2247.31,3341.2C2265.33,3347.97 2282.16,3346.17 2295.87,3330.34C2317.31,3305.72 2327.16,3276.52 2333.11,3245.88C2345.28,3183.22 2334.12,3112.95 2330.18,3048.45C2329.51,3037.47 2328.57,3026.8 2330.05,3016.34C2331.24,3007.87 2333.99,3001.89 2336.38,2994.01C2335.31,2983.82 2342.71,2974.68 2352.9,2973.6C2363.1,2972.53 2372.24,2979.93 2373.31,2990.13C2376.94,2996.17 2380.67,3000.01 2383.64,3006.65C2387.28,3014.8 2389.29,3023.45 2391.41,3032.47C2405.25,3091.18 2414.91,3157.28 2410.46,3218.56C2406.19,3277.37 2386.28,3331.86 2344.11,3375.01C2296.1,3423.6 2237.69,3414.51 2179.39,3368.12C2133.22,3331.38 2087.09,3270.99 2048.1,3216.51C2016.04,3171.73 1988.55,3131.52 1973.61,3111.72C1917.25,3037.92 1857.09,2963.89 1803.73,2885.86C1767.41,2832.75 1734.46,2777.7 1706.84,2720.49C1696.03,2698 1687.5,2675.58 1683.99,2652.25C1681.46,2635.44 1681.5,2618.15 1685.01,2600.03C1695.41,2546.24 1727.34,2501.82 1770.61,2472.39C1812.61,2443.83 1864.91,2429.47 1915.44,2432.27C1924.04,2433.64 1942.87,2438.97 1956.55,2445.64C1960.19,2447.41 1959.74,2451.32 1962.32,2452.83C1964.67,2454.19 1961.64,2455.64 1963.62,2457.03C1966.03,2458.7 1962.95,2458.84 1965.37,2460.21Z" style="fill:#fff;"/>
            <path d="M2347.96,2802.21C2350.93,2809.6 2345.72,2802.88 2347.96,2802.21ZM2377.14,2809.81C2378.59,2810.52 2380.21,2811.21 2377.53,2810.94C2375.92,2810.78 2376.25,2810.15 2377.14,2809.81ZM2378.62,2817.26C2379.13,2816.51 2379.81,2815.13 2380.32,2812.82C2381.07,2809.44 2378.47,2809.29 2377.14,2809.81C2375.97,2809.23 2374.91,2808.64 2376.28,2808.52C2388.95,2807.42 2369,2806.45 2374.47,2802.29C2376.96,2800.39 2371.43,2802.69 2373.37,2800.55C2376.26,2797.39 2369.51,2802.11 2371.4,2798.52C2374.2,2793.22 2367.08,2802.77 2367.77,2796.58C2368.25,2792.3 2365.54,2800.98 2364.67,2796.13C2364.09,2792.87 2363.82,2800.2 2362.2,2796.5C2361.21,2794.24 2362.24,2799.92 2360.48,2797.33C2359.62,2796.07 2360.6,2797.76 2361.19,2799.31C2364.55,2797.75 2368.65,2798.62 2371.05,2801.64C2373.87,2805.18 2373.28,2810.34 2369.74,2813.15C2372.48,2818.95 2367.8,2812.84 2368.49,2816.27C2371.6,2831.67 2364.97,2810.54 2360.93,2817.64C2358.17,2822.5 2361.5,2812.69 2357.57,2816.18C2354.8,2818.65 2358.92,2812.74 2355.6,2814.56C2350.72,2817.24 2359.64,2810.28 2353.3,2811.24C2349.53,2811.81 2356.98,2808.95 2352.34,2808.52C2348.51,2808.17 2356.81,2807.23 2351.75,2805.45C2349,2804.47 2354.79,2804.99 2351.21,2803.13C2349.52,2802.25 2348.51,2802.05 2347.96,2802.21C2347.25,2800.45 2346.08,2797.9 2344.24,2794.27C2342.15,2790.16 2343.38,2783.69 2345.69,2775.8C2347.32,2770.23 2351.45,2765.93 2352.25,2764.39C2360.89,2750.26 2368.52,2721.54 2385.24,2709.62C2393.7,2703.6 2399.66,2699.93 2408.47,2699.76C2419.06,2693.87 2432.43,2697.69 2438.32,2708.28C2444.2,2718.87 2440.38,2732.24 2429.79,2738.12C2427.98,2740.91 2432.68,2744.01 2431.04,2747.57C2423.84,2763.2 2413.79,2783.36 2407.34,2795.66C2406.25,2797.42 2403.76,2804.08 2398.64,2808.77C2393.83,2813.17 2389.01,2814.6 2385.4,2815.15C2381.64,2815.72 2379.6,2816.62 2378.62,2817.26ZM2378.62,2817.26C2377.82,2818.42 2377.41,2818.05 2378.62,2817.26Z" style="fill:#fff;"/>
            <path d="M2146.78,3191.47C2147.84,3185.29 2149.16,3178.67 2150.76,3171.6C2151.29,3169.29 2153.16,3167.54 2155.33,3165.52C2167.71,3154.06 2190.33,3139.38 2209.62,3130.25C2222.69,3124.06 2233.72,3123.46 2239.01,3121.39C2250.16,3112.18 2266.69,3113.75 2275.9,3124.9C2285.11,3136.05 2283.54,3152.58 2272.39,3161.79C2268.95,3167.24 2263.2,3178.11 2251.64,3189.73C2236.3,3205.15 2213.97,3221.32 2198.49,3228.8C2195.78,3230.11 2193.43,3231.26 2191.06,3230.89C2183.96,3229.79 2177.37,3228.59 2171.27,3227.32C2173.84,3272.58 2139.92,3283.72 2143.4,3220C2082.26,3199.8 2105.15,3172.47 2146.78,3191.47Z" style="fill:#fff;"/>
            <path d="M1817.01,2926.05C1819.36,2922.03 1824.55,2920.68 1828.57,2923.03C1832.59,2925.39 1833.94,2930.57 1831.59,2934.6C1834.93,2941.6 1837.5,2938.3 1837.83,2946.14C1838.67,2965.85 1826.61,2984.57 1822.47,3006.22C1807.33,3085.61 1809.77,3186.95 1831.96,3292.97C1867.28,3461.67 1947.47,3636.71 2010.38,3754.5C2013.88,3761.04 2017.22,3767.44 2019.94,3773.94C2024.51,3784.88 2026.89,3795.23 2030.73,3805.26C2039.63,3818.78 2035.87,3836.98 2022.35,3845.88C2008.83,3854.77 1990.63,3851.01 1981.74,3837.49C1973.36,3829.33 1964.83,3821.53 1956.76,3811.47C1951.98,3805.51 1947.88,3798.82 1943.79,3791.89C1873.12,3672.02 1811.07,3480.08 1778.72,3303.42C1757.66,3188.44 1746.94,3077.5 1771.76,2993.89C1779.18,2968.86 1783.37,2939.63 1803.4,2927.61C1810.42,2923.39 1808.92,2926.58 1817.01,2926.05Z" style="fill:#fff;"/>
            <path d="M1900.89,3600.38C1902.46,3603.41 1903.6,3607.24 1904.16,3612.02C1905.62,3624.49 1898.35,3654.64 1898.23,3661.88C1897.54,3683.66 1897.73,3705.89 1898.76,3728.12C1899.74,3749.21 1901.72,3770.21 1906.19,3790.5C1916.67,3838.96 1935.63,3884.35 1958.31,3928.18C1993.79,3996.73 2038.98,4061.09 2080.68,4124.74C2102.07,4158.41 2127.43,4198.21 2152.56,4242.12C2185.44,4299.6 2218.43,4363.69 2246.63,4427.33C2281.84,4506.82 2308.92,4585.89 2317.98,4652.18C2324.68,4699.83 2326.3,4749.58 2325.64,4800.72C2323.48,4968.31 2291.59,5151.19 2301.07,5316.7C2301.6,5326.08 2302.97,5335.35 2303.14,5344.64C2303.31,5354.24 2302.16,5363.44 2301.99,5372.94C2303.45,5383.84 2295.78,5393.86 2284.88,5395.32C2273.98,5396.77 2263.95,5389.1 2262.5,5378.2C2259.7,5368.57 2256.56,5359.29 2254.81,5349.31C2253.11,5339.65 2252.98,5329.73 2252.28,5319.85C2240.39,5153.64 2271.26,4969.32 2268.07,4800.89C2267.16,4753.13 2262.85,4706.79 2254.51,4662.62C2242.87,4602.23 2212.93,4531.51 2177.23,4460C2147.19,4399.81 2112.27,4339.61 2079.66,4284.56C2054.43,4241.96 2030.85,4202.28 2010.15,4169.18C1969.35,4101.83 1924.8,4033.68 1890.98,3961.31C1867.41,3910.86 1848.87,3858.5 1839.55,3803.33C1836.22,3783.67 1834.28,3763.57 1834.27,3743.34C1834.24,3714.39 1837.41,3685.37 1841.11,3657.21C1842.34,3648.89 1847.4,3612.91 1855.26,3600.63C1858.24,3595.98 1859.73,3594.59 1861.13,3593.71C1865.83,3590.77 1863.94,3586.92 1865.73,3586.68C1868.5,3586.29 1867.93,3582.89 1869.93,3583.14C1874.55,3583.72 1875.61,3578.06 1878.61,3579.98C1884.8,3583.93 1892.55,3576.56 1894.19,3584.28C1894.57,3586.05 1897.39,3585.3 1897.38,3587.39C1897.37,3589.39 1900.88,3589.32 1900.21,3591.88C1899.69,3593.85 1904.4,3595.27 1902.01,3598.79C1901.63,3599.36 1901.26,3599.89 1900.89,3600.38Z" style="fill:#fff;"/>
        </g>
    </g>
</svg>
